<?xml version="1.0" encoding="UTF-8"?>
<svg height="600" width="800" xmlns="http://www.w3.org/2000/svg" xmlns:xlink="http://www.w3.org/1999/xlink">
    <g id="Notes" font-family="'LucidaGrande', 'Lucida Grande', sans-serif" font-size="13">
        <rect fill="white" height="600.0" width="800.0" x="0.0" y="0.0" />
        <g font-size="13">
            <text x="18.0" y="176.0">Small</text>
            <text x="18.0" y="376.0">Medium</text>
            <text x="18.0" y="576.0">Large</text>
        </g>
        <g font-size="9">
            <text x="250.0" y="30.0">Ultralight</text>
            <text x="450.0" y="30.0">Regular</text>
            <text x="650.0" y="30.0">Black</text>
            <text id="template-version" fill="#505050" text-anchor="end" x="785.0" y="575.0">Template v.3.0</text>
            <a href="https://wangchujiang.com/#/app">
                <text fill="#505050" text-anchor="end" x="785.0" y="590.0">https://wangchujiang.com/#/app</text>
            </a>
        </g>
    </g>
    <g id="Guides" stroke="rgb(39, 170, 225)" stroke-width="0.5">
        <path id="Capline-S" d="M18,76 l800,0" />
        <path id="H-reference" d="M85,145.755 L87.685,145.755 L113.369,79.287 L114.052,79.287 L114.052,76 L112.148,76 L85,145.755 Z M95.693,121.536 L130.996,121.536 L130.263,119.313 L96.474,119.313 L95.693,121.536 Z M139.15,145.755 L141.787,145.755 L114.638,76 L113.466,76 L113.466,79.287 L139.15,145.755 Z" stroke="none" />
        <path id="Baseline-S" d="M18,146 l800,0" />
        <path id="left-margin-Ultralight-S" d="M220.232,56 l0,110" />
        <path id="right-margin-Ultralight-S" d="M309.768,56 l0,110" />
        <path id="left-margin-Regular-S" d="M420.232,56 l0,110" />
        <path id="right-margin-Regular-S" d="M509.768,56 l0,110" />
        <path id="left-margin-Black-S" d="M620.232,56 l0,110" />
        <path id="right-margin-Black-S" d="M709.768,56 l0,110" />
        <path id="Capline-M" d="M18,276 l800,0" />
        <path id="Baseline-M" d="M18,346 l800,0" />
        <path id="Capline-L" d="M18,476 l800,0" />
        <path id="Baseline-L" d="M18,546 l800,0" />
    </g>
    <g id="Symbols">
        <g id="Ultralight-S">
            <path d="M254.403,103.784 C245.565,112.74 240.204,119.103 237.21,122.943 C234.649,126.23 234.041,130.496 235.327,134.126 L231.617,137.865 C229.762,139.735 229.771,142.758 231.642,144.613 C232.571,145.539 233.787,146 235.005,146 C236.233,146 237.458,145.529 238.39,144.591 L242.161,140.792 C243.315,141.17 244.528,141.361 245.749,141.361 C248.282,141.361 250.846,140.54 252.975,138.883 C256.818,135.889 263.191,130.518 272.182,121.645 C269.185,119.889 265.688,117.366 262.141,113.793 C258.625,110.255 256.14,106.774 254.403,103.784 Z" />
            <path d="M297.179,80.708 C296.864,80.301 296.537,79.928 296.209,79.597 C295.881,79.27 295.512,78.942 295.105,78.618 C289.894,74.52 282.169,75.321 277.546,80.406 L273.159,85.079 C269.735,84.204 264.008,84.268 257.661,90.657 C256.907,91.417 256.595,92.515 256.843,93.558 C256.917,93.873 258.74,101.337 266.659,109.313 C274.578,117.293 281.997,119.132 282.309,119.208 C282.547,119.265 282.789,119.294 283.028,119.294 C283.845,119.294 284.638,118.969 285.226,118.378 C291.637,111.919 291.675,106.173 290.784,102.743 L295.363,98.391 C300.441,93.711 301.239,85.945 297.179,80.714 Z" />
        </g>
        <g id="Regular-S">
            <path d="M454.403,103.784 C445.565,112.74 440.204,119.103 437.21,122.943 C434.649,126.23 434.041,130.496 435.326,134.126 L431.617,137.865 C429.762,139.735 429.771,142.758 431.642,144.613 C432.571,145.539 433.787,146 435.005,146 C436.233,146 437.458,145.529 438.39,144.591 L442.161,140.792 C443.315,141.17 444.528,141.361 445.749,141.361 C448.282,141.361 450.846,140.54 452.975,138.883 C456.818,135.889 463.191,130.518 472.182,121.645 C469.185,119.889 465.688,117.366 462.141,113.793 C458.625,110.255 456.14,106.774 454.403,103.784 Z" />
            <path d="M497.179,80.708 C496.864,80.301 496.537,79.928 496.209,79.597 C495.881,79.27 495.512,78.942 495.105,78.618 C489.894,74.52 482.169,75.321 477.546,80.406 L473.159,85.079 C469.735,84.204 464.008,84.268 457.661,90.657 C456.907,91.417 456.595,92.515 456.843,93.558 C456.917,93.873 458.74,101.337 466.659,109.313 C474.578,117.293 481.997,119.132 482.309,119.208 C482.547,119.265 482.789,119.294 483.028,119.294 C483.845,119.294 484.638,118.969 485.226,118.378 C491.637,111.919 491.675,106.173 490.784,102.743 L495.363,98.391 C500.441,93.711 501.239,85.945 497.179,80.714 Z" />
        </g>
        <g id="Black-S">
            <path d="M654.403,103.784 C645.565,112.74 640.204,119.103 637.21,122.943 C634.649,126.23 634.041,130.496 635.326,134.126 L631.617,137.865 C629.762,139.735 629.771,142.758 631.642,144.613 C632.571,145.539 633.787,146 635.005,146 C636.233,146 637.458,145.529 638.39,144.591 L642.161,140.792 C643.315,141.17 644.528,141.361 645.749,141.361 C648.282,141.361 650.846,140.54 652.975,138.883 C656.818,135.889 663.191,130.518 672.182,121.645 C669.185,119.889 665.688,117.366 662.141,113.793 C658.625,110.255 656.14,106.774 654.403,103.784 Z" />
            <path d="M697.179,80.708 C696.864,80.301 696.537,79.928 696.209,79.597 C695.881,79.27 695.512,78.942 695.105,78.618 C689.894,74.52 682.169,75.321 677.546,80.406 L673.159,85.079 C669.735,84.204 664.008,84.268 657.661,90.657 C656.907,91.417 656.595,92.515 656.843,93.558 C656.917,93.873 658.74,101.337 666.659,109.313 C674.578,117.293 681.997,119.132 682.309,119.208 C682.547,119.265 682.789,119.294 683.028,119.294 C683.845,119.294 684.638,118.969 685.226,118.378 C691.637,111.919 691.675,106.173 690.784,102.743 L695.363,98.391 C700.441,93.711 701.239,85.945 697.179,80.714 Z" />
        </g>
    </g>
</svg>