<?xml version="1.0" encoding="UTF-8"?>
<!--Generator: Apple Native CoreSVG 341-->
<!DOCTYPE svg
PUBLIC "-//W3C//DTD SVG 1.1//EN"
       "http://www.w3.org/Graphics/SVG/1.1/DTD/svg11.dtd">
<svg version="1.1" xmlns="http://www.w3.org/2000/svg" xmlns:xlink="http://www.w3.org/1999/xlink" viewBox="0 0 3300 2200">
 <!--glyph: "", point size: 100.0, font version: "20.0d10e1", template writer version: "138.0.0"-->
 <style>.SFSymbolsPreviewWireframe {fill:none;opacity:1.0;stroke:black;stroke-width:0.5}
</style>
 <g id="Notes">
  <rect height="2200" id="artboard" style="fill:white;opacity:1" width="3300" x="0" y="0"/>
  <line style="fill:none;stroke:black;opacity:1;stroke-width:0.5;" x1="263" x2="3036" y1="292" y2="292"/>
  <text style="stroke:none;fill:black;font-family:sans-serif;font-size:13;font-weight:bold;" transform="matrix(1 0 0 1 263 322)">Weight/Scale Variations</text>
  <text style="stroke:none;fill:black;font-family:sans-serif;font-size:13;text-anchor:middle;" transform="matrix(1 0 0 1 559.711 322)">Ultralight</text>
  <text style="stroke:none;fill:black;font-family:sans-serif;font-size:13;text-anchor:middle;" transform="matrix(1 0 0 1 856.422 322)">Thin</text>
  <text style="stroke:none;fill:black;font-family:sans-serif;font-size:13;text-anchor:middle;" transform="matrix(1 0 0 1 1153.13 322)">Light</text>
  <text style="stroke:none;fill:black;font-family:sans-serif;font-size:13;text-anchor:middle;" transform="matrix(1 0 0 1 1449.84 322)">Regular</text>
  <text style="stroke:none;fill:black;font-family:sans-serif;font-size:13;text-anchor:middle;" transform="matrix(1 0 0 1 1746.56 322)">Medium</text>
  <text style="stroke:none;fill:black;font-family:sans-serif;font-size:13;text-anchor:middle;" transform="matrix(1 0 0 1 2043.27 322)">Semibold</text>
  <text style="stroke:none;fill:black;font-family:sans-serif;font-size:13;text-anchor:middle;" transform="matrix(1 0 0 1 2339.98 322)">Bold</text>
  <text style="stroke:none;fill:black;font-family:sans-serif;font-size:13;text-anchor:middle;" transform="matrix(1 0 0 1 2636.69 322)">Heavy</text>
  <text style="stroke:none;fill:black;font-family:sans-serif;font-size:13;text-anchor:middle;" transform="matrix(1 0 0 1 2933.4 322)">Black</text>
  <line style="fill:none;stroke:black;opacity:1;stroke-width:0.5;" x1="263" x2="3036" y1="1903" y2="1903"/>
  <g transform="matrix(0.2 0 0 0.2 263 1933)">
   <path d="m46.2402 4.15039c21.7773 0 39.4531-17.627 39.4531-39.4043s-17.6758-39.4043-39.4531-39.4043c-21.7285 0-39.4043 17.627-39.4043 39.4043s17.6758 39.4043 39.4043 39.4043Zm0-7.42188c-17.6758 0-31.9336-14.3066-31.9336-31.9824s14.2578-31.9824 31.9336-31.9824 31.9824 14.3066 31.9824 31.9824-14.3066 31.9824-31.9824 31.9824Zm-17.9688-31.9824c0 2.14844 1.51367 3.61328 3.75977 3.61328h10.498v10.5957c0 2.19727 1.46484 3.71094 3.61328 3.71094 2.24609 0 3.71094-1.51367 3.71094-3.71094v-10.5957h10.5957c2.19727 0 3.71094-1.46484 3.71094-3.61328 0-2.19727-1.51367-3.71094-3.71094-3.71094h-10.5957v-10.5469c0-2.24609-1.46484-3.75977-3.71094-3.75977-2.14844 0-3.61328 1.51367-3.61328 3.75977v10.5469h-10.498c-2.24609 0-3.75977 1.51367-3.75977 3.71094Z"/>
  </g>
  <g transform="matrix(0.2 0 0 0.2 281.506 1933)">
   <path d="m58.5449 14.5508c27.4902 0 49.8047-22.3145 49.8047-49.8047s-22.3145-49.8047-49.8047-49.8047-49.8047 22.3145-49.8047 49.8047 22.3145 49.8047 49.8047 49.8047Zm0-8.30078c-22.9492 0-41.5039-18.5547-41.5039-41.5039s18.5547-41.5039 41.5039-41.5039 41.5039 18.5547 41.5039 41.5039-18.5547 41.5039-41.5039 41.5039Zm-22.6562-41.5039c0 2.39258 1.66016 4.00391 4.15039 4.00391h14.3555v14.4043c0 2.44141 1.66016 4.15039 4.05273 4.15039 2.44141 0 4.15039-1.66016 4.15039-4.15039v-14.4043h14.4043c2.44141 0 4.15039-1.61133 4.15039-4.00391 0-2.44141-1.70898-4.15039-4.15039-4.15039h-14.4043v-14.3555c0-2.49023-1.70898-4.19922-4.15039-4.19922-2.39258 0-4.05273 1.70898-4.05273 4.19922v14.3555h-14.3555c-2.49023 0-4.15039 1.70898-4.15039 4.15039Z"/>
  </g>
  <g transform="matrix(0.2 0 0 0.2 304.924 1933)">
   <path d="m74.8535 28.3203c35.1074 0 63.623-28.4668 63.623-63.5742s-28.5156-63.623-63.623-63.623-63.5742 28.5156-63.5742 63.623 28.4668 63.5742 63.5742 63.5742Zm0-9.08203c-30.127 0-54.4922-24.3652-54.4922-54.4922s24.3652-54.4922 54.4922-54.4922 54.4922 24.3652 54.4922 54.4922-24.3652 54.4922-54.4922 54.4922Zm-28.8574-54.4922c0 2.58789 1.85547 4.39453 4.58984 4.39453h19.7266v19.7754c0 2.68555 1.85547 4.58984 4.44336 4.58984 2.68555 0 4.54102-1.85547 4.54102-4.58984v-19.7754h19.7754c2.68555 0 4.58984-1.80664 4.58984-4.39453 0-2.73438-1.85547-4.58984-4.58984-4.58984h-19.7754v-19.7266c0-2.73438-1.85547-4.63867-4.54102-4.63867-2.58789 0-4.44336 1.9043-4.44336 4.63867v19.7266h-19.7266c-2.73438 0-4.58984 1.85547-4.58984 4.58984Z"/>
  </g>
  <text style="stroke:none;fill:black;font-family:sans-serif;font-size:13;font-weight:bold;" transform="matrix(1 0 0 1 263 1953)">Design Variations</text>
  <text style="stroke:none;fill:black;font-family:sans-serif;font-size:13;" transform="matrix(1 0 0 1 263 1971)">Symbols are supported in up to nine weights and three scales.</text>
  <text style="stroke:none;fill:black;font-family:sans-serif;font-size:13;" transform="matrix(1 0 0 1 263 1989)">For optimal layout with text and other symbols, vertically align</text>
  <text style="stroke:none;fill:black;font-family:sans-serif;font-size:13;" transform="matrix(1 0 0 1 263 2007)">symbols with the adjacent text.</text>
  <line style="fill:none;stroke:#00AEEF;stroke-width:0.5;opacity:1.0;" x1="776" x2="776" y1="1919" y2="1933"/>
  <g transform="matrix(0.2 0 0 0.2 776 1933)">
   <path d="m16.5527 0.78125c2.58789 0 3.85742-0.976562 4.78516-3.71094l6.29883-17.2363h28.8086l6.29883 17.2363c0.927734 2.73438 2.19727 3.71094 4.73633 3.71094 2.58789 0 4.24805-1.5625 4.24805-4.00391 0-0.830078-0.146484-1.61133-0.537109-2.63672l-22.9004-60.9863c-1.12305-2.97852-3.125-4.49219-6.25-4.49219-3.02734 0-5.07812 1.46484-6.15234 4.44336l-22.9004 61.084c-0.390625 1.02539-0.537109 1.80664-0.537109 2.63672 0 2.44141 1.5625 3.95508 4.10156 3.95508Zm13.4766-28.3691 11.8652-32.8613h0.244141l11.8652 32.8613Z"/>
  </g>
  <line style="fill:none;stroke:#00AEEF;stroke-width:0.5;opacity:1.0;" x1="792.836" x2="792.836" y1="1919" y2="1933"/>
  <text style="stroke:none;fill:black;font-family:sans-serif;font-size:13;font-weight:bold;" transform="matrix(1 0 0 1 776 1953)">Margins</text>
  <text style="stroke:none;fill:black;font-family:sans-serif;font-size:13;" transform="matrix(1 0 0 1 776 1971)">Leading and trailing margins on the left and right side of each symbol</text>
  <text style="stroke:none;fill:black;font-family:sans-serif;font-size:13;" transform="matrix(1 0 0 1 776 1989)">can be adjusted by modifying the x-location of the margin guidelines.</text>
  <text style="stroke:none;fill:black;font-family:sans-serif;font-size:13;" transform="matrix(1 0 0 1 776 2007)">Modifications are automatically applied proportionally to all</text>
  <text style="stroke:none;fill:black;font-family:sans-serif;font-size:13;" transform="matrix(1 0 0 1 776 2025)">scales and weights.</text>
  <g transform="matrix(0.2 0 0 0.2 1289 1933)">
   <path d="m14.209 9.32617 8.49609 8.54492c4.29688 4.3457 9.22852 4.05273 13.8672-1.07422l53.4668-58.9355-4.83398-4.88281-53.0762 58.3984c-1.75781 2.00195-3.41797 2.49023-5.76172 0.146484l-5.85938-5.81055c-2.34375-2.29492-1.80664-4.00391 0.195312-5.81055l57.373-54.0039-4.88281-4.83398-57.959 54.4434c-4.93164 4.58984-5.32227 9.47266-1.02539 13.8184Zm32.0801-90.9668c-2.09961 2.05078-2.24609 4.93164-1.07422 6.88477 1.17188 1.80664 3.4668 2.97852 6.68945 2.14844 7.32422-1.70898 14.9414-2.00195 22.0703 2.68555l-2.92969 7.27539c-1.70898 4.15039-0.830078 7.08008 1.85547 9.81445l11.4746 11.5723c2.44141 2.44141 4.49219 2.53906 7.32422 2.05078l5.32227-0.976562 3.32031 3.36914-0.195312 2.7832c-0.195312 2.49023 0.439453 4.39453 2.88086 6.78711l3.80859 3.71094c2.39258 2.39258 5.46875 2.53906 7.8125 0.195312l14.5508-14.5996c2.34375-2.34375 2.24609-5.32227-0.146484-7.71484l-3.85742-3.80859c-2.39258-2.39258-4.24805-3.17383-6.64062-2.97852l-2.88086 0.244141-3.22266-3.17383 1.2207-5.61523c0.634766-2.83203-0.146484-5.0293-3.07617-7.95898l-10.9863-10.9375c-16.6992-16.6016-38.8672-16.2109-53.3203-1.75781Zm7.4707 1.85547c12.1582-8.88672 28.6133-7.37305 39.7461 3.75977l12.1582 12.0605c1.17188 1.17188 1.36719 2.09961 1.02539 3.80859l-1.61133 7.42188 7.51953 7.42188 4.93164-0.292969c1.26953-0.0488281 1.66016 0.0488281 2.63672 1.02539l2.88086 2.88086-12.207 12.207-2.88086-2.88086c-0.976562-0.976562-1.12305-1.36719-1.07422-2.68555l0.341797-4.88281-7.4707-7.42188-7.61719 1.26953c-1.61133 0.341797-2.34375 0.195312-3.56445-0.976562l-10.0098-10.0098c-1.26953-1.17188-1.41602-2.00195-0.634766-3.85742l4.39453-10.4492c-7.8125-7.27539-17.9688-10.4004-28.125-7.42188-0.78125 0.195312-1.07422-0.439453-0.439453-0.976562Z"/>
  </g>
  <text style="stroke:none;fill:black;font-family:sans-serif;font-size:13;font-weight:bold;" transform="matrix(1 0 0 1 1289 1953)">Exporting</text>
  <text style="stroke:none;fill:black;font-family:sans-serif;font-size:13;" transform="matrix(1 0 0 1 1289 1971)">Symbols should be outlined when exporting to ensure the</text>
  <text style="stroke:none;fill:black;font-family:sans-serif;font-size:13;" transform="matrix(1 0 0 1 1289 1989)">design is preserved when submitting to Xcode.</text>
  <text id="template-version" style="stroke:none;fill:black;font-family:sans-serif;font-size:13;text-anchor:end;" transform="matrix(1 0 0 1 3036 1933)">Template v.6.0</text>
  <text style="stroke:none;fill:black;font-family:sans-serif;font-size:13;text-anchor:end;" transform="matrix(1 0 0 1 3036 1951)">Requires Xcode 16 or greater</text>
  <text id="descriptive-name" style="stroke:none;fill:black;font-family:sans-serif;font-size:13;text-anchor:end;" transform="matrix(1 0 0 1 3036 1969)">Generated from line</text>
  <text style="stroke:none;fill:black;font-family:sans-serif;font-size:13;text-anchor:end;" transform="matrix(1 0 0 1 3036 1987)">Typeset at 100.0 points</text>
  <text style="stroke:none;fill:black;font-family:sans-serif;font-size:13;" transform="matrix(1 0 0 1 263 726)">Small</text>
  <text style="stroke:none;fill:black;font-family:sans-serif;font-size:13;" transform="matrix(1 0 0 1 263 1156)">Medium</text>
  <text style="stroke:none;fill:black;font-family:sans-serif;font-size:13;" transform="matrix(1 0 0 1 263 1586)">Large</text>
 </g>
 <g id="Guides">
  <g id="H-reference" style="fill:#27AAE1;stroke:none;" transform="matrix(1 0 0 1 339 696)">
   <path d="M0.993654 0L3.63775 0L29.3281-67.1323L30.0303-67.1323L30.0303-70.459L28.1226-70.459ZM11.6885-24.4799L46.9815-24.4799L46.2315-26.7285L12.4385-26.7285ZM55.1196 0L57.7637 0L30.6382-70.459L29.4326-70.459L29.4326-67.1323Z"/>
  </g>
  <line id="Baseline-S" style="fill:none;stroke:#27AAE1;opacity:1;stroke-width:0.5;" x1="263" x2="3036" y1="696" y2="696"/>
  <line id="Capline-S" style="fill:none;stroke:#27AAE1;opacity:1;stroke-width:0.5;" x1="263" x2="3036" y1="625.541" y2="625.541"/>
  <g id="H-reference" style="fill:#27AAE1;stroke:none;" transform="matrix(1 0 0 1 339 1126)">
   <path d="M0.993654 0L3.63775 0L29.3281-67.1323L30.0303-67.1323L30.0303-70.459L28.1226-70.459ZM11.6885-24.4799L46.9815-24.4799L46.2315-26.7285L12.4385-26.7285ZM55.1196 0L57.7637 0L30.6382-70.459L29.4326-70.459L29.4326-67.1323Z"/>
  </g>
  <line id="Baseline-M" style="fill:none;stroke:#27AAE1;opacity:1;stroke-width:0.5;" x1="263" x2="3036" y1="1126" y2="1126"/>
  <line id="Capline-M" style="fill:none;stroke:#27AAE1;opacity:1;stroke-width:0.5;" x1="263" x2="3036" y1="1055.54" y2="1055.54"/>
  <g id="H-reference" style="fill:#27AAE1;stroke:none;" transform="matrix(1 0 0 1 339 1556)">
   <path d="M0.993654 0L3.63775 0L29.3281-67.1323L30.0303-67.1323L30.0303-70.459L28.1226-70.459ZM11.6885-24.4799L46.9815-24.4799L46.2315-26.7285L12.4385-26.7285ZM55.1196 0L57.7637 0L30.6382-70.459L29.4326-70.459L29.4326-67.1323Z"/>
  </g>
  <line id="Baseline-L" style="fill:none;stroke:#27AAE1;opacity:1;stroke-width:0.5;" x1="263" x2="3036" y1="1556" y2="1556"/>
  <line id="Capline-L" style="fill:none;stroke:#27AAE1;opacity:1;stroke-width:0.5;" x1="263" x2="3036" y1="1485.54" y2="1485.54"/>
  <line id="right-margin-Black-S" style="fill:none;stroke:#00AEEF;stroke-width:0.5;opacity:1.0;" x1="2981.9" x2="2981.9" y1="600.785" y2="720.121"/>
  <line id="left-margin-Black-S" style="fill:none;stroke:#00AEEF;stroke-width:0.5;opacity:1.0;" x1="2884.9" x2="2884.9" y1="600.785" y2="720.121"/>
  <line id="right-margin-Regular-S" style="fill:none;stroke:#00AEEF;stroke-width:0.5;opacity:1.0;" x1="1495.64" x2="1495.64" y1="600.785" y2="720.121"/>
  <line id="left-margin-Regular-S" style="fill:none;stroke:#00AEEF;stroke-width:0.5;opacity:1.0;" x1="1404.04" x2="1404.04" y1="600.785" y2="720.121"/>
  <line id="right-margin-Ultralight-S" style="fill:none;stroke:#00AEEF;stroke-width:0.5;opacity:1.0;" x1="602.561" x2="602.561" y1="600.785" y2="720.121"/>
  <line id="left-margin-Ultralight-S" style="fill:none;stroke:#00AEEF;stroke-width:0.5;opacity:1.0;" x1="516.861" x2="516.861" y1="600.785" y2="720.121"/>
 </g>
 <g id="Symbols">
  <g id="Black-S" transform="matrix(1 0 0 1 2884.9 696)">
   <path class="SFSymbolsPreviewWireframe" d="M59.875-73.7051C85.0312-73.7051 87-71.7364 87-46.5801L87-23.8301C87 1.32611 85.0312 3.29486 59.875 3.29486L37.125 3.29486C11.9688 3.29486 10 1.32611 10-23.8301L10-46.5801C10-71.7364 11.9688-73.7051 37.125-73.7051L59.875-73.7051ZM72.0374-21.6182C76.3774-26.3746 78.4565-31.2081 78.4565-36.5737C78.4565-49.9751 65.02-60.8741 48.5105-60.8741C32.001-60.8741 18.5647-49.9716 18.5647-36.5737C18.5647-24.5616 29.2151-14.4991 43.6072-12.5953C44.5835-12.3851 45.9067-11.9476 46.2461-11.1182C46.5505-10.3586 46.4453-9.17566 46.3442-8.40918C46.3442-8.40918 45.9939-6.29511 45.917-5.84711C45.7908-5.09119 45.3186-2.88617 48.5105-4.23022C51.7061-5.57776 65.7549-14.3872 72.0374-21.6182ZM34.738-27.8936L28.7041-27.8936C27.8254-27.8936 27.1116-28.5726 27.1116-29.4196L27.1116-40.9871C27.1116-41.8306 27.8254-42.5131 28.7041-42.5131C29.5825-42.5131 30.2964-41.8271 30.2964-40.9871L30.2964-30.9421L34.7415-30.9421C35.6201-30.9421 36.334-30.2561 36.334-29.4161C36.3306-28.5796 35.6201-27.8936 34.738-27.8936ZM41.7871-29.4231C41.7871-28.5796 41.073-27.8901 40.1946-27.8901C39.3159-27.8901 38.6021-28.5761 38.6021-29.4231L38.6021-40.9906C38.6021-41.8306 39.3159-42.5166 40.1946-42.5166C41.073-42.5166 41.7871-41.8306 41.7871-40.9906L41.7871-29.4231ZM57.1101-29.4231C57.1101-28.7651 56.6936-28.1841 56.0706-27.9741C55.9165-27.9181 55.7556-27.8936 55.5911-27.8936C55.115-27.8936 54.6636-28.1211 54.3799-28.5061L48.4895-36.5841L48.4895-29.4266C48.4895-28.5866 47.8105-27.8936 46.9705-27.8936C46.1306-27.8936 45.4514-28.5796 45.4514-29.4266L45.4514-40.9941C45.4514-41.6521 45.8716-42.2331 46.491-42.4431C46.6484-42.4991 46.813-42.5201 46.9705-42.5201C47.4465-42.5201 47.8979-42.2926 48.1814-41.9076L54.072-33.8296L54.072-40.9906C54.072-41.8306 54.7581-42.5166 55.5911-42.5166C56.4241-42.5166 57.0996-41.8306 57.0996-40.9906L57.0996-29.4231L57.1101-29.4231ZM68.2925-36.7381C69.1709-36.7381 69.8884-36.0521 69.8884-35.2051C69.8884-34.3651 69.1746-33.6791 68.2925-33.6791L63.8474-33.6791L63.8474-30.9456L68.2925-30.9456C69.1709-30.9456 69.8884-30.2596 69.8884-29.4196C69.8884-28.5796 69.1746-27.8936 68.2925-27.8936L62.2549-27.8936C61.3765-27.8936 60.6626-28.5796 60.6626-29.4266L60.6626-35.2051L60.6626-35.2086L60.6626-35.2121L60.6626-40.9871L60.6626-40.9906C60.6626-41.8306 61.3765-42.5166 62.2549-42.5166L68.2925-42.5166C69.1709-42.5166 69.8884-41.8306 69.8884-40.9906C69.8884-40.1471 69.1746-39.4646 68.2925-39.4646L63.8474-39.4646L63.8474-36.7311L68.2925-36.7381L68.2925-36.7381Z"/>
  </g>
  <g id="Regular-S" transform="matrix(1 0 0 1 1404.04 696)">
   <path class="SFSymbolsPreviewWireframe" d="M60.5254-71.0539C80.0703-71.0539 81.6-69.5244 81.6-49.9793L81.6-20.5284C81.6-0.98352 80.0703 0.546082 60.5254 0.546082L31.0746 0.546082C11.5297 0.546082 10-0.983521 10-20.5284L10-49.9793C10-69.5244 11.5297-71.0539 31.0746-71.0539L60.5254-71.0539ZM67.6869-22.6198C71.7224-27.0427 73.6556-31.5372 73.6556-36.5265C73.6556-48.9881 61.1615-59.1227 45.8097-59.1227C30.458-59.1227 17.9639-48.9848 17.9639-36.5265C17.9639-25.3569 27.8674-16.0001 41.2501-14.2296C42.1581-14.0342 43.3883-13.6275 43.7041-12.8561C43.9872-12.1498 43.8895-11.0499 43.7952-10.3371C43.7952-10.3371 43.4697-8.37134 43.3982-7.95477C43.2809-7.25183 42.8417-5.20148 45.8097-6.45123C48.7811-7.70422 61.8448-15.8959 67.6869-22.6198ZM33.0031-28.4551L27.3922-28.4551C26.5753-28.4551 25.9115-29.0865 25.9115-29.8741L25.9115-40.6304C25.9115-41.4147 26.5753-42.0494 27.3922-42.0494C28.2091-42.0494 28.873-41.4115 28.873-40.6304L28.873-31.2899L33.0063-31.2899C33.8232-31.2899 34.4872-30.652 34.4872-29.8708C34.4839-29.093 33.8232-28.4551 33.0031-28.4551ZM39.5577-29.8774C39.5577-29.093 38.8938-28.4519 38.0769-28.4519C37.26-28.4519 36.5961-29.0898 36.5961-29.8774L36.5961-40.6337C36.5961-41.4147 37.26-42.0526 38.0769-42.0526C38.8938-42.0526 39.5577-41.4147 39.5577-40.6337L39.5577-29.8774ZM53.8062-29.8774C53.8062-29.2655 53.4188-28.7253 52.8396-28.53C52.6963-28.4779 52.5466-28.4551 52.3937-28.4551C51.951-28.4551 51.5312-28.6667 51.2676-29.0247L45.7902-36.5362L45.7902-29.8806C45.7902-29.0995 45.1588-28.4551 44.3777-28.4551C43.5967-28.4551 42.9652-29.093 42.9652-29.8806L42.9652-40.6369C42.9652-41.2488 43.3558-41.789 43.9319-41.9843C44.0784-42.0364 44.2313-42.0559 44.3777-42.0559C44.8203-42.0559 45.2402-41.8444 45.5038-41.4863L50.9812-33.9749L50.9812-40.6337C50.9812-41.4147 51.6191-42.0526 52.3937-42.0526C53.1682-42.0526 53.7964-41.4147 53.7964-40.6337L53.7964-29.8774L53.8062-29.8774ZM64.2045-36.6794C65.0214-36.6794 65.6885-36.0415 65.6885-35.2539C65.6885-34.4728 65.0245-33.8349 64.2045-33.8349L60.0712-33.8349L60.0712-31.2931L64.2045-31.2931C65.0214-31.2931 65.6885-30.6552 65.6885-29.8741C65.6885-29.093 65.0245-28.4551 64.2045-28.4551L58.5903-28.4551C57.7734-28.4551 57.1095-29.093 57.1095-29.8806L57.1095-35.2539L57.1095-35.2571L57.1095-35.2604L57.1095-40.6304L57.1095-40.6337C57.1095-41.4147 57.7734-42.0526 58.5903-42.0526L64.2045-42.0526C65.0214-42.0526 65.6885-41.4147 65.6885-40.6337C65.6885-39.8493 65.0245-39.2147 64.2045-39.2147L60.0712-39.2147L60.0712-36.6729L64.2045-36.6794L64.2045-36.6794Z"/>
  </g>
  <g id="Ultralight-S" transform="matrix(1 0 0 1 516.861 696)">
   <path class="SFSymbolsPreviewWireframe" d="M58.6826-68.1039C74.465-68.1039 75.7-66.8688 75.7-51.0866L75.7-19.3162C75.7-3.63147 74.4725-2.40387 58.7877-2.40387L26.9124-2.40387C11.2275-2.40387 10-3.63147 10-19.3162L10-51.1915C10-66.8764 11.2275-68.1039 26.9124-68.1039L58.6826-68.1039ZM62.9333-23.6608C66.6365-27.7194 68.4103-31.8435 68.4103-36.4216C68.4103-47.8564 56.9457-57.1559 42.859-57.1559C28.7723-57.1559 17.3077-47.8533 17.3077-36.4216C17.3077-26.1724 26.3952-17.5866 38.675-15.962C39.5084-15.7828 40.6371-15.4095 40.9268-14.7018C41.1865-14.0536 41.0971-13.0443 41.0105-12.3903C41.0105-12.3903 40.7117-10.5866 40.6461-10.2043C40.5385-9.5592 40.1355-7.67786 42.859-8.82458C45.5855-9.97437 57.5728-17.491 62.9333-23.6608ZM31.1077-29.0154L25.9592-29.0154C25.2096-29.0154 24.6003-29.5947 24.6003-30.3174L24.6003-40.1874C24.6003-40.9071 25.2096-41.4894 25.9592-41.4894C26.7087-41.4894 27.3179-40.9041 27.3179-40.1874L27.3179-31.6165L31.1107-31.6165C31.8602-31.6165 32.4694-31.0312 32.4694-30.3145C32.4664-29.6007 31.8602-29.0154 31.1077-29.0154ZM37.1222-30.3204C37.1222-29.6007 36.5129-29.0124 35.7634-29.0124C35.0138-29.0124 34.4046-29.5977 34.4046-30.3204L34.4046-40.1904C34.4046-40.907 35.0138-41.4924 35.7634-41.4924C36.5129-41.4924 37.1222-40.907 37.1222-40.1904L37.1222-30.3204ZM50.1965-30.3204C50.1965-29.759 49.8411-29.2632 49.3095-29.084C49.1781-29.0363 49.0408-29.0154 48.9004-29.0154C48.4943-29.0154 48.109-29.2095 47.8671-29.538L42.8411-36.4305L42.8411-30.3234C42.8411-29.6067 42.2617-29.0154 41.545-29.0154C40.8282-29.0154 40.2489-29.6007 40.2489-30.3234L40.2489-40.1934C40.2489-40.7548 40.6072-41.2505 41.1359-41.4297C41.2703-41.4775 41.4106-41.4954 41.545-41.4954C41.9511-41.4954 42.3364-41.3013 42.5782-40.9728L47.6043-34.0803L47.6043-40.1904C47.6043-40.907 48.1896-41.4924 48.9004-41.4924C49.6111-41.4924 50.1875-40.907 50.1875-40.1904L50.1875-30.3204L50.1965-30.3204ZM59.7379-36.5619C60.4875-36.5619 61.0997-35.9766 61.0997-35.2539C61.0997-34.5372 60.4905-33.9518 59.7379-33.9518L55.9453-33.9518L55.9453-31.6195L59.7379-31.6195C60.4875-31.6195 61.0997-31.0342 61.0997-30.3174C61.0997-29.6007 60.4905-29.0154 59.7379-29.0154L54.5864-29.0154C53.8369-29.0154 53.2277-29.6007 53.2277-30.3234L53.2277-35.2539L53.2277-35.2569L53.2277-35.2599L53.2277-40.1874L53.2277-40.1904C53.2277-40.9071 53.8369-41.4924 54.5864-41.4924L59.7379-41.4924C60.4875-41.4924 61.0997-40.9071 61.0997-40.1904C61.0997-39.4706 60.4905-38.8883 59.7379-38.8883L55.9453-38.8883L55.9453-36.556L59.7379-36.5619L59.7379-36.5619Z"/>
  </g>
 </g>
</svg>
