<?xml version="1.0" encoding="UTF-8"?>
<svg height="600" width="800" xmlns="http://www.w3.org/2000/svg" xmlns:xlink="http://www.w3.org/1999/xlink">
    <g id="Notes" font-family="'LucidaGrande', 'Lucida Grande', sans-serif" font-size="13">
        <rect fill="white" height="600.0" width="800.0" x="0.0" y="0.0" />
        <g font-size="13">
            <text x="18.0" y="176.0">Small</text>
            <text x="18.0" y="376.0">Medium</text>
            <text x="18.0" y="576.0">Large</text>
        </g>
        <g font-size="9">
            <text x="250.0" y="30.0">Ultralight</text>
            <text x="450.0" y="30.0">Regular</text>
            <text x="650.0" y="30.0">Black</text>
            <text id="template-version" fill="#505050" text-anchor="end" x="785.0" y="575.0">Template v.3.0</text>
            <a href="https://wangchujiang.com/#/app">
                <text fill="#505050" text-anchor="end" x="785.0" y="590.0">https://wangchujiang.com/#/app</text>
            </a>
        </g>
    </g>
    <g id="Guides" stroke="rgb(39, 170, 225)" stroke-width="0.5">
        <path id="Capline-S" d="M18,76 l800,0" />
        <path id="H-reference" d="M85,145.755 L87.685,145.755 L113.369,79.287 L114.052,79.287 L114.052,76 L112.148,76 L85,145.755 Z M95.693,121.536 L130.996,121.536 L130.263,119.313 L96.474,119.313 L95.693,121.536 Z M139.15,145.755 L141.787,145.755 L114.638,76 L113.466,76 L113.466,79.287 L139.15,145.755 Z" stroke="none" />
        <path id="Baseline-S" d="M18,146 l800,0" />
        <path id="left-margin-Ultralight-S" d="M216.47,56 l0,110" />
        <path id="right-margin-Ultralight-S" d="M313.53,56 l0,110" />
        <path id="left-margin-Regular-S" d="M416.47,56 l0,110" />
        <path id="right-margin-Regular-S" d="M513.53,56 l0,110" />
        <path id="left-margin-Black-S" d="M616.47,56 l0,110" />
        <path id="right-margin-Black-S" d="M713.53,56 l0,110" />
        <path id="Capline-M" d="M18,276 l800,0" />
        <path id="Baseline-M" d="M18,346 l800,0" />
        <path id="Capline-L" d="M18,476 l800,0" />
        <path id="Baseline-L" d="M18,546 l800,0" />
    </g>
    <g id="Symbols">
        <g id="Ultralight-S">
            <path d="M273.753,120.879 C273.753,126.869 267.893,131.345 265.003,133.187 C262.117,131.338 256.24,126.834 256.24,120.879 C256.24,119.159 257.42,117.762 258.867,117.762 C260.065,117.762 261.494,118.105 261.494,119.73 C261.494,121.664 263.059,123.233 264.996,123.233 C266.933,123.233 268.499,121.664 268.499,119.73 C268.499,118.102 269.928,117.762 271.126,117.762 C272.573,117.762 273.753,119.159 273.753,120.879 Z M301.287,82.602 C301.017,81.391 300.128,80.413 298.951,80.032 C298.443,79.867 286.324,76 264.996,76 C243.669,76 231.55,79.867 231.045,80.028 C229.869,80.41 228.979,81.391 228.709,82.599 C228.639,82.907 227.028,86.725 226.475,98.014 C226.415,99.191 226.958,100.315 227.907,101.012 C228.856,101.706 230.096,101.874 231.196,101.468 C232.433,101.005 243.883,96.963 264.996,96.963 C286.11,96.963 297.56,101.005 298.797,101.468 C299.193,101.615 299.606,101.685 300.023,101.685 C301.956,101.73 303.662,99.951 303.522,98.011 C302.972,86.725 301.357,82.904 301.287,82.595 Z M300.005,108.613 C300.201,124.238 296.8,139.545 296.702,139.632 C296.391,140.609 295.665,141.405 294.723,141.8 C294.334,141.965 286.009,146 264.996,146 C243.984,146 235.662,141.965 235.273,141.8 C234.327,141.405 233.602,140.609 233.294,139.632 C233.21,139.66 229.806,124.28 229.991,108.694 C231.221,108.694 232.461,108.473 233.655,108.032 C234.072,107.877 243.984,103.972 265,103.972 C287.767,103.972 295.932,107.877 296.366,108.039 C297.539,108.476 298.776,108.613 300.009,108.613 Z M280.758,120.879 C280.758,115.296 276.44,110.757 271.126,110.757 C268.734,110.757 266.629,111.45 264.996,112.648 C263.364,111.45 261.259,110.757 258.867,110.757 C253.557,110.757 249.235,115.296 249.235,120.879 C249.235,133.138 262.849,140.084 263.427,140.375 C263.921,140.62 264.457,140.743 264.993,140.743 C265.529,140.743 266.068,140.62 266.559,140.375 C267.137,140.084 280.751,133.135 280.751,120.879 Z" />
        </g>
        <g id="Regular-S">
            <path d="M473.753,120.879 C473.753,126.869 467.893,131.345 465.003,133.187 C462.117,131.338 456.24,126.834 456.24,120.879 C456.24,119.159 457.42,117.762 458.867,117.762 C460.065,117.762 461.494,118.105 461.494,119.73 C461.494,121.664 463.059,123.233 464.996,123.233 C466.933,123.233 468.499,121.664 468.499,119.73 C468.499,118.102 469.928,117.762 471.126,117.762 C472.573,117.762 473.753,119.159 473.753,120.879 Z M501.287,82.602 C501.017,81.391 500.128,80.413 498.951,80.032 C498.443,79.867 486.324,76 464.996,76 C443.669,76 431.55,79.867 431.045,80.028 C429.869,80.41 428.979,81.391 428.709,82.599 C428.639,82.907 427.028,86.725 426.475,98.014 C426.415,99.191 426.958,100.315 427.907,101.012 C428.856,101.706 430.096,101.874 431.196,101.468 C432.433,101.005 443.883,96.963 464.996,96.963 C486.11,96.963 497.56,101.005 498.797,101.468 C499.193,101.615 499.606,101.685 500.023,101.685 C501.956,101.73 503.662,99.951 503.522,98.011 C502.972,86.725 501.357,82.904 501.287,82.595 Z M500.005,108.613 C500.201,124.238 496.8,139.545 496.702,139.632 C496.391,140.609 495.665,141.405 494.723,141.8 C494.334,141.965 486.009,146 464.996,146 C443.984,146 435.662,141.965 435.273,141.8 C434.327,141.405 433.602,140.609 433.294,139.632 C433.21,139.66 429.806,124.28 429.991,108.694 C431.221,108.694 432.461,108.473 433.655,108.032 C434.072,107.877 443.984,103.972 465,103.972 C487.767,103.972 495.932,107.877 496.366,108.039 C497.539,108.476 498.776,108.613 500.009,108.613 Z M480.758,120.879 C480.758,115.296 476.44,110.757 471.126,110.757 C468.734,110.757 466.629,111.45 464.996,112.648 C463.364,111.45 461.259,110.757 458.867,110.757 C453.557,110.757 449.235,115.296 449.235,120.879 C449.235,133.138 462.849,140.084 463.427,140.375 C463.921,140.62 464.457,140.743 464.993,140.743 C465.529,140.743 466.068,140.62 466.559,140.375 C467.137,140.084 480.751,133.135 480.751,120.879 Z" />
        </g>
        <g id="Black-S">
            <path d="M673.753,120.879 C673.753,126.869 667.893,131.345 665.003,133.187 C662.117,131.338 656.24,126.834 656.24,120.879 C656.24,119.159 657.42,117.762 658.867,117.762 C660.065,117.762 661.494,118.105 661.494,119.73 C661.494,121.664 663.059,123.233 664.996,123.233 C666.933,123.233 668.499,121.664 668.499,119.73 C668.499,118.102 669.928,117.762 671.126,117.762 C672.573,117.762 673.753,119.159 673.753,120.879 Z M701.287,82.602 C701.017,81.391 700.128,80.413 698.951,80.032 C698.443,79.867 686.324,76 664.996,76 C643.669,76 631.55,79.867 631.045,80.028 C629.869,80.41 628.979,81.391 628.709,82.599 C628.639,82.907 627.028,86.725 626.474,98.014 C626.415,99.191 626.958,100.315 627.907,101.012 C628.856,101.706 630.096,101.874 631.196,101.468 C632.432,101.005 643.883,96.963 664.996,96.963 C686.11,96.963 697.56,101.005 698.797,101.468 C699.193,101.615 699.606,101.685 700.023,101.685 C701.956,101.73 703.662,99.951 703.522,98.011 C702.972,86.725 701.357,82.904 701.287,82.595 Z M700.005,108.613 C700.201,124.238 696.8,139.545 696.702,139.632 C696.39,140.609 695.665,141.405 694.723,141.8 C694.334,141.965 686.009,146 664.996,146 C643.984,146 635.662,141.965 635.273,141.8 C634.327,141.405 633.602,140.609 633.294,139.632 C633.21,139.66 629.805,124.28 629.991,108.694 C631.221,108.694 632.461,108.473 633.655,108.032 C634.072,107.877 643.984,103.972 665,103.972 C687.767,103.972 695.932,107.877 696.366,108.039 C697.539,108.476 698.776,108.613 700.009,108.613 Z M680.758,120.879 C680.758,115.296 676.44,110.757 671.126,110.757 C668.734,110.757 666.629,111.45 664.996,112.648 C663.364,111.45 661.259,110.757 658.867,110.757 C653.557,110.757 649.235,115.296 649.235,120.879 C649.235,133.138 662.849,140.084 663.427,140.375 C663.921,140.62 664.457,140.743 664.993,140.743 C665.529,140.743 666.068,140.62 666.559,140.375 C667.137,140.084 680.751,133.135 680.751,120.879 Z" />
        </g>
    </g>
</svg>