<?xml version="1.0" encoding="UTF-8"?>
<!--Generator: Apple Native CoreSVG 341-->
<!DOCTYPE svg
PUBLIC "-//W3C//DTD SVG 1.1//EN"
       "http://www.w3.org/Graphics/SVG/1.1/DTD/svg11.dtd">
<svg version="1.1" xmlns="http://www.w3.org/2000/svg" xmlns:xlink="http://www.w3.org/1999/xlink" viewBox="0 0 3300 2200">
 <!--glyph: "", point size: 100.0, font version: "20.0d10e1", template writer version: "138.0.0"-->
 <style>.SFSymbolsPreviewWireframe {fill:none;opacity:1.0;stroke:black;stroke-width:0.5}
</style>
 <g id="Notes">
  <rect height="2200" id="artboard" style="fill:white;opacity:1" width="3300" x="0" y="0"/>
  <line style="fill:none;stroke:black;opacity:1;stroke-width:0.5;" x1="263" x2="3036" y1="292" y2="292"/>
  <text style="stroke:none;fill:black;font-family:sans-serif;font-size:13;font-weight:bold;" transform="matrix(1 0 0 1 263 322)">Weight/Scale Variations</text>
  <text style="stroke:none;fill:black;font-family:sans-serif;font-size:13;text-anchor:middle;" transform="matrix(1 0 0 1 559.711 322)">Ultralight</text>
  <text style="stroke:none;fill:black;font-family:sans-serif;font-size:13;text-anchor:middle;" transform="matrix(1 0 0 1 856.422 322)">Thin</text>
  <text style="stroke:none;fill:black;font-family:sans-serif;font-size:13;text-anchor:middle;" transform="matrix(1 0 0 1 1153.13 322)">Light</text>
  <text style="stroke:none;fill:black;font-family:sans-serif;font-size:13;text-anchor:middle;" transform="matrix(1 0 0 1 1449.84 322)">Regular</text>
  <text style="stroke:none;fill:black;font-family:sans-serif;font-size:13;text-anchor:middle;" transform="matrix(1 0 0 1 1746.56 322)">Medium</text>
  <text style="stroke:none;fill:black;font-family:sans-serif;font-size:13;text-anchor:middle;" transform="matrix(1 0 0 1 2043.27 322)">Semibold</text>
  <text style="stroke:none;fill:black;font-family:sans-serif;font-size:13;text-anchor:middle;" transform="matrix(1 0 0 1 2339.98 322)">Bold</text>
  <text style="stroke:none;fill:black;font-family:sans-serif;font-size:13;text-anchor:middle;" transform="matrix(1 0 0 1 2636.69 322)">Heavy</text>
  <text style="stroke:none;fill:black;font-family:sans-serif;font-size:13;text-anchor:middle;" transform="matrix(1 0 0 1 2933.4 322)">Black</text>
  <line style="fill:none;stroke:black;opacity:1;stroke-width:0.5;" x1="263" x2="3036" y1="1903" y2="1903"/>
  <g transform="matrix(0.2 0 0 0.2 263 1933)">
   <path d="m46.2402 4.15039c21.7773 0 39.4531-17.627 39.4531-39.4043s-17.6758-39.4043-39.4531-39.4043c-21.7285 0-39.4043 17.627-39.4043 39.4043s17.6758 39.4043 39.4043 39.4043Zm0-7.42188c-17.6758 0-31.9336-14.3066-31.9336-31.9824s14.2578-31.9824 31.9336-31.9824 31.9824 14.3066 31.9824 31.9824-14.3066 31.9824-31.9824 31.9824Zm-17.9688-31.9824c0 2.14844 1.51367 3.61328 3.75977 3.61328h10.498v10.5957c0 2.19727 1.46484 3.71094 3.61328 3.71094 2.24609 0 3.71094-1.51367 3.71094-3.71094v-10.5957h10.5957c2.19727 0 3.71094-1.46484 3.71094-3.61328 0-2.19727-1.51367-3.71094-3.71094-3.71094h-10.5957v-10.5469c0-2.24609-1.46484-3.75977-3.71094-3.75977-2.14844 0-3.61328 1.51367-3.61328 3.75977v10.5469h-10.498c-2.24609 0-3.75977 1.51367-3.75977 3.71094Z"/>
  </g>
  <g transform="matrix(0.2 0 0 0.2 281.506 1933)">
   <path d="m58.5449 14.5508c27.4902 0 49.8047-22.3145 49.8047-49.8047s-22.3145-49.8047-49.8047-49.8047-49.8047 22.3145-49.8047 49.8047 22.3145 49.8047 49.8047 49.8047Zm0-8.30078c-22.9492 0-41.5039-18.5547-41.5039-41.5039s18.5547-41.5039 41.5039-41.5039 41.5039 18.5547 41.5039 41.5039-18.5547 41.5039-41.5039 41.5039Zm-22.6562-41.5039c0 2.39258 1.66016 4.00391 4.15039 4.00391h14.3555v14.4043c0 2.44141 1.66016 4.15039 4.05273 4.15039 2.44141 0 4.15039-1.66016 4.15039-4.15039v-14.4043h14.4043c2.44141 0 4.15039-1.61133 4.15039-4.00391 0-2.44141-1.70898-4.15039-4.15039-4.15039h-14.4043v-14.3555c0-2.49023-1.70898-4.19922-4.15039-4.19922-2.39258 0-4.05273 1.70898-4.05273 4.19922v14.3555h-14.3555c-2.49023 0-4.15039 1.70898-4.15039 4.15039Z"/>
  </g>
  <g transform="matrix(0.2 0 0 0.2 304.924 1933)">
   <path d="m74.8535 28.3203c35.1074 0 63.623-28.4668 63.623-63.5742s-28.5156-63.623-63.623-63.623-63.5742 28.5156-63.5742 63.623 28.4668 63.5742 63.5742 63.5742Zm0-9.08203c-30.127 0-54.4922-24.3652-54.4922-54.4922s24.3652-54.4922 54.4922-54.4922 54.4922 24.3652 54.4922 54.4922-24.3652 54.4922-54.4922 54.4922Zm-28.8574-54.4922c0 2.58789 1.85547 4.39453 4.58984 4.39453h19.7266v19.7754c0 2.68555 1.85547 4.58984 4.44336 4.58984 2.68555 0 4.54102-1.85547 4.54102-4.58984v-19.7754h19.7754c2.68555 0 4.58984-1.80664 4.58984-4.39453 0-2.73438-1.85547-4.58984-4.58984-4.58984h-19.7754v-19.7266c0-2.73438-1.85547-4.63867-4.54102-4.63867-2.58789 0-4.44336 1.9043-4.44336 4.63867v19.7266h-19.7266c-2.73438 0-4.58984 1.85547-4.58984 4.58984Z"/>
  </g>
  <text style="stroke:none;fill:black;font-family:sans-serif;font-size:13;font-weight:bold;" transform="matrix(1 0 0 1 263 1953)">Design Variations</text>
  <text style="stroke:none;fill:black;font-family:sans-serif;font-size:13;" transform="matrix(1 0 0 1 263 1971)">Symbols are supported in up to nine weights and three scales.</text>
  <text style="stroke:none;fill:black;font-family:sans-serif;font-size:13;" transform="matrix(1 0 0 1 263 1989)">For optimal layout with text and other symbols, vertically align</text>
  <text style="stroke:none;fill:black;font-family:sans-serif;font-size:13;" transform="matrix(1 0 0 1 263 2007)">symbols with the adjacent text.</text>
  <line style="fill:none;stroke:#00AEEF;stroke-width:0.5;opacity:1.0;" x1="776" x2="776" y1="1919" y2="1933"/>
  <g transform="matrix(0.2 0 0 0.2 776 1933)">
   <path d="m16.5527 0.78125c2.58789 0 3.85742-0.976562 4.78516-3.71094l6.29883-17.2363h28.8086l6.29883 17.2363c0.927734 2.73438 2.19727 3.71094 4.73633 3.71094 2.58789 0 4.24805-1.5625 4.24805-4.00391 0-0.830078-0.146484-1.61133-0.537109-2.63672l-22.9004-60.9863c-1.12305-2.97852-3.125-4.49219-6.25-4.49219-3.02734 0-5.07812 1.46484-6.15234 4.44336l-22.9004 61.084c-0.390625 1.02539-0.537109 1.80664-0.537109 2.63672 0 2.44141 1.5625 3.95508 4.10156 3.95508Zm13.4766-28.3691 11.8652-32.8613h0.244141l11.8652 32.8613Z"/>
  </g>
  <line style="fill:none;stroke:#00AEEF;stroke-width:0.5;opacity:1.0;" x1="792.836" x2="792.836" y1="1919" y2="1933"/>
  <text style="stroke:none;fill:black;font-family:sans-serif;font-size:13;font-weight:bold;" transform="matrix(1 0 0 1 776 1953)">Margins</text>
  <text style="stroke:none;fill:black;font-family:sans-serif;font-size:13;" transform="matrix(1 0 0 1 776 1971)">Leading and trailing margins on the left and right side of each symbol</text>
  <text style="stroke:none;fill:black;font-family:sans-serif;font-size:13;" transform="matrix(1 0 0 1 776 1989)">can be adjusted by modifying the x-location of the margin guidelines.</text>
  <text style="stroke:none;fill:black;font-family:sans-serif;font-size:13;" transform="matrix(1 0 0 1 776 2007)">Modifications are automatically applied proportionally to all</text>
  <text style="stroke:none;fill:black;font-family:sans-serif;font-size:13;" transform="matrix(1 0 0 1 776 2025)">scales and weights.</text>
  <g transform="matrix(0.2 0 0 0.2 1289 1933)">
   <path d="m14.209 9.32617 8.49609 8.54492c4.29688 4.3457 9.22852 4.05273 13.8672-1.07422l53.4668-58.9355-4.83398-4.88281-53.0762 58.3984c-1.75781 2.00195-3.41797 2.49023-5.76172 0.146484l-5.85938-5.81055c-2.34375-2.29492-1.80664-4.00391 0.195312-5.81055l57.373-54.0039-4.88281-4.83398-57.959 54.4434c-4.93164 4.58984-5.32227 9.47266-1.02539 13.8184Zm32.0801-90.9668c-2.09961 2.05078-2.24609 4.93164-1.07422 6.88477 1.17188 1.80664 3.4668 2.97852 6.68945 2.14844 7.32422-1.70898 14.9414-2.00195 22.0703 2.68555l-2.92969 7.27539c-1.70898 4.15039-0.830078 7.08008 1.85547 9.81445l11.4746 11.5723c2.44141 2.44141 4.49219 2.53906 7.32422 2.05078l5.32227-0.976562 3.32031 3.36914-0.195312 2.7832c-0.195312 2.49023 0.439453 4.39453 2.88086 6.78711l3.80859 3.71094c2.39258 2.39258 5.46875 2.53906 7.8125 0.195312l14.5508-14.5996c2.34375-2.34375 2.24609-5.32227-0.146484-7.71484l-3.85742-3.80859c-2.39258-2.39258-4.24805-3.17383-6.64062-2.97852l-2.88086 0.244141-3.22266-3.17383 1.2207-5.61523c0.634766-2.83203-0.146484-5.0293-3.07617-7.95898l-10.9863-10.9375c-16.6992-16.6016-38.8672-16.2109-53.3203-1.75781Zm7.4707 1.85547c12.1582-8.88672 28.6133-7.37305 39.7461 3.75977l12.1582 12.0605c1.17188 1.17188 1.36719 2.09961 1.02539 3.80859l-1.61133 7.42188 7.51953 7.42188 4.93164-0.292969c1.26953-0.0488281 1.66016 0.0488281 2.63672 1.02539l2.88086 2.88086-12.207 12.207-2.88086-2.88086c-0.976562-0.976562-1.12305-1.36719-1.07422-2.68555l0.341797-4.88281-7.4707-7.42188-7.61719 1.26953c-1.61133 0.341797-2.34375 0.195312-3.56445-0.976562l-10.0098-10.0098c-1.26953-1.17188-1.41602-2.00195-0.634766-3.85742l4.39453-10.4492c-7.8125-7.27539-17.9688-10.4004-28.125-7.42188-0.78125 0.195312-1.07422-0.439453-0.439453-0.976562Z"/>
  </g>
  <text style="stroke:none;fill:black;font-family:sans-serif;font-size:13;font-weight:bold;" transform="matrix(1 0 0 1 1289 1953)">Exporting</text>
  <text style="stroke:none;fill:black;font-family:sans-serif;font-size:13;" transform="matrix(1 0 0 1 1289 1971)">Symbols should be outlined when exporting to ensure the</text>
  <text style="stroke:none;fill:black;font-family:sans-serif;font-size:13;" transform="matrix(1 0 0 1 1289 1989)">design is preserved when submitting to Xcode.</text>
  <text id="template-version" style="stroke:none;fill:black;font-family:sans-serif;font-size:13;text-anchor:end;" transform="matrix(1 0 0 1 3036 1933)">Template v.6.0</text>
  <text style="stroke:none;fill:black;font-family:sans-serif;font-size:13;text-anchor:end;" transform="matrix(1 0 0 1 3036 1951)">Requires Xcode 16 or greater</text>
  <text id="descriptive-name" style="stroke:none;fill:black;font-family:sans-serif;font-size:13;text-anchor:end;" transform="matrix(1 0 0 1 3036 1969)">Generated from meetup</text>
  <text style="stroke:none;fill:black;font-family:sans-serif;font-size:13;text-anchor:end;" transform="matrix(1 0 0 1 3036 1987)">Typeset at 100.0 points</text>
  <text style="stroke:none;fill:black;font-family:sans-serif;font-size:13;" transform="matrix(1 0 0 1 263 726)">Small</text>
  <text style="stroke:none;fill:black;font-family:sans-serif;font-size:13;" transform="matrix(1 0 0 1 263 1156)">Medium</text>
  <text style="stroke:none;fill:black;font-family:sans-serif;font-size:13;" transform="matrix(1 0 0 1 263 1586)">Large</text>
 </g>
 <g id="Guides">
  <g id="H-reference" style="fill:#27AAE1;stroke:none;" transform="matrix(1 0 0 1 339 696)">
   <path d="M0.993654 0L3.63775 0L29.3281-67.1323L30.0303-67.1323L30.0303-70.459L28.1226-70.459ZM11.6885-24.4799L46.9815-24.4799L46.2315-26.7285L12.4385-26.7285ZM55.1196 0L57.7637 0L30.6382-70.459L29.4326-70.459L29.4326-67.1323Z"/>
  </g>
  <line id="Baseline-S" style="fill:none;stroke:#27AAE1;opacity:1;stroke-width:0.5;" x1="263" x2="3036" y1="696" y2="696"/>
  <line id="Capline-S" style="fill:none;stroke:#27AAE1;opacity:1;stroke-width:0.5;" x1="263" x2="3036" y1="625.541" y2="625.541"/>
  <g id="H-reference" style="fill:#27AAE1;stroke:none;" transform="matrix(1 0 0 1 339 1126)">
   <path d="M0.993654 0L3.63775 0L29.3281-67.1323L30.0303-67.1323L30.0303-70.459L28.1226-70.459ZM11.6885-24.4799L46.9815-24.4799L46.2315-26.7285L12.4385-26.7285ZM55.1196 0L57.7637 0L30.6382-70.459L29.4326-70.459L29.4326-67.1323Z"/>
  </g>
  <line id="Baseline-M" style="fill:none;stroke:#27AAE1;opacity:1;stroke-width:0.5;" x1="263" x2="3036" y1="1126" y2="1126"/>
  <line id="Capline-M" style="fill:none;stroke:#27AAE1;opacity:1;stroke-width:0.5;" x1="263" x2="3036" y1="1055.54" y2="1055.54"/>
  <g id="H-reference" style="fill:#27AAE1;stroke:none;" transform="matrix(1 0 0 1 339 1556)">
   <path d="M0.993654 0L3.63775 0L29.3281-67.1323L30.0303-67.1323L30.0303-70.459L28.1226-70.459ZM11.6885-24.4799L46.9815-24.4799L46.2315-26.7285L12.4385-26.7285ZM55.1196 0L57.7637 0L30.6382-70.459L29.4326-70.459L29.4326-67.1323Z"/>
  </g>
  <line id="Baseline-L" style="fill:none;stroke:#27AAE1;opacity:1;stroke-width:0.5;" x1="263" x2="3036" y1="1556" y2="1556"/>
  <line id="Capline-L" style="fill:none;stroke:#27AAE1;opacity:1;stroke-width:0.5;" x1="263" x2="3036" y1="1485.54" y2="1485.54"/>
  <line id="right-margin-Black-S" style="fill:none;stroke:#00AEEF;stroke-width:0.5;opacity:1.0;" x1="2998.09" x2="2998.09" y1="600.785" y2="720.121"/>
  <line id="left-margin-Black-S" style="fill:none;stroke:#00AEEF;stroke-width:0.5;opacity:1.0;" x1="2868.71" x2="2868.71" y1="600.785" y2="720.121"/>
  <line id="right-margin-Regular-S" style="fill:none;stroke:#00AEEF;stroke-width:0.5;opacity:1.0;" x1="1509.57" x2="1509.57" y1="600.785" y2="720.121"/>
  <line id="left-margin-Regular-S" style="fill:none;stroke:#00AEEF;stroke-width:0.5;opacity:1.0;" x1="1390.12" x2="1390.12" y1="600.785" y2="720.121"/>
  <line id="right-margin-Ultralight-S" style="fill:none;stroke:#00AEEF;stroke-width:0.5;opacity:1.0;" x1="617.242" x2="617.242" y1="600.785" y2="720.121"/>
  <line id="left-margin-Ultralight-S" style="fill:none;stroke:#00AEEF;stroke-width:0.5;opacity:1.0;" x1="502.18" x2="502.18" y1="600.785" y2="720.121"/>
 </g>
 <g id="Symbols">
  <g id="Black-S" transform="matrix(1 0 0 1 2868.71 696)">
   <path class="SFSymbolsPreviewWireframe" d="M41.8062-90.2283C43.1272-90.2283 44.198-89.1573 44.198-87.8365C44.198-86.5156 43.1272-85.4448 41.8062-85.4448C40.4854-85.4448 39.4146-86.5156 39.4146-87.8365C39.4146-89.1573 40.4854-90.2283 41.8062-90.2283ZM71.1987-87.2031C73.6606-87.2031 75.656-85.2073 75.656-82.7457C75.656-80.2839 73.6606-78.2883 71.1987-78.2883C68.7371-78.2883 66.7417-80.2839 66.7417-82.7457C66.7417-85.2073 68.7371-87.2031 71.1987-87.2031ZM31.8215-73.2615C33.6731-73.2615 35.1738-71.7605 35.1738-69.9092C35.1738-68.0577 33.6731-66.5569 31.8215-66.5569C29.9702-66.5569 28.4695-68.0577 28.4695-69.9092C28.4695-71.7605 29.9702-73.2615 31.8215-73.2615ZM104.868-62.4826C106.952-62.4826 108.641-60.7932 108.641-58.7096C108.641-56.6257 106.952-54.9366 104.868-54.9366C102.784-54.9366 101.095-56.6257 101.095-58.7096C101.095-60.7932 102.784-62.4826 104.868-62.4826ZM14.4575-42.0549C16.9194-42.0549 18.9153-40.059 18.9153-37.5972C18.9153-35.1352 16.9194-33.1395 14.4575-33.1395C11.9958-33.1395 10-35.1352 10-37.5972C10-40.059 11.9958-42.0549 14.4575-42.0549ZM61.9446 8.41766C63.5232 8.41766 64.8027 9.69739 64.8027 11.2758C64.8027 12.8544 63.5232 14.134 61.9446 14.134C60.3662 14.134 59.0864 12.8544 59.0864 11.2758C59.0864 9.69739 60.3662 8.41766 61.9446 8.41766ZM28.5156-7.29468C29.6494-7.29468 30.5688-6.37537 30.5688-5.24152C30.5688-4.10754 29.6494-3.18835 28.5156-3.18835C27.3816-3.18835 26.4624-4.10754 26.4624-5.24152C26.4624-6.37537 27.3816-7.29468 28.5156-7.29468ZM90.8796-0.124207C93.4385-0.124207 95.5127 1.95026 95.5127 4.50885C95.5127 7.06769 93.4385 9.14191 90.8796 9.14191C88.321 9.14191 86.2468 7.06769 86.2468 4.50885C86.2468 1.95026 88.321-0.124207 90.8796-0.124207ZM111.787-35.1467C113.309-35.1467 114.543-33.9127 114.543-32.3907C114.543-30.8685 113.309-29.6347 111.787-29.6347C110.265-29.6347 109.031-30.8685 109.031-32.3907C109.031-33.9127 110.265-35.1467 111.787-35.1467ZM117.336-48.3936C118.468-48.3936 119.386-47.4758 119.386-46.3439C119.386-45.2118 118.468-44.2941 117.336-44.2941C116.204-44.2941 115.287-45.2118 115.287-46.3439C115.287-47.4758 116.204-48.3936 117.336-48.3936ZM59.9817-40.0089C59.866-39.7395 54.4248-26.1208 53.7974-24.5873C53.093-22.8651 51.626-20.4953 48.78-20.4953C46.5952-20.4953 41.9758-22.4408 43.1931-27.4348C43.5393-28.8556 47.0269-39.9139 48.0623-43.041C48.9897-45.8424 50.3408-51.0466 56.2241-51.0466C59.0491-51.0466 60.2664-48.8547 62.1736-48.8547C63.9937-48.8547 64.9907-52.0127 68.3174-52.0127C70.752-52.0127 71.9238-49.4128 72.9302-49.4128C73.7595-49.4128 74.2908-50.6429 77.3564-50.6429C80.0964-50.6429 82.677-48.5728 82.677-45.3586C82.677-43.0101 79.7212-36.6689 78.5334-33.9348C76.9172-30.2139 76.2644-27.7186 76.2644-26.6227C76.2644-25.5267 76.6875-23.9785 78.9258-23.7263C81.2151-23.4683 83.1531-23.1686 83.1531-21.3778C83.1531-19.8904 81.6348-18.7945 79.239-18.7945C75.7722-18.7945 69.6887-20.2461 69.6887-25.9182C69.6887-28.8181 70.6172-30.0003 71.489-31.7892C72.5886-34.0452 74.6738-38.4984 75.4565-40.2205C76.2395-41.9427 76.282-42.9738 75.0842-43.2451C74.2271-43.4393 73.4294-43.0201 72.7417-41.4962C72.1072-40.0908 66.6606-29.6219 65.8528-27.7969C64.9331-25.7189 63.6289-24.2155 61.6719-24.2155C59.7148-24.2155 58.2026-25.5338 59.3591-28.5868C60.219-30.8574 62.9072-37.2982 63.4314-38.895C63.9812-40.5692 63.4893-41.4944 62.4302-41.764C61.6277-41.9683 60.6782-41.6292 59.9817-40.0089ZM105.24-42.1553C105.24-38.6308 103.541-35.53 100.948-33.5349C102.883-30.5234 104.019-26.9496 104.019-23.1047C104.019-12.4233 95.3601-3.76495 84.6787-3.76495C84.4202-3.76495 84.1692-3.79352 83.9131-3.80353C82.6597 2.01801 77.4941 6.38507 71.2981 6.38507C67.8777 6.38507 64.7896 5.03125 62.479 2.86072C59.439 5.33813 55.5618 6.82715 51.3345 6.82715C41.6799 6.82715 33.8472-0.924866 33.6919-10.543C25.8516-11.831 19.8638-18.6201 19.8638-26.8258C19.8638-31.6664 21.9585-36.007 25.2759-39.0289C23.8794-41.3537 23.0615-44.0658 23.0615-46.9753C23.0615-54.7227 28.762-61.1222 36.1934-62.2533C39.4983-70.8609 47.8198-76.9822 57.5903-76.9822C62.2849-76.9822 66.6458-75.5661 70.2808-73.1462C72.447-73.9592 74.7832-74.425 77.2334-74.425C88.1804-74.425 97.0542-65.5504 97.0542-54.6042C97.0542-53.9656 97.0176-53.3358 96.9587-52.7126C101.707-51.5298 105.24-47.2697 105.24-42.1553ZM92.1077-25.9916C92.1077-29.9946 90.1145-33.0022 89.1316-34.3511C89.7202-34.871 93.0344-36.6522 93.0344-40.4487C93.0344-45.5436 88.1582-46.77 86.6033-47.0026C86.6033-47.0026 86.8225-48.9666 86.8225-49.8959C86.8225-57.1354 80.9329-63.0251 73.6934-63.0251C70.6184-63.0251 68.1724-61.8326 68.1724-61.8326C68.1724-61.8326 64.3657-64.9658 58.7866-64.9658C47.2778-64.9658 43.9358-53.9774 43.9358-53.9774C43.9358-53.9774 35.0317-53.5814 34.4958-44.1065C34.3154-40.9173 36.71-37.7177 36.71-37.7177C36.71-37.7177 32.0691-34.5644 32.0691-28.8155C32.0691-20.3715 39.8469-18.1979 42.5369-18.0869L42.5627-16.4897C42.6633-10.2587 47.8115-5.18927 54.0391-5.18927C58.9287-5.18927 61.7737-8.15533 62.5859-8.82684C63.0581-8.44794 65.3015-5.52472 69.1892-5.52472C74.3733-5.52472 76.9094-9.95996 77.2312-13.318C77.2312-13.318 78.7234-13.2274 79.3435-13.2274C86.3818-13.2274 92.1077-18.9534 92.1077-25.9916Z"/>
  </g>
  <g id="Regular-S" transform="matrix(1 0 0 1 1390.12 696)">
   <path class="SFSymbolsPreviewWireframe" d="M38.9183-85.2813C40.1194-85.2813 41.0929-84.3076 41.0929-83.1067C41.0929-81.9057 40.1194-80.9321 38.9183-80.9321C37.7174-80.9321 36.7439-81.9057 36.7439-83.1067C36.7439-84.3076 37.7174-85.2813 38.9183-85.2813ZM65.6422-82.5308C67.8805-82.5308 69.6949-80.7162 69.6949-78.4781C69.6949-76.2398 67.8805-74.4254 65.6422-74.4254C63.4042-74.4254 61.5898-76.2398 61.5898-78.4781C61.5898-80.7162 63.4042-82.5308 65.6422-82.5308ZM29.8403-69.855C31.5237-69.855 32.8883-68.4903 32.8883-66.8071C32.8883-65.1237 31.5237-63.7591 29.8403-63.7591C28.1571-63.7591 26.7925-65.1237 26.7925-66.8071C26.7925-68.4903 28.1571-69.855 29.8403-69.855ZM96.2546-60.0547C98.1493-60.0547 99.6852-58.5188 99.6852-56.6243C99.6852-54.7297 98.1493-53.1938 96.2546-53.1938C94.3602-53.1938 92.8243-54.7297 92.8243-56.6243C92.8243-58.5188 94.3602-60.0547 96.2546-60.0547ZM14.0527-41.4818C16.2913-41.4818 18.1057-39.6671 18.1057-37.4288C18.1057-35.1903 16.2913-33.3758 14.0527-33.3758C11.8145-33.3758 10-35.1903 10-37.4288C10-39.6671 11.8145-41.4818 14.0527-41.4818ZM57.2283 4.4082C58.6636 4.4082 59.8269 5.57178 59.8269 7.0069C59.8269 8.44214 58.6636 9.60553 57.2283 9.60553C55.7931 9.60553 54.6298 8.44214 54.6298 7.0069C54.6298 5.57178 55.7931 4.4082 57.2283 4.4082ZM26.8345-9.87756C27.8655-9.87756 28.7012-9.04175 28.7012-8.0108C28.7012-6.9798 27.8655-6.14404 26.8345-6.14404C25.8035-6.14404 24.9678-6.9798 24.9678-8.0108C24.9678-9.04175 25.8035-9.87756 26.8345-9.87756ZM83.5361-3.35809C85.8627-3.35809 87.7485-1.47205 87.7485 0.854309C87.7485 3.18079 85.8627 5.06671 83.5361 5.06671C81.2098 5.06671 79.324 3.18079 79.324 0.854309C79.324-1.47205 81.2098-3.35809 83.5361-3.35809ZM102.545-35.2008C103.929-35.2008 105.051-34.0789 105.051-32.695C105.051-31.311 103.929-30.1892 102.545-30.1892C101.161-30.1892 100.039-31.311 100.039-32.695C100.039-34.0789 101.161-35.2008 102.545-35.2008ZM107.591-47.2449C108.62-47.2449 109.454-46.4105 109.454-45.3813C109.454-44.3521 108.62-43.5177 107.591-43.5177C106.562-43.5177 105.727-44.3521 105.727-45.3813C105.727-46.4105 106.562-47.2449 107.591-47.2449ZM55.1036-40.1281C54.9857-39.8536 49.4401-25.9733 48.8007-24.4103C48.0825-22.655 46.5873-20.2397 43.6869-20.2397C41.4601-20.2397 36.7518-22.2225 37.9926-27.3125C38.3456-28.7606 41.9-40.0312 42.9552-43.2185C43.9005-46.0737 45.2775-51.3778 51.2739-51.3778C54.1531-51.3778 55.3937-49.1438 57.3376-49.1438C59.1926-49.1438 60.2089-52.3625 63.5995-52.3625C66.0808-52.3625 67.2751-49.7127 68.3008-49.7127C69.1461-49.7127 69.6875-50.9664 72.8121-50.9664C75.6047-50.9664 78.2347-48.8565 78.2347-45.5805C78.2347-43.187 75.2222-36.7239 74.0117-33.9373C72.3644-30.145 71.699-27.6017 71.699-26.4847C71.699-25.3677 72.1304-23.7897 74.4117-23.5327C76.7449-23.2698 78.7201-22.9644 78.7201-21.1392C78.7201-19.6232 77.1725-18.5062 74.7308-18.5062C71.1974-18.5062 64.9971-19.9857 64.9971-25.7667C64.9971-28.7224 65.9435-29.9273 66.8322-31.7506C67.9528-34.0499 70.0779-38.5886 70.8757-40.3438C71.6736-42.0991 71.7172-43.15 70.4962-43.4265C69.6226-43.6244 68.8098-43.1971 68.1086-41.644C67.462-40.2115 61.9109-29.5416 61.0875-27.6815C60.15-25.5636 58.8209-24.0314 56.8263-24.0314C54.8317-24.0314 53.2904-25.375 54.469-28.4866C55.3456-30.8008 58.0852-37.3653 58.6198-38.9929C59.1801-40.6992 58.6786-41.6422 57.5992-41.9169C56.7812-42.1251 55.8135-41.7795 55.1036-40.1281ZM96.5835-41.5747C96.5835-38.3702 95.0388-35.5509 92.6816-33.7369C94.4406-30.9988 95.4733-27.7496 95.4733-24.2538C95.4733-14.5422 87.601-6.66992 77.8895-6.66992C77.6544-6.66992 77.426-6.69592 77.1932-6.70502C76.0536-1.41211 71.3571 2.55853 65.7236 2.55853C62.6139 2.55853 59.8062 1.32758 57.7053-0.645874C54.9414 1.60657 51.416 2.96039 47.5726 2.96039C38.7948 2.96039 31.6732-4.08771 31.532-12.8326C24.4036-14.0036 18.9594-20.1763 18.9594-27.637C18.9594-32.038 20.864-35.9846 23.88-38.7321C22.6104-40.8458 21.8668-43.3117 21.8668-45.957C21.8668-53.0009 27.0497-58.8194 33.8064-59.8478C36.8112-67.6739 44.3771-73.2394 53.2606-73.2394C57.5288-73.2394 61.4938-71.9518 64.7987-69.7516C66.7683-70.4909 68.8923-70.9144 71.1201-70.9144C81.0731-70.9144 89.1412-62.8455 89.1412-52.8932C89.1412-52.3126 89.108-51.7399 89.0543-51.1734C93.3718-50.098 96.5835-46.2246 96.5835-41.5747ZM88.3674-25.7338C88.3674-29.8777 86.3041-32.9911 85.2865-34.3875C85.8959-34.9257 89.3267-36.7696 89.3267-40.6997C89.3267-45.9738 84.2788-47.2433 82.6692-47.4842C82.6692-47.4842 82.8962-49.5173 82.8962-50.4793C82.8962-57.9735 76.7993-64.0705 69.3051-64.0705C66.1219-64.0705 63.59-62.8359 63.59-62.8359C63.59-62.8359 59.6493-66.0794 53.8739-66.0794C41.9602-66.0794 38.5004-54.7043 38.5004-54.7043C38.5004-54.7043 29.2831-54.2944 28.7283-44.4861C28.5416-41.1847 31.0204-37.8726 31.0204-37.8726C31.0204-37.8726 26.2161-34.6083 26.2161-28.6571C26.2161-19.916 34.2677-17.666 37.0524-17.551L37.0791-15.8976C37.1832-9.44733 42.5127-4.19959 48.9594-4.19959C54.0209-4.19959 56.9661-7.26996 57.8068-7.96509C58.2955-7.57288 60.618-4.54681 64.6425-4.54681C70.009-4.54681 72.6344-9.13812 72.9673-12.6143C72.9673-12.6143 74.5121-12.5205 75.1541-12.5205C82.4401-12.5205 88.3674-18.4481 88.3674-25.7338Z"/>
  </g>
  <g id="Ultralight-S" transform="matrix(1 0 0 1 502.18 696)">
   <path class="SFSymbolsPreviewWireframe" d="M37.6411-85.2616C38.789-85.2616 39.7195-84.331 39.7195-83.1831C39.7195-82.0351 38.789-81.1046 37.6411-81.1046C36.4932-81.1046 35.5626-82.0351 35.5626-83.1831C35.5626-84.331 36.4932-85.2616 37.6411-85.2616ZM63.1846-82.6326C65.324-82.6326 67.0582-80.8981 67.0582-78.7589C67.0582-76.6195 65.324-74.8853 63.1846-74.8853C61.0453-74.8853 59.3111-76.6195 59.3111-78.7589C59.3111-80.8981 61.0453-82.6326 63.1846-82.6326ZM28.964-70.5167C30.573-70.5167 31.8773-69.2123 31.8773-67.6034C31.8773-65.9943 30.573-64.6901 28.964-64.6901C27.3551-64.6901 26.0508-65.9943 26.0508-67.6034C26.0508-69.2123 27.3551-70.5167 28.964-70.5167ZM92.4449-61.1494C94.2559-61.1494 95.7238-59.6812 95.7238-57.8704C95.7238-56.0594 94.2559-54.5914 92.4449-54.5914C90.6341-54.5914 89.1661-56.0594 89.1661-57.8704C89.1661-59.6812 90.6341-61.1494 92.4449-61.1494ZM13.8738-43.3967C16.0134-43.3967 17.7477-41.6621 17.7477-39.5227C17.7477-37.3831 16.0134-35.6487 13.8738-35.6487C11.7344-35.6487 10-37.3831 10-39.5227C10-41.6621 11.7344-43.3967 13.8738-43.3967ZM55.1422 0.46637C56.5141 0.46637 57.6262 1.57855 57.6262 2.95026C57.6262 4.32214 56.5141 5.43414 55.1422 5.43414C53.7705 5.43414 52.6584 4.32214 52.6584 2.95026C52.6584 1.57855 53.7705 0.46637 55.1422 0.46637ZM26.0909-13.1884C27.0764-13.1884 27.8752-12.3895 27.8752-11.4041C27.8752-10.4186 27.0764-9.61981 26.0909-9.61981C25.1055-9.61981 24.3066-10.4186 24.3066-11.4041C24.3066-12.3895 25.1055-13.1884 26.0909-13.1884ZM80.2881-6.95691C82.5119-6.95691 84.3145-5.15411 84.3145-2.9306C84.3145-0.706848 82.5119 1.09576 80.2881 1.09576C78.0646 1.09576 76.262-0.706848 76.262-2.9306C76.262-5.15411 78.0646-6.95691 80.2881-6.95691ZM98.4575-37.3931C99.7803-37.3931 100.853-36.3207 100.853-34.998C100.853-33.6752 99.7803-32.6029 98.4575-32.6029C97.1348-32.6029 96.0625-33.6752 96.0625-34.998C96.0625-36.3207 97.1348-37.3931 98.4575-37.3931ZM103.28-48.9053C104.264-48.9053 105.062-48.1077 105.062-47.124C105.062-46.1402 104.264-45.3427 103.28-45.3427C102.297-45.3427 101.499-46.1402 101.499-47.124C101.499-48.1077 102.297-48.9053 103.28-48.9053ZM50.6956-43.59C50.5645-43.2847 44.3975-27.8494 43.6865-26.1114C42.8879-24.1595 41.2252-21.4735 37.9998-21.4735C35.5235-21.4735 30.2879-23.6785 31.6675-29.3387C32.0601-30.949 36.0128-43.4824 37.1862-47.0267C38.2374-50.2017 39.7686-56.1 46.4369-56.1C49.6385-56.1 51.0182-53.6158 53.1799-53.6158C55.2427-53.6158 56.3728-57.1951 60.1433-57.1951C62.9026-57.1951 64.2307-54.2484 65.3713-54.2484C66.3113-54.2484 66.9133-55.6426 70.3881-55.6426C73.4934-55.6426 76.4182-53.2963 76.4182-49.6533C76.4182-46.9916 73.0681-39.8045 71.722-36.7057C69.8901-32.4885 69.1502-29.6603 69.1502-28.4182C69.1502-27.1761 69.6299-25.4213 72.1668-25.1354C74.7614-24.8431 76.9579-24.5034 76.9579-22.4737C76.9579-20.788 75.2369-19.5458 72.5217-19.5458C68.5923-19.5458 61.6974-21.1911 61.6974-27.6197C61.6974-30.9065 62.7499-32.2465 63.738-34.274C64.9842-36.8309 67.3475-41.8781 68.2347-43.83C69.1219-45.7819 69.1703-46.9504 67.8126-47.258C66.8411-47.478 65.9373-47.0029 65.1576-45.2758C64.4386-43.6829 58.2655-31.8175 57.3499-29.7491C56.3074-27.3939 54.8293-25.6899 52.6113-25.6899C50.3932-25.6899 48.6792-27.1841 49.9899-30.6444C50.9647-33.2178 54.0113-40.5177 54.6056-42.3276C55.2287-44.2251 54.6711-45.2737 53.4708-45.5792C52.5612-45.8108 51.4849-45.4265 50.6956-43.59ZM92.7618-43.4855C92.7618-40.4225 91.2853-37.7278 89.0322-35.9939C90.7135-33.3768 91.7006-30.2711 91.7006-26.9296C91.7006-17.647 84.176-10.1225 74.8935-10.1225C74.6688-10.1225 74.4505-10.1473 74.228-10.1561C73.1387-5.09686 68.6497-1.3017 63.265-1.3017C60.2927-1.3017 57.6089-2.47821 55.6008-4.3645C52.959-2.21155 49.5894-0.917542 45.9157-0.917542C37.5256-0.917542 30.7186-7.65436 30.5836-16.0129C23.77-17.1323 18.5662-23.0323 18.5662-30.1635C18.5662-34.3701 20.3868-38.1423 23.2695-40.7684C22.056-42.7888 21.3453-45.1458 21.3453-47.6743C21.3453-54.407 26.2993-59.9685 32.7575-60.9515C35.6296-68.4319 42.8613-73.7516 51.3525-73.7516C55.4321-73.7516 59.222-72.5209 62.3809-70.4179C64.2635-71.1245 66.2938-71.5292 68.4231-71.5292C77.9365-71.5292 85.6482-63.8168 85.6482-54.3041C85.6482-53.7491 85.6165-53.2018 85.5652-52.6603C89.692-51.6324 92.7618-47.9301 92.7618-43.4855ZM89.5106-26.9296C89.5106-31.5137 87.228-34.9579 86.1024-36.5026C86.7765-37.0981 90.5718-39.1379 90.5718-43.4855C90.5718-49.3199 84.9876-50.7244 83.207-50.9908C83.207-50.9908 83.4582-53.2399 83.4582-54.3041C83.4582-62.5945 76.7135-69.3392 68.4231-69.3392C64.9017-69.3392 62.1008-67.9736 62.1008-67.9736C62.1008-67.9736 57.7415-71.5616 51.3525-71.5616C38.173-71.5616 34.3456-58.978 34.3456-58.978C34.3456-58.978 24.1489-58.5245 23.5353-47.6743C23.3288-44.022 26.0709-40.358 26.0709-40.358C26.0709-40.358 20.7562-36.7469 20.7562-30.1635C20.7562-20.4937 29.6633-18.0046 32.7437-17.8774L32.7733-16.0483C32.8885-8.91278 38.7842-3.10748 45.9157-3.10748C51.515-3.10748 54.7731-6.50415 55.7032-7.27313C56.2439-6.83923 58.8131-3.4917 63.265-3.4917C69.2018-3.4917 72.1061-8.57074 72.4744-12.4162C72.4744-12.4162 74.1833-12.3125 74.8935-12.3125C82.9535-12.3125 89.5106-18.8698 89.5106-26.9296Z"/>
  </g>
 </g>
</svg>
