<?xml version="1.0" encoding="UTF-8"?>
<svg height="600" width="800" xmlns="http://www.w3.org/2000/svg" xmlns:xlink="http://www.w3.org/1999/xlink">
    <g id="Notes" font-family="'LucidaGrande', 'Lucida Grande', sans-serif" font-size="13">
        <rect fill="white" height="600.0" width="800.0" x="0.0" y="0.0" />
        <g font-size="13">
            <text x="18.0" y="176.0">Small</text>
            <text x="18.0" y="376.0">Medium</text>
            <text x="18.0" y="576.0">Large</text>
        </g>
        <g font-size="9">
            <text x="250.0" y="30.0">Ultralight</text>
            <text x="450.0" y="30.0">Regular</text>
            <text x="650.0" y="30.0">Black</text>
            <text id="template-version" fill="#505050" text-anchor="end" x="785.0" y="575.0">Template v.3.0</text>
            <a href="https://wangchujiang.com/#/app">
                <text fill="#505050" text-anchor="end" x="785.0" y="590.0">https://wangchujiang.com/#/app</text>
            </a>
        </g>
    </g>
    <g id="Guides" stroke="rgb(39, 170, 225)" stroke-width="0.5">
        <path id="Capline-S" d="M18,76 l800,0" />
        <path id="H-reference" d="M85,145.755 L87.685,145.755 L113.369,79.287 L114.052,79.287 L114.052,76 L112.148,76 L85,145.755 Z M95.693,121.536 L130.996,121.536 L130.263,119.313 L96.474,119.313 L95.693,121.536 Z M139.15,145.755 L141.787,145.755 L114.638,76 L113.466,76 L113.466,79.287 L139.15,145.755 Z" stroke="none" />
        <path id="Baseline-S" d="M18,146 l800,0" />
        <path id="left-margin-Ultralight-S" d="M220,56 l0,110" />
        <path id="right-margin-Ultralight-S" d="M310,56 l0,110" />
        <path id="left-margin-Regular-S" d="M420,56 l0,110" />
        <path id="right-margin-Regular-S" d="M510,56 l0,110" />
        <path id="left-margin-Black-S" d="M620,56 l0,110" />
        <path id="right-margin-Black-S" d="M710,56 l0,110" />
        <path id="Capline-M" d="M18,276 l800,0" />
        <path id="Baseline-M" d="M18,346 l800,0" />
        <path id="Capline-L" d="M18,476 l800,0" />
        <path id="Baseline-L" d="M18,546 l800,0" />
    </g>
    <g id="Symbols">
        <g id="Ultralight-S">
            <path d="M264.981,76 C242.501,76.14 230,88.813 230,110.943 C230,133.072 242.514,145.87 265.019,146 C287.807,145.866 299.577,134.11 300,110.946 C299.612,88.555 287.19,76.143 264.981,76 Z M273.989,114.182 L268.185,114.182 L268.185,119.989 C268.185,121.745 266.763,123.17 265.003,123.17 C263.244,123.17 261.821,121.745 261.821,119.989 L261.821,114.182 L256.018,114.182 C254.258,114.182 252.836,112.756 252.836,111 C252.836,109.244 254.258,107.818 256.018,107.818 L261.821,107.818 L261.821,102.011 C261.821,100.255 263.244,98.83 265.003,98.83 C266.763,98.83 268.185,100.255 268.185,102.011 L268.185,107.818 L273.989,107.818 C275.748,107.818 277.17,109.244 277.17,111 C277.17,112.756 275.748,114.182 273.989,114.182 Z" />
        </g>
        <g id="Regular-S">
            <path d="M464.981,76 C442.501,76.14 430,88.813 430,110.943 C430,133.072 442.514,145.87 465.019,146 C487.807,145.866 499.577,134.11 500,110.946 C499.612,88.555 487.19,76.143 464.981,76 Z M473.989,114.182 L468.185,114.182 L468.185,119.989 C468.185,121.745 466.763,123.17 465.003,123.17 C463.244,123.17 461.821,121.745 461.821,119.989 L461.821,114.182 L456.018,114.182 C454.258,114.182 452.836,112.756 452.836,111 C452.836,109.244 454.258,107.818 456.018,107.818 L461.821,107.818 L461.821,102.011 C461.821,100.255 463.244,98.83 465.003,98.83 C466.763,98.83 468.185,100.255 468.185,102.011 L468.185,107.818 L473.989,107.818 C475.748,107.818 477.17,109.244 477.17,111 C477.17,112.756 475.748,114.182 473.989,114.182 Z" />
        </g>
        <g id="Black-S">
            <path d="M664.981,76 C642.501,76.14 630,88.813 630,110.943 C630,133.072 642.514,145.87 665.019,146 C687.807,145.866 699.577,134.11 700,110.946 C699.612,88.555 687.19,76.143 664.981,76 Z M673.989,114.182 L668.185,114.182 L668.185,119.989 C668.185,121.745 666.763,123.17 665.003,123.17 C663.244,123.17 661.821,121.745 661.821,119.989 L661.821,114.182 L656.018,114.182 C654.258,114.182 652.836,112.756 652.836,111 C652.836,109.244 654.258,107.818 656.018,107.818 L661.821,107.818 L661.821,102.011 C661.821,100.255 663.244,98.83 665.003,98.83 C666.763,98.83 668.185,100.255 668.185,102.011 L668.185,107.818 L673.989,107.818 C675.748,107.818 677.17,109.244 677.17,111 C677.17,112.756 675.748,114.182 673.989,114.182 Z" />
        </g>
    </g>
</svg>