<?xml version="1.0" encoding="UTF-8"?>
<svg height="600" width="800" xmlns="http://www.w3.org/2000/svg" xmlns:xlink="http://www.w3.org/1999/xlink">
    <g id="Notes" font-family="'LucidaGrande', 'Lucida Grande', sans-serif" font-size="13">
        <rect fill="white" height="600.0" width="800.0" x="0.0" y="0.0" />
        <g font-size="13">
            <text x="18.0" y="176.0">Small</text>
            <text x="18.0" y="376.0">Medium</text>
            <text x="18.0" y="576.0">Large</text>
        </g>
        <g font-size="9">
            <text x="250.0" y="30.0">Ultralight</text>
            <text x="450.0" y="30.0">Regular</text>
            <text x="650.0" y="30.0">Black</text>
            <text id="template-version" fill="#505050" text-anchor="end" x="785.0" y="575.0">Template v.3.0</text>
            <a href="https://wangchujiang.com/#/app">
                <text fill="#505050" text-anchor="end" x="785.0" y="590.0">https://wangchujiang.com/#/app</text>
            </a>
        </g>
    </g>
    <g id="Guides" stroke="rgb(39, 170, 225)" stroke-width="0.5">
        <path id="Capline-S" d="M18,76 l800,0" />
        <path id="H-reference" d="M85,145.755 L87.685,145.755 L113.369,79.287 L114.052,79.287 L114.052,76 L112.148,76 L85,145.755 Z M95.693,121.536 L130.996,121.536 L130.263,119.313 L96.474,119.313 L95.693,121.536 Z M139.15,145.755 L141.787,145.755 L114.638,76 L113.466,76 L113.466,79.287 L139.15,145.755 Z" stroke="none" />
        <path id="Baseline-S" d="M18,146 l800,0" />
        <path id="left-margin-Ultralight-S" d="M220.146,56 l0,110" />
        <path id="right-margin-Ultralight-S" d="M309.854,56 l0,110" />
        <path id="left-margin-Regular-S" d="M420.146,56 l0,110" />
        <path id="right-margin-Regular-S" d="M509.854,56 l0,110" />
        <path id="left-margin-Black-S" d="M620.146,56 l0,110" />
        <path id="right-margin-Black-S" d="M709.854,56 l0,110" />
        <path id="Capline-M" d="M18,276 l800,0" />
        <path id="Baseline-M" d="M18,346 l800,0" />
        <path id="Capline-L" d="M18,476 l800,0" />
        <path id="Baseline-L" d="M18,546 l800,0" />
    </g>
    <g id="Symbols">
        <g id="Ultralight-S">
            <path d="M299.854,115.798 C299.494,131.252 294.428,144.185 292.387,145.522 C291.888,145.857 291.334,146.003 290.69,146 C287.854,146 283.737,143.17 281.629,141.565 C275.379,142.424 269.282,142.861 263.488,142.861 C261.787,142.861 258.101,142.533 255.308,142.262 C253.557,142.09 252.281,140.533 252.452,138.782 C252.624,137.034 254.143,135.735 255.932,135.926 C259.626,136.289 262.38,136.496 263.491,136.496 C269.397,136.496 275.65,136.019 282.072,135.076 C282.973,134.946 283.864,135.197 284.555,135.767 C286.255,137.165 287.841,138.171 289.032,138.824 C290.528,135.108 293.225,126.903 293.486,115.728 C293.486,107.364 292.754,101.503 292.298,98.672 C291.684,98.542 290.932,98.395 290.076,98.239 C288.344,97.927 287.198,96.272 287.507,94.54 C287.822,92.811 289.449,91.642 291.206,91.973 C294.088,92.495 295.836,92.941 295.836,92.941 C296.988,93.237 297.886,94.151 298.153,95.313 C298.22,95.616 299.854,102.853 299.854,115.801 Z M257.209,130.125 C255.885,130.125 252.984,129.861 251.195,129.686 C248.097,132.481 242.697,136.448 239.338,136.448 C238.695,136.448 238.151,136.305 237.654,135.974 C235.473,134.551 230.146,118.947 230.146,103.063 C230.146,92.314 232.783,81.428 233.069,80.604 C233.416,79.588 234.257,78.818 235.295,78.553 C235.709,78.448 245.509,76 257.209,76 C268.91,76 278.71,78.452 279.124,78.553 C280.161,78.818 281.002,79.588 281.349,80.604 C281.636,81.428 284.272,92.314 284.272,103.063 C284.272,113.811 281.636,124.697 281.349,125.521 C281.002,126.537 280.161,127.308 279.124,127.572 C278.71,127.677 268.91,130.125 257.209,130.125 Z M257.209,123.758 C265.255,123.758 272.447,122.49 275.707,121.812 C276.427,118.546 277.904,110.863 277.904,103.063 C277.904,95.262 276.436,87.653 275.704,84.313 C272.441,83.635 265.252,82.368 257.209,82.368 C249.167,82.368 241.971,83.635 238.711,84.313 C237.991,87.58 236.514,95.262 236.514,103.063 C236.514,114.833 239.45,124.815 241.083,129.243 C242.758,128.33 245.235,126.7 247.817,124.117 C248.498,123.439 249.453,123.108 250.402,123.2 C252.421,123.414 256.05,123.754 257.209,123.754 Z" />
        </g>
        <g id="Regular-S">
            <path d="M499.854,115.798 C499.494,131.252 494.428,144.185 492.387,145.522 C491.888,145.857 491.334,146.003 490.69,146 C487.854,146 483.737,143.17 481.629,141.565 C475.379,142.424 469.282,142.861 463.488,142.861 C461.788,142.861 458.101,142.533 455.308,142.262 C453.557,142.09 452.281,140.533 452.452,138.782 C452.624,137.034 454.143,135.735 455.932,135.926 C459.626,136.289 462.38,136.496 463.491,136.496 C469.397,136.496 475.65,136.019 482.072,135.076 C482.973,134.946 483.864,135.197 484.555,135.767 C486.255,137.165 487.841,138.171 489.032,138.824 C490.528,135.108 493.225,126.903 493.486,115.728 C493.486,107.364 492.754,101.503 492.298,98.672 C491.684,98.542 490.932,98.395 490.076,98.239 C488.344,97.927 487.198,96.272 487.507,94.54 C487.822,92.811 489.449,91.642 491.206,91.973 C494.088,92.495 495.836,92.941 495.836,92.941 C496.988,93.237 497.886,94.151 498.153,95.313 C498.22,95.616 499.854,102.853 499.854,115.801 Z M457.209,130.125 C455.885,130.125 452.984,129.861 451.195,129.686 C448.097,132.481 442.697,136.448 439.338,136.448 C438.695,136.448 438.151,136.305 437.654,135.974 C435.473,134.551 430.146,118.947 430.146,103.063 C430.146,92.314 432.783,81.428 433.069,80.604 C433.416,79.588 434.257,78.818 435.295,78.553 C435.709,78.448 445.509,76 457.209,76 C468.91,76 478.71,78.452 479.124,78.553 C480.161,78.818 481.002,79.588 481.349,80.604 C481.636,81.428 484.272,92.314 484.272,103.063 C484.272,113.811 481.636,124.697 481.349,125.521 C481.002,126.537 480.161,127.308 479.124,127.572 C478.71,127.677 468.91,130.125 457.209,130.125 Z M457.209,123.758 C465.255,123.758 472.447,122.49 475.707,121.812 C476.427,118.546 477.904,110.863 477.904,103.063 C477.904,95.262 476.436,87.653 475.704,84.313 C472.441,83.635 465.252,82.368 457.209,82.368 C449.167,82.368 441.971,83.635 438.711,84.313 C437.991,87.58 436.514,95.262 436.514,103.063 C436.514,114.833 439.45,124.815 441.083,129.243 C442.758,128.33 445.235,126.7 447.817,124.117 C448.498,123.439 449.453,123.108 450.402,123.2 C452.421,123.414 456.05,123.754 457.209,123.754 Z" />
        </g>
        <g id="Black-S">
            <path d="M699.854,115.798 C699.494,131.252 694.428,144.185 692.387,145.522 C691.888,145.857 691.334,146.003 690.69,146 C687.854,146 683.737,143.17 681.629,141.565 C675.379,142.424 669.282,142.861 663.488,142.861 C661.787,142.861 658.101,142.533 655.308,142.262 C653.557,142.09 652.281,140.533 652.452,138.782 C652.624,137.034 654.143,135.735 655.932,135.926 C659.626,136.289 662.38,136.496 663.491,136.496 C669.397,136.496 675.65,136.019 682.072,135.076 C682.973,134.946 683.864,135.197 684.555,135.767 C686.255,137.165 687.841,138.171 689.032,138.824 C690.528,135.108 693.225,126.903 693.486,115.728 C693.486,107.364 692.754,101.503 692.298,98.672 C691.684,98.542 690.932,98.395 690.076,98.239 C688.344,97.927 687.198,96.272 687.507,94.54 C687.822,92.811 689.449,91.642 691.206,91.973 C694.088,92.495 695.836,92.941 695.836,92.941 C696.988,93.237 697.886,94.151 698.153,95.313 C698.22,95.616 699.854,102.853 699.854,115.801 Z M657.209,130.125 C655.885,130.125 652.984,129.861 651.195,129.686 C648.097,132.481 642.697,136.448 639.338,136.448 C638.695,136.448 638.151,136.305 637.654,135.974 C635.473,134.551 630.146,118.947 630.146,103.063 C630.146,92.314 632.783,81.428 633.069,80.604 C633.416,79.588 634.257,78.818 635.295,78.553 C635.709,78.448 645.509,76 657.209,76 C668.91,76 678.71,78.452 679.124,78.553 C680.161,78.818 681.002,79.588 681.349,80.604 C681.636,81.428 684.272,92.314 684.272,103.063 C684.272,113.811 681.636,124.697 681.349,125.521 C681.002,126.537 680.161,127.308 679.124,127.572 C678.71,127.677 668.91,130.125 657.209,130.125 Z M657.209,123.758 C665.255,123.758 672.447,122.49 675.707,121.812 C676.427,118.546 677.904,110.863 677.904,103.063 C677.904,95.262 676.436,87.653 675.704,84.313 C672.441,83.635 665.252,82.368 657.209,82.368 C649.167,82.368 641.971,83.635 638.711,84.313 C637.991,87.58 636.514,95.262 636.514,103.063 C636.514,114.833 639.45,124.815 641.083,129.243 C642.758,128.33 645.235,126.7 647.817,124.117 C648.498,123.439 649.453,123.108 650.402,123.2 C652.421,123.414 656.05,123.754 657.209,123.754 Z" />
        </g>
    </g>
</svg>