<?xml version="1.0" encoding="UTF-8"?>
<svg height="600" width="800" xmlns="http://www.w3.org/2000/svg" xmlns:xlink="http://www.w3.org/1999/xlink">
    <g id="Notes" font-family="'LucidaGrande', 'Lucida Grande', sans-serif" font-size="13">
        <rect fill="white" height="600.0" width="800.0" x="0.0" y="0.0" />
        <g font-size="13">
            <text x="18.0" y="176.0">Small</text>
            <text x="18.0" y="376.0">Medium</text>
            <text x="18.0" y="576.0">Large</text>
        </g>
        <g font-size="9">
            <text x="250.0" y="30.0">Ultralight</text>
            <text x="450.0" y="30.0">Regular</text>
            <text x="650.0" y="30.0">Black</text>
            <text id="template-version" fill="#505050" text-anchor="end" x="785.0" y="575.0">Template v.3.0</text>
            <a href="https://wangchujiang.com/#/app">
                <text fill="#505050" text-anchor="end" x="785.0" y="590.0">https://wangchujiang.com/#/app</text>
            </a>
        </g>
    </g>
    <g id="Guides" stroke="rgb(39, 170, 225)" stroke-width="0.5">
        <path id="Capline-S" d="M18,76 l800,0" />
        <path id="H-reference" d="M85,145.755 L87.685,145.755 L113.369,79.287 L114.052,79.287 L114.052,76 L112.148,76 L85,145.755 Z M95.693,121.536 L130.996,121.536 L130.263,119.313 L96.474,119.313 L95.693,121.536 Z M139.15,145.755 L141.787,145.755 L114.638,76 L113.466,76 L113.466,79.287 L139.15,145.755 Z" stroke="none" />
        <path id="Baseline-S" d="M18,146 l800,0" />
        <path id="left-margin-Ultralight-S" d="M219.999,56 l0,110" />
        <path id="right-margin-Ultralight-S" d="M310.001,56 l0,110" />
        <path id="left-margin-Regular-S" d="M419.999,56 l0,110" />
        <path id="right-margin-Regular-S" d="M510.001,56 l0,110" />
        <path id="left-margin-Black-S" d="M619.999,56 l0,110" />
        <path id="right-margin-Black-S" d="M710.001,56 l0,110" />
        <path id="Capline-M" d="M18,276 l800,0" />
        <path id="Baseline-M" d="M18,346 l800,0" />
        <path id="Capline-L" d="M18,476 l800,0" />
        <path id="Baseline-L" d="M18,546 l800,0" />
    </g>
    <g id="Symbols">
        <g id="Ultralight-S">
            <path d="M290.037,125.797 C289.274,133.46 287.969,139.448 287.912,139.7 C287.514,141.517 286.092,142.939 284.272,143.337 C283.778,143.445 272.008,146 260.289,146 C248.569,146 236.796,143.445 236.303,143.337 C234.483,142.939 233.06,141.52 232.663,139.696 C232.554,139.203 229.999,127.433 229.999,115.71 C229.999,103.988 232.554,92.221 232.663,91.728 C233.06,89.907 234.48,88.485 236.3,88.087 C236.551,88.03 242.543,86.725 250.211,85.962 C252.792,85.669 255.172,87.613 255.433,90.238 C255.697,92.86 253.782,95.199 251.156,95.46 C247.22,95.855 243.736,96.405 241.4,96.822 C240.678,100.889 239.548,108.42 239.548,115.714 C239.548,123.007 240.675,130.542 241.4,134.605 C245.464,135.328 252.999,136.457 260.292,136.457 C267.585,136.457 275.12,135.331 279.18,134.605 C279.6,132.266 280.154,128.776 280.546,124.852 C280.806,122.23 283.133,120.267 285.77,120.579 C288.392,120.84 290.308,123.175 290.044,125.804 Z M299.79,93.748 C299.644,93.194 299.361,92.695 299.052,92.23 C294.709,86.439 289.57,81.297 283.775,76.953 C281.672,75.375 278.681,75.798 277.093,77.911 C275.512,80.018 275.941,83.012 278.051,84.593 C280.406,86.36 282.598,88.316 284.695,90.372 C273.166,90.744 262.379,93.194 261.889,93.306 C260.244,93.685 258.924,94.903 258.411,96.51 C258.3,96.867 255.63,105.448 255.465,122.094 C255.439,124.728 257.555,126.889 260.19,126.914 L260.238,126.914 C262.854,126.914 264.985,124.808 265.011,122.189 C265.11,112.197 266.172,105.452 266.879,102.031 C270.605,101.325 277.497,100.192 284.59,99.928 C282.525,101.942 280.364,103.861 278.051,105.595 C275.941,107.176 275.512,110.171 277.093,112.277 C278.684,114.399 281.685,114.804 283.775,113.235 C289.567,108.891 294.709,103.752 299.052,97.958 C299.895,96.768 300.268,95.161 299.79,93.751 Z" />
        </g>
        <g id="Regular-S">
            <path d="M490.037,125.797 C489.274,133.46 487.969,139.448 487.912,139.7 C487.514,141.517 486.092,142.939 484.272,143.337 C483.778,143.445 472.008,146 460.289,146 C448.569,146 436.796,143.445 436.303,143.337 C434.483,142.939 433.06,141.52 432.663,139.696 C432.554,139.203 429.999,127.433 429.999,115.71 C429.999,103.988 432.554,92.221 432.663,91.728 C433.06,89.907 434.48,88.485 436.3,88.087 C436.551,88.03 442.543,86.725 450.211,85.962 C452.792,85.669 455.172,87.613 455.433,90.238 C455.697,92.86 453.782,95.199 451.156,95.46 C447.22,95.855 443.736,96.405 441.4,96.822 C440.678,100.889 439.548,108.42 439.548,115.714 C439.548,123.007 440.675,130.542 441.4,134.605 C445.464,135.328 452.999,136.457 460.292,136.457 C467.585,136.457 475.12,135.331 479.18,134.605 C479.6,132.266 480.154,128.776 480.546,124.852 C480.806,122.23 483.133,120.267 485.77,120.579 C488.392,120.84 490.308,123.175 490.044,125.804 Z M499.79,93.748 C499.644,93.194 499.361,92.695 499.052,92.23 C494.709,86.439 489.57,81.297 483.775,76.953 C481.672,75.375 478.681,75.798 477.093,77.911 C475.512,80.018 475.941,83.012 478.051,84.593 C480.406,86.36 482.598,88.316 484.695,90.372 C473.166,90.744 462.379,93.194 461.889,93.306 C460.244,93.685 458.924,94.903 458.411,96.51 C458.3,96.867 455.63,105.448 455.465,122.094 C455.439,124.728 457.555,126.889 460.19,126.914 L460.238,126.914 C462.854,126.914 464.985,124.808 465.011,122.189 C465.11,112.197 466.172,105.452 466.879,102.031 C470.605,101.325 477.497,100.192 484.59,99.928 C482.525,101.942 480.364,103.861 478.051,105.595 C475.941,107.176 475.512,110.171 477.093,112.277 C478.684,114.399 481.685,114.804 483.775,113.235 C489.567,108.891 494.709,103.752 499.052,97.958 C499.895,96.768 500.268,95.161 499.79,93.751 Z" />
        </g>
        <g id="Black-S">
            <path d="M690.038,125.797 C689.274,133.46 687.969,139.448 687.912,139.7 C687.514,141.517 686.092,142.939 684.272,143.337 C683.779,143.445 672.008,146 660.289,146 C648.57,146 636.796,143.445 636.303,143.337 C634.483,142.939 633.06,141.52 632.663,139.696 C632.554,139.203 629.999,127.433 629.999,115.71 C629.999,103.988 632.554,92.221 632.663,91.728 C633.06,89.907 634.48,88.485 636.3,88.087 C636.551,88.03 642.543,86.725 650.211,85.962 C652.792,85.669 655.172,87.613 655.433,90.238 C655.697,92.86 653.782,95.199 651.156,95.46 C647.22,95.855 643.736,96.405 641.4,96.822 C640.678,100.889 639.548,108.42 639.548,115.714 C639.548,123.007 640.675,130.542 641.4,134.605 C645.464,135.328 652.999,136.457 660.292,136.457 C667.585,136.457 675.12,135.331 679.18,134.605 C679.601,132.266 680.154,128.776 680.546,124.852 C680.807,122.23 683.133,120.267 685.77,120.579 C688.392,120.84 690.308,123.175 690.044,125.804 Z M699.79,93.748 C699.644,93.194 699.361,92.695 699.052,92.23 C694.709,86.439 689.57,81.297 683.775,76.953 C681.672,75.375 678.681,75.798 677.093,77.911 C675.512,80.018 675.941,83.012 678.051,84.593 C680.406,86.36 682.598,88.316 684.695,90.372 C673.167,90.744 662.379,93.194 661.889,93.306 C660.244,93.685 658.924,94.903 658.411,96.51 C658.3,96.867 655.63,105.448 655.465,122.094 C655.439,124.728 657.556,126.889 660.19,126.914 L660.238,126.914 C662.854,126.914 664.986,124.808 665.011,122.189 C665.11,112.197 666.172,105.452 666.879,102.031 C670.605,101.325 677.497,100.192 684.59,99.928 C682.525,101.942 680.364,103.861 678.051,105.595 C675.941,107.176 675.512,110.171 677.093,112.277 C678.684,114.399 681.685,114.804 683.775,113.235 C689.567,108.891 694.709,103.752 699.052,97.958 C699.895,96.768 700.268,95.161 699.79,93.751 Z" />
        </g>
    </g>
</svg>