<?xml version="1.0" encoding="UTF-8"?>
<svg height="600" width="800" xmlns="http://www.w3.org/2000/svg" xmlns:xlink="http://www.w3.org/1999/xlink">
    <g id="Notes" font-family="'LucidaGrande', 'Lucida Grande', sans-serif" font-size="13">
        <rect fill="white" height="600.0" width="800.0" x="0.0" y="0.0" />
        <g font-size="13">
            <text x="18.0" y="176.0">Small</text>
            <text x="18.0" y="376.0">Medium</text>
            <text x="18.0" y="576.0">Large</text>
        </g>
        <g font-size="9">
            <text x="250.0" y="30.0">Ultralight</text>
            <text x="450.0" y="30.0">Regular</text>
            <text x="650.0" y="30.0">Black</text>
            <text id="template-version" fill="#505050" text-anchor="end" x="785.0" y="575.0">Template v.3.0</text>
            <a href="https://wangchujiang.com/#/app">
                <text fill="#505050" text-anchor="end" x="785.0" y="590.0">https://wangchujiang.com/#/app</text>
            </a>
        </g>
    </g>
    <g id="Guides" stroke="rgb(39, 170, 225)" stroke-width="0.5">
        <path id="Capline-S" d="M18,76 l800,0" />
        <path id="H-reference" d="M85,145.755 L87.685,145.755 L113.369,79.287 L114.052,79.287 L114.052,76 L112.148,76 L85,145.755 Z M95.693,121.536 L130.996,121.536 L130.263,119.313 L96.474,119.313 L95.693,121.536 Z M139.15,145.755 L141.787,145.755 L114.638,76 L113.466,76 L113.466,79.287 L139.15,145.755 Z" stroke="none" />
        <path id="Baseline-S" d="M18,146 l800,0" />
        <path id="left-margin-Ultralight-S" d="M220,56 l0,110" />
        <path id="right-margin-Ultralight-S" d="M310,56 l0,110" />
        <path id="left-margin-Regular-S" d="M420,56 l0,110" />
        <path id="right-margin-Regular-S" d="M510,56 l0,110" />
        <path id="left-margin-Black-S" d="M620,56 l0,110" />
        <path id="right-margin-Black-S" d="M710,56 l0,110" />
        <path id="Capline-M" d="M18,276 l800,0" />
        <path id="Baseline-M" d="M18,346 l800,0" />
        <path id="Capline-L" d="M18,476 l800,0" />
        <path id="Baseline-L" d="M18,546 l800,0" />
    </g>
    <g id="Symbols">
        <g id="Ultralight-S">
            <path d="M265,76 C240.468,76 230,86.468 230,111 C230,135.532 240.468,146 265,146 C289.532,146 300,135.532 300,111 C300,86.468 289.532,76 265,76 Z M247.5,115.773 C244.865,115.773 242.727,113.635 242.727,111 C242.727,108.365 244.865,106.227 247.5,106.227 C250.135,106.227 252.273,108.365 252.273,111 C252.273,113.635 250.135,115.773 247.5,115.773 Z M265,115.773 C262.365,115.773 260.227,113.635 260.227,111 C260.227,108.365 262.365,106.227 265,106.227 C267.635,106.227 269.773,108.365 269.773,111 C269.773,113.635 267.635,115.773 265,115.773 Z M282.5,115.773 C279.865,115.773 277.727,113.635 277.727,111 C277.727,108.365 279.865,106.227 282.5,106.227 C285.135,106.227 287.273,108.365 287.273,111 C287.273,113.635 285.135,115.773 282.5,115.773 Z" />
        </g>
        <g id="Regular-S">
            <path d="M465,76 C440.468,76 430,86.468 430,111 C430,135.532 440.468,146 465,146 C489.532,146 500,135.532 500,111 C500,86.468 489.532,76 465,76 Z M447.5,115.773 C444.865,115.773 442.727,113.635 442.727,111 C442.727,108.365 444.865,106.227 447.5,106.227 C450.135,106.227 452.273,108.365 452.273,111 C452.273,113.635 450.135,115.773 447.5,115.773 Z M465,115.773 C462.365,115.773 460.227,113.635 460.227,111 C460.227,108.365 462.365,106.227 465,106.227 C467.635,106.227 469.773,108.365 469.773,111 C469.773,113.635 467.635,115.773 465,115.773 Z M482.5,115.773 C479.865,115.773 477.727,113.635 477.727,111 C477.727,108.365 479.865,106.227 482.5,106.227 C485.135,106.227 487.273,108.365 487.273,111 C487.273,113.635 485.135,115.773 482.5,115.773 Z" />
        </g>
        <g id="Black-S">
            <path d="M665,76 C640.468,76 630,86.468 630,111 C630,135.532 640.468,146 665,146 C689.532,146 700,135.532 700,111 C700,86.468 689.532,76 665,76 Z M647.5,115.773 C644.865,115.773 642.727,113.635 642.727,111 C642.727,108.365 644.865,106.227 647.5,106.227 C650.135,106.227 652.273,108.365 652.273,111 C652.273,113.635 650.135,115.773 647.5,115.773 Z M665,115.773 C662.365,115.773 660.227,113.635 660.227,111 C660.227,108.365 662.365,106.227 665,106.227 C667.635,106.227 669.773,108.365 669.773,111 C669.773,113.635 667.635,115.773 665,115.773 Z M682.5,115.773 C679.865,115.773 677.727,113.635 677.727,111 C677.727,108.365 679.865,106.227 682.5,106.227 C685.135,106.227 687.273,108.365 687.273,111 C687.273,113.635 685.135,115.773 682.5,115.773 Z" />
        </g>
    </g>
</svg>