<?xml version="1.0" encoding="UTF-8"?>
<svg height="600" width="800" xmlns="http://www.w3.org/2000/svg" xmlns:xlink="http://www.w3.org/1999/xlink">
    <g id="Notes" font-family="'LucidaGrande', 'Lucida Grande', sans-serif" font-size="13">
        <rect fill="white" height="600.0" width="800.0" x="0.0" y="0.0" />
        <g font-size="13">
            <text x="18.0" y="176.0">Small</text>
            <text x="18.0" y="376.0">Medium</text>
            <text x="18.0" y="576.0">Large</text>
        </g>
        <g font-size="9">
            <text x="250.0" y="30.0">Ultralight</text>
            <text x="450.0" y="30.0">Regular</text>
            <text x="650.0" y="30.0">Black</text>
            <text id="template-version" fill="#505050" text-anchor="end" x="785.0" y="575.0">Template v.3.0</text>
            <a href="https://wangchujiang.com/#/app">
                <text fill="#505050" text-anchor="end" x="785.0" y="590.0">https://wangchujiang.com/#/app</text>
            </a>
        </g>
    </g>
    <g id="Guides" stroke="rgb(39, 170, 225)" stroke-width="0.5">
        <path id="Capline-S" d="M18,76 l800,0" />
        <path id="H-reference" d="M85,145.755 L87.685,145.755 L113.369,79.287 L114.052,79.287 L114.052,76 L112.148,76 L85,145.755 Z M95.693,121.536 L130.996,121.536 L130.263,119.313 L96.474,119.313 L95.693,121.536 Z M139.15,145.755 L141.787,145.755 L114.638,76 L113.466,76 L113.466,79.287 L139.15,145.755 Z" stroke="none" />
        <path id="Baseline-S" d="M18,146 l800,0" />
        <path id="left-margin-Ultralight-S" d="M219.225,56 l0,110" />
        <path id="right-margin-Ultralight-S" d="M310.775,56 l0,110" />
        <path id="left-margin-Regular-S" d="M419.225,56 l0,110" />
        <path id="right-margin-Regular-S" d="M510.775,56 l0,110" />
        <path id="left-margin-Black-S" d="M619.225,56 l0,110" />
        <path id="right-margin-Black-S" d="M710.775,56 l0,110" />
        <path id="Capline-M" d="M18,276 l800,0" />
        <path id="Baseline-M" d="M18,346 l800,0" />
        <path id="Capline-L" d="M18,476 l800,0" />
        <path id="Baseline-L" d="M18,546 l800,0" />
    </g>
    <g id="Symbols">
        <g id="Ultralight-S">
            <path d="M300.078,100.758 C298.566,96.667 295.024,94.257 290.757,94.433 C287.499,94.537 284.237,94.624 280.982,94.689 C279.535,94.813 278.166,93.766 277.717,92.322 C276.751,89.2 275.782,86.081 274.796,82.966 C273.47,78.735 269.622,76 264.998,76 C260.374,76 256.527,78.735 255.2,82.963 C254.211,86.078 253.242,89.197 252.279,92.319 C251.831,93.766 250.523,94.82 249.014,94.689 C245.756,94.624 242.494,94.54 239.271,94.436 C235.008,94.267 231.421,96.673 229.912,100.761 C228.263,105.223 229.649,110.169 233.379,113.083 C236.019,115.109 238.637,117.086 241.252,119.037 C242.494,119.964 242.972,121.623 242.445,123.167 C241.359,126.351 240.224,129.548 239.05,132.748 C237.45,136.979 238.588,141.389 241.951,143.977 C245.496,146.712 250.52,146.67 254.462,143.86 L262.78,137.886 C264.127,136.924 265.87,136.92 267.219,137.886 L275.551,143.87 C277.544,145.288 279.818,146 282.036,146 C284.195,146 286.302,145.327 288.049,143.98 C291.408,141.392 292.546,136.982 290.959,132.777 C289.772,129.551 288.644,126.351 287.554,123.171 C287.024,121.629 287.505,119.971 288.744,119.044 C291.362,117.089 293.983,115.112 296.644,113.07 C300.351,110.172 301.736,105.226 300.088,100.764 Z M292.65,107.919 C290.036,109.925 287.437,111.886 284.842,113.821 C281.333,116.446 279.944,121.044 281.388,125.268 C282.491,128.494 283.639,131.743 284.852,135.041 C285.444,136.602 285.157,137.98 284.068,138.823 C283.092,139.571 281.265,139.954 279.327,138.576 L270.998,132.595 C269.2,131.307 267.092,130.66 264.988,130.66 C262.884,130.66 260.777,131.304 258.979,132.592 L250.663,138.566 C248.712,139.954 246.881,139.574 245.912,138.82 C244.823,137.98 244.536,136.602 245.135,135.015 C246.338,131.743 247.486,128.494 248.588,125.268 C250.032,121.044 248.644,116.446 245.131,113.821 C242.54,111.886 239.941,109.925 237.349,107.935 C235.652,106.608 235.45,104.507 236,103.011 C236.299,102.198 237.128,100.872 239.011,100.93 C242.296,101.034 245.583,101.122 248.871,101.19 C253.255,101.161 257.161,98.485 258.481,94.241 C259.44,91.128 260.406,88.023 261.392,84.914 C261.948,83.135 263.616,82.501 264.985,82.501 C266.354,82.501 268.023,83.135 268.579,84.914 C268.579,84.914 268.579,84.917 268.579,84.92 C269.561,88.023 270.527,91.128 271.489,94.244 C272.806,98.485 276.608,101.2 281.099,101.19 C284.383,101.122 287.671,101.037 290.995,100.93 C292.836,100.82 293.665,102.195 293.967,103.011 C294.52,104.507 294.315,106.611 292.64,107.919 Z" />
        </g>
        <g id="Regular-S">
            <path d="M500.078,100.758 C498.566,96.667 495.024,94.257 490.757,94.433 C487.499,94.537 484.237,94.624 480.982,94.689 C479.535,94.813 478.166,93.766 477.717,92.322 C476.751,89.2 475.782,86.081 474.796,82.966 C473.47,78.735 469.622,76 464.998,76 C460.374,76 456.527,78.735 455.2,82.963 C454.211,86.078 453.242,89.197 452.279,92.319 C451.831,93.766 450.523,94.82 449.014,94.689 C445.756,94.624 442.494,94.54 439.271,94.436 C435.008,94.267 431.421,96.673 429.912,100.761 C428.263,105.223 429.649,110.169 433.379,113.083 C436.019,115.109 438.637,117.086 441.252,119.037 C442.494,119.964 442.972,121.623 442.445,123.167 C441.359,126.351 440.224,129.548 439.05,132.748 C437.45,136.979 438.588,141.389 441.951,143.977 C445.496,146.712 450.52,146.67 454.462,143.86 L462.78,137.886 C464.127,136.924 465.87,136.92 467.219,137.886 L475.551,143.87 C477.544,145.288 479.818,146 482.036,146 C484.195,146 486.302,145.327 488.049,143.98 C491.408,141.392 492.546,136.982 490.959,132.777 C489.772,129.551 488.644,126.351 487.554,123.171 C487.024,121.629 487.505,119.971 488.744,119.044 C491.362,117.089 493.983,115.112 496.644,113.07 C500.351,110.172 501.736,105.226 500.088,100.764 Z M492.65,107.919 C490.036,109.925 487.437,111.886 484.842,113.821 C481.333,116.446 479.944,121.044 481.388,125.268 C482.491,128.494 483.639,131.743 484.852,135.041 C485.444,136.602 485.157,137.98 484.068,138.823 C483.092,139.571 481.265,139.954 479.327,138.576 L470.998,132.595 C469.2,131.307 467.092,130.66 464.988,130.66 C462.884,130.66 460.777,131.304 458.979,132.592 L450.663,138.566 C448.712,139.954 446.881,139.574 445.912,138.82 C444.823,137.98 444.536,136.602 445.135,135.015 C446.338,131.743 447.486,128.494 448.588,125.268 C450.032,121.044 448.644,116.446 445.131,113.821 C442.54,111.886 439.941,109.925 437.349,107.935 C435.652,106.608 435.45,104.507 436,103.011 C436.299,102.198 437.128,100.872 439.011,100.93 C442.296,101.034 445.583,101.122 448.871,101.19 C453.255,101.161 457.161,98.485 458.481,94.241 C459.44,91.128 460.406,88.023 461.392,84.914 C461.948,83.135 463.616,82.501 464.985,82.501 C466.354,82.501 468.023,83.135 468.579,84.914 C468.579,84.914 468.579,84.917 468.579,84.92 C469.561,88.023 470.527,91.128 471.489,94.244 C472.806,98.485 476.608,101.2 481.099,101.19 C484.383,101.122 487.671,101.037 490.995,100.93 C492.836,100.82 493.665,102.195 493.967,103.011 C494.52,104.507 494.315,106.611 492.64,107.919 Z" />
        </g>
        <g id="Black-S">
            <path d="M700.078,100.758 C698.566,96.667 695.024,94.257 690.757,94.433 C687.499,94.537 684.237,94.624 680.982,94.689 C679.535,94.813 678.166,93.766 677.717,92.322 C676.751,89.2 675.782,86.081 674.797,82.966 C673.47,78.735 669.622,76 664.998,76 C660.374,76 656.527,78.735 655.2,82.963 C654.211,86.078 653.242,89.197 652.279,92.319 C651.831,93.766 650.523,94.82 649.014,94.689 C645.756,94.624 642.494,94.54 639.271,94.436 C635.008,94.267 631.421,96.673 629.912,100.761 C628.263,105.223 629.648,110.169 633.379,113.083 C636.019,115.109 638.637,117.086 641.252,119.037 C642.494,119.964 642.972,121.623 642.445,123.167 C641.359,126.351 640.224,129.548 639.05,132.748 C637.45,136.979 638.588,141.389 641.951,143.977 C645.496,146.712 650.52,146.67 654.462,143.86 L662.78,137.886 C664.127,136.924 665.87,136.92 667.219,137.886 L675.551,143.87 C677.544,145.288 679.818,146 682.036,146 C684.195,146 686.302,145.327 688.049,143.98 C691.408,141.392 692.546,136.982 690.959,132.777 C689.772,129.551 688.644,126.351 687.554,123.171 C687.024,121.629 687.505,119.971 688.744,119.044 C691.362,117.089 693.983,115.112 696.644,113.07 C700.351,110.172 701.736,105.226 700.088,100.764 Z M692.65,107.919 C690.036,109.925 687.437,111.886 684.842,113.821 C681.333,116.446 679.944,121.044 681.388,125.268 C682.491,128.494 683.639,131.743 684.852,135.041 C685.444,136.602 685.157,137.98 684.068,138.823 C683.092,139.571 681.265,139.954 679.327,138.576 L670.998,132.595 C669.2,131.307 667.092,130.66 664.988,130.66 C662.884,130.66 660.777,131.304 658.979,132.592 L650.663,138.566 C648.712,139.954 646.881,139.574 645.912,138.82 C644.823,137.98 644.536,136.602 645.135,135.015 C646.338,131.743 647.486,128.494 648.588,125.268 C650.032,121.044 648.644,116.446 645.131,113.821 C642.54,111.886 639.941,109.925 637.349,107.935 C635.652,106.608 635.45,104.507 636,103.011 C636.299,102.198 637.128,100.872 639.011,100.93 C642.296,101.034 645.583,101.122 648.871,101.19 C653.255,101.161 657.161,98.485 658.481,94.241 C659.44,91.128 660.406,88.023 661.392,84.914 C661.948,83.135 663.616,82.501 664.985,82.501 C666.354,82.501 668.023,83.135 668.579,84.914 C668.579,84.914 668.579,84.917 668.579,84.92 C669.561,88.023 670.527,91.128 671.489,94.244 C672.806,98.485 676.608,101.2 681.099,101.19 C684.383,101.122 687.671,101.037 690.995,100.93 C692.836,100.82 693.665,102.195 693.967,103.011 C694.52,104.507 694.315,106.611 692.64,107.919 Z" />
        </g>
    </g>
</svg>