<?xml version="1.0" encoding="UTF-8"?>
<svg height="600" width="800" xmlns="http://www.w3.org/2000/svg" xmlns:xlink="http://www.w3.org/1999/xlink">
    <g id="Notes" font-family="'LucidaGrande', 'Lucida Grande', sans-serif" font-size="13">
        <rect fill="white" height="600.0" width="800.0" x="0.0" y="0.0" />
        <g font-size="13">
            <text x="18.0" y="176.0">Small</text>
            <text x="18.0" y="376.0">Medium</text>
            <text x="18.0" y="576.0">Large</text>
        </g>
        <g font-size="9">
            <text x="250.0" y="30.0">Ultralight</text>
            <text x="450.0" y="30.0">Regular</text>
            <text x="650.0" y="30.0">Black</text>
            <text id="template-version" fill="#505050" text-anchor="end" x="785.0" y="575.0">Template v.3.0</text>
            <a href="https://wangchujiang.com/#/app">
                <text fill="#505050" text-anchor="end" x="785.0" y="590.0">https://wangchujiang.com/#/app</text>
            </a>
        </g>
    </g>
    <g id="Guides" stroke="rgb(39, 170, 225)" stroke-width="0.5">
        <path id="Capline-S" d="M18,76 l800,0" />
        <path id="H-reference" d="M85,145.755 L87.685,145.755 L113.369,79.287 L114.052,79.287 L114.052,76 L112.148,76 L85,145.755 Z M95.693,121.536 L130.996,121.536 L130.263,119.313 L96.474,119.313 L95.693,121.536 Z M139.15,145.755 L141.787,145.755 L114.638,76 L113.466,76 L113.466,79.287 L139.15,145.755 Z" stroke="none" />
        <path id="Baseline-S" d="M18,146 l800,0" />
        <path id="left-margin-Ultralight-S" d="M220,56 l0,110" />
        <path id="right-margin-Ultralight-S" d="M310,56 l0,110" />
        <path id="left-margin-Regular-S" d="M420,56 l0,110" />
        <path id="right-margin-Regular-S" d="M510,56 l0,110" />
        <path id="left-margin-Black-S" d="M620,56 l0,110" />
        <path id="right-margin-Black-S" d="M710,56 l0,110" />
        <path id="Capline-M" d="M18,276 l800,0" />
        <path id="Baseline-M" d="M18,346 l800,0" />
        <path id="Capline-L" d="M18,476 l800,0" />
        <path id="Baseline-L" d="M18,546 l800,0" />
    </g>
    <g id="Symbols">
        <g id="Ultralight-S">
            <path d="M265,76 C249.974,76 230,79.628 230,111 C230,142.372 249.974,146 265,146 C280.026,146 300,142.372 300,111 C300,79.628 280.026,76 265,76 Z M265.405,136.867 C265.271,136.867 264.732,136.867 264.598,136.867 C262.093,136.836 257.982,136.246 256.153,125.061 L273.85,125.061 C272.021,136.246 267.91,136.836 265.405,136.867 Z M255.316,115.93 C255.258,114.4 255.227,112.759 255.227,111 C255.227,109.241 255.258,107.597 255.316,106.07 L274.687,106.07 C274.745,107.6 274.776,109.241 274.776,111 C274.776,112.759 274.745,114.403 274.687,115.93 L255.316,115.93 Z M239.133,111 C239.133,109.244 239.2,107.603 239.331,106.07 L246.176,106.07 C246.121,107.722 246.1,109.375 246.1,111 C246.1,112.625 246.121,114.278 246.176,115.93 L239.328,115.93 C239.197,114.397 239.13,112.756 239.13,111 Z M264.595,85.133 C264.729,85.133 265.268,85.133 265.402,85.133 C267.907,85.164 272.018,85.754 273.847,96.939 L256.15,96.939 C257.979,85.754 262.09,85.164 264.595,85.133 Z M283.827,106.07 L290.672,106.07 C290.803,107.603 290.87,109.244 290.87,111 C290.87,112.756 290.803,114.397 290.672,115.93 L283.827,115.93 C283.882,114.278 283.903,112.625 283.903,111 C283.903,109.375 283.882,107.722 283.827,106.07 Z M288.727,96.939 L283.087,96.939 C282.64,93.768 281.97,90.74 280.972,88.019 C284.417,89.823 287.047,92.645 288.727,96.939 Z M249.025,88.019 C248.03,90.737 247.357,93.768 246.91,96.939 L241.27,96.939 C242.95,92.648 245.58,89.823 249.025,88.019 Z M241.27,125.061 L246.91,125.061 C247.357,128.232 248.027,131.26 249.025,133.981 C245.58,132.177 242.95,129.355 241.27,125.061 Z M280.975,133.981 C281.97,131.263 282.643,128.232 283.09,125.061 L288.73,125.061 C287.05,129.352 284.42,132.177 280.975,133.981 Z" />
        </g>
        <g id="Regular-S">
            <path d="M465,76 C449.974,76 430,79.628 430,111 C430,142.372 449.974,146 465,146 C480.026,146 500,142.372 500,111 C500,79.628 480.026,76 465,76 Z M465.405,136.867 C465.271,136.867 464.732,136.867 464.598,136.867 C462.094,136.836 457.982,136.246 456.153,125.061 L473.85,125.061 C472.021,136.246 467.91,136.836 465.405,136.867 Z M455.316,115.93 C455.258,114.4 455.227,112.759 455.227,111 C455.227,109.241 455.258,107.597 455.316,106.07 L474.687,106.07 C474.745,107.6 474.776,109.241 474.776,111 C474.776,112.759 474.745,114.403 474.687,115.93 L455.316,115.93 Z M439.133,111 C439.133,109.244 439.2,107.603 439.331,106.07 L446.176,106.07 C446.121,107.722 446.1,109.375 446.1,111 C446.1,112.625 446.121,114.278 446.176,115.93 L439.328,115.93 C439.197,114.397 439.13,112.756 439.13,111 Z M464.595,85.133 C464.729,85.133 465.268,85.133 465.402,85.133 C467.907,85.164 472.018,85.754 473.847,96.939 L456.15,96.939 C457.979,85.754 462.09,85.164 464.595,85.133 Z M483.827,106.07 L490.672,106.07 C490.803,107.603 490.87,109.244 490.87,111 C490.87,112.756 490.803,114.397 490.672,115.93 L483.827,115.93 C483.882,114.278 483.903,112.625 483.903,111 C483.903,109.375 483.882,107.722 483.827,106.07 Z M488.727,96.939 L483.087,96.939 C482.64,93.768 481.97,90.74 480.972,88.019 C484.417,89.823 487.047,92.645 488.727,96.939 Z M449.025,88.019 C448.03,90.737 447.357,93.768 446.91,96.939 L441.27,96.939 C442.95,92.648 445.58,89.823 449.025,88.019 Z M441.27,125.061 L446.91,125.061 C447.357,128.232 448.027,131.26 449.025,133.981 C445.58,132.177 442.95,129.355 441.27,125.061 Z M480.975,133.981 C481.97,131.263 482.643,128.232 483.09,125.061 L488.73,125.061 C487.05,129.352 484.42,132.177 480.975,133.981 Z" />
        </g>
        <g id="Black-S">
            <path d="M665,76 C649.974,76 630,79.628 630,111 C630,142.372 649.974,146 665,146 C680.026,146 700,142.372 700,111 C700,79.628 680.026,76 665,76 Z M665.405,136.867 C665.271,136.867 664.732,136.867 664.598,136.867 C662.094,136.836 657.982,136.246 656.153,125.061 L673.85,125.061 C672.021,136.246 667.91,136.836 665.405,136.867 Z M655.316,115.93 C655.258,114.4 655.227,112.759 655.227,111 C655.227,109.241 655.258,107.597 655.316,106.07 L674.687,106.07 C674.745,107.6 674.776,109.241 674.776,111 C674.776,112.759 674.745,114.403 674.687,115.93 L655.316,115.93 Z M639.133,111 C639.133,109.244 639.2,107.603 639.331,106.07 L646.176,106.07 C646.121,107.722 646.1,109.375 646.1,111 C646.1,112.625 646.121,114.278 646.176,115.93 L639.328,115.93 C639.197,114.397 639.13,112.756 639.13,111 Z M664.595,85.133 C664.729,85.133 665.268,85.133 665.402,85.133 C667.907,85.164 672.018,85.754 673.847,96.939 L656.15,96.939 C657.979,85.754 662.09,85.164 664.595,85.133 Z M683.827,106.07 L690.672,106.07 C690.803,107.603 690.87,109.244 690.87,111 C690.87,112.756 690.803,114.397 690.672,115.93 L683.827,115.93 C683.882,114.278 683.903,112.625 683.903,111 C683.903,109.375 683.882,107.722 683.827,106.07 Z M688.727,96.939 L683.087,96.939 C682.64,93.768 681.97,90.74 680.972,88.019 C684.417,89.823 687.047,92.645 688.727,96.939 Z M649.025,88.019 C648.03,90.737 647.357,93.768 646.91,96.939 L641.27,96.939 C642.95,92.648 645.58,89.823 649.025,88.019 Z M641.27,125.061 L646.91,125.061 C647.357,128.232 648.027,131.26 649.025,133.981 C645.58,132.177 642.95,129.355 641.27,125.061 Z M680.975,133.981 C681.97,131.263 682.643,128.232 683.09,125.061 L688.73,125.061 C687.05,129.352 684.42,132.177 680.975,133.981 Z" />
        </g>
    </g>
</svg>