<?xml version="1.0" encoding="UTF-8"?>
<svg height="600" width="800" xmlns="http://www.w3.org/2000/svg" xmlns:xlink="http://www.w3.org/1999/xlink">
    <g id="Notes" font-family="'LucidaGrande', 'Lucida Grande', sans-serif" font-size="13">
        <rect fill="white" height="600.0" width="800.0" x="0.0" y="0.0" />
        <g font-size="13">
            <text x="18.0" y="176.0">Small</text>
            <text x="18.0" y="376.0">Medium</text>
            <text x="18.0" y="576.0">Large</text>
        </g>
        <g font-size="9">
            <text x="250.0" y="30.0">Ultralight</text>
            <text x="450.0" y="30.0">Regular</text>
            <text x="650.0" y="30.0">Black</text>
            <text id="template-version" fill="#505050" text-anchor="end" x="785.0" y="575.0">Template v.3.0</text>
            <a href="https://wangchujiang.com/#/app">
                <text fill="#505050" text-anchor="end" x="785.0" y="590.0">https://wangchujiang.com/#/app</text>
            </a>
        </g>
    </g>
    <g id="Guides" stroke="rgb(39, 170, 225)" stroke-width="0.5">
        <path id="Capline-S" d="M18,76 l800,0" />
        <path id="H-reference" d="M85,145.755 L87.685,145.755 L113.369,79.287 L114.052,79.287 L114.052,76 L112.148,76 L85,145.755 Z M95.693,121.536 L130.996,121.536 L130.263,119.313 L96.474,119.313 L95.693,121.536 Z M139.15,145.755 L141.787,145.755 L114.638,76 L113.466,76 L113.466,79.287 L139.15,145.755 Z" stroke="none" />
        <path id="Baseline-S" d="M18,146 l800,0" />
        <path id="left-margin-Ultralight-S" d="M219.978,56 l0,110" />
        <path id="right-margin-Ultralight-S" d="M310.022,56 l0,110" />
        <path id="left-margin-Regular-S" d="M419.978,56 l0,110" />
        <path id="right-margin-Regular-S" d="M510.022,56 l0,110" />
        <path id="left-margin-Black-S" d="M619.978,56 l0,110" />
        <path id="right-margin-Black-S" d="M710.022,56 l0,110" />
        <path id="Capline-M" d="M18,276 l800,0" />
        <path id="Baseline-M" d="M18,346 l800,0" />
        <path id="Capline-L" d="M18,476 l800,0" />
        <path id="Baseline-L" d="M18,546 l800,0" />
    </g>
    <g id="Symbols">
        <g id="Ultralight-S">
            <path d="M279.592,128.489 L279.592,146 L291.266,146 C296.102,146 300.022,142.08 300.022,137.245 L300.022,110.625 C300.022,109.109 299.433,107.652 298.379,106.563 L273.577,79.75 C269.201,75.016 261.816,74.725 257.081,79.101 C256.856,79.309 256.639,79.525 256.431,79.75 L231.674,106.554 C230.587,107.648 229.978,109.127 229.978,110.669 L229.978,137.245 C229.978,142.08 233.898,146 238.734,146 L250.408,146 L250.408,128.489 C250.462,120.531 256.887,114.032 264.645,113.845 C272.662,113.652 279.531,120.261 279.592,128.489 Z" />
            <path d="M265,119.734 C260.165,119.734 256.245,123.654 256.245,128.489 L256.245,146 L273.755,146 L273.755,128.489 C273.755,123.654 269.835,119.734 265,119.734 Z" />
            <path d="M265,119.734 C260.165,119.734 256.245,123.654 256.245,128.489 L256.245,146 L273.755,146 L273.755,128.489 C273.755,123.654 269.835,119.734 265,119.734 Z" />
        </g>
        <g id="Regular-S">
            <path d="M479.592,128.489 L479.592,146 L491.266,146 C496.102,146 500.022,142.08 500.022,137.245 L500.022,110.625 C500.023,109.109 499.433,107.652 498.379,106.563 L473.577,79.75 C469.201,75.016 461.816,74.725 457.081,79.101 C456.856,79.309 456.639,79.525 456.431,79.75 L431.674,106.554 C430.587,107.648 429.978,109.127 429.978,110.669 L429.978,137.245 C429.978,142.08 433.898,146 438.734,146 L450.408,146 L450.408,128.489 C450.462,120.531 456.887,114.032 464.645,113.845 C472.662,113.652 479.531,120.261 479.592,128.489 Z" />
            <path d="M465,119.734 C460.165,119.734 456.245,123.654 456.245,128.489 L456.245,146 L473.755,146 L473.755,128.489 C473.755,123.654 469.835,119.734 465,119.734 Z" />
            <path d="M465,119.734 C460.165,119.734 456.245,123.654 456.245,128.489 L456.245,146 L473.755,146 L473.755,128.489 C473.755,123.654 469.835,119.734 465,119.734 Z" />
        </g>
        <g id="Black-S">
            <path d="M679.592,128.489 L679.592,146 L691.266,146 C696.102,146 700.022,142.08 700.022,137.245 L700.022,110.625 C700.023,109.109 699.433,107.652 698.379,106.563 L673.578,79.75 C669.201,75.016 661.816,74.725 657.081,79.101 C656.856,79.309 656.639,79.525 656.431,79.75 L631.674,106.554 C630.587,107.648 629.978,109.127 629.978,110.669 L629.978,137.245 C629.978,142.08 633.898,146 638.734,146 L650.408,146 L650.408,128.489 C650.462,120.531 656.887,114.032 664.645,113.845 C672.662,113.652 679.531,120.261 679.592,128.489 Z" />
            <path d="M665,119.734 C660.165,119.734 656.245,123.654 656.245,128.489 L656.245,146 L673.755,146 L673.755,128.489 C673.755,123.654 669.836,119.734 665,119.734 Z" />
            <path d="M665,119.734 C660.165,119.734 656.245,123.654 656.245,128.489 L656.245,146 L673.755,146 L673.755,128.489 C673.755,123.654 669.836,119.734 665,119.734 Z" />
        </g>
    </g>
</svg>