<?xml version="1.0" encoding="UTF-8"?>
<svg height="600" width="800" xmlns="http://www.w3.org/2000/svg" xmlns:xlink="http://www.w3.org/1999/xlink">
    <g id="Notes" font-family="'LucidaGrande', 'Lucida Grande', sans-serif" font-size="13">
        <rect fill="white" height="600.0" width="800.0" x="0.0" y="0.0" />
        <g font-size="13">
            <text x="18.0" y="176.0">Small</text>
            <text x="18.0" y="376.0">Medium</text>
            <text x="18.0" y="576.0">Large</text>
        </g>
        <g font-size="9">
            <text x="250.0" y="30.0">Ultralight</text>
            <text x="450.0" y="30.0">Regular</text>
            <text x="650.0" y="30.0">Black</text>
            <text id="template-version" fill="#505050" text-anchor="end" x="785.0" y="575.0">Template v.3.0</text>
            <a href="https://wangchujiang.com/#/app">
                <text fill="#505050" text-anchor="end" x="785.0" y="590.0">https://wangchujiang.com/#/app</text>
            </a>
        </g>
    </g>
    <g id="Guides" stroke="rgb(39, 170, 225)" stroke-width="0.5">
        <path id="Capline-S" d="M18,76 l800,0" />
        <path id="H-reference" d="M85,145.755 L87.685,145.755 L113.369,79.287 L114.052,79.287 L114.052,76 L112.148,76 L85,145.755 Z M95.693,121.536 L130.996,121.536 L130.263,119.313 L96.474,119.313 L95.693,121.536 Z M139.15,145.755 L141.787,145.755 L114.638,76 L113.466,76 L113.466,79.287 L139.15,145.755 Z" stroke="none" />
        <path id="Baseline-S" d="M18,146 l800,0" />
        <path id="left-margin-Ultralight-S" d="M221,56 l0,110" />
        <path id="right-margin-Ultralight-S" d="M309,56 l0,110" />
        <path id="left-margin-Regular-S" d="M421,56 l0,110" />
        <path id="right-margin-Regular-S" d="M509,56 l0,110" />
        <path id="left-margin-Black-S" d="M621,56 l0,110" />
        <path id="right-margin-Black-S" d="M709,56 l0,110" />
        <path id="Capline-M" d="M18,276 l800,0" />
        <path id="Baseline-M" d="M18,346 l800,0" />
        <path id="Capline-L" d="M18,476 l800,0" />
        <path id="Baseline-L" d="M18,546 l800,0" />
    </g>
    <g id="Symbols">
        <g id="Ultralight-S">
            <path d="M290.782,114.449 C290.133,113.071 289.398,111.646 288.59,110.173 C287.874,108.871 287.501,107.303 287.511,105.632 L287.511,105.632 C287.53,102.034 287.298,98.387 286.821,94.792 C285.446,84.432 275.726,76 264.847,76 C254.277,76 244.56,84.429 243.182,94.792 C242.705,98.387 242.472,102.034 242.491,105.632 C242.501,107.3 242.129,108.871 241.41,110.176 C240.605,111.64 239.87,113.062 239.224,114.433 C237.633,117.806 237.506,121.576 238.867,125.045 C240.223,128.51 242.87,131.189 246.316,132.582 C248.451,133.445 250.713,134.164 253.621,134.67 C253.672,140.925 258.757,146 265,146 C271.242,146 276.317,140.938 276.378,134.692 C279.283,134.192 281.536,133.473 283.721,132.582 C287.158,131.182 289.792,128.506 291.141,125.048 C292.494,121.583 292.363,117.819 290.779,114.449 Z M265.003,139.636 C262.499,139.636 260.418,137.775 260.046,135.354 C261.547,135.433 263.186,135.475 265,135.475 C266.813,135.475 268.461,135.436 269.96,135.36 C269.585,137.778 267.504,139.636 265.003,139.636 Z M285.217,122.735 C284.507,124.551 283.126,125.955 281.326,126.69 C277.651,128.185 273.638,129.111 265.003,129.111 C256.437,129.111 252.416,128.182 248.706,126.68 C246.895,125.948 245.508,124.545 244.795,122.722 C244.079,120.899 244.149,118.916 244.986,117.141 C245.578,115.881 246.252,114.58 246.987,113.24 C248.225,110.987 248.871,108.343 248.855,105.597 C248.839,102.291 249.052,98.938 249.488,95.632 C250.443,88.441 257.475,82.367 265.152,82.367 C272.521,82.367 279.553,88.441 280.511,95.632 C280.95,98.941 281.163,102.295 281.144,105.6 C281.128,108.353 281.774,110.997 283.012,113.243 C283.75,114.592 284.428,115.9 285.023,117.163 C285.856,118.935 285.926,120.918 285.214,122.738 Z" />
        </g>
        <g id="Regular-S">
            <path d="M490.782,114.449 C490.133,113.071 489.398,111.646 488.59,110.173 C487.874,108.871 487.501,107.303 487.511,105.632 L487.511,105.632 C487.53,102.034 487.298,98.387 486.821,94.792 C485.446,84.432 475.726,76 464.847,76 C454.277,76 444.56,84.429 443.182,94.792 C442.705,98.387 442.472,102.034 442.491,105.632 C442.501,107.3 442.129,108.871 441.41,110.176 C440.605,111.64 439.87,113.062 439.224,114.433 C437.633,117.806 437.506,121.576 438.867,125.045 C440.223,128.51 442.87,131.189 446.316,132.582 C448.451,133.445 450.713,134.164 453.621,134.67 C453.672,140.925 458.757,146 465,146 C471.242,146 476.317,140.938 476.378,134.692 C479.283,134.192 481.536,133.473 483.721,132.582 C487.158,131.182 489.792,128.506 491.141,125.048 C492.494,121.583 492.363,117.819 490.779,114.449 Z M465.003,139.636 C462.499,139.636 460.418,137.775 460.046,135.354 C461.547,135.433 463.186,135.475 465,135.475 C466.813,135.475 468.461,135.436 469.96,135.36 C469.585,137.778 467.504,139.636 465.003,139.636 Z M485.217,122.735 C484.507,124.551 483.126,125.955 481.326,126.69 C477.651,128.185 473.638,129.111 465.003,129.111 C456.437,129.111 452.416,128.182 448.706,126.68 C446.895,125.948 445.508,124.545 444.795,122.722 C444.079,120.899 444.149,118.916 444.986,117.141 C445.578,115.881 446.252,114.58 446.987,113.24 C448.225,110.987 448.871,108.343 448.855,105.597 C448.839,102.291 449.052,98.938 449.488,95.632 C450.443,88.441 457.475,82.367 465.152,82.367 C472.521,82.367 479.553,88.441 480.511,95.632 C480.95,98.941 481.163,102.295 481.144,105.6 C481.128,108.353 481.774,110.997 483.012,113.243 C483.75,114.592 484.428,115.9 485.023,117.163 C485.856,118.935 485.926,120.918 485.214,122.738 Z" />
        </g>
        <g id="Black-S">
            <path d="M690.782,114.449 C690.133,113.071 689.398,111.646 688.59,110.173 C687.874,108.871 687.501,107.303 687.511,105.632 L687.511,105.632 C687.53,102.034 687.298,98.387 686.821,94.792 C685.446,84.432 675.726,76 664.847,76 C654.277,76 644.56,84.429 643.182,94.792 C642.705,98.387 642.472,102.034 642.491,105.632 C642.501,107.3 642.129,108.871 641.41,110.176 C640.605,111.64 639.87,113.062 639.224,114.433 C637.633,117.806 637.506,121.576 638.867,125.045 C640.223,128.51 642.87,131.189 646.316,132.582 C648.451,133.445 650.713,134.164 653.621,134.67 C653.672,140.925 658.757,146 665,146 C671.242,146 676.317,140.938 676.378,134.692 C679.283,134.192 681.536,133.473 683.721,132.582 C687.158,131.182 689.792,128.506 691.141,125.048 C692.494,121.583 692.363,117.819 690.779,114.449 Z M665.003,139.636 C662.499,139.636 660.418,137.775 660.046,135.354 C661.547,135.433 663.186,135.475 665,135.475 C666.813,135.475 668.461,135.436 669.96,135.36 C669.585,137.778 667.504,139.636 665.003,139.636 Z M685.217,122.735 C684.507,124.551 683.126,125.955 681.326,126.69 C677.651,128.185 673.638,129.111 665.003,129.111 C656.437,129.111 652.416,128.182 648.706,126.68 C646.895,125.948 645.508,124.545 644.795,122.722 C644.079,120.899 644.149,118.916 644.986,117.141 C645.578,115.881 646.252,114.58 646.987,113.24 C648.225,110.987 648.871,108.343 648.855,105.597 C648.839,102.291 649.052,98.938 649.488,95.632 C650.443,88.441 657.475,82.367 665.152,82.367 C672.521,82.367 679.553,88.441 680.511,95.632 C680.95,98.941 681.163,102.295 681.144,105.6 C681.128,108.353 681.774,110.997 683.012,113.243 C683.75,114.592 684.428,115.9 685.023,117.163 C685.856,118.935 685.926,120.918 685.214,122.738 Z" />
        </g>
    </g>
</svg>