<?xml version="1.0" encoding="UTF-8"?>
<!--Generator: Apple Native CoreSVG 341-->
<!DOCTYPE svg
PUBLIC "-//W3C//DTD SVG 1.1//EN"
       "http://www.w3.org/Graphics/SVG/1.1/DTD/svg11.dtd">
<svg version="1.1" xmlns="http://www.w3.org/2000/svg" xmlns:xlink="http://www.w3.org/1999/xlink" viewBox="0 0 3300 2200">
 <!--glyph: "", point size: 100.0, font version: "20.0d10e1", template writer version: "138.0.0"-->
 <style>.SFSymbolsPreviewWireframe {fill:none;opacity:1.0;stroke:black;stroke-width:0.5}
</style>
 <g id="Notes">
  <rect height="2200" id="artboard" style="fill:white;opacity:1" width="3300" x="0" y="0"/>
  <line style="fill:none;stroke:black;opacity:1;stroke-width:0.5;" x1="263" x2="3036" y1="292" y2="292"/>
  <text style="stroke:none;fill:black;font-family:sans-serif;font-size:13;font-weight:bold;" transform="matrix(1 0 0 1 263 322)">Weight/Scale Variations</text>
  <text style="stroke:none;fill:black;font-family:sans-serif;font-size:13;text-anchor:middle;" transform="matrix(1 0 0 1 559.711 322)">Ultralight</text>
  <text style="stroke:none;fill:black;font-family:sans-serif;font-size:13;text-anchor:middle;" transform="matrix(1 0 0 1 856.422 322)">Thin</text>
  <text style="stroke:none;fill:black;font-family:sans-serif;font-size:13;text-anchor:middle;" transform="matrix(1 0 0 1 1153.13 322)">Light</text>
  <text style="stroke:none;fill:black;font-family:sans-serif;font-size:13;text-anchor:middle;" transform="matrix(1 0 0 1 1449.84 322)">Regular</text>
  <text style="stroke:none;fill:black;font-family:sans-serif;font-size:13;text-anchor:middle;" transform="matrix(1 0 0 1 1746.56 322)">Medium</text>
  <text style="stroke:none;fill:black;font-family:sans-serif;font-size:13;text-anchor:middle;" transform="matrix(1 0 0 1 2043.27 322)">Semibold</text>
  <text style="stroke:none;fill:black;font-family:sans-serif;font-size:13;text-anchor:middle;" transform="matrix(1 0 0 1 2339.98 322)">Bold</text>
  <text style="stroke:none;fill:black;font-family:sans-serif;font-size:13;text-anchor:middle;" transform="matrix(1 0 0 1 2636.69 322)">Heavy</text>
  <text style="stroke:none;fill:black;font-family:sans-serif;font-size:13;text-anchor:middle;" transform="matrix(1 0 0 1 2933.4 322)">Black</text>
  <line style="fill:none;stroke:black;opacity:1;stroke-width:0.5;" x1="263" x2="3036" y1="1903" y2="1903"/>
  <g transform="matrix(0.2 0 0 0.2 263 1933)">
   <path d="m46.2402 4.15039c21.7773 0 39.4531-17.627 39.4531-39.4043s-17.6758-39.4043-39.4531-39.4043c-21.7285 0-39.4043 17.627-39.4043 39.4043s17.6758 39.4043 39.4043 39.4043Zm0-7.42188c-17.6758 0-31.9336-14.3066-31.9336-31.9824s14.2578-31.9824 31.9336-31.9824 31.9824 14.3066 31.9824 31.9824-14.3066 31.9824-31.9824 31.9824Zm-17.9688-31.9824c0 2.14844 1.51367 3.61328 3.75977 3.61328h10.498v10.5957c0 2.19727 1.46484 3.71094 3.61328 3.71094 2.24609 0 3.71094-1.51367 3.71094-3.71094v-10.5957h10.5957c2.19727 0 3.71094-1.46484 3.71094-3.61328 0-2.19727-1.51367-3.71094-3.71094-3.71094h-10.5957v-10.5469c0-2.24609-1.46484-3.75977-3.71094-3.75977-2.14844 0-3.61328 1.51367-3.61328 3.75977v10.5469h-10.498c-2.24609 0-3.75977 1.51367-3.75977 3.71094Z"/>
  </g>
  <g transform="matrix(0.2 0 0 0.2 281.506 1933)">
   <path d="m58.5449 14.5508c27.4902 0 49.8047-22.3145 49.8047-49.8047s-22.3145-49.8047-49.8047-49.8047-49.8047 22.3145-49.8047 49.8047 22.3145 49.8047 49.8047 49.8047Zm0-8.30078c-22.9492 0-41.5039-18.5547-41.5039-41.5039s18.5547-41.5039 41.5039-41.5039 41.5039 18.5547 41.5039 41.5039-18.5547 41.5039-41.5039 41.5039Zm-22.6562-41.5039c0 2.39258 1.66016 4.00391 4.15039 4.00391h14.3555v14.4043c0 2.44141 1.66016 4.15039 4.05273 4.15039 2.44141 0 4.15039-1.66016 4.15039-4.15039v-14.4043h14.4043c2.44141 0 4.15039-1.61133 4.15039-4.00391 0-2.44141-1.70898-4.15039-4.15039-4.15039h-14.4043v-14.3555c0-2.49023-1.70898-4.19922-4.15039-4.19922-2.39258 0-4.05273 1.70898-4.05273 4.19922v14.3555h-14.3555c-2.49023 0-4.15039 1.70898-4.15039 4.15039Z"/>
  </g>
  <g transform="matrix(0.2 0 0 0.2 304.924 1933)">
   <path d="m74.8535 28.3203c35.1074 0 63.623-28.4668 63.623-63.5742s-28.5156-63.623-63.623-63.623-63.5742 28.5156-63.5742 63.623 28.4668 63.5742 63.5742 63.5742Zm0-9.08203c-30.127 0-54.4922-24.3652-54.4922-54.4922s24.3652-54.4922 54.4922-54.4922 54.4922 24.3652 54.4922 54.4922-24.3652 54.4922-54.4922 54.4922Zm-28.8574-54.4922c0 2.58789 1.85547 4.39453 4.58984 4.39453h19.7266v19.7754c0 2.68555 1.85547 4.58984 4.44336 4.58984 2.68555 0 4.54102-1.85547 4.54102-4.58984v-19.7754h19.7754c2.68555 0 4.58984-1.80664 4.58984-4.39453 0-2.73438-1.85547-4.58984-4.58984-4.58984h-19.7754v-19.7266c0-2.73438-1.85547-4.63867-4.54102-4.63867-2.58789 0-4.44336 1.9043-4.44336 4.63867v19.7266h-19.7266c-2.73438 0-4.58984 1.85547-4.58984 4.58984Z"/>
  </g>
  <text style="stroke:none;fill:black;font-family:sans-serif;font-size:13;font-weight:bold;" transform="matrix(1 0 0 1 263 1953)">Design Variations</text>
  <text style="stroke:none;fill:black;font-family:sans-serif;font-size:13;" transform="matrix(1 0 0 1 263 1971)">Symbols are supported in up to nine weights and three scales.</text>
  <text style="stroke:none;fill:black;font-family:sans-serif;font-size:13;" transform="matrix(1 0 0 1 263 1989)">For optimal layout with text and other symbols, vertically align</text>
  <text style="stroke:none;fill:black;font-family:sans-serif;font-size:13;" transform="matrix(1 0 0 1 263 2007)">symbols with the adjacent text.</text>
  <line style="fill:none;stroke:#00AEEF;stroke-width:0.5;opacity:1.0;" x1="776" x2="776" y1="1919" y2="1933"/>
  <g transform="matrix(0.2 0 0 0.2 776 1933)">
   <path d="m16.5527 0.78125c2.58789 0 3.85742-0.976562 4.78516-3.71094l6.29883-17.2363h28.8086l6.29883 17.2363c0.927734 2.73438 2.19727 3.71094 4.73633 3.71094 2.58789 0 4.24805-1.5625 4.24805-4.00391 0-0.830078-0.146484-1.61133-0.537109-2.63672l-22.9004-60.9863c-1.12305-2.97852-3.125-4.49219-6.25-4.49219-3.02734 0-5.07812 1.46484-6.15234 4.44336l-22.9004 61.084c-0.390625 1.02539-0.537109 1.80664-0.537109 2.63672 0 2.44141 1.5625 3.95508 4.10156 3.95508Zm13.4766-28.3691 11.8652-32.8613h0.244141l11.8652 32.8613Z"/>
  </g>
  <line style="fill:none;stroke:#00AEEF;stroke-width:0.5;opacity:1.0;" x1="792.836" x2="792.836" y1="1919" y2="1933"/>
  <text style="stroke:none;fill:black;font-family:sans-serif;font-size:13;font-weight:bold;" transform="matrix(1 0 0 1 776 1953)">Margins</text>
  <text style="stroke:none;fill:black;font-family:sans-serif;font-size:13;" transform="matrix(1 0 0 1 776 1971)">Leading and trailing margins on the left and right side of each symbol</text>
  <text style="stroke:none;fill:black;font-family:sans-serif;font-size:13;" transform="matrix(1 0 0 1 776 1989)">can be adjusted by modifying the x-location of the margin guidelines.</text>
  <text style="stroke:none;fill:black;font-family:sans-serif;font-size:13;" transform="matrix(1 0 0 1 776 2007)">Modifications are automatically applied proportionally to all</text>
  <text style="stroke:none;fill:black;font-family:sans-serif;font-size:13;" transform="matrix(1 0 0 1 776 2025)">scales and weights.</text>
  <g transform="matrix(0.2 0 0 0.2 1289 1933)">
   <path d="m14.209 9.32617 8.49609 8.54492c4.29688 4.3457 9.22852 4.05273 13.8672-1.07422l53.4668-58.9355-4.83398-4.88281-53.0762 58.3984c-1.75781 2.00195-3.41797 2.49023-5.76172 0.146484l-5.85938-5.81055c-2.34375-2.29492-1.80664-4.00391 0.195312-5.81055l57.373-54.0039-4.88281-4.83398-57.959 54.4434c-4.93164 4.58984-5.32227 9.47266-1.02539 13.8184Zm32.0801-90.9668c-2.09961 2.05078-2.24609 4.93164-1.07422 6.88477 1.17188 1.80664 3.4668 2.97852 6.68945 2.14844 7.32422-1.70898 14.9414-2.00195 22.0703 2.68555l-2.92969 7.27539c-1.70898 4.15039-0.830078 7.08008 1.85547 9.81445l11.4746 11.5723c2.44141 2.44141 4.49219 2.53906 7.32422 2.05078l5.32227-0.976562 3.32031 3.36914-0.195312 2.7832c-0.195312 2.49023 0.439453 4.39453 2.88086 6.78711l3.80859 3.71094c2.39258 2.39258 5.46875 2.53906 7.8125 0.195312l14.5508-14.5996c2.34375-2.34375 2.24609-5.32227-0.146484-7.71484l-3.85742-3.80859c-2.39258-2.39258-4.24805-3.17383-6.64062-2.97852l-2.88086 0.244141-3.22266-3.17383 1.2207-5.61523c0.634766-2.83203-0.146484-5.0293-3.07617-7.95898l-10.9863-10.9375c-16.6992-16.6016-38.8672-16.2109-53.3203-1.75781Zm7.4707 1.85547c12.1582-8.88672 28.6133-7.37305 39.7461 3.75977l12.1582 12.0605c1.17188 1.17188 1.36719 2.09961 1.02539 3.80859l-1.61133 7.42188 7.51953 7.42188 4.93164-0.292969c1.26953-0.0488281 1.66016 0.0488281 2.63672 1.02539l2.88086 2.88086-12.207 12.207-2.88086-2.88086c-0.976562-0.976562-1.12305-1.36719-1.07422-2.68555l0.341797-4.88281-7.4707-7.42188-7.61719 1.26953c-1.61133 0.341797-2.34375 0.195312-3.56445-0.976562l-10.0098-10.0098c-1.26953-1.17188-1.41602-2.00195-0.634766-3.85742l4.39453-10.4492c-7.8125-7.27539-17.9688-10.4004-28.125-7.42188-0.78125 0.195312-1.07422-0.439453-0.439453-0.976562Z"/>
  </g>
  <text style="stroke:none;fill:black;font-family:sans-serif;font-size:13;font-weight:bold;" transform="matrix(1 0 0 1 1289 1953)">Exporting</text>
  <text style="stroke:none;fill:black;font-family:sans-serif;font-size:13;" transform="matrix(1 0 0 1 1289 1971)">Symbols should be outlined when exporting to ensure the</text>
  <text style="stroke:none;fill:black;font-family:sans-serif;font-size:13;" transform="matrix(1 0 0 1 1289 1989)">design is preserved when submitting to Xcode.</text>
  <text id="template-version" style="stroke:none;fill:black;font-family:sans-serif;font-size:13;text-anchor:end;" transform="matrix(1 0 0 1 3036 1933)">Template v.6.0</text>
  <text style="stroke:none;fill:black;font-family:sans-serif;font-size:13;text-anchor:end;" transform="matrix(1 0 0 1 3036 1951)">Requires Xcode 16 or greater</text>
  <text id="descriptive-name" style="stroke:none;fill:black;font-family:sans-serif;font-size:13;text-anchor:end;" transform="matrix(1 0 0 1 3036 1969)">Generated from snapchat-square</text>
  <text style="stroke:none;fill:black;font-family:sans-serif;font-size:13;text-anchor:end;" transform="matrix(1 0 0 1 3036 1987)">Typeset at 100.0 points</text>
  <text style="stroke:none;fill:black;font-family:sans-serif;font-size:13;" transform="matrix(1 0 0 1 263 726)">Small</text>
  <text style="stroke:none;fill:black;font-family:sans-serif;font-size:13;" transform="matrix(1 0 0 1 263 1156)">Medium</text>
  <text style="stroke:none;fill:black;font-family:sans-serif;font-size:13;" transform="matrix(1 0 0 1 263 1586)">Large</text>
 </g>
 <g id="Guides">
  <g id="H-reference" style="fill:#27AAE1;stroke:none;" transform="matrix(1 0 0 1 339 696)">
   <path d="M0.993654 0L3.63775 0L29.3281-67.1323L30.0303-67.1323L30.0303-70.459L28.1226-70.459ZM11.6885-24.4799L46.9815-24.4799L46.2315-26.7285L12.4385-26.7285ZM55.1196 0L57.7637 0L30.6382-70.459L29.4326-70.459L29.4326-67.1323Z"/>
  </g>
  <line id="Baseline-S" style="fill:none;stroke:#27AAE1;opacity:1;stroke-width:0.5;" x1="263" x2="3036" y1="696" y2="696"/>
  <line id="Capline-S" style="fill:none;stroke:#27AAE1;opacity:1;stroke-width:0.5;" x1="263" x2="3036" y1="625.541" y2="625.541"/>
  <g id="H-reference" style="fill:#27AAE1;stroke:none;" transform="matrix(1 0 0 1 339 1126)">
   <path d="M0.993654 0L3.63775 0L29.3281-67.1323L30.0303-67.1323L30.0303-70.459L28.1226-70.459ZM11.6885-24.4799L46.9815-24.4799L46.2315-26.7285L12.4385-26.7285ZM55.1196 0L57.7637 0L30.6382-70.459L29.4326-70.459L29.4326-67.1323Z"/>
  </g>
  <line id="Baseline-M" style="fill:none;stroke:#27AAE1;opacity:1;stroke-width:0.5;" x1="263" x2="3036" y1="1126" y2="1126"/>
  <line id="Capline-M" style="fill:none;stroke:#27AAE1;opacity:1;stroke-width:0.5;" x1="263" x2="3036" y1="1055.54" y2="1055.54"/>
  <g id="H-reference" style="fill:#27AAE1;stroke:none;" transform="matrix(1 0 0 1 339 1556)">
   <path d="M0.993654 0L3.63775 0L29.3281-67.1323L30.0303-67.1323L30.0303-70.459L28.1226-70.459ZM11.6885-24.4799L46.9815-24.4799L46.2315-26.7285L12.4385-26.7285ZM55.1196 0L57.7637 0L30.6382-70.459L29.4326-70.459L29.4326-67.1323Z"/>
  </g>
  <line id="Baseline-L" style="fill:none;stroke:#27AAE1;opacity:1;stroke-width:0.5;" x1="263" x2="3036" y1="1556" y2="1556"/>
  <line id="Capline-L" style="fill:none;stroke:#27AAE1;opacity:1;stroke-width:0.5;" x1="263" x2="3036" y1="1485.54" y2="1485.54"/>
  <line id="right-margin-Black-S" style="fill:none;stroke:#00AEEF;stroke-width:0.5;opacity:1.0;" x1="2981.9" x2="2981.9" y1="600.785" y2="720.121"/>
  <line id="left-margin-Black-S" style="fill:none;stroke:#00AEEF;stroke-width:0.5;opacity:1.0;" x1="2884.9" x2="2884.9" y1="600.785" y2="720.121"/>
  <line id="right-margin-Regular-S" style="fill:none;stroke:#00AEEF;stroke-width:0.5;opacity:1.0;" x1="1495.64" x2="1495.64" y1="600.785" y2="720.121"/>
  <line id="left-margin-Regular-S" style="fill:none;stroke:#00AEEF;stroke-width:0.5;opacity:1.0;" x1="1404.04" x2="1404.04" y1="600.785" y2="720.121"/>
  <line id="right-margin-Ultralight-S" style="fill:none;stroke:#00AEEF;stroke-width:0.5;opacity:1.0;" x1="602.561" x2="602.561" y1="600.785" y2="720.121"/>
  <line id="left-margin-Ultralight-S" style="fill:none;stroke:#00AEEF;stroke-width:0.5;opacity:1.0;" x1="516.861" x2="516.861" y1="600.785" y2="720.121"/>
 </g>
 <g id="Symbols">
  <g id="Black-S" transform="matrix(1 0 0 1 2884.9 696)">
   <path class="SFSymbolsPreviewWireframe" d="M87-46.5801L87-23.8301C87 1.32611 85.0312 3.29486 59.875 3.29486L37.125 3.29486C11.9688 3.29486 10 1.32611 10-23.8301L10-46.5801C10-71.7364 11.9688-73.7051 37.125-73.7051L59.875-73.7051C85.0312-73.7051 87-71.7364 87-46.5801ZM73-17.7051L73-52.7051C73-59.197 72.4919-59.7051 66-59.7051L31-59.7051C24.5081-59.7051 24-59.197 24-52.7051L24-17.7051C24-11.2132 24.5081-10.7051 31-10.7051L66-10.7051C72.4919-10.7051 73-11.2132 73-17.7051ZM66.1646-27.0757C66.4116-26.2837 66.3-25.4512 65.5425-24.6848C64.3345-23.4623 62.2261-23.1573 61.9597-22.9056C61.6931-22.6537 61.5759-21.6971 60.7258-21.1506C59.876-20.6039 58.8274-20.6182 58.2898-20.5771C56.126-20.4123 55.5591-20.3123 54.21-19.4512C53.7742-19.1731 51.6335-17.7051 48.5-17.7051C45.3665-17.7051 43.2258-19.1731 42.79-19.4512C41.4409-20.3123 40.874-20.4123 38.7102-20.5771C38.1726-20.6182 37.124-20.6039 36.2742-21.1506C35.4241-21.6971 35.3069-22.6537 35.0403-22.9056C34.7739-23.1573 32.6655-23.4623 31.4575-24.6848C30.7-25.4512 30.5884-26.2837 30.8354-27.0757C31.1604-28.1172 32.2998-28.478 32.9587-28.855C36.5671-30.92 37.145-32.8934 37.3159-33.1855C37.385-33.3034 37.5547-33.6954 37.1707-34.0087C36.8159-34.298 34.9231-35.2184 34.1265-36.6047C33.7129-37.3242 33.6042-38.4208 33.9771-39.1867C34.5732-40.4117 35.5618-41.1259 36.9309-41.1259C37.4321-41.1259 37.9387-40.9973 38.0117-40.9799C38.0388-41.7698 38.0408-42.6848 38.0916-43.5098C38.304-46.9578 41.198-52.7051 48.5-52.7051C55.802-52.7051 58.696-46.9578 58.9084-43.5098C58.9592-42.6848 58.9612-41.7698 58.9883-40.9799C59.0613-40.9973 59.5679-41.1259 60.0691-41.1259C61.4382-41.1259 62.4268-40.4117 63.0229-39.1867C63.3958-38.4208 63.2871-37.3242 62.8735-36.6047C62.0769-35.2184 60.1841-34.298 59.8293-34.0087C59.4453-33.6954 59.615-33.3034 59.6841-33.1855C59.855-32.8934 60.4329-30.92 64.0413-28.855C64.7002-28.478 65.8396-28.1172 66.1646-27.0757Z"/>
  </g>
  <g id="Regular-S" transform="matrix(1 0 0 1 1404.04 696)">
   <path class="SFSymbolsPreviewWireframe" d="M81.6-49.9793L81.6-20.5284C81.6-0.983521 80.0703 0.546082 60.5254 0.546082L31.0746 0.546082C11.5297 0.546082 10-0.983521 10-20.5284L10-49.9793C10-69.5244 11.5297-71.0539 31.0746-71.0539L60.5254-71.0539C80.0703-71.0539 81.6-69.5244 81.6-49.9793ZM74.4399-15.864L74.4399-54.6439C74.4399-63.2225 73.7686-63.8939 65.1898-63.8939L26.41-63.8939C17.8313-63.8939 17.1599-63.2225 17.1599-54.6439L17.1599-15.864C17.1599-7.28528 17.8313-6.61389 26.41-6.61389L65.1898-6.61389C73.7686-6.61389 74.4399-7.28528 74.4399-15.864ZM65.675-26.1072C65.9531-25.216 65.8274-24.2794 64.9752-23.4171C63.616-22.0416 61.2438-21.6985 60.944-21.4152C60.6442-21.1318 60.5122-20.0555 59.5558-19.4406C58.5995-18.8256 57.4197-18.8415 56.8149-18.7953C54.3801-18.6099 53.7426-18.4973 52.2245-17.5285C51.7341-17.2156 49.3258-15.5639 45.7999-15.5639C42.2742-15.5639 39.8657-17.2156 39.3754-17.5285C37.8574-18.4973 37.2197-18.6099 34.785-18.7953C34.1802-18.8415 33.0004-18.8256 32.0441-19.4406C31.0878-20.0555 30.9558-21.1318 30.656-21.4152C30.3562-21.6985 27.984-22.0416 26.6248-23.4171C25.7726-24.2794 25.6467-25.216 25.9248-26.1072C26.2905-27.2791 27.5725-27.6849 28.314-28.1091C32.3739-30.4326 33.0239-32.6529 33.2163-32.9816C33.2938-33.1143 33.4849-33.5552 33.0529-33.9078C32.6538-34.2333 30.5239-35.2688 29.6277-36.8286C29.1625-37.6381 29.0402-38.8721 29.4596-39.7338C30.1304-41.1121 31.2426-41.9156 32.7831-41.9156C33.347-41.9156 33.917-41.7709 33.9991-41.7514C34.0295-42.6401 34.032-43.6696 34.0891-44.5979C34.3278-48.4774 37.5841-54.9439 45.7999-54.9439C54.0159-54.9439 57.2721-48.4774 57.5109-44.5979C57.568-43.6696 57.5704-42.6401 57.6008-41.7514C57.683-41.7709 58.2529-41.9156 58.8168-41.9156C60.3574-41.9156 61.4696-41.1121 62.1404-39.7338C62.5598-38.8721 62.4374-37.6381 61.9723-36.8286C61.0759-35.2688 58.946-34.2333 58.5471-33.9078C58.115-33.5552 58.306-33.1143 58.3837-32.9816C58.5761-32.6529 59.2261-30.4326 63.286-28.1091C64.0275-27.6849 65.3094-27.2791 65.675-26.1072Z"/>
  </g>
  <g id="Ultralight-S" transform="matrix(1 0 0 1 516.861 696)">
   <path class="SFSymbolsPreviewWireframe" d="M75.7-51.0865L75.7-19.3162C75.7-3.63141 74.4725-2.40387 58.7877-2.40387L26.9124-2.40387C11.2275-2.40387 10-3.63141 10-19.3162L10-51.1915C10-66.8764 11.2275-68.1039 26.9124-68.1039L58.6827-68.1039C74.4649-68.1039 75.7-66.8688 75.7-51.0865ZM73.51-17.7339L73.51-52.7739C73.51-64.9602 72.5563-65.9139 60.37-65.9139L25.33-65.9139C13.1437-65.9139 12.19-64.9602 12.19-52.7739L12.19-17.7339C12.19-5.54761 13.1437-4.59387 25.33-4.59387L60.37-4.59387C72.5563-4.59387 73.51-5.54761 73.51-17.7339ZM64.6049-25.8176C64.9092-24.8421 64.7716-23.8169 63.8388-22.873C62.351-21.3675 59.7545-20.9919 59.4263-20.6818C59.0981-20.3716 58.9537-19.1935 57.9069-18.5204C56.8602-17.8472 55.5688-17.8647 54.9067-17.8142C52.2417-17.6112 51.5438-17.488 49.8822-16.4276C49.3455-16.085 46.7093-14.232 42.85-14.232C38.9907-14.232 36.3546-16.085 35.8179-16.4276C34.1563-17.488 33.4583-17.6112 30.7933-17.8142C30.1313-17.8647 28.8399-17.8472 27.7932-18.5204C26.7463-19.1935 26.6019-20.3716 26.2738-20.6818C25.9456-20.9919 23.3491-21.3675 21.8612-22.873C20.9285-23.8169 20.7908-24.8421 21.0952-25.8176C21.4954-27.1003 22.8986-27.5445 23.7101-28.0089C28.1541-30.552 28.9009-32.9639 29.0762-33.3421C29.2527-33.7232 29.3702-33.97 28.8973-34.3559C28.4606-34.7123 26.1292-35.8457 25.1482-37.553C24.639-38.4391 24.5051-39.7897 24.9642-40.733C25.6984-42.2416 26.9157-43.1211 28.6021-43.1211C29.2193-43.1211 29.8432-42.9628 29.933-42.9413C29.9664-43.9141 29.969-45.041 30.0316-46.0571C30.2928-50.3035 33.7961-57.3816 42.85-57.3816C51.9039-57.3816 55.4072-50.3035 55.6685-46.0571C55.7311-45.041 55.7336-43.9141 55.767-42.9413C55.8569-42.9628 56.4808-43.1211 57.098-43.1211C58.7843-43.1211 60.0016-42.2416 60.7358-40.733C61.1949-39.7897 61.061-38.4391 60.5519-37.553C59.5709-35.8457 57.2394-34.7123 56.8027-34.3559C56.3298-33.97 56.4473-33.7232 56.6239-33.3421C56.7991-32.9639 57.546-30.552 61.9899-28.0089C62.8014-27.5445 64.2046-27.1003 64.6049-25.8176Z"/>
  </g>
 </g>
</svg>
