<?xml version="1.0" encoding="UTF-8"?>
<svg height="600" width="800" xmlns="http://www.w3.org/2000/svg" xmlns:xlink="http://www.w3.org/1999/xlink">
    <g id="Notes" font-family="'LucidaGrande', 'Lucida Grande', sans-serif" font-size="13">
        <rect fill="white" height="600.0" width="800.0" x="0.0" y="0.0" />
        <g font-size="13">
            <text x="18.0" y="176.0">Small</text>
            <text x="18.0" y="376.0">Medium</text>
            <text x="18.0" y="576.0">Large</text>
        </g>
        <g font-size="9">
            <text x="250.0" y="30.0">Ultralight</text>
            <text x="450.0" y="30.0">Regular</text>
            <text x="650.0" y="30.0">Black</text>
            <text id="template-version" fill="#505050" text-anchor="end" x="785.0" y="575.0">Template v.3.0</text>
            <a href="https://wangchujiang.com/#/app">
                <text fill="#505050" text-anchor="end" x="785.0" y="590.0">https://wangchujiang.com/#/app</text>
            </a>
        </g>
    </g>
    <g id="Guides" stroke="rgb(39, 170, 225)" stroke-width="0.5">
        <path id="Capline-S" d="M18,76 l800,0" />
        <path id="H-reference" d="M85,145.755 L87.685,145.755 L113.369,79.287 L114.052,79.287 L114.052,76 L112.148,76 L85,145.755 Z M95.693,121.536 L130.996,121.536 L130.263,119.313 L96.474,119.313 L95.693,121.536 Z M139.15,145.755 L141.787,145.755 L114.638,76 L113.466,76 L113.466,79.287 L139.15,145.755 Z" stroke="none" />
        <path id="Baseline-S" d="M18,146 l800,0" />
        <path id="left-margin-Ultralight-S" d="M220.258,56 l0,110" />
        <path id="right-margin-Ultralight-S" d="M309.742,56 l0,110" />
        <path id="left-margin-Regular-S" d="M420.258,56 l0,110" />
        <path id="right-margin-Regular-S" d="M509.742,56 l0,110" />
        <path id="left-margin-Black-S" d="M620.258,56 l0,110" />
        <path id="right-margin-Black-S" d="M709.742,56 l0,110" />
        <path id="Capline-M" d="M18,276 l800,0" />
        <path id="Baseline-M" d="M18,346 l800,0" />
        <path id="Capline-L" d="M18,476 l800,0" />
        <path id="Baseline-L" d="M18,546 l800,0" />
    </g>
    <g id="Symbols">
        <g id="Ultralight-S">
            <path d="M265,76 C248.824,76 230.258,79.977 230.258,111 C230.258,142.023 248.824,146 265,146 C281.176,146 299.742,142.023 299.742,111 C299.742,79.977 281.176,76 265,76 Z M261.818,94.528 C261.818,92.768 263.24,91.346 265,91.346 C266.76,91.346 268.182,92.768 268.182,94.528 L268.182,112.556 C268.182,114.315 266.76,115.738 265,115.738 C263.24,115.738 261.818,114.315 261.818,112.556 L261.818,94.528 Z M265,130.199 C262.372,130.199 260.24,128.067 260.24,125.439 C260.24,122.811 262.372,120.679 265,120.679 C267.628,120.679 269.76,122.811 269.76,125.439 C269.76,128.067 267.628,130.199 265,130.199 Z" />
        </g>
        <g id="Regular-S">
            <path d="M465,76 C448.824,76 430.258,79.977 430.258,111 C430.258,142.023 448.824,146 465,146 C481.176,146 499.742,142.023 499.742,111 C499.742,79.977 481.176,76 465,76 Z M461.818,94.528 C461.818,92.768 463.24,91.346 465,91.346 C466.76,91.346 468.182,92.768 468.182,94.528 L468.182,112.556 C468.182,114.315 466.76,115.738 465,115.738 C463.24,115.738 461.818,114.315 461.818,112.556 L461.818,94.528 Z M465,130.199 C462.372,130.199 460.24,128.067 460.24,125.439 C460.24,122.811 462.372,120.679 465,120.679 C467.628,120.679 469.76,122.811 469.76,125.439 C469.76,128.067 467.628,130.199 465,130.199 Z" />
        </g>
        <g id="Black-S">
            <path d="M665,76 C648.824,76 630.258,79.977 630.258,111 C630.258,142.023 648.824,146 665,146 C681.176,146 699.742,142.023 699.742,111 C699.742,79.977 681.176,76 665,76 Z M661.818,94.528 C661.818,92.768 663.24,91.346 665,91.346 C666.76,91.346 668.182,92.768 668.182,94.528 L668.182,112.556 C668.182,114.315 666.76,115.738 665,115.738 C663.24,115.738 661.818,114.315 661.818,112.556 L661.818,94.528 Z M665,130.199 C662.372,130.199 660.24,128.067 660.24,125.439 C660.24,122.811 662.372,120.679 665,120.679 C667.628,120.679 669.76,122.811 669.76,125.439 C669.76,128.067 667.628,130.199 665,130.199 Z" />
        </g>
    </g>
</svg>