<?xml version="1.0" encoding="UTF-8"?>
<svg height="600" width="800" xmlns="http://www.w3.org/2000/svg" xmlns:xlink="http://www.w3.org/1999/xlink">
    <g id="Notes" font-family="'LucidaGrande', 'Lucida Grande', sans-serif" font-size="13">
        <rect fill="white" height="600.0" width="800.0" x="0.0" y="0.0" />
        <g font-size="13">
            <text x="18.0" y="176.0">Small</text>
            <text x="18.0" y="376.0">Medium</text>
            <text x="18.0" y="576.0">Large</text>
        </g>
        <g font-size="9">
            <text x="250.0" y="30.0">Ultralight</text>
            <text x="450.0" y="30.0">Regular</text>
            <text x="650.0" y="30.0">Black</text>
            <text id="template-version" fill="#505050" text-anchor="end" x="785.0" y="575.0">Template v.3.0</text>
            <a href="https://wangchujiang.com/#/app">
                <text fill="#505050" text-anchor="end" x="785.0" y="590.0">https://wangchujiang.com/#/app</text>
            </a>
        </g>
    </g>
    <g id="Guides" stroke="rgb(39, 170, 225)" stroke-width="0.5">
        <path id="Capline-S" d="M18,76 l800,0" />
        <path id="H-reference" d="M85,145.755 L87.685,145.755 L113.369,79.287 L114.052,79.287 L114.052,76 L112.148,76 L85,145.755 Z M95.693,121.536 L130.996,121.536 L130.263,119.313 L96.474,119.313 L95.693,121.536 Z M139.15,145.755 L141.787,145.755 L114.638,76 L113.466,76 L113.466,79.287 L139.15,145.755 Z" stroke="none" />
        <path id="Baseline-S" d="M18,146 l800,0" />
        <path id="left-margin-Ultralight-S" d="M220,56 l0,110" />
        <path id="right-margin-Ultralight-S" d="M310,56 l0,110" />
        <path id="left-margin-Regular-S" d="M420,56 l0,110" />
        <path id="right-margin-Regular-S" d="M510,56 l0,110" />
        <path id="left-margin-Black-S" d="M620,56 l0,110" />
        <path id="right-margin-Black-S" d="M710,56 l0,110" />
        <path id="Capline-M" d="M18,276 l800,0" />
        <path id="Baseline-M" d="M18,346 l800,0" />
        <path id="Capline-L" d="M18,476 l800,0" />
        <path id="Baseline-L" d="M18,546 l800,0" />
    </g>
    <g id="Symbols">
        <g id="Ultralight-S">
            <path d="M265,110.071 C266.508,109.174 268.891,107.685 271.033,106.03 C273.406,104.2 275.245,102.473 276.372,101.35 C273.944,100.901 269.674,100.265 265,100.265 C260.396,100.265 256.088,100.907 253.631,101.353 C254.758,102.476 256.594,104.204 258.964,106.03 C261.112,107.688 263.492,109.177 264.997,110.071 Z" />
            <path d="M274.921,111.07 C271.068,114.042 266.712,116.438 266.527,116.536 C265.2,117.233 263.95,116.797 263.473,116.536 C263.288,116.435 258.932,114.042 255.079,111.07 C254.023,110.255 253.068,109.46 252.209,108.715 C252.165,109.457 252.117,110.205 252.117,111 C252.117,115.095 252.817,118.608 253.31,120.584 C255.731,121.032 260.275,121.735 264.997,121.735 C269.878,121.735 274.323,121.042 276.684,120.596 C277.177,118.636 277.877,115.127 277.877,111.003 C277.877,110.208 277.832,109.46 277.788,108.719 C276.929,109.463 275.974,110.259 274.918,111.073 Z" />
            <path d="M265,76 C248.703,76 230,79.977 230,111 C230,142.023 248.703,146 265,146 C281.297,146 300,142.023 300,111 C300,79.977 281.297,76 265,76 Z M282.22,124.364 C281.864,125.382 281.017,126.152 279.967,126.406 C279.684,126.473 272.929,128.096 265,128.096 C257.338,128.096 250.354,126.48 250.061,126.413 C248.999,126.165 248.136,125.388 247.78,124.357 C247.697,124.119 245.756,118.423 245.756,111 C245.756,103.577 247.697,97.881 247.78,97.643 C248.133,96.615 248.989,95.842 250.045,95.587 C250.335,95.52 257.195,93.901 265,93.901 C272.945,93.901 279.684,95.524 279.967,95.59 C281.011,95.845 281.857,96.609 282.214,97.624 C282.296,97.859 284.244,103.462 284.244,111 C284.244,118.471 282.3,124.125 282.217,124.364 Z" />
        </g>
        <g id="Regular-S">
            <path d="M465,110.071 C466.508,109.174 468.891,107.685 471.033,106.03 C473.406,104.2 475.245,102.473 476.372,101.35 C473.944,100.901 469.674,100.265 465,100.265 C460.396,100.265 456.088,100.907 453.631,101.353 C454.758,102.476 456.594,104.204 458.964,106.03 C461.112,107.688 463.492,109.177 464.997,110.071 Z" />
            <path d="M474.921,111.07 C471.068,114.042 466.712,116.438 466.527,116.536 C465.2,117.233 463.95,116.797 463.473,116.536 C463.288,116.435 458.932,114.042 455.079,111.07 C454.023,110.255 453.068,109.46 452.209,108.715 C452.165,109.457 452.117,110.205 452.117,111 C452.117,115.095 452.817,118.608 453.31,120.584 C455.731,121.032 460.275,121.735 464.997,121.735 C469.878,121.735 474.323,121.042 476.684,120.596 C477.177,118.636 477.877,115.127 477.877,111.003 C477.877,110.208 477.832,109.46 477.788,108.719 C476.929,109.463 475.974,110.259 474.918,111.073 Z" />
            <path d="M465,76 C448.703,76 430,79.977 430,111 C430,142.023 448.703,146 465,146 C481.297,146 500,142.023 500,111 C500,79.977 481.297,76 465,76 Z M482.22,124.364 C481.864,125.382 481.017,126.152 479.967,126.406 C479.684,126.473 472.929,128.096 465,128.096 C457.338,128.096 450.354,126.48 450.061,126.413 C448.999,126.165 448.136,125.388 447.78,124.357 C447.697,124.119 445.756,118.423 445.756,111 C445.756,103.577 447.697,97.881 447.78,97.643 C448.133,96.615 448.989,95.842 450.045,95.587 C450.335,95.52 457.195,93.901 465,93.901 C472.945,93.901 479.684,95.524 479.967,95.59 C481.011,95.845 481.857,96.609 482.214,97.624 C482.296,97.859 484.244,103.462 484.244,111 C484.244,118.471 482.3,124.125 482.217,124.364 Z" />
        </g>
        <g id="Black-S">
            <path d="M665,110.071 C666.508,109.174 668.891,107.685 671.033,106.03 C673.406,104.2 675.245,102.473 676.372,101.35 C673.944,100.901 669.674,100.265 665,100.265 C660.396,100.265 656.088,100.907 653.631,101.353 C654.758,102.476 656.594,104.204 658.964,106.03 C661.112,107.688 663.492,109.177 664.997,110.071 Z" />
            <path d="M674.921,111.07 C671.068,114.042 666.712,116.438 666.527,116.536 C665.2,117.233 663.95,116.797 663.473,116.536 C663.288,116.435 658.932,114.042 655.079,111.07 C654.023,110.255 653.068,109.46 652.209,108.715 C652.165,109.457 652.117,110.205 652.117,111 C652.117,115.095 652.817,118.608 653.31,120.584 C655.731,121.032 660.275,121.735 664.997,121.735 C669.878,121.735 674.323,121.042 676.684,120.596 C677.177,118.636 677.877,115.127 677.877,111.003 C677.877,110.208 677.832,109.46 677.788,108.719 C676.929,109.463 675.974,110.259 674.918,111.073 Z" />
            <path d="M665,76 C648.703,76 630,79.977 630,111 C630,142.023 648.703,146 665,146 C681.297,146 700,142.023 700,111 C700,79.977 681.297,76 665,76 Z M682.22,124.364 C681.864,125.382 681.017,126.152 679.967,126.406 C679.684,126.473 672.929,128.096 665,128.096 C657.338,128.096 650.354,126.48 650.061,126.413 C648.999,126.165 648.136,125.388 647.78,124.357 C647.697,124.119 645.756,118.423 645.756,111 C645.756,103.577 647.697,97.881 647.78,97.643 C648.133,96.615 648.989,95.842 650.045,95.587 C650.335,95.52 657.195,93.901 665,93.901 C672.945,93.901 679.684,95.524 679.967,95.59 C681.011,95.845 681.857,96.609 682.214,97.624 C682.296,97.859 684.244,103.462 684.244,111 C684.244,118.471 682.3,124.125 682.217,124.364 Z" />
        </g>
    </g>
</svg>