<?xml version="1.0" encoding="UTF-8"?>
<!--Generator: Apple Native CoreSVG 341-->
<!DOCTYPE svg
PUBLIC "-//W3C//DTD SVG 1.1//EN"
       "http://www.w3.org/Graphics/SVG/1.1/DTD/svg11.dtd">
<svg version="1.1" xmlns="http://www.w3.org/2000/svg" xmlns:xlink="http://www.w3.org/1999/xlink" viewBox="0 0 3300 2200">
 <!--glyph: "", point size: 100.0, font version: "20.0d10e1", template writer version: "138.0.0"-->
 <style>.SFSymbolsPreviewWireframe {fill:none;opacity:1.0;stroke:black;stroke-width:0.5}
</style>
 <g id="Notes">
  <rect height="2200" id="artboard" style="fill:white;opacity:1" width="3300" x="0" y="0"/>
  <line style="fill:none;stroke:black;opacity:1;stroke-width:0.5;" x1="263" x2="3036" y1="292" y2="292"/>
  <text style="stroke:none;fill:black;font-family:sans-serif;font-size:13;font-weight:bold;" transform="matrix(1 0 0 1 263 322)">Weight/Scale Variations</text>
  <text style="stroke:none;fill:black;font-family:sans-serif;font-size:13;text-anchor:middle;" transform="matrix(1 0 0 1 559.711 322)">Ultralight</text>
  <text style="stroke:none;fill:black;font-family:sans-serif;font-size:13;text-anchor:middle;" transform="matrix(1 0 0 1 856.422 322)">Thin</text>
  <text style="stroke:none;fill:black;font-family:sans-serif;font-size:13;text-anchor:middle;" transform="matrix(1 0 0 1 1153.13 322)">Light</text>
  <text style="stroke:none;fill:black;font-family:sans-serif;font-size:13;text-anchor:middle;" transform="matrix(1 0 0 1 1449.84 322)">Regular</text>
  <text style="stroke:none;fill:black;font-family:sans-serif;font-size:13;text-anchor:middle;" transform="matrix(1 0 0 1 1746.56 322)">Medium</text>
  <text style="stroke:none;fill:black;font-family:sans-serif;font-size:13;text-anchor:middle;" transform="matrix(1 0 0 1 2043.27 322)">Semibold</text>
  <text style="stroke:none;fill:black;font-family:sans-serif;font-size:13;text-anchor:middle;" transform="matrix(1 0 0 1 2339.98 322)">Bold</text>
  <text style="stroke:none;fill:black;font-family:sans-serif;font-size:13;text-anchor:middle;" transform="matrix(1 0 0 1 2636.69 322)">Heavy</text>
  <text style="stroke:none;fill:black;font-family:sans-serif;font-size:13;text-anchor:middle;" transform="matrix(1 0 0 1 2933.4 322)">Black</text>
  <line style="fill:none;stroke:black;opacity:1;stroke-width:0.5;" x1="263" x2="3036" y1="1903" y2="1903"/>
  <g transform="matrix(0.2 0 0 0.2 263 1933)">
   <path d="m46.2402 4.15039c21.7773 0 39.4531-17.627 39.4531-39.4043s-17.6758-39.4043-39.4531-39.4043c-21.7285 0-39.4043 17.627-39.4043 39.4043s17.6758 39.4043 39.4043 39.4043Zm0-7.42188c-17.6758 0-31.9336-14.3066-31.9336-31.9824s14.2578-31.9824 31.9336-31.9824 31.9824 14.3066 31.9824 31.9824-14.3066 31.9824-31.9824 31.9824Zm-17.9688-31.9824c0 2.14844 1.51367 3.61328 3.75977 3.61328h10.498v10.5957c0 2.19727 1.46484 3.71094 3.61328 3.71094 2.24609 0 3.71094-1.51367 3.71094-3.71094v-10.5957h10.5957c2.19727 0 3.71094-1.46484 3.71094-3.61328 0-2.19727-1.51367-3.71094-3.71094-3.71094h-10.5957v-10.5469c0-2.24609-1.46484-3.75977-3.71094-3.75977-2.14844 0-3.61328 1.51367-3.61328 3.75977v10.5469h-10.498c-2.24609 0-3.75977 1.51367-3.75977 3.71094Z"/>
  </g>
  <g transform="matrix(0.2 0 0 0.2 281.506 1933)">
   <path d="m58.5449 14.5508c27.4902 0 49.8047-22.3145 49.8047-49.8047s-22.3145-49.8047-49.8047-49.8047-49.8047 22.3145-49.8047 49.8047 22.3145 49.8047 49.8047 49.8047Zm0-8.30078c-22.9492 0-41.5039-18.5547-41.5039-41.5039s18.5547-41.5039 41.5039-41.5039 41.5039 18.5547 41.5039 41.5039-18.5547 41.5039-41.5039 41.5039Zm-22.6562-41.5039c0 2.39258 1.66016 4.00391 4.15039 4.00391h14.3555v14.4043c0 2.44141 1.66016 4.15039 4.05273 4.15039 2.44141 0 4.15039-1.66016 4.15039-4.15039v-14.4043h14.4043c2.44141 0 4.15039-1.61133 4.15039-4.00391 0-2.44141-1.70898-4.15039-4.15039-4.15039h-14.4043v-14.3555c0-2.49023-1.70898-4.19922-4.15039-4.19922-2.39258 0-4.05273 1.70898-4.05273 4.19922v14.3555h-14.3555c-2.49023 0-4.15039 1.70898-4.15039 4.15039Z"/>
  </g>
  <g transform="matrix(0.2 0 0 0.2 304.924 1933)">
   <path d="m74.8535 28.3203c35.1074 0 63.623-28.4668 63.623-63.5742s-28.5156-63.623-63.623-63.623-63.5742 28.5156-63.5742 63.623 28.4668 63.5742 63.5742 63.5742Zm0-9.08203c-30.127 0-54.4922-24.3652-54.4922-54.4922s24.3652-54.4922 54.4922-54.4922 54.4922 24.3652 54.4922 54.4922-24.3652 54.4922-54.4922 54.4922Zm-28.8574-54.4922c0 2.58789 1.85547 4.39453 4.58984 4.39453h19.7266v19.7754c0 2.68555 1.85547 4.58984 4.44336 4.58984 2.68555 0 4.54102-1.85547 4.54102-4.58984v-19.7754h19.7754c2.68555 0 4.58984-1.80664 4.58984-4.39453 0-2.73438-1.85547-4.58984-4.58984-4.58984h-19.7754v-19.7266c0-2.73438-1.85547-4.63867-4.54102-4.63867-2.58789 0-4.44336 1.9043-4.44336 4.63867v19.7266h-19.7266c-2.73438 0-4.58984 1.85547-4.58984 4.58984Z"/>
  </g>
  <text style="stroke:none;fill:black;font-family:sans-serif;font-size:13;font-weight:bold;" transform="matrix(1 0 0 1 263 1953)">Design Variations</text>
  <text style="stroke:none;fill:black;font-family:sans-serif;font-size:13;" transform="matrix(1 0 0 1 263 1971)">Symbols are supported in up to nine weights and three scales.</text>
  <text style="stroke:none;fill:black;font-family:sans-serif;font-size:13;" transform="matrix(1 0 0 1 263 1989)">For optimal layout with text and other symbols, vertically align</text>
  <text style="stroke:none;fill:black;font-family:sans-serif;font-size:13;" transform="matrix(1 0 0 1 263 2007)">symbols with the adjacent text.</text>
  <line style="fill:none;stroke:#00AEEF;stroke-width:0.5;opacity:1.0;" x1="776" x2="776" y1="1919" y2="1933"/>
  <g transform="matrix(0.2 0 0 0.2 776 1933)">
   <path d="m16.5527 0.78125c2.58789 0 3.85742-0.976562 4.78516-3.71094l6.29883-17.2363h28.8086l6.29883 17.2363c0.927734 2.73438 2.19727 3.71094 4.73633 3.71094 2.58789 0 4.24805-1.5625 4.24805-4.00391 0-0.830078-0.146484-1.61133-0.537109-2.63672l-22.9004-60.9863c-1.12305-2.97852-3.125-4.49219-6.25-4.49219-3.02734 0-5.07812 1.46484-6.15234 4.44336l-22.9004 61.084c-0.390625 1.02539-0.537109 1.80664-0.537109 2.63672 0 2.44141 1.5625 3.95508 4.10156 3.95508Zm13.4766-28.3691 11.8652-32.8613h0.244141l11.8652 32.8613Z"/>
  </g>
  <line style="fill:none;stroke:#00AEEF;stroke-width:0.5;opacity:1.0;" x1="792.836" x2="792.836" y1="1919" y2="1933"/>
  <text style="stroke:none;fill:black;font-family:sans-serif;font-size:13;font-weight:bold;" transform="matrix(1 0 0 1 776 1953)">Margins</text>
  <text style="stroke:none;fill:black;font-family:sans-serif;font-size:13;" transform="matrix(1 0 0 1 776 1971)">Leading and trailing margins on the left and right side of each symbol</text>
  <text style="stroke:none;fill:black;font-family:sans-serif;font-size:13;" transform="matrix(1 0 0 1 776 1989)">can be adjusted by modifying the x-location of the margin guidelines.</text>
  <text style="stroke:none;fill:black;font-family:sans-serif;font-size:13;" transform="matrix(1 0 0 1 776 2007)">Modifications are automatically applied proportionally to all</text>
  <text style="stroke:none;fill:black;font-family:sans-serif;font-size:13;" transform="matrix(1 0 0 1 776 2025)">scales and weights.</text>
  <g transform="matrix(0.2 0 0 0.2 1289 1933)">
   <path d="m14.209 9.32617 8.49609 8.54492c4.29688 4.3457 9.22852 4.05273 13.8672-1.07422l53.4668-58.9355-4.83398-4.88281-53.0762 58.3984c-1.75781 2.00195-3.41797 2.49023-5.76172 0.146484l-5.85938-5.81055c-2.34375-2.29492-1.80664-4.00391 0.195312-5.81055l57.373-54.0039-4.88281-4.83398-57.959 54.4434c-4.93164 4.58984-5.32227 9.47266-1.02539 13.8184Zm32.0801-90.9668c-2.09961 2.05078-2.24609 4.93164-1.07422 6.88477 1.17188 1.80664 3.4668 2.97852 6.68945 2.14844 7.32422-1.70898 14.9414-2.00195 22.0703 2.68555l-2.92969 7.27539c-1.70898 4.15039-0.830078 7.08008 1.85547 9.81445l11.4746 11.5723c2.44141 2.44141 4.49219 2.53906 7.32422 2.05078l5.32227-0.976562 3.32031 3.36914-0.195312 2.7832c-0.195312 2.49023 0.439453 4.39453 2.88086 6.78711l3.80859 3.71094c2.39258 2.39258 5.46875 2.53906 7.8125 0.195312l14.5508-14.5996c2.34375-2.34375 2.24609-5.32227-0.146484-7.71484l-3.85742-3.80859c-2.39258-2.39258-4.24805-3.17383-6.64062-2.97852l-2.88086 0.244141-3.22266-3.17383 1.2207-5.61523c0.634766-2.83203-0.146484-5.0293-3.07617-7.95898l-10.9863-10.9375c-16.6992-16.6016-38.8672-16.2109-53.3203-1.75781Zm7.4707 1.85547c12.1582-8.88672 28.6133-7.37305 39.7461 3.75977l12.1582 12.0605c1.17188 1.17188 1.36719 2.09961 1.02539 3.80859l-1.61133 7.42188 7.51953 7.42188 4.93164-0.292969c1.26953-0.0488281 1.66016 0.0488281 2.63672 1.02539l2.88086 2.88086-12.207 12.207-2.88086-2.88086c-0.976562-0.976562-1.12305-1.36719-1.07422-2.68555l0.341797-4.88281-7.4707-7.42188-7.61719 1.26953c-1.61133 0.341797-2.34375 0.195312-3.56445-0.976562l-10.0098-10.0098c-1.26953-1.17188-1.41602-2.00195-0.634766-3.85742l4.39453-10.4492c-7.8125-7.27539-17.9688-10.4004-28.125-7.42188-0.78125 0.195312-1.07422-0.439453-0.439453-0.976562Z"/>
  </g>
  <text style="stroke:none;fill:black;font-family:sans-serif;font-size:13;font-weight:bold;" transform="matrix(1 0 0 1 1289 1953)">Exporting</text>
  <text style="stroke:none;fill:black;font-family:sans-serif;font-size:13;" transform="matrix(1 0 0 1 1289 1971)">Symbols should be outlined when exporting to ensure the</text>
  <text style="stroke:none;fill:black;font-family:sans-serif;font-size:13;" transform="matrix(1 0 0 1 1289 1989)">design is preserved when submitting to Xcode.</text>
  <text id="template-version" style="stroke:none;fill:black;font-family:sans-serif;font-size:13;text-anchor:end;" transform="matrix(1 0 0 1 3036 1933)">Template v.6.0</text>
  <text style="stroke:none;fill:black;font-family:sans-serif;font-size:13;text-anchor:end;" transform="matrix(1 0 0 1 3036 1951)">Requires Xcode 16 or greater</text>
  <text id="descriptive-name" style="stroke:none;fill:black;font-family:sans-serif;font-size:13;text-anchor:end;" transform="matrix(1 0 0 1 3036 1969)">Generated from app-store-square-fill</text>
  <text style="stroke:none;fill:black;font-family:sans-serif;font-size:13;text-anchor:end;" transform="matrix(1 0 0 1 3036 1987)">Typeset at 100.0 points</text>
  <text style="stroke:none;fill:black;font-family:sans-serif;font-size:13;" transform="matrix(1 0 0 1 263 726)">Small</text>
  <text style="stroke:none;fill:black;font-family:sans-serif;font-size:13;" transform="matrix(1 0 0 1 263 1156)">Medium</text>
  <text style="stroke:none;fill:black;font-family:sans-serif;font-size:13;" transform="matrix(1 0 0 1 263 1586)">Large</text>
 </g>
 <g id="Guides">
  <g id="H-reference" style="fill:#27AAE1;stroke:none;" transform="matrix(1 0 0 1 339 696)">
   <path d="M0.993654 0L3.63775 0L29.3281-67.1323L30.0303-67.1323L30.0303-70.459L28.1226-70.459ZM11.6885-24.4799L46.9815-24.4799L46.2315-26.7285L12.4385-26.7285ZM55.1196 0L57.7637 0L30.6382-70.459L29.4326-70.459L29.4326-67.1323Z"/>
  </g>
  <line id="Baseline-S" style="fill:none;stroke:#27AAE1;opacity:1;stroke-width:0.5;" x1="263" x2="3036" y1="696" y2="696"/>
  <line id="Capline-S" style="fill:none;stroke:#27AAE1;opacity:1;stroke-width:0.5;" x1="263" x2="3036" y1="625.541" y2="625.541"/>
  <g id="H-reference" style="fill:#27AAE1;stroke:none;" transform="matrix(1 0 0 1 339 1126)">
   <path d="M0.993654 0L3.63775 0L29.3281-67.1323L30.0303-67.1323L30.0303-70.459L28.1226-70.459ZM11.6885-24.4799L46.9815-24.4799L46.2315-26.7285L12.4385-26.7285ZM55.1196 0L57.7637 0L30.6382-70.459L29.4326-70.459L29.4326-67.1323Z"/>
  </g>
  <line id="Baseline-M" style="fill:none;stroke:#27AAE1;opacity:1;stroke-width:0.5;" x1="263" x2="3036" y1="1126" y2="1126"/>
  <line id="Capline-M" style="fill:none;stroke:#27AAE1;opacity:1;stroke-width:0.5;" x1="263" x2="3036" y1="1055.54" y2="1055.54"/>
  <g id="H-reference" style="fill:#27AAE1;stroke:none;" transform="matrix(1 0 0 1 339 1556)">
   <path d="M0.993654 0L3.63775 0L29.3281-67.1323L30.0303-67.1323L30.0303-70.459L28.1226-70.459ZM11.6885-24.4799L46.9815-24.4799L46.2315-26.7285L12.4385-26.7285ZM55.1196 0L57.7637 0L30.6382-70.459L29.4326-70.459L29.4326-67.1323Z"/>
  </g>
  <line id="Baseline-L" style="fill:none;stroke:#27AAE1;opacity:1;stroke-width:0.5;" x1="263" x2="3036" y1="1556" y2="1556"/>
  <line id="Capline-L" style="fill:none;stroke:#27AAE1;opacity:1;stroke-width:0.5;" x1="263" x2="3036" y1="1485.54" y2="1485.54"/>
  <line id="right-margin-Black-S" style="fill:none;stroke:#00AEEF;stroke-width:0.5;opacity:1.0;" x1="2981.9" x2="2981.9" y1="600.785" y2="720.121"/>
  <line id="left-margin-Black-S" style="fill:none;stroke:#00AEEF;stroke-width:0.5;opacity:1.0;" x1="2884.9" x2="2884.9" y1="600.785" y2="720.121"/>
  <line id="right-margin-Regular-S" style="fill:none;stroke:#00AEEF;stroke-width:0.5;opacity:1.0;" x1="1495.64" x2="1495.64" y1="600.785" y2="720.121"/>
  <line id="left-margin-Regular-S" style="fill:none;stroke:#00AEEF;stroke-width:0.5;opacity:1.0;" x1="1404.04" x2="1404.04" y1="600.785" y2="720.121"/>
  <line id="right-margin-Ultralight-S" style="fill:none;stroke:#00AEEF;stroke-width:0.5;opacity:1.0;" x1="602.561" x2="602.561" y1="600.785" y2="720.121"/>
  <line id="left-margin-Ultralight-S" style="fill:none;stroke:#00AEEF;stroke-width:0.5;opacity:1.0;" x1="516.861" x2="516.861" y1="600.785" y2="720.121"/>
 </g>
 <g id="Symbols">
  <g id="Black-S" transform="matrix(1 0 0 1 2884.9 696)">
   <path class="SFSymbolsPreviewWireframe" d="M59.875-73.7051C85.0312-73.7051 87-71.7364 87-46.5801L87-23.8301C87 1.32611 85.0312 3.29486 59.875 3.29486L37.125 3.29486C11.9688 3.29486 10 1.32611 10-23.8301L10-46.5801C10-71.7364 11.9688-73.7051 37.125-73.7051L59.875-73.7051ZM37.0662-21.5403C37.1631-21.7086 38.0508-23.2562 39.3665-25.549C38.1223-27.0062 36.5671-27.3723 34.7781-26.9179C33.7686-25.1581 33.1064-24.0039 33.0234-23.8599C32.3831-22.7435 32.7688-21.3194 33.8848-20.6788C35.0017-20.0383 36.4255-20.4239 37.0662-21.5403ZM53.533-28.0505C54.5115-30.7231 52.5122-32.4802 50.8584-32.7114C48.3918-32.7114 45.8606-32.7114 43.4761-32.7114C48.0249-40.6389 53.3621-49.9403 53.6077-50.3685C54.2483-51.485 53.8623-52.9091 52.7461-53.5496C51.6301-54.1901 50.2056-53.8046 49.5652-52.6881C49.5037-52.5809 49.1084-51.8921 48.5-50.8318C47.8848-51.9035 47.4968-52.5804 47.4348-52.6881C46.7944-53.8046 45.3701-54.1901 44.2537-53.5496C43.1377-52.9091 42.752-51.485 43.3923-50.3685C43.4919-50.1951 44.4321-48.5558 45.813-46.1494C43.5295-42.1691 40.5935-37.0526 38.1025-32.7114C34.595-32.7114 32.1125-32.7114 31.8813-32.7114C30.5942-32.7114 29.5513-31.668 29.5513-30.3811C29.5513-29.094 30.5942-28.0505 31.8813-28.0505C32.3989-28.0505 44.1448-28.0505 53.533-28.0505ZM65.1187-28.0505C66.4055-28.0505 67.4487-29.094 67.4487-30.3811C67.4487-31.668 66.4055-32.7114 65.1187-32.7114C64.8875-32.7114 62.3967-32.7114 58.8975-32.7114C56.6819-36.5724 54.1089-41.0566 51.96-44.8024C50.1201-42.5334 49.8232-40.0439 50.8542-37.3644C55.1353-29.9035 59.7068-21.9358 59.9341-21.5403C60.5745-20.4239 61.9985-20.0383 63.1147-20.6788C64.2312-21.3194 64.6169-22.7435 63.9766-23.8599C63.8774-24.0325 62.9409-25.6646 61.572-28.0505C63.6091-28.0505 64.9524-28.0505 65.1187-28.0505Z"/>
  </g>
  <g id="Regular-S" transform="matrix(1 0 0 1 1404.04 696)">
   <path class="SFSymbolsPreviewWireframe" d="M60.5255-71.0539C80.0704-71.0539 81.6-69.5244 81.6-49.9793L81.6-20.5284C81.6-0.98352 80.0704 0.546082 60.5255 0.546082L31.0745 0.546082C11.5295 0.546082 10-0.983521 10-20.5284L10-49.9793C10-69.5244 11.5295-71.0539 31.0745-71.0539L60.5255-71.0539ZM31.7588-17.9184C31.8777-18.1252 32.968-20.0257 34.5834-22.8414C33.0558-24.6308 31.1461-25.0804 28.9492-24.5225C27.709-22.3613 26.8958-20.9438 26.7943-20.7671C26.0077-19.3962 26.4812-17.6472 27.8519-16.8605C29.223-16.074 30.9719-16.5475 31.7588-17.9184ZM51.9802-25.9133C53.182-29.1953 50.7271-31.3531 48.696-31.6371C45.6671-31.6371 42.5587-31.6371 39.6302-31.6371C45.2166-41.3723 51.7709-52.795 52.0724-53.3207C52.8593-54.6918 52.3853-56.4407 51.0144-57.2273C49.6434-58.0139 47.8948-57.5404 47.1079-56.1694C47.0323-56.0376 46.547-55.1918 45.7999-53.8897C45.0444-55.2065 44.568-56.0369 44.4919-56.1694C43.7052-57.5404 41.9564-58.0139 40.5856-57.2273C39.2146-56.4407 38.7407-54.6918 39.5276-53.3207C39.6499-53.1078 40.8049-51.0947 42.5005-48.1395C39.6958-43.2516 36.0905-36.9683 33.0316-31.6371C28.724-31.6371 25.6758-31.6371 25.3917-31.6371C23.811-31.6371 22.53-30.3559 22.53-28.7753C22.53-27.1948 23.811-25.9133 25.3917-25.9133C26.0267-25.9133 40.4518-25.9133 51.9802-25.9133ZM66.2083-25.9133C67.7887-25.9133 69.0699-27.1948 69.0699-28.7753C69.0699-30.3559 67.7887-31.6371 66.2083-31.6371C65.9248-31.6371 62.8657-31.6371 58.5686-31.6371C55.8478-36.3787 52.6881-41.8852 50.0486-46.4852C47.7894-43.6989 47.4252-40.6417 48.6908-37.3512C53.948-28.1888 59.5624-18.4041 59.8412-17.9184C60.6278-16.5475 62.377-16.074 63.7476-16.8605C65.1188-17.6472 65.5923-19.3962 64.8057-20.7671C64.6841-20.979 63.5339-22.9833 61.8528-25.9133C64.3549-25.9133 66.0039-25.9133 66.2083-25.9133Z"/>
  </g>
  <g id="Ultralight-S" transform="matrix(1 0 0 1 516.861 696)">
   <path class="SFSymbolsPreviewWireframe" d="M58.6826-68.1039C74.465-68.1039 75.7-66.8688 75.7-51.0866L75.7-19.3162C75.7-3.63147 74.4725-2.40387 58.7877-2.40387L26.9124-2.40387C11.2275-2.40387 10-3.63147 10-19.3162L10-51.1915C10-66.8764 11.2275-68.1039 26.9124-68.1039L58.6826-68.1039ZM29.5754-18.8649C29.6877-19.0604 30.7186-20.8572 32.2458-23.519C30.8017-25.2108 28.9961-25.6359 26.9192-25.1085C25.7468-23.0652 24.9778-21.725 24.882-21.558C24.1382-20.2619 24.5861-18.6083 25.882-17.8647C27.1781-17.1212 28.8315-17.5688 29.5754-18.8649ZM48.693-26.4233C49.8289-29.5261 47.5081-31.5662 45.588-31.8345C42.7244-31.8345 39.7857-31.8345 37.0172-31.8345C42.2984-41.0382 48.4949-51.8372 48.78-52.3344C49.5239-53.6306 49.0758-55.284 47.7797-56.0276C46.4838-56.7712 44.8304-56.3237 44.0867-55.0275C44.0152-54.903 43.5563-54.1032 42.85-52.8723C42.1361-54.1166 41.6852-54.9023 41.6133-55.0275C40.8696-56.3237 39.2163-56.7712 37.9201-56.0276C36.6242-55.284 36.1761-53.6306 36.92-52.3344C37.0355-52.1331 38.1276-50.2298 39.7307-47.436C37.0791-42.815 33.6706-36.8745 30.7787-31.8345C26.7062-31.8345 23.8245-31.8345 23.556-31.8345C22.0616-31.8345 20.8505-30.6233 20.8505-29.129C20.8505-27.6348 22.0616-26.4233 23.556-26.4233C24.1563-26.4233 37.7938-26.4233 48.693-26.4233ZM62.144-26.4233C63.6381-26.4233 64.8496-27.6348 64.8496-29.129C64.8496-30.6233 63.6381-31.8345 62.144-31.8345C61.8759-31.8345 58.9842-31.8345 54.9215-31.8345C52.3494-36.3172 49.3621-41.5233 46.8668-45.872C44.731-43.238 44.3864-40.3475 45.583-37.2367C50.5531-28.5745 55.8611-19.3241 56.1246-18.8649C56.8682-17.5688 58.522-17.1212 59.8179-17.8647C61.114-18.6083 61.5618-20.2619 60.8181-21.558C60.7031-21.7584 59.6157-23.6532 58.0263-26.4233C60.3918-26.4233 61.951-26.4233 62.144-26.4233Z"/>
  </g>
 </g>
</svg>
