<?xml version="1.0" encoding="UTF-8"?>
<svg height="600" width="800" xmlns="http://www.w3.org/2000/svg" xmlns:xlink="http://www.w3.org/1999/xlink">
    <g id="Notes" font-family="'LucidaGrande', 'Lucida Grande', sans-serif" font-size="13">
        <rect fill="white" height="600.0" width="800.0" x="0.0" y="0.0" />
        <g font-size="13">
            <text x="18.0" y="176.0">Small</text>
            <text x="18.0" y="376.0">Medium</text>
            <text x="18.0" y="576.0">Large</text>
        </g>
        <g font-size="9">
            <text x="250.0" y="30.0">Ultralight</text>
            <text x="450.0" y="30.0">Regular</text>
            <text x="650.0" y="30.0">Black</text>
            <text id="template-version" fill="#505050" text-anchor="end" x="785.0" y="575.0">Template v.3.0</text>
            <a href="https://wangchujiang.com/#/app">
                <text fill="#505050" text-anchor="end" x="785.0" y="590.0">https://wangchujiang.com/#/app</text>
            </a>
        </g>
    </g>
    <g id="Guides" stroke="rgb(39, 170, 225)" stroke-width="0.5">
        <path id="Capline-S" d="M18,76 l800,0" />
        <path id="H-reference" d="M85,145.755 L87.685,145.755 L113.369,79.287 L114.052,79.287 L114.052,76 L112.148,76 L85,145.755 Z M95.693,121.536 L130.996,121.536 L130.263,119.313 L96.474,119.313 L95.693,121.536 Z M139.15,145.755 L141.787,145.755 L114.638,76 L113.466,76 L113.466,79.287 L139.15,145.755 Z" stroke="none" />
        <path id="Baseline-S" d="M18,146 l800,0" />
        <path id="left-margin-Ultralight-S" d="M220.483,56 l0,110" />
        <path id="right-margin-Ultralight-S" d="M309.517,56 l0,110" />
        <path id="left-margin-Regular-S" d="M420.483,56 l0,110" />
        <path id="right-margin-Regular-S" d="M509.517,56 l0,110" />
        <path id="left-margin-Black-S" d="M620.483,56 l0,110" />
        <path id="right-margin-Black-S" d="M709.517,56 l0,110" />
        <path id="Capline-M" d="M18,276 l800,0" />
        <path id="Baseline-M" d="M18,346 l800,0" />
        <path id="Capline-L" d="M18,476 l800,0" />
        <path id="Baseline-L" d="M18,546 l800,0" />
    </g>
    <g id="Symbols">
        <g id="Ultralight-S">
            <path d="M256.868,116.284 C239.914,116.389 230.792,125.543 230.483,142.761 C230.467,143.617 230.798,144.438 231.396,145.049 C231.995,145.656 232.809,146 233.665,146 L280.106,146 C280.962,146 281.776,145.66 282.375,145.049 C282.973,144.441 283.304,143.617 283.288,142.761 C282.995,125.795 273.627,116.392 256.868,116.284 Z" />
            <path d="M295.274,110.998 L298.113,108.157 C299.977,106.292 299.977,103.273 298.113,101.408 C296.248,99.543 293.228,99.543 291.364,101.408 L288.525,104.246 L285.687,101.408 C283.822,99.543 280.803,99.543 278.938,101.408 C277.073,103.273 277.073,106.292 278.938,108.157 L281.776,110.998 L278.938,113.84 C277.073,115.705 277.073,118.724 278.938,120.589 C279.87,121.521 281.092,121.986 282.314,121.986 C283.536,121.986 284.758,121.521 285.69,120.589 L288.529,117.751 L291.367,120.589 C292.299,121.521 293.521,121.986 294.743,121.986 C295.965,121.986 297.187,121.521 298.119,120.589 C299.984,118.724 299.984,115.705 298.119,113.84 L295.281,110.998 Z" />
            <path d="M256.906,111.982 C268.396,111.915 274.582,105.71 274.795,93.937 C274.598,82.609 268.078,76.073 256.868,76 C245.537,76.07 238.979,82.752 238.979,94.048 C238.979,105.344 245.54,111.915 256.906,111.982 Z" />
        </g>
        <g id="Regular-S">
            <path d="M456.868,116.284 C439.914,116.389 430.792,125.543 430.483,142.761 C430.467,143.617 430.798,144.438 431.396,145.049 C431.995,145.656 432.809,146 433.665,146 L480.106,146 C480.962,146 481.776,145.66 482.375,145.049 C482.973,144.441 483.304,143.617 483.288,142.761 C482.995,125.795 473.627,116.392 456.868,116.284 Z" />
            <path d="M495.274,110.998 L498.113,108.157 C499.977,106.292 499.977,103.273 498.113,101.408 C496.248,99.543 493.228,99.543 491.364,101.408 L488.525,104.246 L485.687,101.408 C483.822,99.543 480.803,99.543 478.938,101.408 C477.073,103.273 477.073,106.292 478.938,108.157 L481.776,110.998 L478.938,113.84 C477.073,115.705 477.073,118.724 478.938,120.589 C479.87,121.521 481.092,121.986 482.314,121.986 C483.536,121.986 484.758,121.521 485.69,120.589 L488.529,117.751 L491.367,120.589 C492.299,121.521 493.521,121.986 494.743,121.986 C495.965,121.986 497.187,121.521 498.119,120.589 C499.984,118.724 499.984,115.705 498.119,113.84 L495.281,110.998 Z" />
            <path d="M456.906,111.982 C468.396,111.915 474.582,105.71 474.795,93.937 C474.598,82.609 468.078,76.073 456.868,76 C445.537,76.07 438.979,82.752 438.979,94.048 C438.979,105.344 445.54,111.915 456.906,111.982 Z" />
        </g>
        <g id="Black-S">
            <path d="M656.868,116.284 C639.914,116.389 630.792,125.543 630.483,142.761 C630.467,143.617 630.798,144.438 631.396,145.049 C631.995,145.656 632.809,146 633.665,146 L680.106,146 C680.962,146 681.776,145.66 682.375,145.049 C682.973,144.441 683.304,143.617 683.288,142.761 C682.995,125.795 673.627,116.392 656.868,116.284 Z" />
            <path d="M695.274,110.998 L698.113,108.157 C699.977,106.292 699.977,103.273 698.113,101.408 C696.248,99.543 693.228,99.543 691.364,101.408 L688.525,104.246 L685.687,101.408 C683.822,99.543 680.803,99.543 678.938,101.408 C677.073,103.273 677.073,106.292 678.938,108.157 L681.776,110.998 L678.938,113.84 C677.073,115.705 677.073,118.724 678.938,120.589 C679.87,121.521 681.092,121.986 682.314,121.986 C683.536,121.986 684.758,121.521 685.69,120.589 L688.529,117.751 L691.367,120.589 C692.299,121.521 693.521,121.986 694.743,121.986 C695.965,121.986 697.187,121.521 698.119,120.589 C699.984,118.724 699.984,115.705 698.119,113.84 L695.281,110.998 Z" />
            <path d="M656.906,111.982 C668.396,111.915 674.582,105.71 674.795,93.937 C674.598,82.609 668.078,76.073 656.868,76 C645.537,76.07 638.979,82.752 638.979,94.048 C638.979,105.344 645.54,111.915 656.906,111.982 Z" />
        </g>
    </g>
</svg>