<?xml version="1.0" encoding="UTF-8"?>
<!--Generator: Apple Native CoreSVG 341-->
<!DOCTYPE svg
PUBLIC "-//W3C//DTD SVG 1.1//EN"
       "http://www.w3.org/Graphics/SVG/1.1/DTD/svg11.dtd">
<svg version="1.1" xmlns="http://www.w3.org/2000/svg" xmlns:xlink="http://www.w3.org/1999/xlink" viewBox="0 0 3300 2200">
 <!--glyph: "", point size: 100.0, font version: "20.0d10e1", template writer version: "138.0.0"-->
 <style>.SFSymbolsPreviewWireframe {fill:none;opacity:1.0;stroke:black;stroke-width:0.5}
</style>
 <g id="Notes">
  <rect height="2200" id="artboard" style="fill:white;opacity:1" width="3300" x="0" y="0"/>
  <line style="fill:none;stroke:black;opacity:1;stroke-width:0.5;" x1="263" x2="3036" y1="292" y2="292"/>
  <text style="stroke:none;fill:black;font-family:sans-serif;font-size:13;font-weight:bold;" transform="matrix(1 0 0 1 263 322)">Weight/Scale Variations</text>
  <text style="stroke:none;fill:black;font-family:sans-serif;font-size:13;text-anchor:middle;" transform="matrix(1 0 0 1 559.711 322)">Ultralight</text>
  <text style="stroke:none;fill:black;font-family:sans-serif;font-size:13;text-anchor:middle;" transform="matrix(1 0 0 1 856.422 322)">Thin</text>
  <text style="stroke:none;fill:black;font-family:sans-serif;font-size:13;text-anchor:middle;" transform="matrix(1 0 0 1 1153.13 322)">Light</text>
  <text style="stroke:none;fill:black;font-family:sans-serif;font-size:13;text-anchor:middle;" transform="matrix(1 0 0 1 1449.84 322)">Regular</text>
  <text style="stroke:none;fill:black;font-family:sans-serif;font-size:13;text-anchor:middle;" transform="matrix(1 0 0 1 1746.56 322)">Medium</text>
  <text style="stroke:none;fill:black;font-family:sans-serif;font-size:13;text-anchor:middle;" transform="matrix(1 0 0 1 2043.27 322)">Semibold</text>
  <text style="stroke:none;fill:black;font-family:sans-serif;font-size:13;text-anchor:middle;" transform="matrix(1 0 0 1 2339.98 322)">Bold</text>
  <text style="stroke:none;fill:black;font-family:sans-serif;font-size:13;text-anchor:middle;" transform="matrix(1 0 0 1 2636.69 322)">Heavy</text>
  <text style="stroke:none;fill:black;font-family:sans-serif;font-size:13;text-anchor:middle;" transform="matrix(1 0 0 1 2933.4 322)">Black</text>
  <line style="fill:none;stroke:black;opacity:1;stroke-width:0.5;" x1="263" x2="3036" y1="1903" y2="1903"/>
  <g transform="matrix(0.2 0 0 0.2 263 1933)">
   <path d="m46.2402 4.15039c21.7773 0 39.4531-17.627 39.4531-39.4043s-17.6758-39.4043-39.4531-39.4043c-21.7285 0-39.4043 17.627-39.4043 39.4043s17.6758 39.4043 39.4043 39.4043Zm0-7.42188c-17.6758 0-31.9336-14.3066-31.9336-31.9824s14.2578-31.9824 31.9336-31.9824 31.9824 14.3066 31.9824 31.9824-14.3066 31.9824-31.9824 31.9824Zm-17.9688-31.9824c0 2.14844 1.51367 3.61328 3.75977 3.61328h10.498v10.5957c0 2.19727 1.46484 3.71094 3.61328 3.71094 2.24609 0 3.71094-1.51367 3.71094-3.71094v-10.5957h10.5957c2.19727 0 3.71094-1.46484 3.71094-3.61328 0-2.19727-1.51367-3.71094-3.71094-3.71094h-10.5957v-10.5469c0-2.24609-1.46484-3.75977-3.71094-3.75977-2.14844 0-3.61328 1.51367-3.61328 3.75977v10.5469h-10.498c-2.24609 0-3.75977 1.51367-3.75977 3.71094Z"/>
  </g>
  <g transform="matrix(0.2 0 0 0.2 281.506 1933)">
   <path d="m58.5449 14.5508c27.4902 0 49.8047-22.3145 49.8047-49.8047s-22.3145-49.8047-49.8047-49.8047-49.8047 22.3145-49.8047 49.8047 22.3145 49.8047 49.8047 49.8047Zm0-8.30078c-22.9492 0-41.5039-18.5547-41.5039-41.5039s18.5547-41.5039 41.5039-41.5039 41.5039 18.5547 41.5039 41.5039-18.5547 41.5039-41.5039 41.5039Zm-22.6562-41.5039c0 2.39258 1.66016 4.00391 4.15039 4.00391h14.3555v14.4043c0 2.44141 1.66016 4.15039 4.05273 4.15039 2.44141 0 4.15039-1.66016 4.15039-4.15039v-14.4043h14.4043c2.44141 0 4.15039-1.61133 4.15039-4.00391 0-2.44141-1.70898-4.15039-4.15039-4.15039h-14.4043v-14.3555c0-2.49023-1.70898-4.19922-4.15039-4.19922-2.39258 0-4.05273 1.70898-4.05273 4.19922v14.3555h-14.3555c-2.49023 0-4.15039 1.70898-4.15039 4.15039Z"/>
  </g>
  <g transform="matrix(0.2 0 0 0.2 304.924 1933)">
   <path d="m74.8535 28.3203c35.1074 0 63.623-28.4668 63.623-63.5742s-28.5156-63.623-63.623-63.623-63.5742 28.5156-63.5742 63.623 28.4668 63.5742 63.5742 63.5742Zm0-9.08203c-30.127 0-54.4922-24.3652-54.4922-54.4922s24.3652-54.4922 54.4922-54.4922 54.4922 24.3652 54.4922 54.4922-24.3652 54.4922-54.4922 54.4922Zm-28.8574-54.4922c0 2.58789 1.85547 4.39453 4.58984 4.39453h19.7266v19.7754c0 2.68555 1.85547 4.58984 4.44336 4.58984 2.68555 0 4.54102-1.85547 4.54102-4.58984v-19.7754h19.7754c2.68555 0 4.58984-1.80664 4.58984-4.39453 0-2.73438-1.85547-4.58984-4.58984-4.58984h-19.7754v-19.7266c0-2.73438-1.85547-4.63867-4.54102-4.63867-2.58789 0-4.44336 1.9043-4.44336 4.63867v19.7266h-19.7266c-2.73438 0-4.58984 1.85547-4.58984 4.58984Z"/>
  </g>
  <text style="stroke:none;fill:black;font-family:sans-serif;font-size:13;font-weight:bold;" transform="matrix(1 0 0 1 263 1953)">Design Variations</text>
  <text style="stroke:none;fill:black;font-family:sans-serif;font-size:13;" transform="matrix(1 0 0 1 263 1971)">Symbols are supported in up to nine weights and three scales.</text>
  <text style="stroke:none;fill:black;font-family:sans-serif;font-size:13;" transform="matrix(1 0 0 1 263 1989)">For optimal layout with text and other symbols, vertically align</text>
  <text style="stroke:none;fill:black;font-family:sans-serif;font-size:13;" transform="matrix(1 0 0 1 263 2007)">symbols with the adjacent text.</text>
  <line style="fill:none;stroke:#00AEEF;stroke-width:0.5;opacity:1.0;" x1="776" x2="776" y1="1919" y2="1933"/>
  <g transform="matrix(0.2 0 0 0.2 776 1933)">
   <path d="m16.5527 0.78125c2.58789 0 3.85742-0.976562 4.78516-3.71094l6.29883-17.2363h28.8086l6.29883 17.2363c0.927734 2.73438 2.19727 3.71094 4.73633 3.71094 2.58789 0 4.24805-1.5625 4.24805-4.00391 0-0.830078-0.146484-1.61133-0.537109-2.63672l-22.9004-60.9863c-1.12305-2.97852-3.125-4.49219-6.25-4.49219-3.02734 0-5.07812 1.46484-6.15234 4.44336l-22.9004 61.084c-0.390625 1.02539-0.537109 1.80664-0.537109 2.63672 0 2.44141 1.5625 3.95508 4.10156 3.95508Zm13.4766-28.3691 11.8652-32.8613h0.244141l11.8652 32.8613Z"/>
  </g>
  <line style="fill:none;stroke:#00AEEF;stroke-width:0.5;opacity:1.0;" x1="792.836" x2="792.836" y1="1919" y2="1933"/>
  <text style="stroke:none;fill:black;font-family:sans-serif;font-size:13;font-weight:bold;" transform="matrix(1 0 0 1 776 1953)">Margins</text>
  <text style="stroke:none;fill:black;font-family:sans-serif;font-size:13;" transform="matrix(1 0 0 1 776 1971)">Leading and trailing margins on the left and right side of each symbol</text>
  <text style="stroke:none;fill:black;font-family:sans-serif;font-size:13;" transform="matrix(1 0 0 1 776 1989)">can be adjusted by modifying the x-location of the margin guidelines.</text>
  <text style="stroke:none;fill:black;font-family:sans-serif;font-size:13;" transform="matrix(1 0 0 1 776 2007)">Modifications are automatically applied proportionally to all</text>
  <text style="stroke:none;fill:black;font-family:sans-serif;font-size:13;" transform="matrix(1 0 0 1 776 2025)">scales and weights.</text>
  <g transform="matrix(0.2 0 0 0.2 1289 1933)">
   <path d="m14.209 9.32617 8.49609 8.54492c4.29688 4.3457 9.22852 4.05273 13.8672-1.07422l53.4668-58.9355-4.83398-4.88281-53.0762 58.3984c-1.75781 2.00195-3.41797 2.49023-5.76172 0.146484l-5.85938-5.81055c-2.34375-2.29492-1.80664-4.00391 0.195312-5.81055l57.373-54.0039-4.88281-4.83398-57.959 54.4434c-4.93164 4.58984-5.32227 9.47266-1.02539 13.8184Zm32.0801-90.9668c-2.09961 2.05078-2.24609 4.93164-1.07422 6.88477 1.17188 1.80664 3.4668 2.97852 6.68945 2.14844 7.32422-1.70898 14.9414-2.00195 22.0703 2.68555l-2.92969 7.27539c-1.70898 4.15039-0.830078 7.08008 1.85547 9.81445l11.4746 11.5723c2.44141 2.44141 4.49219 2.53906 7.32422 2.05078l5.32227-0.976562 3.32031 3.36914-0.195312 2.7832c-0.195312 2.49023 0.439453 4.39453 2.88086 6.78711l3.80859 3.71094c2.39258 2.39258 5.46875 2.53906 7.8125 0.195312l14.5508-14.5996c2.34375-2.34375 2.24609-5.32227-0.146484-7.71484l-3.85742-3.80859c-2.39258-2.39258-4.24805-3.17383-6.64062-2.97852l-2.88086 0.244141-3.22266-3.17383 1.2207-5.61523c0.634766-2.83203-0.146484-5.0293-3.07617-7.95898l-10.9863-10.9375c-16.6992-16.6016-38.8672-16.2109-53.3203-1.75781Zm7.4707 1.85547c12.1582-8.88672 28.6133-7.37305 39.7461 3.75977l12.1582 12.0605c1.17188 1.17188 1.36719 2.09961 1.02539 3.80859l-1.61133 7.42188 7.51953 7.42188 4.93164-0.292969c1.26953-0.0488281 1.66016 0.0488281 2.63672 1.02539l2.88086 2.88086-12.207 12.207-2.88086-2.88086c-0.976562-0.976562-1.12305-1.36719-1.07422-2.68555l0.341797-4.88281-7.4707-7.42188-7.61719 1.26953c-1.61133 0.341797-2.34375 0.195312-3.56445-0.976562l-10.0098-10.0098c-1.26953-1.17188-1.41602-2.00195-0.634766-3.85742l4.39453-10.4492c-7.8125-7.27539-17.9688-10.4004-28.125-7.42188-0.78125 0.195312-1.07422-0.439453-0.439453-0.976562Z"/>
  </g>
  <text style="stroke:none;fill:black;font-family:sans-serif;font-size:13;font-weight:bold;" transform="matrix(1 0 0 1 1289 1953)">Exporting</text>
  <text style="stroke:none;fill:black;font-family:sans-serif;font-size:13;" transform="matrix(1 0 0 1 1289 1971)">Symbols should be outlined when exporting to ensure the</text>
  <text style="stroke:none;fill:black;font-family:sans-serif;font-size:13;" transform="matrix(1 0 0 1 1289 1989)">design is preserved when submitting to Xcode.</text>
  <text id="template-version" style="stroke:none;fill:black;font-family:sans-serif;font-size:13;text-anchor:end;" transform="matrix(1 0 0 1 3036 1933)">Template v.6.0</text>
  <text style="stroke:none;fill:black;font-family:sans-serif;font-size:13;text-anchor:end;" transform="matrix(1 0 0 1 3036 1951)">Requires Xcode 16 or greater</text>
  <text id="descriptive-name" style="stroke:none;fill:black;font-family:sans-serif;font-size:13;text-anchor:end;" transform="matrix(1 0 0 1 3036 1969)">Generated from snapchat</text>
  <text style="stroke:none;fill:black;font-family:sans-serif;font-size:13;text-anchor:end;" transform="matrix(1 0 0 1 3036 1987)">Typeset at 100.0 points</text>
  <text style="stroke:none;fill:black;font-family:sans-serif;font-size:13;" transform="matrix(1 0 0 1 263 726)">Small</text>
  <text style="stroke:none;fill:black;font-family:sans-serif;font-size:13;" transform="matrix(1 0 0 1 263 1156)">Medium</text>
  <text style="stroke:none;fill:black;font-family:sans-serif;font-size:13;" transform="matrix(1 0 0 1 263 1586)">Large</text>
 </g>
 <g id="Guides">
  <g id="H-reference" style="fill:#27AAE1;stroke:none;" transform="matrix(1 0 0 1 339 696)">
   <path d="M0.993654 0L3.63775 0L29.3281-67.1323L30.0303-67.1323L30.0303-70.459L28.1226-70.459ZM11.6885-24.4799L46.9815-24.4799L46.2315-26.7285L12.4385-26.7285ZM55.1196 0L57.7637 0L30.6382-70.459L29.4326-70.459L29.4326-67.1323Z"/>
  </g>
  <line id="Baseline-S" style="fill:none;stroke:#27AAE1;opacity:1;stroke-width:0.5;" x1="263" x2="3036" y1="696" y2="696"/>
  <line id="Capline-S" style="fill:none;stroke:#27AAE1;opacity:1;stroke-width:0.5;" x1="263" x2="3036" y1="625.541" y2="625.541"/>
  <g id="H-reference" style="fill:#27AAE1;stroke:none;" transform="matrix(1 0 0 1 339 1126)">
   <path d="M0.993654 0L3.63775 0L29.3281-67.1323L30.0303-67.1323L30.0303-70.459L28.1226-70.459ZM11.6885-24.4799L46.9815-24.4799L46.2315-26.7285L12.4385-26.7285ZM55.1196 0L57.7637 0L30.6382-70.459L29.4326-70.459L29.4326-67.1323Z"/>
  </g>
  <line id="Baseline-M" style="fill:none;stroke:#27AAE1;opacity:1;stroke-width:0.5;" x1="263" x2="3036" y1="1126" y2="1126"/>
  <line id="Capline-M" style="fill:none;stroke:#27AAE1;opacity:1;stroke-width:0.5;" x1="263" x2="3036" y1="1055.54" y2="1055.54"/>
  <g id="H-reference" style="fill:#27AAE1;stroke:none;" transform="matrix(1 0 0 1 339 1556)">
   <path d="M0.993654 0L3.63775 0L29.3281-67.1323L30.0303-67.1323L30.0303-70.459L28.1226-70.459ZM11.6885-24.4799L46.9815-24.4799L46.2315-26.7285L12.4385-26.7285ZM55.1196 0L57.7637 0L30.6382-70.459L29.4326-70.459L29.4326-67.1323Z"/>
  </g>
  <line id="Baseline-L" style="fill:none;stroke:#27AAE1;opacity:1;stroke-width:0.5;" x1="263" x2="3036" y1="1556" y2="1556"/>
  <line id="Capline-L" style="fill:none;stroke:#27AAE1;opacity:1;stroke-width:0.5;" x1="263" x2="3036" y1="1485.54" y2="1485.54"/>
  <line id="right-margin-Black-S" style="fill:none;stroke:#00AEEF;stroke-width:0.5;opacity:1.0;" x1="2985.71" x2="2985.71" y1="600.785" y2="720.121"/>
  <line id="left-margin-Black-S" style="fill:none;stroke:#00AEEF;stroke-width:0.5;opacity:1.0;" x1="2881.09" x2="2881.09" y1="600.785" y2="720.121"/>
  <line id="right-margin-Regular-S" style="fill:none;stroke:#00AEEF;stroke-width:0.5;opacity:1.0;" x1="1499.51" x2="1499.51" y1="600.785" y2="720.121"/>
  <line id="left-margin-Regular-S" style="fill:none;stroke:#00AEEF;stroke-width:0.5;opacity:1.0;" x1="1400.18" x2="1400.18" y1="600.785" y2="720.121"/>
  <line id="right-margin-Ultralight-S" style="fill:none;stroke:#00AEEF;stroke-width:0.5;opacity:1.0;" x1="607.212" x2="607.212" y1="600.785" y2="720.121"/>
  <line id="left-margin-Ultralight-S" style="fill:none;stroke:#00AEEF;stroke-width:0.5;opacity:1.0;" x1="512.21" x2="512.21" y1="600.785" y2="720.121"/>
 </g>
 <g id="Symbols">
  <g id="Black-S" transform="matrix(1 0 0 1 2881.09 696)">
   <path class="SFSymbolsPreviewWireframe" d="M94.0271-11.4214C94.6108-9.55072 94.3469-7.58453 92.5581-5.77435C89.7043-2.88702 84.7249-2.16669 84.0955-1.57196C83.4663-0.977173 83.1892 1.28223 81.1816 2.57306C79.1741 3.8642 76.6973 3.83063 75.428 3.92755C70.3169 4.31683 68.9783 4.5531 65.792 6.58691C64.7625 7.24371 59.7065 10.7109 52.3054 10.7109C44.9043 10.7109 39.8484 7.24371 38.8191 6.58691C35.6326 4.5531 34.2939 4.31683 29.1829 3.92755C27.9136 3.83063 25.4368 3.8642 23.4292 2.57306C21.4216 1.28223 21.1448-0.977173 20.5154-1.57196C19.886-2.16669 14.9065-2.88702 12.053-5.77435C10.2639-7.58453 10-9.55072 10.5837-11.4214C11.3513-13.8813 14.0425-14.7333 15.5991-15.6239C24.1216-20.5011 25.4863-25.1622 25.8899-25.8521C26.053-26.1305 26.4539-27.0563 25.5469-27.7963C24.7092-28.4797 20.238-30.6534 18.3569-33.9277C17.3801-35.627 17.1235-38.2173 18.0039-40.0262C19.4119-42.9196 21.7466-44.6063 24.9807-44.6063C26.1643-44.6063 27.3608-44.3026 27.5332-44.2615C27.5972-46.1271 27.6021-48.2881 27.7222-50.2369C28.2234-58.3806 35.0588-71.9551 52.3054-71.9551C69.552-71.9551 76.3877-58.3806 76.8887-50.2369C77.0088-48.2881 77.0137-46.1271 77.0776-44.2615C77.25-44.3026 78.4465-44.6063 79.6301-44.6063C82.8643-44.6063 85.199-42.9196 86.6069-40.0262C87.4875-38.2173 87.2307-35.627 86.2539-33.9277C84.3728-30.6534 79.9016-28.4797 79.064-27.7963C78.157-27.0563 78.5581-26.1305 78.7209-25.8521C79.1245-25.1622 80.4893-20.5011 89.012-15.6239C90.5684-14.7333 93.2595-13.8813 94.0271-11.4214ZM72.6936-9.89166C72.9553-9.91174 73.0413-9.92816 73.0559-10.0023C73.0784-10.1147 71.1497-11.9167 69.7161-13.8249C66.7388-17.7883 65.3-21.5405 65.0283-22.5967C64.5588-24.4236 64.4324-26.6383 64.4268-26.7259C64.4236-26.778 64.4414-26.7966 64.4624-26.8243C64.4834-26.8519 64.5481-26.8545 64.5391-26.879C64.5247-26.9174 64.446-26.8735 64.3994-26.8626C64.3584-26.8529 63.9648-26.7587 63.9048-26.7422C63.8445-26.7259 63.6775-26.6288 63.6694-26.868C63.6458-27.5805 63.1089-44.1003 63.1396-44.9643C63.4246-53.0043 60.5125-57.9342 52.3054-57.9342C44.0984-57.9342 41.1863-53.0043 41.4714-44.9643C41.5022-44.1003 40.9651-27.5805 40.9414-26.868C40.9333-26.6288 40.7664-26.7259 40.7061-26.7422C40.646-26.7587 40.2524-26.8529 40.2114-26.8626C40.1648-26.8735 40.0862-26.9174 40.0718-26.879C40.0627-26.8545 40.1274-26.8519 40.1484-26.8243C40.1694-26.7966 40.1873-26.778 40.1841-26.7259C40.1785-26.6383 40.052-24.4236 39.5825-22.5967C39.3108-21.5405 37.8723-17.7883 34.8948-13.8249C33.4612-11.9167 31.5325-10.1147 31.5549-10.0023C31.5696-9.92816 31.6555-9.91174 31.9172-9.89166C32.1787-9.87146 32.9131-9.81647 33.0171-9.7973C33.1135-9.7796 33.2959-9.76453 33.3892-9.75085C33.4832-9.737 33.6221-9.71851 33.698-9.70441C33.8154-9.6825 34.1565-9.75238 38.075-8.88312C42.6958-7.85803 43.5537-7.04565 46.6941-5.0412C49.0217-3.55548 49.3716-3.30939 52.3054-3.30939C55.2393-3.30939 55.5891-3.55548 57.917-5.0412C61.0571-7.04565 61.915-7.85803 66.5359-8.88312C70.4543-9.75238 70.7954-9.68249 70.9128-9.70441C70.989-9.71851 71.1277-9.737 71.2217-9.75085C71.3149-9.76453 71.4973-9.7796 71.5937-9.7973C71.6978-9.81647 72.4321-9.87146 72.6936-9.89166Z"/>
  </g>
  <g id="Regular-S" transform="matrix(1 0 0 1 1400.18 696)">
   <path class="SFSymbolsPreviewWireframe" d="M88.7853-17.8763C89.3326-16.1223 89.0851-14.2787 87.4078-12.5816C84.7323-9.87433 80.0634-9.19891 79.4733-8.6413C78.8832-8.08356 78.6234-5.96515 76.7411-4.75482C74.8589-3.54431 72.5367-3.57568 71.3463-3.48486C66.5542-3.11987 65.2992-2.89832 62.3114-0.991394C61.3462-0.375549 56.606 2.87537 49.6663 2.87537C42.7267 2.87537 37.9865-0.375549 37.0212-0.991394C34.0334-2.89832 32.7784-3.11987 27.9862-3.48486C26.7959-3.57568 24.4736-3.54431 22.5914-4.75482C20.7091-5.96515 20.4495-8.08356 19.8594-8.6413C19.2693-9.19891 14.6002-9.87433 11.9248-12.5816C10.2476-14.2787 10-16.1223 10.5474-17.8763C11.2671-20.1829 13.7903-20.9816 15.2495-21.8167C23.2405-26.3896 24.5201-30.7599 24.8986-31.4068C25.0513-31.6679 25.4274-32.5359 24.5769-33.2297C23.7916-33.8705 19.5995-35.9086 17.8353-38.9786C16.9198-40.572 16.679-43.0007 17.5045-44.6967C18.8247-47.4096 21.0138-48.9911 24.046-48.9911C25.1559-48.9911 26.2777-48.7063 26.4393-48.6678C26.4994-50.4171 26.504-52.4433 26.6166-54.2704C27.0863-61.9061 33.4955-74.6339 49.6663-74.6339C65.8372-74.6339 72.2462-61.9061 72.7161-54.2704C72.8286-52.4433 72.8333-50.4171 72.8933-48.6678C73.0548-48.7063 74.1768-48.9911 75.2865-48.9911C78.3188-48.9911 80.5078-47.4096 81.8281-44.6967C82.6537-43.0007 82.4128-40.572 81.4973-38.9786C79.7332-35.9086 75.541-33.8705 74.7557-33.2297C73.9053-32.5359 74.2814-31.6679 74.4341-31.4068C74.8126-30.7599 76.092-26.3896 84.083-21.8167C85.5424-20.9816 88.0656-20.1829 88.7853-17.8763ZM78.4596-15.9652C78.7802-16.0624 79.5585-16.1941 79.5757-16.28C79.6017-16.4102 75.9656-18.2371 73.9836-20.162C69.8997-24.1285 66.812-30.0568 66.4695-31.0159C65.9613-32.4389 65.6086-33.9677 67.1802-35.7988C68.1747-36.9577 69.3257-38.0474 70.8972-39.2563C71.9631-40.0762 74.8192-41.6614 74.7236-41.798C74.5823-41.9998 69.6-40.5925 68.9709-40.3978C68.2131-40.1633 67.8251-40.043 67.308-39.9103C66.4386-39.6875 65.9865-40.2357 65.9865-40.9878C65.9865-41.801 65.6646-51.9623 65.6449-52.9628C65.5298-58.8308 61.5159-67.4966 49.6663-67.4966C37.8168-67.4966 33.8029-58.8308 33.6877-52.9628C33.6681-51.9623 33.3461-41.801 33.3461-40.9878C33.3461-40.2357 32.894-39.6875 32.0245-39.9103C31.5076-40.043 31.1196-40.1633 30.3617-40.3978C29.7327-40.5925 24.7504-41.9998 24.6091-41.798C24.5134-41.6614 27.3695-40.0762 28.4355-39.2563C30.007-38.0474 31.158-36.9577 32.1525-35.7988C33.724-33.9677 33.3713-32.4389 32.863-31.0159C32.5206-30.0568 29.433-24.1285 25.349-20.162C23.3671-18.2371 19.7308-16.4102 19.757-16.28C19.7742-16.1941 20.5525-16.0624 20.873-15.9652C21.6276-15.7361 23.0358-15.1442 24.1296-14.4199C25.0648-13.8005 25.8799-12.8528 26.2302-12.3235C26.7728-11.5901 26.813-10.8568 26.9034-10.7663C26.9938-10.6759 28.6388-10.611 29.5559-10.5553C34.5348-10.2534 37.254-9.58905 40.7892-7.22418C43.446-5.44666 46.2699-4.26123 49.6663-4.26123C53.0627-4.26123 55.8865-5.44666 58.5436-7.22418C62.0786-9.58905 64.798-10.2534 69.7769-10.5553C70.6938-10.611 72.3387-10.6759 72.4293-10.7663C72.5197-10.8568 72.5598-11.5901 73.1024-12.3235C73.4528-12.8528 74.2678-13.8005 75.2031-14.4199C76.2969-15.1442 77.7051-15.7361 78.4596-15.9652Z"/>
  </g>
  <g id="Ultralight-S" transform="matrix(1 0 0 1 512.21 696)">
   <path class="SFSymbolsPreviewWireframe" d="M84.4839-18.8251C85.0013-17.1669 84.7673-15.424 83.1816-13.8195C80.6522-11.26 76.2381-10.6215 75.6802-10.0943C75.1224-9.56696 74.8769-7.56421 73.0974-6.42004C71.3179-5.27557 69.1225-5.30524 67.997-5.21942C63.4665-4.87433 62.2801-4.66486 59.4553-2.86212C58.5429-2.27985 54.0615 0.8703 47.5007 0.8703C40.9399 0.8703 36.4584-2.27985 35.546-2.86212C32.7213-4.66486 31.5348-4.87433 27.0043-5.21942C25.8788-5.30524 23.6835-5.27557 21.904-6.42004C20.1245-7.56421 19.8789-9.56696 19.3211-10.0943C18.7632-10.6215 14.3491-11.26 11.8197-13.8195C10.234-15.424 10-17.1669 10.5174-18.8251C11.1979-21.0058 13.5833-21.7609 14.9629-22.5503C22.5176-26.8737 23.7872-30.9739 24.0851-31.6168C24.3854-32.2647 24.5851-32.6843 23.7811-33.3403C23.0386-33.9461 19.0753-35.8729 17.4075-38.7753C16.5421-40.2816 16.3143-42.5778 17.0948-44.1812C18.343-46.7459 20.4124-48.2411 23.2791-48.2411C24.3284-48.2411 25.389-47.9719 25.5419-47.9355C25.5985-49.5893 25.6029-51.5049 25.7094-53.2322C26.1535-60.451 32.1091-72.4839 47.5007-72.4839C62.8922-72.4839 68.8478-60.451 69.292-53.2322C69.3984-51.5049 69.4028-49.5893 69.4595-47.9355C69.6122-47.9719 70.6729-48.2411 71.7222-48.2411C74.5889-48.2411 76.6584-46.7459 77.9066-44.1812C78.687-42.5778 78.4593-40.2816 77.5938-38.7753C75.926-35.8729 71.9626-33.9461 71.2203-33.3403C70.4163-32.6843 70.616-32.2647 70.9162-31.6168C71.2141-30.9739 72.4837-26.8737 80.0384-22.5503C81.418-21.7609 83.8034-21.0058 84.4839-18.8251ZM81.6238-15.3588C82.5015-16.2469 82.7242-17.0862 82.3932-18.1729C82.0875-19.1765 80.9645-19.6509 79.0756-20.6603C71.6568-24.6245 69.3059-29.8027 68.9328-30.8474C68.3792-32.3976 67.9584-33.7263 69.5087-34.7894C71.0248-35.829 74.6681-38.0792 75.6949-39.8663C76.2455-40.8246 76.3566-42.3616 75.9375-43.2228C75.0112-45.126 73.6323-46.0511 71.7222-46.0511C70.6602-46.0511 69.3231-45.6842 68.7557-45.5522C67.8033-45.3307 67.3161-45.9066 67.3161-46.726C67.3161-47.6118 67.1732-52.0096 67.1061-53.0978C66.7236-59.3146 61.8037-70.2932 47.5007-70.2932C33.1976-70.2932 28.2778-59.3146 27.8952-53.0978C27.8281-52.0096 27.6852-47.6118 27.6852-46.726C27.6852-45.9066 27.198-45.3307 26.2456-45.5522C25.6782-45.6842 24.3411-46.0511 23.2791-46.0511C21.369-46.0511 19.9901-45.126 19.0638-43.2228C18.6448-42.3616 18.7559-40.8246 19.3064-39.8663C20.3333-38.0792 23.9765-35.829 25.4927-34.7894C27.0429-33.7263 26.6221-32.3976 26.0685-30.8474C25.6954-29.8027 23.3445-24.6245 15.9257-20.6603C14.0369-19.6509 12.9138-19.1765 12.6081-18.1729C12.2772-17.0862 12.4998-16.2469 13.3775-15.3588C14.7491-13.9708 17.0045-13.1442 18.5416-12.7524C20.6206-12.2227 21.3293-11.3146 21.8489-10.0411C22.1279-9.35736 22.4578-8.66766 23.0885-8.26196C24.155-7.57599 25.6472-7.49658 26.6462-7.43591C32.07-7.10693 34.2515-6.67963 37.0529-4.58228C39.7818-2.53918 43.8008-1.3197 47.5007-1.3197C51.2006-1.3197 55.2195-2.53918 57.9485-4.58228C60.7499-6.67963 62.9313-7.10693 68.3551-7.43591C69.3541-7.49658 70.8463-7.57599 71.9128-8.26196C72.5436-8.66766 72.8735-9.35736 73.1524-10.0411C73.672-11.3146 74.3807-12.2227 76.4597-12.7524C77.9968-13.1442 80.2521-13.9708 81.6238-15.3588Z"/>
  </g>
 </g>
</svg>
