<?xml version="1.0" encoding="UTF-8"?>
<svg height="600" width="800" xmlns="http://www.w3.org/2000/svg" xmlns:xlink="http://www.w3.org/1999/xlink">
    <g id="Notes" font-family="'LucidaGrande', 'Lucida Grande', sans-serif" font-size="13">
        <rect fill="white" height="600.0" width="800.0" x="0.0" y="0.0" />
        <g font-size="13">
            <text x="18.0" y="176.0">Small</text>
            <text x="18.0" y="376.0">Medium</text>
            <text x="18.0" y="576.0">Large</text>
        </g>
        <g font-size="9">
            <text x="250.0" y="30.0">Ultralight</text>
            <text x="450.0" y="30.0">Regular</text>
            <text x="650.0" y="30.0">Black</text>
            <text id="template-version" fill="#505050" text-anchor="end" x="785.0" y="575.0">Template v.3.0</text>
            <a href="https://wangchujiang.com/#/app">
                <text fill="#505050" text-anchor="end" x="785.0" y="590.0">https://wangchujiang.com/#/app</text>
            </a>
        </g>
    </g>
    <g id="Guides" stroke="rgb(39, 170, 225)" stroke-width="0.5">
        <path id="Capline-S" d="M18,76 l800,0" />
        <path id="H-reference" d="M85,145.755 L87.685,145.755 L113.369,79.287 L114.052,79.287 L114.052,76 L112.148,76 L85,145.755 Z M95.693,121.536 L130.996,121.536 L130.263,119.313 L96.474,119.313 L95.693,121.536 Z M139.15,145.755 L141.787,145.755 L114.638,76 L113.466,76 L113.466,79.287 L139.15,145.755 Z" stroke="none" />
        <path id="Baseline-S" d="M18,146 l800,0" />
        <path id="left-margin-Ultralight-S" d="M220,56 l0,110" />
        <path id="right-margin-Ultralight-S" d="M310,56 l0,110" />
        <path id="left-margin-Regular-S" d="M420,56 l0,110" />
        <path id="right-margin-Regular-S" d="M510,56 l0,110" />
        <path id="left-margin-Black-S" d="M620,56 l0,110" />
        <path id="right-margin-Black-S" d="M710,56 l0,110" />
        <path id="Capline-M" d="M18,276 l800,0" />
        <path id="Baseline-M" d="M18,346 l800,0" />
        <path id="Capline-L" d="M18,476 l800,0" />
        <path id="Baseline-L" d="M18,546 l800,0" />
    </g>
    <g id="Symbols">
        <g id="Ultralight-S">
            <path d="M265,76 C248.703,76 230,79.977 230,111 C230,142.023 248.703,146 265,146 C281.297,146 300,142.023 300,111 C300,79.977 281.297,76 265,76 Z M265.35,139.636 C265.232,139.636 264.765,139.636 264.647,139.636 C261.554,139.617 256.272,139.108 254.131,125.522 L275.866,125.522 C273.725,139.108 268.443,139.617 265.35,139.636 Z M253.44,119.158 C253.275,116.737 253.186,114.029 253.186,111 C253.186,107.971 253.275,105.263 253.44,102.842 L276.553,102.842 C276.719,105.263 276.808,107.971 276.808,111 C276.808,114.029 276.719,116.737 276.553,119.158 L253.44,119.158 Z M236.36,111 C236.36,107.987 236.545,105.276 236.901,102.842 L247.045,102.842 C246.88,105.562 246.822,108.315 246.822,111 C246.822,113.733 246.876,116.476 247.029,119.158 L236.905,119.158 C236.548,116.724 236.364,114.013 236.364,111 Z M264.612,82.364 C264.739,82.364 265.258,82.364 265.385,82.364 C268.484,82.386 273.731,82.943 275.866,96.478 L254.131,96.478 C256.263,82.946 261.513,82.386 264.612,82.364 Z M282.965,102.842 L293.092,102.842 C293.449,105.276 293.633,107.987 293.633,111 C293.633,114.013 293.449,116.724 293.092,119.158 L282.949,119.158 C283.114,116.438 283.171,113.685 283.171,111 C283.171,108.267 283.117,105.524 282.965,102.842 Z M291.571,96.478 L282.37,96.478 C281.727,91.769 280.61,87.474 278.723,84.044 C284.692,85.921 289.15,89.637 291.571,96.478 Z M251.433,83.996 C249.492,87.467 248.34,91.807 247.675,96.478 L238.429,96.478 C240.872,89.577 245.387,85.854 251.436,83.996 Z M238.429,125.522 L247.63,125.522 C248.273,130.231 249.39,134.526 251.277,137.956 C245.308,136.079 240.85,132.363 238.429,125.522 Z M278.567,138.004 C280.508,134.533 281.66,130.193 282.325,125.522 L291.571,125.522 C289.128,132.423 284.613,136.146 278.564,138.004 Z" />
        </g>
        <g id="Regular-S">
            <path d="M465,76 C448.703,76 430,79.977 430,111 C430,142.023 448.703,146 465,146 C481.297,146 500,142.023 500,111 C500,79.977 481.297,76 465,76 Z M465.35,139.636 C465.232,139.636 464.765,139.636 464.647,139.636 C461.554,139.617 456.272,139.108 454.131,125.522 L475.866,125.522 C473.725,139.108 468.443,139.617 465.35,139.636 Z M453.44,119.158 C453.275,116.737 453.186,114.029 453.186,111 C453.186,107.971 453.275,105.263 453.44,102.842 L476.553,102.842 C476.719,105.263 476.808,107.971 476.808,111 C476.808,114.029 476.719,116.737 476.553,119.158 L453.44,119.158 Z M436.36,111 C436.36,107.987 436.545,105.276 436.901,102.842 L447.045,102.842 C446.88,105.562 446.822,108.315 446.822,111 C446.822,113.733 446.876,116.476 447.029,119.158 L436.905,119.158 C436.548,116.724 436.364,114.013 436.364,111 Z M464.612,82.364 C464.739,82.364 465.258,82.364 465.385,82.364 C468.484,82.386 473.731,82.943 475.866,96.478 L454.131,96.478 C456.263,82.946 461.513,82.386 464.612,82.364 Z M482.965,102.842 L493.092,102.842 C493.449,105.276 493.633,107.987 493.633,111 C493.633,114.013 493.449,116.724 493.092,119.158 L482.949,119.158 C483.114,116.438 483.171,113.685 483.171,111 C483.171,108.267 483.117,105.524 482.965,102.842 Z M491.571,96.478 L482.37,96.478 C481.727,91.769 480.61,87.474 478.723,84.044 C484.692,85.921 489.15,89.637 491.571,96.478 Z M451.433,83.996 C449.492,87.467 448.34,91.807 447.675,96.478 L438.429,96.478 C440.872,89.577 445.387,85.854 451.436,83.996 Z M438.429,125.522 L447.63,125.522 C448.273,130.231 449.39,134.526 451.277,137.956 C445.308,136.079 440.85,132.363 438.429,125.522 Z M478.567,138.004 C480.508,134.533 481.66,130.193 482.325,125.522 L491.571,125.522 C489.128,132.423 484.613,136.146 478.564,138.004 Z" />
        </g>
        <g id="Black-S">
            <path d="M665,76 C648.703,76 630,79.977 630,111 C630,142.023 648.703,146 665,146 C681.297,146 700,142.023 700,111 C700,79.977 681.297,76 665,76 Z M665.35,139.636 C665.232,139.636 664.765,139.636 664.647,139.636 C661.554,139.617 656.272,139.108 654.131,125.522 L675.866,125.522 C673.725,139.108 668.443,139.617 665.35,139.636 Z M653.44,119.158 C653.275,116.737 653.186,114.029 653.186,111 C653.186,107.971 653.275,105.263 653.44,102.842 L676.553,102.842 C676.719,105.263 676.808,107.971 676.808,111 C676.808,114.029 676.719,116.737 676.553,119.158 L653.44,119.158 Z M636.36,111 C636.36,107.987 636.545,105.276 636.901,102.842 L647.045,102.842 C646.88,105.562 646.822,108.315 646.822,111 C646.822,113.733 646.876,116.476 647.029,119.158 L636.905,119.158 C636.548,116.724 636.364,114.013 636.364,111 Z M664.612,82.364 C664.739,82.364 665.258,82.364 665.385,82.364 C668.484,82.386 673.731,82.943 675.866,96.478 L654.131,96.478 C656.263,82.946 661.513,82.386 664.612,82.364 Z M682.965,102.842 L693.092,102.842 C693.449,105.276 693.633,107.987 693.633,111 C693.633,114.013 693.449,116.724 693.092,119.158 L682.949,119.158 C683.114,116.438 683.171,113.685 683.171,111 C683.171,108.267 683.117,105.524 682.965,102.842 Z M691.571,96.478 L682.37,96.478 C681.727,91.769 680.61,87.474 678.723,84.044 C684.692,85.921 689.15,89.637 691.571,96.478 Z M651.433,83.996 C649.492,87.467 648.34,91.807 647.675,96.478 L638.429,96.478 C640.872,89.577 645.387,85.854 651.436,83.996 Z M638.429,125.522 L647.63,125.522 C648.273,130.231 649.39,134.526 651.277,137.956 C645.308,136.079 640.85,132.363 638.429,125.522 Z M678.567,138.004 C680.508,134.533 681.66,130.193 682.325,125.522 L691.571,125.522 C689.128,132.423 684.613,136.146 678.564,138.004 Z" />
        </g>
    </g>
</svg>