<?xml version="1.0" encoding="UTF-8"?>
<svg height="600" width="800" xmlns="http://www.w3.org/2000/svg" xmlns:xlink="http://www.w3.org/1999/xlink">
    <g id="Notes" font-family="'LucidaGrande', 'Lucida Grande', sans-serif" font-size="13">
        <rect fill="white" height="600.0" width="800.0" x="0.0" y="0.0" />
        <g font-size="13">
            <text x="18.0" y="176.0">Small</text>
            <text x="18.0" y="376.0">Medium</text>
            <text x="18.0" y="576.0">Large</text>
        </g>
        <g font-size="9">
            <text x="250.0" y="30.0">Ultralight</text>
            <text x="450.0" y="30.0">Regular</text>
            <text x="650.0" y="30.0">Black</text>
            <text id="template-version" fill="#505050" text-anchor="end" x="785.0" y="575.0">Template v.3.0</text>
            <a href="https://wangchujiang.com/#/app">
                <text fill="#505050" text-anchor="end" x="785.0" y="590.0">https://wangchujiang.com/#/app</text>
            </a>
        </g>
    </g>
    <g id="Guides" stroke="rgb(39, 170, 225)" stroke-width="0.5">
        <path id="Capline-S" d="M18,76 l800,0" />
        <path id="H-reference" d="M85,145.755 L87.685,145.755 L113.369,79.287 L114.052,79.287 L114.052,76 L112.148,76 L85,145.755 Z M95.693,121.536 L130.996,121.536 L130.263,119.313 L96.474,119.313 L95.693,121.536 Z M139.15,145.755 L141.787,145.755 L114.638,76 L113.466,76 L113.466,79.287 L139.15,145.755 Z" stroke="none" />
        <path id="Baseline-S" d="M18,146 l800,0" />
        <path id="left-margin-Ultralight-S" d="M218.335,56 l0,110" />
        <path id="right-margin-Ultralight-S" d="M311.665,56 l0,110" />
        <path id="left-margin-Regular-S" d="M418.335,56 l0,110" />
        <path id="right-margin-Regular-S" d="M511.665,56 l0,110" />
        <path id="left-margin-Black-S" d="M618.335,56 l0,110" />
        <path id="right-margin-Black-S" d="M711.665,56 l0,110" />
        <path id="Capline-M" d="M18,276 l800,0" />
        <path id="Baseline-M" d="M18,346 l800,0" />
        <path id="Capline-L" d="M18,476 l800,0" />
        <path id="Baseline-L" d="M18,546 l800,0" />
    </g>
    <g id="Symbols">
        <g id="Ultralight-S">
            <path d="M261.666,114.335 L261.666,94.336 C261.666,92.496 263.16,91.003 265,91.003 C266.839,91.003 268.333,92.496 268.333,94.336 L268.333,114.335 C268.333,116.175 266.839,117.668 265,117.668 C263.16,117.668 261.666,116.175 261.666,114.335 Z M265.003,124.334 C263.163,124.334 261.67,125.828 261.67,127.668 C261.67,129.507 263.163,131.001 265.003,131.001 C266.843,131.001 268.336,129.507 268.336,127.668 C268.336,125.828 266.843,124.334 265.003,124.334 Z M301.498,112.048 C297.491,124.151 291.815,134.337 284.145,143.183 C283.659,143.74 283.005,144.123 282.279,144.267 C281.929,144.337 273.543,146 265,146 C256.457,146 248.074,144.337 247.72,144.267 C246.997,144.123 246.34,143.74 245.857,143.183 C238.184,134.337 232.508,124.154 228.505,112.048 C228.278,111.368 228.278,110.632 228.505,109.952 C232.511,97.846 238.188,87.663 245.857,78.817 C246.34,78.26 246.997,77.877 247.72,77.733 C248.074,77.663 256.457,76 265,76 C273.543,76 281.929,77.663 282.279,77.733 C283.005,77.877 283.659,78.26 284.145,78.817 C291.815,87.663 297.491,97.846 301.498,109.952 C301.721,110.632 301.721,111.368 301.498,112.048 Z M294.815,111.002 C291.252,100.605 286.349,91.773 279.862,84.066 C277.386,83.636 271.143,82.67 265.003,82.67 C258.863,82.67 252.624,83.636 250.147,84.066 C243.661,91.773 238.757,100.605 235.191,111.002 C238.754,121.398 243.657,130.231 250.147,137.937 C252.624,138.367 258.863,139.334 265.003,139.334 C271.143,139.334 277.386,138.367 279.862,137.937 C286.349,130.231 291.252,121.398 294.815,111.002 Z" />
        </g>
        <g id="Regular-S">
            <path d="M461.666,114.335 L461.666,94.336 C461.666,92.496 463.16,91.003 465,91.003 C466.84,91.003 468.333,92.496 468.333,94.336 L468.333,114.335 C468.333,116.175 466.84,117.668 465,117.668 C463.16,117.668 461.666,116.175 461.666,114.335 Z M465.003,124.334 C463.163,124.334 461.67,125.828 461.67,127.668 C461.67,129.507 463.163,131.001 465.003,131.001 C466.843,131.001 468.336,129.507 468.336,127.668 C468.336,125.828 466.843,124.334 465.003,124.334 Z M501.498,112.048 C497.491,124.151 491.815,134.337 484.145,143.183 C483.659,143.74 483.005,144.123 482.279,144.267 C481.929,144.337 473.543,146 465,146 C456.457,146 448.074,144.337 447.72,144.267 C446.997,144.123 446.34,143.74 445.857,143.183 C438.184,134.337 432.508,124.154 428.505,112.048 C428.278,111.368 428.278,110.632 428.505,109.952 C432.511,97.846 438.188,87.663 445.857,78.817 C446.34,78.26 446.997,77.877 447.72,77.733 C448.074,77.663 456.457,76 465,76 C473.543,76 481.929,77.663 482.279,77.733 C483.005,77.877 483.659,78.26 484.145,78.817 C491.815,87.663 497.491,97.846 501.498,109.952 C501.721,110.632 501.721,111.368 501.498,112.048 Z M494.815,111.002 C491.252,100.605 486.349,91.773 479.862,84.066 C477.386,83.636 471.143,82.67 465.003,82.67 C458.863,82.67 452.624,83.636 450.147,84.066 C443.661,91.773 438.758,100.605 435.191,111.002 C438.754,121.398 443.657,130.231 450.147,137.937 C452.624,138.367 458.863,139.334 465.003,139.334 C471.143,139.334 477.386,138.367 479.862,137.937 C486.349,130.231 491.252,121.398 494.815,111.002 Z" />
        </g>
        <g id="Black-S">
            <path d="M661.666,114.335 L661.666,94.336 C661.666,92.496 663.16,91.003 665,91.003 C666.839,91.003 668.333,92.496 668.333,94.336 L668.333,114.335 C668.333,116.175 666.839,117.668 665,117.668 C663.16,117.668 661.666,116.175 661.666,114.335 Z M665.003,124.334 C663.163,124.334 661.67,125.828 661.67,127.668 C661.67,129.507 663.163,131.001 665.003,131.001 C666.843,131.001 668.336,129.507 668.336,127.668 C668.336,125.828 666.843,124.334 665.003,124.334 Z M701.498,112.048 C697.491,124.151 691.815,134.337 684.145,143.183 C683.659,143.74 683.005,144.123 682.279,144.267 C681.929,144.337 673.542,146 665,146 C656.457,146 648.074,144.337 647.72,144.267 C646.997,144.123 646.34,143.74 645.857,143.183 C638.184,134.337 632.508,124.154 628.505,112.048 C628.278,111.368 628.278,110.632 628.505,109.952 C632.511,97.846 638.188,87.663 645.857,78.817 C646.34,78.26 646.997,77.877 647.72,77.733 C648.074,77.663 656.457,76 665,76 C673.542,76 681.929,77.663 682.279,77.733 C683.005,77.877 683.659,78.26 684.145,78.817 C691.815,87.663 697.491,97.846 701.498,109.952 C701.721,110.632 701.721,111.368 701.498,112.048 Z M694.815,111.002 C691.252,100.605 686.349,91.773 679.862,84.066 C677.386,83.636 671.143,82.67 665.003,82.67 C658.863,82.67 652.623,83.636 650.147,84.066 C643.661,91.773 638.757,100.605 635.191,111.002 C638.754,121.398 643.657,130.231 650.147,137.937 C652.623,138.367 658.863,139.334 665.003,139.334 C671.143,139.334 677.386,138.367 679.862,137.937 C686.349,130.231 691.252,121.398 694.815,111.002 Z" />
        </g>
    </g>
</svg>