<?xml version="1.0" encoding="UTF-8"?>
<svg height="600" width="800" xmlns="http://www.w3.org/2000/svg" xmlns:xlink="http://www.w3.org/1999/xlink">
    <g id="Notes" font-family="'LucidaGrande', 'Lucida Grande', sans-serif" font-size="13">
        <rect fill="white" height="600.0" width="800.0" x="0.0" y="0.0" />
        <g font-size="13">
            <text x="18.0" y="176.0">Small</text>
            <text x="18.0" y="376.0">Medium</text>
            <text x="18.0" y="576.0">Large</text>
        </g>
        <g font-size="9">
            <text x="250.0" y="30.0">Ultralight</text>
            <text x="450.0" y="30.0">Regular</text>
            <text x="650.0" y="30.0">Black</text>
            <text id="template-version" fill="#505050" text-anchor="end" x="785.0" y="575.0">Template v.3.0</text>
            <a href="https://wangchujiang.com/#/app">
                <text fill="#505050" text-anchor="end" x="785.0" y="590.0">https://wangchujiang.com/#/app</text>
            </a>
        </g>
    </g>
    <g id="Guides" stroke="rgb(39, 170, 225)" stroke-width="0.5">
        <path id="Capline-S" d="M18,76 l800,0" />
        <path id="H-reference" d="M85,145.755 L87.685,145.755 L113.369,79.287 L114.052,79.287 L114.052,76 L112.148,76 L85,145.755 Z M95.693,121.536 L130.996,121.536 L130.263,119.313 L96.474,119.313 L95.693,121.536 Z M139.15,145.755 L141.787,145.755 L114.638,76 L113.466,76 L113.466,79.287 L139.15,145.755 Z" stroke="none" />
        <path id="Baseline-S" d="M18,146 l800,0" />
        <path id="left-margin-Ultralight-S" d="M220.07,56 l0,110" />
        <path id="right-margin-Ultralight-S" d="M309.93,56 l0,110" />
        <path id="left-margin-Regular-S" d="M420.07,56 l0,110" />
        <path id="right-margin-Regular-S" d="M509.93,56 l0,110" />
        <path id="left-margin-Black-S" d="M620.07,56 l0,110" />
        <path id="right-margin-Black-S" d="M709.93,56 l0,110" />
        <path id="Capline-M" d="M18,276 l800,0" />
        <path id="Baseline-M" d="M18,346 l800,0" />
        <path id="Capline-L" d="M18,476 l800,0" />
        <path id="Baseline-L" d="M18,546 l800,0" />
    </g>
    <g id="Symbols">
        <g id="Ultralight-S">
            <path d="M256.452,116.284 C239.498,116.389 230.379,125.543 230.07,142.761 C230.054,143.617 230.385,144.438 230.983,145.049 C231.582,145.656 232.396,146 233.252,146 L279.693,146 C280.549,146 281.364,145.66 281.962,145.049 C282.56,144.441 282.891,143.617 282.875,142.761 C282.582,125.795 273.215,116.392 256.452,116.284 Z" />
            <path d="M295.157,108.459 L291.142,108.459 L291.142,104.444 C291.142,101.806 289.003,99.671 286.369,99.671 C283.734,99.671 281.596,101.806 281.596,104.444 L281.596,108.459 L277.583,108.459 C274.949,108.459 272.81,110.594 272.81,113.232 C272.81,115.87 274.949,118.005 277.583,118.005 L281.596,118.005 L281.596,122.021 C281.596,124.655 283.734,126.794 286.369,126.794 C289.003,126.794 291.142,124.655 291.142,122.021 L291.142,118.005 L295.157,118.005 C297.792,118.005 299.93,115.867 299.93,113.232 C299.93,110.597 297.792,108.459 295.157,108.459 Z" />
            <path d="M256.49,111.982 C267.98,111.915 274.166,105.71 274.379,93.937 C274.182,82.609 267.662,76.073 256.452,76 C245.121,76.07 238.563,82.752 238.563,94.048 C238.563,105.344 245.124,111.915 256.49,111.982 Z" />
        </g>
        <g id="Regular-S">
            <path d="M456.452,116.284 C439.498,116.389 430.379,125.543 430.07,142.761 C430.054,143.617 430.385,144.438 430.983,145.049 C431.582,145.656 432.396,146 433.252,146 L479.693,146 C480.549,146 481.364,145.66 481.962,145.049 C482.56,144.441 482.891,143.617 482.875,142.761 C482.582,125.795 473.215,116.392 456.452,116.284 Z" />
            <path d="M495.157,108.459 L491.142,108.459 L491.142,104.444 C491.142,101.806 489.003,99.671 486.369,99.671 C483.734,99.671 481.596,101.806 481.596,104.444 L481.596,108.459 L477.583,108.459 C474.949,108.459 472.81,110.594 472.81,113.232 C472.81,115.87 474.949,118.005 477.583,118.005 L481.596,118.005 L481.596,122.021 C481.596,124.655 483.734,126.794 486.369,126.794 C489.003,126.794 491.142,124.655 491.142,122.021 L491.142,118.005 L495.157,118.005 C497.792,118.005 499.93,115.867 499.93,113.232 C499.93,110.597 497.792,108.459 495.157,108.459 Z" />
            <path d="M456.49,111.982 C467.98,111.915 474.166,105.71 474.379,93.937 C474.182,82.609 467.662,76.073 456.452,76 C445.121,76.07 438.563,82.752 438.563,94.048 C438.563,105.344 445.124,111.915 456.49,111.982 Z" />
        </g>
        <g id="Black-S">
            <path d="M656.452,116.284 C639.498,116.389 630.379,125.543 630.07,142.761 C630.054,143.617 630.385,144.438 630.984,145.049 C631.582,145.656 632.396,146 633.252,146 L679.693,146 C680.549,146 681.364,145.66 681.962,145.049 C682.56,144.441 682.891,143.617 682.875,142.761 C682.582,125.795 673.214,116.392 656.452,116.284 Z" />
            <path d="M695.157,108.459 L691.142,108.459 L691.142,104.444 C691.142,101.806 689.003,99.671 686.369,99.671 C683.734,99.671 681.596,101.806 681.596,104.444 L681.596,108.459 L677.583,108.459 C674.949,108.459 672.81,110.594 672.81,113.232 C672.81,115.87 674.949,118.005 677.583,118.005 L681.596,118.005 L681.596,122.021 C681.596,124.655 683.734,126.794 686.369,126.794 C689.003,126.794 691.142,124.655 691.142,122.021 L691.142,118.005 L695.157,118.005 C697.792,118.005 699.93,115.867 699.93,113.232 C699.93,110.597 697.792,108.459 695.157,108.459 Z" />
            <path d="M656.49,111.982 C667.98,111.915 674.166,105.71 674.379,93.937 C674.182,82.609 667.662,76.073 656.452,76 C645.121,76.07 638.563,82.752 638.563,94.048 C638.563,105.344 645.124,111.915 656.49,111.982 Z" />
        </g>
    </g>
</svg>