<?xml version="1.0" encoding="UTF-8"?>
<!--Generator: Apple Native CoreSVG 341-->
<!DOCTYPE svg
PUBLIC "-//W3C//DTD SVG 1.1//EN"
       "http://www.w3.org/Graphics/SVG/1.1/DTD/svg11.dtd">
<svg version="1.1" xmlns="http://www.w3.org/2000/svg" xmlns:xlink="http://www.w3.org/1999/xlink" viewBox="0 0 3300 2200">
 <!--glyph: "", point size: 100.0, font version: "20.0d10e1", template writer version: "138.0.0"-->
 <style>.SFSymbolsPreviewWireframe {fill:none;opacity:1.0;stroke:black;stroke-width:0.5}
</style>
 <g id="Notes">
  <rect height="2200" id="artboard" style="fill:white;opacity:1" width="3300" x="0" y="0"/>
  <line style="fill:none;stroke:black;opacity:1;stroke-width:0.5;" x1="263" x2="3036" y1="292" y2="292"/>
  <text style="stroke:none;fill:black;font-family:sans-serif;font-size:13;font-weight:bold;" transform="matrix(1 0 0 1 263 322)">Weight/Scale Variations</text>
  <text style="stroke:none;fill:black;font-family:sans-serif;font-size:13;text-anchor:middle;" transform="matrix(1 0 0 1 559.711 322)">Ultralight</text>
  <text style="stroke:none;fill:black;font-family:sans-serif;font-size:13;text-anchor:middle;" transform="matrix(1 0 0 1 856.422 322)">Thin</text>
  <text style="stroke:none;fill:black;font-family:sans-serif;font-size:13;text-anchor:middle;" transform="matrix(1 0 0 1 1153.13 322)">Light</text>
  <text style="stroke:none;fill:black;font-family:sans-serif;font-size:13;text-anchor:middle;" transform="matrix(1 0 0 1 1449.84 322)">Regular</text>
  <text style="stroke:none;fill:black;font-family:sans-serif;font-size:13;text-anchor:middle;" transform="matrix(1 0 0 1 1746.56 322)">Medium</text>
  <text style="stroke:none;fill:black;font-family:sans-serif;font-size:13;text-anchor:middle;" transform="matrix(1 0 0 1 2043.27 322)">Semibold</text>
  <text style="stroke:none;fill:black;font-family:sans-serif;font-size:13;text-anchor:middle;" transform="matrix(1 0 0 1 2339.98 322)">Bold</text>
  <text style="stroke:none;fill:black;font-family:sans-serif;font-size:13;text-anchor:middle;" transform="matrix(1 0 0 1 2636.69 322)">Heavy</text>
  <text style="stroke:none;fill:black;font-family:sans-serif;font-size:13;text-anchor:middle;" transform="matrix(1 0 0 1 2933.4 322)">Black</text>
  <line style="fill:none;stroke:black;opacity:1;stroke-width:0.5;" x1="263" x2="3036" y1="1903" y2="1903"/>
  <g transform="matrix(0.2 0 0 0.2 263 1933)">
   <path d="m46.2402 4.15039c21.7773 0 39.4531-17.627 39.4531-39.4043s-17.6758-39.4043-39.4531-39.4043c-21.7285 0-39.4043 17.627-39.4043 39.4043s17.6758 39.4043 39.4043 39.4043Zm0-7.42188c-17.6758 0-31.9336-14.3066-31.9336-31.9824s14.2578-31.9824 31.9336-31.9824 31.9824 14.3066 31.9824 31.9824-14.3066 31.9824-31.9824 31.9824Zm-17.9688-31.9824c0 2.14844 1.51367 3.61328 3.75977 3.61328h10.498v10.5957c0 2.19727 1.46484 3.71094 3.61328 3.71094 2.24609 0 3.71094-1.51367 3.71094-3.71094v-10.5957h10.5957c2.19727 0 3.71094-1.46484 3.71094-3.61328 0-2.19727-1.51367-3.71094-3.71094-3.71094h-10.5957v-10.5469c0-2.24609-1.46484-3.75977-3.71094-3.75977-2.14844 0-3.61328 1.51367-3.61328 3.75977v10.5469h-10.498c-2.24609 0-3.75977 1.51367-3.75977 3.71094Z"/>
  </g>
  <g transform="matrix(0.2 0 0 0.2 281.506 1933)">
   <path d="m58.5449 14.5508c27.4902 0 49.8047-22.3145 49.8047-49.8047s-22.3145-49.8047-49.8047-49.8047-49.8047 22.3145-49.8047 49.8047 22.3145 49.8047 49.8047 49.8047Zm0-8.30078c-22.9492 0-41.5039-18.5547-41.5039-41.5039s18.5547-41.5039 41.5039-41.5039 41.5039 18.5547 41.5039 41.5039-18.5547 41.5039-41.5039 41.5039Zm-22.6562-41.5039c0 2.39258 1.66016 4.00391 4.15039 4.00391h14.3555v14.4043c0 2.44141 1.66016 4.15039 4.05273 4.15039 2.44141 0 4.15039-1.66016 4.15039-4.15039v-14.4043h14.4043c2.44141 0 4.15039-1.61133 4.15039-4.00391 0-2.44141-1.70898-4.15039-4.15039-4.15039h-14.4043v-14.3555c0-2.49023-1.70898-4.19922-4.15039-4.19922-2.39258 0-4.05273 1.70898-4.05273 4.19922v14.3555h-14.3555c-2.49023 0-4.15039 1.70898-4.15039 4.15039Z"/>
  </g>
  <g transform="matrix(0.2 0 0 0.2 304.924 1933)">
   <path d="m74.8535 28.3203c35.1074 0 63.623-28.4668 63.623-63.5742s-28.5156-63.623-63.623-63.623-63.5742 28.5156-63.5742 63.623 28.4668 63.5742 63.5742 63.5742Zm0-9.08203c-30.127 0-54.4922-24.3652-54.4922-54.4922s24.3652-54.4922 54.4922-54.4922 54.4922 24.3652 54.4922 54.4922-24.3652 54.4922-54.4922 54.4922Zm-28.8574-54.4922c0 2.58789 1.85547 4.39453 4.58984 4.39453h19.7266v19.7754c0 2.68555 1.85547 4.58984 4.44336 4.58984 2.68555 0 4.54102-1.85547 4.54102-4.58984v-19.7754h19.7754c2.68555 0 4.58984-1.80664 4.58984-4.39453 0-2.73438-1.85547-4.58984-4.58984-4.58984h-19.7754v-19.7266c0-2.73438-1.85547-4.63867-4.54102-4.63867-2.58789 0-4.44336 1.9043-4.44336 4.63867v19.7266h-19.7266c-2.73438 0-4.58984 1.85547-4.58984 4.58984Z"/>
  </g>
  <text style="stroke:none;fill:black;font-family:sans-serif;font-size:13;font-weight:bold;" transform="matrix(1 0 0 1 263 1953)">Design Variations</text>
  <text style="stroke:none;fill:black;font-family:sans-serif;font-size:13;" transform="matrix(1 0 0 1 263 1971)">Symbols are supported in up to nine weights and three scales.</text>
  <text style="stroke:none;fill:black;font-family:sans-serif;font-size:13;" transform="matrix(1 0 0 1 263 1989)">For optimal layout with text and other symbols, vertically align</text>
  <text style="stroke:none;fill:black;font-family:sans-serif;font-size:13;" transform="matrix(1 0 0 1 263 2007)">symbols with the adjacent text.</text>
  <line style="fill:none;stroke:#00AEEF;stroke-width:0.5;opacity:1.0;" x1="776" x2="776" y1="1919" y2="1933"/>
  <g transform="matrix(0.2 0 0 0.2 776 1933)">
   <path d="m16.5527 0.78125c2.58789 0 3.85742-0.976562 4.78516-3.71094l6.29883-17.2363h28.8086l6.29883 17.2363c0.927734 2.73438 2.19727 3.71094 4.73633 3.71094 2.58789 0 4.24805-1.5625 4.24805-4.00391 0-0.830078-0.146484-1.61133-0.537109-2.63672l-22.9004-60.9863c-1.12305-2.97852-3.125-4.49219-6.25-4.49219-3.02734 0-5.07812 1.46484-6.15234 4.44336l-22.9004 61.084c-0.390625 1.02539-0.537109 1.80664-0.537109 2.63672 0 2.44141 1.5625 3.95508 4.10156 3.95508Zm13.4766-28.3691 11.8652-32.8613h0.244141l11.8652 32.8613Z"/>
  </g>
  <line style="fill:none;stroke:#00AEEF;stroke-width:0.5;opacity:1.0;" x1="792.836" x2="792.836" y1="1919" y2="1933"/>
  <text style="stroke:none;fill:black;font-family:sans-serif;font-size:13;font-weight:bold;" transform="matrix(1 0 0 1 776 1953)">Margins</text>
  <text style="stroke:none;fill:black;font-family:sans-serif;font-size:13;" transform="matrix(1 0 0 1 776 1971)">Leading and trailing margins on the left and right side of each symbol</text>
  <text style="stroke:none;fill:black;font-family:sans-serif;font-size:13;" transform="matrix(1 0 0 1 776 1989)">can be adjusted by modifying the x-location of the margin guidelines.</text>
  <text style="stroke:none;fill:black;font-family:sans-serif;font-size:13;" transform="matrix(1 0 0 1 776 2007)">Modifications are automatically applied proportionally to all</text>
  <text style="stroke:none;fill:black;font-family:sans-serif;font-size:13;" transform="matrix(1 0 0 1 776 2025)">scales and weights.</text>
  <g transform="matrix(0.2 0 0 0.2 1289 1933)">
   <path d="m14.209 9.32617 8.49609 8.54492c4.29688 4.3457 9.22852 4.05273 13.8672-1.07422l53.4668-58.9355-4.83398-4.88281-53.0762 58.3984c-1.75781 2.00195-3.41797 2.49023-5.76172 0.146484l-5.85938-5.81055c-2.34375-2.29492-1.80664-4.00391 0.195312-5.81055l57.373-54.0039-4.88281-4.83398-57.959 54.4434c-4.93164 4.58984-5.32227 9.47266-1.02539 13.8184Zm32.0801-90.9668c-2.09961 2.05078-2.24609 4.93164-1.07422 6.88477 1.17188 1.80664 3.4668 2.97852 6.68945 2.14844 7.32422-1.70898 14.9414-2.00195 22.0703 2.68555l-2.92969 7.27539c-1.70898 4.15039-0.830078 7.08008 1.85547 9.81445l11.4746 11.5723c2.44141 2.44141 4.49219 2.53906 7.32422 2.05078l5.32227-0.976562 3.32031 3.36914-0.195312 2.7832c-0.195312 2.49023 0.439453 4.39453 2.88086 6.78711l3.80859 3.71094c2.39258 2.39258 5.46875 2.53906 7.8125 0.195312l14.5508-14.5996c2.34375-2.34375 2.24609-5.32227-0.146484-7.71484l-3.85742-3.80859c-2.39258-2.39258-4.24805-3.17383-6.64062-2.97852l-2.88086 0.244141-3.22266-3.17383 1.2207-5.61523c0.634766-2.83203-0.146484-5.0293-3.07617-7.95898l-10.9863-10.9375c-16.6992-16.6016-38.8672-16.2109-53.3203-1.75781Zm7.4707 1.85547c12.1582-8.88672 28.6133-7.37305 39.7461 3.75977l12.1582 12.0605c1.17188 1.17188 1.36719 2.09961 1.02539 3.80859l-1.61133 7.42188 7.51953 7.42188 4.93164-0.292969c1.26953-0.0488281 1.66016 0.0488281 2.63672 1.02539l2.88086 2.88086-12.207 12.207-2.88086-2.88086c-0.976562-0.976562-1.12305-1.36719-1.07422-2.68555l0.341797-4.88281-7.4707-7.42188-7.61719 1.26953c-1.61133 0.341797-2.34375 0.195312-3.56445-0.976562l-10.0098-10.0098c-1.26953-1.17188-1.41602-2.00195-0.634766-3.85742l4.39453-10.4492c-7.8125-7.27539-17.9688-10.4004-28.125-7.42188-0.78125 0.195312-1.07422-0.439453-0.439453-0.976562Z"/>
  </g>
  <text style="stroke:none;fill:black;font-family:sans-serif;font-size:13;font-weight:bold;" transform="matrix(1 0 0 1 1289 1953)">Exporting</text>
  <text style="stroke:none;fill:black;font-family:sans-serif;font-size:13;" transform="matrix(1 0 0 1 1289 1971)">Symbols should be outlined when exporting to ensure the</text>
  <text style="stroke:none;fill:black;font-family:sans-serif;font-size:13;" transform="matrix(1 0 0 1 1289 1989)">design is preserved when submitting to Xcode.</text>
  <text id="template-version" style="stroke:none;fill:black;font-family:sans-serif;font-size:13;text-anchor:end;" transform="matrix(1 0 0 1 3036 1933)">Template v.6.0</text>
  <text style="stroke:none;fill:black;font-family:sans-serif;font-size:13;text-anchor:end;" transform="matrix(1 0 0 1 3036 1951)">Requires Xcode 16 or greater</text>
  <text id="descriptive-name" style="stroke:none;fill:black;font-family:sans-serif;font-size:13;text-anchor:end;" transform="matrix(1 0 0 1 3036 1969)">Generated from tumblr</text>
  <text style="stroke:none;fill:black;font-family:sans-serif;font-size:13;text-anchor:end;" transform="matrix(1 0 0 1 3036 1987)">Typeset at 100.0 points</text>
  <text style="stroke:none;fill:black;font-family:sans-serif;font-size:13;" transform="matrix(1 0 0 1 263 726)">Small</text>
  <text style="stroke:none;fill:black;font-family:sans-serif;font-size:13;" transform="matrix(1 0 0 1 263 1156)">Medium</text>
  <text style="stroke:none;fill:black;font-family:sans-serif;font-size:13;" transform="matrix(1 0 0 1 263 1586)">Large</text>
 </g>
 <g id="Guides">
  <g id="H-reference" style="fill:#27AAE1;stroke:none;" transform="matrix(1 0 0 1 339 696)">
   <path d="M0.993654 0L3.63775 0L29.3281-67.1323L30.0303-67.1323L30.0303-70.459L28.1226-70.459ZM11.6885-24.4799L46.9815-24.4799L46.2315-26.7285L12.4385-26.7285ZM55.1196 0L57.7637 0L30.6382-70.459L29.4326-70.459L29.4326-67.1323Z"/>
  </g>
  <line id="Baseline-S" style="fill:none;stroke:#27AAE1;opacity:1;stroke-width:0.5;" x1="263" x2="3036" y1="696" y2="696"/>
  <line id="Capline-S" style="fill:none;stroke:#27AAE1;opacity:1;stroke-width:0.5;" x1="263" x2="3036" y1="625.541" y2="625.541"/>
  <g id="H-reference" style="fill:#27AAE1;stroke:none;" transform="matrix(1 0 0 1 339 1126)">
   <path d="M0.993654 0L3.63775 0L29.3281-67.1323L30.0303-67.1323L30.0303-70.459L28.1226-70.459ZM11.6885-24.4799L46.9815-24.4799L46.2315-26.7285L12.4385-26.7285ZM55.1196 0L57.7637 0L30.6382-70.459L29.4326-70.459L29.4326-67.1323Z"/>
  </g>
  <line id="Baseline-M" style="fill:none;stroke:#27AAE1;opacity:1;stroke-width:0.5;" x1="263" x2="3036" y1="1126" y2="1126"/>
  <line id="Capline-M" style="fill:none;stroke:#27AAE1;opacity:1;stroke-width:0.5;" x1="263" x2="3036" y1="1055.54" y2="1055.54"/>
  <g id="H-reference" style="fill:#27AAE1;stroke:none;" transform="matrix(1 0 0 1 339 1556)">
   <path d="M0.993654 0L3.63775 0L29.3281-67.1323L30.0303-67.1323L30.0303-70.459L28.1226-70.459ZM11.6885-24.4799L46.9815-24.4799L46.2315-26.7285L12.4385-26.7285ZM55.1196 0L57.7637 0L30.6382-70.459L29.4326-70.459L29.4326-67.1323Z"/>
  </g>
  <line id="Baseline-L" style="fill:none;stroke:#27AAE1;opacity:1;stroke-width:0.5;" x1="263" x2="3036" y1="1556" y2="1556"/>
  <line id="Capline-L" style="fill:none;stroke:#27AAE1;opacity:1;stroke-width:0.5;" x1="263" x2="3036" y1="1485.54" y2="1485.54"/>
  <line id="right-margin-Black-S" style="fill:none;stroke:#00AEEF;stroke-width:0.5;opacity:1.0;" x1="2971.07" x2="2971.07" y1="600.785" y2="720.121"/>
  <line id="left-margin-Black-S" style="fill:none;stroke:#00AEEF;stroke-width:0.5;opacity:1.0;" x1="2895.73" x2="2895.73" y1="600.785" y2="720.121"/>
  <line id="right-margin-Regular-S" style="fill:none;stroke:#00AEEF;stroke-width:0.5;opacity:1.0;" x1="1485" x2="1485" y1="600.785" y2="720.121"/>
  <line id="left-margin-Regular-S" style="fill:none;stroke:#00AEEF;stroke-width:0.5;opacity:1.0;" x1="1414.69" x2="1414.69" y1="600.785" y2="720.121"/>
  <line id="right-margin-Ultralight-S" style="fill:none;stroke:#00AEEF;stroke-width:0.5;opacity:1.0;" x1="593.755" x2="593.755" y1="600.785" y2="720.121"/>
  <line id="left-margin-Ultralight-S" style="fill:none;stroke:#00AEEF;stroke-width:0.5;opacity:1.0;" x1="525.667" x2="525.667" y1="600.785" y2="720.121"/>
 </g>
 <g id="Symbols">
  <g id="Black-S" transform="matrix(1 0 0 1 2895.73 696)">
   <path class="SFSymbolsPreviewWireframe" d="M46.6658 2.43066C50.0889 2.43066 52.793 1.758 54.8005 0.955261C55.0173 0.868652 55.124 0.62439 55.0476 0.403809L54.2161-1.9953C54.1458-2.19824 53.9419-2.31976 53.73-2.28528C52.3218-2.05627 48.3108-1.72974 47.5754-1.72974C44.1926-1.72974 35.3848-1.45703 35.3848-16.928L35.3848-45.3642C35.3848-45.8237 35.7573-46.1961 36.2168-46.1961L51.6433-46.1961C51.8633-46.1961 52.042-46.3745 52.042-46.5945L52.042-48.8112C52.042-49.0312 51.8633-49.2095 51.6433-49.2095L36.7639-49.2095C36.3042-49.2095 35.9316-49.582 35.9316-50.0416L35.9316-70.3179C35.9316-70.4913 35.7913-70.6318 35.6177-70.6318L34.7324-70.6318C34.5847-70.6318 34.4583-70.5267 34.4275-70.3822C31.8486-58.197 24.4841-52.3437 19.9304-49.6545C19.6687-49.4999 19.5063-49.2213 19.5063-48.9174L19.5063-46.731C19.5063-46.4356 19.7456-46.1961 20.0413-46.1961L29.5803-46.1961C30.0396-46.1961 30.4121-45.8237 30.4121-45.3642L30.4121-15.3864C30.4121 0.583679 38.937 2.43066 46.6658 2.43066ZM19.9121-37.4461L13.157-37.4461C11.4133-37.4461 10-38.8594 10-40.603L10-52.2277C10-54.1368 11.1958-55.8269 12.9963-56.4632C17.3755-58.0112 25.1462-62.6102 26.4285-75.897C26.6177-77.858 28.2229-79.3818 30.1929-79.3818L42.7754-79.3818C44.4929-79.3818 45.8848-77.9897 45.8848-76.2725L45.8848-57.9595L58.6189-57.9595C60.3625-57.9595 61.7759-56.5461 61.7759-54.8026L61.7759-40.603C61.7759-38.8594 60.3625-37.4461 58.6189-37.4461L45.8848-37.4461L45.8848-16.928C45.8848-12.2654 48.136-10.4797 50.2817-10.4797C51.9702-10.4797 56.4695-11.6934 57.0483-11.8357C58.571-12.21 60.1091-11.6066 60.6868-9.95447C61.2644-8.30237 64.7126 1.52899 64.7126 1.52899C65.3335 3.29956 64.697 5.25165 63.1636 6.33252C60.2595 8.37909 54.7993 11.1807 46.6658 11.1807C34.0305 11.1807 19.9121 5.56635 19.9121-15.3864C19.9121-19.5447 19.9121-37.4461 19.9121-37.4461Z"/>
  </g>
  <g id="Regular-S" transform="matrix(1 0 0 1 1414.69 696)">
   <path class="SFSymbolsPreviewWireframe" d="M43.3369-0.239624C46.8962-0.239624 49.3782-0.973633 51.7343-1.9538C51.9248-2.03302 52.0197-2.24939 51.9514-2.44415L50.7815-5.78113C50.7181-5.96179 50.5433-6.07153 50.3553-6.03589C49.6816-5.9082 48.0001-5.63263 46.0349-5.63263C42.6378-5.63263 35.4296-8.62933 35.4296-18.6362L35.4296-42.651C35.4296-43.6396 36.231-44.441 37.2196-44.441L49.4639-44.441C49.7473-44.441 49.9772-44.6708 49.9772-44.9543L49.9772-48.2932C49.9772-48.5767 49.7473-48.8066 49.4639-48.8066L37.2196-48.8066C36.231-48.8066 35.4296-49.608 35.4296-50.5966L35.4296-67.7485C35.4296-68.032 35.1997-68.2618 34.9163-68.2618L32.1047-68.2618C31.7847-68.2618 31.5192-68.0189 31.4733-67.7023C29.6194-54.9157 20.0334-49.9448 17.5331-48.8305C17.2998-48.7266 17.16-48.4993 17.16-48.2439L17.16-44.9255C17.16-44.6419 17.3899-44.4121 17.6735-44.4121L24.3809-44.4121C25.3694-44.4121 26.1708-43.6107 26.1709-42.6222L26.1721-17.2345C26.1721-12.2371 26.7932-0.239624 43.3369-0.239624ZM19.0122-37.2914L12.8702-37.2914C11.285-37.2914 10-38.5765 10-40.1616L10-50.7308C10-52.4667 11.0874-54.0034 12.724-54.5818C16.7058-55.9893 23.7712-60.1708 24.9368-72.2512C25.1088-74.0342 26.5682-75.4197 28.3596-75.4197L39.7996-75.4197C41.361-75.4197 42.6266-74.1539 42.6266-72.5927L42.6266-55.9423L54.2047-55.9423C55.7898-55.9423 57.075-54.6572 57.075-53.072L57.075-40.1616C57.075-38.5765 55.7898-37.2914 54.2047-37.2914L42.6266-37.2914L42.6266-18.6362C42.6266-14.397 44.6735-12.7734 46.6244-12.7734C48.1593-12.7734 50.8203-13.4449 52.7765-14.0062C54.1603-14.4033 55.5077-13.8723 56.0847-12.2958C56.6619-10.7194 59.7452-1.85498 59.7452-1.85498C60.3096-0.245178 59.7308 1.52972 58.3364 2.51245C55.6964 4.37317 50.7318 6.92035 43.3368 6.92035C31.8486 6.92035 19.0122 1.8158 19.0122-17.2345C19.0122-21.0154 19.0122-37.2914 19.0122-37.2914Z"/>
  </g>
  <g id="Ultralight-S" transform="matrix(1 0 0 1 525.667 696)">
   <path class="SFSymbolsPreviewWireframe" d="M41.8644 4.02924C48.201 4.02924 52.4737 1.95453 54.9415 0.214722C55.4733-0.160156 55.6966-0.830017 55.4813-1.44403L51.9825-11.4236C51.9169-11.6109 51.7457-11.6945 51.605-11.6945C51.5676-11.6945 47.6246-10.4147 45.0066-10.4147C42.0146-10.4147 38.9955-12.8246 38.9955-18.2084L38.9955-37.1347C38.9955-37.7394 39.4857-38.2297 40.0905-38.2297L52.2521-38.2297C52.5579-38.2297 52.8057-38.4775 52.8057-38.7832L52.8057-51.1234C52.8057-51.4291 52.5579-51.6769 52.2521-51.6769L40.0905-51.6769C39.4857-51.6769 38.9955-52.1671 38.9955-52.7719L38.9955-69.7817C38.9955-70.0646 38.7661-70.2939 38.4832-70.2939L27.5486-70.2939C26.9839-70.2939 26.5146-69.843 26.4568-69.245C25.2308-56.5374 17.7061-52.0466 13.3314-50.501C12.6427-50.2577 12.19-49.6159 12.19-48.8855L12.19-38.7831C12.19-38.4775 12.4377-38.2297 12.7434-38.2297L19.7092-38.2297C20.3139-38.2297 20.8042-37.7394 20.8042-37.1347L20.8042-16.8687C20.8042 1.31421 33.999 4.02924 41.8644 4.02924ZM18.6142-36.0397L12.7434-36.0397C11.2283-36.0397 10-37.268 10-38.7832L10-48.8855C10-50.5447 11.0392-52.0134 12.6036-52.5665C16.4096-53.9118 23.1628-57.9086 24.277-69.4554C24.4414-71.1597 25.8365-72.4839 27.5486-72.4839L38.4834-72.4839C39.9758-72.4839 41.1854-71.274 41.1854-69.7817L41.1854-53.8669L52.2521-53.8669C53.7674-53.8669 54.9957-52.6385 54.9957-51.1234L54.9957-38.7832C54.9957-37.268 53.7674-36.0397 52.2521-36.0397L41.1854-36.0397L41.1854-18.2084C41.1854-14.1566 43.142-12.6047 45.0066-12.6047C46.4739-12.6047 49.0093-13.275 50.887-13.7831C52.4461-14.205 53.5052-13.7253 54.0492-12.1482C54.5931-10.5712 57.548-2.16852 57.548-2.16852C58.0874-0.629883 57.5342 1.06665 56.2015 2.00604C53.678 3.78461 48.9328 6.21924 41.8644 6.21924C30.8836 6.21924 18.6142 1.34015 18.6142-16.8687C18.6142-20.4826 18.6142-36.0397 18.6142-36.0397Z"/>
  </g>
 </g>
</svg>
