<?xml version="1.0" encoding="UTF-8"?>
<svg height="600" width="800" xmlns="http://www.w3.org/2000/svg" xmlns:xlink="http://www.w3.org/1999/xlink">
    <g id="Notes" font-family="'LucidaGrande', 'Lucida Grande', sans-serif" font-size="13">
        <rect fill="white" height="600.0" width="800.0" x="0.0" y="0.0" />
        <g font-size="13">
            <text x="18.0" y="176.0">Small</text>
            <text x="18.0" y="376.0">Medium</text>
            <text x="18.0" y="576.0">Large</text>
        </g>
        <g font-size="9">
            <text x="250.0" y="30.0">Ultralight</text>
            <text x="450.0" y="30.0">Regular</text>
            <text x="650.0" y="30.0">Black</text>
            <text id="template-version" fill="#505050" text-anchor="end" x="785.0" y="575.0">Template v.3.0</text>
            <a href="https://wangchujiang.com/#/app">
                <text fill="#505050" text-anchor="end" x="785.0" y="590.0">https://wangchujiang.com/#/app</text>
            </a>
        </g>
    </g>
    <g id="Guides" stroke="rgb(39, 170, 225)" stroke-width="0.5">
        <path id="Capline-S" d="M18,76 l800,0" />
        <path id="H-reference" d="M85,145.755 L87.685,145.755 L113.369,79.287 L114.052,79.287 L114.052,76 L112.148,76 L85,145.755 Z M95.693,121.536 L130.996,121.536 L130.263,119.313 L96.474,119.313 L95.693,121.536 Z M139.15,145.755 L141.787,145.755 L114.638,76 L113.466,76 L113.466,79.287 L139.15,145.755 Z" stroke="none" />
        <path id="Baseline-S" d="M18,146 l800,0" />
        <path id="left-margin-Ultralight-S" d="M221,56 l0,110" />
        <path id="right-margin-Ultralight-S" d="M309,56 l0,110" />
        <path id="left-margin-Regular-S" d="M421,56 l0,110" />
        <path id="right-margin-Regular-S" d="M509,56 l0,110" />
        <path id="left-margin-Black-S" d="M621,56 l0,110" />
        <path id="right-margin-Black-S" d="M709,56 l0,110" />
        <path id="Capline-M" d="M18,276 l800,0" />
        <path id="Baseline-M" d="M18,346 l800,0" />
        <path id="Capline-L" d="M18,476 l800,0" />
        <path id="Baseline-L" d="M18,546 l800,0" />
    </g>
    <g id="Symbols">
        <g id="Ultralight-S">
            <path d="M265,136.457 C269.569,136.457 274.158,135.519 277.181,134.745 C277.076,135.729 276.977,136.718 276.837,137.67 C276.236,141.806 273.034,145.03 268.872,145.695 C267.606,145.895 266.301,146 265,146 C263.673,146 262.337,145.892 261.023,145.675 C256.87,144.995 253.672,141.758 253.064,137.622 C252.931,136.715 252.832,135.716 252.734,134.723 C255.737,135.493 260.373,136.451 265,136.451 Z M293.638,103.047 C293.638,118.466 285.47,124.977 278.619,127.72 C278.552,127.742 271.533,130.093 265,130.093 C258.267,130.049 251.629,127.809 251.324,127.694 C244.499,124.942 236.362,118.431 236.362,103.047 C236.362,85.858 246.799,76 265,76 C283.201,76 293.638,85.858 293.638,103.047 Z M269.773,115.775 C269.773,113.14 267.635,111.002 265,111.002 C262.365,111.002 260.227,113.14 260.227,115.775 C260.227,118.409 262.365,120.547 265,120.547 C267.635,120.547 269.773,118.409 269.773,115.775 Z M274.546,95.092 C274.546,88.756 271.332,85.546 265,85.546 C258.668,85.546 255.454,88.756 255.454,95.092 C255.454,96.848 256.876,98.274 258.636,98.274 C260.396,98.274 261.818,96.848 261.818,95.092 C261.818,92.298 262.203,91.91 265,91.91 C267.797,91.91 268.182,92.298 268.182,95.092 C268.182,97.641 267.552,97.863 267.132,98.01 C263.854,99.158 261.818,101.698 261.818,104.638 C261.818,106.394 263.234,107.839 264.994,107.839 C266.753,107.839 268.169,106.432 268.169,104.676 C268.242,104.533 268.666,104.214 269.232,104.017 C272.758,102.783 274.546,99.782 274.546,95.092 Z" />
        </g>
        <g id="Regular-S">
            <path d="M465,136.457 C469.569,136.457 474.158,135.519 477.181,134.745 C477.076,135.729 476.977,136.718 476.837,137.67 C476.236,141.806 473.034,145.03 468.872,145.695 C467.606,145.895 466.301,146 465,146 C463.673,146 462.337,145.892 461.023,145.675 C456.87,144.995 453.672,141.758 453.064,137.622 C452.931,136.715 452.832,135.716 452.734,134.723 C455.737,135.493 460.373,136.451 465,136.451 Z M493.638,103.047 C493.638,118.466 485.47,124.977 478.619,127.72 C478.552,127.742 471.533,130.093 465,130.093 C458.267,130.049 451.629,127.809 451.324,127.694 C444.499,124.942 436.362,118.431 436.362,103.047 C436.362,85.858 446.799,76 465,76 C483.201,76 493.638,85.858 493.638,103.047 Z M469.773,115.775 C469.773,113.14 467.635,111.002 465,111.002 C462.365,111.002 460.227,113.14 460.227,115.775 C460.227,118.409 462.365,120.547 465,120.547 C467.635,120.547 469.773,118.409 469.773,115.775 Z M474.546,95.092 C474.546,88.756 471.332,85.546 465,85.546 C458.668,85.546 455.454,88.756 455.454,95.092 C455.454,96.848 456.876,98.274 458.636,98.274 C460.396,98.274 461.818,96.848 461.818,95.092 C461.818,92.298 462.203,91.91 465,91.91 C467.797,91.91 468.182,92.298 468.182,95.092 C468.182,97.641 467.552,97.863 467.132,98.01 C463.854,99.158 461.818,101.698 461.818,104.638 C461.818,106.394 463.234,107.839 464.994,107.839 C466.753,107.839 468.169,106.432 468.169,104.676 C468.242,104.533 468.666,104.214 469.232,104.017 C472.758,102.783 474.546,99.782 474.546,95.092 Z" />
        </g>
        <g id="Black-S">
            <path d="M665,136.457 C669.569,136.457 674.158,135.519 677.181,134.745 C677.076,135.729 676.977,136.718 676.837,137.67 C676.236,141.806 673.034,145.03 668.872,145.695 C667.606,145.895 666.301,146 665,146 C663.673,146 662.337,145.892 661.023,145.675 C656.87,144.995 653.672,141.758 653.064,137.622 C652.931,136.715 652.832,135.716 652.734,134.723 C655.737,135.493 660.373,136.451 665,136.451 Z M693.638,103.047 C693.638,118.466 685.47,124.977 678.619,127.72 C678.552,127.742 671.533,130.093 665,130.093 C658.267,130.049 651.629,127.809 651.324,127.694 C644.499,124.942 636.362,118.431 636.362,103.047 C636.362,85.858 646.799,76 665,76 C683.201,76 693.638,85.858 693.638,103.047 Z M669.773,115.775 C669.773,113.14 667.635,111.002 665,111.002 C662.365,111.002 660.227,113.14 660.227,115.775 C660.227,118.409 662.365,120.547 665,120.547 C667.635,120.547 669.773,118.409 669.773,115.775 Z M674.546,95.092 C674.546,88.756 671.332,85.546 665,85.546 C658.668,85.546 655.454,88.756 655.454,95.092 C655.454,96.848 656.876,98.274 658.636,98.274 C660.396,98.274 661.818,96.848 661.818,95.092 C661.818,92.298 662.203,91.91 665,91.91 C667.797,91.91 668.182,92.298 668.182,95.092 C668.182,97.641 667.552,97.863 667.132,98.01 C663.854,99.158 661.818,101.698 661.818,104.638 C661.818,106.394 663.234,107.839 664.994,107.839 C666.753,107.839 668.169,106.432 668.169,104.676 C668.242,104.533 668.666,104.214 669.232,104.017 C672.758,102.783 674.546,99.782 674.546,95.092 Z" />
        </g>
    </g>
</svg>