<?xml version="1.0" encoding="UTF-8"?>
<svg height="600" width="800" xmlns="http://www.w3.org/2000/svg" xmlns:xlink="http://www.w3.org/1999/xlink">
    <g id="Notes" font-family="'LucidaGrande', 'Lucida Grande', sans-serif" font-size="13">
        <rect fill="white" height="600.0" width="800.0" x="0.0" y="0.0" />
        <g font-size="13">
            <text x="18.0" y="176.0">Small</text>
            <text x="18.0" y="376.0">Medium</text>
            <text x="18.0" y="576.0">Large</text>
        </g>
        <g font-size="9">
            <text x="250.0" y="30.0">Ultralight</text>
            <text x="450.0" y="30.0">Regular</text>
            <text x="650.0" y="30.0">Black</text>
            <text id="template-version" fill="#505050" text-anchor="end" x="785.0" y="575.0">Template v.3.0</text>
            <a href="https://wangchujiang.com/#/app">
                <text fill="#505050" text-anchor="end" x="785.0" y="590.0">https://wangchujiang.com/#/app</text>
            </a>
        </g>
    </g>
    <g id="Guides" stroke="rgb(39, 170, 225)" stroke-width="0.5">
        <path id="Capline-S" d="M18,76 l800,0" />
        <path id="H-reference" d="M85,145.755 L87.685,145.755 L113.369,79.287 L114.052,79.287 L114.052,76 L112.148,76 L85,145.755 Z M95.693,121.536 L130.996,121.536 L130.263,119.313 L96.474,119.313 L95.693,121.536 Z M139.15,145.755 L141.787,145.755 L114.638,76 L113.466,76 L113.466,79.287 L139.15,145.755 Z" stroke="none" />
        <path id="Baseline-S" d="M18,146 l800,0" />
        <path id="left-margin-Ultralight-S" d="M221,56 l0,110" />
        <path id="right-margin-Ultralight-S" d="M309,56 l0,110" />
        <path id="left-margin-Regular-S" d="M421,56 l0,110" />
        <path id="right-margin-Regular-S" d="M509,56 l0,110" />
        <path id="left-margin-Black-S" d="M621,56 l0,110" />
        <path id="right-margin-Black-S" d="M709,56 l0,110" />
        <path id="Capline-M" d="M18,276 l800,0" />
        <path id="Baseline-M" d="M18,346 l800,0" />
        <path id="Capline-L" d="M18,476 l800,0" />
        <path id="Baseline-L" d="M18,546 l800,0" />
    </g>
    <g id="Symbols">
        <g id="Ultralight-S">
            <path d="M265,111 C274.665,111 282.5,103.165 282.5,93.5 C282.5,83.835 274.665,76 265,76 C255.335,76 247.5,83.835 247.5,93.5 C247.509,103.161 255.339,110.99 265,111 Z M265,81.833 C271.443,81.833 276.667,87.057 276.667,93.5 C276.667,99.943 271.443,105.167 265,105.167 C258.557,105.167 253.333,99.943 253.333,93.5 C253.333,90.406 254.562,87.438 256.75,85.25 C258.938,83.062 261.906,81.833 265,81.833 Z" />
            <path d="M265,116.833 C250.509,116.849 238.766,128.593 238.75,143.083 C238.75,144.694 240.056,146 241.667,146 C243.277,146 244.583,144.694 244.583,143.083 C244.583,131.808 253.724,122.667 265,122.667 C276.276,122.667 285.417,131.808 285.417,143.083 C285.417,144.694 286.723,146 288.333,146 C289.944,146 291.25,144.694 291.25,143.083 C291.233,128.592 279.49,116.849 264.999,116.833 Z" />
        </g>
        <g id="Regular-S">
            <path d="M465,111 C474.665,111 482.5,103.165 482.5,93.5 C482.5,83.835 474.665,76 465,76 C455.335,76 447.5,83.835 447.5,93.5 C447.509,103.161 455.339,110.99 465,111 Z M465,81.833 C471.443,81.833 476.667,87.057 476.667,93.5 C476.667,99.943 471.443,105.167 465,105.167 C458.557,105.167 453.333,99.943 453.333,93.5 C453.333,90.406 454.562,87.438 456.75,85.25 C458.938,83.062 461.906,81.833 465,81.833 Z" />
            <path d="M465,116.833 C450.509,116.849 438.766,128.593 438.75,143.083 C438.75,144.694 440.056,146 441.667,146 C443.277,146 444.583,144.694 444.583,143.083 C444.583,131.808 453.724,122.667 465,122.667 C476.276,122.667 485.417,131.808 485.417,143.083 C485.417,144.694 486.723,146 488.333,146 C489.944,146 491.25,144.694 491.25,143.083 C491.233,128.592 479.49,116.849 464.999,116.833 Z" />
        </g>
        <g id="Black-S">
            <path d="M665,111 C674.665,111 682.5,103.165 682.5,93.5 C682.5,83.835 674.665,76 665,76 C655.335,76 647.5,83.835 647.5,93.5 C647.509,103.161 655.339,110.99 665,111 Z M665,81.833 C671.443,81.833 676.667,87.057 676.667,93.5 C676.667,99.943 671.443,105.167 665,105.167 C658.557,105.167 653.333,99.943 653.333,93.5 C653.333,90.406 654.562,87.438 656.75,85.25 C658.938,83.062 661.906,81.833 665,81.833 Z" />
            <path d="M665,116.833 C650.509,116.849 638.766,128.593 638.75,143.083 C638.75,144.694 640.056,146 641.667,146 C643.278,146 644.583,144.694 644.583,143.083 C644.583,131.808 653.724,122.667 665,122.667 C676.276,122.667 685.417,131.808 685.417,143.083 C685.417,144.694 686.723,146 688.333,146 C689.944,146 691.25,144.694 691.25,143.083 C691.233,128.592 679.49,116.849 664.999,116.833 Z" />
        </g>
    </g>
</svg>