<?xml version="1.0" encoding="UTF-8"?>
<svg height="600" width="800" xmlns="http://www.w3.org/2000/svg" xmlns:xlink="http://www.w3.org/1999/xlink">
    <g id="Notes" font-family="'LucidaGrande', 'Lucida Grande', sans-serif" font-size="13">
        <rect fill="white" height="600.0" width="800.0" x="0.0" y="0.0" />
        <g font-size="13">
            <text x="18.0" y="176.0">Small</text>
            <text x="18.0" y="376.0">Medium</text>
            <text x="18.0" y="576.0">Large</text>
        </g>
        <g font-size="9">
            <text x="250.0" y="30.0">Ultralight</text>
            <text x="450.0" y="30.0">Regular</text>
            <text x="650.0" y="30.0">Black</text>
            <text id="template-version" fill="#505050" text-anchor="end" x="785.0" y="575.0">Template v.3.0</text>
            <a href="https://wangchujiang.com/#/app">
                <text fill="#505050" text-anchor="end" x="785.0" y="590.0">https://wangchujiang.com/#/app</text>
            </a>
        </g>
    </g>
    <g id="Guides" stroke="rgb(39, 170, 225)" stroke-width="0.5">
        <path id="Capline-S" d="M18,76 l800,0" />
        <path id="H-reference" d="M85,145.755 L87.685,145.755 L113.369,79.287 L114.052,79.287 L114.052,76 L112.148,76 L85,145.755 Z M95.693,121.536 L130.996,121.536 L130.263,119.313 L96.474,119.313 L95.693,121.536 Z M139.15,145.755 L141.787,145.755 L114.638,76 L113.466,76 L113.466,79.287 L139.15,145.755 Z" stroke="none" />
        <path id="Baseline-S" d="M18,146 l800,0" />
        <path id="left-margin-Ultralight-S" d="M221,56 l0,110" />
        <path id="right-margin-Ultralight-S" d="M309,56 l0,110" />
        <path id="left-margin-Regular-S" d="M421,56 l0,110" />
        <path id="right-margin-Regular-S" d="M509,56 l0,110" />
        <path id="left-margin-Black-S" d="M621,56 l0,110" />
        <path id="right-margin-Black-S" d="M709,56 l0,110" />
        <path id="Capline-M" d="M18,276 l800,0" />
        <path id="Baseline-M" d="M18,346 l800,0" />
        <path id="Capline-L" d="M18,476 l800,0" />
        <path id="Baseline-L" d="M18,546 l800,0" />
    </g>
    <g id="Symbols">
        <g id="Ultralight-S">
            <path d="M291.624,131.134 C291.691,131.315 293.231,135.646 293.632,142.637 C293.683,143.512 293.371,144.368 292.77,145.004 C292.168,145.64 291.332,146 290.453,146 L239.545,146 C238.67,146 237.833,145.64 237.229,145.004 C236.63,144.368 236.319,143.512 236.366,142.637 C236.767,135.646 238.307,131.312 238.374,131.134 C238.73,130.141 239.558,129.393 240.576,129.132 C240.932,129.043 249.447,126.911 264.998,126.911 C280.548,126.911 289.06,129.043 289.419,129.132 C290.437,129.393 291.265,130.141 291.621,131.134 Z M236.7,108.147 C236.478,105.961 236.363,103.709 236.363,101.456 C236.363,99.203 236.478,96.95 236.7,94.764 C236.869,93.141 238.234,91.91 239.866,91.91 L240.261,91.91 C240.751,88.737 241.321,86.844 241.362,86.71 C241.683,85.699 242.485,84.913 243.503,84.614 C243.793,84.531 250.214,82.723 261.819,82.424 L261.819,79.182 C261.819,77.422 263.241,76 265.001,76 C266.76,76 268.183,77.422 268.183,79.182 L268.183,82.424 C279.787,82.723 286.209,84.531 286.498,84.614 C287.516,84.913 288.318,85.699 288.64,86.71 C288.681,86.844 289.247,88.737 289.741,91.91 L290.135,91.91 C291.767,91.91 293.133,93.144 293.301,94.764 C293.524,96.95 293.638,99.203 293.638,101.456 C293.638,103.709 293.524,105.961 293.301,108.147 C293.133,109.77 291.767,111.002 290.135,111.002 L289.741,111.002 C289.251,114.174 288.681,116.067 288.64,116.201 C288.318,117.213 287.516,117.999 286.498,118.298 C286.183,118.387 278.664,120.547 265.001,120.547 C251.337,120.547 243.818,118.387 243.503,118.298 C242.485,117.999 241.683,117.213 241.362,116.201 C241.321,116.067 240.754,114.174 240.261,111.002 L239.866,111.002 C238.234,111.002 236.869,109.767 236.7,108.147 Z M268.183,101.456 C268.183,104.09 270.321,106.229 272.956,106.229 C275.59,106.229 277.729,104.09 277.729,101.456 C277.729,98.821 275.59,96.683 272.956,96.683 C270.321,96.683 268.183,98.821 268.183,101.456 Z M252.273,101.456 C252.273,104.09 254.411,106.229 257.046,106.229 C259.681,106.229 261.819,104.09 261.819,101.456 C261.819,98.821 259.681,96.683 257.046,96.683 C254.411,96.683 252.273,98.821 252.273,101.456 Z" />
        </g>
        <g id="Regular-S">
            <path d="M491.624,131.134 C491.691,131.315 493.231,135.646 493.632,142.637 C493.683,143.512 493.371,144.368 492.77,145.004 C492.168,145.64 491.332,146 490.453,146 L439.545,146 C438.67,146 437.833,145.64 437.229,145.004 C436.63,144.368 436.319,143.512 436.366,142.637 C436.767,135.646 438.307,131.312 438.374,131.134 C438.73,130.141 439.558,129.393 440.576,129.132 C440.932,129.043 449.447,126.911 464.998,126.911 C480.548,126.911 489.06,129.043 489.419,129.132 C490.437,129.393 491.265,130.141 491.621,131.134 Z M436.7,108.147 C436.478,105.961 436.363,103.709 436.363,101.456 C436.363,99.203 436.478,96.95 436.7,94.764 C436.869,93.141 438.234,91.91 439.866,91.91 L440.261,91.91 C440.751,88.737 441.321,86.844 441.362,86.71 C441.683,85.699 442.485,84.913 443.503,84.614 C443.793,84.531 450.214,82.723 461.819,82.424 L461.819,79.182 C461.819,77.422 463.241,76 465.001,76 C466.76,76 468.183,77.422 468.183,79.182 L468.183,82.424 C479.787,82.723 486.209,84.531 486.498,84.614 C487.516,84.913 488.318,85.699 488.64,86.71 C488.681,86.844 489.247,88.737 489.741,91.91 L490.135,91.91 C491.767,91.91 493.133,93.144 493.301,94.764 C493.524,96.95 493.638,99.203 493.638,101.456 C493.638,103.709 493.524,105.961 493.301,108.147 C493.133,109.77 491.767,111.002 490.135,111.002 L489.741,111.002 C489.251,114.174 488.681,116.067 488.64,116.201 C488.318,117.213 487.516,117.999 486.498,118.298 C486.183,118.387 478.664,120.547 465.001,120.547 C451.337,120.547 443.818,118.387 443.503,118.298 C442.485,117.999 441.683,117.213 441.362,116.201 C441.321,116.067 440.754,114.174 440.261,111.002 L439.866,111.002 C438.234,111.002 436.869,109.767 436.7,108.147 Z M468.183,101.456 C468.183,104.09 470.321,106.229 472.956,106.229 C475.59,106.229 477.729,104.09 477.729,101.456 C477.729,98.821 475.59,96.683 472.956,96.683 C470.321,96.683 468.183,98.821 468.183,101.456 Z M452.273,101.456 C452.273,104.09 454.411,106.229 457.046,106.229 C459.681,106.229 461.819,104.09 461.819,101.456 C461.819,98.821 459.681,96.683 457.046,96.683 C454.411,96.683 452.273,98.821 452.273,101.456 Z" />
        </g>
        <g id="Black-S">
            <path d="M691.624,131.134 C691.691,131.315 693.231,135.646 693.632,142.637 C693.683,143.512 693.371,144.368 692.77,145.004 C692.168,145.64 691.332,146 690.453,146 L639.545,146 C638.67,146 637.833,145.64 637.229,145.004 C636.63,144.368 636.319,143.512 636.366,142.637 C636.767,135.646 638.307,131.312 638.374,131.134 C638.731,130.141 639.558,129.393 640.576,129.132 C640.932,129.043 649.447,126.911 664.998,126.911 C680.548,126.911 689.06,129.043 689.419,129.132 C690.437,129.393 691.265,130.141 691.621,131.134 Z M636.7,108.147 C636.478,105.961 636.363,103.709 636.363,101.456 C636.363,99.203 636.478,96.95 636.7,94.764 C636.869,93.141 638.234,91.91 639.867,91.91 L640.261,91.91 C640.751,88.737 641.321,86.844 641.362,86.71 C641.683,85.699 642.485,84.913 643.503,84.614 C643.793,84.531 650.214,82.723 661.819,82.424 L661.819,79.182 C661.819,77.422 663.241,76 665.001,76 C666.76,76 668.183,77.422 668.183,79.182 L668.183,82.424 C679.787,82.723 686.209,84.531 686.498,84.614 C687.516,84.913 688.318,85.699 688.64,86.71 C688.681,86.844 689.247,88.737 689.741,91.91 L690.135,91.91 C691.768,91.91 693.133,93.144 693.301,94.764 C693.524,96.95 693.638,99.203 693.638,101.456 C693.638,103.709 693.524,105.961 693.301,108.147 C693.133,109.77 691.768,111.002 690.135,111.002 L689.741,111.002 C689.251,114.174 688.681,116.067 688.64,116.201 C688.318,117.213 687.516,117.999 686.498,118.298 C686.183,118.387 678.664,120.547 665.001,120.547 C651.337,120.547 643.818,118.387 643.503,118.298 C642.485,117.999 641.683,117.213 641.362,116.201 C641.321,116.067 640.754,114.174 640.261,111.002 L639.867,111.002 C638.234,111.002 636.869,109.767 636.7,108.147 Z M668.183,101.456 C668.183,104.09 670.321,106.229 672.956,106.229 C675.59,106.229 677.729,104.09 677.729,101.456 C677.729,98.821 675.59,96.683 672.956,96.683 C670.321,96.683 668.183,98.821 668.183,101.456 Z M652.273,101.456 C652.273,104.09 654.411,106.229 657.046,106.229 C659.681,106.229 661.819,104.09 661.819,101.456 C661.819,98.821 659.681,96.683 657.046,96.683 C654.411,96.683 652.273,98.821 652.273,101.456 Z" />
        </g>
    </g>
</svg>