<?xml version="1.0" encoding="UTF-8"?>
<svg height="600" width="800" xmlns="http://www.w3.org/2000/svg" xmlns:xlink="http://www.w3.org/1999/xlink">
    <g id="Notes" font-family="'LucidaGrande', 'Lucida Grande', sans-serif" font-size="13">
        <rect fill="white" height="600.0" width="800.0" x="0.0" y="0.0" />
        <g font-size="13">
            <text x="18.0" y="176.0">Small</text>
            <text x="18.0" y="376.0">Medium</text>
            <text x="18.0" y="576.0">Large</text>
        </g>
        <g font-size="9">
            <text x="250.0" y="30.0">Ultralight</text>
            <text x="450.0" y="30.0">Regular</text>
            <text x="650.0" y="30.0">Black</text>
            <text id="template-version" fill="#505050" text-anchor="end" x="785.0" y="575.0">Template v.3.0</text>
            <a href="https://wangchujiang.com/#/app">
                <text fill="#505050" text-anchor="end" x="785.0" y="590.0">https://wangchujiang.com/#/app</text>
            </a>
        </g>
    </g>
    <g id="Guides" stroke="rgb(39, 170, 225)" stroke-width="0.5">
        <path id="Capline-S" d="M18,76 l800,0" />
        <path id="H-reference" d="M85,145.755 L87.685,145.755 L113.369,79.287 L114.052,79.287 L114.052,76 L112.148,76 L85,145.755 Z M95.693,121.536 L130.996,121.536 L130.263,119.313 L96.474,119.313 L95.693,121.536 Z M139.15,145.755 L141.787,145.755 L114.638,76 L113.466,76 L113.466,79.287 L139.15,145.755 Z" stroke="none" />
        <path id="Baseline-S" d="M18,146 l800,0" />
        <path id="left-margin-Ultralight-S" d="M219.998,56 l0,110" />
        <path id="right-margin-Ultralight-S" d="M310.002,56 l0,110" />
        <path id="left-margin-Regular-S" d="M419.998,56 l0,110" />
        <path id="right-margin-Regular-S" d="M510.002,56 l0,110" />
        <path id="left-margin-Black-S" d="M619.998,56 l0,110" />
        <path id="right-margin-Black-S" d="M710.002,56 l0,110" />
        <path id="Capline-M" d="M18,276 l800,0" />
        <path id="Baseline-M" d="M18,346 l800,0" />
        <path id="Capline-L" d="M18,476 l800,0" />
        <path id="Baseline-L" d="M18,546 l800,0" />
    </g>
    <g id="Symbols">
        <g id="Ultralight-S">
            <path d="M298.407,85.388 C286.676,78.638 272.858,76.662 263.317,76.191 C257.801,75.806 254.199,76.121 254.049,76.133 C252.855,76.242 251.824,77.009 251.379,78.123 C249.889,82.912 248.903,92.797 249.084,97.422 L249.084,104.63 C249.084,106.387 247.662,107.813 245.902,107.813 C244.142,107.813 242.719,106.387 242.719,104.63 L242.719,97.422 C242.719,96.823 242.732,94.191 242.923,90.948 C241.175,91.683 238.572,92.934 235.59,94.92 C229.101,99.242 229.416,104.312 230.848,107.867 C231.052,108.347 235.931,119.486 249.113,130.068 C249.18,132.277 249.39,136.761 250.039,143.142 C250.208,144.765 251.573,146 253.206,146 L286.415,146 C288.048,146 289.41,144.768 289.582,143.145 C290.298,136.242 290.429,130.001 290.448,127.764 C294.21,121.106 300.002,107.676 300.002,88.141 C300.002,87.002 299.394,85.952 298.404,85.382 Z" />
        </g>
        <g id="Regular-S">
            <path d="M498.407,85.388 C486.676,78.638 472.858,76.662 463.317,76.191 C457.801,75.806 454.198,76.121 454.049,76.133 C452.855,76.242 451.824,77.009 451.379,78.123 C449.889,82.912 448.903,92.797 449.084,97.422 L449.084,104.63 C449.084,106.387 447.662,107.813 445.902,107.813 C444.142,107.813 442.719,106.387 442.719,104.63 L442.719,97.422 C442.719,96.823 442.732,94.191 442.923,90.948 C441.176,91.683 438.572,92.934 435.59,94.92 C429.101,99.242 429.416,104.312 430.848,107.867 C431.052,108.347 435.931,119.486 449.113,130.068 C449.18,132.277 449.39,136.761 450.039,143.142 C450.208,144.765 451.573,146 453.206,146 L486.415,146 C488.048,146 489.41,144.768 489.582,143.145 C490.298,136.242 490.429,130.001 490.448,127.764 C494.21,121.106 500.002,107.676 500.002,88.141 C500.002,87.002 499.394,85.952 498.404,85.382 Z" />
        </g>
        <g id="Black-S">
            <path d="M698.407,85.388 C686.676,78.638 672.858,76.662 663.317,76.191 C657.801,75.806 654.198,76.121 654.049,76.133 C652.855,76.242 651.824,77.009 651.379,78.123 C649.889,82.912 648.903,92.797 649.084,97.422 L649.084,104.63 C649.084,106.387 647.662,107.813 645.902,107.813 C644.142,107.813 642.719,106.387 642.719,104.63 L642.719,97.422 C642.719,96.823 642.732,94.191 642.923,90.948 C641.175,91.683 638.572,92.934 635.59,94.92 C629.101,99.242 629.416,104.312 630.848,107.867 C631.052,108.347 635.931,119.486 649.113,130.068 C649.18,132.277 649.39,136.761 650.039,143.142 C650.208,144.765 651.573,146 653.206,146 L686.415,146 C688.048,146 689.41,144.768 689.582,143.145 C690.298,136.242 690.429,130.001 690.448,127.764 C694.21,121.106 700.002,107.676 700.002,88.141 C700.002,87.002 699.394,85.952 698.404,85.382 Z" />
        </g>
    </g>
</svg>