<?xml version="1.0" encoding="UTF-8"?>
<svg height="600" width="800" xmlns="http://www.w3.org/2000/svg" xmlns:xlink="http://www.w3.org/1999/xlink">
    <g id="Notes" font-family="'LucidaGrande', 'Lucida Grande', sans-serif" font-size="13">
        <rect fill="white" height="600.0" width="800.0" x="0.0" y="0.0" />
        <g font-size="13">
            <text x="18.0" y="176.0">Small</text>
            <text x="18.0" y="376.0">Medium</text>
            <text x="18.0" y="576.0">Large</text>
        </g>
        <g font-size="9">
            <text x="250.0" y="30.0">Ultralight</text>
            <text x="450.0" y="30.0">Regular</text>
            <text x="650.0" y="30.0">Black</text>
            <text id="template-version" fill="#505050" text-anchor="end" x="785.0" y="575.0">Template v.3.0</text>
            <a href="https://wangchujiang.com/#/app">
                <text fill="#505050" text-anchor="end" x="785.0" y="590.0">https://wangchujiang.com/#/app</text>
            </a>
        </g>
    </g>
    <g id="Guides" stroke="rgb(39, 170, 225)" stroke-width="0.5">
        <path id="Capline-S" d="M18,76 l800,0" />
        <path id="H-reference" d="M85,145.755 L87.685,145.755 L113.369,79.287 L114.052,79.287 L114.052,76 L112.148,76 L85,145.755 Z M95.693,121.536 L130.996,121.536 L130.263,119.313 L96.474,119.313 L95.693,121.536 Z M139.15,145.755 L141.787,145.755 L114.638,76 L113.466,76 L113.466,79.287 L139.15,145.755 Z" stroke="none" />
        <path id="Baseline-S" d="M18,146 l800,0" />
        <path id="left-margin-Ultralight-S" d="M220,56 l0,110" />
        <path id="right-margin-Ultralight-S" d="M310,56 l0,110" />
        <path id="left-margin-Regular-S" d="M420,56 l0,110" />
        <path id="right-margin-Regular-S" d="M510,56 l0,110" />
        <path id="left-margin-Black-S" d="M620,56 l0,110" />
        <path id="right-margin-Black-S" d="M710,56 l0,110" />
        <path id="Capline-M" d="M18,276 l800,0" />
        <path id="Baseline-M" d="M18,346 l800,0" />
        <path id="Capline-L" d="M18,476 l800,0" />
        <path id="Baseline-L" d="M18,546 l800,0" />
    </g>
    <g id="Symbols">
        <g id="Ultralight-S">
            <path d="M265,76 C240.468,76 230,86.468 230,111 C230,135.532 240.468,146 265,146 C289.532,146 300,135.532 300,111 C300,86.468 289.532,76 265,76 Z M265,123.727 C267.755,123.727 269.763,123.263 271.138,122.308 C272.585,121.303 274.565,121.659 275.57,123.104 C276.572,124.545 276.216,126.53 274.775,127.533 C272.299,129.257 269.101,130.094 265.003,130.094 C250.742,130.094 249.094,119.2 249.094,111.003 C249.094,102.807 250.742,91.912 265.003,91.912 C269.101,91.912 272.299,92.749 274.775,94.474 C276.216,95.476 276.572,97.458 275.57,98.903 C274.568,100.344 272.585,100.7 271.138,99.698 C269.763,98.744 267.759,98.279 265,98.279 C258.668,98.279 255.455,100.249 255.455,111.006 C255.455,121.764 258.668,123.734 265,123.734 Z" />
        </g>
        <g id="Regular-S">
            <path d="M465,76 C440.468,76 430,86.468 430,111 C430,135.532 440.468,146 465,146 C489.532,146 500,135.532 500,111 C500,86.468 489.532,76 465,76 Z M465,123.727 C467.755,123.727 469.763,123.263 471.138,122.308 C472.585,121.303 474.565,121.659 475.57,123.104 C476.572,124.545 476.216,126.53 474.775,127.533 C472.299,129.257 469.101,130.094 465.003,130.094 C450.742,130.094 449.094,119.2 449.094,111.003 C449.094,102.807 450.742,91.912 465.003,91.912 C469.101,91.912 472.299,92.749 474.775,94.474 C476.216,95.476 476.572,97.458 475.57,98.903 C474.568,100.344 472.585,100.7 471.138,99.698 C469.763,98.744 467.759,98.279 465,98.279 C458.668,98.279 455.455,100.249 455.455,111.006 C455.455,121.764 458.668,123.734 465,123.734 Z" />
        </g>
        <g id="Black-S">
            <path d="M665,76 C640.468,76 630,86.468 630,111 C630,135.532 640.468,146 665,146 C689.532,146 700,135.532 700,111 C700,86.468 689.532,76 665,76 Z M665,123.727 C667.755,123.727 669.763,123.263 671.138,122.308 C672.585,121.303 674.565,121.659 675.57,123.104 C676.572,124.545 676.216,126.53 674.775,127.533 C672.299,129.257 669.101,130.094 665.003,130.094 C650.742,130.094 649.094,119.2 649.094,111.003 C649.094,102.807 650.742,91.912 665.003,91.912 C669.101,91.912 672.299,92.749 674.775,94.474 C676.216,95.476 676.572,97.458 675.57,98.903 C674.568,100.344 672.585,100.7 671.138,99.698 C669.763,98.744 667.759,98.279 665,98.279 C658.668,98.279 655.455,100.249 655.455,111.006 C655.455,121.764 658.668,123.734 665,123.734 Z" />
        </g>
    </g>
</svg>