<?xml version="1.0" encoding="UTF-8"?>
<svg height="600" width="800" xmlns="http://www.w3.org/2000/svg" xmlns:xlink="http://www.w3.org/1999/xlink">
    <g id="Notes" font-family="'LucidaGrande', 'Lucida Grande', sans-serif" font-size="13">
        <rect fill="white" height="600.0" width="800.0" x="0.0" y="0.0" />
        <g font-size="13">
            <text x="18.0" y="176.0">Small</text>
            <text x="18.0" y="376.0">Medium</text>
            <text x="18.0" y="576.0">Large</text>
        </g>
        <g font-size="9">
            <text x="250.0" y="30.0">Ultralight</text>
            <text x="450.0" y="30.0">Regular</text>
            <text x="650.0" y="30.0">Black</text>
            <text id="template-version" fill="#505050" text-anchor="end" x="785.0" y="575.0">Template v.3.0</text>
            <a href="https://wangchujiang.com/#/app">
                <text fill="#505050" text-anchor="end" x="785.0" y="590.0">https://wangchujiang.com/#/app</text>
            </a>
        </g>
    </g>
    <g id="Guides" stroke="rgb(39, 170, 225)" stroke-width="0.5">
        <path id="Capline-S" d="M18,76 l800,0" />
        <path id="H-reference" d="M85,145.755 L87.685,145.755 L113.369,79.287 L114.052,79.287 L114.052,76 L112.148,76 L85,145.755 Z M95.693,121.536 L130.996,121.536 L130.263,119.313 L96.474,119.313 L95.693,121.536 Z M139.15,145.755 L141.787,145.755 L114.638,76 L113.466,76 L113.466,79.287 L139.15,145.755 Z" stroke="none" />
        <path id="Baseline-S" d="M18,146 l800,0" />
        <path id="left-margin-Ultralight-S" d="M221,56 l0,110" />
        <path id="right-margin-Ultralight-S" d="M309,56 l0,110" />
        <path id="left-margin-Regular-S" d="M421,56 l0,110" />
        <path id="right-margin-Regular-S" d="M509,56 l0,110" />
        <path id="left-margin-Black-S" d="M621,56 l0,110" />
        <path id="right-margin-Black-S" d="M709,56 l0,110" />
        <path id="Capline-M" d="M18,276 l800,0" />
        <path id="Baseline-M" d="M18,346 l800,0" />
        <path id="Capline-L" d="M18,476 l800,0" />
        <path id="Baseline-L" d="M18,546 l800,0" />
    </g>
    <g id="Symbols">
        <g id="Ultralight-S">
            <path d="M265.016,111.98 C276.505,111.913 282.691,105.709 282.904,93.936 C282.707,82.609 276.187,76.073 264.978,76 C253.647,76.07 247.09,82.905 247.09,93.936 C247.09,105.298 253.65,111.916 265.016,111.983 Z M264.978,82.36 C272.732,82.411 276.404,86.125 276.54,93.93 C276.391,102.072 272.935,105.565 265.016,105.613 C257.077,105.565 253.619,102.088 253.453,93.987 C253.612,85.997 257.179,82.408 264.978,82.36 Z" />
            <path d="M264.978,116.282 C248.025,116.39 238.903,125.544 238.597,142.761 C238.566,144.517 239.965,145.968 241.722,146 C243.364,145.94 244.926,144.632 244.961,142.875 C245.203,129.159 251.579,122.731 264.978,122.649 C278.24,122.735 284.801,129.35 285.036,142.872 C285.068,144.61 286.487,146 288.218,146 L288.275,146 C290.031,145.968 291.431,144.52 291.403,142.764 C291.11,125.795 281.743,116.393 264.981,116.285 Z" />
        </g>
        <g id="Regular-S">
            <path d="M465.016,111.98 C476.506,111.913 482.691,105.709 482.904,93.936 C482.707,82.609 476.187,76.073 464.978,76 C453.647,76.07 447.09,82.905 447.09,93.936 C447.09,105.298 453.651,111.916 465.016,111.983 Z M464.978,82.36 C472.732,82.411 476.404,86.125 476.541,93.93 C476.391,102.072 472.936,105.565 465.016,105.613 C457.077,105.565 453.619,102.088 453.453,93.987 C453.612,85.997 457.179,82.408 464.978,82.36 Z" />
            <path d="M464.978,116.282 C448.025,116.39 438.903,125.544 438.597,142.761 C438.566,144.517 439.966,145.968 441.722,146 C443.364,145.94 444.926,144.632 444.961,142.875 C445.203,129.159 451.579,122.731 464.978,122.649 C478.24,122.735 484.801,129.35 485.036,142.872 C485.068,144.61 486.487,146 488.218,146 L488.275,146 C490.031,145.968 491.431,144.52 491.403,142.764 C491.11,125.795 481.743,116.393 464.981,116.285 Z" />
        </g>
        <g id="Black-S">
            <path d="M665.016,111.98 C676.505,111.913 682.691,105.709 682.904,93.936 C682.707,82.609 676.187,76.073 664.978,76 C653.647,76.07 647.09,82.905 647.09,93.936 C647.09,105.298 653.651,111.916 665.016,111.983 Z M664.978,82.36 C672.732,82.411 676.404,86.125 676.541,93.93 C676.391,102.072 672.936,105.565 665.016,105.613 C657.077,105.565 653.619,102.088 653.453,93.987 C653.612,85.997 657.179,82.408 664.978,82.36 Z" />
            <path d="M664.978,116.282 C648.025,116.39 638.903,125.544 638.597,142.761 C638.565,144.517 639.966,145.968 641.722,146 C643.364,145.94 644.926,144.632 644.961,142.875 C645.203,129.159 651.579,122.731 664.978,122.649 C678.24,122.735 684.801,129.35 685.036,142.872 C685.068,144.61 686.487,146 688.218,146 L688.275,146 C690.031,145.968 691.431,144.52 691.403,142.764 C691.11,125.795 681.743,116.393 664.981,116.285 Z" />
        </g>
    </g>
</svg>