<svg xmlns="http://www.w3.org/2000/svg" xmlns:xlink="http://www.w3.org/1999/xlink" width="1000" zoomAndPan="magnify" viewBox="0 0 750 374.999991" height="500" preserveAspectRatio="xMidYMid meet" version="1.0"><defs><g/><clipPath id="ada7686735"><rect x="0" width="748" y="0" height="330"/></clipPath></defs><g transform="matrix(1, 0, 0, 1, 0, 30)"><g clip-path="url(#ada7686735)"><g fill="#ffde59" fill-opacity="1"><g transform="translate(-7.60071, 291.474674)"><g><path d="M 131.921875 4.59375 C 101.953125 4.59375 78.050781 0.21875 60.21875 -8.53125 C 42.382812 -17.28125 29.53125 -31.226562 21.65625 -50.375 C 13.78125 -69.519531 9.84375 -94.625 9.84375 -125.6875 C 9.84375 -156.539062 13.890625 -181.425781 21.984375 -200.34375 C 30.078125 -219.269531 42.875 -233.109375 60.375 -241.859375 C 77.882812 -250.609375 100.75 -254.984375 128.96875 -254.984375 C 158.289062 -254.984375 181.972656 -250.550781 200.015625 -241.6875 C 218.066406 -232.832031 231.25 -218.78125 239.5625 -199.53125 C 247.875 -180.28125 252.03125 -155.007812 252.03125 -123.71875 C 252.03125 -93.3125 247.765625 -68.644531 239.234375 -49.71875 C 230.703125 -30.789062 217.628906 -17.003906 200.015625 -8.359375 C 182.410156 0.273438 159.710938 4.59375 131.921875 4.59375 Z M 131.59375 -64.984375 C 134 -64.984375 137.0625 -65.363281 140.78125 -66.125 C 144.5 -66.894531 147.34375 -68.265625 149.3125 -70.234375 C 152.8125 -82.921875 154.5625 -100.96875 154.5625 -124.375 C 154.5625 -142.53125 152.425781 -157.1875 148.15625 -168.34375 C 143.894531 -179.507812 137.9375 -185.09375 130.28125 -185.09375 C 127.4375 -185.09375 124.265625 -184.546875 120.765625 -183.453125 C 117.265625 -182.359375 114.203125 -180.609375 111.578125 -178.203125 C 110.046875 -172.078125 108.953125 -164.851562 108.296875 -156.53125 C 107.640625 -148.21875 107.3125 -138.15625 107.3125 -126.34375 C 107.3125 -107.75 109.390625 -92.875 113.546875 -81.71875 C 117.703125 -70.5625 123.71875 -64.984375 131.59375 -64.984375 Z M 131.59375 -64.984375 "/></g></g></g><g fill="#ffde59" fill-opacity="1"><g transform="translate(228.017451, 291.474674)"><g><path d="M 13.125 0 C 13.5625 -21 13.941406 -41.890625 14.265625 -62.671875 C 14.597656 -83.460938 14.765625 -104.25 14.765625 -125.03125 C 14.765625 -146.03125 14.597656 -166.921875 14.265625 -187.703125 C 13.941406 -208.492188 13.5625 -229.390625 13.125 -250.390625 L 147.34375 -250.390625 C 171.195312 -250.390625 191.4375 -248.582031 208.0625 -244.96875 C 224.6875 -241.363281 237.375 -234.75 246.125 -225.125 C 254.875 -215.5 259.25 -201.5 259.25 -183.125 C 259.25 -165.394531 256.1875 -151.550781 250.0625 -141.59375 C 243.9375 -131.644531 234.421875 -124.59375 221.515625 -120.4375 C 208.609375 -116.28125 191.875 -114.203125 171.3125 -114.203125 L 171.3125 -108.296875 C 193.1875 -108.296875 210.519531 -106.488281 223.3125 -102.875 C 236.113281 -99.269531 245.300781 -93.859375 250.875 -86.640625 C 256.457031 -79.421875 259.25 -70.34375 259.25 -59.40625 C 259.25 -56.34375 259.578125 -52.128906 260.234375 -46.765625 C 260.890625 -41.398438 261.707031 -35.707031 262.6875 -29.6875 C 263.675781 -23.675781 264.71875 -17.988281 265.8125 -12.625 C 266.90625 -7.269531 268 -3.0625 269.09375 0 L 162.4375 0 C 161.34375 -9.1875 160.46875 -18.207031 159.8125 -27.0625 C 159.15625 -35.925781 158.828125 -45.941406 158.828125 -57.109375 C 158.828125 -66.078125 157.785156 -72.363281 155.703125 -75.96875 C 153.628906 -79.582031 147.671875 -81.390625 137.828125 -81.390625 L 111.90625 -81.390625 C 111.6875 -79.203125 111.578125 -75.15625 111.578125 -69.25 C 111.578125 -63.34375 111.578125 -56.664062 111.578125 -49.21875 C 111.578125 -41.78125 111.628906 -34.503906 111.734375 -27.390625 C 111.847656 -20.285156 111.90625 -14.21875 111.90625 -9.1875 C 111.90625 -4.15625 111.90625 -1.09375 111.90625 0 Z M 110.59375 -135.203125 L 130.609375 -135.203125 C 137.828125 -135.203125 144.0625 -136.953125 149.3125 -140.453125 C 154.5625 -143.953125 157.1875 -150.625 157.1875 -160.46875 C 157.1875 -170.101562 154.613281 -176.503906 149.46875 -179.671875 C 144.332031 -182.847656 137.609375 -184.4375 129.296875 -184.4375 L 110.59375 -184.4375 Z M 110.59375 -135.203125 "/></g></g></g><g fill="#ffde59" fill-opacity="1"><g transform="translate(480.699957, 291.474674)"><g><path d="M 264.828125 0 L 162.109375 0 L 156.859375 -41.015625 C 152.703125 -41.015625 148.546875 -41.015625 144.390625 -41.015625 C 140.234375 -41.015625 136.078125 -41.015625 131.921875 -41.015625 L 105.671875 -41.015625 C 104.359375 -31.609375 103.265625 -23.347656 102.390625 -16.234375 C 101.515625 -9.128906 100.859375 -3.71875 100.421875 0 L 0 0 C 3.71875 -18.8125 7.597656 -38.882812 11.640625 -60.21875 C 15.691406 -81.550781 19.796875 -103.207031 23.953125 -125.1875 C 28.109375 -147.175781 32.097656 -168.78125 35.921875 -190 C 39.753906 -211.226562 43.3125 -231.359375 46.59375 -250.390625 L 217.578125 -250.390625 C 220.859375 -232.234375 224.410156 -212.648438 228.234375 -191.640625 C 232.066406 -170.640625 236.0625 -149.144531 240.21875 -127.15625 C 244.375 -105.175781 248.53125 -83.410156 252.6875 -61.859375 C 256.84375 -40.304688 260.890625 -19.6875 264.828125 0 Z M 113.546875 -92.875 L 149.3125 -92.875 C 147.125 -107.96875 144.71875 -123.5 142.09375 -139.46875 C 139.46875 -155.4375 136.515625 -174.472656 133.234375 -196.578125 L 129.296875 -196.578125 Z M 113.546875 -92.875 "/></g></g></g></g></g></svg>