<?xml version="1.0" encoding="UTF-8"?>
<svg height="600" width="800" xmlns="http://www.w3.org/2000/svg" xmlns:xlink="http://www.w3.org/1999/xlink">
    <g id="Notes" font-family="'LucidaGrande', 'Lucida Grande', sans-serif" font-size="13">
        <rect fill="white" height="600.0" width="800.0" x="0.0" y="0.0" />
        <g font-size="13">
            <text x="18.0" y="176.0">Small</text>
            <text x="18.0" y="376.0">Medium</text>
            <text x="18.0" y="576.0">Large</text>
        </g>
        <g font-size="9">
            <text x="250.0" y="30.0">Ultralight</text>
            <text x="450.0" y="30.0">Regular</text>
            <text x="650.0" y="30.0">Black</text>
            <text id="template-version" fill="#505050" text-anchor="end" x="785.0" y="575.0">Template v.3.0</text>
            <a href="https://wangchujiang.com/#/app">
                <text fill="#505050" text-anchor="end" x="785.0" y="590.0">https://wangchujiang.com/#/app</text>
            </a>
        </g>
    </g>
    <g id="Guides" stroke="rgb(39, 170, 225)" stroke-width="0.5">
        <path id="Capline-S" d="M18,76 l800,0" />
        <path id="H-reference" d="M85,145.755 L87.685,145.755 L113.369,79.287 L114.052,79.287 L114.052,76 L112.148,76 L85,145.755 Z M95.693,121.536 L130.996,121.536 L130.263,119.313 L96.474,119.313 L95.693,121.536 Z M139.15,145.755 L141.787,145.755 L114.638,76 L113.466,76 L113.466,79.287 L139.15,145.755 Z" stroke="none" />
        <path id="Baseline-S" d="M18,146 l800,0" />
        <path id="left-margin-Ultralight-S" d="M220.001,56 l0,110" />
        <path id="right-margin-Ultralight-S" d="M309.999,56 l0,110" />
        <path id="left-margin-Regular-S" d="M420.001,56 l0,110" />
        <path id="right-margin-Regular-S" d="M509.999,56 l0,110" />
        <path id="left-margin-Black-S" d="M620.001,56 l0,110" />
        <path id="right-margin-Black-S" d="M709.999,56 l0,110" />
        <path id="Capline-M" d="M18,276 l800,0" />
        <path id="Baseline-M" d="M18,346 l800,0" />
        <path id="Capline-L" d="M18,476 l800,0" />
        <path id="Baseline-L" d="M18,546 l800,0" />
    </g>
    <g id="Symbols">
        <g id="Ultralight-S">
            <path d="M271.362,105.144 C271.362,111.765 264.659,116.092 261.817,117.629 C258.973,116.092 252.272,111.765 252.272,105.144 C252.272,103.108 253.701,101.453 255.454,101.453 C256.921,101.453 258.636,102.255 258.636,104.521 C258.636,106.277 260.061,107.702 261.817,107.702 C263.574,107.702 264.999,106.277 264.999,104.521 C264.999,102.258 266.714,101.453 268.181,101.453 C269.934,101.453 271.362,103.111 271.362,105.144 Z M297.57,118.864 C297.468,118.889 295.502,119.363 292.199,119.802 C291.652,125.892 290.443,131.708 290.386,131.988 C290.153,133.095 289.352,133.999 288.276,134.355 C288.092,134.419 284.213,135.688 277.726,136.255 L277.726,139.637 C277.726,140.753 277.14,141.791 276.183,142.363 C275.935,142.513 269.994,146 258.636,146 C247.277,146 241.337,142.513 241.089,142.363 C240.131,141.787 239.546,140.753 239.546,139.637 L239.546,135.252 C239.546,132.421 238.598,129.656 236.876,127.467 C232.419,121.797 230.001,116.732 230.001,106.229 C230.001,85.039 239.04,76 260.227,76 C273.886,76 281.359,79.42 287.799,88.615 C293.943,97.39 297.678,105.542 299.915,115.042 C300.312,116.745 299.269,118.447 297.57,118.863 Z M277.726,105.144 C277.726,99.598 273.443,95.09 268.181,95.09 C265.693,95.09 263.481,95.94 261.817,97.374 C260.153,95.94 257.942,95.09 255.454,95.09 C250.192,95.09 245.909,99.598 245.909,105.144 C245.909,117.731 259.972,123.852 260.573,124.107 C261.369,124.444 262.266,124.444 263.061,124.107 C263.66,123.852 277.726,117.731 277.726,105.144 Z" />
        </g>
        <g id="Regular-S">
            <path d="M471.362,105.144 C471.362,111.765 464.659,116.092 461.817,117.629 C458.973,116.092 452.272,111.765 452.272,105.144 C452.272,103.108 453.701,101.453 455.454,101.453 C456.921,101.453 458.636,102.255 458.636,104.521 C458.636,106.277 460.061,107.702 461.817,107.702 C463.574,107.702 464.999,106.277 464.999,104.521 C464.999,102.258 466.714,101.453 468.181,101.453 C469.934,101.453 471.362,103.111 471.362,105.144 Z M497.57,118.864 C497.468,118.889 495.502,119.363 492.199,119.802 C491.652,125.892 490.443,131.708 490.386,131.988 C490.153,133.095 489.352,133.999 488.276,134.355 C488.092,134.419 484.213,135.688 477.726,136.255 L477.726,139.637 C477.726,140.753 477.14,141.791 476.183,142.363 C475.935,142.513 469.994,146 458.636,146 C447.277,146 441.337,142.513 441.089,142.363 C440.131,141.787 439.546,140.753 439.546,139.637 L439.546,135.252 C439.546,132.421 438.598,129.656 436.876,127.467 C432.419,121.797 430.001,116.732 430.001,106.229 C430.001,85.039 439.04,76 460.227,76 C473.886,76 481.359,79.42 487.799,88.615 C493.943,97.39 497.678,105.542 499.915,115.042 C500.312,116.745 499.269,118.447 497.57,118.863 Z M477.726,105.144 C477.726,99.598 473.443,95.09 468.181,95.09 C465.693,95.09 463.481,95.94 461.817,97.374 C460.153,95.94 457.942,95.09 455.454,95.09 C450.192,95.09 445.909,99.598 445.909,105.144 C445.909,117.731 459.972,123.852 460.573,124.107 C461.369,124.444 462.266,124.444 463.061,124.107 C463.66,123.852 477.726,117.731 477.726,105.144 Z" />
        </g>
        <g id="Black-S">
            <path d="M671.362,105.144 C671.362,111.765 664.659,116.092 661.817,117.629 C658.973,116.092 652.272,111.765 652.272,105.144 C652.272,103.108 653.701,101.453 655.454,101.453 C656.921,101.453 658.636,102.255 658.636,104.521 C658.636,106.277 660.061,107.702 661.817,107.702 C663.574,107.702 664.999,106.277 664.999,104.521 C664.999,102.258 666.714,101.453 668.181,101.453 C669.934,101.453 671.362,103.111 671.362,105.144 Z M697.57,118.864 C697.468,118.889 695.502,119.363 692.199,119.802 C691.652,125.892 690.443,131.708 690.386,131.988 C690.153,133.095 689.352,133.999 688.276,134.355 C688.092,134.419 684.213,135.688 677.726,136.255 L677.726,139.637 C677.726,140.753 677.14,141.791 676.183,142.363 C675.935,142.513 669.994,146 658.636,146 C647.277,146 641.337,142.513 641.089,142.363 C640.131,141.787 639.546,140.753 639.546,139.637 L639.546,135.252 C639.546,132.421 638.598,129.656 636.876,127.467 C632.419,121.797 630.001,116.732 630.001,106.229 C630.001,85.039 639.04,76 660.227,76 C673.885,76 681.359,79.42 687.799,88.615 C693.943,97.39 697.678,105.542 699.915,115.042 C700.312,116.745 699.269,118.447 697.57,118.863 Z M677.726,105.144 C677.726,99.598 673.443,95.09 668.181,95.09 C665.693,95.09 663.481,95.94 661.817,97.374 C660.153,95.94 657.942,95.09 655.454,95.09 C650.192,95.09 645.909,99.598 645.909,105.144 C645.909,117.731 659.972,123.852 660.573,124.107 C661.369,124.444 662.266,124.444 663.061,124.107 C663.66,123.852 677.726,117.731 677.726,105.144 Z" />
        </g>
    </g>
</svg>