<?xml version="1.0" encoding="UTF-8"?>
<!--Generator: Apple Native CoreSVG 341-->
<!DOCTYPE svg
PUBLIC "-//W3C//DTD SVG 1.1//EN"
       "http://www.w3.org/Graphics/SVG/1.1/DTD/svg11.dtd">
<svg version="1.1" xmlns="http://www.w3.org/2000/svg" xmlns:xlink="http://www.w3.org/1999/xlink" viewBox="0 0 3300 2200">
 <!--glyph: "", point size: 100.0, font version: "20.0d10e1", template writer version: "138.0.0"-->
 <style>.SFSymbolsPreviewWireframe {fill:none;opacity:1.0;stroke:black;stroke-width:0.5}
</style>
 <g id="Notes">
  <rect height="2200" id="artboard" style="fill:white;opacity:1" width="3300" x="0" y="0"/>
  <line style="fill:none;stroke:black;opacity:1;stroke-width:0.5;" x1="263" x2="3036" y1="292" y2="292"/>
  <text style="stroke:none;fill:black;font-family:sans-serif;font-size:13;font-weight:bold;" transform="matrix(1 0 0 1 263 322)">Weight/Scale Variations</text>
  <text style="stroke:none;fill:black;font-family:sans-serif;font-size:13;text-anchor:middle;" transform="matrix(1 0 0 1 559.711 322)">Ultralight</text>
  <text style="stroke:none;fill:black;font-family:sans-serif;font-size:13;text-anchor:middle;" transform="matrix(1 0 0 1 856.422 322)">Thin</text>
  <text style="stroke:none;fill:black;font-family:sans-serif;font-size:13;text-anchor:middle;" transform="matrix(1 0 0 1 1153.13 322)">Light</text>
  <text style="stroke:none;fill:black;font-family:sans-serif;font-size:13;text-anchor:middle;" transform="matrix(1 0 0 1 1449.84 322)">Regular</text>
  <text style="stroke:none;fill:black;font-family:sans-serif;font-size:13;text-anchor:middle;" transform="matrix(1 0 0 1 1746.56 322)">Medium</text>
  <text style="stroke:none;fill:black;font-family:sans-serif;font-size:13;text-anchor:middle;" transform="matrix(1 0 0 1 2043.27 322)">Semibold</text>
  <text style="stroke:none;fill:black;font-family:sans-serif;font-size:13;text-anchor:middle;" transform="matrix(1 0 0 1 2339.98 322)">Bold</text>
  <text style="stroke:none;fill:black;font-family:sans-serif;font-size:13;text-anchor:middle;" transform="matrix(1 0 0 1 2636.69 322)">Heavy</text>
  <text style="stroke:none;fill:black;font-family:sans-serif;font-size:13;text-anchor:middle;" transform="matrix(1 0 0 1 2933.4 322)">Black</text>
  <line style="fill:none;stroke:black;opacity:1;stroke-width:0.5;" x1="263" x2="3036" y1="1903" y2="1903"/>
  <g transform="matrix(0.2 0 0 0.2 263 1933)">
   <path d="m46.2402 4.15039c21.7773 0 39.4531-17.627 39.4531-39.4043s-17.6758-39.4043-39.4531-39.4043c-21.7285 0-39.4043 17.627-39.4043 39.4043s17.6758 39.4043 39.4043 39.4043Zm0-7.42188c-17.6758 0-31.9336-14.3066-31.9336-31.9824s14.2578-31.9824 31.9336-31.9824 31.9824 14.3066 31.9824 31.9824-14.3066 31.9824-31.9824 31.9824Zm-17.9688-31.9824c0 2.14844 1.51367 3.61328 3.75977 3.61328h10.498v10.5957c0 2.19727 1.46484 3.71094 3.61328 3.71094 2.24609 0 3.71094-1.51367 3.71094-3.71094v-10.5957h10.5957c2.19727 0 3.71094-1.46484 3.71094-3.61328 0-2.19727-1.51367-3.71094-3.71094-3.71094h-10.5957v-10.5469c0-2.24609-1.46484-3.75977-3.71094-3.75977-2.14844 0-3.61328 1.51367-3.61328 3.75977v10.5469h-10.498c-2.24609 0-3.75977 1.51367-3.75977 3.71094Z"/>
  </g>
  <g transform="matrix(0.2 0 0 0.2 281.506 1933)">
   <path d="m58.5449 14.5508c27.4902 0 49.8047-22.3145 49.8047-49.8047s-22.3145-49.8047-49.8047-49.8047-49.8047 22.3145-49.8047 49.8047 22.3145 49.8047 49.8047 49.8047Zm0-8.30078c-22.9492 0-41.5039-18.5547-41.5039-41.5039s18.5547-41.5039 41.5039-41.5039 41.5039 18.5547 41.5039 41.5039-18.5547 41.5039-41.5039 41.5039Zm-22.6562-41.5039c0 2.39258 1.66016 4.00391 4.15039 4.00391h14.3555v14.4043c0 2.44141 1.66016 4.15039 4.05273 4.15039 2.44141 0 4.15039-1.66016 4.15039-4.15039v-14.4043h14.4043c2.44141 0 4.15039-1.61133 4.15039-4.00391 0-2.44141-1.70898-4.15039-4.15039-4.15039h-14.4043v-14.3555c0-2.49023-1.70898-4.19922-4.15039-4.19922-2.39258 0-4.05273 1.70898-4.05273 4.19922v14.3555h-14.3555c-2.49023 0-4.15039 1.70898-4.15039 4.15039Z"/>
  </g>
  <g transform="matrix(0.2 0 0 0.2 304.924 1933)">
   <path d="m74.8535 28.3203c35.1074 0 63.623-28.4668 63.623-63.5742s-28.5156-63.623-63.623-63.623-63.5742 28.5156-63.5742 63.623 28.4668 63.5742 63.5742 63.5742Zm0-9.08203c-30.127 0-54.4922-24.3652-54.4922-54.4922s24.3652-54.4922 54.4922-54.4922 54.4922 24.3652 54.4922 54.4922-24.3652 54.4922-54.4922 54.4922Zm-28.8574-54.4922c0 2.58789 1.85547 4.39453 4.58984 4.39453h19.7266v19.7754c0 2.68555 1.85547 4.58984 4.44336 4.58984 2.68555 0 4.54102-1.85547 4.54102-4.58984v-19.7754h19.7754c2.68555 0 4.58984-1.80664 4.58984-4.39453 0-2.73438-1.85547-4.58984-4.58984-4.58984h-19.7754v-19.7266c0-2.73438-1.85547-4.63867-4.54102-4.63867-2.58789 0-4.44336 1.9043-4.44336 4.63867v19.7266h-19.7266c-2.73438 0-4.58984 1.85547-4.58984 4.58984Z"/>
  </g>
  <text style="stroke:none;fill:black;font-family:sans-serif;font-size:13;font-weight:bold;" transform="matrix(1 0 0 1 263 1953)">Design Variations</text>
  <text style="stroke:none;fill:black;font-family:sans-serif;font-size:13;" transform="matrix(1 0 0 1 263 1971)">Symbols are supported in up to nine weights and three scales.</text>
  <text style="stroke:none;fill:black;font-family:sans-serif;font-size:13;" transform="matrix(1 0 0 1 263 1989)">For optimal layout with text and other symbols, vertically align</text>
  <text style="stroke:none;fill:black;font-family:sans-serif;font-size:13;" transform="matrix(1 0 0 1 263 2007)">symbols with the adjacent text.</text>
  <line style="fill:none;stroke:#00AEEF;stroke-width:0.5;opacity:1.0;" x1="776" x2="776" y1="1919" y2="1933"/>
  <g transform="matrix(0.2 0 0 0.2 776 1933)">
   <path d="m16.5527 0.78125c2.58789 0 3.85742-0.976562 4.78516-3.71094l6.29883-17.2363h28.8086l6.29883 17.2363c0.927734 2.73438 2.19727 3.71094 4.73633 3.71094 2.58789 0 4.24805-1.5625 4.24805-4.00391 0-0.830078-0.146484-1.61133-0.537109-2.63672l-22.9004-60.9863c-1.12305-2.97852-3.125-4.49219-6.25-4.49219-3.02734 0-5.07812 1.46484-6.15234 4.44336l-22.9004 61.084c-0.390625 1.02539-0.537109 1.80664-0.537109 2.63672 0 2.44141 1.5625 3.95508 4.10156 3.95508Zm13.4766-28.3691 11.8652-32.8613h0.244141l11.8652 32.8613Z"/>
  </g>
  <line style="fill:none;stroke:#00AEEF;stroke-width:0.5;opacity:1.0;" x1="792.836" x2="792.836" y1="1919" y2="1933"/>
  <text style="stroke:none;fill:black;font-family:sans-serif;font-size:13;font-weight:bold;" transform="matrix(1 0 0 1 776 1953)">Margins</text>
  <text style="stroke:none;fill:black;font-family:sans-serif;font-size:13;" transform="matrix(1 0 0 1 776 1971)">Leading and trailing margins on the left and right side of each symbol</text>
  <text style="stroke:none;fill:black;font-family:sans-serif;font-size:13;" transform="matrix(1 0 0 1 776 1989)">can be adjusted by modifying the x-location of the margin guidelines.</text>
  <text style="stroke:none;fill:black;font-family:sans-serif;font-size:13;" transform="matrix(1 0 0 1 776 2007)">Modifications are automatically applied proportionally to all</text>
  <text style="stroke:none;fill:black;font-family:sans-serif;font-size:13;" transform="matrix(1 0 0 1 776 2025)">scales and weights.</text>
  <g transform="matrix(0.2 0 0 0.2 1289 1933)">
   <path d="m14.209 9.32617 8.49609 8.54492c4.29688 4.3457 9.22852 4.05273 13.8672-1.07422l53.4668-58.9355-4.83398-4.88281-53.0762 58.3984c-1.75781 2.00195-3.41797 2.49023-5.76172 0.146484l-5.85938-5.81055c-2.34375-2.29492-1.80664-4.00391 0.195312-5.81055l57.373-54.0039-4.88281-4.83398-57.959 54.4434c-4.93164 4.58984-5.32227 9.47266-1.02539 13.8184Zm32.0801-90.9668c-2.09961 2.05078-2.24609 4.93164-1.07422 6.88477 1.17188 1.80664 3.4668 2.97852 6.68945 2.14844 7.32422-1.70898 14.9414-2.00195 22.0703 2.68555l-2.92969 7.27539c-1.70898 4.15039-0.830078 7.08008 1.85547 9.81445l11.4746 11.5723c2.44141 2.44141 4.49219 2.53906 7.32422 2.05078l5.32227-0.976562 3.32031 3.36914-0.195312 2.7832c-0.195312 2.49023 0.439453 4.39453 2.88086 6.78711l3.80859 3.71094c2.39258 2.39258 5.46875 2.53906 7.8125 0.195312l14.5508-14.5996c2.34375-2.34375 2.24609-5.32227-0.146484-7.71484l-3.85742-3.80859c-2.39258-2.39258-4.24805-3.17383-6.64062-2.97852l-2.88086 0.244141-3.22266-3.17383 1.2207-5.61523c0.634766-2.83203-0.146484-5.0293-3.07617-7.95898l-10.9863-10.9375c-16.6992-16.6016-38.8672-16.2109-53.3203-1.75781Zm7.4707 1.85547c12.1582-8.88672 28.6133-7.37305 39.7461 3.75977l12.1582 12.0605c1.17188 1.17188 1.36719 2.09961 1.02539 3.80859l-1.61133 7.42188 7.51953 7.42188 4.93164-0.292969c1.26953-0.0488281 1.66016 0.0488281 2.63672 1.02539l2.88086 2.88086-12.207 12.207-2.88086-2.88086c-0.976562-0.976562-1.12305-1.36719-1.07422-2.68555l0.341797-4.88281-7.4707-7.42188-7.61719 1.26953c-1.61133 0.341797-2.34375 0.195312-3.56445-0.976562l-10.0098-10.0098c-1.26953-1.17188-1.41602-2.00195-0.634766-3.85742l4.39453-10.4492c-7.8125-7.27539-17.9688-10.4004-28.125-7.42188-0.78125 0.195312-1.07422-0.439453-0.439453-0.976562Z"/>
  </g>
  <text style="stroke:none;fill:black;font-family:sans-serif;font-size:13;font-weight:bold;" transform="matrix(1 0 0 1 1289 1953)">Exporting</text>
  <text style="stroke:none;fill:black;font-family:sans-serif;font-size:13;" transform="matrix(1 0 0 1 1289 1971)">Symbols should be outlined when exporting to ensure the</text>
  <text style="stroke:none;fill:black;font-family:sans-serif;font-size:13;" transform="matrix(1 0 0 1 1289 1989)">design is preserved when submitting to Xcode.</text>
  <text id="template-version" style="stroke:none;fill:black;font-family:sans-serif;font-size:13;text-anchor:end;" transform="matrix(1 0 0 1 3036 1933)">Template v.6.0</text>
  <text style="stroke:none;fill:black;font-family:sans-serif;font-size:13;text-anchor:end;" transform="matrix(1 0 0 1 3036 1951)">Requires Xcode 16 or greater</text>
  <text id="descriptive-name" style="stroke:none;fill:black;font-family:sans-serif;font-size:13;text-anchor:end;" transform="matrix(1 0 0 1 3036 1969)">Generated from meetup-fill</text>
  <text style="stroke:none;fill:black;font-family:sans-serif;font-size:13;text-anchor:end;" transform="matrix(1 0 0 1 3036 1987)">Typeset at 100.0 points</text>
  <text style="stroke:none;fill:black;font-family:sans-serif;font-size:13;" transform="matrix(1 0 0 1 263 726)">Small</text>
  <text style="stroke:none;fill:black;font-family:sans-serif;font-size:13;" transform="matrix(1 0 0 1 263 1156)">Medium</text>
  <text style="stroke:none;fill:black;font-family:sans-serif;font-size:13;" transform="matrix(1 0 0 1 263 1586)">Large</text>
 </g>
 <g id="Guides">
  <g id="H-reference" style="fill:#27AAE1;stroke:none;" transform="matrix(1 0 0 1 339 696)">
   <path d="M0.993654 0L3.63775 0L29.3281-67.1323L30.0303-67.1323L30.0303-70.459L28.1226-70.459ZM11.6885-24.4799L46.9815-24.4799L46.2315-26.7285L12.4385-26.7285ZM55.1196 0L57.7637 0L30.6382-70.459L29.4326-70.459L29.4326-67.1323Z"/>
  </g>
  <line id="Baseline-S" style="fill:none;stroke:#27AAE1;opacity:1;stroke-width:0.5;" x1="263" x2="3036" y1="696" y2="696"/>
  <line id="Capline-S" style="fill:none;stroke:#27AAE1;opacity:1;stroke-width:0.5;" x1="263" x2="3036" y1="625.541" y2="625.541"/>
  <g id="H-reference" style="fill:#27AAE1;stroke:none;" transform="matrix(1 0 0 1 339 1126)">
   <path d="M0.993654 0L3.63775 0L29.3281-67.1323L30.0303-67.1323L30.0303-70.459L28.1226-70.459ZM11.6885-24.4799L46.9815-24.4799L46.2315-26.7285L12.4385-26.7285ZM55.1196 0L57.7637 0L30.6382-70.459L29.4326-70.459L29.4326-67.1323Z"/>
  </g>
  <line id="Baseline-M" style="fill:none;stroke:#27AAE1;opacity:1;stroke-width:0.5;" x1="263" x2="3036" y1="1126" y2="1126"/>
  <line id="Capline-M" style="fill:none;stroke:#27AAE1;opacity:1;stroke-width:0.5;" x1="263" x2="3036" y1="1055.54" y2="1055.54"/>
  <g id="H-reference" style="fill:#27AAE1;stroke:none;" transform="matrix(1 0 0 1 339 1556)">
   <path d="M0.993654 0L3.63775 0L29.3281-67.1323L30.0303-67.1323L30.0303-70.459L28.1226-70.459ZM11.6885-24.4799L46.9815-24.4799L46.2315-26.7285L12.4385-26.7285ZM55.1196 0L57.7637 0L30.6382-70.459L29.4326-70.459L29.4326-67.1323Z"/>
  </g>
  <line id="Baseline-L" style="fill:none;stroke:#27AAE1;opacity:1;stroke-width:0.5;" x1="263" x2="3036" y1="1556" y2="1556"/>
  <line id="Capline-L" style="fill:none;stroke:#27AAE1;opacity:1;stroke-width:0.5;" x1="263" x2="3036" y1="1485.54" y2="1485.54"/>
  <line id="right-margin-Black-S" style="fill:none;stroke:#00AEEF;stroke-width:0.5;opacity:1.0;" x1="2998.09" x2="2998.09" y1="600.785" y2="720.121"/>
  <line id="left-margin-Black-S" style="fill:none;stroke:#00AEEF;stroke-width:0.5;opacity:1.0;" x1="2868.71" x2="2868.71" y1="600.785" y2="720.121"/>
  <line id="right-margin-Regular-S" style="fill:none;stroke:#00AEEF;stroke-width:0.5;opacity:1.0;" x1="1509.57" x2="1509.57" y1="600.785" y2="720.121"/>
  <line id="left-margin-Regular-S" style="fill:none;stroke:#00AEEF;stroke-width:0.5;opacity:1.0;" x1="1390.12" x2="1390.12" y1="600.785" y2="720.121"/>
  <line id="right-margin-Ultralight-S" style="fill:none;stroke:#00AEEF;stroke-width:0.5;opacity:1.0;" x1="617.242" x2="617.242" y1="600.785" y2="720.121"/>
  <line id="left-margin-Ultralight-S" style="fill:none;stroke:#00AEEF;stroke-width:0.5;opacity:1.0;" x1="502.18" x2="502.18" y1="600.785" y2="720.121"/>
 </g>
 <g id="Symbols">
  <g id="Black-S" transform="matrix(1 0 0 1 2868.71 696)">
   <path class="SFSymbolsPreviewWireframe" d="M41.8062-90.2283C43.1272-90.2283 44.198-89.1573 44.198-87.8365C44.198-86.5156 43.1272-85.4448 41.8062-85.4448C40.4854-85.4448 39.4146-86.5156 39.4146-87.8365C39.4146-89.1573 40.4854-90.2283 41.8062-90.2283ZM71.1987-87.2031C73.6606-87.2031 75.656-85.2073 75.656-82.7457C75.656-80.2839 73.6606-78.2883 71.1987-78.2883C68.7371-78.2883 66.7417-80.2839 66.7417-82.7457C66.7417-85.2073 68.7371-87.2031 71.1987-87.2031ZM31.8215-73.2615C33.6731-73.2615 35.1738-71.7605 35.1738-69.9092C35.1738-68.0577 33.6731-66.5569 31.8215-66.5569C29.9702-66.5569 28.4695-68.0577 28.4695-69.9092C28.4695-71.7605 29.9702-73.2615 31.8215-73.2615ZM104.868-62.4826C106.952-62.4826 108.641-60.7932 108.641-58.7096C108.641-56.6257 106.952-54.9366 104.868-54.9366C102.784-54.9366 101.095-56.6257 101.095-58.7096C101.095-60.7932 102.784-62.4826 104.868-62.4826ZM14.4575-42.0549C16.9194-42.0549 18.9153-40.059 18.9153-37.5972C18.9153-35.1352 16.9194-33.1395 14.4575-33.1395C11.9958-33.1395 10-35.1352 10-37.5972C10-40.059 11.9958-42.0549 14.4575-42.0549ZM61.9446 8.41766C63.5232 8.41766 64.8027 9.69739 64.8027 11.2758C64.8027 12.8544 63.5232 14.134 61.9446 14.134C60.3662 14.134 59.0864 12.8544 59.0864 11.2758C59.0864 9.69739 60.3662 8.41766 61.9446 8.41766ZM28.5156-7.29468C29.6494-7.29468 30.5688-6.37537 30.5688-5.24152C30.5688-4.10754 29.6494-3.18835 28.5156-3.18835C27.3816-3.18835 26.4624-4.10754 26.4624-5.24152C26.4624-6.37537 27.3816-7.29468 28.5156-7.29468ZM90.8796-0.124207C93.4385-0.124207 95.5127 1.95026 95.5127 4.50885C95.5127 7.06769 93.4385 9.14191 90.8796 9.14191C88.321 9.14191 86.2468 7.06769 86.2468 4.50885C86.2468 1.95026 88.321-0.124207 90.8796-0.124207ZM111.787-35.1467C113.309-35.1467 114.543-33.9127 114.543-32.3907C114.543-30.8685 113.309-29.6347 111.787-29.6347C110.265-29.6347 109.031-30.8685 109.031-32.3907C109.031-33.9127 110.265-35.1467 111.787-35.1467ZM117.336-48.3936C118.468-48.3936 119.386-47.4758 119.386-46.3439C119.386-45.2118 118.468-44.2941 117.336-44.2941C116.204-44.2941 115.287-45.2118 115.287-46.3439C115.287-47.4758 116.204-48.3936 117.336-48.3936ZM105.233-42.1571C105.233-38.6326 103.534-35.5318 100.941-33.5366C102.876-30.5252 104.012-26.9514 104.012-23.1065C104.012-12.4251 95.3533-3.76678 84.6721-3.76678C84.4136-3.76678 84.1624-3.79541 83.9063-3.80542C82.6528 2.01611 77.4873 6.38318 71.2913 6.38318C67.8711 6.38318 64.783 5.02936 62.4722 2.85883C59.4324 5.33624 55.5549 6.82526 51.3276 6.82526C41.6733 6.82526 33.8406-0.926697 33.6853-10.5448C25.845-11.8328 19.8572-18.6219 19.8572-26.8276C19.8572-31.6682 21.9519-36.0088 25.269-39.0306C23.8728-41.3555 23.0549-44.0676 23.0549-46.977C23.0549-54.7244 28.7554-61.1238 36.1868-62.2549C39.4917-70.8625 47.813-76.9838 57.5837-76.9838C62.2781-76.9838 66.6389-75.5677 70.2739-73.1478C72.4402-73.9609 74.7764-74.4266 77.2266-74.4266C88.1736-74.4266 97.0474-65.552 97.0474-54.6059C97.0474-53.9673 97.0107-53.3375 96.9517-52.7144C101.7-51.5316 105.233-47.2714 105.233-42.1571ZM81.9429-14.6102C85.0671-14.6102 87.0474-16.0395 87.0474-17.9792C87.0474-20.3148 84.5198-20.7056 81.5344-21.0419C78.6152-21.371 78.0632-23.3901 78.0632-24.8195C78.0632-26.2487 78.9146-29.5031 81.0227-34.3558C82.5715-37.9215 86.4263-46.1915 86.4263-49.2545C86.4263-53.4464 83.061-56.146 79.4878-56.146C75.4893-56.146 74.7966-54.5419 73.7151-54.5419C72.4023-54.5419 70.8743-57.9326 67.6992-57.9326C63.3606-57.9326 62.0601-53.814 59.6865-53.814C57.199-53.814 55.6116-56.6725 51.9275-56.6725C44.2544-56.6725 42.4924-49.8854 41.2827-46.2319C39.9326-42.1536 35.3843-27.7316 34.9326-25.8786C33.345-19.3656 39.3696-16.8282 42.219-16.8282C45.9304-16.8282 47.8438-19.919 48.7625-22.165C49.5808-24.165 56.677-41.9261 56.8279-42.2774C57.7361-44.3906 58.9746-44.8328 60.0212-44.5663C61.4023-44.2148 62.0439-43.0081 61.3271-40.8248C60.6431-38.7422 57.1375-30.3423 56.0159-27.381C54.5076-23.3994 56.4797-21.6801 59.0322-21.6801C61.5845-21.6801 63.2852-23.6407 64.4849-26.3508C65.5383-28.731 72.6416-42.3843 73.469-44.2172C74.3662-46.2046 75.4063-46.7513 76.5242-46.498C78.0864-46.1442 78.0308-44.7996 77.0098-42.5535C75.989-40.3074 73.2695-34.4998 71.8357-31.5576C70.6985-29.2245 69.4873-27.6826 69.4873-23.9006C69.4873-16.5034 77.4214-14.6102 81.9429-14.6102Z"/>
  </g>
  <g id="Regular-S" transform="matrix(1 0 0 1 1390.12 696)">
   <path class="SFSymbolsPreviewWireframe" d="M38.9183-85.2813C40.1194-85.2813 41.0929-84.3076 41.0929-83.1067C41.0929-81.9057 40.1194-80.9321 38.9183-80.9321C37.7174-80.9321 36.7439-81.9057 36.7439-83.1067C36.7439-84.3076 37.7174-85.2813 38.9183-85.2813ZM65.6422-82.5308C67.8805-82.5308 69.6949-80.7162 69.6949-78.4781C69.6949-76.2398 67.8805-74.4254 65.6422-74.4254C63.4042-74.4254 61.5898-76.2398 61.5898-78.4781C61.5898-80.7162 63.4042-82.5308 65.6422-82.5308ZM29.8403-69.855C31.5237-69.855 32.8883-68.4903 32.8883-66.8071C32.8883-65.1237 31.5237-63.7591 29.8403-63.7591C28.1571-63.7591 26.7925-65.1237 26.7925-66.8071C26.7925-68.4903 28.1571-69.855 29.8403-69.855ZM96.2546-60.0547C98.1493-60.0547 99.6852-58.5188 99.6852-56.6243C99.6852-54.7297 98.1493-53.1938 96.2546-53.1938C94.3602-53.1938 92.8243-54.7297 92.8243-56.6243C92.8243-58.5188 94.3602-60.0547 96.2546-60.0547ZM14.0527-41.4818C16.2913-41.4818 18.1057-39.6671 18.1057-37.4288C18.1057-35.1903 16.2913-33.3758 14.0527-33.3758C11.8145-33.3758 10-35.1903 10-37.4288C10-39.6671 11.8145-41.4818 14.0527-41.4818ZM57.2283 4.4082C58.6636 4.4082 59.8269 5.57178 59.8269 7.0069C59.8269 8.44214 58.6636 9.60553 57.2283 9.60553C55.7931 9.60553 54.6298 8.44214 54.6298 7.0069C54.6298 5.57178 55.7931 4.4082 57.2283 4.4082ZM26.8345-9.87756C27.8655-9.87756 28.7012-9.04175 28.7012-8.0108C28.7012-6.9798 27.8655-6.14404 26.8345-6.14404C25.8035-6.14404 24.9678-6.9798 24.9678-8.0108C24.9678-9.04175 25.8035-9.87756 26.8345-9.87756ZM83.5361-3.35809C85.8627-3.35809 87.7485-1.47205 87.7485 0.854309C87.7485 3.18079 85.8627 5.06671 83.5361 5.06671C81.2098 5.06671 79.324 3.18079 79.324 0.854309C79.324-1.47205 81.2098-3.35809 83.5361-3.35809ZM102.545-35.2008C103.929-35.2008 105.051-34.0789 105.051-32.695C105.051-31.311 103.929-30.1892 102.545-30.1892C101.161-30.1892 100.039-31.311 100.039-32.695C100.039-34.0789 101.161-35.2008 102.545-35.2008ZM107.591-47.2449C108.62-47.2449 109.454-46.4105 109.454-45.3813C109.454-44.3521 108.62-43.5177 107.591-43.5177C106.562-43.5177 105.727-44.3521 105.727-45.3813C105.727-46.4105 106.562-47.2449 107.591-47.2449ZM96.5863-41.5747C96.5863-38.3702 95.0415-35.5509 92.6843-33.7369C94.4432-30.9988 95.4761-27.7496 95.4761-24.2538C95.4761-14.5422 87.6036-6.66998 77.8922-6.66998C77.6571-6.66998 77.4288-6.69598 77.1959-6.70508C76.0564-1.41211 71.3599 2.55847 65.7264 2.55847C62.6167 2.55847 59.8088 1.32758 57.708-0.645935C54.9441 1.60657 51.4188 2.96039 47.5753 2.96039C38.7975 2.96039 31.6759-4.08777 31.5347-12.8326C24.4064-14.0037 18.962-20.1763 18.962-27.637C18.962-32.038 20.8667-35.9846 23.8828-38.7321C22.6132-40.8458 21.8695-43.3117 21.8695-45.957C21.8695-53.0009 27.0525-58.8194 33.8092-59.8478C36.814-67.6739 44.3798-73.2394 53.2633-73.2394C57.5315-73.2394 61.4966-71.9518 64.8015-69.7516C66.771-70.4909 68.8951-70.9143 71.1228-70.9143C81.0759-70.9143 89.1439-62.8455 89.1439-52.8932C89.1439-52.3126 89.1107-51.7399 89.0571-51.1734C93.3746-50.098 96.5863-46.2246 96.5863-41.5747ZM75.4109-16.5288C78.2515-16.5288 80.052-17.8284 80.052-19.592C80.052-21.7155 77.7539-22.0708 75.0396-22.3766C72.3855-22.6758 71.8835-24.5117 71.8835-25.8112C71.8835-27.1107 72.6576-30.0696 74.5741-34.4817C75.9824-37.7237 79.4873-45.2428 79.4873-48.0276C79.4873-51.8389 76.4275-54.2935 73.1787-54.2935C69.5433-54.2935 68.9135-52.835 67.9301-52.835C66.7366-52.835 65.3473-55.9179 62.4604-55.9179C58.5157-55.9179 57.3334-52.1732 55.1753-52.1732C52.9136-52.1732 51.4703-54.7722 48.1206-54.7722C41.1443-54.7722 39.5422-48.6013 38.4425-45.2796C37.2148-41.5715 33.0795-28.4589 32.6688-26.7742C31.2253-20.8525 36.7029-18.5455 39.2937-18.5455C42.6681-18.5455 44.4077-21.3557 45.243-23.3978C45.9871-25.2162 52.439-41.3646 52.5762-41.684C53.402-43.6053 54.528-44.0074 55.4796-43.7652C56.7352-43.4455 57.3187-42.3484 56.6669-40.3633C56.045-38.4699 52.8577-30.8326 51.8378-28.1402C50.4666-24.52 52.2598-22.9568 54.5803-22.9568C56.901-22.9568 58.4473-24.7394 59.538-27.2035C60.4958-29.3676 66.9542-41.7812 67.7064-43.4478C68.5221-45.2547 69.4678-45.7518 70.4841-45.5215C71.9047-45.1997 71.854-43.9772 70.9258-41.9351C69.9974-39.8929 67.525-34.6125 66.2213-31.9375C65.1874-29.8163 64.0863-28.4144 64.0863-24.9758C64.0863-18.2502 71.2998-16.5288 75.4109-16.5288Z"/>
  </g>
  <g id="Ultralight-S" transform="matrix(1 0 0 1 502.18 696)">
   <path class="SFSymbolsPreviewWireframe" d="M37.6411-85.2616C38.789-85.2616 39.7195-84.331 39.7195-83.1831C39.7195-82.0351 38.789-81.1046 37.6411-81.1046C36.4932-81.1046 35.5626-82.0351 35.5626-83.1831C35.5626-84.331 36.4932-85.2616 37.6411-85.2616ZM63.1846-82.6326C65.324-82.6326 67.0582-80.8981 67.0582-78.7589C67.0582-76.6195 65.324-74.8853 63.1846-74.8853C61.0453-74.8853 59.3111-76.6195 59.3111-78.7589C59.3111-80.8981 61.0453-82.6326 63.1846-82.6326ZM28.964-70.5167C30.573-70.5167 31.8773-69.2123 31.8773-67.6034C31.8773-65.9943 30.573-64.6901 28.964-64.6901C27.3551-64.6901 26.0508-65.9943 26.0508-67.6034C26.0508-69.2123 27.3551-70.5167 28.964-70.5167ZM92.4449-61.1494C94.2559-61.1494 95.7238-59.6812 95.7238-57.8704C95.7238-56.0594 94.2559-54.5914 92.4449-54.5914C90.6341-54.5914 89.1661-56.0594 89.1661-57.8704C89.1661-59.6812 90.6341-61.1494 92.4449-61.1494ZM13.8738-43.3967C16.0134-43.3967 17.7477-41.6621 17.7477-39.5227C17.7477-37.3831 16.0134-35.6487 13.8738-35.6487C11.7344-35.6487 10-37.3831 10-39.5227C10-41.6621 11.7344-43.3967 13.8738-43.3967ZM55.1422 0.46637C56.5141 0.46637 57.6262 1.57855 57.6262 2.95026C57.6262 4.32214 56.5141 5.43414 55.1422 5.43414C53.7705 5.43414 52.6584 4.32214 52.6584 2.95026C52.6584 1.57855 53.7705 0.46637 55.1422 0.46637ZM26.0909-13.1884C27.0764-13.1884 27.8752-12.3895 27.8752-11.4041C27.8752-10.4186 27.0764-9.61981 26.0909-9.61981C25.1055-9.61981 24.3066-10.4186 24.3066-11.4041C24.3066-12.3895 25.1055-13.1884 26.0909-13.1884ZM80.2881-6.95691C82.5119-6.95691 84.3145-5.15411 84.3145-2.9306C84.3145-0.706848 82.5119 1.09576 80.2881 1.09576C78.0646 1.09576 76.262-0.706848 76.262-2.9306C76.262-5.15411 78.0646-6.95691 80.2881-6.95691ZM98.4575-37.3931C99.7803-37.3931 100.853-36.3207 100.853-34.998C100.853-33.6752 99.7803-32.6029 98.4575-32.6029C97.1348-32.6029 96.0625-33.6752 96.0625-34.998C96.0625-36.3207 97.1348-37.3931 98.4575-37.3931ZM103.28-48.9053C104.264-48.9053 105.062-48.1077 105.062-47.124C105.062-46.1402 104.264-45.3427 103.28-45.3427C102.297-45.3427 101.499-46.1402 101.499-47.124C101.499-48.1077 102.297-48.9053 103.28-48.9053ZM92.7618-43.4855C92.7618-40.4225 91.2853-37.7278 89.0322-35.9939C90.7135-33.3768 91.7006-30.2711 91.7006-26.9296C91.7006-17.647 84.176-10.1225 74.8935-10.1225C74.6688-10.1225 74.4505-10.1473 74.228-10.1561C73.1387-5.09686 68.6497-1.3017 63.265-1.3017C60.2927-1.3017 57.6089-2.47821 55.6008-4.3645C52.959-2.21155 49.5894-0.917542 45.9157-0.917542C37.5256-0.917542 30.7186-7.65436 30.5836-16.0129C23.77-17.1323 18.5662-23.0323 18.5662-30.1635C18.5662-34.3701 20.3868-38.1423 23.2695-40.7684C22.056-42.7888 21.3453-45.1458 21.3453-47.6743C21.3453-54.407 26.2993-59.9685 32.7575-60.9515C35.6296-68.4319 42.8613-73.7516 51.3525-73.7516C55.4321-73.7516 59.222-72.5209 62.3809-70.4179C64.2635-71.1245 66.2938-71.5292 68.4231-71.5292C77.9365-71.5292 85.6482-63.8168 85.6482-54.3041C85.6482-53.7491 85.6165-53.2018 85.5652-52.6603C89.692-51.6324 92.7618-47.9301 92.7618-43.4855ZM72.5217-19.5459C75.2369-19.5459 76.9578-20.788 76.9578-22.4737C76.9578-24.5035 74.7613-24.8431 72.1668-25.1354C69.6299-25.4213 69.1502-27.1761 69.1502-28.4183C69.1502-29.6603 69.8901-32.4886 71.722-36.7057C73.068-39.8046 76.4181-46.9916 76.4181-49.6534C76.4181-53.2964 73.4935-55.6425 70.3881-55.6425C66.9133-55.6425 66.3113-54.2485 65.3713-54.2485C64.2306-54.2485 62.9026-57.1952 60.1433-57.1952C56.3729-57.1952 55.2427-53.6158 53.1799-53.6158C51.0182-53.6158 49.6386-56.1 46.4368-56.1C39.7686-56.1 38.2373-50.2017 37.1862-47.0267C36.0128-43.4824 32.0601-30.949 31.6676-29.3387C30.2879-23.6786 35.5235-21.4735 37.9998-21.4735C41.2252-21.4735 42.888-24.1595 43.6864-26.1115C44.3975-27.8495 50.5645-43.2847 50.6956-43.59C51.4849-45.4265 52.5612-45.8108 53.4708-45.5793C54.671-45.2737 55.2287-44.2251 54.6057-42.3277C54.0112-40.5178 50.9647-33.2179 49.9899-30.6444C48.6791-27.1841 50.3931-25.69 52.6112-25.69C54.8294-25.69 56.3074-27.3939 57.35-29.7491C58.2654-31.8176 64.4386-43.6829 65.1576-45.2758C65.9373-47.0029 66.8411-47.4781 67.8126-47.258C69.1704-46.9504 69.122-45.7819 68.2347-43.83C67.3475-41.8781 64.9842-36.8309 63.738-34.274C62.7498-32.2465 61.6973-30.9065 61.6973-27.6198C61.6973-21.1912 68.5923-19.5459 72.5217-19.5459Z"/>
  </g>
 </g>
</svg>
