<?xml version="1.0" encoding="UTF-8"?>
<svg height="600" width="800" xmlns="http://www.w3.org/2000/svg" xmlns:xlink="http://www.w3.org/1999/xlink">
    <g id="Notes" font-family="'LucidaGrande', 'Lucida Grande', sans-serif" font-size="13">
        <rect fill="white" height="600.0" width="800.0" x="0.0" y="0.0" />
        <g font-size="13">
            <text x="18.0" y="176.0">Small</text>
            <text x="18.0" y="376.0">Medium</text>
            <text x="18.0" y="576.0">Large</text>
        </g>
        <g font-size="9">
            <text x="250.0" y="30.0">Ultralight</text>
            <text x="450.0" y="30.0">Regular</text>
            <text x="650.0" y="30.0">Black</text>
            <text id="template-version" fill="#505050" text-anchor="end" x="785.0" y="575.0">Template v.3.0</text>
            <a href="https://wangchujiang.com/#/app">
                <text fill="#505050" text-anchor="end" x="785.0" y="590.0">https://wangchujiang.com/#/app</text>
            </a>
        </g>
    </g>
    <g id="Guides" stroke="rgb(39, 170, 225)" stroke-width="0.5">
        <path id="Capline-S" d="M18,76 l800,0" />
        <path id="H-reference" d="M85,145.755 L87.685,145.755 L113.369,79.287 L114.052,79.287 L114.052,76 L112.148,76 L85,145.755 Z M95.693,121.536 L130.996,121.536 L130.263,119.313 L96.474,119.313 L95.693,121.536 Z M139.15,145.755 L141.787,145.755 L114.638,76 L113.466,76 L113.466,79.287 L139.15,145.755 Z" stroke="none" />
        <path id="Baseline-S" d="M18,146 l800,0" />
        <path id="left-margin-Ultralight-S" d="M214.472,56 l0,110" />
        <path id="right-margin-Ultralight-S" d="M315.528,56 l0,110" />
        <path id="left-margin-Regular-S" d="M414.472,56 l0,110" />
        <path id="right-margin-Regular-S" d="M515.528,56 l0,110" />
        <path id="left-margin-Black-S" d="M614.472,56 l0,110" />
        <path id="right-margin-Black-S" d="M715.528,56 l0,110" />
        <path id="Capline-M" d="M18,276 l800,0" />
        <path id="Baseline-M" d="M18,346 l800,0" />
        <path id="Capline-L" d="M18,476 l800,0" />
        <path id="Baseline-L" d="M18,546 l800,0" />
    </g>
    <g id="Symbols">
        <g id="Ultralight-S">
            <path d="M293.949,104.641 C292.099,88.408 278.383,76 261.789,76 C243.939,76 229.42,90.523 229.42,108.377 C229.42,111.759 229.936,115.064 230.949,118.239 C226.929,121.054 224.472,125.634 224.472,130.677 C224.472,139.125 231.387,146 239.887,146 L283.386,146 C295.592,146 305.528,136.126 305.528,123.991 C305.528,115.834 301.056,108.469 293.952,104.645 Z M277.211,118.461 C272.82,126.831 266.929,129.196 266.269,129.439 C265.86,129.591 264.777,129.856 263.723,129.439 C263.071,129.182 257.177,126.831 252.781,118.461 C251.834,116.659 252.531,114.43 254.332,113.483 C256.138,112.54 258.367,113.236 259.31,115.034 C259.958,116.272 260.64,117.318 261.314,118.203 L261.314,106.922 C261.314,104.888 262.961,103.237 264.998,103.237 C267.036,103.237 268.682,104.888 268.682,106.922 L268.682,118.203 C269.357,117.318 270.038,116.272 270.687,115.034 C271.63,113.236 273.851,112.54 275.664,113.483 C277.466,114.43 278.162,116.655 277.215,118.461 Z" />
        </g>
        <g id="Regular-S">
            <path d="M493.949,104.641 C492.099,88.408 478.383,76 461.789,76 C443.939,76 429.42,90.523 429.42,108.377 C429.42,111.759 429.936,115.064 430.949,118.239 C426.929,121.054 424.472,125.634 424.472,130.677 C424.472,139.125 431.387,146 439.887,146 L483.386,146 C495.592,146 505.528,136.126 505.528,123.991 C505.528,115.834 501.056,108.469 493.952,104.645 Z M477.211,118.461 C472.82,126.831 466.929,129.196 466.269,129.439 C465.86,129.591 464.777,129.856 463.723,129.439 C463.071,129.182 457.177,126.831 452.781,118.461 C451.834,116.659 452.531,114.43 454.332,113.483 C456.138,112.54 458.367,113.236 459.31,115.034 C459.958,116.272 460.64,117.318 461.314,118.203 L461.314,106.922 C461.314,104.888 462.961,103.237 464.998,103.237 C467.036,103.237 468.682,104.888 468.682,106.922 L468.682,118.203 C469.357,117.318 470.038,116.272 470.687,115.034 C471.63,113.236 473.851,112.54 475.664,113.483 C477.466,114.43 478.162,116.655 477.215,118.461 Z" />
        </g>
        <g id="Black-S">
            <path d="M693.949,104.641 C692.099,88.408 678.383,76 661.789,76 C643.939,76 629.42,90.523 629.42,108.377 C629.42,111.759 629.935,115.064 630.949,118.239 C626.929,121.054 624.472,125.634 624.472,130.677 C624.472,139.125 631.387,146 639.887,146 L683.386,146 C695.592,146 705.528,136.126 705.528,123.991 C705.528,115.834 701.055,108.469 693.952,104.645 Z M677.211,118.461 C672.82,126.831 666.929,129.196 666.269,129.439 C665.86,129.591 664.777,129.856 663.723,129.439 C663.071,129.182 657.177,126.831 652.781,118.461 C651.834,116.659 652.531,114.43 654.332,113.483 C656.138,112.54 658.367,113.236 659.31,115.034 C659.958,116.272 660.64,117.318 661.314,118.203 L661.314,106.922 C661.314,104.888 662.961,103.237 664.998,103.237 C667.036,103.237 668.682,104.888 668.682,106.922 L668.682,118.203 C669.357,117.318 670.038,116.272 670.687,115.034 C671.63,113.236 673.851,112.54 675.664,113.483 C677.466,114.43 678.162,116.655 677.215,118.461 Z" />
        </g>
    </g>
</svg>