<?xml version="1.0" encoding="UTF-8"?>
<svg height="600" width="800" xmlns="http://www.w3.org/2000/svg" xmlns:xlink="http://www.w3.org/1999/xlink">
    <g id="Notes" font-family="'LucidaGrande', 'Lucida Grande', sans-serif" font-size="13">
        <rect fill="white" height="600.0" width="800.0" x="0.0" y="0.0" />
        <g font-size="13">
            <text x="18.0" y="176.0">Small</text>
            <text x="18.0" y="376.0">Medium</text>
            <text x="18.0" y="576.0">Large</text>
        </g>
        <g font-size="9">
            <text x="250.0" y="30.0">Ultralight</text>
            <text x="450.0" y="30.0">Regular</text>
            <text x="650.0" y="30.0">Black</text>
            <text id="template-version" fill="#505050" text-anchor="end" x="785.0" y="575.0">Template v.3.0</text>
            <a href="https://wangchujiang.com/#/app">
                <text fill="#505050" text-anchor="end" x="785.0" y="590.0">https://wangchujiang.com/#/app</text>
            </a>
        </g>
    </g>
    <g id="Guides" stroke="rgb(39, 170, 225)" stroke-width="0.5">
        <path id="Capline-S" d="M18,76 l800,0" />
        <path id="H-reference" d="M85,145.755 L87.685,145.755 L113.369,79.287 L114.052,79.287 L114.052,76 L112.148,76 L85,145.755 Z M95.693,121.536 L130.996,121.536 L130.263,119.313 L96.474,119.313 L95.693,121.536 Z M139.15,145.755 L141.787,145.755 L114.638,76 L113.466,76 L113.466,79.287 L139.15,145.755 Z" stroke="none" />
        <path id="Baseline-S" d="M18,146 l800,0" />
        <path id="left-margin-Ultralight-S" d="M220.123,56 l0,110" />
        <path id="right-margin-Ultralight-S" d="M309.877,56 l0,110" />
        <path id="left-margin-Regular-S" d="M420.123,56 l0,110" />
        <path id="right-margin-Regular-S" d="M509.877,56 l0,110" />
        <path id="left-margin-Black-S" d="M620.123,56 l0,110" />
        <path id="right-margin-Black-S" d="M709.877,56 l0,110" />
        <path id="Capline-M" d="M18,276 l800,0" />
        <path id="Baseline-M" d="M18,346 l800,0" />
        <path id="Capline-L" d="M18,476 l800,0" />
        <path id="Baseline-L" d="M18,546 l800,0" />
    </g>
    <g id="Symbols">
        <g id="Ultralight-S">
            <path d="M295.104,97.738 L293.208,97.738 C290.574,97.738 288.436,99.873 288.436,102.51 C288.436,105.148 290.574,107.283 293.208,107.283 L295.104,107.283 C297.739,107.283 299.877,105.148 299.877,102.51 C299.877,99.873 297.739,97.738 295.104,97.738 Z" />
            <path d="M289.591,92.966 C290.809,92.966 292.031,92.501 292.963,91.572 L294.306,90.233 C296.17,88.371 296.177,85.349 294.312,83.481 C292.451,81.62 289.432,81.61 287.564,83.475 L286.221,84.814 C284.357,86.676 284.351,89.698 286.215,91.566 C287.147,92.498 288.369,92.966 289.594,92.966 Z" />
            <path d="M292.96,113.449 C291.092,111.591 288.073,111.594 286.212,113.462 C284.351,115.326 284.357,118.349 286.225,120.21 L287.567,121.546 C288.499,122.475 289.718,122.94 290.937,122.94 C292.161,122.94 293.386,122.472 294.315,121.537 C296.177,119.672 296.17,116.65 294.303,114.788 L292.96,113.452 Z" />
            <path d="M258.01,126.08 C255.525,126.344 253.069,126.481 250.724,126.481 C245.723,126.481 241.046,125.873 236.82,124.674 C236.464,124.572 236.114,124.46 235.767,124.336 C237.524,130.159 239.903,136.064 242.363,140.566 C244.195,143.919 247.552,146 251.122,146 L251.138,146 C253.25,146 255.143,145.319 256.779,143.98 C259.547,141.708 260.819,137.963 260.094,134.206 C259.607,131.676 258.894,128.918 258.007,126.08 Z" />
            <path d="M275.455,76.004 C274.354,75.944 273.275,76.507 272.652,77.414 C272.365,77.805 266.133,86.205 257.561,85.269 C250.438,84.493 244.04,84.887 238.551,86.446 C234.056,87.726 230.766,91.763 230.365,96.497 C230.206,98.362 230.123,99.873 230.123,102.507 C230.123,105.142 230.209,106.653 230.365,108.517 C230.766,113.252 234.056,117.292 238.551,118.568 C244.04,120.127 250.435,120.528 257.561,119.745 C266.26,118.81 272.518,127.416 272.528,127.413 C273.084,128.434 274.157,129.064 275.312,129.064 C275.372,129.064 275.433,129.064 275.493,129.061 C276.718,128.991 277.79,128.218 278.251,127.082 C278.395,126.729 281.735,118.266 281.735,102.507 C281.735,86.749 278.395,78.282 278.251,77.929 C277.79,76.787 276.686,76.068 275.455,76.001 Z" />
        </g>
        <g id="Regular-S">
            <path d="M495.104,97.738 L493.208,97.738 C490.574,97.738 488.436,99.873 488.436,102.51 C488.436,105.148 490.574,107.283 493.208,107.283 L495.104,107.283 C497.739,107.283 499.877,105.148 499.877,102.51 C499.877,99.873 497.739,97.738 495.104,97.738 Z" />
            <path d="M489.591,92.966 C490.809,92.966 492.031,92.501 492.963,91.572 L494.306,90.233 C496.17,88.371 496.177,85.349 494.312,83.481 C492.451,81.62 489.432,81.61 487.564,83.475 L486.221,84.814 C484.357,86.676 484.351,89.698 486.215,91.566 C487.147,92.498 488.369,92.966 489.594,92.966 Z" />
            <path d="M492.96,113.449 C491.092,111.591 488.073,111.594 486.212,113.462 C484.351,115.326 484.357,118.349 486.225,120.21 L487.567,121.546 C488.499,122.475 489.718,122.94 490.937,122.94 C492.161,122.94 493.386,122.472 494.315,121.537 C496.177,119.672 496.17,116.65 494.303,114.788 L492.96,113.452 Z" />
            <path d="M458.01,126.08 C455.525,126.344 453.069,126.481 450.724,126.481 C445.723,126.481 441.046,125.873 436.82,124.674 C436.464,124.572 436.114,124.46 435.767,124.336 C437.524,130.159 439.903,136.064 442.363,140.566 C444.195,143.919 447.552,146 451.122,146 L451.138,146 C453.25,146 455.143,145.319 456.779,143.98 C459.547,141.708 460.819,137.963 460.094,134.206 C459.607,131.676 458.894,128.918 458.007,126.08 Z" />
            <path d="M475.455,76.004 C474.354,75.944 473.275,76.507 472.652,77.414 C472.365,77.805 466.133,86.205 457.561,85.269 C450.438,84.493 444.039,84.887 438.551,86.446 C434.056,87.726 430.766,91.763 430.365,96.497 C430.206,98.362 430.123,99.873 430.123,102.507 C430.123,105.142 430.209,106.653 430.365,108.517 C430.766,113.252 434.056,117.292 438.551,118.568 C444.039,120.127 450.435,120.528 457.561,119.745 C466.26,118.81 472.518,127.416 472.528,127.413 C473.084,128.434 474.157,129.064 475.312,129.064 C475.372,129.064 475.433,129.064 475.493,129.061 C476.718,128.991 477.79,128.218 478.251,127.082 C478.395,126.729 481.735,118.266 481.735,102.507 C481.735,86.749 478.395,78.282 478.251,77.929 C477.79,76.787 476.686,76.068 475.455,76.001 Z" />
        </g>
        <g id="Black-S">
            <path d="M695.104,97.738 L693.208,97.738 C690.574,97.738 688.436,99.873 688.436,102.51 C688.436,105.148 690.574,107.283 693.208,107.283 L695.104,107.283 C697.739,107.283 699.877,105.148 699.877,102.51 C699.877,99.873 697.739,97.738 695.104,97.738 Z" />
            <path d="M689.591,92.966 C690.809,92.966 692.031,92.501 692.963,91.572 L694.306,90.233 C696.17,88.371 696.177,85.349 694.312,83.481 C692.451,81.62 689.432,81.61 687.564,83.475 L686.221,84.814 C684.357,86.676 684.351,89.698 686.215,91.566 C687.147,92.498 688.369,92.966 689.594,92.966 Z" />
            <path d="M692.96,113.449 C691.092,111.591 688.073,111.594 686.212,113.462 C684.351,115.326 684.357,118.349 686.225,120.21 L687.567,121.546 C688.499,122.475 689.718,122.94 690.937,122.94 C692.161,122.94 693.386,122.472 694.315,121.537 C696.177,119.672 696.17,116.65 694.303,114.788 L692.96,113.452 Z" />
            <path d="M658.01,126.08 C655.525,126.344 653.069,126.481 650.724,126.481 C645.723,126.481 641.046,125.873 636.82,124.674 C636.464,124.572 636.114,124.46 635.767,124.336 C637.524,130.159 639.903,136.064 642.363,140.566 C644.195,143.919 647.552,146 651.122,146 L651.138,146 C653.25,146 655.143,145.319 656.779,143.98 C659.547,141.708 660.819,137.963 660.094,134.206 C659.607,131.676 658.895,128.918 658.007,126.08 Z" />
            <path d="M675.455,76.004 C674.354,75.944 673.275,76.507 672.652,77.414 C672.365,77.805 666.133,86.205 657.561,85.269 C650.438,84.493 644.04,84.887 638.551,86.446 C634.056,87.726 630.766,91.763 630.365,96.497 C630.206,98.362 630.123,99.873 630.123,102.507 C630.123,105.142 630.209,106.653 630.365,108.517 C630.766,113.252 634.056,117.292 638.551,118.568 C644.04,120.127 650.435,120.528 657.561,119.745 C666.26,118.81 672.518,127.416 672.528,127.413 C673.085,128.434 674.157,129.064 675.312,129.064 C675.372,129.064 675.433,129.064 675.493,129.061 C676.718,128.991 677.79,128.218 678.251,127.082 C678.395,126.729 681.735,118.266 681.735,102.507 C681.735,86.749 678.395,78.282 678.251,77.929 C677.79,76.787 676.686,76.068 675.455,76.001 Z" />
        </g>
    </g>
</svg>