<?xml version="1.0" encoding="UTF-8"?>
<!--Generator: Apple Native CoreSVG 341-->
<!DOCTYPE svg
PUBLIC "-//W3C//DTD SVG 1.1//EN"
       "http://www.w3.org/Graphics/SVG/1.1/DTD/svg11.dtd">
<svg version="1.1" xmlns="http://www.w3.org/2000/svg" xmlns:xlink="http://www.w3.org/1999/xlink" viewBox="0 0 3300 2200">
 <!--glyph: "", point size: 100.0, font version: "20.0d10e1", template writer version: "138.0.0"-->
 <style>.SFSymbolsPreviewWireframe {fill:none;opacity:1.0;stroke:black;stroke-width:0.5}
</style>
 <g id="Notes">
  <rect height="2200" id="artboard" style="fill:white;opacity:1" width="3300" x="0" y="0"/>
  <line style="fill:none;stroke:black;opacity:1;stroke-width:0.5;" x1="263" x2="3036" y1="292" y2="292"/>
  <text style="stroke:none;fill:black;font-family:sans-serif;font-size:13;font-weight:bold;" transform="matrix(1 0 0 1 263 322)">Weight/Scale Variations</text>
  <text style="stroke:none;fill:black;font-family:sans-serif;font-size:13;text-anchor:middle;" transform="matrix(1 0 0 1 559.711 322)">Ultralight</text>
  <text style="stroke:none;fill:black;font-family:sans-serif;font-size:13;text-anchor:middle;" transform="matrix(1 0 0 1 856.422 322)">Thin</text>
  <text style="stroke:none;fill:black;font-family:sans-serif;font-size:13;text-anchor:middle;" transform="matrix(1 0 0 1 1153.13 322)">Light</text>
  <text style="stroke:none;fill:black;font-family:sans-serif;font-size:13;text-anchor:middle;" transform="matrix(1 0 0 1 1449.84 322)">Regular</text>
  <text style="stroke:none;fill:black;font-family:sans-serif;font-size:13;text-anchor:middle;" transform="matrix(1 0 0 1 1746.56 322)">Medium</text>
  <text style="stroke:none;fill:black;font-family:sans-serif;font-size:13;text-anchor:middle;" transform="matrix(1 0 0 1 2043.27 322)">Semibold</text>
  <text style="stroke:none;fill:black;font-family:sans-serif;font-size:13;text-anchor:middle;" transform="matrix(1 0 0 1 2339.98 322)">Bold</text>
  <text style="stroke:none;fill:black;font-family:sans-serif;font-size:13;text-anchor:middle;" transform="matrix(1 0 0 1 2636.69 322)">Heavy</text>
  <text style="stroke:none;fill:black;font-family:sans-serif;font-size:13;text-anchor:middle;" transform="matrix(1 0 0 1 2933.4 322)">Black</text>
  <line style="fill:none;stroke:black;opacity:1;stroke-width:0.5;" x1="263" x2="3036" y1="1903" y2="1903"/>
  <g transform="matrix(0.2 0 0 0.2 263 1933)">
   <path d="m46.2402 4.15039c21.7773 0 39.4531-17.627 39.4531-39.4043s-17.6758-39.4043-39.4531-39.4043c-21.7285 0-39.4043 17.627-39.4043 39.4043s17.6758 39.4043 39.4043 39.4043Zm0-7.42188c-17.6758 0-31.9336-14.3066-31.9336-31.9824s14.2578-31.9824 31.9336-31.9824 31.9824 14.3066 31.9824 31.9824-14.3066 31.9824-31.9824 31.9824Zm-17.9688-31.9824c0 2.14844 1.51367 3.61328 3.75977 3.61328h10.498v10.5957c0 2.19727 1.46484 3.71094 3.61328 3.71094 2.24609 0 3.71094-1.51367 3.71094-3.71094v-10.5957h10.5957c2.19727 0 3.71094-1.46484 3.71094-3.61328 0-2.19727-1.51367-3.71094-3.71094-3.71094h-10.5957v-10.5469c0-2.24609-1.46484-3.75977-3.71094-3.75977-2.14844 0-3.61328 1.51367-3.61328 3.75977v10.5469h-10.498c-2.24609 0-3.75977 1.51367-3.75977 3.71094Z"/>
  </g>
  <g transform="matrix(0.2 0 0 0.2 281.506 1933)">
   <path d="m58.5449 14.5508c27.4902 0 49.8047-22.3145 49.8047-49.8047s-22.3145-49.8047-49.8047-49.8047-49.8047 22.3145-49.8047 49.8047 22.3145 49.8047 49.8047 49.8047Zm0-8.30078c-22.9492 0-41.5039-18.5547-41.5039-41.5039s18.5547-41.5039 41.5039-41.5039 41.5039 18.5547 41.5039 41.5039-18.5547 41.5039-41.5039 41.5039Zm-22.6562-41.5039c0 2.39258 1.66016 4.00391 4.15039 4.00391h14.3555v14.4043c0 2.44141 1.66016 4.15039 4.05273 4.15039 2.44141 0 4.15039-1.66016 4.15039-4.15039v-14.4043h14.4043c2.44141 0 4.15039-1.61133 4.15039-4.00391 0-2.44141-1.70898-4.15039-4.15039-4.15039h-14.4043v-14.3555c0-2.49023-1.70898-4.19922-4.15039-4.19922-2.39258 0-4.05273 1.70898-4.05273 4.19922v14.3555h-14.3555c-2.49023 0-4.15039 1.70898-4.15039 4.15039Z"/>
  </g>
  <g transform="matrix(0.2 0 0 0.2 304.924 1933)">
   <path d="m74.8535 28.3203c35.1074 0 63.623-28.4668 63.623-63.5742s-28.5156-63.623-63.623-63.623-63.5742 28.5156-63.5742 63.623 28.4668 63.5742 63.5742 63.5742Zm0-9.08203c-30.127 0-54.4922-24.3652-54.4922-54.4922s24.3652-54.4922 54.4922-54.4922 54.4922 24.3652 54.4922 54.4922-24.3652 54.4922-54.4922 54.4922Zm-28.8574-54.4922c0 2.58789 1.85547 4.39453 4.58984 4.39453h19.7266v19.7754c0 2.68555 1.85547 4.58984 4.44336 4.58984 2.68555 0 4.54102-1.85547 4.54102-4.58984v-19.7754h19.7754c2.68555 0 4.58984-1.80664 4.58984-4.39453 0-2.73438-1.85547-4.58984-4.58984-4.58984h-19.7754v-19.7266c0-2.73438-1.85547-4.63867-4.54102-4.63867-2.58789 0-4.44336 1.9043-4.44336 4.63867v19.7266h-19.7266c-2.73438 0-4.58984 1.85547-4.58984 4.58984Z"/>
  </g>
  <text style="stroke:none;fill:black;font-family:sans-serif;font-size:13;font-weight:bold;" transform="matrix(1 0 0 1 263 1953)">Design Variations</text>
  <text style="stroke:none;fill:black;font-family:sans-serif;font-size:13;" transform="matrix(1 0 0 1 263 1971)">Symbols are supported in up to nine weights and three scales.</text>
  <text style="stroke:none;fill:black;font-family:sans-serif;font-size:13;" transform="matrix(1 0 0 1 263 1989)">For optimal layout with text and other symbols, vertically align</text>
  <text style="stroke:none;fill:black;font-family:sans-serif;font-size:13;" transform="matrix(1 0 0 1 263 2007)">symbols with the adjacent text.</text>
  <line style="fill:none;stroke:#00AEEF;stroke-width:0.5;opacity:1.0;" x1="776" x2="776" y1="1919" y2="1933"/>
  <g transform="matrix(0.2 0 0 0.2 776 1933)">
   <path d="m16.5527 0.78125c2.58789 0 3.85742-0.976562 4.78516-3.71094l6.29883-17.2363h28.8086l6.29883 17.2363c0.927734 2.73438 2.19727 3.71094 4.73633 3.71094 2.58789 0 4.24805-1.5625 4.24805-4.00391 0-0.830078-0.146484-1.61133-0.537109-2.63672l-22.9004-60.9863c-1.12305-2.97852-3.125-4.49219-6.25-4.49219-3.02734 0-5.07812 1.46484-6.15234 4.44336l-22.9004 61.084c-0.390625 1.02539-0.537109 1.80664-0.537109 2.63672 0 2.44141 1.5625 3.95508 4.10156 3.95508Zm13.4766-28.3691 11.8652-32.8613h0.244141l11.8652 32.8613Z"/>
  </g>
  <line style="fill:none;stroke:#00AEEF;stroke-width:0.5;opacity:1.0;" x1="792.836" x2="792.836" y1="1919" y2="1933"/>
  <text style="stroke:none;fill:black;font-family:sans-serif;font-size:13;font-weight:bold;" transform="matrix(1 0 0 1 776 1953)">Margins</text>
  <text style="stroke:none;fill:black;font-family:sans-serif;font-size:13;" transform="matrix(1 0 0 1 776 1971)">Leading and trailing margins on the left and right side of each symbol</text>
  <text style="stroke:none;fill:black;font-family:sans-serif;font-size:13;" transform="matrix(1 0 0 1 776 1989)">can be adjusted by modifying the x-location of the margin guidelines.</text>
  <text style="stroke:none;fill:black;font-family:sans-serif;font-size:13;" transform="matrix(1 0 0 1 776 2007)">Modifications are automatically applied proportionally to all</text>
  <text style="stroke:none;fill:black;font-family:sans-serif;font-size:13;" transform="matrix(1 0 0 1 776 2025)">scales and weights.</text>
  <g transform="matrix(0.2 0 0 0.2 1289 1933)">
   <path d="m14.209 9.32617 8.49609 8.54492c4.29688 4.3457 9.22852 4.05273 13.8672-1.07422l53.4668-58.9355-4.83398-4.88281-53.0762 58.3984c-1.75781 2.00195-3.41797 2.49023-5.76172 0.146484l-5.85938-5.81055c-2.34375-2.29492-1.80664-4.00391 0.195312-5.81055l57.373-54.0039-4.88281-4.83398-57.959 54.4434c-4.93164 4.58984-5.32227 9.47266-1.02539 13.8184Zm32.0801-90.9668c-2.09961 2.05078-2.24609 4.93164-1.07422 6.88477 1.17188 1.80664 3.4668 2.97852 6.68945 2.14844 7.32422-1.70898 14.9414-2.00195 22.0703 2.68555l-2.92969 7.27539c-1.70898 4.15039-0.830078 7.08008 1.85547 9.81445l11.4746 11.5723c2.44141 2.44141 4.49219 2.53906 7.32422 2.05078l5.32227-0.976562 3.32031 3.36914-0.195312 2.7832c-0.195312 2.49023 0.439453 4.39453 2.88086 6.78711l3.80859 3.71094c2.39258 2.39258 5.46875 2.53906 7.8125 0.195312l14.5508-14.5996c2.34375-2.34375 2.24609-5.32227-0.146484-7.71484l-3.85742-3.80859c-2.39258-2.39258-4.24805-3.17383-6.64062-2.97852l-2.88086 0.244141-3.22266-3.17383 1.2207-5.61523c0.634766-2.83203-0.146484-5.0293-3.07617-7.95898l-10.9863-10.9375c-16.6992-16.6016-38.8672-16.2109-53.3203-1.75781Zm7.4707 1.85547c12.1582-8.88672 28.6133-7.37305 39.7461 3.75977l12.1582 12.0605c1.17188 1.17188 1.36719 2.09961 1.02539 3.80859l-1.61133 7.42188 7.51953 7.42188 4.93164-0.292969c1.26953-0.0488281 1.66016 0.0488281 2.63672 1.02539l2.88086 2.88086-12.207 12.207-2.88086-2.88086c-0.976562-0.976562-1.12305-1.36719-1.07422-2.68555l0.341797-4.88281-7.4707-7.42188-7.61719 1.26953c-1.61133 0.341797-2.34375 0.195312-3.56445-0.976562l-10.0098-10.0098c-1.26953-1.17188-1.41602-2.00195-0.634766-3.85742l4.39453-10.4492c-7.8125-7.27539-17.9688-10.4004-28.125-7.42188-0.78125 0.195312-1.07422-0.439453-0.439453-0.976562Z"/>
  </g>
  <text style="stroke:none;fill:black;font-family:sans-serif;font-size:13;font-weight:bold;" transform="matrix(1 0 0 1 1289 1953)">Exporting</text>
  <text style="stroke:none;fill:black;font-family:sans-serif;font-size:13;" transform="matrix(1 0 0 1 1289 1971)">Symbols should be outlined when exporting to ensure the</text>
  <text style="stroke:none;fill:black;font-family:sans-serif;font-size:13;" transform="matrix(1 0 0 1 1289 1989)">design is preserved when submitting to Xcode.</text>
  <text id="template-version" style="stroke:none;fill:black;font-family:sans-serif;font-size:13;text-anchor:end;" transform="matrix(1 0 0 1 3036 1933)">Template v.6.0</text>
  <text style="stroke:none;fill:black;font-family:sans-serif;font-size:13;text-anchor:end;" transform="matrix(1 0 0 1 3036 1951)">Requires Xcode 16 or greater</text>
  <text id="descriptive-name" style="stroke:none;fill:black;font-family:sans-serif;font-size:13;text-anchor:end;" transform="matrix(1 0 0 1 3036 1969)">Generated from reddit</text>
  <text style="stroke:none;fill:black;font-family:sans-serif;font-size:13;text-anchor:end;" transform="matrix(1 0 0 1 3036 1987)">Typeset at 100.0 points</text>
  <text style="stroke:none;fill:black;font-family:sans-serif;font-size:13;" transform="matrix(1 0 0 1 263 726)">Small</text>
  <text style="stroke:none;fill:black;font-family:sans-serif;font-size:13;" transform="matrix(1 0 0 1 263 1156)">Medium</text>
  <text style="stroke:none;fill:black;font-family:sans-serif;font-size:13;" transform="matrix(1 0 0 1 263 1586)">Large</text>
 </g>
 <g id="Guides">
  <g id="H-reference" style="fill:#27AAE1;stroke:none;" transform="matrix(1 0 0 1 339 696)">
   <path d="M0.993654 0L3.63775 0L29.3281-67.1323L30.0303-67.1323L30.0303-70.459L28.1226-70.459ZM11.6885-24.4799L46.9815-24.4799L46.2315-26.7285L12.4385-26.7285ZM55.1196 0L57.7637 0L30.6382-70.459L29.4326-70.459L29.4326-67.1323Z"/>
  </g>
  <line id="Baseline-S" style="fill:none;stroke:#27AAE1;opacity:1;stroke-width:0.5;" x1="263" x2="3036" y1="696" y2="696"/>
  <line id="Capline-S" style="fill:none;stroke:#27AAE1;opacity:1;stroke-width:0.5;" x1="263" x2="3036" y1="625.541" y2="625.541"/>
  <g id="H-reference" style="fill:#27AAE1;stroke:none;" transform="matrix(1 0 0 1 339 1126)">
   <path d="M0.993654 0L3.63775 0L29.3281-67.1323L30.0303-67.1323L30.0303-70.459L28.1226-70.459ZM11.6885-24.4799L46.9815-24.4799L46.2315-26.7285L12.4385-26.7285ZM55.1196 0L57.7637 0L30.6382-70.459L29.4326-70.459L29.4326-67.1323Z"/>
  </g>
  <line id="Baseline-M" style="fill:none;stroke:#27AAE1;opacity:1;stroke-width:0.5;" x1="263" x2="3036" y1="1126" y2="1126"/>
  <line id="Capline-M" style="fill:none;stroke:#27AAE1;opacity:1;stroke-width:0.5;" x1="263" x2="3036" y1="1055.54" y2="1055.54"/>
  <g id="H-reference" style="fill:#27AAE1;stroke:none;" transform="matrix(1 0 0 1 339 1556)">
   <path d="M0.993654 0L3.63775 0L29.3281-67.1323L30.0303-67.1323L30.0303-70.459L28.1226-70.459ZM11.6885-24.4799L46.9815-24.4799L46.2315-26.7285L12.4385-26.7285ZM55.1196 0L57.7637 0L30.6382-70.459L29.4326-70.459L29.4326-67.1323Z"/>
  </g>
  <line id="Baseline-L" style="fill:none;stroke:#27AAE1;opacity:1;stroke-width:0.5;" x1="263" x2="3036" y1="1556" y2="1556"/>
  <line id="Capline-L" style="fill:none;stroke:#27AAE1;opacity:1;stroke-width:0.5;" x1="263" x2="3036" y1="1485.54" y2="1485.54"/>
  <line id="right-margin-Black-S" style="fill:none;stroke:#00AEEF;stroke-width:0.5;opacity:1.0;" x1="2982.4" x2="2982.4" y1="600.785" y2="720.121"/>
  <line id="left-margin-Black-S" style="fill:none;stroke:#00AEEF;stroke-width:0.5;opacity:1.0;" x1="2884.4" x2="2884.4" y1="600.785" y2="720.121"/>
  <line id="right-margin-Regular-S" style="fill:none;stroke:#00AEEF;stroke-width:0.5;opacity:1.0;" x1="1496.22" x2="1496.22" y1="600.785" y2="720.121"/>
  <line id="left-margin-Regular-S" style="fill:none;stroke:#00AEEF;stroke-width:0.5;opacity:1.0;" x1="1403.46" x2="1403.46" y1="600.785" y2="720.121"/>
  <line id="right-margin-Ultralight-S" style="fill:none;stroke:#00AEEF;stroke-width:0.5;opacity:1.0;" x1="603.941" x2="603.941" y1="600.785" y2="720.121"/>
  <line id="left-margin-Ultralight-S" style="fill:none;stroke:#00AEEF;stroke-width:0.5;opacity:1.0;" x1="515.481" x2="515.481" y1="600.785" y2="720.121"/>
 </g>
 <g id="Symbols">
  <g id="Black-S" transform="matrix(1 0 0 1 2884.4 696)">
   <path class="SFSymbolsPreviewWireframe" d="M70.7319-35.2051C70.7644-33.3745 69.7356-31.6898 68.0996-30.8717C68.1318-30.3938 68.1318-29.9159 68.0996-29.438C68.0996-22.1319 59.5947-16.2028 49.1052-16.2028C38.616-16.2028 30.1111-22.14 30.1111-29.438C30.0786-29.9159 30.0786-30.3938 30.1111-30.8717C29.6331-31.0823 29.2039-31.382 28.8313-31.7303C26.9116-33.5284 26.8225-36.5416 28.6206-38.4532C30.4189-40.3729 33.4321-40.4619 35.3435-38.6638C39.1021-41.2072 43.5164-42.6003 48.0522-42.6732L50.458-53.9807C50.458-53.9888 50.458-53.9888 50.458-53.9968C50.5796-54.5476 51.1221-54.8878 51.6648-54.7664L59.6514-53.1707C60.1616-54.0616 61.085-54.661 62.1138-54.7664C63.9038-54.9608 65.5076-53.6647 65.7019-51.8747C65.8962-50.0846 64.6003-48.4808 62.8103-48.2864C61.0203-48.092 59.4165-49.388 59.2222-51.1781L52.248-52.6442L50.134-42.4788C54.6133-42.3816 58.9709-40.9965 62.6807-38.4694C63.5232-39.2712 64.6328-39.7491 65.7991-39.7897C68.4316-39.8787 70.6348-37.8295 70.7319-35.2051ZM38.1462-31.9409C38.1462-30.1427 39.6042-28.6928 41.4104-28.6766C43.2085-28.6766 44.6746-30.1427 44.6746-31.9409C44.6746-33.739 43.2085-35.2051 41.4104-35.2051C39.6123-35.2051 38.1462-33.739 38.1462-31.9409ZM57.0757-22.9824L57.0757-22.9824L57.0757-22.8528L57.0757-22.8528C57.4319-23.2011 57.4402-23.7843 57.0918-24.1407C56.7434-24.4971 56.1604-24.5052 55.804-24.1569C53.8193-22.7394 51.4219-22.0428 48.9919-22.1724C46.562-22.059 44.1724-22.788 42.2124-24.2217C41.8801-24.489 41.4185-24.489 41.0945-24.2217C40.7219-23.9139 40.6653-23.355 40.9729-22.9824C43.2896-21.2409 46.1245-20.3499 49.0244-20.4714C51.9241-20.3499 54.759-21.2409 57.0757-22.9824ZM56.4924-28.5632L56.468-28.4417C56.5249-28.4417 56.5735-28.4417 56.6301-28.4417C58.4282-28.5146 59.8296-30.0293 59.7566-31.8275C59.7566-33.6256 58.2905-35.0917 56.4924-35.0917C54.6943-35.0917 53.228-33.6256 53.228-31.8275C53.228-30.0293 54.6943-28.5632 56.4924-28.5632ZM49-77.2051C72.196-77.2051 91-58.4011 91-35.2051C91-12.0091 72.196 6.79486 49 6.79486C25.804 6.79486 7-12.0091 7-35.2051C7-58.4011 25.804-77.2051 49-77.2051ZM49-7.20514C64.4639-7.20514 77-19.7411 77-35.2051C77-50.6691 64.4639-63.2051 49-63.2051C33.5361-63.2051 21-50.6691 21-35.2051C21-19.7411 33.5361-7.20514 49-7.20514Z"/>
  </g>
  <g id="Regular-S" transform="matrix(1 0 0 1 1403.46 696)">
   <path class="SFSymbolsPreviewWireframe" d="M72.6432-35.2539C72.6824-33.0416 71.4392-31.0056 69.4618-30.0169C69.501-29.4394 69.501-28.8619 69.4618-28.2843C69.4618-19.4549 59.1837-12.2896 46.5073-12.2896C33.8309-12.2896 23.5527-19.4647 23.5527-28.2843C23.5135-28.8619 23.5135-29.4394 23.5527-30.0169C22.9752-30.2714 22.4564-30.6336 22.0061-31.0546C19.6863-33.2277 19.5785-36.869 21.7516-39.1792C23.9247-41.4991 27.5662-41.6068 29.8762-39.4337C34.4182-42.5073 39.7531-44.191 45.2347-44.2791L48.142-57.9442C48.142-57.9539 48.142-57.9539 48.142-57.9637C48.2888-58.6293 48.9447-59.0405 49.6006-58.8936L59.2522-56.9653C59.8689-58.0421 60.9849-58.7664 62.228-58.8936C64.3912-59.1286 66.3295-57.5624 66.5643-55.399C66.7993-53.2358 65.2332-51.2976 63.0698-51.0627C60.9065-50.8278 58.9684-52.3939 58.7334-54.5573L50.3053-56.329L47.7505-44.0442C53.1636-43.9267 58.4299-42.2528 62.9132-39.1987C63.9313-40.1678 65.2722-40.7454 66.6819-40.7943C69.8632-40.902 72.5258-38.4254 72.6432-35.2539ZM33.2632-31.309C33.2632-29.1359 35.0251-27.3838 37.208-27.3642C39.3811-27.3642 41.1528-29.1359 41.1528-31.309C41.1528-33.4821 39.3811-35.2539 37.208-35.2539C35.0349-35.2539 33.2632-33.4821 33.2632-31.309ZM56.1394-20.4827L56.1394-20.4827L56.1394-20.3261L56.1394-20.3261C56.5701-20.747 56.5798-21.4518 56.1589-21.8825C55.738-22.3132 55.0333-22.323 54.6025-21.9021C52.2043-20.1891 49.3069-19.3472 46.3702-19.5038C43.4336-19.3668 40.546-20.2478 38.1771-21.9804C37.7758-22.3034 37.2178-22.3034 36.8263-21.9804C36.376-21.6084 36.3075-20.933 36.6794-20.4827C39.479-18.3782 42.905-17.3014 46.4094-17.4482C49.9138-17.3014 53.3398-18.3782 56.1394-20.4827ZM55.4346-27.2272L55.4053-27.0803C55.4738-27.0803 55.5325-27.0803 55.6011-27.0803C57.7742-27.1684 59.4675-28.9989 59.3795-31.172C59.3795-33.3451 57.6077-35.1168 55.4346-35.1168C53.2615-35.1168 51.4897-33.3451 51.4897-31.172C51.4897-28.9989 53.2615-27.2272 55.4346-27.2272ZM46.38-74.6339C68.129-74.6339 85.76-57.0029 85.76-35.2539C85.76-13.5049 68.129 4.1261 46.38 4.1261C24.6311 4.1261 7-13.5049 7-35.2539C7-57.0029 24.6311-74.6339 46.38-74.6339ZM46.38-3.03387C64.1747-3.03387 78.6001-17.4593 78.6001-35.2539C78.6001-53.0485 64.1747-67.4739 46.38-67.4739C28.5854-67.4739 14.16-53.0485 14.16-35.2539C14.16-17.4593 28.5854-3.03387 46.38-3.03387Z"/>
  </g>
  <g id="Ultralight-S" transform="matrix(1 0 0 1 515.481 696)">
   <path class="SFSymbolsPreviewWireframe" d="M69.0593-35.2539C69.0963-33.1624 67.921-31.2375 66.0516-30.3029C66.0886-29.7568 66.0886-29.2108 66.0516-28.6649C66.0516-20.3174 56.3347-13.5433 44.3503-13.5433C32.366-13.5433 22.649-20.3267 22.649-28.6649C22.612-29.2108 22.612-29.7568 22.649-30.3029C22.103-30.5435 21.6125-30.8859 21.1868-31.2838C18.9936-33.3383 18.8918-36.7808 20.9462-38.9648C23.0007-41.1581 26.4433-41.2599 28.6273-39.2054C32.9213-42.1113 37.9648-43.7031 43.1473-43.7863L45.8958-56.7053C45.8958-56.7146 45.8958-56.7146 45.8958-56.7238C46.0346-57.3531 46.6547-57.7418 47.2747-57.603L56.3994-55.7799C56.9824-56.7979 58.0374-57.4827 59.2127-57.603C61.2579-57.8251 63.0903-56.3444 63.3124-54.2992C63.5345-52.254 62.0538-50.4217 60.0086-50.1996C57.9634-49.9775 56.131-51.4581 55.9089-53.5034L47.941-55.1783L45.5256-43.5643C50.6432-43.4532 55.6221-41.8707 59.8605-38.9834C60.8229-39.8995 62.0908-40.4456 63.4234-40.4918C66.4311-40.5936 68.9482-38.2523 69.0593-35.2539ZM31.8293-31.5244C31.8293-29.47 33.4951-27.8134 35.5588-27.7949C37.6132-27.7949 39.2882-29.47 39.2882-31.5244C39.2882-33.5789 37.6132-35.2539 35.5588-35.2539C33.5043-35.2539 31.8293-33.5789 31.8293-31.5244ZM53.4565-21.2892L53.4565-21.2892L53.4565-21.1411L53.4565-21.1411C53.8638-21.5391 53.873-22.2053 53.475-22.6125C53.0771-23.0197 52.4108-23.029 52.0036-22.631C49.7363-21.0115 46.9971-20.2157 44.2208-20.3638C41.4445-20.2342 38.7145-21.0671 36.4749-22.7051C36.0955-23.0104 35.568-23.0104 35.1978-22.7051C34.7722-22.3534 34.7073-21.7148 35.059-21.2892C37.7057-19.2995 40.9448-18.2816 44.2578-18.4203C47.5708-18.2816 50.8098-19.2995 53.4565-21.2892ZM52.7902-27.6653L52.7625-27.5266C52.8273-27.5266 52.8828-27.5266 52.9476-27.5266C55.002-27.6099 56.603-29.3404 56.5197-31.3948C56.5197-33.4493 54.8447-35.1243 52.7902-35.1243C50.7358-35.1243 49.0608-33.4493 49.0608-31.3948C49.0608-29.3404 50.7358-27.6653 52.7902-27.6653ZM44.23-72.4839C64.7916-72.4839 81.46-55.8155 81.46-35.2539C81.46-14.6923 64.7916 1.97614 44.23 1.97614C23.6685 1.97614 7-14.6923 7-35.2539C7-55.8155 23.6685-72.4839 44.23-72.4839ZM44.23-0.213867C63.5821-0.213867 79.27-15.9019 79.27-35.2539C79.27-54.606 63.5821-70.2939 44.23-70.2939C24.878-70.2939 9.19-54.606 9.19-35.2539C9.19-15.9019 24.878-0.213867 44.23-0.213867Z"/>
  </g>
 </g>
</svg>
