<?xml version="1.0" encoding="UTF-8"?>
<svg height="600" width="800" xmlns="http://www.w3.org/2000/svg" xmlns:xlink="http://www.w3.org/1999/xlink">
    <g id="Notes" font-family="'LucidaGrande', 'Lucida Grande', sans-serif" font-size="13">
        <rect fill="white" height="600.0" width="800.0" x="0.0" y="0.0" />
        <g font-size="13">
            <text x="18.0" y="176.0">Small</text>
            <text x="18.0" y="376.0">Medium</text>
            <text x="18.0" y="576.0">Large</text>
        </g>
        <g font-size="9">
            <text x="250.0" y="30.0">Ultralight</text>
            <text x="450.0" y="30.0">Regular</text>
            <text x="650.0" y="30.0">Black</text>
            <text id="template-version" fill="#505050" text-anchor="end" x="785.0" y="575.0">Template v.3.0</text>
            <a href="https://wangchujiang.com/#/app">
                <text fill="#505050" text-anchor="end" x="785.0" y="590.0">https://wangchujiang.com/#/app</text>
            </a>
        </g>
    </g>
    <g id="Guides" stroke="rgb(39, 170, 225)" stroke-width="0.5">
        <path id="Capline-S" d="M18,76 l800,0" />
        <path id="H-reference" d="M85,145.755 L87.685,145.755 L113.369,79.287 L114.052,79.287 L114.052,76 L112.148,76 L85,145.755 Z M95.693,121.536 L130.996,121.536 L130.263,119.313 L96.474,119.313 L95.693,121.536 Z M139.15,145.755 L141.787,145.755 L114.638,76 L113.466,76 L113.466,79.287 L139.15,145.755 Z" stroke="none" />
        <path id="Baseline-S" d="M18,146 l800,0" />
        <path id="left-margin-Ultralight-S" d="M221,56 l0,110" />
        <path id="right-margin-Ultralight-S" d="M309,56 l0,110" />
        <path id="left-margin-Regular-S" d="M421,56 l0,110" />
        <path id="right-margin-Regular-S" d="M509,56 l0,110" />
        <path id="left-margin-Black-S" d="M621,56 l0,110" />
        <path id="right-margin-Black-S" d="M709,56 l0,110" />
        <path id="Capline-M" d="M18,276 l800,0" />
        <path id="Baseline-M" d="M18,346 l800,0" />
        <path id="Capline-L" d="M18,476 l800,0" />
        <path id="Baseline-L" d="M18,546 l800,0" />
    </g>
    <g id="Symbols">
        <g id="Ultralight-S">
            <path d="M293.91,94.321 C293.687,93.847 293.35,93.433 292.93,93.121 C292.516,92.813 292.096,92.501 291.673,92.189 L291.673,84.072 C291.673,82.316 290.251,80.89 288.491,80.89 C286.732,80.89 285.31,82.316 285.31,84.072 L285.31,87.572 C276.735,81.489 268.134,76 265,76 C260.867,76 247.532,85.313 237.07,93.125 C236.647,93.443 236.306,93.86 236.084,94.343 C235.934,94.668 232.412,102.495 232.412,118.455 C232.412,125.344 233.055,135.541 233.786,140.276 C233.974,141.485 234.836,142.478 236.007,142.834 C236.434,142.965 246.654,146 265,146 C283.346,146 293.563,142.961 293.986,142.834 C295.154,142.478 296.02,141.485 296.204,140.276 C296.939,135.51 297.588,125.312 297.588,118.455 C297.588,102.358 294.056,94.645 293.907,94.324 Z M258.369,139.49 L258.369,126.53 C258.369,122.677 261.347,119.543 265.003,119.543 C268.659,119.543 271.637,122.677 271.637,126.53 L271.637,139.49 C269.569,139.582 267.358,139.636 265.003,139.636 C262.649,139.636 260.437,139.582 258.369,139.49 Z M290.194,137.228 C287.954,137.734 283.824,138.523 278.001,139.06 L278.001,126.53 C278.001,119.168 272.172,113.18 265.003,113.18 C257.835,113.18 252.005,119.168 252.005,126.53 L252.005,139.06 C246.183,138.526 242.05,137.734 239.806,137.228 C239.24,132.267 238.779,124.08 238.779,118.452 C238.779,106.603 240.856,99.759 241.604,97.684 C250.952,90.745 262.149,83.207 265,82.399 C267.841,83.22 279.048,90.757 288.412,97.69 C289.16,99.755 291.231,106.53 291.231,118.452 C291.231,124.061 290.766,132.251 290.197,137.228 Z" />
        </g>
        <g id="Regular-S">
            <path d="M493.91,94.321 C493.687,93.847 493.35,93.433 492.93,93.121 C492.516,92.813 492.096,92.501 491.673,92.189 L491.673,84.072 C491.673,82.316 490.251,80.89 488.491,80.89 C486.732,80.89 485.31,82.316 485.31,84.072 L485.31,87.572 C476.735,81.489 468.134,76 465,76 C460.867,76 447.532,85.313 437.07,93.125 C436.647,93.443 436.306,93.86 436.084,94.343 C435.934,94.668 432.412,102.495 432.412,118.455 C432.412,125.344 433.055,135.541 433.786,140.276 C433.974,141.485 434.836,142.478 436.007,142.834 C436.434,142.965 446.654,146 465,146 C483.346,146 493.563,142.961 493.986,142.834 C495.154,142.478 496.02,141.485 496.204,140.276 C496.939,135.51 497.588,125.312 497.588,118.455 C497.588,102.358 494.056,94.645 493.907,94.324 Z M458.369,139.49 L458.369,126.53 C458.369,122.677 461.347,119.543 465.003,119.543 C468.659,119.543 471.637,122.677 471.637,126.53 L471.637,139.49 C469.569,139.582 467.358,139.636 465.003,139.636 C462.649,139.636 460.437,139.582 458.369,139.49 Z M490.194,137.228 C487.954,137.734 483.824,138.523 478.001,139.06 L478.001,126.53 C478.001,119.168 472.172,113.18 465.003,113.18 C457.835,113.18 452.005,119.168 452.005,126.53 L452.005,139.06 C446.183,138.526 442.05,137.734 439.806,137.228 C439.24,132.267 438.779,124.08 438.779,118.452 C438.779,106.603 440.856,99.759 441.604,97.684 C450.952,90.745 462.149,83.207 465,82.399 C467.841,83.22 479.048,90.757 488.412,97.69 C489.16,99.755 491.231,106.53 491.231,118.452 C491.231,124.061 490.766,132.251 490.197,137.228 Z" />
        </g>
        <g id="Black-S">
            <path d="M693.91,94.321 C693.687,93.847 693.35,93.433 692.93,93.121 C692.516,92.813 692.096,92.501 691.673,92.189 L691.673,84.072 C691.673,82.316 690.251,80.89 688.491,80.89 C686.732,80.89 685.31,82.316 685.31,84.072 L685.31,87.572 C676.734,81.489 668.134,76 665,76 C660.867,76 647.532,85.313 637.07,93.125 C636.647,93.443 636.306,93.86 636.084,94.343 C635.934,94.668 632.412,102.495 632.412,118.455 C632.412,125.344 633.055,135.541 633.786,140.276 C633.974,141.485 634.836,142.478 636.007,142.834 C636.434,142.965 646.654,146 665,146 C683.346,146 693.563,142.961 693.986,142.834 C695.154,142.478 696.02,141.485 696.204,140.276 C696.939,135.51 697.588,125.312 697.588,118.455 C697.588,102.358 694.056,94.645 693.907,94.324 Z M658.369,139.49 L658.369,126.53 C658.369,122.677 661.347,119.543 665.003,119.543 C668.659,119.543 671.637,122.677 671.637,126.53 L671.637,139.49 C669.569,139.582 667.358,139.636 665.003,139.636 C662.649,139.636 660.437,139.582 658.369,139.49 Z M690.194,137.228 C687.954,137.734 683.824,138.523 678.001,139.06 L678.001,126.53 C678.001,119.168 672.172,113.18 665.003,113.18 C657.835,113.18 652.005,119.168 652.005,126.53 L652.005,139.06 C646.183,138.526 642.049,137.734 639.806,137.228 C639.24,132.267 638.779,124.08 638.779,118.452 C638.779,106.603 640.856,99.759 641.604,97.684 C650.952,90.745 662.149,83.207 665,82.399 C667.841,83.22 679.048,90.757 688.412,97.69 C689.16,99.755 691.231,106.53 691.231,118.452 C691.231,124.061 690.766,132.251 690.197,137.228 Z" />
        </g>
    </g>
</svg>