<?xml version="1.0" encoding="UTF-8"?>
<svg height="600" width="800" xmlns="http://www.w3.org/2000/svg" xmlns:xlink="http://www.w3.org/1999/xlink">
    <g id="Notes" font-family="'LucidaGrande', 'Lucida Grande', sans-serif" font-size="13">
        <rect fill="white" height="600.0" width="800.0" x="0.0" y="0.0" />
        <g font-size="13">
            <text x="18.0" y="176.0">Small</text>
            <text x="18.0" y="376.0">Medium</text>
            <text x="18.0" y="576.0">Large</text>
        </g>
        <g font-size="9">
            <text x="250.0" y="30.0">Ultralight</text>
            <text x="450.0" y="30.0">Regular</text>
            <text x="650.0" y="30.0">Black</text>
            <text id="template-version" fill="#505050" text-anchor="end" x="785.0" y="575.0">Template v.3.0</text>
            <a href="https://wangchujiang.com/#/app">
                <text fill="#505050" text-anchor="end" x="785.0" y="590.0">https://wangchujiang.com/#/app</text>
            </a>
        </g>
    </g>
    <g id="Guides" stroke="rgb(39, 170, 225)" stroke-width="0.5">
        <path id="Capline-S" d="M18,76 l800,0" />
        <path id="H-reference" d="M85,145.755 L87.685,145.755 L113.369,79.287 L114.052,79.287 L114.052,76 L112.148,76 L85,145.755 Z M95.693,121.536 L130.996,121.536 L130.263,119.313 L96.474,119.313 L95.693,121.536 Z M139.15,145.755 L141.787,145.755 L114.638,76 L113.466,76 L113.466,79.287 L139.15,145.755 Z" stroke="none" />
        <path id="Baseline-S" d="M18,146 l800,0" />
        <path id="left-margin-Ultralight-S" d="M221,56 l0,110" />
        <path id="right-margin-Ultralight-S" d="M309,56 l0,110" />
        <path id="left-margin-Regular-S" d="M421,56 l0,110" />
        <path id="right-margin-Regular-S" d="M509,56 l0,110" />
        <path id="left-margin-Black-S" d="M621,56 l0,110" />
        <path id="right-margin-Black-S" d="M709,56 l0,110" />
        <path id="Capline-M" d="M18,276 l800,0" />
        <path id="Baseline-M" d="M18,346 l800,0" />
        <path id="Capline-L" d="M18,476 l800,0" />
        <path id="Baseline-L" d="M18,546 l800,0" />
    </g>
    <g id="Symbols">
        <g id="Ultralight-S">
            <path d="M268.181,104.642 C268.181,107.436 267.793,107.824 265,107.824 C262.206,107.824 261.818,107.436 261.818,104.642 C261.818,101.849 262.206,101.461 265,101.461 C267.793,101.461 268.181,101.849 268.181,104.642 Z M293.352,131.792 C285.882,139.723 267.942,145.262 265.922,145.866 C265.324,146.048 264.675,146.041 264.077,145.866 C262.057,145.262 244.114,139.72 236.65,131.792 C229.868,124.593 234.831,92.225 236.53,83.954 C236.711,83.069 237.261,82.303 238.041,81.848 C238.069,81.666 249.411,75.724 265.289,76.01 C281.778,76.01 291.548,81.606 291.958,81.848 C292.738,82.303 293.288,83.069 293.47,83.954 C295.168,92.225 300.131,124.586 293.352,131.792 Z M274.544,104.642 C274.544,98.308 271.334,95.098 265,95.098 C258.666,95.098 255.456,98.308 255.456,104.642 C255.456,109.793 257.616,112.844 261.818,113.814 L261.818,120.549 C261.818,122.305 263.243,123.73 265,123.73 C266.756,123.73 268.181,122.305 268.181,120.549 L268.181,113.814 C272.384,112.841 274.544,109.793 274.544,104.642 Z" />
        </g>
        <g id="Regular-S">
            <path d="M468.181,104.642 C468.181,107.436 467.793,107.824 465,107.824 C462.206,107.824 461.818,107.436 461.818,104.642 C461.818,101.849 462.206,101.461 465,101.461 C467.793,101.461 468.181,101.849 468.181,104.642 Z M493.352,131.792 C485.882,139.723 467.942,145.262 465.922,145.866 C465.324,146.048 464.675,146.041 464.077,145.866 C462.057,145.262 444.114,139.72 436.651,131.792 C429.868,124.593 434.831,92.225 436.53,83.954 C436.711,83.069 437.261,82.303 438.041,81.848 C438.069,81.666 449.411,75.724 465.289,76.01 C481.778,76.01 491.548,81.606 491.958,81.848 C492.738,82.303 493.288,83.069 493.47,83.954 C495.168,92.225 500.131,124.586 493.352,131.792 Z M474.544,104.642 C474.544,98.308 471.334,95.098 465,95.098 C458.666,95.098 455.456,98.308 455.456,104.642 C455.456,109.793 457.616,112.844 461.818,113.814 L461.818,120.549 C461.818,122.305 463.243,123.73 465,123.73 C466.756,123.73 468.181,122.305 468.181,120.549 L468.181,113.814 C472.384,112.841 474.544,109.793 474.544,104.642 Z" />
        </g>
        <g id="Black-S">
            <path d="M668.181,104.642 C668.181,107.436 667.793,107.824 665,107.824 C662.206,107.824 661.818,107.436 661.818,104.642 C661.818,101.849 662.206,101.461 665,101.461 C667.793,101.461 668.181,101.849 668.181,104.642 Z M693.352,131.792 C685.882,139.723 667.942,145.262 665.922,145.866 C665.324,146.048 664.675,146.041 664.077,145.866 C662.057,145.262 644.114,139.72 636.651,131.792 C629.868,124.593 634.831,92.225 636.53,83.954 C636.711,83.069 637.261,82.303 638.041,81.848 C638.069,81.666 649.411,75.724 665.289,76.01 C681.778,76.01 691.548,81.606 691.958,81.848 C692.738,82.303 693.288,83.069 693.47,83.954 C695.169,92.225 700.131,124.586 693.352,131.792 Z M674.544,104.642 C674.544,98.308 671.334,95.098 665,95.098 C658.666,95.098 655.456,98.308 655.456,104.642 C655.456,109.793 657.616,112.844 661.818,113.814 L661.818,120.549 C661.818,122.305 663.244,123.73 665,123.73 C666.756,123.73 668.181,122.305 668.181,120.549 L668.181,113.814 C672.384,112.841 674.544,109.793 674.544,104.642 Z" />
        </g>
    </g>
</svg>