<?xml version="1.0" encoding="UTF-8"?>
<svg height="600" width="800" xmlns="http://www.w3.org/2000/svg" xmlns:xlink="http://www.w3.org/1999/xlink">
    <g id="Notes" font-family="'LucidaGrande', 'Lucida Grande', sans-serif" font-size="13">
        <rect fill="white" height="600.0" width="800.0" x="0.0" y="0.0" />
        <g font-size="13">
            <text x="18.0" y="176.0">Small</text>
            <text x="18.0" y="376.0">Medium</text>
            <text x="18.0" y="576.0">Large</text>
        </g>
        <g font-size="9">
            <text x="250.0" y="30.0">Ultralight</text>
            <text x="450.0" y="30.0">Regular</text>
            <text x="650.0" y="30.0">Black</text>
            <text id="template-version" fill="#505050" text-anchor="end" x="785.0" y="575.0">Template v.3.0</text>
            <a href="https://wangchujiang.com/#/app">
                <text fill="#505050" text-anchor="end" x="785.0" y="590.0">https://wangchujiang.com/#/app</text>
            </a>
        </g>
    </g>
    <g id="Guides" stroke="rgb(39, 170, 225)" stroke-width="0.5">
        <path id="Capline-S" d="M18,76 l800,0" />
        <path id="H-reference" d="M85,145.755 L87.685,145.755 L113.369,79.287 L114.052,79.287 L114.052,76 L112.148,76 L85,145.755 Z M95.693,121.536 L130.996,121.536 L130.263,119.313 L96.474,119.313 L95.693,121.536 Z M139.15,145.755 L141.787,145.755 L114.638,76 L113.466,76 L113.466,79.287 L139.15,145.755 Z" stroke="none" />
        <path id="Baseline-S" d="M18,146 l800,0" />
        <path id="left-margin-Ultralight-S" d="M211,56 l0,110" />
        <path id="right-margin-Ultralight-S" d="M319,56 l0,110" />
        <path id="left-margin-Regular-S" d="M411,56 l0,110" />
        <path id="right-margin-Regular-S" d="M519,56 l0,110" />
        <path id="left-margin-Black-S" d="M611,56 l0,110" />
        <path id="right-margin-Black-S" d="M719,56 l0,110" />
        <path id="Capline-M" d="M18,276 l800,0" />
        <path id="Baseline-M" d="M18,346 l800,0" />
        <path id="Capline-L" d="M18,476 l800,0" />
        <path id="Baseline-L" d="M18,546 l800,0" />
    </g>
    <g id="Symbols">
        <g id="Ultralight-S">
            <path d="M232.596,98.932 C225.46,98.98 221,103.784 221,110.932 C221,118.492 225.36,123.02 232.652,123.068 C239.896,123.02 244.12,118.648 244.252,110.936 C244.128,103.584 239.684,98.984 232.596,98.936 Z" />
            <path d="M264.972,98.932 C257.836,98.98 253.376,103.784 253.376,110.932 C253.376,118.492 257.736,123.02 265.028,123.068 C272.272,123.02 276.496,118.648 276.628,110.936 C276.504,103.584 272.06,98.984 264.972,98.936 Z" />
            <path d="M297.344,98.932 C290.208,98.98 285.748,103.784 285.748,110.932 C285.748,118.492 290.108,123.02 297.4,123.068 C304.644,123.02 308.868,118.648 309,110.936 C308.876,103.584 304.432,98.984 297.344,98.936 Z" />
        </g>
        <g id="Regular-S">
            <path d="M432.596,98.932 C425.46,98.98 421,103.784 421,110.932 C421,118.492 425.36,123.02 432.652,123.068 C439.896,123.02 444.12,118.648 444.252,110.936 C444.128,103.584 439.684,98.984 432.596,98.936 Z" />
            <path d="M464.972,98.932 C457.836,98.98 453.376,103.784 453.376,110.932 C453.376,118.492 457.736,123.02 465.028,123.068 C472.272,123.02 476.496,118.648 476.628,110.936 C476.504,103.584 472.06,98.984 464.972,98.936 Z" />
            <path d="M497.344,98.932 C490.208,98.98 485.748,103.784 485.748,110.932 C485.748,118.492 490.108,123.02 497.4,123.068 C504.644,123.02 508.868,118.648 509,110.936 C508.876,103.584 504.432,98.984 497.344,98.936 Z" />
        </g>
        <g id="Black-S">
            <path d="M632.596,98.932 C625.46,98.98 621,103.784 621,110.932 C621,118.492 625.36,123.02 632.652,123.068 C639.896,123.02 644.12,118.648 644.252,110.936 C644.128,103.584 639.684,98.984 632.596,98.936 Z" />
            <path d="M664.972,98.932 C657.836,98.98 653.376,103.784 653.376,110.932 C653.376,118.492 657.736,123.02 665.028,123.068 C672.272,123.02 676.496,118.648 676.628,110.936 C676.504,103.584 672.06,98.984 664.972,98.936 Z" />
            <path d="M697.344,98.932 C690.208,98.98 685.748,103.784 685.748,110.932 C685.748,118.492 690.108,123.02 697.4,123.068 C704.644,123.02 708.868,118.648 709,110.936 C708.876,103.584 704.432,98.984 697.344,98.936 Z" />
        </g>
    </g>
</svg>