<svg xmlns="http://www.w3.org/2000/svg" xmlns:xlink="http://www.w3.org/1999/xlink" width="1250" zoomAndPan="magnify" viewBox="0 0 937.5 374.999991" height="500" preserveAspectRatio="xMidYMid meet" version="1.0"><defs><g/><clipPath id="9f43d76aa1"><path d="M 29 0.101562 L 920 0.101562 L 920 374 L 29 374 Z M 29 0.101562 " clip-rule="nonzero"/></clipPath><clipPath id="81f610e72d"><rect x="0" width="891" y="0" height="374"/></clipPath></defs><g clip-path="url(#9f43d76aa1)"><g transform="matrix(1, 0, 0, 1, 29, 0.000000000000033015)"><g clip-path="url(#81f610e72d)"><g fill="#ffffff" fill-opacity="1"><g transform="translate(1.765717, 328.132844)"><g><path d="M 155.375 14.347656 C 118.691406 14.347656 89.226562 8.890625 66.984375 -2.023438 C 43.957031 -13.328125 27.378906 -31.292969 17.242188 -55.925781 C 7.519531 -79.5625 2.65625 -110.261719 2.65625 -148.03125 C 2.65625 -185.582031 7.664062 -216.0625 17.679688 -239.472656 C 28.070312 -263.773438 44.550781 -281.5625 67.117188 -292.847656 C 88.992188 -303.78125 117.25 -309.25 151.894531 -309.25 C 187.804688 -309.25 217.011719 -303.726562 239.511719 -292.683594 C 262.742188 -281.277344 279.6875 -263.230469 290.351562 -238.535156 C 300.632812 -214.730469 305.769531 -183.789062 305.769531 -145.710938 C 305.769531 -108.613281 300.484375 -78.335938 289.90625 -54.882812 C 278.976562 -30.636719 262.179688 -12.953125 239.511719 -1.832031 C 217.527344 8.957031 189.480469 14.347656 155.375 14.347656 Z M 155.375 -3.527344 C 186.714844 -3.527344 212.136719 -8.3125 231.636719 -17.878906 C 250.453125 -27.113281 264.445312 -41.894531 273.613281 -62.230469 C 283.132812 -83.347656 287.894531 -111.175781 287.894531 -145.710938 C 287.894531 -181.324219 283.242188 -209.90625 273.941406 -231.449219 C 265.019531 -252.105469 250.917969 -267.167969 231.632812 -276.636719 C 211.617188 -286.460938 185.039062 -291.375 151.894531 -291.375 C 120.0625 -291.375 94.46875 -286.535156 75.113281 -276.855469 C 56.453125 -267.527344 42.789062 -252.722656 34.113281 -232.445312 C 25.058594 -211.277344 20.53125 -183.140625 20.53125 -148.03125 C 20.53125 -112.621094 24.945312 -84.183594 33.773438 -62.730469 C 42.191406 -42.269531 55.886719 -27.386719 74.859375 -18.074219 C 94.617188 -8.375 121.457031 -3.527344 155.375 -3.527344 Z M 154.988281 -85.464844 C 157.214844 -85.464844 160.222656 -85.855469 164.007812 -86.632812 C 166.636719 -87.175781 168.480469 -87.976562 169.539062 -89.03125 L 175.859375 -82.710938 L 167.242188 -85.089844 C 171.148438 -99.253906 173.105469 -119.71875 173.105469 -146.484375 C 173.105469 -166.769531 170.789062 -182.96875 166.15625 -195.082031 C 162.597656 -204.394531 158.359375 -209.050781 153.441406 -209.050781 C 151 -209.050781 148.152344 -208.539062 144.898438 -207.523438 C 142.042969 -206.632812 139.5625 -205.21875 137.449219 -203.28125 L 131.410156 -209.871094 L 140.082031 -207.703125 C 138.398438 -200.96875 137.191406 -192.953125 136.457031 -183.65625 C 135.703125 -174.101562 135.324219 -162.480469 135.324219 -148.804688 C 135.324219 -127.976562 137.585938 -111.492188 142.105469 -99.359375 C 145.554688 -90.097656 149.851562 -85.464844 154.988281 -85.464844 Z M 154.988281 -67.589844 C 148.011719 -67.589844 141.894531 -70.027344 136.636719 -74.902344 C 132.058594 -79.148438 128.296875 -85.222656 125.355469 -93.117188 C 120.082031 -107.265625 117.449219 -125.828125 117.449219 -148.804688 C 117.449219 -162.953125 117.84375 -175.039062 118.636719 -185.066406 C 119.449219 -195.351562 120.816406 -204.34375 122.738281 -212.039062 L 123.390625 -214.644531 L 125.371094 -216.460938 C 129.441406 -220.191406 134.175781 -222.902344 139.566406 -224.585938 C 144.558594 -226.144531 149.183594 -226.925781 153.441406 -226.925781 C 166.5625 -226.925781 176.363281 -218.4375 182.855469 -201.46875 C 188.269531 -187.296875 190.980469 -168.972656 190.980469 -146.484375 C 190.980469 -118.105469 188.8125 -96.058594 184.472656 -80.335938 L 183.847656 -78.058594 L 182.179688 -76.390625 C 178.597656 -72.808594 173.742188 -70.386719 167.613281 -69.125 C 162.636719 -68.101562 158.429688 -67.589844 154.988281 -67.589844 Z M 154.988281 -67.589844 "/></g></g></g><g fill="#ffffff" fill-opacity="1"><g transform="translate(273.468086, 328.132844)"><g><path d="M 6.523438 -0.164062 L 7.875 -73.984375 C 8.261719 -98.402344 8.453125 -122.824219 8.453125 -147.257812 C 8.453125 -171.945312 8.261719 -196.507812 7.875 -220.9375 L 6.355469 -303.839844 L 173.539062 -303.839844 C 202.265625 -303.839844 226.730469 -301.644531 246.9375 -297.257812 C 268.382812 -292.601562 284.902344 -283.898438 296.488281 -271.152344 C 308.347656 -258.109375 314.273438 -239.617188 314.273438 -215.667969 C 314.273438 -193.109375 310.226562 -175.25 302.125 -162.089844 C 293.757812 -148.492188 280.925781 -138.910156 263.628906 -133.339844 C 247.535156 -128.15625 226.910156 -125.566406 201.753906 -125.566406 L 201.753906 -134.503906 L 210.691406 -134.503906 L 210.691406 -127.546875 L 201.753906 -127.546875 L 201.753906 -136.484375 C 228.34375 -136.484375 249.574219 -134.246094 265.441406 -129.769531 C 282.410156 -124.984375 294.777344 -117.5625 302.554688 -107.5 C 310.367188 -97.390625 314.273438 -84.875 314.273438 -69.957031 C 314.273438 -66.710938 314.636719 -62.113281 315.367188 -56.164062 C 316.125 -49.96875 317.074219 -43.390625 318.214844 -36.421875 C 319.355469 -29.449219 320.558594 -22.867188 321.824219 -16.667969 C 323.027344 -10.769531 324.203125 -6.214844 325.347656 -3.007812 L 329.613281 8.9375 L 183.382812 8.9375 L 182.441406 1.054688 C 181.140625 -9.898438 180.09375 -20.660156 179.3125 -31.226562 C 178.523438 -41.882812 178.128906 -53.890625 178.128906 -67.25 C 178.128906 -76.222656 177.300781 -82.144531 175.648438 -85.015625 C 175.710938 -84.910156 175.769531 -84.824219 175.832031 -84.761719 C 175.820312 -84.773438 175.777344 -84.804688 175.707031 -84.851562 C 175.269531 -85.148438 174.601562 -85.433594 173.703125 -85.703125 C 171.035156 -86.511719 167.246094 -86.914062 162.332031 -86.914062 L 131.796875 -86.914062 L 131.796875 -95.851562 L 140.691406 -94.964844 C 140.460938 -92.683594 140.347656 -88.210938 140.347656 -81.550781 L 140.347656 -57.976562 C 140.347656 -49.261719 140.414062 -40.738281 140.539062 -32.410156 C 140.671875 -23.992188 140.734375 -16.792969 140.734375 -10.820312 L 140.734375 8.9375 L 6.355469 8.9375 Z M 24.398438 0.164062 L 15.460938 0 L 15.460938 -8.9375 L 131.796875 -8.9375 L 131.796875 0 L 122.859375 0 L 122.859375 -10.820312 C 122.859375 -16.703125 122.796875 -23.808594 122.667969 -32.136719 C 122.539062 -40.554688 122.472656 -49.167969 122.472656 -57.976562 L 122.472656 -81.550781 C 122.472656 -88.804688 122.617188 -93.871094 122.902344 -96.742188 L 123.707031 -104.789062 L 162.332031 -104.789062 C 177.371094 -104.789062 186.972656 -101.171875 191.140625 -93.933594 C 194.382812 -88.304688 196.003906 -79.410156 196.003906 -67.25 C 196.003906 -54.332031 196.382812 -42.761719 197.140625 -32.546875 C 197.902344 -22.242188 198.921875 -11.746094 200.195312 -1.054688 L 191.316406 0 L 191.316406 -8.9375 L 316.929688 -8.9375 L 316.929688 0 L 308.515625 3.007812 C 307.082031 -1 305.683594 -6.367188 304.308594 -13.09375 C 302.996094 -19.519531 301.753906 -26.335938 300.574219 -33.535156 C 299.394531 -40.738281 298.410156 -47.558594 297.625 -53.988281 C 296.808594 -60.664062 296.398438 -65.984375 296.398438 -69.957031 C 296.398438 -80.804688 293.734375 -89.675781 288.40625 -96.570312 C 283.039062 -103.515625 273.765625 -108.847656 260.589844 -112.566406 C 246.308594 -116.59375 226.695312 -118.609375 201.753906 -118.609375 L 192.816406 -118.609375 L 192.816406 -143.441406 L 201.753906 -143.441406 C 225.039062 -143.441406 243.835938 -145.746094 258.148438 -150.355469 C 271.257812 -154.574219 280.839844 -161.609375 286.902344 -171.460938 C 293.234375 -181.746094 296.398438 -196.484375 296.398438 -215.667969 C 296.398438 -235.007812 292.019531 -249.496094 283.261719 -259.128906 C 274.238281 -269.054688 260.867188 -275.941406 243.144531 -279.789062 C 224.1875 -283.90625 200.984375 -285.960938 173.539062 -285.960938 L 15.460938 -285.960938 L 15.460938 -294.902344 L 24.398438 -295.066406 L 25.75 -221.21875 C 26.136719 -196.695312 26.332031 -172.039062 26.332031 -147.257812 C 26.332031 -122.730469 26.136719 -98.199219 25.75 -73.65625 Z M 130.25 -168.175781 L 153.828125 -168.175781 C 160.527344 -168.175781 166.21875 -169.738281 170.898438 -172.859375 C 174.429688 -175.214844 176.195312 -180.59375 176.195312 -189 C 176.195312 -197.011719 174.582031 -202.011719 171.359375 -204.003906 C 166.742188 -206.851562 160.382812 -208.277344 152.28125 -208.277344 L 130.25 -208.277344 L 130.25 -217.214844 L 139.1875 -217.214844 L 139.1875 -159.238281 L 130.25 -159.238281 Z M 121.3125 -150.300781 L 121.3125 -226.152344 L 152.28125 -226.152344 C 163.761719 -226.152344 173.25 -223.839844 180.746094 -219.214844 C 189.628906 -213.734375 194.070312 -203.660156 194.070312 -189 C 194.070312 -174.214844 189.652344 -163.878906 180.816406 -157.984375 C 173.132812 -152.863281 164.136719 -150.300781 153.828125 -150.300781 Z M 121.3125 -150.300781 "/></g></g></g><g fill="#ffffff" fill-opacity="1"><g transform="translate(565.268025, 328.132844)"><g><path d="M 311.90625 8.9375 L 183.066406 8.9375 L 175.882812 -47.179688 L 184.746094 -48.3125 L 184.746094 -39.375 L 124.453125 -39.375 L 124.453125 -48.3125 L 133.304688 -47.078125 C 131.765625 -36.046875 130.484375 -26.367188 129.460938 -18.039062 L 126.191406 8.9375 L -10.832031 8.9375 L 4.945312 -72.621094 L 19.433594 -149.113281 L 33.53125 -225.410156 L 47.386719 -303.839844 L 263.710938 -303.839844 L 277.605469 -227.3125 L 291.707031 -151.402344 L 306.386719 -74.53125 L 322.769531 8.9375 Z M 311.90625 -8.9375 L 311.90625 0 L 303.136719 1.722656 L 288.828125 -71.179688 L 274.132812 -148.136719 L 260.019531 -224.121094 L 247.457031 -293.304688 L 256.25 -294.902344 L 256.25 -285.960938 L 54.882812 -285.960938 L 54.882812 -294.902344 L 63.683594 -293.347656 L 51.109375 -222.160156 L 36.996094 -145.789062 L 22.496094 -69.226562 L 8.773438 1.699219 L 0 0 L 0 -8.9375 L 118.269531 -8.9375 L 118.269531 0 L 109.394531 -1.074219 L 111.71875 -20.222656 C 112.753906 -28.644531 114.046875 -38.421875 115.601562 -49.546875 L 116.675781 -57.25 L 192.613281 -57.25 L 199.796875 -1.136719 L 190.933594 0 L 190.933594 -8.9375 Z M 133.730469 -118.316406 L 175.859375 -118.316406 L 175.859375 -109.378906 L 167.011719 -108.097656 C 164.445312 -125.820312 161.617188 -144.058594 158.535156 -162.8125 C 155.4375 -181.667969 151.949219 -204.132812 148.078125 -230.203125 L 156.917969 -231.515625 L 156.917969 -222.578125 L 152.28125 -222.578125 L 152.28125 -231.515625 L 161.117188 -230.171875 L 142.566406 -108.039062 L 133.730469 -109.378906 Z M 123.332031 -100.441406 L 144.597656 -240.453125 L 164.628906 -240.453125 L 165.761719 -232.828125 C 169.617188 -206.847656 173.089844 -184.476562 176.175781 -165.714844 C 179.277344 -146.847656 182.117188 -128.496094 184.703125 -110.660156 L 186.183594 -100.441406 Z M 123.332031 -100.441406 "/></g></g></g><g fill="#ffde59" fill-opacity="1"><g transform="translate(1.765717, 328.132844)"><g><path d="M 155.375 5.40625 C 120.070312 5.40625 91.921875 0.253906 70.921875 -10.046875 C 49.921875 -20.359375 34.78125 -36.785156 25.5 -59.328125 C 16.226562 -81.867188 11.59375 -111.4375 11.59375 -148.03125 C 11.59375 -184.363281 16.359375 -213.671875 25.890625 -235.953125 C 35.429688 -258.242188 50.503906 -274.539062 71.109375 -284.84375 C 91.722656 -295.15625 118.648438 -300.3125 151.890625 -300.3125 C 186.421875 -300.3125 214.3125 -295.09375 235.5625 -284.65625 C 256.820312 -274.21875 272.347656 -257.660156 282.140625 -234.984375 C 291.929688 -212.316406 296.828125 -182.554688 296.828125 -145.703125 C 296.828125 -109.890625 291.800781 -80.835938 281.75 -58.546875 C 271.707031 -36.265625 256.3125 -20.035156 235.5625 -9.859375 C 214.820312 0.316406 188.09375 5.40625 155.375 5.40625 Z M 154.984375 -76.53125 C 157.816406 -76.53125 161.421875 -76.976562 165.796875 -77.875 C 170.179688 -78.78125 173.535156 -80.394531 175.859375 -82.71875 C 179.984375 -97.65625 182.046875 -118.910156 182.046875 -146.484375 C 182.046875 -167.867188 179.53125 -185.128906 174.5 -198.265625 C 169.476562 -211.410156 162.457031 -217.984375 153.4375 -217.984375 C 150.09375 -217.984375 146.359375 -217.335938 142.234375 -216.046875 C 138.109375 -214.765625 134.5 -212.707031 131.40625 -209.875 C 129.601562 -202.65625 128.316406 -194.148438 127.546875 -184.359375 C 126.773438 -174.566406 126.390625 -162.710938 126.390625 -148.796875 C 126.390625 -126.898438 128.835938 -109.378906 133.734375 -96.234375 C 138.628906 -83.097656 145.710938 -76.53125 154.984375 -76.53125 Z M 154.984375 -76.53125 "/></g></g></g><g fill="#ffde59" fill-opacity="1"><g transform="translate(273.468086, 328.132844)"><g><path d="M 15.453125 0 C 15.972656 -24.738281 16.425781 -49.34375 16.8125 -73.8125 C 17.195312 -98.289062 17.390625 -122.769531 17.390625 -147.25 C 17.390625 -171.988281 17.195312 -196.597656 16.8125 -221.078125 C 16.425781 -245.554688 15.972656 -270.164062 15.453125 -294.90625 L 173.53125 -294.90625 C 201.625 -294.90625 225.460938 -292.773438 245.046875 -288.515625 C 264.628906 -284.265625 279.570312 -276.472656 289.875 -265.140625 C 300.175781 -253.804688 305.328125 -237.316406 305.328125 -215.671875 C 305.328125 -194.796875 301.71875 -178.492188 294.5 -166.765625 C 287.289062 -155.046875 276.082031 -146.738281 260.875 -141.84375 C 245.675781 -136.945312 225.96875 -134.5 201.75 -134.5 L 201.75 -127.546875 C 227.519531 -127.546875 247.941406 -125.421875 263.015625 -121.171875 C 278.085938 -116.921875 288.90625 -110.539062 295.46875 -102.03125 C 302.039062 -93.53125 305.328125 -82.835938 305.328125 -69.953125 C 305.328125 -66.347656 305.710938 -61.390625 306.484375 -55.078125 C 307.265625 -48.765625 308.234375 -42.0625 309.390625 -34.96875 C 310.546875 -27.882812 311.769531 -21.1875 313.0625 -14.875 C 314.351562 -8.5625 315.644531 -3.601562 316.9375 0 L 191.3125 0 C 190.03125 -10.820312 189 -21.453125 188.21875 -31.890625 C 187.445312 -42.328125 187.0625 -54.113281 187.0625 -67.25 C 187.0625 -77.8125 185.835938 -85.21875 183.390625 -89.46875 C 180.941406 -93.726562 173.921875 -95.859375 162.328125 -95.859375 L 131.796875 -95.859375 C 131.535156 -93.273438 131.40625 -88.503906 131.40625 -81.546875 C 131.40625 -74.585938 131.40625 -66.726562 131.40625 -57.96875 C 131.40625 -49.207031 131.46875 -40.640625 131.59375 -32.265625 C 131.726562 -23.898438 131.796875 -16.753906 131.796875 -10.828125 C 131.796875 -4.898438 131.796875 -1.289062 131.796875 0 Z M 130.25 -159.234375 L 153.828125 -159.234375 C 162.328125 -159.234375 169.671875 -161.296875 175.859375 -165.421875 C 182.046875 -169.546875 185.140625 -177.40625 185.140625 -189 C 185.140625 -200.332031 182.109375 -207.867188 176.046875 -211.609375 C 169.992188 -215.347656 162.070312 -217.21875 152.28125 -217.21875 L 130.25 -217.21875 Z M 130.25 -159.234375 "/></g></g></g><g fill="#ffde59" fill-opacity="1"><g transform="translate(565.268025, 328.132844)"><g><path d="M 311.90625 0 L 190.9375 0 L 184.75 -48.3125 C 179.851562 -48.3125 174.957031 -48.3125 170.0625 -48.3125 C 165.164062 -48.3125 160.269531 -48.3125 155.375 -48.3125 L 124.453125 -48.3125 C 122.910156 -37.226562 121.625 -27.5 120.59375 -19.125 C 119.5625 -10.757812 118.785156 -4.382812 118.265625 0 L 0 0 C 4.382812 -22.15625 8.957031 -45.796875 13.71875 -70.921875 C 18.488281 -96.046875 23.320312 -121.554688 28.21875 -147.453125 C 33.113281 -173.347656 37.8125 -198.789062 42.3125 -223.78125 C 46.820312 -248.78125 51.015625 -272.488281 54.890625 -294.90625 L 256.25 -294.90625 C 260.113281 -273.507812 264.300781 -250.441406 268.8125 -225.703125 C 273.320312 -200.972656 278.023438 -175.660156 282.921875 -149.765625 C 287.816406 -123.867188 292.710938 -98.226562 297.609375 -72.84375 C 302.503906 -47.46875 307.269531 -23.1875 311.90625 0 Z M 133.734375 -109.375 L 175.859375 -109.375 C 173.285156 -127.15625 170.453125 -145.453125 167.359375 -164.265625 C 164.265625 -183.078125 160.785156 -205.492188 156.921875 -231.515625 L 152.28125 -231.515625 Z M 133.734375 -109.375 "/></g></g></g></g></g></g></svg>