<?xml version="1.0" encoding="UTF-8"?>
<svg height="600" width="800" xmlns="http://www.w3.org/2000/svg" xmlns:xlink="http://www.w3.org/1999/xlink">
    <g id="Notes" font-family="'LucidaGrande', 'Lucida Grande', sans-serif" font-size="13">
        <rect fill="white" height="600.0" width="800.0" x="0.0" y="0.0" />
        <g font-size="13">
            <text x="18.0" y="176.0">Small</text>
            <text x="18.0" y="376.0">Medium</text>
            <text x="18.0" y="576.0">Large</text>
        </g>
        <g font-size="9">
            <text x="250.0" y="30.0">Ultralight</text>
            <text x="450.0" y="30.0">Regular</text>
            <text x="650.0" y="30.0">Black</text>
            <text id="template-version" fill="#505050" text-anchor="end" x="785.0" y="575.0">Template v.3.0</text>
            <a href="https://wangchujiang.com/#/app">
                <text fill="#505050" text-anchor="end" x="785.0" y="590.0">https://wangchujiang.com/#/app</text>
            </a>
        </g>
    </g>
    <g id="Guides" stroke="rgb(39, 170, 225)" stroke-width="0.5">
        <path id="Capline-S" d="M18,76 l800,0" />
        <path id="H-reference" d="M85,145.755 L87.685,145.755 L113.369,79.287 L114.052,79.287 L114.052,76 L112.148,76 L85,145.755 Z M95.693,121.536 L130.996,121.536 L130.263,119.313 L96.474,119.313 L95.693,121.536 Z M139.15,145.755 L141.787,145.755 L114.638,76 L113.466,76 L113.466,79.287 L139.15,145.755 Z" stroke="none" />
        <path id="Baseline-S" d="M18,146 l800,0" />
        <path id="left-margin-Ultralight-S" d="M219.997,56 l0,110" />
        <path id="right-margin-Ultralight-S" d="M310.003,56 l0,110" />
        <path id="left-margin-Regular-S" d="M419.997,56 l0,110" />
        <path id="right-margin-Regular-S" d="M510.003,56 l0,110" />
        <path id="left-margin-Black-S" d="M619.997,56 l0,110" />
        <path id="right-margin-Black-S" d="M710.003,56 l0,110" />
        <path id="Capline-M" d="M18,276 l800,0" />
        <path id="Baseline-M" d="M18,346 l800,0" />
        <path id="Capline-L" d="M18,476 l800,0" />
        <path id="Baseline-L" d="M18,546 l800,0" />
    </g>
    <g id="Symbols">
        <g id="Ultralight-S">
            <path d="M262.578,120.53 C260.459,120.53 258.875,120.358 258.439,120.31 C256.981,120.135 255.833,118.987 255.658,117.529 C255.502,116.234 254.296,104.72 259.683,99.333 C265.426,93.577 270.892,93.583 276.635,99.333 C279.508,102.203 280.905,104.974 280.905,107.809 C280.905,110.644 279.512,113.415 276.635,116.285 C273.059,119.862 266.772,120.53 262.578,120.53 Z M297.829,78.145 C294.835,75.151 292.78,75.422 289.448,78.145 C286.998,80.159 283.069,83.453 278.557,87.633 C277.558,88.562 276.524,89.542 275.468,90.564 C277.405,91.585 279.302,92.995 281.141,94.837 C282.977,96.67 284.383,98.569 285.398,100.516 C286.445,99.425 287.456,98.359 288.398,97.347 C292.506,92.906 295.844,88.951 297.832,86.529 C300.626,83.255 300.826,81.139 297.832,78.148 Z M287.266,107.755 C287.288,112.327 285.217,116.702 281.131,120.788 C276.085,125.834 268.258,126.893 262.578,126.893 C260.341,126.893 258.572,126.728 257.716,126.632 C253.297,126.104 249.864,122.671 249.339,118.283 C248.896,114.599 248.012,102.006 255.184,94.834 C259.307,90.71 263.689,88.613 268.27,88.664 C269.995,87.003 272.407,84.658 274.106,83.083 C270.294,82.67 266.056,82.364 261.815,82.364 C248.89,82.364 235.905,85.183 235.361,85.304 C234.149,85.572 233.204,86.517 232.937,87.729 C232.816,88.276 229.997,101.261 229.997,114.182 C229.997,127.103 232.816,140.091 232.937,140.636 C233.204,141.848 234.149,142.793 235.361,143.06 C235.908,143.181 248.893,146 261.815,146 C274.736,146 287.724,143.181 288.268,143.06 C289.48,142.793 290.425,141.848 290.692,140.636 C290.813,140.088 293.632,127.103 293.632,114.182 C293.632,109.919 293.324,105.661 292.907,101.834 C291.971,102.836 287.266,107.755 287.266,107.755 Z" />
        </g>
        <g id="Regular-S">
            <path d="M462.578,120.53 C460.459,120.53 458.875,120.358 458.439,120.31 C456.981,120.135 455.833,118.987 455.658,117.529 C455.502,116.234 454.296,104.72 459.683,99.333 C465.426,93.577 470.892,93.583 476.635,99.333 C479.508,102.203 480.905,104.974 480.905,107.809 C480.905,110.644 479.512,113.415 476.635,116.285 C473.059,119.862 466.772,120.53 462.578,120.53 Z M497.829,78.145 C494.835,75.151 492.78,75.422 489.448,78.145 C486.998,80.159 483.069,83.453 478.557,87.633 C477.558,88.562 476.524,89.542 475.468,90.564 C477.405,91.585 479.302,92.995 481.141,94.837 C482.977,96.67 484.383,98.569 485.398,100.516 C486.445,99.425 487.456,98.359 488.398,97.347 C492.506,92.906 495.844,88.951 497.832,86.529 C500.626,83.255 500.826,81.139 497.832,78.148 Z M487.266,107.755 C487.288,112.327 485.217,116.702 481.131,120.788 C476.085,125.834 468.258,126.893 462.578,126.893 C460.341,126.893 458.572,126.728 457.716,126.632 C453.297,126.104 449.864,122.671 449.339,118.283 C448.896,114.599 448.012,102.006 455.184,94.834 C459.307,90.71 463.689,88.613 468.27,88.664 C469.995,87.003 472.407,84.658 474.106,83.083 C470.294,82.67 466.056,82.364 461.815,82.364 C448.89,82.364 435.905,85.183 435.361,85.304 C434.149,85.572 433.204,86.517 432.937,87.729 C432.816,88.276 429.997,101.261 429.997,114.182 C429.997,127.103 432.816,140.091 432.937,140.636 C433.204,141.848 434.149,142.793 435.361,143.06 C435.908,143.181 448.893,146 461.815,146 C474.736,146 487.724,143.181 488.268,143.06 C489.48,142.793 490.425,141.848 490.692,140.636 C490.813,140.088 493.632,127.103 493.632,114.182 C493.632,109.919 493.324,105.661 492.907,101.834 C491.971,102.836 487.266,107.755 487.266,107.755 Z" />
        </g>
        <g id="Black-S">
            <path d="M662.578,120.53 C660.459,120.53 658.875,120.358 658.439,120.31 C656.981,120.135 655.833,118.987 655.658,117.529 C655.502,116.234 654.296,104.72 659.683,99.333 C665.426,93.577 670.892,93.583 676.635,99.333 C679.508,102.203 680.905,104.974 680.905,107.809 C680.905,110.644 679.512,113.415 676.635,116.285 C673.059,119.862 666.772,120.53 662.578,120.53 Z M697.829,78.145 C694.835,75.151 692.78,75.422 689.448,78.145 C686.998,80.159 683.069,83.453 678.557,87.633 C677.558,88.562 676.524,89.542 675.468,90.564 C677.405,91.585 679.302,92.995 681.141,94.837 C682.977,96.67 684.383,98.569 685.398,100.516 C686.445,99.425 687.456,98.359 688.398,97.347 C692.506,92.906 695.844,88.951 697.832,86.529 C700.626,83.255 700.826,81.139 697.832,78.148 Z M687.266,107.755 C687.288,112.327 685.216,116.702 681.131,120.788 C676.085,125.834 668.258,126.893 662.578,126.893 C660.341,126.893 658.572,126.728 657.716,126.632 C653.297,126.104 649.864,122.671 649.339,118.283 C648.896,114.599 648.012,102.006 655.184,94.834 C659.307,90.71 663.689,88.613 668.27,88.664 C669.995,87.003 672.407,84.658 674.106,83.083 C670.294,82.67 666.056,82.364 661.815,82.364 C648.89,82.364 635.905,85.183 635.361,85.304 C634.149,85.572 633.204,86.517 632.937,87.729 C632.816,88.276 629.997,101.261 629.997,114.182 C629.997,127.103 632.816,140.091 632.937,140.636 C633.204,141.848 634.149,142.793 635.361,143.06 C635.908,143.181 648.893,146 661.815,146 C674.736,146 687.724,143.181 688.268,143.06 C689.48,142.793 690.425,141.848 690.692,140.636 C690.813,140.088 693.632,127.103 693.632,114.182 C693.632,109.919 693.324,105.661 692.907,101.834 C691.971,102.836 687.266,107.755 687.266,107.755 Z" />
        </g>
    </g>
</svg>