<?xml version="1.0" encoding="UTF-8"?>
<!--Generator: Apple Native CoreSVG 341-->
<!DOCTYPE svg
PUBLIC "-//W3C//DTD SVG 1.1//EN"
       "http://www.w3.org/Graphics/SVG/1.1/DTD/svg11.dtd">
<svg version="1.1" xmlns="http://www.w3.org/2000/svg" xmlns:xlink="http://www.w3.org/1999/xlink" viewBox="0 0 3300 2200">
 <!--glyph: "", point size: 100.0, font version: "20.0d10e1", template writer version: "138.0.0"-->
 <style>.SFSymbolsPreviewWireframe {fill:none;opacity:1.0;stroke:black;stroke-width:0.5}
</style>
 <g id="Notes">
  <rect height="2200" id="artboard" style="fill:white;opacity:1" width="3300" x="0" y="0"/>
  <line style="fill:none;stroke:black;opacity:1;stroke-width:0.5;" x1="263" x2="3036" y1="292" y2="292"/>
  <text style="stroke:none;fill:black;font-family:sans-serif;font-size:13;font-weight:bold;" transform="matrix(1 0 0 1 263 322)">Weight/Scale Variations</text>
  <text style="stroke:none;fill:black;font-family:sans-serif;font-size:13;text-anchor:middle;" transform="matrix(1 0 0 1 559.711 322)">Ultralight</text>
  <text style="stroke:none;fill:black;font-family:sans-serif;font-size:13;text-anchor:middle;" transform="matrix(1 0 0 1 856.422 322)">Thin</text>
  <text style="stroke:none;fill:black;font-family:sans-serif;font-size:13;text-anchor:middle;" transform="matrix(1 0 0 1 1153.13 322)">Light</text>
  <text style="stroke:none;fill:black;font-family:sans-serif;font-size:13;text-anchor:middle;" transform="matrix(1 0 0 1 1449.84 322)">Regular</text>
  <text style="stroke:none;fill:black;font-family:sans-serif;font-size:13;text-anchor:middle;" transform="matrix(1 0 0 1 1746.56 322)">Medium</text>
  <text style="stroke:none;fill:black;font-family:sans-serif;font-size:13;text-anchor:middle;" transform="matrix(1 0 0 1 2043.27 322)">Semibold</text>
  <text style="stroke:none;fill:black;font-family:sans-serif;font-size:13;text-anchor:middle;" transform="matrix(1 0 0 1 2339.98 322)">Bold</text>
  <text style="stroke:none;fill:black;font-family:sans-serif;font-size:13;text-anchor:middle;" transform="matrix(1 0 0 1 2636.69 322)">Heavy</text>
  <text style="stroke:none;fill:black;font-family:sans-serif;font-size:13;text-anchor:middle;" transform="matrix(1 0 0 1 2933.4 322)">Black</text>
  <line style="fill:none;stroke:black;opacity:1;stroke-width:0.5;" x1="263" x2="3036" y1="1903" y2="1903"/>
  <g transform="matrix(0.2 0 0 0.2 263 1933)">
   <path d="m46.2402 4.15039c21.7773 0 39.4531-17.627 39.4531-39.4043s-17.6758-39.4043-39.4531-39.4043c-21.7285 0-39.4043 17.627-39.4043 39.4043s17.6758 39.4043 39.4043 39.4043Zm0-7.42188c-17.6758 0-31.9336-14.3066-31.9336-31.9824s14.2578-31.9824 31.9336-31.9824 31.9824 14.3066 31.9824 31.9824-14.3066 31.9824-31.9824 31.9824Zm-17.9688-31.9824c0 2.14844 1.51367 3.61328 3.75977 3.61328h10.498v10.5957c0 2.19727 1.46484 3.71094 3.61328 3.71094 2.24609 0 3.71094-1.51367 3.71094-3.71094v-10.5957h10.5957c2.19727 0 3.71094-1.46484 3.71094-3.61328 0-2.19727-1.51367-3.71094-3.71094-3.71094h-10.5957v-10.5469c0-2.24609-1.46484-3.75977-3.71094-3.75977-2.14844 0-3.61328 1.51367-3.61328 3.75977v10.5469h-10.498c-2.24609 0-3.75977 1.51367-3.75977 3.71094Z"/>
  </g>
  <g transform="matrix(0.2 0 0 0.2 281.506 1933)">
   <path d="m58.5449 14.5508c27.4902 0 49.8047-22.3145 49.8047-49.8047s-22.3145-49.8047-49.8047-49.8047-49.8047 22.3145-49.8047 49.8047 22.3145 49.8047 49.8047 49.8047Zm0-8.30078c-22.9492 0-41.5039-18.5547-41.5039-41.5039s18.5547-41.5039 41.5039-41.5039 41.5039 18.5547 41.5039 41.5039-18.5547 41.5039-41.5039 41.5039Zm-22.6562-41.5039c0 2.39258 1.66016 4.00391 4.15039 4.00391h14.3555v14.4043c0 2.44141 1.66016 4.15039 4.05273 4.15039 2.44141 0 4.15039-1.66016 4.15039-4.15039v-14.4043h14.4043c2.44141 0 4.15039-1.61133 4.15039-4.00391 0-2.44141-1.70898-4.15039-4.15039-4.15039h-14.4043v-14.3555c0-2.49023-1.70898-4.19922-4.15039-4.19922-2.39258 0-4.05273 1.70898-4.05273 4.19922v14.3555h-14.3555c-2.49023 0-4.15039 1.70898-4.15039 4.15039Z"/>
  </g>
  <g transform="matrix(0.2 0 0 0.2 304.924 1933)">
   <path d="m74.8535 28.3203c35.1074 0 63.623-28.4668 63.623-63.5742s-28.5156-63.623-63.623-63.623-63.5742 28.5156-63.5742 63.623 28.4668 63.5742 63.5742 63.5742Zm0-9.08203c-30.127 0-54.4922-24.3652-54.4922-54.4922s24.3652-54.4922 54.4922-54.4922 54.4922 24.3652 54.4922 54.4922-24.3652 54.4922-54.4922 54.4922Zm-28.8574-54.4922c0 2.58789 1.85547 4.39453 4.58984 4.39453h19.7266v19.7754c0 2.68555 1.85547 4.58984 4.44336 4.58984 2.68555 0 4.54102-1.85547 4.54102-4.58984v-19.7754h19.7754c2.68555 0 4.58984-1.80664 4.58984-4.39453 0-2.73438-1.85547-4.58984-4.58984-4.58984h-19.7754v-19.7266c0-2.73438-1.85547-4.63867-4.54102-4.63867-2.58789 0-4.44336 1.9043-4.44336 4.63867v19.7266h-19.7266c-2.73438 0-4.58984 1.85547-4.58984 4.58984Z"/>
  </g>
  <text style="stroke:none;fill:black;font-family:sans-serif;font-size:13;font-weight:bold;" transform="matrix(1 0 0 1 263 1953)">Design Variations</text>
  <text style="stroke:none;fill:black;font-family:sans-serif;font-size:13;" transform="matrix(1 0 0 1 263 1971)">Symbols are supported in up to nine weights and three scales.</text>
  <text style="stroke:none;fill:black;font-family:sans-serif;font-size:13;" transform="matrix(1 0 0 1 263 1989)">For optimal layout with text and other symbols, vertically align</text>
  <text style="stroke:none;fill:black;font-family:sans-serif;font-size:13;" transform="matrix(1 0 0 1 263 2007)">symbols with the adjacent text.</text>
  <line style="fill:none;stroke:#00AEEF;stroke-width:0.5;opacity:1.0;" x1="776" x2="776" y1="1919" y2="1933"/>
  <g transform="matrix(0.2 0 0 0.2 776 1933)">
   <path d="m16.5527 0.78125c2.58789 0 3.85742-0.976562 4.78516-3.71094l6.29883-17.2363h28.8086l6.29883 17.2363c0.927734 2.73438 2.19727 3.71094 4.73633 3.71094 2.58789 0 4.24805-1.5625 4.24805-4.00391 0-0.830078-0.146484-1.61133-0.537109-2.63672l-22.9004-60.9863c-1.12305-2.97852-3.125-4.49219-6.25-4.49219-3.02734 0-5.07812 1.46484-6.15234 4.44336l-22.9004 61.084c-0.390625 1.02539-0.537109 1.80664-0.537109 2.63672 0 2.44141 1.5625 3.95508 4.10156 3.95508Zm13.4766-28.3691 11.8652-32.8613h0.244141l11.8652 32.8613Z"/>
  </g>
  <line style="fill:none;stroke:#00AEEF;stroke-width:0.5;opacity:1.0;" x1="792.836" x2="792.836" y1="1919" y2="1933"/>
  <text style="stroke:none;fill:black;font-family:sans-serif;font-size:13;font-weight:bold;" transform="matrix(1 0 0 1 776 1953)">Margins</text>
  <text style="stroke:none;fill:black;font-family:sans-serif;font-size:13;" transform="matrix(1 0 0 1 776 1971)">Leading and trailing margins on the left and right side of each symbol</text>
  <text style="stroke:none;fill:black;font-family:sans-serif;font-size:13;" transform="matrix(1 0 0 1 776 1989)">can be adjusted by modifying the x-location of the margin guidelines.</text>
  <text style="stroke:none;fill:black;font-family:sans-serif;font-size:13;" transform="matrix(1 0 0 1 776 2007)">Modifications are automatically applied proportionally to all</text>
  <text style="stroke:none;fill:black;font-family:sans-serif;font-size:13;" transform="matrix(1 0 0 1 776 2025)">scales and weights.</text>
  <g transform="matrix(0.2 0 0 0.2 1289 1933)">
   <path d="m14.209 9.32617 8.49609 8.54492c4.29688 4.3457 9.22852 4.05273 13.8672-1.07422l53.4668-58.9355-4.83398-4.88281-53.0762 58.3984c-1.75781 2.00195-3.41797 2.49023-5.76172 0.146484l-5.85938-5.81055c-2.34375-2.29492-1.80664-4.00391 0.195312-5.81055l57.373-54.0039-4.88281-4.83398-57.959 54.4434c-4.93164 4.58984-5.32227 9.47266-1.02539 13.8184Zm32.0801-90.9668c-2.09961 2.05078-2.24609 4.93164-1.07422 6.88477 1.17188 1.80664 3.4668 2.97852 6.68945 2.14844 7.32422-1.70898 14.9414-2.00195 22.0703 2.68555l-2.92969 7.27539c-1.70898 4.15039-0.830078 7.08008 1.85547 9.81445l11.4746 11.5723c2.44141 2.44141 4.49219 2.53906 7.32422 2.05078l5.32227-0.976562 3.32031 3.36914-0.195312 2.7832c-0.195312 2.49023 0.439453 4.39453 2.88086 6.78711l3.80859 3.71094c2.39258 2.39258 5.46875 2.53906 7.8125 0.195312l14.5508-14.5996c2.34375-2.34375 2.24609-5.32227-0.146484-7.71484l-3.85742-3.80859c-2.39258-2.39258-4.24805-3.17383-6.64062-2.97852l-2.88086 0.244141-3.22266-3.17383 1.2207-5.61523c0.634766-2.83203-0.146484-5.0293-3.07617-7.95898l-10.9863-10.9375c-16.6992-16.6016-38.8672-16.2109-53.3203-1.75781Zm7.4707 1.85547c12.1582-8.88672 28.6133-7.37305 39.7461 3.75977l12.1582 12.0605c1.17188 1.17188 1.36719 2.09961 1.02539 3.80859l-1.61133 7.42188 7.51953 7.42188 4.93164-0.292969c1.26953-0.0488281 1.66016 0.0488281 2.63672 1.02539l2.88086 2.88086-12.207 12.207-2.88086-2.88086c-0.976562-0.976562-1.12305-1.36719-1.07422-2.68555l0.341797-4.88281-7.4707-7.42188-7.61719 1.26953c-1.61133 0.341797-2.34375 0.195312-3.56445-0.976562l-10.0098-10.0098c-1.26953-1.17188-1.41602-2.00195-0.634766-3.85742l4.39453-10.4492c-7.8125-7.27539-17.9688-10.4004-28.125-7.42188-0.78125 0.195312-1.07422-0.439453-0.439453-0.976562Z"/>
  </g>
  <text style="stroke:none;fill:black;font-family:sans-serif;font-size:13;font-weight:bold;" transform="matrix(1 0 0 1 1289 1953)">Exporting</text>
  <text style="stroke:none;fill:black;font-family:sans-serif;font-size:13;" transform="matrix(1 0 0 1 1289 1971)">Symbols should be outlined when exporting to ensure the</text>
  <text style="stroke:none;fill:black;font-family:sans-serif;font-size:13;" transform="matrix(1 0 0 1 1289 1989)">design is preserved when submitting to Xcode.</text>
  <text id="template-version" style="stroke:none;fill:black;font-family:sans-serif;font-size:13;text-anchor:end;" transform="matrix(1 0 0 1 3036 1933)">Template v.6.0</text>
  <text style="stroke:none;fill:black;font-family:sans-serif;font-size:13;text-anchor:end;" transform="matrix(1 0 0 1 3036 1951)">Requires Xcode 16 or greater</text>
  <text id="descriptive-name" style="stroke:none;fill:black;font-family:sans-serif;font-size:13;text-anchor:end;" transform="matrix(1 0 0 1 3036 1969)">Generated from houseparty</text>
  <text style="stroke:none;fill:black;font-family:sans-serif;font-size:13;text-anchor:end;" transform="matrix(1 0 0 1 3036 1987)">Typeset at 100.0 points</text>
  <text style="stroke:none;fill:black;font-family:sans-serif;font-size:13;" transform="matrix(1 0 0 1 263 726)">Small</text>
  <text style="stroke:none;fill:black;font-family:sans-serif;font-size:13;" transform="matrix(1 0 0 1 263 1156)">Medium</text>
  <text style="stroke:none;fill:black;font-family:sans-serif;font-size:13;" transform="matrix(1 0 0 1 263 1586)">Large</text>
 </g>
 <g id="Guides">
  <g id="H-reference" style="fill:#27AAE1;stroke:none;" transform="matrix(1 0 0 1 339 696)">
   <path d="M0.993654 0L3.63775 0L29.3281-67.1323L30.0303-67.1323L30.0303-70.459L28.1226-70.459ZM11.6885-24.4799L46.9815-24.4799L46.2315-26.7285L12.4385-26.7285ZM55.1196 0L57.7637 0L30.6382-70.459L29.4326-70.459L29.4326-67.1323Z"/>
  </g>
  <line id="Baseline-S" style="fill:none;stroke:#27AAE1;opacity:1;stroke-width:0.5;" x1="263" x2="3036" y1="696" y2="696"/>
  <line id="Capline-S" style="fill:none;stroke:#27AAE1;opacity:1;stroke-width:0.5;" x1="263" x2="3036" y1="625.541" y2="625.541"/>
  <g id="H-reference" style="fill:#27AAE1;stroke:none;" transform="matrix(1 0 0 1 339 1126)">
   <path d="M0.993654 0L3.63775 0L29.3281-67.1323L30.0303-67.1323L30.0303-70.459L28.1226-70.459ZM11.6885-24.4799L46.9815-24.4799L46.2315-26.7285L12.4385-26.7285ZM55.1196 0L57.7637 0L30.6382-70.459L29.4326-70.459L29.4326-67.1323Z"/>
  </g>
  <line id="Baseline-M" style="fill:none;stroke:#27AAE1;opacity:1;stroke-width:0.5;" x1="263" x2="3036" y1="1126" y2="1126"/>
  <line id="Capline-M" style="fill:none;stroke:#27AAE1;opacity:1;stroke-width:0.5;" x1="263" x2="3036" y1="1055.54" y2="1055.54"/>
  <g id="H-reference" style="fill:#27AAE1;stroke:none;" transform="matrix(1 0 0 1 339 1556)">
   <path d="M0.993654 0L3.63775 0L29.3281-67.1323L30.0303-67.1323L30.0303-70.459L28.1226-70.459ZM11.6885-24.4799L46.9815-24.4799L46.2315-26.7285L12.4385-26.7285ZM55.1196 0L57.7637 0L30.6382-70.459L29.4326-70.459L29.4326-67.1323Z"/>
  </g>
  <line id="Baseline-L" style="fill:none;stroke:#27AAE1;opacity:1;stroke-width:0.5;" x1="263" x2="3036" y1="1556" y2="1556"/>
  <line id="Capline-L" style="fill:none;stroke:#27AAE1;opacity:1;stroke-width:0.5;" x1="263" x2="3036" y1="1485.54" y2="1485.54"/>
  <line id="right-margin-Black-S" style="fill:none;stroke:#00AEEF;stroke-width:0.5;opacity:1.0;" x1="2992.11" x2="2992.11" y1="600.785" y2="720.121"/>
  <line id="left-margin-Black-S" style="fill:none;stroke:#00AEEF;stroke-width:0.5;opacity:1.0;" x1="2874.69" x2="2874.69" y1="600.785" y2="720.121"/>
  <line id="right-margin-Regular-S" style="fill:none;stroke:#00AEEF;stroke-width:0.5;opacity:1.0;" x1="1498.24" x2="1498.24" y1="600.785" y2="720.121"/>
  <line id="left-margin-Regular-S" style="fill:none;stroke:#00AEEF;stroke-width:0.5;opacity:1.0;" x1="1401.45" x2="1401.45" y1="600.785" y2="720.121"/>
  <line id="right-margin-Ultralight-S" style="fill:none;stroke:#00AEEF;stroke-width:0.5;opacity:1.0;" x1="604.083" x2="604.083" y1="600.785" y2="720.121"/>
  <line id="left-margin-Ultralight-S" style="fill:none;stroke:#00AEEF;stroke-width:0.5;opacity:1.0;" x1="515.339" x2="515.339" y1="600.785" y2="720.121"/>
 </g>
 <g id="Symbols">
  <g id="Black-S" transform="matrix(1 0 0 1 2874.69 696)">
   <path class="SFSymbolsPreviewWireframe" d="M72.5554-88.3455C73.0842-89.1388 74.1001-89.53 75.4104-89.0261C76.885-88.4589 79.2104-87.4001 83.9182-83.4865C87.1304-80.8162 89.4294-77.2072 89.7605-75.7725C89.9873-74.7894 89.5146-73.6171 88.1724-73.6171C87.2593-73.6171 86.3757-74.6766 85.8469-75.47C85.3179-76.2634 83.3193-78.942 80.7156-81.0832C77.8416-83.4465 74.3718-85.3603 73.4062-85.812C72.2339-86.3602 72.1604-87.753 72.5554-88.3455ZM55.144-19.5734C54.3362-20.0801 53.917-21.0847 54.3845-22.4083C54.9104-23.8982 56.5093-26.326 60.3884-31.0623C63.1362-34.4172 66.0654-36.4655 67.4905-36.8362C68.467-37.0903 69.7649-36.5385 69.802-35.1967C69.8274-34.284 68.9687-33.7452 68.0549-32.9658C67.3293-32.347 65.0432-30.4941 62.9749-27.832C60.6921-24.8937 58.54-21.6499 57.8411-20.7092C57.0693-19.6703 55.7473-19.195 55.144-19.5734ZM80.564-17.5355C79.6853-17.1656 78.4187-17.5281 77.6775-18.7202C76.8486-20.0532 75.9573-21.8649 74.8284-26.73C73.884-30.7988 73.614-34.3819 74.1294-35.7611C74.4827-36.7063 75.5496-37.4628 76.7366-36.8362C77.7043-36.3256 77.7278-34.7794 77.7312-33.8259C77.7346-32.8724 77.8699-30.3287 78.8601-27.1063C79.9529-23.5496 80.7686-21.0854 81.1985-20.0909C81.7122-18.9031 81.2205-17.8116 80.564-17.5355ZM35.9092 14.472C35.2793 15.1879 34.2205 15.4401 32.989 14.7661C31.603 14.0074 24.5498 9.35626 20.4719 4.78998C15.2329-1.07666 13.0364-6.94611 12.8994-8.41211C12.8054-9.41675 13.3342-10.4282 14.7205-10.4034C15.6333-10.3871 16.0879-9.79346 16.6348-8.51031C17.0085-7.63318 19.9304-1.52985 23.7856 2.54132C28.717 7.74866 34.5068 11.2714 35.4036 11.8478C36.4924 12.5474 36.3796 13.9375 35.9092 14.472ZM87.6096-68.4742C104.41-68.4742 107.414-49.9196 107.36-35.687C107.227-0.42273 81.5781 12.3781 64.2485 12.3781C36.9082 12.3781 22.3594-15.8203 17.0793-25.7972C16.761-26.3987 10-37.0278 12.9839-45.6082C13.8359-48.0587 14.8044-50.3767 16.3809-52.2695C16.2939-54.9648 17.1282-59.4532 18.8481-62.4487C20.9253-66.0657 23.9707-67.9727 24.0237-68.0104C24.0518-68.155 25.3623-75.8558 32.4797-80.0739C41.2495-85.2713 47.5042-82.3141 49.8792-81.1924C51.7402-81.8558 53.708-82.2985 55.7051-82.1978C59.7803-81.9924 63.3174-80.637 66.323-78.7734C72.8025-74.7558 76.8123-68.3764 78.4214-66.0669C81.1733-67.6368 84.2957-68.4742 87.6096-68.4742ZM64.2485-1.62195C74.4631-1.62195 93.3601-8.71051 93.3601-35.687C93.3601-54.1046 89.5334-54.4742 87.6096-54.4742C80.7959-54.4742 81.7124-41.7119 78.7517-41.7119C75.7913-41.7119 68.7717-57.9612 60.9558-65.2961C59.8987-66.2882 56.7493-69.366 53.7954-67.6075C52.2996-66.7171 52.4854-64.1497 53.6238-62.3669C54.1262-61.5802 63.4619-45.5729 64.1746-44.4327C64.8467-43.3571 62.782-42.7545 62.4326-43.1807C61.5593-44.2463 47.3992-64.8706 46.2197-66.4984C45.3372-67.7161 43.2163-70.173 39.772-68.123C37.0366-66.4951 37.3193-63.3071 38.6804-61.2693C40.0415-59.2314 52.928-39.8908 53.8401-38.5733C54.5322-37.5735 52.4065-36.7618 52.0337-37.2433C50.1147-39.722 40.3784-53.1047 38.4226-55.5901C37.5183-56.7395 35.022-58.3782 32.0676-56.5505C30.1392-55.3576 29.686-52.0912 31.4138-49.6896C34.5034-45.3954 45.074-30.7725 46.6833-28.627C47.5549-27.4648 45.2087-26.3318 44.7522-26.9106C42.7495-29.4495 35.5757-39.3385 33.6665-41.6079C32.2803-43.2556 30.1799-45.3419 27.802-43.8608C25.6816-42.5402 25.9946-38.2799 28.3384-34.4202C30.6821-30.5603 43.032-1.62195 64.2485-1.62195Z"/>
  </g>
  <g id="Regular-S" transform="matrix(1 0 0 1 1401.45 696)">
   <path class="SFSymbolsPreviewWireframe" d="M56.7285-79.4097C57.2094-80.131 58.1331-80.4866 59.3242-80.0285C60.665-79.5128 62.7794-78.5502 67.0597-74.9918C69.9801-72.564 72.0704-69.2827 72.3715-67.9783C72.5778-67.0844 72.1479-66.0186 70.9275-66.0186C70.0974-66.0186 69.2941-66.9819 68.8131-67.7032C68.3323-68.4246 66.515-70.8599 64.1477-72.8068C61.5348-74.9556 58.38-76.6955 57.5021-77.1062C56.4363-77.6047 56.3694-78.871 56.7285-79.4097ZM44.8831-21.2403C44.1486-21.701 43.7675-22.6144 44.1924-23.8179C44.6707-25.1725 46.1243-27.3799 49.6512-31.6862C52.1495-34.7364 54.8129-36.5988 56.1085-36.9359C56.9963-37.1668 58.1763-36.6652 58.2101-35.4451C58.2332-34.6153 57.4525-34.1254 56.6217-33.4167C55.962-32.8541 53.8833-31.1696 52.0028-28.7491C49.9274-26.0776 47.9706-23.1283 47.3352-22.273C46.6335-21.3285 45.4314-20.8962 44.8831-21.2403ZM67.995-19.3874C67.1959-19.0511 66.0444-19.3807 65.3705-20.4645C64.6169-21.6766 63.8065-23.3238 62.78-27.7471C61.9216-31.4465 61.676-34.7043 62.1447-35.9583C62.4658-36.8176 63.4358-37.5055 64.5151-36.9359C65.3949-36.4715 65.4163-35.0657 65.4194-34.1988C65.4225-33.3318 65.5454-31.0191 66.4458-28.0892C67.4395-24.8555 68.1809-22.6151 68.5719-21.7109C69.0389-20.6309 68.5918-19.6385 67.995-19.3874ZM31.006 6.97424C30.4333 7.62506 29.4705 7.85449 28.3511 7.2417C27.0908 6.55188 20.6781 2.32294 16.9705-1.82874C12.207-7.16266 10.2098-12.4992 10.0853-13.8322C10-14.7455 10.4807-15.6652 11.7412-15.6427C12.5712-15.6279 12.9843-15.0881 13.4816-13.9214C13.8214-13.1239 16.478-7.57477 19.9833-3.87323C24.4668 0.861328 29.731 4.06427 30.5464 4.58826C31.5363 5.22437 31.4337 6.48822 31.006 6.97424ZM74.4009-60.1324C86.7892-60.1324 86.7892-43.7593 86.7892-35.8909C86.7892-6.73425 65.7769 2.24115 53.161 2.24115C31.6859 2.24115 19.2355-21.5953 15.2166-29.4655C12.0443-35.6777 10.7018-38.4047 11.9369-43.4968C12.4788-45.7307 13.7634-47.5976 15.4871-48.8932C14.5032-53.2537 15.9863-57.9072 19.6401-60.6138C20.3293-61.1243 21.0686-61.5477 21.8462-61.8801C21.8347-62.7532 21.9873-68.8211 27.693-71.7999C33.8141-74.9954 37.8632-72.4584 39.8203-70.9596C41.4935-72.0401 43.4163-72.6102 45.3926-72.61C50.1906-72.6093 53.6079-69.402 55.0669-68.0326C58.8058-64.5239 62.1342-59.5144 64.9264-55.0759C66.8323-57.8387 69.7653-60.1324 74.4009-60.1324ZM53.161-4.91882C62.448-4.91882 79.6293-11.3636 79.6293-35.8909C79.6293-52.6362 76.15-52.9724 74.4009-52.9724C68.2058-52.9724 69.0389-41.3688 66.3473-41.3688C63.6556-41.3688 57.2733-56.1428 50.1672-62.8116C49.2061-63.7137 46.4294-66.6033 43.6569-64.9133C42.3053-64.0895 42.4657-61.7693 43.5006-60.1486C43.9575-59.4332 52.4335-44.8715 53.0935-43.8426C54.0653-42.328 52.4084-41.5139 51.5099-42.7043C50.5502-43.9756 37.8513-62.4321 36.7689-63.9048C35.4114-65.7517 33.4419-66.9404 30.9067-65.3819C28.4412-63.8662 28.6768-61.0033 29.9142-59.1505C31.1517-57.2977 42.8553-39.7041 43.6975-38.5151C44.6765-37.1328 43.0975-35.9613 42.0551-37.3059C40.3088-39.5583 31.4803-51.7449 29.6798-53.9868C28.3676-55.6208 25.7949-56.224 23.9017-54.8602C22.2289-53.6552 21.7363-50.8056 23.3073-48.6222C26.1165-44.7178 35.7434-31.4347 37.1904-29.472C38.3267-27.9307 36.8326-26.0632 35.4347-27.9113C33.661-30.2562 27.0913-39.2109 25.3556-41.2742C24.0952-42.7723 22.1223-44.6382 20.0233-43.3226C18.0992-42.1165 18.3802-38.2484 20.5111-34.7391C22.6421-31.2298 33.8706-4.91882 53.161-4.91882Z"/>
  </g>
  <g id="Ultralight-S" transform="matrix(1 0 0 1 515.339 696)">
   <path class="SFSymbolsPreviewWireframe" d="M54.6646-77.9384C55.1241-78.6279 56.007-78.9678 57.1456-78.5299C58.4272-78.037 60.4482-77.1169 64.5394-73.7157C67.3308-71.3951 69.3289-68.2587 69.6166-67.0119C69.8137-66.1575 69.403-65.1388 68.2364-65.1388C67.4429-65.1388 66.675-66.0595 66.2154-66.749C65.7557-67.4385 64.0188-69.7663 61.756-71.6272C59.2585-73.681 56.2431-75.3441 55.4039-75.7367C54.3852-76.2131 54.3213-77.4235 54.6646-77.9384ZM43.3422-22.3383C42.6403-22.7787 42.276-23.6517 42.6821-24.802C43.1393-26.0968 44.5287-28.2067 47.8999-32.3228C50.2878-35.2383 52.8335-37.0184 54.0719-37.3406C54.9205-37.5614 56.0484-37.0818 56.0807-35.9157C56.1028-35.1226 55.3566-34.6544 54.5624-33.9769C53.9319-33.4392 51.945-31.829 50.1476-29.5154C48.1639-26.9619 46.2935-24.1429 45.6862-23.3254C45.0155-22.4226 43.8665-22.0095 43.3422-22.3383ZM65.4335-20.5673C64.6697-20.2458 63.569-20.5609 62.9248-21.5969C62.2045-22.7553 61.4299-24.3298 60.4488-28.5577C59.6283-32.0938 59.3936-35.2076 59.8415-36.4063C60.1484-37.2276 61.0756-37.8851 62.1073-37.3406C62.9482-36.8968 62.9686-35.553 62.9716-34.7244C62.9745-33.8958 63.0921-31.6852 63.9526-28.8848C64.9024-25.7939 65.6111-23.6524 65.9848-22.7881C66.4312-21.7559 66.0038-20.8073 65.4335-20.5673ZM30.0782 4.63C29.5308 5.25208 28.6105 5.47137 27.5405 4.88562C26.336 4.22632 20.2064 0.184143 16.6625-3.78418C12.1095-8.88251 10.2006-13.9833 10.0815-15.2574C10-16.1304 10.4595-17.0095 11.6642-16.9879C12.4576-16.9738 12.8525-16.4578 13.3278-15.3427C13.6526-14.5804 16.1919-9.27637 19.5424-5.73828C23.8278-1.21289 28.8594 1.84857 29.6389 2.34943C30.585 2.9574 30.4871 4.16547 30.0782 4.63ZM71.5563-54.8588C76.6615-54.8588 78.7437-49.4941 78.7437-36.3418C78.7437-11.1927 60.7626-4.54779 51.2546-4.54779C33.5548-4.54779 22.7986-25.5891 19.0801-32.3858C16.6187-36.8846 14.1611-42.5654 18.5086-45.3549C19.8647-46.225 21.3206-46.0212 21.8675-45.9467C18.574-49.7383 19.2714-54.3391 21.9842-56.233C24.5595-58.0311 26.9997-57.2285 27.3781-57.111C24.146-62.4039 27.3578-65.6085 28.8425-66.3998C32.0541-68.1113 35.5608-68.0388 39.0541-61.9753C39.3335-66.2491 42.5258-66.7853 43.8286-66.7853C49.9717-66.7853 57.0008-54.7134 59.7533-50.2939C60.9241-48.4142 62.4095-46.0291 63.4573-44.6662C64.9182-49.7577 66.3265-54.8588 71.5563-54.8588ZM51.2546-6.73779C60.1314-6.73779 76.5537-12.8979 76.5537-36.3418C76.5537-52.3476 73.2282-52.6688 71.5563-52.6688C65.6349-52.6688 66.4313-41.5777 63.8585-41.5777C61.2856-41.5777 55.1853-55.6992 48.3931-62.0735C47.4742-62.9358 44.5999-65.6714 42.1703-64.0824C40.9042-63.2543 41.0317-61.0773 42.021-59.5281C42.4576-58.8442 50.5386-44.9122 51.1902-43.9423C52.0788-42.6193 50.5862-41.652 49.6764-42.8543C48.3715-44.5789 36.6116-61.7038 35.5865-63.1183C34.8197-64.1766 32.774-66.3409 29.9832-64.5303C27.6624-63.0247 27.8517-60.345 29.0346-58.5741C30.2175-56.803 41.4078-39.9893 42.209-38.8502C43.0224-37.6938 41.7778-36.2374 40.6392-37.6944C38.9617-39.8408 30.5101-51.4786 28.8105-53.6385C28.0246-54.6375 25.7678-56.077 23.2877-54.4733C21.6328-53.4033 21.2179-50.5978 22.7195-48.5109C25.4045-44.7789 34.6028-32.0799 35.9894-30.2064C37.1702-28.611 35.6078-27.0751 34.3112-28.7147C32.568-30.9189 26.3365-39.5152 24.6773-41.4873C23.4727-42.9193 21.7068-44.6082 19.5807-43.4453C17.6762-42.4036 18.01-38.5952 20.0468-35.2409C22.0836-31.8865 32.8163-6.73779 51.2546-6.73779Z"/>
  </g>
 </g>
</svg>
