<?xml version="1.0" encoding="UTF-8"?>
<!--Generator: Apple Native CoreSVG 341-->
<!DOCTYPE svg
PUBLIC "-//W3C//DTD SVG 1.1//EN"
       "http://www.w3.org/Graphics/SVG/1.1/DTD/svg11.dtd">
<svg version="1.1" xmlns="http://www.w3.org/2000/svg" xmlns:xlink="http://www.w3.org/1999/xlink" viewBox="0 0 3300 2200">
 <!--glyph: "", point size: 100.0, font version: "20.0d10e1", template writer version: "138.0.0"-->
 <style>.SFSymbolsPreviewWireframe {fill:none;opacity:1.0;stroke:black;stroke-width:0.5}
</style>
 <g id="Notes">
  <rect height="2200" id="artboard" style="fill:white;opacity:1" width="3300" x="0" y="0"/>
  <line style="fill:none;stroke:black;opacity:1;stroke-width:0.5;" x1="263" x2="3036" y1="292" y2="292"/>
  <text style="stroke:none;fill:black;font-family:sans-serif;font-size:13;font-weight:bold;" transform="matrix(1 0 0 1 263 322)">Weight/Scale Variations</text>
  <text style="stroke:none;fill:black;font-family:sans-serif;font-size:13;text-anchor:middle;" transform="matrix(1 0 0 1 559.711 322)">Ultralight</text>
  <text style="stroke:none;fill:black;font-family:sans-serif;font-size:13;text-anchor:middle;" transform="matrix(1 0 0 1 856.422 322)">Thin</text>
  <text style="stroke:none;fill:black;font-family:sans-serif;font-size:13;text-anchor:middle;" transform="matrix(1 0 0 1 1153.13 322)">Light</text>
  <text style="stroke:none;fill:black;font-family:sans-serif;font-size:13;text-anchor:middle;" transform="matrix(1 0 0 1 1449.84 322)">Regular</text>
  <text style="stroke:none;fill:black;font-family:sans-serif;font-size:13;text-anchor:middle;" transform="matrix(1 0 0 1 1746.56 322)">Medium</text>
  <text style="stroke:none;fill:black;font-family:sans-serif;font-size:13;text-anchor:middle;" transform="matrix(1 0 0 1 2043.27 322)">Semibold</text>
  <text style="stroke:none;fill:black;font-family:sans-serif;font-size:13;text-anchor:middle;" transform="matrix(1 0 0 1 2339.98 322)">Bold</text>
  <text style="stroke:none;fill:black;font-family:sans-serif;font-size:13;text-anchor:middle;" transform="matrix(1 0 0 1 2636.69 322)">Heavy</text>
  <text style="stroke:none;fill:black;font-family:sans-serif;font-size:13;text-anchor:middle;" transform="matrix(1 0 0 1 2933.4 322)">Black</text>
  <line style="fill:none;stroke:black;opacity:1;stroke-width:0.5;" x1="263" x2="3036" y1="1903" y2="1903"/>
  <g transform="matrix(0.2 0 0 0.2 263 1933)">
   <path d="m46.2402 4.15039c21.7773 0 39.4531-17.627 39.4531-39.4043s-17.6758-39.4043-39.4531-39.4043c-21.7285 0-39.4043 17.627-39.4043 39.4043s17.6758 39.4043 39.4043 39.4043Zm0-7.42188c-17.6758 0-31.9336-14.3066-31.9336-31.9824s14.2578-31.9824 31.9336-31.9824 31.9824 14.3066 31.9824 31.9824-14.3066 31.9824-31.9824 31.9824Zm-17.9688-31.9824c0 2.14844 1.51367 3.61328 3.75977 3.61328h10.498v10.5957c0 2.19727 1.46484 3.71094 3.61328 3.71094 2.24609 0 3.71094-1.51367 3.71094-3.71094v-10.5957h10.5957c2.19727 0 3.71094-1.46484 3.71094-3.61328 0-2.19727-1.51367-3.71094-3.71094-3.71094h-10.5957v-10.5469c0-2.24609-1.46484-3.75977-3.71094-3.75977-2.14844 0-3.61328 1.51367-3.61328 3.75977v10.5469h-10.498c-2.24609 0-3.75977 1.51367-3.75977 3.71094Z"/>
  </g>
  <g transform="matrix(0.2 0 0 0.2 281.506 1933)">
   <path d="m58.5449 14.5508c27.4902 0 49.8047-22.3145 49.8047-49.8047s-22.3145-49.8047-49.8047-49.8047-49.8047 22.3145-49.8047 49.8047 22.3145 49.8047 49.8047 49.8047Zm0-8.30078c-22.9492 0-41.5039-18.5547-41.5039-41.5039s18.5547-41.5039 41.5039-41.5039 41.5039 18.5547 41.5039 41.5039-18.5547 41.5039-41.5039 41.5039Zm-22.6562-41.5039c0 2.39258 1.66016 4.00391 4.15039 4.00391h14.3555v14.4043c0 2.44141 1.66016 4.15039 4.05273 4.15039 2.44141 0 4.15039-1.66016 4.15039-4.15039v-14.4043h14.4043c2.44141 0 4.15039-1.61133 4.15039-4.00391 0-2.44141-1.70898-4.15039-4.15039-4.15039h-14.4043v-14.3555c0-2.49023-1.70898-4.19922-4.15039-4.19922-2.39258 0-4.05273 1.70898-4.05273 4.19922v14.3555h-14.3555c-2.49023 0-4.15039 1.70898-4.15039 4.15039Z"/>
  </g>
  <g transform="matrix(0.2 0 0 0.2 304.924 1933)">
   <path d="m74.8535 28.3203c35.1074 0 63.623-28.4668 63.623-63.5742s-28.5156-63.623-63.623-63.623-63.5742 28.5156-63.5742 63.623 28.4668 63.5742 63.5742 63.5742Zm0-9.08203c-30.127 0-54.4922-24.3652-54.4922-54.4922s24.3652-54.4922 54.4922-54.4922 54.4922 24.3652 54.4922 54.4922-24.3652 54.4922-54.4922 54.4922Zm-28.8574-54.4922c0 2.58789 1.85547 4.39453 4.58984 4.39453h19.7266v19.7754c0 2.68555 1.85547 4.58984 4.44336 4.58984 2.68555 0 4.54102-1.85547 4.54102-4.58984v-19.7754h19.7754c2.68555 0 4.58984-1.80664 4.58984-4.39453 0-2.73438-1.85547-4.58984-4.58984-4.58984h-19.7754v-19.7266c0-2.73438-1.85547-4.63867-4.54102-4.63867-2.58789 0-4.44336 1.9043-4.44336 4.63867v19.7266h-19.7266c-2.73438 0-4.58984 1.85547-4.58984 4.58984Z"/>
  </g>
  <text style="stroke:none;fill:black;font-family:sans-serif;font-size:13;font-weight:bold;" transform="matrix(1 0 0 1 263 1953)">Design Variations</text>
  <text style="stroke:none;fill:black;font-family:sans-serif;font-size:13;" transform="matrix(1 0 0 1 263 1971)">Symbols are supported in up to nine weights and three scales.</text>
  <text style="stroke:none;fill:black;font-family:sans-serif;font-size:13;" transform="matrix(1 0 0 1 263 1989)">For optimal layout with text and other symbols, vertically align</text>
  <text style="stroke:none;fill:black;font-family:sans-serif;font-size:13;" transform="matrix(1 0 0 1 263 2007)">symbols with the adjacent text.</text>
  <line style="fill:none;stroke:#00AEEF;stroke-width:0.5;opacity:1.0;" x1="776" x2="776" y1="1919" y2="1933"/>
  <g transform="matrix(0.2 0 0 0.2 776 1933)">
   <path d="m16.5527 0.78125c2.58789 0 3.85742-0.976562 4.78516-3.71094l6.29883-17.2363h28.8086l6.29883 17.2363c0.927734 2.73438 2.19727 3.71094 4.73633 3.71094 2.58789 0 4.24805-1.5625 4.24805-4.00391 0-0.830078-0.146484-1.61133-0.537109-2.63672l-22.9004-60.9863c-1.12305-2.97852-3.125-4.49219-6.25-4.49219-3.02734 0-5.07812 1.46484-6.15234 4.44336l-22.9004 61.084c-0.390625 1.02539-0.537109 1.80664-0.537109 2.63672 0 2.44141 1.5625 3.95508 4.10156 3.95508Zm13.4766-28.3691 11.8652-32.8613h0.244141l11.8652 32.8613Z"/>
  </g>
  <line style="fill:none;stroke:#00AEEF;stroke-width:0.5;opacity:1.0;" x1="792.836" x2="792.836" y1="1919" y2="1933"/>
  <text style="stroke:none;fill:black;font-family:sans-serif;font-size:13;font-weight:bold;" transform="matrix(1 0 0 1 776 1953)">Margins</text>
  <text style="stroke:none;fill:black;font-family:sans-serif;font-size:13;" transform="matrix(1 0 0 1 776 1971)">Leading and trailing margins on the left and right side of each symbol</text>
  <text style="stroke:none;fill:black;font-family:sans-serif;font-size:13;" transform="matrix(1 0 0 1 776 1989)">can be adjusted by modifying the x-location of the margin guidelines.</text>
  <text style="stroke:none;fill:black;font-family:sans-serif;font-size:13;" transform="matrix(1 0 0 1 776 2007)">Modifications are automatically applied proportionally to all</text>
  <text style="stroke:none;fill:black;font-family:sans-serif;font-size:13;" transform="matrix(1 0 0 1 776 2025)">scales and weights.</text>
  <g transform="matrix(0.2 0 0 0.2 1289 1933)">
   <path d="m14.209 9.32617 8.49609 8.54492c4.29688 4.3457 9.22852 4.05273 13.8672-1.07422l53.4668-58.9355-4.83398-4.88281-53.0762 58.3984c-1.75781 2.00195-3.41797 2.49023-5.76172 0.146484l-5.85938-5.81055c-2.34375-2.29492-1.80664-4.00391 0.195312-5.81055l57.373-54.0039-4.88281-4.83398-57.959 54.4434c-4.93164 4.58984-5.32227 9.47266-1.02539 13.8184Zm32.0801-90.9668c-2.09961 2.05078-2.24609 4.93164-1.07422 6.88477 1.17188 1.80664 3.4668 2.97852 6.68945 2.14844 7.32422-1.70898 14.9414-2.00195 22.0703 2.68555l-2.92969 7.27539c-1.70898 4.15039-0.830078 7.08008 1.85547 9.81445l11.4746 11.5723c2.44141 2.44141 4.49219 2.53906 7.32422 2.05078l5.32227-0.976562 3.32031 3.36914-0.195312 2.7832c-0.195312 2.49023 0.439453 4.39453 2.88086 6.78711l3.80859 3.71094c2.39258 2.39258 5.46875 2.53906 7.8125 0.195312l14.5508-14.5996c2.34375-2.34375 2.24609-5.32227-0.146484-7.71484l-3.85742-3.80859c-2.39258-2.39258-4.24805-3.17383-6.64062-2.97852l-2.88086 0.244141-3.22266-3.17383 1.2207-5.61523c0.634766-2.83203-0.146484-5.0293-3.07617-7.95898l-10.9863-10.9375c-16.6992-16.6016-38.8672-16.2109-53.3203-1.75781Zm7.4707 1.85547c12.1582-8.88672 28.6133-7.37305 39.7461 3.75977l12.1582 12.0605c1.17188 1.17188 1.36719 2.09961 1.02539 3.80859l-1.61133 7.42188 7.51953 7.42188 4.93164-0.292969c1.26953-0.0488281 1.66016 0.0488281 2.63672 1.02539l2.88086 2.88086-12.207 12.207-2.88086-2.88086c-0.976562-0.976562-1.12305-1.36719-1.07422-2.68555l0.341797-4.88281-7.4707-7.42188-7.61719 1.26953c-1.61133 0.341797-2.34375 0.195312-3.56445-0.976562l-10.0098-10.0098c-1.26953-1.17188-1.41602-2.00195-0.634766-3.85742l4.39453-10.4492c-7.8125-7.27539-17.9688-10.4004-28.125-7.42188-0.78125 0.195312-1.07422-0.439453-0.439453-0.976562Z"/>
  </g>
  <text style="stroke:none;fill:black;font-family:sans-serif;font-size:13;font-weight:bold;" transform="matrix(1 0 0 1 1289 1953)">Exporting</text>
  <text style="stroke:none;fill:black;font-family:sans-serif;font-size:13;" transform="matrix(1 0 0 1 1289 1971)">Symbols should be outlined when exporting to ensure the</text>
  <text style="stroke:none;fill:black;font-family:sans-serif;font-size:13;" transform="matrix(1 0 0 1 1289 1989)">design is preserved when submitting to Xcode.</text>
  <text id="template-version" style="stroke:none;fill:black;font-family:sans-serif;font-size:13;text-anchor:end;" transform="matrix(1 0 0 1 3036 1933)">Template v.6.0</text>
  <text style="stroke:none;fill:black;font-family:sans-serif;font-size:13;text-anchor:end;" transform="matrix(1 0 0 1 3036 1951)">Requires Xcode 16 or greater</text>
  <text id="descriptive-name" style="stroke:none;fill:black;font-family:sans-serif;font-size:13;text-anchor:end;" transform="matrix(1 0 0 1 3036 1969)">Generated from qq</text>
  <text style="stroke:none;fill:black;font-family:sans-serif;font-size:13;text-anchor:end;" transform="matrix(1 0 0 1 3036 1987)">Typeset at 100.0 points</text>
  <text style="stroke:none;fill:black;font-family:sans-serif;font-size:13;" transform="matrix(1 0 0 1 263 726)">Small</text>
  <text style="stroke:none;fill:black;font-family:sans-serif;font-size:13;" transform="matrix(1 0 0 1 263 1156)">Medium</text>
  <text style="stroke:none;fill:black;font-family:sans-serif;font-size:13;" transform="matrix(1 0 0 1 263 1586)">Large</text>
 </g>
 <g id="Guides">
  <g id="H-reference" style="fill:#27AAE1;stroke:none;" transform="matrix(1 0 0 1 339 696)">
   <path d="M0.993654 0L3.63775 0L29.3281-67.1323L30.0303-67.1323L30.0303-70.459L28.1226-70.459ZM11.6885-24.4799L46.9815-24.4799L46.2315-26.7285L12.4385-26.7285ZM55.1196 0L57.7637 0L30.6382-70.459L29.4326-70.459L29.4326-67.1323Z"/>
  </g>
  <line id="Baseline-S" style="fill:none;stroke:#27AAE1;opacity:1;stroke-width:0.5;" x1="263" x2="3036" y1="696" y2="696"/>
  <line id="Capline-S" style="fill:none;stroke:#27AAE1;opacity:1;stroke-width:0.5;" x1="263" x2="3036" y1="625.541" y2="625.541"/>
  <g id="H-reference" style="fill:#27AAE1;stroke:none;" transform="matrix(1 0 0 1 339 1126)">
   <path d="M0.993654 0L3.63775 0L29.3281-67.1323L30.0303-67.1323L30.0303-70.459L28.1226-70.459ZM11.6885-24.4799L46.9815-24.4799L46.2315-26.7285L12.4385-26.7285ZM55.1196 0L57.7637 0L30.6382-70.459L29.4326-70.459L29.4326-67.1323Z"/>
  </g>
  <line id="Baseline-M" style="fill:none;stroke:#27AAE1;opacity:1;stroke-width:0.5;" x1="263" x2="3036" y1="1126" y2="1126"/>
  <line id="Capline-M" style="fill:none;stroke:#27AAE1;opacity:1;stroke-width:0.5;" x1="263" x2="3036" y1="1055.54" y2="1055.54"/>
  <g id="H-reference" style="fill:#27AAE1;stroke:none;" transform="matrix(1 0 0 1 339 1556)">
   <path d="M0.993654 0L3.63775 0L29.3281-67.1323L30.0303-67.1323L30.0303-70.459L28.1226-70.459ZM11.6885-24.4799L46.9815-24.4799L46.2315-26.7285L12.4385-26.7285ZM55.1196 0L57.7637 0L30.6382-70.459L29.4326-70.459L29.4326-67.1323Z"/>
  </g>
  <line id="Baseline-L" style="fill:none;stroke:#27AAE1;opacity:1;stroke-width:0.5;" x1="263" x2="3036" y1="1556" y2="1556"/>
  <line id="Capline-L" style="fill:none;stroke:#27AAE1;opacity:1;stroke-width:0.5;" x1="263" x2="3036" y1="1485.54" y2="1485.54"/>
  <line id="right-margin-Black-S" style="fill:none;stroke:#00AEEF;stroke-width:0.5;opacity:1.0;" x1="2978.33" x2="2978.33" y1="600.785" y2="720.121"/>
  <line id="left-margin-Black-S" style="fill:none;stroke:#00AEEF;stroke-width:0.5;opacity:1.0;" x1="2888.47" x2="2888.47" y1="600.785" y2="720.121"/>
  <line id="right-margin-Regular-S" style="fill:none;stroke:#00AEEF;stroke-width:0.5;opacity:1.0;" x1="1492.47" x2="1492.47" y1="600.785" y2="720.121"/>
  <line id="left-margin-Regular-S" style="fill:none;stroke:#00AEEF;stroke-width:0.5;opacity:1.0;" x1="1407.22" x2="1407.22" y1="600.785" y2="720.121"/>
  <line id="right-margin-Ultralight-S" style="fill:none;stroke:#00AEEF;stroke-width:0.5;opacity:1.0;" x1="600.122" x2="600.122" y1="600.785" y2="720.121"/>
  <line id="left-margin-Ultralight-S" style="fill:none;stroke:#00AEEF;stroke-width:0.5;opacity:1.0;" x1="519.301" x2="519.301" y1="600.785" y2="720.121"/>
 </g>
 <g id="Symbols">
  <g id="Black-S" transform="matrix(1 0 0 1 2888.47 696)">
   <path class="SFSymbolsPreviewWireframe" d="M44.9341 4.12018L44.9341 4.40771C39.5691 5.01215 20.9861 5.71375 19.8357 3.77246C19.5737 3.33069 19.3923 2.23676 20.8464 1.16357C22.5449-0.0915528 25.2371-1.10303 27.3418-1.73212C31.4856 1.77338 37.9224 4.12018 44.9341 4.12018ZM44.9341 4.12018C51.9465 4.12018 58.3826 1.77338 62.5271-1.73212C64.6311-1.10303 67.3232-0.0915527 69.0225 1.16357C70.4756 2.23676 70.2944 3.33069 70.0325 3.77246C68.8821 5.71375 50.2991 5.01215 44.9341 4.40771L44.9341 4.12018ZM41.5388-58.7532C41.6499-57.3601 40.8857-56.1227 39.8342-55.9879C38.781-55.8521 37.8381-56.8713 37.7263-58.2652C37.6162-59.6591 38.3794-60.8965 39.4287-61.0306C40.4841-61.1671 41.4285-60.1464 41.5388-58.7532M48.2275-58.2876C48.4426-58.673 49.9082-60.6999 52.9419-59.9621C53.739-59.7678 54.1077-59.4825 54.1855-59.3708C54.3003-59.205 54.332-58.9691 54.2156-58.6515C53.9851-58.0216 53.5085-58.0386 53.2449-58.1619C53.0745-58.2413 50.9614-59.6498 49.0146-57.5482C48.8806-57.4041 48.6409-57.3547 48.4141-57.5259C48.1868-57.6978 48.0935-58.0455 48.2275-58.2876M76.4414-25.0264C79.8643-14.0111 78.7551-9.45245 77.9109-9.34991C76.0991-9.13098 70.8582-17.6423 70.8582-17.6423C70.8582-8.99377 63.0498 4.28589 45.1692 4.40765C45.0898 4.40686 44.7744 4.40686 44.6951 4.40765C26.8145 4.28589 19.0061-8.99377 19.0061-17.6423C19.0061-17.6423 13.7651-9.13098 11.9534-9.34991C11.1091-9.45245 10-14.0111 13.4229-25.0264C14.1409-27.3362 15.1206-30.03 16.1128-32.6172L16.1128-32.6172L16.1128-32.6172C20.1387-31.4034 24.593-30.3972 29.0447-29.6452L29.0447-17.8712C29.0447-17.8712 34.604-16.7503 40.1741-17.5266L40.1741-28.3606C41.8057-28.2688 43.3999-28.2101 44.8894-28.2282L44.9749-28.2282C53.4646-28.1257 64.6912-29.8857 73.7515-32.6172L73.7515-32.6172L73.7515-32.6172C74.7437-30.03 75.7234-27.3362 76.4414-25.0264ZM44.8894-38.1464C30.572-38.2429 19.7717-41.6459 19.7346-41.6573C19.7317-41.763 19.687-43.5424 19.687-44.4606C19.687-59.9197 26.9849-75.4544 44.9316-75.4551C62.8794-75.4544 70.1772-59.9197 70.1772-44.4606C70.1772-43.5424 70.1326-41.763 70.1296-41.6573C70.1296-41.6573 59.3157-38.2437 44.9749-38.1464L44.8894-38.1464ZM51.7964-65.3919C49.364-65.5006 47.2847-62.7283 47.1531-59.2012C47.0195-55.6733 48.8853-52.7252 51.3184-52.6157C53.7529-52.5054 55.833-55.2794 55.9634-58.8049C56.0959-62.3328 54.231-65.2817 51.7964-65.3919ZM38.0679-65.3919C35.6333-65.2817 33.7683-62.3328 33.9001-58.8049C34.0312-55.2794 36.1113-52.5054 38.5459-52.6157C40.979-52.7244 42.8447-55.6733 42.7114-59.2012C42.5796-62.7283 40.5002-65.5006 38.0679-65.3919ZM29.5735-47.6362C29.5442-47.5737 29.5259-47.5043 29.5259-47.4311C29.5259-47.327 29.5613-47.2336 29.6152-47.1535C30.1641-46.3549 37.4395-42.4053 44.8887-42.4053L44.9756-42.4053C52.4248-42.4053 59.7002-46.3541 60.248-47.1535C60.303-47.233 60.3376-47.3277 60.3376-47.4318C60.3376-47.5051 60.3201-47.5737 60.2908-47.6362C59.6399-49.0771 53.0879-50.6829 44.9756-50.6829L44.8887-50.6829C36.7764-50.6829 30.2244-49.0771 29.5735-47.6362Z"/>
  </g>
  <g id="Regular-S" transform="matrix(1 0 0 1 1407.22 696)">
   <path class="SFSymbolsPreviewWireframe" d="M42.6254 1.47247L42.6254 1.74103C37.6149 2.30554 20.26 2.96075 19.1858 1.14777C18.9409 0.73523 18.7717-0.286499 20.1296-1.2887C21.7158-2.46088 24.2301-3.40552 26.1957-3.99304C30.0657-0.719177 36.077 1.47247 42.6254 1.47247ZM42.6254 1.47247C49.1746 1.47247 55.1851-0.719177 59.0558-3.99304C61.0208-3.40552 63.5349-2.46088 65.1218-1.2887C66.479-0.286499 66.3098 0.73523 66.0651 1.14777C64.9908 2.96075 47.6359 2.30554 42.6254 1.74103L42.6254 1.47247ZM39.4545-57.2458C39.5582-55.9448 38.8446-54.7891 37.8625-54.6631C36.879-54.5364 35.9985-55.4883 35.894-56.79C35.7911-58.0918 36.5039-59.2474 37.4839-59.3727C38.4695-59.5001 39.3516-58.5468 39.4545-57.2458M45.7012-56.8109C45.9021-57.1709 47.2709-59.0638 50.104-58.3748C50.8485-58.1933 51.1926-57.9269 51.2654-57.8225C51.3727-57.6677 51.4022-57.4474 51.2935-57.1508C51.0782-56.5625 50.6332-56.5784 50.387-56.6935C50.2279-56.7677 48.2544-58.0831 46.4364-56.1204C46.311-55.9858 46.0872-55.9397 45.8755-56.0995C45.6631-56.2601 45.5759-56.5848 45.7012-56.8109M72.0504-25.7479C75.2472-15.4606 74.2112-11.2032 73.4229-11.1074C71.7307-10.903 66.8362-18.8517 66.8362-18.8517C66.8362-10.7748 59.5441 1.62726 42.845 1.74103C42.7709 1.74023 42.4763 1.74023 42.4022 1.74103C25.7031 1.62726 18.4109-10.7748 18.4109-18.8517C18.4109-18.8517 13.5164-10.903 11.8243-11.1074C11.0359-11.2032 10-15.4606 13.1968-25.7479C13.8671-27.905 14.7822-30.4208 15.7089-32.837L15.7089-32.837L15.7089-32.837C19.4688-31.7034 23.6287-30.7637 27.7861-30.0614L27.7861-19.0656C27.7861-19.0656 32.978-18.0187 38.1801-18.7437L38.1801-28.8617C39.7037-28.7759 41.1926-28.7213 42.5836-28.738L42.6636-28.738C50.592-28.6423 61.0768-30.2861 69.5382-32.837L69.5382-32.837L69.5382-32.837C70.465-30.4208 71.38-27.905 72.0504-25.7479ZM42.5836-38.0009C29.2125-38.0909 19.1259-41.269 19.0914-41.2797C19.0885-41.3784 19.0468-43.0402 19.0468-43.8976C19.0468-58.3352 25.8624-72.8433 42.6232-72.8439C59.3848-72.8433 66.2003-58.3352 66.2003-43.8976C66.2003-43.0402 66.1586-41.3784 66.1558-41.2797C66.1558-41.2797 56.0564-38.0916 42.6636-38.0009L42.5836-38.0009ZM49.0341-63.4457C46.7626-63.5472 44.8207-60.9581 44.6976-57.6642C44.5731-54.3694 46.3154-51.6161 48.5876-51.5139C50.8615-51.4109 52.804-54.0015 52.9257-57.294C53.0496-60.5887 51.3079-63.3428 49.0341-63.4457ZM36.213-63.4457C33.9393-63.3428 32.1976-60.5887 32.3206-57.294C32.4431-54.0015 34.3857-51.4109 36.6594-51.5139C38.9318-51.6154 40.6741-54.3694 40.5496-57.6642C40.4265-60.9581 38.4846-63.5472 36.213-63.4457ZM28.28-46.8635C28.2527-46.8051 28.2354-46.7403 28.2354-46.6719C28.2354-46.5747 28.2687-46.4875 28.3188-46.4127C28.8315-45.6668 35.6261-41.9782 42.5829-41.9782L42.6642-41.9782C49.621-41.9782 56.4156-45.666 56.9274-46.4127C56.9785-46.4868 57.0109-46.5753 57.0109-46.6725C57.0109-46.741 56.9945-46.8051 56.9672-46.8635C56.3593-48.2091 50.2402-49.7088 42.6642-49.7088L42.5829-49.7088C35.007-49.7088 28.8878-48.2091 28.28-46.8635Z"/>
  </g>
  <g id="Ultralight-S" transform="matrix(1 0 0 1 519.301 696)">
   <path class="SFSymbolsPreviewWireframe" d="M40.4122-1.01892L40.4122-0.768555C35.7416-0.242371 19.564 0.368347 18.5626-1.32159C18.3344-1.70618 18.1767-2.65857 19.4425-3.59283C20.9211-4.68542 23.2648-5.56604 25.097-6.11371C28.7045-3.06195 34.308-1.01892 40.4122-1.01892ZM40.4122-1.01892C46.517-1.01892 52.1199-3.06195 55.728-6.11371C57.5596-5.56604 59.9033-4.68542 61.3825-3.59283C62.6476-2.65857 62.4899-1.70618 62.2618-1.32159C61.2604 0.368347 45.0828-0.242371 40.4122-0.768555L40.4122-1.01892ZM37.4564-55.7539C37.553-54.5411 36.8879-53.4639 35.9725-53.3464C35.0557-53.2283 34.2349-54.1156 34.1375-55.329C34.0416-56.5425 34.706-57.6198 35.6194-57.7365C36.5383-57.8553 37.3604-56.9667 37.4564-55.7539M43.2794-55.3485C43.4666-55.6841 44.7425-57.4486 47.3835-56.8063C48.0775-56.6371 48.3983-56.3889 48.4661-56.2915C48.5661-56.1472 48.5936-55.9418 48.4922-55.6653C48.2916-55.117 47.8768-55.1318 47.6473-55.2391C47.499-55.3083 45.6593-56.5345 43.9646-54.7049C43.8478-54.5794 43.6391-54.5364 43.4418-54.6854C43.2438-54.8351 43.1626-55.1378 43.2794-55.3485M67.8411-26.3928C70.821-16.8033 69.8553-12.8347 69.1204-12.7454C67.5432-12.5548 62.9807-19.9644 62.9807-19.9644C62.9807-12.4354 56.1831-0.874634 40.6168-0.768616C40.5478-0.769348 40.2733-0.769348 40.2042-0.768616C24.6379-0.874634 17.8404-12.4354 17.8404-19.9644C17.8404-19.9644 13.2779-12.5548 11.7006-12.7454C10.9657-12.8347 10-16.8033 12.9799-26.3928C13.6048-28.4035 14.4578-30.7486 15.3217-33.001L15.3217-33.001L15.3217-33.001C18.8264-31.9442 22.7042-31.0683 26.5796-30.4137L26.5796-20.1637C26.5796-20.1637 31.4193-19.1879 36.2684-19.8637L36.2684-29.2953C37.6887-29.2154 39.0766-29.1644 40.3732-29.1801L40.4478-29.1801C47.8384-29.0908 57.6119-30.623 65.4994-33.001L65.4994-33.001L65.4994-33.001C66.3632-30.7486 67.2162-28.4035 67.8411-26.3928ZM40.3732-37.8145C27.9092-37.8984 18.5068-40.861 18.4747-40.871C18.472-40.9629 18.4331-42.5119 18.4331-43.3113C18.4331-56.7694 24.7864-70.2933 40.4101-70.2939C56.0346-70.2933 62.3879-56.7694 62.3879-43.3113C62.3879-42.5119 62.349-40.9629 62.3464-40.871C62.3464-40.871 52.9321-37.8991 40.4478-37.8145L40.3732-37.8145ZM46.3862-61.5333C44.2687-61.6279 42.4586-59.2145 42.3439-56.1439C42.2278-53.0727 43.8519-50.5062 45.97-50.4109C48.0895-50.3148 49.9003-52.7297 50.0137-55.7989C50.1293-58.8701 48.5057-61.4373 46.3862-61.5333ZM34.4349-61.5333C32.3153-61.4373 30.6918-58.8701 30.8065-55.7989C30.9207-52.7297 32.7314-50.3148 34.851-50.4109C36.9691-50.5055 38.5933-53.0727 38.4772-56.1439C38.3625-59.2145 36.5524-61.6279 34.4349-61.5333ZM27.0399-46.0759C27.0145-46.0215 26.9984-45.9611 26.9984-45.8973C26.9984-45.8067 27.0294-45.7255 27.0762-45.6557C27.554-44.9604 33.8878-41.522 40.3726-41.522L40.4484-41.522C46.9332-41.522 53.267-44.9597 53.744-45.6557C53.7917-45.7249 53.8218-45.8073 53.8218-45.8979C53.8218-45.9617 53.8065-46.0215 53.7811-46.0759C53.2144-47.3303 47.5105-48.7282 40.4484-48.7282L40.3726-48.7282C33.3105-48.7282 27.6066-47.3303 27.0399-46.0759Z"/>
  </g>
 </g>
</svg>
