<?xml version="1.0" encoding="UTF-8"?>
<svg height="600" width="800" xmlns="http://www.w3.org/2000/svg" xmlns:xlink="http://www.w3.org/1999/xlink">
    <g id="Notes" font-family="'LucidaGrande', 'Lucida Grande', sans-serif" font-size="13">
        <rect fill="white" height="600.0" width="800.0" x="0.0" y="0.0" />
        <g font-size="13">
            <text x="18.0" y="176.0">Small</text>
            <text x="18.0" y="376.0">Medium</text>
            <text x="18.0" y="576.0">Large</text>
        </g>
        <g font-size="9">
            <text x="250.0" y="30.0">Ultralight</text>
            <text x="450.0" y="30.0">Regular</text>
            <text x="650.0" y="30.0">Black</text>
            <text id="template-version" fill="#505050" text-anchor="end" x="785.0" y="575.0">Template v.3.0</text>
            <a href="https://wangchujiang.com/#/app">
                <text fill="#505050" text-anchor="end" x="785.0" y="590.0">https://wangchujiang.com/#/app</text>
            </a>
        </g>
    </g>
    <g id="Guides" stroke="rgb(39, 170, 225)" stroke-width="0.5">
        <path id="Capline-S" d="M18,76 l800,0" />
        <path id="H-reference" d="M85,145.755 L87.685,145.755 L113.369,79.287 L114.052,79.287 L114.052,76 L112.148,76 L85,145.755 Z M95.693,121.536 L130.996,121.536 L130.263,119.313 L96.474,119.313 L95.693,121.536 Z M139.15,145.755 L141.787,145.755 L114.638,76 L113.466,76 L113.466,79.287 L139.15,145.755 Z" stroke="none" />
        <path id="Baseline-S" d="M18,146 l800,0" />
        <path id="left-margin-Ultralight-S" d="M219.895,56 l0,110" />
        <path id="right-margin-Ultralight-S" d="M310.105,56 l0,110" />
        <path id="left-margin-Regular-S" d="M419.895,56 l0,110" />
        <path id="right-margin-Regular-S" d="M510.105,56 l0,110" />
        <path id="left-margin-Black-S" d="M619.895,56 l0,110" />
        <path id="right-margin-Black-S" d="M710.105,56 l0,110" />
        <path id="Capline-M" d="M18,276 l800,0" />
        <path id="Baseline-M" d="M18,346 l800,0" />
        <path id="Capline-L" d="M18,476 l800,0" />
        <path id="Baseline-L" d="M18,546 l800,0" />
    </g>
    <g id="Symbols">
        <g id="Ultralight-S">
            <path d="M299.171,140.523 L285.131,126.563 C288.9,121.58 290.908,114.82 291.064,106.363 C290.729,86.909 279.871,76.128 260.462,76 C240.82,76.124 229.895,87.528 229.895,106.359 C229.895,126.132 240.83,136.719 260.5,136.834 C268.891,136.782 275.626,134.836 280.618,131.073 L294.671,145.049 C296.324,146.619 298.28,145.978 299.184,145.036 C300.406,143.766 300.422,141.765 299.171,140.523 Z M236.279,106.417 C236.588,90.347 244.51,82.482 260.459,82.383 C276.254,82.486 284.406,90.589 284.681,106.359 C284.381,122.701 276.685,130.354 260.5,130.45 C244.296,130.354 236.598,122.72 236.279,106.417 Z" />
        </g>
        <g id="Regular-S">
            <path d="M499.171,140.523 L485.131,126.563 C488.9,121.58 490.908,114.82 491.064,106.363 C490.729,86.909 479.871,76.128 460.462,76 C440.82,76.124 429.895,87.528 429.895,106.359 C429.895,126.132 440.83,136.719 460.5,136.834 C468.891,136.782 475.626,134.836 480.618,131.073 L494.671,145.049 C496.324,146.619 498.28,145.978 499.184,145.036 C500.406,143.766 500.422,141.765 499.171,140.523 Z M436.279,106.417 C436.588,90.347 444.51,82.482 460.459,82.383 C476.254,82.486 484.406,90.589 484.681,106.359 C484.381,122.701 476.685,130.354 460.5,130.45 C444.296,130.354 436.598,122.72 436.279,106.417 Z" />
        </g>
        <g id="Black-S">
            <path d="M699.171,140.523 L685.131,126.563 C688.9,121.58 690.908,114.82 691.064,106.363 C690.729,86.909 679.871,76.128 660.462,76 C640.82,76.124 629.895,87.528 629.895,106.359 C629.895,126.132 640.83,136.719 660.5,136.834 C668.891,136.782 675.626,134.836 680.617,131.073 L694.671,145.049 C696.324,146.619 698.28,145.978 699.184,145.036 C700.406,143.766 700.422,141.765 699.171,140.523 Z M636.279,106.417 C636.588,90.347 644.51,82.482 660.459,82.383 C676.254,82.486 684.406,90.589 684.681,106.359 C684.38,122.701 676.685,130.354 660.5,130.45 C644.296,130.354 636.598,122.72 636.279,106.417 Z" />
        </g>
    </g>
</svg>