<?xml version="1.0" encoding="UTF-8"?>
<svg height="600" width="800" xmlns="http://www.w3.org/2000/svg" xmlns:xlink="http://www.w3.org/1999/xlink">
    <g id="Notes" font-family="'LucidaGrande', 'Lucida Grande', sans-serif" font-size="13">
        <rect fill="white" height="600.0" width="800.0" x="0.0" y="0.0" />
        <g font-size="13">
            <text x="18.0" y="176.0">Small</text>
            <text x="18.0" y="376.0">Medium</text>
            <text x="18.0" y="576.0">Large</text>
        </g>
        <g font-size="9">
            <text x="250.0" y="30.0">Ultralight</text>
            <text x="450.0" y="30.0">Regular</text>
            <text x="650.0" y="30.0">Black</text>
            <text id="template-version" fill="#505050" text-anchor="end" x="785.0" y="575.0">Template v.3.0</text>
            <a href="https://wangchujiang.com/#/app">
                <text fill="#505050" text-anchor="end" x="785.0" y="590.0">https://wangchujiang.com/#/app</text>
            </a>
        </g>
    </g>
    <g id="Guides" stroke="rgb(39, 170, 225)" stroke-width="0.5">
        <path id="Capline-S" d="M18,76 l800,0" />
        <path id="H-reference" d="M85,145.755 L87.685,145.755 L113.369,79.287 L114.052,79.287 L114.052,76 L112.148,76 L85,145.755 Z M95.693,121.536 L130.996,121.536 L130.263,119.313 L96.474,119.313 L95.693,121.536 Z M139.15,145.755 L141.787,145.755 L114.638,76 L113.466,76 L113.466,79.287 L139.15,145.755 Z" stroke="none" />
        <path id="Baseline-S" d="M18,146 l800,0" />
        <path id="left-margin-Ultralight-S" d="M221,56 l0,110" />
        <path id="right-margin-Ultralight-S" d="M309,56 l0,110" />
        <path id="left-margin-Regular-S" d="M421,56 l0,110" />
        <path id="right-margin-Regular-S" d="M509,56 l0,110" />
        <path id="left-margin-Black-S" d="M621,56 l0,110" />
        <path id="right-margin-Black-S" d="M709,56 l0,110" />
        <path id="Capline-M" d="M18,276 l800,0" />
        <path id="Baseline-M" d="M18,346 l800,0" />
        <path id="Capline-L" d="M18,476 l800,0" />
        <path id="Baseline-L" d="M18,546 l800,0" />
    </g>
    <g id="Symbols">
        <g id="Ultralight-S">
            <path d="M294.261,95.693 C292.839,86.839 286.575,79.761 278.306,77.658 C274.036,76.573 269.56,76.016 264.991,76 C260.439,76.013 255.966,76.569 251.696,77.658 C243.427,79.761 237.163,86.839 235.741,95.693 C233.66,108.642 233.899,122.354 236.473,137.612 C237.138,141.57 239.963,144.669 243.854,145.665 C248.451,146.842 252.265,144.666 254.213,142.235 C256.226,139.722 263.913,129.929 263.913,129.929 C264.276,129.468 264.753,129.398 265.001,129.398 C265.249,129.398 265.726,129.465 266.089,129.929 C266.089,129.929 273.779,139.725 275.789,142.235 C278.296,145.359 282.264,146.677 286.148,145.665 C290.033,144.656 292.861,141.57 293.526,137.616 C296.1,122.357 296.342,108.645 294.258,95.697 Z" />
        </g>
        <g id="Regular-S">
            <path d="M494.261,95.693 C492.839,86.839 486.575,79.761 478.306,77.658 C474.036,76.573 469.56,76.016 464.991,76 C460.439,76.013 455.966,76.569 451.696,77.658 C443.427,79.761 437.163,86.839 435.741,95.693 C433.66,108.642 433.899,122.354 436.473,137.612 C437.138,141.57 439.963,144.669 443.854,145.665 C448.451,146.842 452.266,144.666 454.213,142.235 C456.226,139.722 463.913,129.929 463.913,129.929 C464.276,129.468 464.753,129.398 465.001,129.398 C465.249,129.398 465.726,129.465 466.089,129.929 C466.089,129.929 473.779,139.725 475.789,142.235 C478.296,145.359 482.264,146.677 486.148,145.665 C490.033,144.656 492.861,141.57 493.526,137.616 C496.1,122.357 496.342,108.645 494.258,95.697 Z" />
        </g>
        <g id="Black-S">
            <path d="M694.261,95.693 C692.839,86.839 686.575,79.761 678.306,77.658 C674.036,76.573 669.56,76.016 664.991,76 C660.439,76.013 655.966,76.569 651.696,77.658 C643.427,79.761 637.163,86.839 635.741,95.693 C633.66,108.642 633.899,122.354 636.473,137.612 C637.138,141.57 639.963,144.669 643.854,145.665 C648.451,146.842 652.265,144.666 654.213,142.235 C656.226,139.722 663.913,129.929 663.913,129.929 C664.276,129.468 664.753,129.398 665.001,129.398 C665.249,129.398 665.726,129.465 666.089,129.929 C666.089,129.929 673.779,139.725 675.789,142.235 C678.296,145.359 682.264,146.677 686.148,145.665 C690.033,144.656 692.861,141.57 693.526,137.616 C696.1,122.357 696.342,108.645 694.258,95.697 Z" />
        </g>
    </g>
</svg>