<?xml version="1.0" encoding="UTF-8"?>
<!--Generator: Apple Native CoreSVG 341-->
<!DOCTYPE svg
PUBLIC "-//W3C//DTD SVG 1.1//EN"
       "http://www.w3.org/Graphics/SVG/1.1/DTD/svg11.dtd">
<svg version="1.1" xmlns="http://www.w3.org/2000/svg" xmlns:xlink="http://www.w3.org/1999/xlink" viewBox="0 0 3300 2200">
 <!--glyph: "", point size: 100.0, font version: "20.0d10e1", template writer version: "138.0.0"-->
 <style>.SFSymbolsPreviewWireframe {fill:none;opacity:1.0;stroke:black;stroke-width:0.5}
</style>
 <g id="Notes">
  <rect height="2200" id="artboard" style="fill:white;opacity:1" width="3300" x="0" y="0"/>
  <line style="fill:none;stroke:black;opacity:1;stroke-width:0.5;" x1="263" x2="3036" y1="292" y2="292"/>
  <text style="stroke:none;fill:black;font-family:sans-serif;font-size:13;font-weight:bold;" transform="matrix(1 0 0 1 263 322)">Weight/Scale Variations</text>
  <text style="stroke:none;fill:black;font-family:sans-serif;font-size:13;text-anchor:middle;" transform="matrix(1 0 0 1 559.711 322)">Ultralight</text>
  <text style="stroke:none;fill:black;font-family:sans-serif;font-size:13;text-anchor:middle;" transform="matrix(1 0 0 1 856.422 322)">Thin</text>
  <text style="stroke:none;fill:black;font-family:sans-serif;font-size:13;text-anchor:middle;" transform="matrix(1 0 0 1 1153.13 322)">Light</text>
  <text style="stroke:none;fill:black;font-family:sans-serif;font-size:13;text-anchor:middle;" transform="matrix(1 0 0 1 1449.84 322)">Regular</text>
  <text style="stroke:none;fill:black;font-family:sans-serif;font-size:13;text-anchor:middle;" transform="matrix(1 0 0 1 1746.56 322)">Medium</text>
  <text style="stroke:none;fill:black;font-family:sans-serif;font-size:13;text-anchor:middle;" transform="matrix(1 0 0 1 2043.27 322)">Semibold</text>
  <text style="stroke:none;fill:black;font-family:sans-serif;font-size:13;text-anchor:middle;" transform="matrix(1 0 0 1 2339.98 322)">Bold</text>
  <text style="stroke:none;fill:black;font-family:sans-serif;font-size:13;text-anchor:middle;" transform="matrix(1 0 0 1 2636.69 322)">Heavy</text>
  <text style="stroke:none;fill:black;font-family:sans-serif;font-size:13;text-anchor:middle;" transform="matrix(1 0 0 1 2933.4 322)">Black</text>
  <line style="fill:none;stroke:black;opacity:1;stroke-width:0.5;" x1="263" x2="3036" y1="1903" y2="1903"/>
  <g transform="matrix(0.2 0 0 0.2 263 1933)">
   <path d="m46.2402 4.15039c21.7773 0 39.4531-17.627 39.4531-39.4043s-17.6758-39.4043-39.4531-39.4043c-21.7285 0-39.4043 17.627-39.4043 39.4043s17.6758 39.4043 39.4043 39.4043Zm0-7.42188c-17.6758 0-31.9336-14.3066-31.9336-31.9824s14.2578-31.9824 31.9336-31.9824 31.9824 14.3066 31.9824 31.9824-14.3066 31.9824-31.9824 31.9824Zm-17.9688-31.9824c0 2.14844 1.51367 3.61328 3.75977 3.61328h10.498v10.5957c0 2.19727 1.46484 3.71094 3.61328 3.71094 2.24609 0 3.71094-1.51367 3.71094-3.71094v-10.5957h10.5957c2.19727 0 3.71094-1.46484 3.71094-3.61328 0-2.19727-1.51367-3.71094-3.71094-3.71094h-10.5957v-10.5469c0-2.24609-1.46484-3.75977-3.71094-3.75977-2.14844 0-3.61328 1.51367-3.61328 3.75977v10.5469h-10.498c-2.24609 0-3.75977 1.51367-3.75977 3.71094Z"/>
  </g>
  <g transform="matrix(0.2 0 0 0.2 281.506 1933)">
   <path d="m58.5449 14.5508c27.4902 0 49.8047-22.3145 49.8047-49.8047s-22.3145-49.8047-49.8047-49.8047-49.8047 22.3145-49.8047 49.8047 22.3145 49.8047 49.8047 49.8047Zm0-8.30078c-22.9492 0-41.5039-18.5547-41.5039-41.5039s18.5547-41.5039 41.5039-41.5039 41.5039 18.5547 41.5039 41.5039-18.5547 41.5039-41.5039 41.5039Zm-22.6562-41.5039c0 2.39258 1.66016 4.00391 4.15039 4.00391h14.3555v14.4043c0 2.44141 1.66016 4.15039 4.05273 4.15039 2.44141 0 4.15039-1.66016 4.15039-4.15039v-14.4043h14.4043c2.44141 0 4.15039-1.61133 4.15039-4.00391 0-2.44141-1.70898-4.15039-4.15039-4.15039h-14.4043v-14.3555c0-2.49023-1.70898-4.19922-4.15039-4.19922-2.39258 0-4.05273 1.70898-4.05273 4.19922v14.3555h-14.3555c-2.49023 0-4.15039 1.70898-4.15039 4.15039Z"/>
  </g>
  <g transform="matrix(0.2 0 0 0.2 304.924 1933)">
   <path d="m74.8535 28.3203c35.1074 0 63.623-28.4668 63.623-63.5742s-28.5156-63.623-63.623-63.623-63.5742 28.5156-63.5742 63.623 28.4668 63.5742 63.5742 63.5742Zm0-9.08203c-30.127 0-54.4922-24.3652-54.4922-54.4922s24.3652-54.4922 54.4922-54.4922 54.4922 24.3652 54.4922 54.4922-24.3652 54.4922-54.4922 54.4922Zm-28.8574-54.4922c0 2.58789 1.85547 4.39453 4.58984 4.39453h19.7266v19.7754c0 2.68555 1.85547 4.58984 4.44336 4.58984 2.68555 0 4.54102-1.85547 4.54102-4.58984v-19.7754h19.7754c2.68555 0 4.58984-1.80664 4.58984-4.39453 0-2.73438-1.85547-4.58984-4.58984-4.58984h-19.7754v-19.7266c0-2.73438-1.85547-4.63867-4.54102-4.63867-2.58789 0-4.44336 1.9043-4.44336 4.63867v19.7266h-19.7266c-2.73438 0-4.58984 1.85547-4.58984 4.58984Z"/>
  </g>
  <text style="stroke:none;fill:black;font-family:sans-serif;font-size:13;font-weight:bold;" transform="matrix(1 0 0 1 263 1953)">Design Variations</text>
  <text style="stroke:none;fill:black;font-family:sans-serif;font-size:13;" transform="matrix(1 0 0 1 263 1971)">Symbols are supported in up to nine weights and three scales.</text>
  <text style="stroke:none;fill:black;font-family:sans-serif;font-size:13;" transform="matrix(1 0 0 1 263 1989)">For optimal layout with text and other symbols, vertically align</text>
  <text style="stroke:none;fill:black;font-family:sans-serif;font-size:13;" transform="matrix(1 0 0 1 263 2007)">symbols with the adjacent text.</text>
  <line style="fill:none;stroke:#00AEEF;stroke-width:0.5;opacity:1.0;" x1="776" x2="776" y1="1919" y2="1933"/>
  <g transform="matrix(0.2 0 0 0.2 776 1933)">
   <path d="m16.5527 0.78125c2.58789 0 3.85742-0.976562 4.78516-3.71094l6.29883-17.2363h28.8086l6.29883 17.2363c0.927734 2.73438 2.19727 3.71094 4.73633 3.71094 2.58789 0 4.24805-1.5625 4.24805-4.00391 0-0.830078-0.146484-1.61133-0.537109-2.63672l-22.9004-60.9863c-1.12305-2.97852-3.125-4.49219-6.25-4.49219-3.02734 0-5.07812 1.46484-6.15234 4.44336l-22.9004 61.084c-0.390625 1.02539-0.537109 1.80664-0.537109 2.63672 0 2.44141 1.5625 3.95508 4.10156 3.95508Zm13.4766-28.3691 11.8652-32.8613h0.244141l11.8652 32.8613Z"/>
  </g>
  <line style="fill:none;stroke:#00AEEF;stroke-width:0.5;opacity:1.0;" x1="792.836" x2="792.836" y1="1919" y2="1933"/>
  <text style="stroke:none;fill:black;font-family:sans-serif;font-size:13;font-weight:bold;" transform="matrix(1 0 0 1 776 1953)">Margins</text>
  <text style="stroke:none;fill:black;font-family:sans-serif;font-size:13;" transform="matrix(1 0 0 1 776 1971)">Leading and trailing margins on the left and right side of each symbol</text>
  <text style="stroke:none;fill:black;font-family:sans-serif;font-size:13;" transform="matrix(1 0 0 1 776 1989)">can be adjusted by modifying the x-location of the margin guidelines.</text>
  <text style="stroke:none;fill:black;font-family:sans-serif;font-size:13;" transform="matrix(1 0 0 1 776 2007)">Modifications are automatically applied proportionally to all</text>
  <text style="stroke:none;fill:black;font-family:sans-serif;font-size:13;" transform="matrix(1 0 0 1 776 2025)">scales and weights.</text>
  <g transform="matrix(0.2 0 0 0.2 1289 1933)">
   <path d="m14.209 9.32617 8.49609 8.54492c4.29688 4.3457 9.22852 4.05273 13.8672-1.07422l53.4668-58.9355-4.83398-4.88281-53.0762 58.3984c-1.75781 2.00195-3.41797 2.49023-5.76172 0.146484l-5.85938-5.81055c-2.34375-2.29492-1.80664-4.00391 0.195312-5.81055l57.373-54.0039-4.88281-4.83398-57.959 54.4434c-4.93164 4.58984-5.32227 9.47266-1.02539 13.8184Zm32.0801-90.9668c-2.09961 2.05078-2.24609 4.93164-1.07422 6.88477 1.17188 1.80664 3.4668 2.97852 6.68945 2.14844 7.32422-1.70898 14.9414-2.00195 22.0703 2.68555l-2.92969 7.27539c-1.70898 4.15039-0.830078 7.08008 1.85547 9.81445l11.4746 11.5723c2.44141 2.44141 4.49219 2.53906 7.32422 2.05078l5.32227-0.976562 3.32031 3.36914-0.195312 2.7832c-0.195312 2.49023 0.439453 4.39453 2.88086 6.78711l3.80859 3.71094c2.39258 2.39258 5.46875 2.53906 7.8125 0.195312l14.5508-14.5996c2.34375-2.34375 2.24609-5.32227-0.146484-7.71484l-3.85742-3.80859c-2.39258-2.39258-4.24805-3.17383-6.64062-2.97852l-2.88086 0.244141-3.22266-3.17383 1.2207-5.61523c0.634766-2.83203-0.146484-5.0293-3.07617-7.95898l-10.9863-10.9375c-16.6992-16.6016-38.8672-16.2109-53.3203-1.75781Zm7.4707 1.85547c12.1582-8.88672 28.6133-7.37305 39.7461 3.75977l12.1582 12.0605c1.17188 1.17188 1.36719 2.09961 1.02539 3.80859l-1.61133 7.42188 7.51953 7.42188 4.93164-0.292969c1.26953-0.0488281 1.66016 0.0488281 2.63672 1.02539l2.88086 2.88086-12.207 12.207-2.88086-2.88086c-0.976562-0.976562-1.12305-1.36719-1.07422-2.68555l0.341797-4.88281-7.4707-7.42188-7.61719 1.26953c-1.61133 0.341797-2.34375 0.195312-3.56445-0.976562l-10.0098-10.0098c-1.26953-1.17188-1.41602-2.00195-0.634766-3.85742l4.39453-10.4492c-7.8125-7.27539-17.9688-10.4004-28.125-7.42188-0.78125 0.195312-1.07422-0.439453-0.439453-0.976562Z"/>
  </g>
  <text style="stroke:none;fill:black;font-family:sans-serif;font-size:13;font-weight:bold;" transform="matrix(1 0 0 1 1289 1953)">Exporting</text>
  <text style="stroke:none;fill:black;font-family:sans-serif;font-size:13;" transform="matrix(1 0 0 1 1289 1971)">Symbols should be outlined when exporting to ensure the</text>
  <text style="stroke:none;fill:black;font-family:sans-serif;font-size:13;" transform="matrix(1 0 0 1 1289 1989)">design is preserved when submitting to Xcode.</text>
  <text id="template-version" style="stroke:none;fill:black;font-family:sans-serif;font-size:13;text-anchor:end;" transform="matrix(1 0 0 1 3036 1933)">Template v.6.0</text>
  <text style="stroke:none;fill:black;font-family:sans-serif;font-size:13;text-anchor:end;" transform="matrix(1 0 0 1 3036 1951)">Requires Xcode 16 or greater</text>
  <text id="descriptive-name" style="stroke:none;fill:black;font-family:sans-serif;font-size:13;text-anchor:end;" transform="matrix(1 0 0 1 3036 1969)">Generated from reddit-fill</text>
  <text style="stroke:none;fill:black;font-family:sans-serif;font-size:13;text-anchor:end;" transform="matrix(1 0 0 1 3036 1987)">Typeset at 100.0 points</text>
  <text style="stroke:none;fill:black;font-family:sans-serif;font-size:13;" transform="matrix(1 0 0 1 263 726)">Small</text>
  <text style="stroke:none;fill:black;font-family:sans-serif;font-size:13;" transform="matrix(1 0 0 1 263 1156)">Medium</text>
  <text style="stroke:none;fill:black;font-family:sans-serif;font-size:13;" transform="matrix(1 0 0 1 263 1586)">Large</text>
 </g>
 <g id="Guides">
  <g id="H-reference" style="fill:#27AAE1;stroke:none;" transform="matrix(1 0 0 1 339 696)">
   <path d="M0.993654 0L3.63775 0L29.3281-67.1323L30.0303-67.1323L30.0303-70.459L28.1226-70.459ZM11.6885-24.4799L46.9815-24.4799L46.2315-26.7285L12.4385-26.7285ZM55.1196 0L57.7637 0L30.6382-70.459L29.4326-70.459L29.4326-67.1323Z"/>
  </g>
  <line id="Baseline-S" style="fill:none;stroke:#27AAE1;opacity:1;stroke-width:0.5;" x1="263" x2="3036" y1="696" y2="696"/>
  <line id="Capline-S" style="fill:none;stroke:#27AAE1;opacity:1;stroke-width:0.5;" x1="263" x2="3036" y1="625.541" y2="625.541"/>
  <g id="H-reference" style="fill:#27AAE1;stroke:none;" transform="matrix(1 0 0 1 339 1126)">
   <path d="M0.993654 0L3.63775 0L29.3281-67.1323L30.0303-67.1323L30.0303-70.459L28.1226-70.459ZM11.6885-24.4799L46.9815-24.4799L46.2315-26.7285L12.4385-26.7285ZM55.1196 0L57.7637 0L30.6382-70.459L29.4326-70.459L29.4326-67.1323Z"/>
  </g>
  <line id="Baseline-M" style="fill:none;stroke:#27AAE1;opacity:1;stroke-width:0.5;" x1="263" x2="3036" y1="1126" y2="1126"/>
  <line id="Capline-M" style="fill:none;stroke:#27AAE1;opacity:1;stroke-width:0.5;" x1="263" x2="3036" y1="1055.54" y2="1055.54"/>
  <g id="H-reference" style="fill:#27AAE1;stroke:none;" transform="matrix(1 0 0 1 339 1556)">
   <path d="M0.993654 0L3.63775 0L29.3281-67.1323L30.0303-67.1323L30.0303-70.459L28.1226-70.459ZM11.6885-24.4799L46.9815-24.4799L46.2315-26.7285L12.4385-26.7285ZM55.1196 0L57.7637 0L30.6382-70.459L29.4326-70.459L29.4326-67.1323Z"/>
  </g>
  <line id="Baseline-L" style="fill:none;stroke:#27AAE1;opacity:1;stroke-width:0.5;" x1="263" x2="3036" y1="1556" y2="1556"/>
  <line id="Capline-L" style="fill:none;stroke:#27AAE1;opacity:1;stroke-width:0.5;" x1="263" x2="3036" y1="1485.54" y2="1485.54"/>
  <line id="right-margin-Black-S" style="fill:none;stroke:#00AEEF;stroke-width:0.5;opacity:1.0;" x1="2982.4" x2="2982.4" y1="600.785" y2="720.121"/>
  <line id="left-margin-Black-S" style="fill:none;stroke:#00AEEF;stroke-width:0.5;opacity:1.0;" x1="2884.4" x2="2884.4" y1="600.785" y2="720.121"/>
  <line id="right-margin-Regular-S" style="fill:none;stroke:#00AEEF;stroke-width:0.5;opacity:1.0;" x1="1496.22" x2="1496.22" y1="600.785" y2="720.121"/>
  <line id="left-margin-Regular-S" style="fill:none;stroke:#00AEEF;stroke-width:0.5;opacity:1.0;" x1="1403.46" x2="1403.46" y1="600.785" y2="720.121"/>
  <line id="right-margin-Ultralight-S" style="fill:none;stroke:#00AEEF;stroke-width:0.5;opacity:1.0;" x1="603.941" x2="603.941" y1="600.785" y2="720.121"/>
  <line id="left-margin-Ultralight-S" style="fill:none;stroke:#00AEEF;stroke-width:0.5;opacity:1.0;" x1="515.481" x2="515.481" y1="600.785" y2="720.121"/>
 </g>
 <g id="Symbols">
  <g id="Black-S" transform="matrix(1 0 0 1 2884.4 696)">
   <path class="SFSymbolsPreviewWireframe" d="M57.7698-20.965C58.229-21.4139 58.9805-21.4034 59.4294-20.9442C59.8787-20.4848 59.8679-19.7332 59.4087-19.2842L59.4087-19.4513C56.4231-17.2066 52.7688-16.0582 49.0312-16.2149C45.2942-16.0582 41.6399-17.2066 38.6538-19.4513C38.2573-19.9315 38.3303-20.6519 38.8105-21.0485C39.228-21.3931 39.8232-21.3931 40.2512-21.0485C42.7776-19.2007 45.8577-18.261 48.9897-18.4072C52.1216-18.2402 55.2117-19.138 57.7698-20.965ZM49-77.2051C72.196-77.2051 91-58.4011 91-35.2051C91-12.0092 72.196 6.79486 49 6.79486C25.804 6.79486 7-12.0092 7-35.2051C7-58.4011 25.804-77.2051 49-77.2051ZM73.6174-29.6198C75.7263-30.6742 77.0522-32.8458 77.0103-35.2051C76.885-38.5877 74.0457-41.2289 70.6523-41.1141C69.1489-41.062 67.719-40.446 66.6333-39.4124C61.8516-42.6697 56.2351-44.455 50.4617-44.5803L53.1865-57.6824L62.1755-55.7927C62.4258-53.4855 64.4929-51.8152 66.8-52.0657C69.1074-52.3162 70.7776-54.3834 70.5273-56.6906C70.2769-58.9978 68.2095-60.6682 65.9023-60.4177C64.5767-60.282 63.3862-59.5095 62.7288-58.361L52.4346-60.4177C51.7354-60.5742 51.0359-60.1358 50.8792-59.4259C50.8792-59.4155 50.8792-59.4155 50.8792-59.405L47.7786-44.8307C41.9321-44.7369 36.2424-42.9412 31.3984-39.663C28.9343-41.9807 25.0508-41.8659 22.7329-39.3916C20.4155-36.9278 20.53-33.0441 23.0046-30.7264C23.4849-30.2775 24.0381-29.8912 24.6538-29.6198C24.6123-29.0038 24.6123-28.3879 24.6538-27.7719C24.6538-18.3654 35.6162-10.713 49.136-10.713C62.6558-10.713 73.6174-18.355 73.6174-27.7719C73.6594-28.3879 73.6594-29.0038 73.6174-29.6198ZM39.2114-35.2051C41.5317-35.2051 43.4126-33.324 43.4126-31.0038C43.4126-28.6835 41.5317-26.8026 39.2114-26.8026C36.8911-26.8026 35.0103-28.6835 35.0103-31.0038C35.0103-33.324 36.8911-35.2051 39.2114-35.2051ZM58.6665-35.2051C60.9868-35.2051 62.8677-33.324 62.8677-31.0038C62.8677-28.6835 60.9868-26.8026 58.6665-26.8026C56.3462-26.8026 54.4653-28.6835 54.4653-31.0038C54.4653-33.324 56.3462-35.2051 58.6665-35.2051Z"/>
  </g>
  <g id="Regular-S" transform="matrix(1 0 0 1 1403.46 696)">
   <path class="SFSymbolsPreviewWireframe" d="M54.6024-21.9021C55.0333-22.3231 55.7382-22.3132 56.1591-21.8825C56.58-21.4518 56.5701-20.7471 56.1394-20.3261L56.1394-20.4828C53.3398-18.3781 49.9137-17.3015 46.4093-17.4483C42.9049-17.3015 39.479-18.3781 36.6794-20.4828C36.3074-20.933 36.376-21.6084 36.826-21.9804C37.2177-22.3035 37.7758-22.3035 38.1771-21.9804C40.5459-20.2478 43.4337-19.3669 46.3702-19.5039C49.3068-19.3472 52.2043-20.1891 54.6024-21.9021ZM46.38-74.6339C68.129-74.6339 85.76-57.0029 85.76-35.2539C85.76-13.5049 68.129 4.1261 46.38 4.1261C24.6311 4.1261 7-13.5049 7-35.2539C7-57.0029 24.6311-74.6339 46.38-74.6339ZM69.4617-30.017C71.4392-31.0056 72.6825-33.0416 72.6432-35.2539C72.5256-38.4255 69.8633-40.902 66.6819-40.7943C65.2723-40.7454 63.9313-40.1678 62.9131-39.1988C58.4299-42.2529 53.1638-43.9267 47.7505-44.0442L50.3053-56.329L58.7335-54.5573C58.9681-52.3939 60.9065-50.8278 63.0699-51.0627C65.2332-51.2976 66.7994-53.2358 66.5643-55.3992C66.3295-57.5624 64.3912-59.1286 62.2278-58.8937C60.9847-58.7664 59.8689-58.0421 59.2522-56.9653L49.6003-58.8937C48.9447-59.0405 48.2889-58.6293 48.1421-57.9637C48.1421-57.9539 48.1421-57.9539 48.1421-57.9442L45.2346-44.2792C39.7532-44.191 34.4182-42.5074 29.8763-39.4337C27.5663-41.6069 23.9247-41.4991 21.7516-39.1793C19.5786-36.8691 19.686-33.2277 22.0061-31.0546C22.4563-30.6337 22.9752-30.2714 23.5527-30.017C23.5137-29.4395 23.5137-28.8619 23.5527-28.2843C23.5527-19.4648 33.8308-12.2896 46.5072-12.2896C59.1836-12.2896 69.4617-19.455 69.4617-28.2843C69.501-28.8619 69.501-29.4395 69.4617-30.017ZM37.2023-35.2539C39.3778-35.2539 41.1414-33.4902 41.1414-31.3147C41.1414-29.1391 39.3778-27.3755 37.2023-27.3755C35.0267-27.3755 33.2632-29.1391 33.2632-31.3147C33.2632-33.4902 35.0267-35.2539 37.2023-35.2539ZM55.4436-35.2539C57.6191-35.2539 59.3827-33.4902 59.3827-31.3147C59.3827-29.1391 57.6191-27.3755 55.4436-27.3755C53.2681-27.3755 51.5045-29.1391 51.5045-31.3147C51.5045-33.4902 53.2681-35.2539 55.4436-35.2539Z"/>
  </g>
  <g id="Ultralight-S" transform="matrix(1 0 0 1 515.481 696)">
   <path class="SFSymbolsPreviewWireframe" d="M52.0035-22.631C52.4108-23.029 53.0772-23.0198 53.4751-22.6126C53.873-22.2053 53.8636-21.5391 53.4565-21.1412L53.4565-21.2892C50.8098-19.2995 47.5707-18.2815 44.2578-18.4204C40.9448-18.2815 37.7057-19.2995 35.059-21.2892C34.7073-21.7149 34.7722-22.3534 35.1979-22.7051C35.568-23.0105 36.0955-23.0105 36.4749-22.7051C38.7145-21.0671 41.4445-20.2343 44.2208-20.3638C46.9971-20.2157 49.7363-21.0115 52.0035-22.631ZM44.23-72.4839C64.7916-72.4839 81.46-55.8155 81.46-35.2539C81.46-14.6923 64.7916 1.97614 44.23 1.97614C23.6685 1.97614 7-14.6923 7-35.2539C7-55.8155 23.6685-72.4839 44.23-72.4839ZM66.0517-30.3029C67.921-31.2376 69.0963-33.1624 69.0593-35.2539C68.9482-38.2523 66.431-40.5936 63.4234-40.4919C62.0908-40.4455 60.8229-39.8996 59.8605-38.9835C55.6221-41.8708 50.6432-43.4533 45.5256-43.5642L47.941-55.1784L55.9089-53.5034C56.131-51.4582 57.9634-49.9774 60.0086-50.1996C62.0537-50.4218 63.5345-52.254 63.3123-54.2993C63.0903-56.3444 61.2579-57.8251 59.2128-57.603C58.0374-57.4827 56.9824-56.7979 56.3995-55.7799L47.2747-57.603C46.6546-57.7419 46.0347-57.3532 45.8958-56.7239C45.8958-56.7147 45.8958-56.7147 45.8958-56.7053L43.1473-43.7864C37.9649-43.7031 32.9213-42.1114 28.6273-39.2055C26.4432-41.2599 23.0006-41.1582 20.9462-38.9649C18.8918-36.7809 18.9936-33.3383 21.1869-31.2839C21.6125-30.8859 22.1031-30.5435 22.6491-30.3029C22.6121-29.7568 22.6121-29.2109 22.6491-28.6649C22.6491-20.3268 32.366-13.5435 44.3503-13.5435C56.3347-13.5435 66.0517-20.3176 66.0517-28.6649C66.0886-29.2109 66.0886-29.7568 66.0517-30.3029ZM35.5692-35.2537C37.6231-35.2537 39.2882-33.5884 39.2882-31.5344C39.2882-29.4803 37.6231-27.8152 35.5692-27.8152C33.515-27.8152 31.8499-29.4803 31.8499-31.5344C31.8499-33.5884 33.515-35.2537 35.5692-35.2537ZM52.7919-35.2537C54.8459-35.2537 56.511-33.5884 56.511-31.5344C56.511-29.4803 54.8459-27.8152 52.7919-27.8152C50.7378-27.8152 49.0727-29.4803 49.0727-31.5344C49.0727-33.5884 50.7378-35.2537 52.7919-35.2537Z"/>
  </g>
 </g>
</svg>
