<?xml version="1.0" encoding="UTF-8"?>
<svg height="600" width="800" xmlns="http://www.w3.org/2000/svg" xmlns:xlink="http://www.w3.org/1999/xlink">
    <g id="Notes" font-family="'LucidaGrande', 'Lucida Grande', sans-serif" font-size="13">
        <rect fill="white" height="600.0" width="800.0" x="0.0" y="0.0" />
        <g font-size="13">
            <text x="18.0" y="176.0">Small</text>
            <text x="18.0" y="376.0">Medium</text>
            <text x="18.0" y="576.0">Large</text>
        </g>
        <g font-size="9">
            <text x="250.0" y="30.0">Ultralight</text>
            <text x="450.0" y="30.0">Regular</text>
            <text x="650.0" y="30.0">Black</text>
            <text id="template-version" fill="#505050" text-anchor="end" x="785.0" y="575.0">Template v.3.0</text>
            <a href="https://wangchujiang.com/#/app">
                <text fill="#505050" text-anchor="end" x="785.0" y="590.0">https://wangchujiang.com/#/app</text>
            </a>
        </g>
    </g>
    <g id="Guides" stroke="rgb(39, 170, 225)" stroke-width="0.5">
        <path id="Capline-S" d="M18,76 l800,0" />
        <path id="H-reference" d="M85,145.755 L87.685,145.755 L113.369,79.287 L114.052,79.287 L114.052,76 L112.148,76 L85,145.755 Z M95.693,121.536 L130.996,121.536 L130.263,119.313 L96.474,119.313 L95.693,121.536 Z M139.15,145.755 L141.787,145.755 L114.638,76 L113.466,76 L113.466,79.287 L139.15,145.755 Z" stroke="none" />
        <path id="Baseline-S" d="M18,146 l800,0" />
        <path id="left-margin-Ultralight-S" d="M214.946,56 l0,110" />
        <path id="right-margin-Ultralight-S" d="M315.054,56 l0,110" />
        <path id="left-margin-Regular-S" d="M414.946,56 l0,110" />
        <path id="right-margin-Regular-S" d="M515.054,56 l0,110" />
        <path id="left-margin-Black-S" d="M614.946,56 l0,110" />
        <path id="right-margin-Black-S" d="M715.054,56 l0,110" />
        <path id="Capline-M" d="M18,276 l800,0" />
        <path id="Baseline-M" d="M18,346 l800,0" />
        <path id="Capline-L" d="M18,476 l800,0" />
        <path id="Baseline-L" d="M18,546 l800,0" />
    </g>
    <g id="Symbols">
        <g id="Ultralight-S">
            <path d="M290.973,109.431 C290.973,108.061 290.205,106.805 288.981,106.183 C285.85,104.588 282.496,103.12 278.739,101.693 C272.527,99.311 268,94.716 265.648,88.42 C264.239,84.601 262.79,81.2 261.22,78.025 C260.605,76.787 259.338,76 257.958,76 C256.578,76 255.303,76.787 254.695,78.028 C253.129,81.192 251.684,84.593 250.275,88.406 C247.922,94.713 243.393,99.308 237.192,101.686 C233.412,103.124 230.055,104.591 226.934,106.183 C225.714,106.802 224.946,108.058 224.946,109.427 C224.946,110.796 225.714,112.052 226.938,112.675 C230.076,114.27 233.43,115.741 237.181,117.161 C243.393,119.542 247.919,124.138 250.271,130.437 C251.687,134.271 253.133,137.665 254.695,140.829 C255.311,142.071 256.574,142.858 257.958,142.858 C259.341,142.858 260.609,142.071 261.22,140.829 C262.79,137.665 264.235,134.264 265.641,130.448 C267.997,124.141 272.53,119.546 278.724,117.168 C282.489,115.741 285.843,114.274 288.981,112.679 C290.205,112.056 290.973,110.803 290.973,109.431 Z M276.128,110.366 C268.03,113.472 261.887,119.699 258.813,127.917 C258.529,128.689 258.245,129.439 257.958,130.175 C257.67,129.439 257.386,128.686 257.095,127.903 C254.036,119.703 247.893,113.472 239.777,110.359 C238.961,110.053 238.175,109.74 237.403,109.431 C238.171,109.117 238.968,108.808 239.791,108.495 C247.893,105.385 254.036,99.159 257.098,90.947 C257.386,90.172 257.674,89.418 257.958,88.686 C258.245,89.425 258.533,90.183 258.821,90.958 C261.887,99.162 268.03,105.389 276.139,108.498 C276.954,108.804 277.745,109.117 278.516,109.431 C277.741,109.744 276.943,110.053 276.128,110.366 Z" />
            <path d="M283.552,91.126 C284.481,91.599 285.395,91.989 286.294,92.331 C287.048,92.622 287.576,93.161 287.86,93.915 C288.195,94.836 288.577,95.754 289.04,96.693 C289.648,97.939 290.915,98.733 292.302,98.733 L292.31,98.733 C293.693,98.733 294.96,97.946 295.572,96.704 C296.035,95.769 296.413,94.847 296.752,93.933 C297.043,93.161 297.571,92.622 298.31,92.338 C299.224,91.993 300.135,91.603 301.063,91.13 C302.287,90.511 303.055,89.251 303.055,87.882 C303.055,86.512 302.283,85.256 301.06,84.637 C300.135,84.171 299.224,83.781 298.321,83.435 C297.571,83.148 297.043,82.609 296.756,81.844 C296.413,80.923 296.035,80.002 295.569,79.062 C294.957,77.824 293.69,77.038 292.306,77.038 L292.299,77.038 C290.911,77.038 289.648,77.828 289.036,79.073 C288.577,80.009 288.195,80.93 287.864,81.833 C287.572,82.605 287.044,83.144 286.305,83.428 C285.388,83.778 284.477,84.164 283.549,84.637 C282.325,85.256 281.557,86.512 281.557,87.882 C281.557,89.251 282.325,90.507 283.549,91.126 Z" />
            <path d="M303.059,129.88 C301.904,129.294 300.765,128.806 299.643,128.383 C298.409,127.91 297.509,126.993 297.047,125.747 C296.621,124.597 296.144,123.446 295.569,122.281 C294.953,121.039 293.686,120.252 292.306,120.252 L292.306,120.252 C290.919,120.252 289.651,121.043 289.043,122.288 C288.472,123.453 287.995,124.6 287.58,125.729 C287.106,126.993 286.207,127.91 284.991,128.376 C283.855,128.806 282.711,129.294 281.561,129.884 C280.341,130.506 279.572,131.759 279.572,133.128 C279.572,134.497 280.341,135.75 281.561,136.372 C282.711,136.959 283.847,137.443 284.98,137.876 C286.207,138.346 287.106,139.26 287.572,140.509 C287.995,141.656 288.472,142.807 289.047,143.968 C289.659,145.21 290.922,145.996 292.31,146 L292.31,146 C293.693,146 294.957,145.217 295.572,143.975 C296.151,142.81 296.628,141.66 297.051,140.52 C297.517,139.26 298.416,138.346 299.643,137.876 C300.779,137.443 301.912,136.962 303.062,136.376 C304.286,135.753 305.054,134.497 305.054,133.128 C305.054,131.759 304.286,130.503 303.062,129.88 Z" />
        </g>
        <g id="Regular-S">
            <path d="M490.973,109.431 C490.973,108.061 490.205,106.805 488.981,106.183 C485.85,104.588 482.496,103.12 478.739,101.693 C472.527,99.311 468,94.716 465.648,88.42 C464.239,84.601 462.79,81.2 461.22,78.025 C460.605,76.787 459.338,76 457.958,76 C456.578,76 455.303,76.787 454.695,78.028 C453.129,81.192 451.684,84.593 450.275,88.406 C447.922,94.713 443.393,99.308 437.192,101.686 C433.412,103.124 430.055,104.591 426.934,106.183 C425.714,106.802 424.946,108.058 424.946,109.427 C424.946,110.796 425.714,112.052 426.938,112.675 C430.076,114.27 433.43,115.741 437.181,117.161 C443.393,119.542 447.919,124.138 450.271,130.437 C451.687,134.271 453.133,137.665 454.695,140.829 C455.311,142.071 456.574,142.858 457.958,142.858 C459.341,142.858 460.609,142.071 461.22,140.829 C462.79,137.665 464.235,134.264 465.641,130.448 C467.997,124.141 472.53,119.546 478.724,117.168 C482.489,115.741 485.843,114.274 488.981,112.679 C490.205,112.056 490.973,110.803 490.973,109.431 Z M476.128,110.366 C468.03,113.472 461.887,119.699 458.813,127.917 C458.529,128.689 458.245,129.439 457.958,130.175 C457.67,129.439 457.386,128.686 457.095,127.903 C454.036,119.703 447.893,113.472 439.777,110.359 C438.961,110.053 438.175,109.74 437.403,109.431 C438.171,109.117 438.968,108.808 439.791,108.495 C447.893,105.385 454.036,99.159 457.098,90.947 C457.386,90.172 457.674,89.418 457.958,88.686 C458.245,89.425 458.533,90.183 458.821,90.958 C461.887,99.162 468.03,105.389 476.139,108.498 C476.954,108.804 477.744,109.117 478.516,109.431 C477.741,109.744 476.943,110.053 476.128,110.366 Z" />
            <path d="M483.552,91.126 C484.481,91.599 485.395,91.989 486.294,92.331 C487.048,92.622 487.576,93.161 487.86,93.915 C488.195,94.836 488.577,95.754 489.04,96.693 C489.648,97.939 490.915,98.733 492.302,98.733 L492.31,98.733 C493.693,98.733 494.96,97.946 495.572,96.704 C496.035,95.769 496.413,94.847 496.752,93.933 C497.043,93.161 497.571,92.622 498.31,92.338 C499.224,91.993 500.135,91.603 501.063,91.13 C502.287,90.511 503.055,89.251 503.055,87.882 C503.055,86.512 502.283,85.256 501.06,84.637 C500.135,84.171 499.224,83.781 498.321,83.435 C497.571,83.148 497.043,82.609 496.756,81.844 C496.413,80.923 496.035,80.002 495.569,79.062 C494.957,77.824 493.69,77.038 492.306,77.038 L492.299,77.038 C490.911,77.038 489.648,77.828 489.036,79.073 C488.577,80.009 488.195,80.93 487.864,81.833 C487.572,82.605 487.044,83.144 486.305,83.428 C485.388,83.778 484.477,84.164 483.549,84.637 C482.325,85.256 481.557,86.512 481.557,87.882 C481.557,89.251 482.325,90.507 483.549,91.126 Z" />
            <path d="M503.059,129.88 C501.904,129.294 500.765,128.806 499.643,128.383 C498.409,127.91 497.509,126.993 497.047,125.747 C496.621,124.597 496.144,123.446 495.569,122.281 C494.953,121.039 493.686,120.252 492.306,120.252 L492.306,120.252 C490.919,120.252 489.651,121.043 489.043,122.288 C488.472,123.453 487.995,124.6 487.58,125.729 C487.106,126.993 486.207,127.91 484.991,128.376 C483.855,128.806 482.711,129.294 481.561,129.884 C480.341,130.506 479.572,131.759 479.572,133.128 C479.572,134.497 480.341,135.75 481.561,136.372 C482.711,136.959 483.847,137.443 484.98,137.876 C486.207,138.346 487.106,139.26 487.572,140.509 C487.995,141.656 488.472,142.807 489.047,143.968 C489.659,145.21 490.922,145.996 492.31,146 L492.31,146 C493.693,146 494.957,145.217 495.572,143.975 C496.151,142.81 496.628,141.66 497.051,140.52 C497.517,139.26 498.416,138.346 499.643,137.876 C500.779,137.443 501.912,136.962 503.062,136.376 C504.286,135.753 505.054,134.497 505.054,133.128 C505.054,131.759 504.286,130.503 503.062,129.88 Z" />
        </g>
        <g id="Black-S">
            <path d="M690.973,109.431 C690.973,108.061 690.205,106.805 688.981,106.183 C685.85,104.588 682.496,103.12 678.739,101.693 C672.526,99.311 668,94.716 665.648,88.42 C664.239,84.601 662.79,81.2 661.22,78.025 C660.605,76.787 659.338,76 657.958,76 C656.578,76 655.303,76.787 654.695,78.028 C653.129,81.192 651.684,84.593 650.275,88.406 C647.922,94.713 643.393,99.308 637.192,101.686 C633.412,103.124 630.055,104.591 626.934,106.183 C625.714,106.802 624.946,108.058 624.946,109.427 C624.946,110.796 625.714,112.052 626.938,112.675 C630.076,114.27 633.43,115.741 637.181,117.161 C643.393,119.542 647.919,124.138 650.271,130.437 C651.687,134.271 653.133,137.665 654.695,140.829 C655.311,142.071 656.574,142.858 657.958,142.858 C659.341,142.858 660.609,142.071 661.22,140.829 C662.79,137.665 664.235,134.264 665.641,130.448 C667.997,124.141 672.53,119.546 678.724,117.168 C682.489,115.741 685.843,114.274 688.981,112.679 C690.205,112.056 690.973,110.803 690.973,109.431 Z M676.128,110.366 C668.03,113.472 661.887,119.699 658.813,127.917 C658.529,128.689 658.245,129.439 657.958,130.175 C657.67,129.439 657.386,128.686 657.095,127.903 C654.036,119.703 647.893,113.472 639.777,110.359 C638.961,110.053 638.175,109.74 637.403,109.431 C638.171,109.117 638.968,108.808 639.791,108.495 C647.893,105.385 654.036,99.159 657.098,90.947 C657.386,90.172 657.674,89.418 657.958,88.686 C658.245,89.425 658.533,90.183 658.821,90.958 C661.887,99.162 668.03,105.389 676.139,108.498 C676.954,108.804 677.745,109.117 678.516,109.431 C677.741,109.744 676.943,110.053 676.128,110.366 Z" />
            <path d="M683.552,91.126 C684.481,91.599 685.395,91.989 686.294,92.331 C687.048,92.622 687.576,93.161 687.86,93.915 C688.195,94.836 688.577,95.754 689.04,96.693 C689.648,97.939 690.915,98.733 692.302,98.733 L692.31,98.733 C693.693,98.733 694.96,97.946 695.572,96.704 C696.035,95.769 696.413,94.847 696.752,93.933 C697.043,93.161 697.571,92.622 698.31,92.338 C699.224,91.993 700.135,91.603 701.063,91.13 C702.287,90.511 703.055,89.251 703.055,87.882 C703.055,86.512 702.283,85.256 701.06,84.637 C700.135,84.171 699.224,83.781 698.321,83.435 C697.571,83.148 697.043,82.609 696.756,81.844 C696.413,80.923 696.035,80.002 695.569,79.062 C694.957,77.824 693.69,77.038 692.306,77.038 L692.299,77.038 C690.911,77.038 689.648,77.828 689.036,79.073 C688.577,80.009 688.195,80.93 687.864,81.833 C687.572,82.605 687.044,83.144 686.305,83.428 C685.388,83.778 684.477,84.164 683.549,84.637 C682.325,85.256 681.557,86.512 681.557,87.882 C681.557,89.251 682.325,90.507 683.549,91.126 Z" />
            <path d="M703.059,129.88 C701.904,129.294 700.765,128.806 699.643,128.383 C698.409,127.91 697.509,126.993 697.047,125.747 C696.621,124.597 696.144,123.446 695.569,122.281 C694.953,121.039 693.686,120.252 692.306,120.252 L692.306,120.252 C690.919,120.252 689.651,121.043 689.043,122.288 C688.472,123.453 687.995,124.6 687.58,125.729 C687.106,126.993 686.207,127.91 684.991,128.376 C683.855,128.806 682.711,129.294 681.561,129.884 C680.341,130.506 679.572,131.759 679.572,133.128 C679.572,134.497 680.341,135.75 681.561,136.372 C682.711,136.959 683.847,137.443 684.98,137.876 C686.207,138.346 687.106,139.26 687.572,140.509 C687.995,141.656 688.472,142.807 689.047,143.968 C689.659,145.21 690.922,145.996 692.31,146 L692.31,146 C693.693,146 694.957,145.217 695.572,143.975 C696.151,142.81 696.628,141.66 697.051,140.52 C697.517,139.26 698.416,138.346 699.643,137.876 C700.779,137.443 701.912,136.962 703.062,136.376 C704.286,135.753 705.054,134.497 705.054,133.128 C705.054,131.759 704.286,130.503 703.062,129.88 Z" />
        </g>
    </g>
</svg>