<?xml version="1.0" encoding="UTF-8"?>
<svg height="600" width="800" xmlns="http://www.w3.org/2000/svg" xmlns:xlink="http://www.w3.org/1999/xlink">
    <g id="Notes" font-family="'LucidaGrande', 'Lucida Grande', sans-serif" font-size="13">
        <rect fill="white" height="600.0" width="800.0" x="0.0" y="0.0" />
        <g font-size="13">
            <text x="18.0" y="176.0">Small</text>
            <text x="18.0" y="376.0">Medium</text>
            <text x="18.0" y="576.0">Large</text>
        </g>
        <g font-size="9">
            <text x="250.0" y="30.0">Ultralight</text>
            <text x="450.0" y="30.0">Regular</text>
            <text x="650.0" y="30.0">Black</text>
            <text id="template-version" fill="#505050" text-anchor="end" x="785.0" y="575.0">Template v.3.0</text>
            <a href="https://wangchujiang.com/#/app">
                <text fill="#505050" text-anchor="end" x="785.0" y="590.0">https://wangchujiang.com/#/app</text>
            </a>
        </g>
    </g>
    <g id="Guides" stroke="rgb(39, 170, 225)" stroke-width="0.5">
        <path id="Capline-S" d="M18,76 l800,0" />
        <path id="H-reference" d="M85,145.755 L87.685,145.755 L113.369,79.287 L114.052,79.287 L114.052,76 L112.148,76 L85,145.755 Z M95.693,121.536 L130.996,121.536 L130.263,119.313 L96.474,119.313 L95.693,121.536 Z M139.15,145.755 L141.787,145.755 L114.638,76 L113.466,76 L113.466,79.287 L139.15,145.755 Z" stroke="none" />
        <path id="Baseline-S" d="M18,146 l800,0" />
        <path id="left-margin-Ultralight-S" d="M220.086,56 l0,110" />
        <path id="right-margin-Ultralight-S" d="M309.914,56 l0,110" />
        <path id="left-margin-Regular-S" d="M420.086,56 l0,110" />
        <path id="right-margin-Regular-S" d="M509.914,56 l0,110" />
        <path id="left-margin-Black-S" d="M620.086,56 l0,110" />
        <path id="right-margin-Black-S" d="M709.914,56 l0,110" />
        <path id="Capline-M" d="M18,276 l800,0" />
        <path id="Baseline-M" d="M18,346 l800,0" />
        <path id="Capline-L" d="M18,476 l800,0" />
        <path id="Baseline-L" d="M18,546 l800,0" />
    </g>
    <g id="Symbols">
        <g id="Ultralight-S">
            <path d="M265.019,76 C265.019,76 264.997,76 264.978,76 C242.555,76.14 230.49,88.225 230.086,111.057 C230.5,133.788 242.568,145.87 265,146 L296.732,146 C298.489,146 299.914,144.575 299.914,142.818 L299.914,110.946 C299.526,88.555 287.136,76.143 265.019,76 Z M265,133.368 C262.365,133.368 260.227,131.23 260.227,128.595 C260.227,125.961 262.365,123.823 265,123.823 C267.635,123.823 269.773,125.961 269.773,128.595 C269.773,131.23 267.635,133.368 265,133.368 Z M268.182,113.673 L268.182,115.394 C268.182,117.15 266.756,118.576 265,118.576 C263.244,118.576 261.818,117.15 261.818,115.394 L261.818,110.777 C261.818,109.027 263.231,107.605 264.981,107.595 C269.429,107.57 271.115,105.852 271.198,101.254 C271.125,96.952 269.264,95.059 264.978,95.03 C260.622,95.056 258.878,96.835 258.799,101.369 C258.767,103.106 257.348,104.493 255.617,104.493 L255.56,104.493 C253.803,104.461 252.403,103.014 252.435,101.254 C252.575,93.3 257.147,88.715 264.978,88.664 C272.735,88.715 277.425,93.42 277.562,101.254 C277.435,108.28 274.135,112.569 268.182,113.67 Z" />
        </g>
        <g id="Regular-S">
            <path d="M465.019,76 C465.019,76 464.997,76 464.978,76 C442.555,76.14 430.49,88.225 430.086,111.057 C430.5,133.788 442.568,145.87 465,146 L496.732,146 C498.489,146 499.914,144.575 499.914,142.818 L499.914,110.946 C499.526,88.555 487.136,76.143 465.019,76 Z M465,133.368 C462.365,133.368 460.227,131.23 460.227,128.595 C460.227,125.961 462.365,123.823 465,123.823 C467.635,123.823 469.773,125.961 469.773,128.595 C469.773,131.23 467.635,133.368 465,133.368 Z M468.182,113.673 L468.182,115.394 C468.182,117.15 466.756,118.576 465,118.576 C463.244,118.576 461.818,117.15 461.818,115.394 L461.818,110.777 C461.818,109.027 463.231,107.605 464.981,107.595 C469.429,107.57 471.115,105.852 471.198,101.254 C471.125,96.952 469.264,95.059 464.978,95.03 C460.622,95.056 458.878,96.835 458.799,101.369 C458.767,103.106 457.348,104.493 455.617,104.493 L455.56,104.493 C453.803,104.461 452.403,103.014 452.435,101.254 C452.575,93.3 457.147,88.715 464.978,88.664 C472.735,88.715 477.425,93.42 477.562,101.254 C477.435,108.28 474.135,112.569 468.182,113.67 Z" />
        </g>
        <g id="Black-S">
            <path d="M665.019,76 C665.019,76 664.997,76 664.978,76 C642.555,76.14 630.49,88.225 630.086,111.057 C630.5,133.788 642.568,145.87 665,146 L696.732,146 C698.489,146 699.914,144.575 699.914,142.818 L699.914,110.946 C699.526,88.555 687.136,76.143 665.019,76 Z M665,133.368 C662.365,133.368 660.227,131.23 660.227,128.595 C660.227,125.961 662.365,123.823 665,123.823 C667.635,123.823 669.773,125.961 669.773,128.595 C669.773,131.23 667.635,133.368 665,133.368 Z M668.182,113.673 L668.182,115.394 C668.182,117.15 666.756,118.576 665,118.576 C663.244,118.576 661.818,117.15 661.818,115.394 L661.818,110.777 C661.818,109.027 663.231,107.605 664.981,107.595 C669.429,107.57 671.115,105.852 671.198,101.254 C671.125,96.952 669.264,95.059 664.978,95.03 C660.622,95.056 658.878,96.835 658.799,101.369 C658.767,103.106 657.348,104.493 655.617,104.493 L655.56,104.493 C653.803,104.461 652.403,103.014 652.435,101.254 C652.575,93.3 657.147,88.715 664.978,88.664 C672.735,88.715 677.425,93.42 677.562,101.254 C677.435,108.28 674.135,112.569 668.182,113.67 Z" />
        </g>
    </g>
</svg>