<?xml version="1.0" encoding="UTF-8"?>
<svg height="600" width="800" xmlns="http://www.w3.org/2000/svg" xmlns:xlink="http://www.w3.org/1999/xlink">
    <g id="Notes" font-family="'LucidaGrande', 'Lucida Grande', sans-serif" font-size="13">
        <rect fill="white" height="600.0" width="800.0" x="0.0" y="0.0" />
        <g font-size="13">
            <text x="18.0" y="176.0">Small</text>
            <text x="18.0" y="376.0">Medium</text>
            <text x="18.0" y="576.0">Large</text>
        </g>
        <g font-size="9">
            <text x="250.0" y="30.0">Ultralight</text>
            <text x="450.0" y="30.0">Regular</text>
            <text x="650.0" y="30.0">Black</text>
            <text id="template-version" fill="#505050" text-anchor="end" x="785.0" y="575.0">Template v.3.0</text>
            <a href="https://wangchujiang.com/#/app">
                <text fill="#505050" text-anchor="end" x="785.0" y="590.0">https://wangchujiang.com/#/app</text>
            </a>
        </g>
    </g>
    <g id="Guides" stroke="rgb(39, 170, 225)" stroke-width="0.5">
        <path id="Capline-S" d="M18,76 l800,0" />
        <path id="H-reference" d="M85,145.755 L87.685,145.755 L113.369,79.287 L114.052,79.287 L114.052,76 L112.148,76 L85,145.755 Z M95.693,121.536 L130.996,121.536 L130.263,119.313 L96.474,119.313 L95.693,121.536 Z M139.15,145.755 L141.787,145.755 L114.638,76 L113.466,76 L113.466,79.287 L139.15,145.755 Z" stroke="none" />
        <path id="Baseline-S" d="M18,146 l800,0" />
        <path id="left-margin-Ultralight-S" d="M212.168,56 l0,110" />
        <path id="right-margin-Ultralight-S" d="M317.832,56 l0,110" />
        <path id="left-margin-Regular-S" d="M412.168,56 l0,110" />
        <path id="right-margin-Regular-S" d="M517.832,56 l0,110" />
        <path id="left-margin-Black-S" d="M612.168,56 l0,110" />
        <path id="right-margin-Black-S" d="M717.832,56 l0,110" />
        <path id="Capline-M" d="M18,276 l800,0" />
        <path id="Baseline-M" d="M18,346 l800,0" />
        <path id="Capline-L" d="M18,476 l800,0" />
        <path id="Baseline-L" d="M18,546 l800,0" />
    </g>
    <g id="Symbols">
        <g id="Ultralight-S">
            <path d="M298.481,82.584 C293.739,78.161 287.533,75.763 281.408,76.02 C275.867,76.249 270.759,78.636 267.021,82.744 L264.992,84.979 L262.964,82.744 C259.226,78.636 254.117,76.249 248.577,76.02 C242.444,75.755 236.242,78.161 231.503,82.584 C227.115,86.681 222.038,94.997 222.17,104.949 C222.299,115.003 227.446,124.608 237.472,133.494 C240.809,136.453 244.753,139.198 249.523,141.892 C254.285,144.579 259.639,146 265,146 C270.362,146 275.715,144.579 280.481,141.892 C285.247,139.202 289.187,136.453 292.528,133.494 C302.55,124.608 307.698,115.003 307.83,104.949 C307.958,94.997 302.881,86.681 298.497,82.584 Z M287.353,127.665 C284.429,130.258 280.925,132.692 276.642,135.11 C269.447,139.171 260.53,139.167 253.346,135.11 C249.06,132.688 245.555,130.254 242.631,127.665 C234.318,120.294 230.055,112.616 229.95,104.848 C229.848,96.921 234.221,90.703 236.818,88.277 C239.894,85.407 243.826,83.791 247.693,83.791 C251.524,83.791 254.842,85.392 257.197,87.985 L262.111,93.389 C263.587,95.013 266.402,95.013 267.874,93.389 L272.787,87.985 C275.143,85.392 278.235,83.943 281.731,83.803 C285.773,83.64 289.943,85.267 293.17,88.277 C295.768,90.703 300.14,96.925 300.039,104.848 C299.938,112.62 295.67,120.294 287.357,127.665 Z" />
        </g>
        <g id="Regular-S">
            <path d="M498.481,82.584 C493.739,78.161 487.533,75.763 481.408,76.02 C475.867,76.249 470.759,78.636 467.021,82.744 L464.992,84.979 L462.964,82.744 C459.226,78.636 454.117,76.249 448.577,76.02 C442.444,75.755 436.242,78.161 431.503,82.584 C427.115,86.681 422.038,94.997 422.17,104.949 C422.299,115.003 427.446,124.608 437.472,133.494 C440.809,136.453 444.753,139.198 449.523,141.892 C454.285,144.579 459.639,146 465,146 C470.362,146 475.715,144.579 480.481,141.892 C485.247,139.202 489.187,136.453 492.528,133.494 C502.55,124.608 507.698,115.003 507.83,104.949 C507.958,94.997 502.881,86.681 498.497,82.584 Z M487.353,127.665 C484.429,130.258 480.925,132.692 476.642,135.11 C469.447,139.171 460.53,139.167 453.346,135.11 C449.06,132.688 445.555,130.254 442.631,127.665 C434.318,120.294 430.055,112.616 429.95,104.848 C429.848,96.921 434.221,90.703 436.818,88.277 C439.894,85.407 443.826,83.791 447.693,83.791 C451.524,83.791 454.842,85.392 457.197,87.985 L462.111,93.389 C463.587,95.013 466.402,95.013 467.874,93.389 L472.787,87.985 C475.143,85.392 478.235,83.943 481.731,83.803 C485.773,83.64 489.943,85.267 493.17,88.277 C495.768,90.703 500.14,96.925 500.039,104.848 C499.938,112.62 495.67,120.294 487.357,127.665 Z" />
        </g>
        <g id="Black-S">
            <path d="M698.481,82.584 C693.739,78.161 687.533,75.763 681.408,76.02 C675.867,76.249 670.759,78.636 667.021,82.744 L664.992,84.979 L662.964,82.744 C659.226,78.636 654.117,76.249 648.577,76.02 C642.444,75.755 636.242,78.161 631.503,82.584 C627.115,86.681 622.038,94.997 622.17,104.949 C622.299,115.003 627.446,124.608 637.472,133.494 C640.809,136.453 644.753,139.198 649.523,141.892 C654.285,144.579 659.639,146 665,146 C670.362,146 675.715,144.579 680.481,141.892 C685.247,139.202 689.187,136.453 692.528,133.494 C702.55,124.608 707.698,115.003 707.83,104.949 C707.958,94.997 702.881,86.681 698.497,82.584 Z M687.353,127.665 C684.429,130.258 680.925,132.692 676.642,135.11 C669.447,139.171 660.53,139.167 653.346,135.11 C649.06,132.688 645.555,130.254 642.631,127.665 C634.318,120.294 630.055,112.616 629.95,104.848 C629.848,96.921 634.221,90.703 636.818,88.277 C639.894,85.407 643.827,83.791 647.693,83.791 C651.524,83.791 654.842,85.392 657.197,87.985 L662.111,93.389 C663.587,95.013 666.402,95.013 667.874,93.389 L672.787,87.985 C675.143,85.392 678.235,83.943 681.731,83.803 C685.773,83.64 689.943,85.267 693.171,88.277 C695.768,90.703 700.14,96.925 700.039,104.848 C699.938,112.62 695.67,120.294 687.357,127.665 Z" />
        </g>
    </g>
</svg>