<?xml version="1.0" encoding="UTF-8"?>
<svg height="600" width="800" xmlns="http://www.w3.org/2000/svg" xmlns:xlink="http://www.w3.org/1999/xlink">
    <g id="Notes" font-family="'LucidaGrande', 'Lucida Grande', sans-serif" font-size="13">
        <rect fill="white" height="600.0" width="800.0" x="0.0" y="0.0" />
        <g font-size="13">
            <text x="18.0" y="176.0">Small</text>
            <text x="18.0" y="376.0">Medium</text>
            <text x="18.0" y="576.0">Large</text>
        </g>
        <g font-size="9">
            <text x="250.0" y="30.0">Ultralight</text>
            <text x="450.0" y="30.0">Regular</text>
            <text x="650.0" y="30.0">Black</text>
            <text id="template-version" fill="#505050" text-anchor="end" x="785.0" y="575.0">Template v.3.0</text>
            <a href="https://wangchujiang.com/#/app">
                <text fill="#505050" text-anchor="end" x="785.0" y="590.0">https://wangchujiang.com/#/app</text>
            </a>
        </g>
    </g>
    <g id="Guides" stroke="rgb(39, 170, 225)" stroke-width="0.5">
        <path id="Capline-S" d="M18,76 l800,0" />
        <path id="H-reference" d="M85,145.755 L87.685,145.755 L113.369,79.287 L114.052,79.287 L114.052,76 L112.148,76 L85,145.755 Z M95.693,121.536 L130.996,121.536 L130.263,119.313 L96.474,119.313 L95.693,121.536 Z M139.15,145.755 L141.787,145.755 L114.638,76 L113.466,76 L113.466,79.287 L139.15,145.755 Z" stroke="none" />
        <path id="Baseline-S" d="M18,146 l800,0" />
        <path id="left-margin-Ultralight-S" d="M211,56 l0,110" />
        <path id="right-margin-Ultralight-S" d="M319,56 l0,110" />
        <path id="left-margin-Regular-S" d="M411,56 l0,110" />
        <path id="right-margin-Regular-S" d="M519,56 l0,110" />
        <path id="left-margin-Black-S" d="M611,56 l0,110" />
        <path id="right-margin-Black-S" d="M719,56 l0,110" />
        <path id="Capline-M" d="M18,276 l800,0" />
        <path id="Baseline-M" d="M18,346 l800,0" />
        <path id="Capline-L" d="M18,476 l800,0" />
        <path id="Baseline-L" d="M18,546 l800,0" />
    </g>
    <g id="Symbols">
        <g id="Ultralight-S">
            <path d="M304.953,88.304 C304.693,87.908 304.361,87.565 303.977,87.285 C303.401,86.869 289.697,77.223 268.943,88.316 C266.999,89.356 266.26,91.779 267.303,93.727 C268.343,95.678 270.766,96.41 272.718,95.37 C282.651,90.06 290.269,90.572 294.751,91.815 L269.942,115.569 C268.451,117.012 266.623,117.756 264.52,117.68 C262.517,117.596 260.653,116.684 259.277,115.113 C256.446,111.878 252.567,110.002 248.361,109.826 C244.174,109.642 240.135,111.19 237.044,114.173 C236.936,114.277 221.932,132.452 221.932,132.452 C220.524,134.155 220.716,136.739 222.472,138.082 C224.947,139.978 227.311,138.498 228.102,137.542 L242.746,119.791 C244.222,118.436 246.081,117.748 248.025,117.82 C250.028,117.904 251.888,118.816 253.263,120.387 C256.094,123.622 259.973,125.498 264.184,125.674 C268.351,125.838 272.418,124.306 275.485,121.339 L300.23,97.65 C301.43,102.416 301.901,110.462 296.775,120.923 C295.803,122.906 296.571,125.406 298.602,126.274 C301.262,127.409 303.261,125.858 303.953,124.442 C314.466,103.004 305.356,88.9 304.961,88.308 Z" />
        </g>
        <g id="Regular-S">
            <path d="M504.953,88.304 C504.693,87.908 504.361,87.565 503.977,87.285 C503.401,86.869 489.697,77.223 468.943,88.316 C466.999,89.356 466.26,91.779 467.303,93.727 C468.343,95.678 470.766,96.41 472.718,95.37 C482.651,90.06 490.269,90.572 494.751,91.815 L469.942,115.569 C468.451,117.012 466.623,117.756 464.52,117.68 C462.517,117.596 460.653,116.684 459.277,115.113 C456.446,111.878 452.567,110.002 448.361,109.826 C444.174,109.642 440.135,111.19 437.044,114.173 C436.936,114.277 421.932,132.452 421.932,132.452 C420.525,134.155 420.716,136.739 422.472,138.082 C424.947,139.978 427.311,138.498 428.102,137.542 L442.746,119.791 C444.222,118.436 446.081,117.748 448.025,117.82 C450.028,117.904 451.888,118.816 453.263,120.387 C456.094,123.622 459.973,125.498 464.184,125.674 C468.351,125.838 472.418,124.306 475.485,121.339 L500.23,97.65 C501.43,102.416 501.901,110.462 496.775,120.923 C495.803,122.906 496.571,125.406 498.602,126.274 C501.262,127.409 503.261,125.858 503.953,124.442 C514.466,103.004 505.356,88.9 504.961,88.308 Z" />
        </g>
        <g id="Black-S">
            <path d="M704.953,88.304 C704.693,87.908 704.361,87.565 703.977,87.285 C703.401,86.869 689.697,77.223 668.943,88.316 C666.999,89.356 666.26,91.779 667.303,93.727 C668.343,95.678 670.766,96.41 672.718,95.37 C682.651,90.06 690.269,90.572 694.751,91.815 L669.943,115.569 C668.451,117.012 666.623,117.756 664.52,117.68 C662.517,117.596 660.653,116.684 659.278,115.113 C656.446,111.878 652.567,110.002 648.361,109.826 C644.174,109.642 640.135,111.19 637.044,114.173 C636.936,114.277 621.932,132.452 621.932,132.452 C620.524,134.155 620.716,136.739 622.472,138.082 C624.947,139.978 627.311,138.498 628.102,137.542 L642.746,119.791 C644.222,118.436 646.081,117.748 648.025,117.82 C650.028,117.904 651.888,118.816 653.263,120.387 C656.094,123.622 659.973,125.498 664.184,125.674 C668.351,125.838 672.418,124.306 675.485,121.339 L700.23,97.65 C701.43,102.416 701.901,110.462 696.775,120.923 C695.803,122.906 696.571,125.406 698.602,126.274 C701.262,127.409 703.261,125.858 703.953,124.442 C714.466,103.004 705.356,88.9 704.961,88.308 Z" />
        </g>
    </g>
</svg>