<?xml version="1.0" encoding="UTF-8"?>
<svg height="600" width="800" xmlns="http://www.w3.org/2000/svg" xmlns:xlink="http://www.w3.org/1999/xlink">
    <g id="Notes" font-family="'LucidaGrande', 'Lucida Grande', sans-serif" font-size="13">
        <rect fill="white" height="600.0" width="800.0" x="0.0" y="0.0" />
        <g font-size="13">
            <text x="18.0" y="176.0">Small</text>
            <text x="18.0" y="376.0">Medium</text>
            <text x="18.0" y="576.0">Large</text>
        </g>
        <g font-size="9">
            <text x="250.0" y="30.0">Ultralight</text>
            <text x="450.0" y="30.0">Regular</text>
            <text x="650.0" y="30.0">Black</text>
            <text id="template-version" fill="#505050" text-anchor="end" x="785.0" y="575.0">Template v.3.0</text>
            <a href="https://wangchujiang.com/#/app">
                <text fill="#505050" text-anchor="end" x="785.0" y="590.0">https://wangchujiang.com/#/app</text>
            </a>
        </g>
    </g>
    <g id="Guides" stroke="rgb(39, 170, 225)" stroke-width="0.5">
        <path id="Capline-S" d="M18,76 l800,0" />
        <path id="H-reference" d="M85,145.755 L87.685,145.755 L113.369,79.287 L114.052,79.287 L114.052,76 L112.148,76 L85,145.755 Z M95.693,121.536 L130.996,121.536 L130.263,119.313 L96.474,119.313 L95.693,121.536 Z M139.15,145.755 L141.787,145.755 L114.638,76 L113.466,76 L113.466,79.287 L139.15,145.755 Z" stroke="none" />
        <path id="Baseline-S" d="M18,146 l800,0" />
        <path id="left-margin-Ultralight-S" d="M220.01,56 l0,110" />
        <path id="right-margin-Ultralight-S" d="M309.99,56 l0,110" />
        <path id="left-margin-Regular-S" d="M420.01,56 l0,110" />
        <path id="right-margin-Regular-S" d="M509.99,56 l0,110" />
        <path id="left-margin-Black-S" d="M620.01,56 l0,110" />
        <path id="right-margin-Black-S" d="M709.99,56 l0,110" />
        <path id="Capline-M" d="M18,276 l800,0" />
        <path id="Baseline-M" d="M18,346 l800,0" />
        <path id="Capline-L" d="M18,476 l800,0" />
        <path id="Baseline-L" d="M18,546 l800,0" />
    </g>
    <g id="Symbols">
        <g id="Ultralight-S">
            <path d="M297.427,102.444 L275.31,80.324 C269.611,74.642 260.389,74.642 254.69,80.324 L232.573,102.444 C230.927,104.08 230.004,106.307 230.01,108.628 L230.01,137.253 C230.01,139.573 230.932,141.797 232.572,143.438 C234.213,145.078 236.438,146 238.758,146 L291.242,146 C293.562,146 295.787,145.078 297.428,143.438 C299.068,141.797 299.99,139.573 299.99,137.253 L299.99,108.628 C299.996,106.307 299.073,104.079 297.427,102.443 Z M273.747,140.168 L256.253,140.168 L256.253,128.698 C256.253,123.866 260.169,119.95 265,119.95 C269.831,119.95 273.747,123.866 273.747,128.698 Z M294.158,137.253 C294.158,138.026 293.851,138.768 293.304,139.314 C292.757,139.861 292.016,140.168 291.242,140.168 L279.579,140.168 L279.579,128.698 C279.579,120.646 273.052,114.118 265,114.118 C256.948,114.118 250.421,120.646 250.421,128.698 L250.421,140.168 L238.758,140.168 C237.984,140.168 237.243,139.861 236.696,139.314 C236.149,138.768 235.842,138.026 235.842,137.253 L235.842,108.628 C235.845,107.855 236.151,107.115 236.696,106.567 L258.813,84.456 C262.234,81.05 267.766,81.05 271.187,84.456 L293.304,106.575 C293.846,107.121 294.153,107.858 294.158,108.628 Z" />
        </g>
        <g id="Regular-S">
            <path d="M497.427,102.444 L475.31,80.324 C469.611,74.642 460.389,74.642 454.69,80.324 L432.573,102.444 C430.927,104.08 430.004,106.307 430.01,108.628 L430.01,137.253 C430.01,139.573 430.932,141.797 432.572,143.438 C434.213,145.078 436.438,146 438.758,146 L491.242,146 C493.562,146 495.787,145.078 497.428,143.438 C499.068,141.797 499.99,139.573 499.99,137.253 L499.99,108.628 C499.996,106.307 499.073,104.079 497.427,102.443 Z M473.747,140.168 L456.253,140.168 L456.253,128.698 C456.253,123.866 460.169,119.95 465,119.95 C469.831,119.95 473.747,123.866 473.747,128.698 Z M494.158,137.253 C494.158,138.026 493.851,138.768 493.304,139.314 C492.757,139.861 492.016,140.168 491.242,140.168 L479.579,140.168 L479.579,128.698 C479.579,120.646 473.052,114.118 465,114.118 C456.948,114.118 450.421,120.646 450.421,128.698 L450.421,140.168 L438.758,140.168 C437.984,140.168 437.243,139.861 436.696,139.314 C436.149,138.768 435.842,138.026 435.842,137.253 L435.842,108.628 C435.845,107.855 436.151,107.115 436.696,106.567 L458.813,84.456 C462.234,81.05 467.766,81.05 471.187,84.456 L493.304,106.575 C493.846,107.121 494.153,107.858 494.158,108.628 Z" />
        </g>
        <g id="Black-S">
            <path d="M697.427,102.444 L675.31,80.324 C669.611,74.642 660.389,74.642 654.69,80.324 L632.573,102.444 C630.927,104.08 630.004,106.307 630.01,108.628 L630.01,137.253 C630.01,139.573 630.932,141.797 632.572,143.438 C634.213,145.078 636.438,146 638.758,146 L691.242,146 C693.562,146 695.787,145.078 697.428,143.438 C699.068,141.797 699.99,139.573 699.99,137.253 L699.99,108.628 C699.996,106.307 699.073,104.079 697.427,102.443 Z M673.747,140.168 L656.253,140.168 L656.253,128.698 C656.253,123.866 660.169,119.95 665,119.95 C669.831,119.95 673.747,123.866 673.747,128.698 Z M694.158,137.253 C694.158,138.026 693.851,138.768 693.304,139.314 C692.757,139.861 692.016,140.168 691.242,140.168 L679.579,140.168 L679.579,128.698 C679.579,120.646 673.052,114.118 665,114.118 C656.948,114.118 650.421,120.646 650.421,128.698 L650.421,140.168 L638.758,140.168 C637.984,140.168 637.243,139.861 636.696,139.314 C636.149,138.768 635.842,138.026 635.842,137.253 L635.842,108.628 C635.844,107.855 636.151,107.115 636.696,106.567 L658.813,84.456 C662.234,81.05 667.766,81.05 671.187,84.456 L693.304,106.575 C693.846,107.121 694.153,107.858 694.158,108.628 Z" />
        </g>
    </g>
</svg>