<?xml version="1.0" encoding="UTF-8"?>
<!--Generator: Apple Native CoreSVG 341-->
<!DOCTYPE svg
PUBLIC "-//W3C//DTD SVG 1.1//EN"
       "http://www.w3.org/Graphics/SVG/1.1/DTD/svg11.dtd">
<svg version="1.1" xmlns="http://www.w3.org/2000/svg" xmlns:xlink="http://www.w3.org/1999/xlink" viewBox="0 0 3300 2200">
 <!--glyph: "", point size: 100.0, font version: "20.0d10e1", template writer version: "138.0.0"-->
 <style>.SFSymbolsPreviewWireframe {fill:none;opacity:1.0;stroke:black;stroke-width:0.5}
</style>
 <g id="Notes">
  <rect height="2200" id="artboard" style="fill:white;opacity:1" width="3300" x="0" y="0"/>
  <line style="fill:none;stroke:black;opacity:1;stroke-width:0.5;" x1="263" x2="3036" y1="292" y2="292"/>
  <text style="stroke:none;fill:black;font-family:sans-serif;font-size:13;font-weight:bold;" transform="matrix(1 0 0 1 263 322)">Weight/Scale Variations</text>
  <text style="stroke:none;fill:black;font-family:sans-serif;font-size:13;text-anchor:middle;" transform="matrix(1 0 0 1 559.711 322)">Ultralight</text>
  <text style="stroke:none;fill:black;font-family:sans-serif;font-size:13;text-anchor:middle;" transform="matrix(1 0 0 1 856.422 322)">Thin</text>
  <text style="stroke:none;fill:black;font-family:sans-serif;font-size:13;text-anchor:middle;" transform="matrix(1 0 0 1 1153.13 322)">Light</text>
  <text style="stroke:none;fill:black;font-family:sans-serif;font-size:13;text-anchor:middle;" transform="matrix(1 0 0 1 1449.84 322)">Regular</text>
  <text style="stroke:none;fill:black;font-family:sans-serif;font-size:13;text-anchor:middle;" transform="matrix(1 0 0 1 1746.56 322)">Medium</text>
  <text style="stroke:none;fill:black;font-family:sans-serif;font-size:13;text-anchor:middle;" transform="matrix(1 0 0 1 2043.27 322)">Semibold</text>
  <text style="stroke:none;fill:black;font-family:sans-serif;font-size:13;text-anchor:middle;" transform="matrix(1 0 0 1 2339.98 322)">Bold</text>
  <text style="stroke:none;fill:black;font-family:sans-serif;font-size:13;text-anchor:middle;" transform="matrix(1 0 0 1 2636.69 322)">Heavy</text>
  <text style="stroke:none;fill:black;font-family:sans-serif;font-size:13;text-anchor:middle;" transform="matrix(1 0 0 1 2933.4 322)">Black</text>
  <line style="fill:none;stroke:black;opacity:1;stroke-width:0.5;" x1="263" x2="3036" y1="1903" y2="1903"/>
  <g transform="matrix(0.2 0 0 0.2 263 1933)">
   <path d="m46.2402 4.15039c21.7773 0 39.4531-17.627 39.4531-39.4043s-17.6758-39.4043-39.4531-39.4043c-21.7285 0-39.4043 17.627-39.4043 39.4043s17.6758 39.4043 39.4043 39.4043Zm0-7.42188c-17.6758 0-31.9336-14.3066-31.9336-31.9824s14.2578-31.9824 31.9336-31.9824 31.9824 14.3066 31.9824 31.9824-14.3066 31.9824-31.9824 31.9824Zm-17.9688-31.9824c0 2.14844 1.51367 3.61328 3.75977 3.61328h10.498v10.5957c0 2.19727 1.46484 3.71094 3.61328 3.71094 2.24609 0 3.71094-1.51367 3.71094-3.71094v-10.5957h10.5957c2.19727 0 3.71094-1.46484 3.71094-3.61328 0-2.19727-1.51367-3.71094-3.71094-3.71094h-10.5957v-10.5469c0-2.24609-1.46484-3.75977-3.71094-3.75977-2.14844 0-3.61328 1.51367-3.61328 3.75977v10.5469h-10.498c-2.24609 0-3.75977 1.51367-3.75977 3.71094Z"/>
  </g>
  <g transform="matrix(0.2 0 0 0.2 281.506 1933)">
   <path d="m58.5449 14.5508c27.4902 0 49.8047-22.3145 49.8047-49.8047s-22.3145-49.8047-49.8047-49.8047-49.8047 22.3145-49.8047 49.8047 22.3145 49.8047 49.8047 49.8047Zm0-8.30078c-22.9492 0-41.5039-18.5547-41.5039-41.5039s18.5547-41.5039 41.5039-41.5039 41.5039 18.5547 41.5039 41.5039-18.5547 41.5039-41.5039 41.5039Zm-22.6562-41.5039c0 2.39258 1.66016 4.00391 4.15039 4.00391h14.3555v14.4043c0 2.44141 1.66016 4.15039 4.05273 4.15039 2.44141 0 4.15039-1.66016 4.15039-4.15039v-14.4043h14.4043c2.44141 0 4.15039-1.61133 4.15039-4.00391 0-2.44141-1.70898-4.15039-4.15039-4.15039h-14.4043v-14.3555c0-2.49023-1.70898-4.19922-4.15039-4.19922-2.39258 0-4.05273 1.70898-4.05273 4.19922v14.3555h-14.3555c-2.49023 0-4.15039 1.70898-4.15039 4.15039Z"/>
  </g>
  <g transform="matrix(0.2 0 0 0.2 304.924 1933)">
   <path d="m74.8535 28.3203c35.1074 0 63.623-28.4668 63.623-63.5742s-28.5156-63.623-63.623-63.623-63.5742 28.5156-63.5742 63.623 28.4668 63.5742 63.5742 63.5742Zm0-9.08203c-30.127 0-54.4922-24.3652-54.4922-54.4922s24.3652-54.4922 54.4922-54.4922 54.4922 24.3652 54.4922 54.4922-24.3652 54.4922-54.4922 54.4922Zm-28.8574-54.4922c0 2.58789 1.85547 4.39453 4.58984 4.39453h19.7266v19.7754c0 2.68555 1.85547 4.58984 4.44336 4.58984 2.68555 0 4.54102-1.85547 4.54102-4.58984v-19.7754h19.7754c2.68555 0 4.58984-1.80664 4.58984-4.39453 0-2.73438-1.85547-4.58984-4.58984-4.58984h-19.7754v-19.7266c0-2.73438-1.85547-4.63867-4.54102-4.63867-2.58789 0-4.44336 1.9043-4.44336 4.63867v19.7266h-19.7266c-2.73438 0-4.58984 1.85547-4.58984 4.58984Z"/>
  </g>
  <text style="stroke:none;fill:black;font-family:sans-serif;font-size:13;font-weight:bold;" transform="matrix(1 0 0 1 263 1953)">Design Variations</text>
  <text style="stroke:none;fill:black;font-family:sans-serif;font-size:13;" transform="matrix(1 0 0 1 263 1971)">Symbols are supported in up to nine weights and three scales.</text>
  <text style="stroke:none;fill:black;font-family:sans-serif;font-size:13;" transform="matrix(1 0 0 1 263 1989)">For optimal layout with text and other symbols, vertically align</text>
  <text style="stroke:none;fill:black;font-family:sans-serif;font-size:13;" transform="matrix(1 0 0 1 263 2007)">symbols with the adjacent text.</text>
  <line style="fill:none;stroke:#00AEEF;stroke-width:0.5;opacity:1.0;" x1="776" x2="776" y1="1919" y2="1933"/>
  <g transform="matrix(0.2 0 0 0.2 776 1933)">
   <path d="m16.5527 0.78125c2.58789 0 3.85742-0.976562 4.78516-3.71094l6.29883-17.2363h28.8086l6.29883 17.2363c0.927734 2.73438 2.19727 3.71094 4.73633 3.71094 2.58789 0 4.24805-1.5625 4.24805-4.00391 0-0.830078-0.146484-1.61133-0.537109-2.63672l-22.9004-60.9863c-1.12305-2.97852-3.125-4.49219-6.25-4.49219-3.02734 0-5.07812 1.46484-6.15234 4.44336l-22.9004 61.084c-0.390625 1.02539-0.537109 1.80664-0.537109 2.63672 0 2.44141 1.5625 3.95508 4.10156 3.95508Zm13.4766-28.3691 11.8652-32.8613h0.244141l11.8652 32.8613Z"/>
  </g>
  <line style="fill:none;stroke:#00AEEF;stroke-width:0.5;opacity:1.0;" x1="792.836" x2="792.836" y1="1919" y2="1933"/>
  <text style="stroke:none;fill:black;font-family:sans-serif;font-size:13;font-weight:bold;" transform="matrix(1 0 0 1 776 1953)">Margins</text>
  <text style="stroke:none;fill:black;font-family:sans-serif;font-size:13;" transform="matrix(1 0 0 1 776 1971)">Leading and trailing margins on the left and right side of each symbol</text>
  <text style="stroke:none;fill:black;font-family:sans-serif;font-size:13;" transform="matrix(1 0 0 1 776 1989)">can be adjusted by modifying the x-location of the margin guidelines.</text>
  <text style="stroke:none;fill:black;font-family:sans-serif;font-size:13;" transform="matrix(1 0 0 1 776 2007)">Modifications are automatically applied proportionally to all</text>
  <text style="stroke:none;fill:black;font-family:sans-serif;font-size:13;" transform="matrix(1 0 0 1 776 2025)">scales and weights.</text>
  <g transform="matrix(0.2 0 0 0.2 1289 1933)">
   <path d="m14.209 9.32617 8.49609 8.54492c4.29688 4.3457 9.22852 4.05273 13.8672-1.07422l53.4668-58.9355-4.83398-4.88281-53.0762 58.3984c-1.75781 2.00195-3.41797 2.49023-5.76172 0.146484l-5.85938-5.81055c-2.34375-2.29492-1.80664-4.00391 0.195312-5.81055l57.373-54.0039-4.88281-4.83398-57.959 54.4434c-4.93164 4.58984-5.32227 9.47266-1.02539 13.8184Zm32.0801-90.9668c-2.09961 2.05078-2.24609 4.93164-1.07422 6.88477 1.17188 1.80664 3.4668 2.97852 6.68945 2.14844 7.32422-1.70898 14.9414-2.00195 22.0703 2.68555l-2.92969 7.27539c-1.70898 4.15039-0.830078 7.08008 1.85547 9.81445l11.4746 11.5723c2.44141 2.44141 4.49219 2.53906 7.32422 2.05078l5.32227-0.976562 3.32031 3.36914-0.195312 2.7832c-0.195312 2.49023 0.439453 4.39453 2.88086 6.78711l3.80859 3.71094c2.39258 2.39258 5.46875 2.53906 7.8125 0.195312l14.5508-14.5996c2.34375-2.34375 2.24609-5.32227-0.146484-7.71484l-3.85742-3.80859c-2.39258-2.39258-4.24805-3.17383-6.64062-2.97852l-2.88086 0.244141-3.22266-3.17383 1.2207-5.61523c0.634766-2.83203-0.146484-5.0293-3.07617-7.95898l-10.9863-10.9375c-16.6992-16.6016-38.8672-16.2109-53.3203-1.75781Zm7.4707 1.85547c12.1582-8.88672 28.6133-7.37305 39.7461 3.75977l12.1582 12.0605c1.17188 1.17188 1.36719 2.09961 1.02539 3.80859l-1.61133 7.42188 7.51953 7.42188 4.93164-0.292969c1.26953-0.0488281 1.66016 0.0488281 2.63672 1.02539l2.88086 2.88086-12.207 12.207-2.88086-2.88086c-0.976562-0.976562-1.12305-1.36719-1.07422-2.68555l0.341797-4.88281-7.4707-7.42188-7.61719 1.26953c-1.61133 0.341797-2.34375 0.195312-3.56445-0.976562l-10.0098-10.0098c-1.26953-1.17188-1.41602-2.00195-0.634766-3.85742l4.39453-10.4492c-7.8125-7.27539-17.9688-10.4004-28.125-7.42188-0.78125 0.195312-1.07422-0.439453-0.439453-0.976562Z"/>
  </g>
  <text style="stroke:none;fill:black;font-family:sans-serif;font-size:13;font-weight:bold;" transform="matrix(1 0 0 1 1289 1953)">Exporting</text>
  <text style="stroke:none;fill:black;font-family:sans-serif;font-size:13;" transform="matrix(1 0 0 1 1289 1971)">Symbols should be outlined when exporting to ensure the</text>
  <text style="stroke:none;fill:black;font-family:sans-serif;font-size:13;" transform="matrix(1 0 0 1 1289 1989)">design is preserved when submitting to Xcode.</text>
  <text id="template-version" style="stroke:none;fill:black;font-family:sans-serif;font-size:13;text-anchor:end;" transform="matrix(1 0 0 1 3036 1933)">Template v.6.0</text>
  <text style="stroke:none;fill:black;font-family:sans-serif;font-size:13;text-anchor:end;" transform="matrix(1 0 0 1 3036 1951)">Requires Xcode 16 or greater</text>
  <text id="descriptive-name" style="stroke:none;fill:black;font-family:sans-serif;font-size:13;text-anchor:end;" transform="matrix(1 0 0 1 3036 1969)">Generated from facebook-like</text>
  <text style="stroke:none;fill:black;font-family:sans-serif;font-size:13;text-anchor:end;" transform="matrix(1 0 0 1 3036 1987)">Typeset at 100.0 points</text>
  <text style="stroke:none;fill:black;font-family:sans-serif;font-size:13;" transform="matrix(1 0 0 1 263 726)">Small</text>
  <text style="stroke:none;fill:black;font-family:sans-serif;font-size:13;" transform="matrix(1 0 0 1 263 1156)">Medium</text>
  <text style="stroke:none;fill:black;font-family:sans-serif;font-size:13;" transform="matrix(1 0 0 1 263 1586)">Large</text>
 </g>
 <g id="Guides">
  <g id="H-reference" style="fill:#27AAE1;stroke:none;" transform="matrix(1 0 0 1 339 696)">
   <path d="M0.993654 0L3.63775 0L29.3281-67.1323L30.0303-67.1323L30.0303-70.459L28.1226-70.459ZM11.6885-24.4799L46.9815-24.4799L46.2315-26.7285L12.4385-26.7285ZM55.1196 0L57.7637 0L30.6382-70.459L29.4326-70.459L29.4326-67.1323Z"/>
  </g>
  <line id="Baseline-S" style="fill:none;stroke:#27AAE1;opacity:1;stroke-width:0.5;" x1="263" x2="3036" y1="696" y2="696"/>
  <line id="Capline-S" style="fill:none;stroke:#27AAE1;opacity:1;stroke-width:0.5;" x1="263" x2="3036" y1="625.541" y2="625.541"/>
  <g id="H-reference" style="fill:#27AAE1;stroke:none;" transform="matrix(1 0 0 1 339 1126)">
   <path d="M0.993654 0L3.63775 0L29.3281-67.1323L30.0303-67.1323L30.0303-70.459L28.1226-70.459ZM11.6885-24.4799L46.9815-24.4799L46.2315-26.7285L12.4385-26.7285ZM55.1196 0L57.7637 0L30.6382-70.459L29.4326-70.459L29.4326-67.1323Z"/>
  </g>
  <line id="Baseline-M" style="fill:none;stroke:#27AAE1;opacity:1;stroke-width:0.5;" x1="263" x2="3036" y1="1126" y2="1126"/>
  <line id="Capline-M" style="fill:none;stroke:#27AAE1;opacity:1;stroke-width:0.5;" x1="263" x2="3036" y1="1055.54" y2="1055.54"/>
  <g id="H-reference" style="fill:#27AAE1;stroke:none;" transform="matrix(1 0 0 1 339 1556)">
   <path d="M0.993654 0L3.63775 0L29.3281-67.1323L30.0303-67.1323L30.0303-70.459L28.1226-70.459ZM11.6885-24.4799L46.9815-24.4799L46.2315-26.7285L12.4385-26.7285ZM55.1196 0L57.7637 0L30.6382-70.459L29.4326-70.459L29.4326-67.1323Z"/>
  </g>
  <line id="Baseline-L" style="fill:none;stroke:#27AAE1;opacity:1;stroke-width:0.5;" x1="263" x2="3036" y1="1556" y2="1556"/>
  <line id="Capline-L" style="fill:none;stroke:#27AAE1;opacity:1;stroke-width:0.5;" x1="263" x2="3036" y1="1485.54" y2="1485.54"/>
  <line id="right-margin-Black-S" style="fill:none;stroke:#00AEEF;stroke-width:0.5;opacity:1.0;" x1="2991.53" x2="2991.53" y1="600.785" y2="720.121"/>
  <line id="left-margin-Black-S" style="fill:none;stroke:#00AEEF;stroke-width:0.5;opacity:1.0;" x1="2875.28" x2="2875.28" y1="600.785" y2="720.121"/>
  <line id="right-margin-Regular-S" style="fill:none;stroke:#00AEEF;stroke-width:0.5;opacity:1.0;" x1="1500.12" x2="1500.12" y1="600.785" y2="720.121"/>
  <line id="left-margin-Regular-S" style="fill:none;stroke:#00AEEF;stroke-width:0.5;opacity:1.0;" x1="1399.57" x2="1399.57" y1="600.785" y2="720.121"/>
  <line id="right-margin-Ultralight-S" style="fill:none;stroke:#00AEEF;stroke-width:0.5;opacity:1.0;" x1="608.036" x2="608.036" y1="600.785" y2="720.121"/>
  <line id="left-margin-Ultralight-S" style="fill:none;stroke:#00AEEF;stroke-width:0.5;opacity:1.0;" x1="511.386" x2="511.386" y1="600.785" y2="720.121"/>
 </g>
 <g id="Symbols">
  <g id="Black-S" transform="matrix(1 0 0 1 2875.28 696)">
   <path class="SFSymbolsPreviewWireframe" d="M106.25-34.3505C106.25-30.5213 104.635-27.759 102.994-25.6957C103.61-23.5424 103.966-20.7024 102.605-16.9907C101.396-13.6924 99.3755-11.5394 97.7825-10.3898C97.6057-8.37347 96.8311-5.23663 94.4392-2.47333C92.0471 0.289856 88.5876 1.54486 80.3257 1.54486L54.9673 1.54486C43.9248 1.54486 46.0588-4.85138 36.4534-4.80072L36.2639-17.9303C46.5203-18.2653 46.6279-11.5856 54.9673-11.5856L74.0249-11.663C77.9619-11.663 81.1414-11.4415 83.0229-12.9197C84.8242-14.3351 85.2102-15.8791 85.2959-17.1229C85.8965-17.5518 88.2725-18.5295 89.2417-20.4682C89.9709-21.9264 90.7742-23.8512 89.8423-27.0278C91.5579-27.502 92.686-30.3459 92.686-32.233C92.686-34.1201 91.926-34.9351 90.0249-36.5087C90.1853-37.7524 90.0137-39.6395 88.5127-41.3122C87.5435-42.3923 86.928-42.942 83.0657-42.942L64.9507-42.942C65.4714-45.6155 66.0933-62.1252 66.0933-65.9301C66.0933-68.84 65.6099-71.2058 64.2375-71.2058C62.908-71.2058 63.251-68.9495 63.251-65.5445C63.251-59.7489 59.3616-53.2203 58.0337-51.0138C56.4641-48.4058 55.8408-43.1665 54.2444-40.8405C48.9573-33.1365 40.145-29.5061 36.4534-29.2175L36.2949-43.2522C37.2771-43.9052 39.6199-43.9914 43.1782-48.2352C44.9333-50.3287 45.3354-54.1309 48.5288-58.6929C50.0054-60.8026 53.7798-66.8951 52.5671-71.8646C50.7607-79.2641 57.1306-84.2051 62.3779-84.2051C70.5405-84.2051 76.3372-76.8149 76.3372-67.2328C76.3372-63.428 76.177-59.1841 75.6401-56.2865L90.2966-56.2865C94.8953-56.2865 98.3799-54.4496 100.784-51.204C102.788-48.4978 103.009-45.1938 102.946-43.1613C104.75-41.5298 106.25-38.3221 106.25-34.3505ZM31-49.2051C36.7991-49.2051 41.5-44.5041 41.5-38.7051L41.5-3.70514C41.5 2.09387 36.7991 6.79486 31 6.79486L20.5 6.79486C14.7009 6.79486 10 2.09387 10-3.70514L10-38.7051C10-44.5041 14.7009-49.2051 20.5-49.2051L31-49.2051ZM27.5-8.08014L27.5-34.3301C27.5-34.8134 27.1082-35.2051 26.625-35.2051L24.875-35.2051C24.3918-35.2051 24-34.8134 24-34.3301L24-8.08014C24-7.59686 24.3918-7.20514 24.875-7.20514L26.625-7.20514C27.1082-7.20514 27.5-7.59686 27.5-8.08014Z"/>
  </g>
  <g id="Regular-S" transform="matrix(1 0 0 1 1399.57 696)">
   <path class="SFSymbolsPreviewWireframe" d="M90.55-35.2539C90.55-31.8168 89.1007-29.3373 87.6273-27.4854C88.1805-25.5524 88.5-23.0032 87.2783-19.6716C86.1929-16.7111 84.3794-14.7785 82.9496-13.7466C82.7909-11.9367 82.0956-9.12103 79.9486-6.64069C77.8013-4.1604 74.6962-3.03387 67.28-3.03387L44.5183-3.03387C34.6064-3.03387 36.5219-8.77527 27.9-8.7298L27.73-15.2769C36.9362-15.5776 37.0327-9.58185 44.5183-9.58185L65.49-9.65131C72.8225-9.69995 74.3344-10.1248 75.7557-11.7349C77.1417-13.3045 76.5604-15.0823 76.6932-17.3604C78.1232-18.3923 80.1616-18.7612 81.2076-21.7359C82.1359-24.3757 81.8357-25.8297 80.9993-28.681C82.3578-30.7466 84.0386-31.9791 84.0552-35.4161C84.0696-38.433 83.0531-39.1796 81.3466-40.592C81.5896-43.5784 82.1199-45.2939 80.6173-46.9468C79.2283-48.4747 77.7976-48.5095 74.3308-48.5095L55.1404-48.5095C55.608-50.9092 57.3557-60.4605 57.3557-63.8757C57.3557-69.1775 55.1404-73.2756 52.3846-73.2756C48.8538-73.2756 50.7096-69.2515 50.7096-66.1951C50.7096-60.9929 46.4983-54.0751 45.3063-52.0945C43.8973-49.7536 43.3892-46.0775 41.9563-43.9896C37.2106-37.0744 31.2136-35.7654 27.9-35.5063L27.9-41.5607C28.7817-42.1469 32.3807-43.4304 35.5748-47.2396C37.1503-49.1188 37.818-53.3647 40.6844-57.4597C42.0099-59.3533 44.6135-64.4662 43.525-68.9269C41.9037-75.5688 46.46-80.0039 51.17-80.0039C58.4969-80.0039 63.7001-73.3704 63.7001-64.7695C63.7001-61.3542 63.5563-57.5448 63.0742-54.9439L76.2301-54.9439C80.3578-54.9439 83.4857-53.295 85.6437-50.3818C87.4429-47.9527 87.6409-44.987 87.5841-43.1626C89.2034-41.6982 90.55-38.8189 90.55-35.2539ZM26.1101-47.7839C30.0645-47.7839 33.27-44.5782 33.27-40.6239L33.27-4.82391C33.27-0.869507 30.0645 2.33612 26.1101 2.33612L17.16 2.33612C13.2057 2.33612 10-0.869507 10-4.82391L10-40.6239C10-44.5782 13.2057-47.7839 17.16-47.7839L26.1101-47.7839ZM26.1101-6.61389L26.1101-38.8339C26.1101-39.8225 25.3086-40.6239 24.3201-40.6239L18.9501-40.6239C17.9614-40.6239 17.16-39.8225 17.16-38.8339L17.16-6.61389C17.16-5.62531 17.9614-4.82391 18.9501-4.82391L24.3201-4.82391C25.3086-4.82391 26.1101-5.62531 26.1101-6.61389Z"/>
  </g>
  <g id="Ultralight-S" transform="matrix(1 0 0 1 511.386 696)">
   <path class="SFSymbolsPreviewWireframe" d="M86.65-33.8027C86.65-30.6733 85.3304-28.5427 83.9888-26.8565C84.4925-25.0967 84.8239-22.4657 83.7238-19.6072C82.6929-16.9277 81.0317-15.2871 79.73-14.3476C79.5856-12.6997 79.1128-10.3729 77.674-8.60712C75.3693-5.77655 72.4504-4.59387 65.6982-4.59387L44.6995-4.59387C38.3223-4.67853 33.5516-9.58929 30.8196-9.77991L30.8196-11.844C35.6494-11.2109 38.9243-6.78387 44.6995-6.78387L65.6982-6.78387C72.2682-6.78387 74.0676-7.79938 75.9759-9.98987C77.351-11.5682 77.4915-13.8891 77.6358-15.5369C79.1567-16.6008 80.6948-17.9048 81.5977-20.1118C82.8016-23.0551 82.0769-25.5779 81.5732-27.3377C82.9149-29.0239 84.46-30.7789 84.46-33.8027C84.46-37.0485 83.3744-38.4159 82.0919-39.5967C82.1433-41.2579 82.3657-44.4063 80.7521-46.6522C79.5077-48.3843 77.0835-48.3939 74.7038-48.3939L58.9982-48.3939C59.7132-51.8783 60.3317-57.6937 60.3317-60.8031C60.3317-68.6342 56.4957-72.4839 52.1176-72.4839C47.6924-72.4839 46.627-69.6769 47.566-64.5884C48.4521-59.7879 46.106-55.2969 44.9442-53.7105C42.1481-49.8929 40.5649-44.7731 38.8221-43.075C37.0617-41.3599 33.438-38.8344 30.8196-37.8291L30.8196-39.672C30.8196-40.4148 35.6372-42.6932 37.4763-44.8425C38.928-46.539 39.7813-50.6152 42.6372-54.1586C43.2311-54.8953 46.3812-59.6472 45.376-64.5884C44.3445-69.659 45.6648-74.6739 52.1176-74.6739C58.7888-74.6739 62.5217-68.6342 62.5217-60.8031C62.5217-57.6937 62.0726-52.9519 61.6337-50.5839L74.7886-50.5839C76.4821-50.5839 80.7498-50.8057 82.718-47.7582C84.1818-45.4917 84.36-42.194 84.3085-40.533C85.5911-39.3521 86.65-37.0485 86.65-33.8027ZM25.33-48.3939C28.9586-48.3939 31.9-45.4524 31.9-41.8239L31.9-6.78387C31.9-3.15533 28.9586-0.213867 25.33-0.213867L16.57-0.213867C12.9415-0.213867 10-3.15533 10-6.78387L10-41.8239C10-45.4524 12.9415-48.3939 16.57-48.3939L25.33-48.3939ZM29.71-6.78387L29.71-41.8239C29.71-44.243 27.749-46.2039 25.33-46.2039L16.57-46.2039C14.1511-46.2039 12.19-44.243 12.19-41.8239L12.19-6.78387C12.19-4.36493 14.1511-2.40387 16.57-2.40387L25.33-2.40387C27.749-2.40387 29.71-4.36493 29.71-6.78387Z"/>
  </g>
 </g>
</svg>
