<?xml version="1.0" encoding="UTF-8"?>
<svg height="600" width="800" xmlns="http://www.w3.org/2000/svg" xmlns:xlink="http://www.w3.org/1999/xlink">
    <g id="Notes" font-family="'LucidaGrande', 'Lucida Grande', sans-serif" font-size="13">
        <rect fill="white" height="600.0" width="800.0" x="0.0" y="0.0" />
        <g font-size="13">
            <text x="18.0" y="176.0">Small</text>
            <text x="18.0" y="376.0">Medium</text>
            <text x="18.0" y="576.0">Large</text>
        </g>
        <g font-size="9">
            <text x="250.0" y="30.0">Ultralight</text>
            <text x="450.0" y="30.0">Regular</text>
            <text x="650.0" y="30.0">Black</text>
            <text id="template-version" fill="#505050" text-anchor="end" x="785.0" y="575.0">Template v.3.0</text>
            <a href="https://wangchujiang.com/#/app">
                <text fill="#505050" text-anchor="end" x="785.0" y="590.0">https://wangchujiang.com/#/app</text>
            </a>
        </g>
    </g>
    <g id="Guides" stroke="rgb(39, 170, 225)" stroke-width="0.5">
        <path id="Capline-S" d="M18,76 l800,0" />
        <path id="H-reference" d="M85,145.755 L87.685,145.755 L113.369,79.287 L114.052,79.287 L114.052,76 L112.148,76 L85,145.755 Z M95.693,121.536 L130.996,121.536 L130.263,119.313 L96.474,119.313 L95.693,121.536 Z M139.15,145.755 L141.787,145.755 L114.638,76 L113.466,76 L113.466,79.287 L139.15,145.755 Z" stroke="none" />
        <path id="Baseline-S" d="M18,146 l800,0" />
        <path id="left-margin-Ultralight-S" d="M221,56 l0,110" />
        <path id="right-margin-Ultralight-S" d="M309,56 l0,110" />
        <path id="left-margin-Regular-S" d="M421,56 l0,110" />
        <path id="right-margin-Regular-S" d="M509,56 l0,110" />
        <path id="left-margin-Black-S" d="M621,56 l0,110" />
        <path id="right-margin-Black-S" d="M709,56 l0,110" />
        <path id="Capline-M" d="M18,276 l800,0" />
        <path id="Baseline-M" d="M18,346 l800,0" />
        <path id="Capline-L" d="M18,476 l800,0" />
        <path id="Baseline-L" d="M18,546 l800,0" />
    </g>
    <g id="Symbols">
        <g id="Ultralight-S">
            <path d="M298.027,123.244 L290.446,95.922 C287.116,83.897 276.023,75.684 263.549,76.009 C251.075,76.334 240.425,85.113 237.724,97.296 L231.861,123.681 C231.287,126.271 231.918,128.981 233.577,131.05 C235.237,133.118 237.746,134.323 240.398,134.323 L250.914,134.323 C252.294,141.117 258.268,146 265.201,146 C272.133,146 278.107,141.117 279.487,134.323 L289.604,134.323 C292.335,134.322 294.909,133.045 296.562,130.871 C298.215,128.697 298.758,125.876 298.03,123.244 Z M265.201,140.154 C261.507,140.139 258.222,137.805 256.99,134.323 L273.411,134.323 C272.18,137.805 268.894,140.139 265.201,140.154 Z M291.922,127.34 C291.37,128.072 290.505,128.499 289.589,128.492 L240.398,128.492 C239.514,128.492 238.677,128.09 238.124,127.401 C237.571,126.711 237.361,125.807 237.552,124.944 L243.416,98.558 C245.541,88.997 253.901,82.11 263.693,81.853 C273.484,81.597 282.193,88.037 284.817,97.473 L292.397,124.795 C292.648,125.671 292.472,126.614 291.922,127.34 Z" />
        </g>
        <g id="Regular-S">
            <path d="M498.027,123.244 L490.446,95.922 C487.116,83.897 476.023,75.684 463.549,76.009 C451.075,76.334 440.425,85.113 437.724,97.296 L431.861,123.681 C431.287,126.271 431.918,128.981 433.577,131.05 C435.237,133.118 437.746,134.323 440.398,134.323 L450.914,134.323 C452.294,141.117 458.268,146 465.201,146 C472.133,146 478.107,141.117 479.487,134.323 L489.604,134.323 C492.335,134.322 494.909,133.045 496.562,130.871 C498.215,128.697 498.758,125.876 498.03,123.244 Z M465.201,140.154 C461.507,140.139 458.222,137.805 456.99,134.323 L473.411,134.323 C472.18,137.805 468.894,140.139 465.201,140.154 Z M491.922,127.34 C491.37,128.072 490.505,128.499 489.589,128.492 L440.398,128.492 C439.514,128.492 438.677,128.09 438.124,127.401 C437.571,126.711 437.361,125.807 437.552,124.944 L443.416,98.558 C445.541,88.997 453.901,82.11 463.693,81.853 C473.484,81.597 482.193,88.037 484.817,97.473 L492.397,124.795 C492.648,125.671 492.472,126.614 491.922,127.34 Z" />
        </g>
        <g id="Black-S">
            <path d="M698.027,123.244 L690.446,95.922 C687.116,83.897 676.023,75.684 663.549,76.009 C651.075,76.334 640.425,85.113 637.724,97.296 L631.861,123.681 C631.287,126.271 631.918,128.981 633.577,131.05 C635.237,133.118 637.746,134.323 640.398,134.323 L650.914,134.323 C652.294,141.117 658.268,146 665.201,146 C672.133,146 678.107,141.117 679.487,134.323 L689.604,134.323 C692.335,134.322 694.909,133.045 696.562,130.871 C698.215,128.697 698.758,125.876 698.03,123.244 Z M665.201,140.154 C661.507,140.139 658.221,137.805 656.99,134.323 L673.411,134.323 C672.18,137.805 668.894,140.139 665.201,140.154 Z M691.922,127.34 C691.37,128.072 690.505,128.499 689.589,128.492 L640.398,128.492 C639.514,128.492 638.677,128.09 638.124,127.401 C637.571,126.711 637.36,125.807 637.552,124.944 L643.416,98.558 C645.541,88.997 653.901,82.11 663.693,81.853 C673.484,81.597 682.193,88.037 684.817,97.473 L692.397,124.795 C692.648,125.671 692.472,126.614 691.922,127.34 Z" />
        </g>
    </g>
</svg>