<?xml version="1.0" encoding="UTF-8"?>
<!--Generator: Apple Native CoreSVG 341-->
<!DOCTYPE svg
PUBLIC "-//W3C//DTD SVG 1.1//EN"
       "http://www.w3.org/Graphics/SVG/1.1/DTD/svg11.dtd">
<svg version="1.1" xmlns="http://www.w3.org/2000/svg" xmlns:xlink="http://www.w3.org/1999/xlink" viewBox="0 0 3300 2200">
 <!--glyph: "", point size: 100.0, font version: "20.0d10e1", template writer version: "138.0.0"-->
 <style>.SFSymbolsPreviewWireframe {fill:none;opacity:1.0;stroke:black;stroke-width:0.5}
</style>
 <g id="Notes">
  <rect height="2200" id="artboard" style="fill:white;opacity:1" width="3300" x="0" y="0"/>
  <line style="fill:none;stroke:black;opacity:1;stroke-width:0.5;" x1="263" x2="3036" y1="292" y2="292"/>
  <text style="stroke:none;fill:black;font-family:sans-serif;font-size:13;font-weight:bold;" transform="matrix(1 0 0 1 263 322)">Weight/Scale Variations</text>
  <text style="stroke:none;fill:black;font-family:sans-serif;font-size:13;text-anchor:middle;" transform="matrix(1 0 0 1 559.711 322)">Ultralight</text>
  <text style="stroke:none;fill:black;font-family:sans-serif;font-size:13;text-anchor:middle;" transform="matrix(1 0 0 1 856.422 322)">Thin</text>
  <text style="stroke:none;fill:black;font-family:sans-serif;font-size:13;text-anchor:middle;" transform="matrix(1 0 0 1 1153.13 322)">Light</text>
  <text style="stroke:none;fill:black;font-family:sans-serif;font-size:13;text-anchor:middle;" transform="matrix(1 0 0 1 1449.84 322)">Regular</text>
  <text style="stroke:none;fill:black;font-family:sans-serif;font-size:13;text-anchor:middle;" transform="matrix(1 0 0 1 1746.56 322)">Medium</text>
  <text style="stroke:none;fill:black;font-family:sans-serif;font-size:13;text-anchor:middle;" transform="matrix(1 0 0 1 2043.27 322)">Semibold</text>
  <text style="stroke:none;fill:black;font-family:sans-serif;font-size:13;text-anchor:middle;" transform="matrix(1 0 0 1 2339.98 322)">Bold</text>
  <text style="stroke:none;fill:black;font-family:sans-serif;font-size:13;text-anchor:middle;" transform="matrix(1 0 0 1 2636.69 322)">Heavy</text>
  <text style="stroke:none;fill:black;font-family:sans-serif;font-size:13;text-anchor:middle;" transform="matrix(1 0 0 1 2933.4 322)">Black</text>
  <line style="fill:none;stroke:black;opacity:1;stroke-width:0.5;" x1="263" x2="3036" y1="1903" y2="1903"/>
  <g transform="matrix(0.2 0 0 0.2 263 1933)">
   <path d="m46.2402 4.15039c21.7773 0 39.4531-17.627 39.4531-39.4043s-17.6758-39.4043-39.4531-39.4043c-21.7285 0-39.4043 17.627-39.4043 39.4043s17.6758 39.4043 39.4043 39.4043Zm0-7.42188c-17.6758 0-31.9336-14.3066-31.9336-31.9824s14.2578-31.9824 31.9336-31.9824 31.9824 14.3066 31.9824 31.9824-14.3066 31.9824-31.9824 31.9824Zm-17.9688-31.9824c0 2.14844 1.51367 3.61328 3.75977 3.61328h10.498v10.5957c0 2.19727 1.46484 3.71094 3.61328 3.71094 2.24609 0 3.71094-1.51367 3.71094-3.71094v-10.5957h10.5957c2.19727 0 3.71094-1.46484 3.71094-3.61328 0-2.19727-1.51367-3.71094-3.71094-3.71094h-10.5957v-10.5469c0-2.24609-1.46484-3.75977-3.71094-3.75977-2.14844 0-3.61328 1.51367-3.61328 3.75977v10.5469h-10.498c-2.24609 0-3.75977 1.51367-3.75977 3.71094Z"/>
  </g>
  <g transform="matrix(0.2 0 0 0.2 281.506 1933)">
   <path d="m58.5449 14.5508c27.4902 0 49.8047-22.3145 49.8047-49.8047s-22.3145-49.8047-49.8047-49.8047-49.8047 22.3145-49.8047 49.8047 22.3145 49.8047 49.8047 49.8047Zm0-8.30078c-22.9492 0-41.5039-18.5547-41.5039-41.5039s18.5547-41.5039 41.5039-41.5039 41.5039 18.5547 41.5039 41.5039-18.5547 41.5039-41.5039 41.5039Zm-22.6562-41.5039c0 2.39258 1.66016 4.00391 4.15039 4.00391h14.3555v14.4043c0 2.44141 1.66016 4.15039 4.05273 4.15039 2.44141 0 4.15039-1.66016 4.15039-4.15039v-14.4043h14.4043c2.44141 0 4.15039-1.61133 4.15039-4.00391 0-2.44141-1.70898-4.15039-4.15039-4.15039h-14.4043v-14.3555c0-2.49023-1.70898-4.19922-4.15039-4.19922-2.39258 0-4.05273 1.70898-4.05273 4.19922v14.3555h-14.3555c-2.49023 0-4.15039 1.70898-4.15039 4.15039Z"/>
  </g>
  <g transform="matrix(0.2 0 0 0.2 304.924 1933)">
   <path d="m74.8535 28.3203c35.1074 0 63.623-28.4668 63.623-63.5742s-28.5156-63.623-63.623-63.623-63.5742 28.5156-63.5742 63.623 28.4668 63.5742 63.5742 63.5742Zm0-9.08203c-30.127 0-54.4922-24.3652-54.4922-54.4922s24.3652-54.4922 54.4922-54.4922 54.4922 24.3652 54.4922 54.4922-24.3652 54.4922-54.4922 54.4922Zm-28.8574-54.4922c0 2.58789 1.85547 4.39453 4.58984 4.39453h19.7266v19.7754c0 2.68555 1.85547 4.58984 4.44336 4.58984 2.68555 0 4.54102-1.85547 4.54102-4.58984v-19.7754h19.7754c2.68555 0 4.58984-1.80664 4.58984-4.39453 0-2.73438-1.85547-4.58984-4.58984-4.58984h-19.7754v-19.7266c0-2.73438-1.85547-4.63867-4.54102-4.63867-2.58789 0-4.44336 1.9043-4.44336 4.63867v19.7266h-19.7266c-2.73438 0-4.58984 1.85547-4.58984 4.58984Z"/>
  </g>
  <text style="stroke:none;fill:black;font-family:sans-serif;font-size:13;font-weight:bold;" transform="matrix(1 0 0 1 263 1953)">Design Variations</text>
  <text style="stroke:none;fill:black;font-family:sans-serif;font-size:13;" transform="matrix(1 0 0 1 263 1971)">Symbols are supported in up to nine weights and three scales.</text>
  <text style="stroke:none;fill:black;font-family:sans-serif;font-size:13;" transform="matrix(1 0 0 1 263 1989)">For optimal layout with text and other symbols, vertically align</text>
  <text style="stroke:none;fill:black;font-family:sans-serif;font-size:13;" transform="matrix(1 0 0 1 263 2007)">symbols with the adjacent text.</text>
  <line style="fill:none;stroke:#00AEEF;stroke-width:0.5;opacity:1.0;" x1="776" x2="776" y1="1919" y2="1933"/>
  <g transform="matrix(0.2 0 0 0.2 776 1933)">
   <path d="m16.5527 0.78125c2.58789 0 3.85742-0.976562 4.78516-3.71094l6.29883-17.2363h28.8086l6.29883 17.2363c0.927734 2.73438 2.19727 3.71094 4.73633 3.71094 2.58789 0 4.24805-1.5625 4.24805-4.00391 0-0.830078-0.146484-1.61133-0.537109-2.63672l-22.9004-60.9863c-1.12305-2.97852-3.125-4.49219-6.25-4.49219-3.02734 0-5.07812 1.46484-6.15234 4.44336l-22.9004 61.084c-0.390625 1.02539-0.537109 1.80664-0.537109 2.63672 0 2.44141 1.5625 3.95508 4.10156 3.95508Zm13.4766-28.3691 11.8652-32.8613h0.244141l11.8652 32.8613Z"/>
  </g>
  <line style="fill:none;stroke:#00AEEF;stroke-width:0.5;opacity:1.0;" x1="792.836" x2="792.836" y1="1919" y2="1933"/>
  <text style="stroke:none;fill:black;font-family:sans-serif;font-size:13;font-weight:bold;" transform="matrix(1 0 0 1 776 1953)">Margins</text>
  <text style="stroke:none;fill:black;font-family:sans-serif;font-size:13;" transform="matrix(1 0 0 1 776 1971)">Leading and trailing margins on the left and right side of each symbol</text>
  <text style="stroke:none;fill:black;font-family:sans-serif;font-size:13;" transform="matrix(1 0 0 1 776 1989)">can be adjusted by modifying the x-location of the margin guidelines.</text>
  <text style="stroke:none;fill:black;font-family:sans-serif;font-size:13;" transform="matrix(1 0 0 1 776 2007)">Modifications are automatically applied proportionally to all</text>
  <text style="stroke:none;fill:black;font-family:sans-serif;font-size:13;" transform="matrix(1 0 0 1 776 2025)">scales and weights.</text>
  <g transform="matrix(0.2 0 0 0.2 1289 1933)">
   <path d="m14.209 9.32617 8.49609 8.54492c4.29688 4.3457 9.22852 4.05273 13.8672-1.07422l53.4668-58.9355-4.83398-4.88281-53.0762 58.3984c-1.75781 2.00195-3.41797 2.49023-5.76172 0.146484l-5.85938-5.81055c-2.34375-2.29492-1.80664-4.00391 0.195312-5.81055l57.373-54.0039-4.88281-4.83398-57.959 54.4434c-4.93164 4.58984-5.32227 9.47266-1.02539 13.8184Zm32.0801-90.9668c-2.09961 2.05078-2.24609 4.93164-1.07422 6.88477 1.17188 1.80664 3.4668 2.97852 6.68945 2.14844 7.32422-1.70898 14.9414-2.00195 22.0703 2.68555l-2.92969 7.27539c-1.70898 4.15039-0.830078 7.08008 1.85547 9.81445l11.4746 11.5723c2.44141 2.44141 4.49219 2.53906 7.32422 2.05078l5.32227-0.976562 3.32031 3.36914-0.195312 2.7832c-0.195312 2.49023 0.439453 4.39453 2.88086 6.78711l3.80859 3.71094c2.39258 2.39258 5.46875 2.53906 7.8125 0.195312l14.5508-14.5996c2.34375-2.34375 2.24609-5.32227-0.146484-7.71484l-3.85742-3.80859c-2.39258-2.39258-4.24805-3.17383-6.64062-2.97852l-2.88086 0.244141-3.22266-3.17383 1.2207-5.61523c0.634766-2.83203-0.146484-5.0293-3.07617-7.95898l-10.9863-10.9375c-16.6992-16.6016-38.8672-16.2109-53.3203-1.75781Zm7.4707 1.85547c12.1582-8.88672 28.6133-7.37305 39.7461 3.75977l12.1582 12.0605c1.17188 1.17188 1.36719 2.09961 1.02539 3.80859l-1.61133 7.42188 7.51953 7.42188 4.93164-0.292969c1.26953-0.0488281 1.66016 0.0488281 2.63672 1.02539l2.88086 2.88086-12.207 12.207-2.88086-2.88086c-0.976562-0.976562-1.12305-1.36719-1.07422-2.68555l0.341797-4.88281-7.4707-7.42188-7.61719 1.26953c-1.61133 0.341797-2.34375 0.195312-3.56445-0.976562l-10.0098-10.0098c-1.26953-1.17188-1.41602-2.00195-0.634766-3.85742l4.39453-10.4492c-7.8125-7.27539-17.9688-10.4004-28.125-7.42188-0.78125 0.195312-1.07422-0.439453-0.439453-0.976562Z"/>
  </g>
  <text style="stroke:none;fill:black;font-family:sans-serif;font-size:13;font-weight:bold;" transform="matrix(1 0 0 1 1289 1953)">Exporting</text>
  <text style="stroke:none;fill:black;font-family:sans-serif;font-size:13;" transform="matrix(1 0 0 1 1289 1971)">Symbols should be outlined when exporting to ensure the</text>
  <text style="stroke:none;fill:black;font-family:sans-serif;font-size:13;" transform="matrix(1 0 0 1 1289 1989)">design is preserved when submitting to Xcode.</text>
  <text id="template-version" style="stroke:none;fill:black;font-family:sans-serif;font-size:13;text-anchor:end;" transform="matrix(1 0 0 1 3036 1933)">Template v.6.0</text>
  <text style="stroke:none;fill:black;font-family:sans-serif;font-size:13;text-anchor:end;" transform="matrix(1 0 0 1 3036 1951)">Requires Xcode 16 or greater</text>
  <text id="descriptive-name" style="stroke:none;fill:black;font-family:sans-serif;font-size:13;text-anchor:end;" transform="matrix(1 0 0 1 3036 1969)">Generated from weibo</text>
  <text style="stroke:none;fill:black;font-family:sans-serif;font-size:13;text-anchor:end;" transform="matrix(1 0 0 1 3036 1987)">Typeset at 100.0 points</text>
  <text style="stroke:none;fill:black;font-family:sans-serif;font-size:13;" transform="matrix(1 0 0 1 263 726)">Small</text>
  <text style="stroke:none;fill:black;font-family:sans-serif;font-size:13;" transform="matrix(1 0 0 1 263 1156)">Medium</text>
  <text style="stroke:none;fill:black;font-family:sans-serif;font-size:13;" transform="matrix(1 0 0 1 263 1586)">Large</text>
 </g>
 <g id="Guides">
  <g id="H-reference" style="fill:#27AAE1;stroke:none;" transform="matrix(1 0 0 1 339 696)">
   <path d="M0.993654 0L3.63775 0L29.3281-67.1323L30.0303-67.1323L30.0303-70.459L28.1226-70.459ZM11.6885-24.4799L46.9815-24.4799L46.2315-26.7285L12.4385-26.7285ZM55.1196 0L57.7637 0L30.6382-70.459L29.4326-70.459L29.4326-67.1323Z"/>
  </g>
  <line id="Baseline-S" style="fill:none;stroke:#27AAE1;opacity:1;stroke-width:0.5;" x1="263" x2="3036" y1="696" y2="696"/>
  <line id="Capline-S" style="fill:none;stroke:#27AAE1;opacity:1;stroke-width:0.5;" x1="263" x2="3036" y1="625.541" y2="625.541"/>
  <g id="H-reference" style="fill:#27AAE1;stroke:none;" transform="matrix(1 0 0 1 339 1126)">
   <path d="M0.993654 0L3.63775 0L29.3281-67.1323L30.0303-67.1323L30.0303-70.459L28.1226-70.459ZM11.6885-24.4799L46.9815-24.4799L46.2315-26.7285L12.4385-26.7285ZM55.1196 0L57.7637 0L30.6382-70.459L29.4326-70.459L29.4326-67.1323Z"/>
  </g>
  <line id="Baseline-M" style="fill:none;stroke:#27AAE1;opacity:1;stroke-width:0.5;" x1="263" x2="3036" y1="1126" y2="1126"/>
  <line id="Capline-M" style="fill:none;stroke:#27AAE1;opacity:1;stroke-width:0.5;" x1="263" x2="3036" y1="1055.54" y2="1055.54"/>
  <g id="H-reference" style="fill:#27AAE1;stroke:none;" transform="matrix(1 0 0 1 339 1556)">
   <path d="M0.993654 0L3.63775 0L29.3281-67.1323L30.0303-67.1323L30.0303-70.459L28.1226-70.459ZM11.6885-24.4799L46.9815-24.4799L46.2315-26.7285L12.4385-26.7285ZM55.1196 0L57.7637 0L30.6382-70.459L29.4326-70.459L29.4326-67.1323Z"/>
  </g>
  <line id="Baseline-L" style="fill:none;stroke:#27AAE1;opacity:1;stroke-width:0.5;" x1="263" x2="3036" y1="1556" y2="1556"/>
  <line id="Capline-L" style="fill:none;stroke:#27AAE1;opacity:1;stroke-width:0.5;" x1="263" x2="3036" y1="1485.54" y2="1485.54"/>
  <line id="right-margin-Black-S" style="fill:none;stroke:#00AEEF;stroke-width:0.5;opacity:1.0;" x1="2993.37" x2="2993.37" y1="600.785" y2="720.121"/>
  <line id="left-margin-Black-S" style="fill:none;stroke:#00AEEF;stroke-width:0.5;opacity:1.0;" x1="2873.43" x2="2873.43" y1="600.785" y2="720.121"/>
  <line id="right-margin-Regular-S" style="fill:none;stroke:#00AEEF;stroke-width:0.5;opacity:1.0;" x1="1505.28" x2="1505.28" y1="600.785" y2="720.121"/>
  <line id="left-margin-Regular-S" style="fill:none;stroke:#00AEEF;stroke-width:0.5;opacity:1.0;" x1="1394.41" x2="1394.41" y1="600.785" y2="720.121"/>
  <line id="right-margin-Ultralight-S" style="fill:none;stroke:#00AEEF;stroke-width:0.5;opacity:1.0;" x1="614.18" x2="614.18" y1="600.785" y2="720.121"/>
  <line id="left-margin-Ultralight-S" style="fill:none;stroke:#00AEEF;stroke-width:0.5;opacity:1.0;" x1="505.242" x2="505.242" y1="600.785" y2="720.121"/>
 </g>
 <g id="Symbols">
  <g id="Black-S" transform="matrix(1 0 0 1 2873.43 696)">
   <path class="SFSymbolsPreviewWireframe" d="M51.3589-3.14111L51.3589-3.14111C67.6445-4.74384 80.0046-14.7271 78.9316-25.4301C77.8857-36.1196 63.8142-43.4949 47.5151-41.8787C31.2295-40.2623 18.8694-30.2927 19.929-19.5896C20.9883-8.90015 35.0598-1.52478 51.3589-3.14111ZM83.9436-38.6595L83.9436-38.6595C89.594-36.9074 95.8826-32.6696 95.8691-25.1992C95.8691-12.8527 78.0623 2.6994 51.291 2.6994C30.8765 2.6994 10-7.20227 10-23.4742C10-31.9905 15.3923-41.8379 24.6692-51.1148C37.0701-63.5157 51.5356-69.1661 56.9685-63.7194C59.3591-61.3153 59.5901-57.1726 58.0552-52.215C57.2402-49.7294 60.3914-51.1012 60.3914-51.1012C70.4153-55.2982 79.1626-55.5427 82.3545-50.9789C84.0659-48.5341 83.9028-45.1249 82.3271-41.1724C81.6074-39.3523 82.5581-39.0806 83.9436-38.6595ZM101.723-68.4462L101.723-68.4462C108.188-61.2881 109.941-51.5223 107.17-42.9788L107.17-42.9653C106.531-40.9958 104.413-39.9092 102.429-40.5475C100.447-41.1859 99.3599-43.3048 99.9983-45.2878L99.9983-45.2878C101.968-51.3729 100.718-58.3135 96.1272-63.407C91.5364-68.5005 84.7585-70.4428 78.4971-69.1117C76.4595-68.6771 74.4629-69.9674 74.0283-72.0048C73.5937-74.0286 74.884-76.0388 76.9214-76.4735L76.9214-76.4735C85.7229-78.3479 95.2578-75.6178 101.723-68.4462ZM91.7944-59.4817L91.7944-59.4817C94.9456-55.991 95.7876-51.2371 94.4429-47.0672C93.886-45.3558 92.0659-44.4322 90.3545-44.9755C88.6431-45.5323 87.7195-47.366 88.2629-49.0638L88.2629-49.0638C88.9285-51.1012 88.5073-53.4238 86.9724-55.1353C85.4377-56.8331 83.1558-57.485 81.0642-57.0368L81.0642-57.0368C79.3254-56.6565 77.6006-57.7703 77.2202-59.5224C76.8535-61.2746 77.9673-63.0131 79.7195-63.3799C83.9978-64.3035 88.6431-62.9724 91.7944-59.4817ZM52.2554-22.5099L52.2554-22.5099C52.7988-23.5014 52.4456-24.6016 51.4675-24.9547C50.5032-25.335 49.2944-24.8732 48.7239-23.9225C48.167-22.9717 48.4658-21.8715 49.4438-21.4776C50.4219-21.0701 51.6851-21.5319 52.2554-22.5099ZM47.0532-15.8544L47.0532-15.8544C48.6018-18.3943 47.7869-21.2874 45.2332-22.3876C42.7068-23.4471 39.447-22.3605 37.885-19.9156C36.3096-17.4572 37.0564-14.5369 39.5557-13.3959C42.0957-12.2415 45.4778-13.3416 47.0532-15.8544ZM52.9753-33.6476L52.9753-33.6476C61.0027-31.5695 65.1045-24.004 61.8176-16.6422C58.4897-9.13104 48.9277-5.1106 40.8054-7.73199C32.9817-10.2584 29.6541-18.0004 33.0903-24.9683C36.459-31.8004 45.2197-35.6714 52.9753-33.6476Z"/>
  </g>
  <g id="Regular-S" transform="matrix(1 0 0 1 1394.41 696)">
   <path class="SFSymbolsPreviewWireframe" d="M47.6039-6.10107L47.6039-6.10107C62.4108-7.55829 73.6487-16.6351 72.6731-26.3664C71.7222-36.0854 58.9282-42.7911 44.109-41.3215C29.3021-39.8519 18.0642-30.7875 19.0275-21.0562C19.9907-11.3372 32.7847-4.63153 47.6039-6.10107ZM77.23-38.3947L77.23-38.3947C82.3673-36.8016 88.0851-32.9486 88.0728-26.1565C88.0728-14.9309 71.8828-0.790894 47.5421-0.790894C28.9811-0.790894 10-9.79358 10-24.5881C10-32.3312 14.9027-41.2844 23.3374-49.7191C34.6123-60.9941 47.7644-66.1314 52.7042-61.1793C54.8777-58.9935 55.0876-55.2269 53.6921-50.7194C52.9512-48.4594 55.8162-49.7067 55.8162-49.7067C64.9301-53.5227 72.8831-53.745 75.7852-49.5956C77.3412-47.3727 77.193-44.273 75.7605-40.6793C75.106-39.0245 75.9703-38.7775 77.23-38.3947ZM93.3954-65.4769L93.3954-65.4769C99.2737-58.9688 100.867-50.0895 98.3474-42.3218L98.3474-42.3094C97.7671-40.5188 95.8406-39.5308 94.0375-40.1113C92.2345-40.6917 91.2466-42.6182 91.827-44.4212L91.827-44.4212C93.6177-49.9537 92.4816-56.2642 88.3074-60.8953C84.1333-65.5262 77.9709-67.2922 72.278-66.082C70.4255-65.6868 68.6102-66.86 68.215-68.7124C67.8198-70.5525 68.993-72.3802 70.8455-72.7753L70.8455-72.7753C78.8478-74.4796 87.5171-71.9974 93.3954-65.4769ZM84.3679-57.3263L84.3679-57.3263C87.233-54.1525 87.9987-49.8302 86.7761-46.0389C86.2698-44.483 84.615-43.6432 83.059-44.1371C81.5029-44.6435 80.6632-46.3107 81.1571-47.8543L81.1571-47.8543C81.7622-49.7067 81.3794-51.8185 79.9839-53.3745C78.5885-54.9182 76.5138-55.5109 74.6119-55.1034L74.6119-55.1034C73.0312-54.7576 71.4629-55.7703 71.1171-57.3633C70.7837-58.9564 71.7963-60.5371 73.3894-60.8705C77.2794-61.7103 81.5029-60.5001 84.3679-57.3263ZM48.4189-23.7113L48.4189-23.7113C48.913-24.6128 48.5918-25.6131 47.7026-25.9342C46.8259-26.28 45.7268-25.8601 45.2081-24.9956C44.7018-24.1312 44.9735-23.1309 45.8627-22.7728C46.7518-22.4023 47.9003-22.8221 48.4189-23.7113ZM43.6891-17.6601L43.6891-17.6601C45.0969-19.9694 44.356-22.5999 42.0343-23.6002C39.7373-24.5634 36.7734-23.5754 35.3533-21.3525C33.9208-19.1173 34.6-16.4622 36.8723-15.4249C39.1816-14.3752 42.2566-15.3755 43.6891-17.6601ZM49.0735-33.8378L49.0735-33.8378C56.3719-31.9483 60.1014-25.0697 57.1129-18.3763C54.0873-11.5472 45.3933-7.89172 38.0084-10.2752C30.8951-12.5721 27.8696-19.6113 30.994-25.9465C34.0566-32.1583 42.022-35.6779 49.0735-33.8378Z"/>
  </g>
  <g id="Ultralight-S" transform="matrix(1 0 0 1 505.242 696)">
   <path class="SFSymbolsPreviewWireframe" d="M46.8056-7.15796L46.8056-7.15796C61.2981-8.58429 72.2975-17.4684 71.3426-26.9931C70.4119-36.5057 57.8895-43.0691 43.3849-41.6307C28.8923-40.1923 17.893-31.3203 18.8357-21.7956C19.7785-12.283 32.3009-5.7196 46.8056-7.15796ZM75.8028-38.766L75.8028-38.766C80.831-37.2068 86.4274-33.4355 86.4153-26.7876C86.4153-15.8004 70.569-1.96045 46.7451-1.96045C28.578-1.96045 10-10.772 10-25.2525C10-32.8312 14.7986-41.5944 23.0542-49.85C34.0898-60.8856 46.9627-65.9139 51.7976-61.0669C53.9249-58.9275 54.1304-55.2409 52.7646-50.829C52.0393-48.6171 54.8435-49.8379 54.8435-49.8379C63.7639-53.5729 71.5481-53.7904 74.3886-49.7291C75.9115-47.5534 75.7665-44.5195 74.3644-41.0021C73.7238-39.3824 74.5699-39.1407 75.8028-38.766ZM91.6249-65.2733L91.6249-65.2733C97.3784-58.9033 98.9377-50.2126 96.4719-42.6097L96.4719-42.5977C95.9038-40.845 94.0182-39.8781 92.2534-40.4462C90.4887-41.0142 89.5218-42.8998 90.0899-44.6646L90.0899-44.6646C91.8425-50.0797 90.7304-56.2562 86.645-60.7889C82.5595-65.3216 76.528-67.0501 70.9558-65.8655C69.1427-65.4788 67.3659-66.627 66.9791-68.4401C66.5923-70.2411 67.7406-72.03 69.5537-72.4168L69.5537-72.4168C77.3862-74.0848 85.8714-71.6553 91.6249-65.2733ZM82.7892-57.2957L82.7892-57.2957C85.5934-54.1893 86.3428-49.9588 85.1461-46.248C84.6506-44.725 83.0309-43.9031 81.5079-44.3866C79.985-44.8821 79.163-46.5139 79.6465-48.0248L79.6465-48.0248C80.2388-49.8379 79.864-51.9048 78.4982-53.4278C77.1324-54.9387 75.1017-55.5189 73.2403-55.12L73.2403-55.12C71.6931-54.7816 70.1581-55.7727 69.8196-57.332C69.4933-58.8912 70.4844-60.4384 72.0437-60.7647C75.8511-61.5867 79.985-60.4021 82.7892-57.2957ZM47.6033-24.3943L47.6033-24.3943C48.0868-25.2767 47.7726-26.2557 46.9023-26.57C46.044-26.9084 44.9683-26.4975 44.4607-25.6514C43.9651-24.8053 44.231-23.8262 45.1012-23.4757C45.9715-23.1131 47.0957-23.524 47.6033-24.3943ZM42.9739-18.4716L42.9739-18.4716C44.3518-20.7319 43.6266-23.3065 41.3542-24.2855C39.106-25.2283 36.205-24.2614 34.815-22.0857C33.4129-19.8979 34.0777-17.2991 36.3018-16.2838C38.5621-15.2564 41.5718-16.2355 42.9739-18.4716ZM48.2439-34.3058L48.2439-34.3058C55.3875-32.4565 59.0378-25.7239 56.1127-19.1727C53.1513-12.4884 44.6419-8.91064 37.4138-11.2435C30.4516-13.4916 27.4902-20.3814 30.5482-26.5821C33.5459-32.662 41.3421-36.1068 48.2439-34.3058Z"/>
  </g>
 </g>
</svg>
