<?xml version="1.0" encoding="UTF-8"?>
<svg height="600" width="800" xmlns="http://www.w3.org/2000/svg" xmlns:xlink="http://www.w3.org/1999/xlink">
    <g id="Notes" font-family="'LucidaGrande', 'Lucida Grande', sans-serif" font-size="13">
        <rect fill="white" height="600.0" width="800.0" x="0.0" y="0.0" />
        <g font-size="13">
            <text x="18.0" y="176.0">Small</text>
            <text x="18.0" y="376.0">Medium</text>
            <text x="18.0" y="576.0">Large</text>
        </g>
        <g font-size="9">
            <text x="250.0" y="30.0">Ultralight</text>
            <text x="450.0" y="30.0">Regular</text>
            <text x="650.0" y="30.0">Black</text>
            <text id="template-version" fill="#505050" text-anchor="end" x="785.0" y="575.0">Template v.3.0</text>
            <a href="https://wangchujiang.com/#/app">
                <text fill="#505050" text-anchor="end" x="785.0" y="590.0">https://wangchujiang.com/#/app</text>
            </a>
        </g>
    </g>
    <g id="Guides" stroke="rgb(39, 170, 225)" stroke-width="0.5">
        <path id="Capline-S" d="M18,76 l800,0" />
        <path id="H-reference" d="M85,145.755 L87.685,145.755 L113.369,79.287 L114.052,79.287 L114.052,76 L112.148,76 L85,145.755 Z M95.693,121.536 L130.996,121.536 L130.263,119.313 L96.474,119.313 L95.693,121.536 Z M139.15,145.755 L141.787,145.755 L114.638,76 L113.466,76 L113.466,79.287 L139.15,145.755 Z" stroke="none" />
        <path id="Baseline-S" d="M18,146 l800,0" />
        <path id="left-margin-Ultralight-S" d="M219.225,56 l0,110" />
        <path id="right-margin-Ultralight-S" d="M310.775,56 l0,110" />
        <path id="left-margin-Regular-S" d="M419.225,56 l0,110" />
        <path id="right-margin-Regular-S" d="M510.775,56 l0,110" />
        <path id="left-margin-Black-S" d="M619.225,56 l0,110" />
        <path id="right-margin-Black-S" d="M710.775,56 l0,110" />
        <path id="Capline-M" d="M18,276 l800,0" />
        <path id="Baseline-M" d="M18,346 l800,0" />
        <path id="Capline-L" d="M18,476 l800,0" />
        <path id="Baseline-L" d="M18,546 l800,0" />
    </g>
    <g id="Symbols">
        <g id="Ultralight-S">
            <path d="M300.078,100.758 C298.566,96.667 295.024,94.257 290.757,94.433 C287.499,94.537 284.237,94.624 280.982,94.689 C279.535,94.813 278.166,93.766 277.717,92.322 C276.751,89.2 275.782,86.081 274.796,82.966 C273.47,78.735 269.622,76 264.998,76 C260.374,76 256.527,78.735 255.2,82.963 C254.211,86.078 253.242,89.197 252.279,92.319 C251.831,93.766 250.523,94.82 249.014,94.689 C245.756,94.624 242.494,94.54 239.271,94.436 C235.008,94.267 231.421,96.673 229.912,100.761 C228.263,105.223 229.649,110.169 233.379,113.083 C236.019,115.109 238.637,117.086 241.252,119.037 C242.494,119.964 242.972,121.623 242.445,123.167 C241.359,126.351 240.224,129.548 239.05,132.748 C237.45,136.979 238.588,141.389 241.951,143.977 C245.496,146.712 250.52,146.67 254.462,143.86 L262.78,137.886 C264.127,136.924 265.87,136.92 267.219,137.886 L275.551,143.87 C277.544,145.288 279.818,146 282.036,146 C284.195,146 286.302,145.327 288.049,143.98 C291.408,141.392 292.546,136.982 290.959,132.777 C289.772,129.551 288.644,126.351 287.554,123.171 C287.024,121.629 287.505,119.971 288.744,119.044 C291.362,117.089 293.983,115.112 296.644,113.07 C300.351,110.172 301.736,105.226 300.088,100.764 Z" />
        </g>
        <g id="Regular-S">
            <path d="M500.078,100.758 C498.566,96.667 495.024,94.257 490.757,94.433 C487.499,94.537 484.237,94.624 480.982,94.689 C479.535,94.813 478.166,93.766 477.717,92.322 C476.751,89.2 475.782,86.081 474.796,82.966 C473.47,78.735 469.622,76 464.998,76 C460.374,76 456.527,78.735 455.2,82.963 C454.211,86.078 453.242,89.197 452.279,92.319 C451.831,93.766 450.523,94.82 449.014,94.689 C445.756,94.624 442.494,94.54 439.271,94.436 C435.008,94.267 431.421,96.673 429.912,100.761 C428.263,105.223 429.649,110.169 433.379,113.083 C436.019,115.109 438.637,117.086 441.252,119.037 C442.494,119.964 442.972,121.623 442.445,123.167 C441.359,126.351 440.224,129.548 439.05,132.748 C437.45,136.979 438.588,141.389 441.951,143.977 C445.496,146.712 450.52,146.67 454.462,143.86 L462.78,137.886 C464.127,136.924 465.87,136.92 467.219,137.886 L475.551,143.87 C477.544,145.288 479.818,146 482.036,146 C484.195,146 486.302,145.327 488.049,143.98 C491.408,141.392 492.546,136.982 490.959,132.777 C489.772,129.551 488.644,126.351 487.554,123.171 C487.024,121.629 487.505,119.971 488.744,119.044 C491.362,117.089 493.983,115.112 496.644,113.07 C500.351,110.172 501.736,105.226 500.088,100.764 Z" />
        </g>
        <g id="Black-S">
            <path d="M700.078,100.758 C698.566,96.667 695.024,94.257 690.757,94.433 C687.499,94.537 684.237,94.624 680.982,94.689 C679.535,94.813 678.166,93.766 677.717,92.322 C676.751,89.2 675.782,86.081 674.797,82.966 C673.47,78.735 669.622,76 664.998,76 C660.374,76 656.527,78.735 655.2,82.963 C654.211,86.078 653.242,89.197 652.279,92.319 C651.831,93.766 650.523,94.82 649.014,94.689 C645.756,94.624 642.494,94.54 639.271,94.436 C635.008,94.267 631.421,96.673 629.912,100.761 C628.263,105.223 629.648,110.169 633.379,113.083 C636.019,115.109 638.637,117.086 641.252,119.037 C642.494,119.964 642.972,121.623 642.445,123.167 C641.359,126.351 640.224,129.548 639.05,132.748 C637.45,136.979 638.588,141.389 641.951,143.977 C645.496,146.712 650.52,146.67 654.462,143.86 L662.78,137.886 C664.127,136.924 665.87,136.92 667.219,137.886 L675.551,143.87 C677.544,145.288 679.818,146 682.036,146 C684.195,146 686.302,145.327 688.049,143.98 C691.408,141.392 692.546,136.982 690.959,132.777 C689.772,129.551 688.644,126.351 687.554,123.171 C687.024,121.629 687.505,119.971 688.744,119.044 C691.362,117.089 693.983,115.112 696.644,113.07 C700.351,110.172 701.736,105.226 700.088,100.764 Z" />
        </g>
    </g>
</svg>