<?xml version="1.0" encoding="UTF-8"?>
<!--Generator: Apple Native CoreSVG 341-->
<!DOCTYPE svg
PUBLIC "-//W3C//DTD SVG 1.1//EN"
       "http://www.w3.org/Graphics/SVG/1.1/DTD/svg11.dtd">
<svg version="1.1" xmlns="http://www.w3.org/2000/svg" xmlns:xlink="http://www.w3.org/1999/xlink" viewBox="0 0 3300 2200">
 <!--glyph: "", point size: 100.0, font version: "20.0d10e1", template writer version: "138.0.0"-->
 <style>.SFSymbolsPreviewWireframe {fill:none;opacity:1.0;stroke:black;stroke-width:0.5}
</style>
 <g id="Notes">
  <rect height="2200" id="artboard" style="fill:white;opacity:1" width="3300" x="0" y="0"/>
  <line style="fill:none;stroke:black;opacity:1;stroke-width:0.5;" x1="263" x2="3036" y1="292" y2="292"/>
  <text style="stroke:none;fill:black;font-family:sans-serif;font-size:13;font-weight:bold;" transform="matrix(1 0 0 1 263 322)">Weight/Scale Variations</text>
  <text style="stroke:none;fill:black;font-family:sans-serif;font-size:13;text-anchor:middle;" transform="matrix(1 0 0 1 559.711 322)">Ultralight</text>
  <text style="stroke:none;fill:black;font-family:sans-serif;font-size:13;text-anchor:middle;" transform="matrix(1 0 0 1 856.422 322)">Thin</text>
  <text style="stroke:none;fill:black;font-family:sans-serif;font-size:13;text-anchor:middle;" transform="matrix(1 0 0 1 1153.13 322)">Light</text>
  <text style="stroke:none;fill:black;font-family:sans-serif;font-size:13;text-anchor:middle;" transform="matrix(1 0 0 1 1449.84 322)">Regular</text>
  <text style="stroke:none;fill:black;font-family:sans-serif;font-size:13;text-anchor:middle;" transform="matrix(1 0 0 1 1746.56 322)">Medium</text>
  <text style="stroke:none;fill:black;font-family:sans-serif;font-size:13;text-anchor:middle;" transform="matrix(1 0 0 1 2043.27 322)">Semibold</text>
  <text style="stroke:none;fill:black;font-family:sans-serif;font-size:13;text-anchor:middle;" transform="matrix(1 0 0 1 2339.98 322)">Bold</text>
  <text style="stroke:none;fill:black;font-family:sans-serif;font-size:13;text-anchor:middle;" transform="matrix(1 0 0 1 2636.69 322)">Heavy</text>
  <text style="stroke:none;fill:black;font-family:sans-serif;font-size:13;text-anchor:middle;" transform="matrix(1 0 0 1 2933.4 322)">Black</text>
  <line style="fill:none;stroke:black;opacity:1;stroke-width:0.5;" x1="263" x2="3036" y1="1903" y2="1903"/>
  <g transform="matrix(0.2 0 0 0.2 263 1933)">
   <path d="m46.2402 4.15039c21.7773 0 39.4531-17.627 39.4531-39.4043s-17.6758-39.4043-39.4531-39.4043c-21.7285 0-39.4043 17.627-39.4043 39.4043s17.6758 39.4043 39.4043 39.4043Zm0-7.42188c-17.6758 0-31.9336-14.3066-31.9336-31.9824s14.2578-31.9824 31.9336-31.9824 31.9824 14.3066 31.9824 31.9824-14.3066 31.9824-31.9824 31.9824Zm-17.9688-31.9824c0 2.14844 1.51367 3.61328 3.75977 3.61328h10.498v10.5957c0 2.19727 1.46484 3.71094 3.61328 3.71094 2.24609 0 3.71094-1.51367 3.71094-3.71094v-10.5957h10.5957c2.19727 0 3.71094-1.46484 3.71094-3.61328 0-2.19727-1.51367-3.71094-3.71094-3.71094h-10.5957v-10.5469c0-2.24609-1.46484-3.75977-3.71094-3.75977-2.14844 0-3.61328 1.51367-3.61328 3.75977v10.5469h-10.498c-2.24609 0-3.75977 1.51367-3.75977 3.71094Z"/>
  </g>
  <g transform="matrix(0.2 0 0 0.2 281.506 1933)">
   <path d="m58.5449 14.5508c27.4902 0 49.8047-22.3145 49.8047-49.8047s-22.3145-49.8047-49.8047-49.8047-49.8047 22.3145-49.8047 49.8047 22.3145 49.8047 49.8047 49.8047Zm0-8.30078c-22.9492 0-41.5039-18.5547-41.5039-41.5039s18.5547-41.5039 41.5039-41.5039 41.5039 18.5547 41.5039 41.5039-18.5547 41.5039-41.5039 41.5039Zm-22.6562-41.5039c0 2.39258 1.66016 4.00391 4.15039 4.00391h14.3555v14.4043c0 2.44141 1.66016 4.15039 4.05273 4.15039 2.44141 0 4.15039-1.66016 4.15039-4.15039v-14.4043h14.4043c2.44141 0 4.15039-1.61133 4.15039-4.00391 0-2.44141-1.70898-4.15039-4.15039-4.15039h-14.4043v-14.3555c0-2.49023-1.70898-4.19922-4.15039-4.19922-2.39258 0-4.05273 1.70898-4.05273 4.19922v14.3555h-14.3555c-2.49023 0-4.15039 1.70898-4.15039 4.15039Z"/>
  </g>
  <g transform="matrix(0.2 0 0 0.2 304.924 1933)">
   <path d="m74.8535 28.3203c35.1074 0 63.623-28.4668 63.623-63.5742s-28.5156-63.623-63.623-63.623-63.5742 28.5156-63.5742 63.623 28.4668 63.5742 63.5742 63.5742Zm0-9.08203c-30.127 0-54.4922-24.3652-54.4922-54.4922s24.3652-54.4922 54.4922-54.4922 54.4922 24.3652 54.4922 54.4922-24.3652 54.4922-54.4922 54.4922Zm-28.8574-54.4922c0 2.58789 1.85547 4.39453 4.58984 4.39453h19.7266v19.7754c0 2.68555 1.85547 4.58984 4.44336 4.58984 2.68555 0 4.54102-1.85547 4.54102-4.58984v-19.7754h19.7754c2.68555 0 4.58984-1.80664 4.58984-4.39453 0-2.73438-1.85547-4.58984-4.58984-4.58984h-19.7754v-19.7266c0-2.73438-1.85547-4.63867-4.54102-4.63867-2.58789 0-4.44336 1.9043-4.44336 4.63867v19.7266h-19.7266c-2.73438 0-4.58984 1.85547-4.58984 4.58984Z"/>
  </g>
  <text style="stroke:none;fill:black;font-family:sans-serif;font-size:13;font-weight:bold;" transform="matrix(1 0 0 1 263 1953)">Design Variations</text>
  <text style="stroke:none;fill:black;font-family:sans-serif;font-size:13;" transform="matrix(1 0 0 1 263 1971)">Symbols are supported in up to nine weights and three scales.</text>
  <text style="stroke:none;fill:black;font-family:sans-serif;font-size:13;" transform="matrix(1 0 0 1 263 1989)">For optimal layout with text and other symbols, vertically align</text>
  <text style="stroke:none;fill:black;font-family:sans-serif;font-size:13;" transform="matrix(1 0 0 1 263 2007)">symbols with the adjacent text.</text>
  <line style="fill:none;stroke:#00AEEF;stroke-width:0.5;opacity:1.0;" x1="776" x2="776" y1="1919" y2="1933"/>
  <g transform="matrix(0.2 0 0 0.2 776 1933)">
   <path d="m16.5527 0.78125c2.58789 0 3.85742-0.976562 4.78516-3.71094l6.29883-17.2363h28.8086l6.29883 17.2363c0.927734 2.73438 2.19727 3.71094 4.73633 3.71094 2.58789 0 4.24805-1.5625 4.24805-4.00391 0-0.830078-0.146484-1.61133-0.537109-2.63672l-22.9004-60.9863c-1.12305-2.97852-3.125-4.49219-6.25-4.49219-3.02734 0-5.07812 1.46484-6.15234 4.44336l-22.9004 61.084c-0.390625 1.02539-0.537109 1.80664-0.537109 2.63672 0 2.44141 1.5625 3.95508 4.10156 3.95508Zm13.4766-28.3691 11.8652-32.8613h0.244141l11.8652 32.8613Z"/>
  </g>
  <line style="fill:none;stroke:#00AEEF;stroke-width:0.5;opacity:1.0;" x1="792.836" x2="792.836" y1="1919" y2="1933"/>
  <text style="stroke:none;fill:black;font-family:sans-serif;font-size:13;font-weight:bold;" transform="matrix(1 0 0 1 776 1953)">Margins</text>
  <text style="stroke:none;fill:black;font-family:sans-serif;font-size:13;" transform="matrix(1 0 0 1 776 1971)">Leading and trailing margins on the left and right side of each symbol</text>
  <text style="stroke:none;fill:black;font-family:sans-serif;font-size:13;" transform="matrix(1 0 0 1 776 1989)">can be adjusted by modifying the x-location of the margin guidelines.</text>
  <text style="stroke:none;fill:black;font-family:sans-serif;font-size:13;" transform="matrix(1 0 0 1 776 2007)">Modifications are automatically applied proportionally to all</text>
  <text style="stroke:none;fill:black;font-family:sans-serif;font-size:13;" transform="matrix(1 0 0 1 776 2025)">scales and weights.</text>
  <g transform="matrix(0.2 0 0 0.2 1289 1933)">
   <path d="m14.209 9.32617 8.49609 8.54492c4.29688 4.3457 9.22852 4.05273 13.8672-1.07422l53.4668-58.9355-4.83398-4.88281-53.0762 58.3984c-1.75781 2.00195-3.41797 2.49023-5.76172 0.146484l-5.85938-5.81055c-2.34375-2.29492-1.80664-4.00391 0.195312-5.81055l57.373-54.0039-4.88281-4.83398-57.959 54.4434c-4.93164 4.58984-5.32227 9.47266-1.02539 13.8184Zm32.0801-90.9668c-2.09961 2.05078-2.24609 4.93164-1.07422 6.88477 1.17188 1.80664 3.4668 2.97852 6.68945 2.14844 7.32422-1.70898 14.9414-2.00195 22.0703 2.68555l-2.92969 7.27539c-1.70898 4.15039-0.830078 7.08008 1.85547 9.81445l11.4746 11.5723c2.44141 2.44141 4.49219 2.53906 7.32422 2.05078l5.32227-0.976562 3.32031 3.36914-0.195312 2.7832c-0.195312 2.49023 0.439453 4.39453 2.88086 6.78711l3.80859 3.71094c2.39258 2.39258 5.46875 2.53906 7.8125 0.195312l14.5508-14.5996c2.34375-2.34375 2.24609-5.32227-0.146484-7.71484l-3.85742-3.80859c-2.39258-2.39258-4.24805-3.17383-6.64062-2.97852l-2.88086 0.244141-3.22266-3.17383 1.2207-5.61523c0.634766-2.83203-0.146484-5.0293-3.07617-7.95898l-10.9863-10.9375c-16.6992-16.6016-38.8672-16.2109-53.3203-1.75781Zm7.4707 1.85547c12.1582-8.88672 28.6133-7.37305 39.7461 3.75977l12.1582 12.0605c1.17188 1.17188 1.36719 2.09961 1.02539 3.80859l-1.61133 7.42188 7.51953 7.42188 4.93164-0.292969c1.26953-0.0488281 1.66016 0.0488281 2.63672 1.02539l2.88086 2.88086-12.207 12.207-2.88086-2.88086c-0.976562-0.976562-1.12305-1.36719-1.07422-2.68555l0.341797-4.88281-7.4707-7.42188-7.61719 1.26953c-1.61133 0.341797-2.34375 0.195312-3.56445-0.976562l-10.0098-10.0098c-1.26953-1.17188-1.41602-2.00195-0.634766-3.85742l4.39453-10.4492c-7.8125-7.27539-17.9688-10.4004-28.125-7.42188-0.78125 0.195312-1.07422-0.439453-0.439453-0.976562Z"/>
  </g>
  <text style="stroke:none;fill:black;font-family:sans-serif;font-size:13;font-weight:bold;" transform="matrix(1 0 0 1 1289 1953)">Exporting</text>
  <text style="stroke:none;fill:black;font-family:sans-serif;font-size:13;" transform="matrix(1 0 0 1 1289 1971)">Symbols should be outlined when exporting to ensure the</text>
  <text style="stroke:none;fill:black;font-family:sans-serif;font-size:13;" transform="matrix(1 0 0 1 1289 1989)">design is preserved when submitting to Xcode.</text>
  <text id="template-version" style="stroke:none;fill:black;font-family:sans-serif;font-size:13;text-anchor:end;" transform="matrix(1 0 0 1 3036 1933)">Template v.6.0</text>
  <text style="stroke:none;fill:black;font-family:sans-serif;font-size:13;text-anchor:end;" transform="matrix(1 0 0 1 3036 1951)">Requires Xcode 16 or greater</text>
  <text id="descriptive-name" style="stroke:none;fill:black;font-family:sans-serif;font-size:13;text-anchor:end;" transform="matrix(1 0 0 1 3036 1969)">Generated from discord</text>
  <text style="stroke:none;fill:black;font-family:sans-serif;font-size:13;text-anchor:end;" transform="matrix(1 0 0 1 3036 1987)">Typeset at 100.0 points</text>
  <text style="stroke:none;fill:black;font-family:sans-serif;font-size:13;" transform="matrix(1 0 0 1 263 726)">Small</text>
  <text style="stroke:none;fill:black;font-family:sans-serif;font-size:13;" transform="matrix(1 0 0 1 263 1156)">Medium</text>
  <text style="stroke:none;fill:black;font-family:sans-serif;font-size:13;" transform="matrix(1 0 0 1 263 1586)">Large</text>
 </g>
 <g id="Guides">
  <g id="H-reference" style="fill:#27AAE1;stroke:none;" transform="matrix(1 0 0 1 339 696)">
   <path d="M0.993654 0L3.63775 0L29.3281-67.1323L30.0303-67.1323L30.0303-70.459L28.1226-70.459ZM11.6885-24.4799L46.9815-24.4799L46.2315-26.7285L12.4385-26.7285ZM55.1196 0L57.7637 0L30.6382-70.459L29.4326-70.459L29.4326-67.1323Z"/>
  </g>
  <line id="Baseline-S" style="fill:none;stroke:#27AAE1;opacity:1;stroke-width:0.5;" x1="263" x2="3036" y1="696" y2="696"/>
  <line id="Capline-S" style="fill:none;stroke:#27AAE1;opacity:1;stroke-width:0.5;" x1="263" x2="3036" y1="625.541" y2="625.541"/>
  <g id="H-reference" style="fill:#27AAE1;stroke:none;" transform="matrix(1 0 0 1 339 1126)">
   <path d="M0.993654 0L3.63775 0L29.3281-67.1323L30.0303-67.1323L30.0303-70.459L28.1226-70.459ZM11.6885-24.4799L46.9815-24.4799L46.2315-26.7285L12.4385-26.7285ZM55.1196 0L57.7637 0L30.6382-70.459L29.4326-70.459L29.4326-67.1323Z"/>
  </g>
  <line id="Baseline-M" style="fill:none;stroke:#27AAE1;opacity:1;stroke-width:0.5;" x1="263" x2="3036" y1="1126" y2="1126"/>
  <line id="Capline-M" style="fill:none;stroke:#27AAE1;opacity:1;stroke-width:0.5;" x1="263" x2="3036" y1="1055.54" y2="1055.54"/>
  <g id="H-reference" style="fill:#27AAE1;stroke:none;" transform="matrix(1 0 0 1 339 1556)">
   <path d="M0.993654 0L3.63775 0L29.3281-67.1323L30.0303-67.1323L30.0303-70.459L28.1226-70.459ZM11.6885-24.4799L46.9815-24.4799L46.2315-26.7285L12.4385-26.7285ZM55.1196 0L57.7637 0L30.6382-70.459L29.4326-70.459L29.4326-67.1323Z"/>
  </g>
  <line id="Baseline-L" style="fill:none;stroke:#27AAE1;opacity:1;stroke-width:0.5;" x1="263" x2="3036" y1="1556" y2="1556"/>
  <line id="Capline-L" style="fill:none;stroke:#27AAE1;opacity:1;stroke-width:0.5;" x1="263" x2="3036" y1="1485.54" y2="1485.54"/>
  <line id="right-margin-Black-S" style="fill:none;stroke:#00AEEF;stroke-width:0.5;opacity:1.0;" x1="2990.65" x2="2990.65" y1="600.785" y2="720.121"/>
  <line id="left-margin-Black-S" style="fill:none;stroke:#00AEEF;stroke-width:0.5;opacity:1.0;" x1="2876.15" x2="2876.15" y1="600.785" y2="720.121"/>
  <line id="right-margin-Regular-S" style="fill:none;stroke:#00AEEF;stroke-width:0.5;opacity:1.0;" x1="1502.8" x2="1502.8" y1="600.785" y2="720.121"/>
  <line id="left-margin-Regular-S" style="fill:none;stroke:#00AEEF;stroke-width:0.5;opacity:1.0;" x1="1396.88" x2="1396.88" y1="600.785" y2="720.121"/>
  <line id="right-margin-Ultralight-S" style="fill:none;stroke:#00AEEF;stroke-width:0.5;opacity:1.0;" x1="611.321" x2="611.321" y1="600.785" y2="720.121"/>
  <line id="left-margin-Ultralight-S" style="fill:none;stroke:#00AEEF;stroke-width:0.5;opacity:1.0;" x1="508.101" x2="508.101" y1="600.785" y2="720.121"/>
 </g>
 <g id="Symbols">
  <g id="Black-S" transform="matrix(1 0 0 1 2876.15 696)">
   <path class="SFSymbolsPreviewWireframe" d="M88.9307-67.3204C88.9307-67.3204 104.5-52.0859 104.5-22.6451L104.5-10.5634L98.1436-6.4212C81.6833 4.30457 75.998 4.30457 73.5703 4.30457L66.208 4.30457L62.002-1.8103C60.4719-1.67218 58.8831-1.5929 57.25-1.5929C55.6172-1.5929 54.0281-1.67218 52.4983-1.8103L48.292 4.30457L40.9297 4.30457C38.502 4.30457 32.8167 4.30457 16.3567-6.4212L10-10.5634L10-22.6451C10-52.0859 25.5693-67.3204 25.5693-67.3204C25.5693-67.3204 36.2891-73.8244 55.5979-75.4864L57.1265-72.3461C57.1504-72.3461 57.2117-72.3546 57.25-72.3546C57.2883-72.3546 57.354-72.3461 57.3811-72.3461L58.9021-75.4864C76.7495-74.2405 88.9307-67.3204 88.9307-67.3204ZM90.5-18.1506L90.5-22.6451C90.5-44.0806 80.2256-55.9802 80.2256-55.9802C80.2256-55.9802 73.1978-59.3821 66.7075-60.2773L64.6938-56.4602C64.6938-56.4602 61.4929-57.2015 57.25-57.2015C53.0071-57.2015 49.8062-56.4602 49.8062-56.4602L47.7925-60.2773C41.3022-59.3821 34.2744-55.9802 34.2744-55.9802C34.2744-55.9802 24-44.0806 24-22.6451L24-18.1506C24-18.1506 36.9756-9.69543 40.9297-9.69543L44.7659-15.2728C42.3818-16.3405 39.1296-18.1943 39.1296-18.1943L40.3186-19.1144C40.3186-19.1144 47.9207-15.5929 57.25-15.5929C66.5793-15.5929 74.1814-19.1144 74.1814-19.1144L75.3704-18.1943C75.3704-18.1943 72.1182-16.3405 69.7341-15.2728L73.5703-9.69543C77.5247-9.69543 90.5-18.1506 90.5-18.1506ZM70.8965-24.4057C66.8655-24.4057 63.5979-28.0763 63.5979-32.6041C63.5979-37.132 66.8655-40.8026 70.8965-40.8026C74.9275-40.8026 78.1953-37.132 78.1953-32.6041C78.1953-28.0763 74.9275-24.4057 70.8965-24.4057ZM43.6035-24.4057C39.5725-24.4057 36.3047-28.0763 36.3047-32.6041C36.3047-37.132 39.5725-40.8026 43.6035-40.8026C47.6345-40.8026 50.9021-37.132 50.9021-32.6041C50.9021-28.0763 47.6345-24.4057 43.6035-24.4057Z"/>
  </g>
  <g id="Regular-S" transform="matrix(1 0 0 1 1396.88 696)">
   <path class="SFSymbolsPreviewWireframe" d="M82.1498-63.6573C82.1498-63.6573 95.92-48.8949 95.92-21.9662L95.92-13.2468L92.6691-11.1282C82.2164-4.31696 74.7684-0.863342 70.532-0.863342L66.7667-0.863342L61.8479-8.01465C59.1439-7.53894 56.1335-7.21313 52.96-7.21313C49.7864-7.21313 46.7761-7.53894 44.072-8.01465L39.1533-0.863342L35.3879-0.863342C31.1516-0.863342 23.7036-4.31696 13.251-11.1282L10-13.2468L10-21.9662C10-49.2228 23.7703-63.6573 23.7703-63.6573C23.7703-63.6573 33.8156-69.1746 46.7689-70.2628L48.9316-66.1635C50.1431-66.2643 51.5021-66.3328 52.96-66.3328C54.4178-66.3328 55.777-66.2643 56.9884-66.1635L59.1511-70.2628C72.7351-69.0106 82.1498-63.6573 82.1498-63.6573ZM88.76-17.127L88.76-21.9662C88.76-45.0456 77.6978-57.8578 77.6978-57.8578C77.6978-57.8578 70.1311-61.5206 63.1428-62.4844L60.9746-58.3746C60.9746-58.3746 57.5286-59.1727 52.96-59.1727C48.3915-59.1727 44.9454-58.3746 44.9454-58.3746L42.7772-62.4844C35.7889-61.5206 28.2223-57.8578 28.2223-57.8578C28.2223-57.8578 17.16-45.0456 17.16-21.9662L17.16-17.127C17.16-17.127 31.1304-8.02338 35.3879-8.02338L39.5184-14.0284C36.9514-15.178 33.4498-17.174 33.4498-17.174L34.7301-18.1647C34.7301-18.1647 42.915-14.3732 52.96-14.3732C63.0049-14.3732 71.1899-18.1647 71.1899-18.1647L72.4702-17.174C72.4702-17.174 68.9686-15.178 66.4016-14.0284L70.532-8.02338C74.7897-8.02338 88.76-17.127 88.76-17.127ZM67.264-23.3551C63.0388-23.3551 59.6136-27.2026 59.6136-31.9485C59.6136-36.6946 63.0388-40.5421 67.264-40.5421C71.4893-40.5421 74.9146-36.6946 74.9146-31.9485C74.9146-27.2026 71.4893-23.3551 67.264-23.3551ZM38.6559-23.3551C34.4307-23.3551 31.0054-27.2026 31.0054-31.9485C31.0054-36.6946 34.4307-40.5421 38.6559-40.5421C42.8811-40.5421 46.3063-36.6946 46.3063-31.9485C46.3063-27.2026 42.8811-23.3551 38.6559-23.3551Z"/>
  </g>
  <g id="Ultralight-S" transform="matrix(1 0 0 1 508.101 696)">
   <path class="SFSymbolsPreviewWireframe" d="M80.2108-64.1072C80.2108-64.1072 93.22-49.658 93.22-22.8126L93.22-16.2972L92.2257-15.6492C89.5658-13.9161 76.0402-5.26984 70.959-5.26984L69.8073-5.26984L63.9516-13.7831C60.494-12.9512 56.2337-12.2617 51.61-12.2617C46.9865-12.2617 42.726-12.9512 39.2684-13.7831L33.4129-5.26984L32.2612-5.26984C27.1798-5.26984 13.6542-13.9161 10.9944-15.6492L10-16.2972L10-22.8126C10-49.7388 23.0092-64.1072 23.0092-64.1072C23.0092-64.1072 32.9685-68.9925 41.6185-69.8071L43.9677-65.3541C45.6228-65.6254 48.3684-65.9714 51.61-65.9714C54.8517-65.9714 57.5972-65.6254 59.2524-65.3541L61.6015-69.8071C69.7769-69.1138 80.2108-64.1072 80.2108-64.1072ZM91.03-17.4841L91.03-22.8126C91.03-48.2257 78.8491-62.3334 78.8491-62.3334C78.8491-62.3334 70.5173-66.3666 62.8225-67.4279L60.4351-62.9025C60.4351-62.9025 56.6404-63.7814 51.61-63.7814C46.5796-63.7814 42.7849-62.9025 42.7849-62.9025L40.3976-67.4279C32.7028-66.3666 24.3709-62.3334 24.3709-62.3334C24.3709-62.3334 12.19-48.2257 12.19-22.8126L12.19-17.4841C12.19-17.4841 27.5731-7.45984 32.2612-7.45984L36.8093-14.0722C33.9827-15.338 30.127-17.5358 30.127-17.5358L31.5367-18.6266C31.5367-18.6266 40.5495-14.4517 51.61-14.4517C62.6707-14.4517 71.6834-18.6266 71.6834-18.6266L73.0931-17.5358C73.0931-17.5358 69.2373-15.338 66.4108-14.0722L70.959-7.45984C75.6471-7.45984 91.03-17.4841 91.03-17.4841ZM65.4646-25.919C61.3721-25.919 58.0546-29.6456 58.0546-34.2424C58.0546-38.8394 61.3721-42.5659 65.4646-42.5659C69.557-42.5659 72.8747-38.8394 72.8747-34.2424C72.8747-29.6456 69.557-25.919 65.4646-25.919ZM37.7554-25.919C33.663-25.919 30.3453-29.6456 30.3453-34.2424C30.3453-38.8394 33.663-42.5659 37.7554-42.5659C41.8479-42.5659 45.1654-38.8394 45.1654-34.2424C45.1654-29.6456 41.8479-25.919 37.7554-25.919Z"/>
  </g>
 </g>
</svg>
