<?xml version="1.0" encoding="UTF-8"?>
<svg height="600" width="800" xmlns="http://www.w3.org/2000/svg" xmlns:xlink="http://www.w3.org/1999/xlink">
    <g id="Notes" font-family="'LucidaGrande', 'Lucida Grande', sans-serif" font-size="13">
        <rect fill="white" height="600.0" width="800.0" x="0.0" y="0.0" />
        <g font-size="13">
            <text x="18.0" y="176.0">Small</text>
            <text x="18.0" y="376.0">Medium</text>
            <text x="18.0" y="576.0">Large</text>
        </g>
        <g font-size="9">
            <text x="250.0" y="30.0">Ultralight</text>
            <text x="450.0" y="30.0">Regular</text>
            <text x="650.0" y="30.0">Black</text>
            <text id="template-version" fill="#505050" text-anchor="end" x="785.0" y="575.0">Template v.3.0</text>
            <a href="https://wangchujiang.com/#/app">
                <text fill="#505050" text-anchor="end" x="785.0" y="590.0">https://wangchujiang.com/#/app</text>
            </a>
        </g>
    </g>
    <g id="Guides" stroke="rgb(39, 170, 225)" stroke-width="0.5">
        <path id="Capline-S" d="M18,76 l800,0" />
        <path id="H-reference" d="M85,145.755 L87.685,145.755 L113.369,79.287 L114.052,79.287 L114.052,76 L112.148,76 L85,145.755 Z M95.693,121.536 L130.996,121.536 L130.263,119.313 L96.474,119.313 L95.693,121.536 Z M139.15,145.755 L141.787,145.755 L114.638,76 L113.466,76 L113.466,79.287 L139.15,145.755 Z" stroke="none" />
        <path id="Baseline-S" d="M18,146 l800,0" />
        <path id="left-margin-Ultralight-S" d="M220,56 l0,110" />
        <path id="right-margin-Ultralight-S" d="M310,56 l0,110" />
        <path id="left-margin-Regular-S" d="M420,56 l0,110" />
        <path id="right-margin-Regular-S" d="M510,56 l0,110" />
        <path id="left-margin-Black-S" d="M620,56 l0,110" />
        <path id="right-margin-Black-S" d="M710,56 l0,110" />
        <path id="Capline-M" d="M18,276 l800,0" />
        <path id="Baseline-M" d="M18,346 l800,0" />
        <path id="Capline-L" d="M18,476 l800,0" />
        <path id="Baseline-L" d="M18,546 l800,0" />
    </g>
    <g id="Symbols">
        <g id="Ultralight-S">
            <path d="M250.417,76 L241.667,76 C238.572,76 235.605,77.229 233.417,79.417 C231.229,81.605 230,84.572 230,87.667 L230,96.417 C230,99.511 231.229,102.478 233.417,104.666 C235.605,106.854 238.572,108.083 241.667,108.083 L250.417,108.083 C253.511,108.083 256.478,106.854 258.666,104.666 C260.854,102.478 262.083,99.511 262.083,96.417 L262.083,87.667 C262.083,84.572 260.854,81.605 258.666,79.417 C256.478,77.229 253.511,76 250.417,76 Z M256.25,96.417 C256.25,97.964 255.635,99.447 254.541,100.541 C253.447,101.635 251.964,102.25 250.417,102.25 L241.667,102.25 C240.12,102.25 238.636,101.635 237.542,100.541 C236.448,99.447 235.833,97.964 235.833,96.417 L235.833,87.667 C235.833,86.12 236.448,84.636 237.542,83.542 C238.636,82.448 240.12,81.833 241.667,81.833 L250.417,81.833 C251.964,81.833 253.447,82.448 254.541,83.542 C255.635,84.636 256.25,86.12 256.25,87.667 Z" />
            <path d="M288.333,76 L279.583,76 C276.489,76 273.522,77.229 271.334,79.417 C269.146,81.605 267.917,84.572 267.917,87.667 L267.917,96.417 C267.917,99.511 269.146,102.478 271.334,104.666 C273.522,106.854 276.489,108.083 279.583,108.083 L288.333,108.083 C291.428,108.083 294.395,106.854 296.583,104.666 C298.771,102.478 300,99.511 300,96.417 L300,87.667 C300,84.572 298.771,81.605 296.583,79.417 C294.395,77.229 291.428,76 288.333,76 Z M294.167,96.417 C294.167,97.964 293.552,99.447 292.458,100.541 C291.364,101.635 289.88,102.25 288.333,102.25 L279.583,102.25 C278.036,102.25 276.553,101.635 275.459,100.541 C274.365,99.447 273.75,97.964 273.75,96.417 L273.75,87.667 C273.75,86.12 274.365,84.636 275.459,83.542 C276.553,82.448 278.036,81.833 279.583,81.833 L288.333,81.833 C289.88,81.833 291.364,82.448 292.458,83.542 C293.552,84.636 294.167,86.12 294.167,87.667 Z" />
            <path d="M250.417,113.917 L241.667,113.917 C238.572,113.917 235.605,115.146 233.417,117.334 C231.229,119.522 230,122.489 230,125.583 L230,134.333 C230,137.428 231.229,140.395 233.417,142.583 C235.605,144.771 238.572,146 241.667,146 L250.417,146 C253.511,146 256.478,144.771 258.666,142.583 C260.854,140.395 262.083,137.428 262.083,134.333 L262.083,125.583 C262.083,122.489 260.854,119.522 258.666,117.334 C256.478,115.146 253.511,113.917 250.417,113.917 Z M256.25,134.333 C256.25,135.88 255.635,137.364 254.541,138.458 C253.447,139.552 251.964,140.167 250.417,140.167 L241.667,140.167 C240.12,140.167 238.636,139.552 237.542,138.458 C236.448,137.364 235.833,135.88 235.833,134.333 L235.833,125.583 C235.833,124.036 236.448,122.553 237.542,121.459 C238.636,120.365 240.12,119.75 241.667,119.75 L250.417,119.75 C251.964,119.75 253.447,120.365 254.541,121.459 C255.635,122.553 256.25,124.036 256.25,125.583 Z" />
            <path d="M288.333,113.917 L279.583,113.917 C276.489,113.917 273.522,115.146 271.334,117.334 C269.146,119.522 267.917,122.489 267.917,125.583 L267.917,134.333 C267.917,137.428 269.146,140.395 271.334,142.583 C273.522,144.771 276.489,146 279.583,146 L288.333,146 C291.428,146 294.395,144.771 296.583,142.583 C298.771,140.395 300,137.428 300,134.333 L300,125.583 C300,122.489 298.771,119.522 296.583,117.334 C294.395,115.146 291.428,113.917 288.333,113.917 Z M294.167,134.333 C294.167,135.88 293.552,137.364 292.458,138.458 C291.364,139.552 289.88,140.167 288.333,140.167 L279.583,140.167 C278.036,140.167 276.553,139.552 275.459,138.458 C274.365,137.364 273.75,135.88 273.75,134.333 L273.75,125.583 C273.75,124.036 274.365,122.553 275.459,121.459 C276.553,120.365 278.036,119.75 279.583,119.75 L288.333,119.75 C289.88,119.75 291.364,120.365 292.458,121.459 C293.552,122.553 294.167,124.036 294.167,125.583 Z" />
        </g>
        <g id="Regular-S">
            <path d="M450.417,76 L441.667,76 C438.572,76 435.605,77.229 433.417,79.417 C431.229,81.605 430,84.572 430,87.667 L430,96.417 C430,99.511 431.229,102.478 433.417,104.666 C435.605,106.854 438.572,108.083 441.667,108.083 L450.417,108.083 C453.511,108.083 456.478,106.854 458.666,104.666 C460.854,102.478 462.083,99.511 462.083,96.417 L462.083,87.667 C462.083,84.572 460.854,81.605 458.666,79.417 C456.478,77.229 453.511,76 450.417,76 Z M456.25,96.417 C456.25,97.964 455.635,99.447 454.541,100.541 C453.448,101.635 451.964,102.25 450.417,102.25 L441.667,102.25 C440.12,102.25 438.636,101.635 437.542,100.541 C436.448,99.447 435.833,97.964 435.833,96.417 L435.833,87.667 C435.833,86.12 436.448,84.636 437.542,83.542 C438.636,82.448 440.12,81.833 441.667,81.833 L450.417,81.833 C451.964,81.833 453.448,82.448 454.541,83.542 C455.635,84.636 456.25,86.12 456.25,87.667 Z" />
            <path d="M488.333,76 L479.583,76 C476.489,76 473.522,77.229 471.334,79.417 C469.146,81.605 467.917,84.572 467.917,87.667 L467.917,96.417 C467.917,99.511 469.146,102.478 471.334,104.666 C473.522,106.854 476.489,108.083 479.583,108.083 L488.333,108.083 C491.428,108.083 494.395,106.854 496.583,104.666 C498.771,102.478 500,99.511 500,96.417 L500,87.667 C500,84.572 498.771,81.605 496.583,79.417 C494.395,77.229 491.428,76 488.333,76 Z M494.167,96.417 C494.167,97.964 493.552,99.447 492.458,100.541 C491.364,101.635 489.88,102.25 488.333,102.25 L479.583,102.25 C478.036,102.25 476.553,101.635 475.459,100.541 C474.365,99.447 473.75,97.964 473.75,96.417 L473.75,87.667 C473.75,86.12 474.365,84.636 475.459,83.542 C476.553,82.448 478.036,81.833 479.583,81.833 L488.333,81.833 C489.88,81.833 491.364,82.448 492.458,83.542 C493.552,84.636 494.167,86.12 494.167,87.667 Z" />
            <path d="M450.417,113.917 L441.667,113.917 C438.572,113.917 435.605,115.146 433.417,117.334 C431.229,119.522 430,122.489 430,125.583 L430,134.333 C430,137.428 431.229,140.395 433.417,142.583 C435.605,144.771 438.572,146 441.667,146 L450.417,146 C453.511,146 456.478,144.771 458.666,142.583 C460.854,140.395 462.083,137.428 462.083,134.333 L462.083,125.583 C462.083,122.489 460.854,119.522 458.666,117.334 C456.478,115.146 453.511,113.917 450.417,113.917 Z M456.25,134.333 C456.25,135.88 455.635,137.364 454.541,138.458 C453.448,139.552 451.964,140.167 450.417,140.167 L441.667,140.167 C440.12,140.167 438.636,139.552 437.542,138.458 C436.448,137.364 435.833,135.88 435.833,134.333 L435.833,125.583 C435.833,124.036 436.448,122.553 437.542,121.459 C438.636,120.365 440.12,119.75 441.667,119.75 L450.417,119.75 C451.964,119.75 453.448,120.365 454.541,121.459 C455.635,122.553 456.25,124.036 456.25,125.583 Z" />
            <path d="M488.333,113.917 L479.583,113.917 C476.489,113.917 473.522,115.146 471.334,117.334 C469.146,119.522 467.917,122.489 467.917,125.583 L467.917,134.333 C467.917,137.428 469.146,140.395 471.334,142.583 C473.522,144.771 476.489,146 479.583,146 L488.333,146 C491.428,146 494.395,144.771 496.583,142.583 C498.771,140.395 500,137.428 500,134.333 L500,125.583 C500,122.489 498.771,119.522 496.583,117.334 C494.395,115.146 491.428,113.917 488.333,113.917 Z M494.167,134.333 C494.167,135.88 493.552,137.364 492.458,138.458 C491.364,139.552 489.88,140.167 488.333,140.167 L479.583,140.167 C478.036,140.167 476.553,139.552 475.459,138.458 C474.365,137.364 473.75,135.88 473.75,134.333 L473.75,125.583 C473.75,124.036 474.365,122.553 475.459,121.459 C476.553,120.365 478.036,119.75 479.583,119.75 L488.333,119.75 C489.88,119.75 491.364,120.365 492.458,121.459 C493.552,122.553 494.167,124.036 494.167,125.583 Z" />
        </g>
        <g id="Black-S">
            <path d="M650.417,76 L641.667,76 C638.572,76 635.605,77.229 633.417,79.417 C631.229,81.605 630,84.572 630,87.667 L630,96.417 C630,99.511 631.229,102.478 633.417,104.666 C635.605,106.854 638.572,108.083 641.667,108.083 L650.417,108.083 C653.511,108.083 656.478,106.854 658.666,104.666 C660.854,102.478 662.083,99.511 662.083,96.417 L662.083,87.667 C662.083,84.572 660.854,81.605 658.666,79.417 C656.478,77.229 653.511,76 650.417,76 Z M656.25,96.417 C656.25,97.964 655.635,99.447 654.541,100.541 C653.448,101.635 651.964,102.25 650.417,102.25 L641.667,102.25 C640.12,102.25 638.636,101.635 637.542,100.541 C636.448,99.447 635.833,97.964 635.833,96.417 L635.833,87.667 C635.833,86.12 636.448,84.636 637.542,83.542 C638.636,82.448 640.12,81.833 641.667,81.833 L650.417,81.833 C651.964,81.833 653.448,82.448 654.541,83.542 C655.635,84.636 656.25,86.12 656.25,87.667 Z" />
            <path d="M688.333,76 L679.583,76 C676.489,76 673.522,77.229 671.334,79.417 C669.146,81.605 667.917,84.572 667.917,87.667 L667.917,96.417 C667.917,99.511 669.146,102.478 671.334,104.666 C673.522,106.854 676.489,108.083 679.583,108.083 L688.333,108.083 C691.428,108.083 694.395,106.854 696.583,104.666 C698.771,102.478 700,99.511 700,96.417 L700,87.667 C700,84.572 698.771,81.605 696.583,79.417 C694.395,77.229 691.427,76 688.333,76 Z M694.167,96.417 C694.167,97.964 693.552,99.447 692.458,100.541 C691.364,101.635 689.88,102.25 688.333,102.25 L679.583,102.25 C678.036,102.25 676.552,101.635 675.459,100.541 C674.365,99.447 673.75,97.964 673.75,96.417 L673.75,87.667 C673.75,86.12 674.365,84.636 675.459,83.542 C676.552,82.448 678.036,81.833 679.583,81.833 L688.333,81.833 C689.88,81.833 691.364,82.448 692.458,83.542 C693.552,84.636 694.167,86.12 694.167,87.667 Z" />
            <path d="M650.417,113.917 L641.667,113.917 C638.572,113.917 635.605,115.146 633.417,117.334 C631.229,119.522 630,122.489 630,125.583 L630,134.333 C630,137.428 631.229,140.395 633.417,142.583 C635.605,144.771 638.572,146 641.667,146 L650.417,146 C653.511,146 656.478,144.771 658.666,142.583 C660.854,140.395 662.083,137.428 662.083,134.333 L662.083,125.583 C662.083,122.489 660.854,119.522 658.666,117.334 C656.478,115.146 653.511,113.917 650.417,113.917 Z M656.25,134.333 C656.25,135.88 655.635,137.364 654.541,138.458 C653.448,139.552 651.964,140.167 650.417,140.167 L641.667,140.167 C640.12,140.167 638.636,139.552 637.542,138.458 C636.448,137.364 635.833,135.88 635.833,134.333 L635.833,125.583 C635.833,124.036 636.448,122.553 637.542,121.459 C638.636,120.365 640.12,119.75 641.667,119.75 L650.417,119.75 C651.964,119.75 653.448,120.365 654.541,121.459 C655.635,122.553 656.25,124.036 656.25,125.583 Z" />
            <path d="M688.333,113.917 L679.583,113.917 C676.489,113.917 673.522,115.146 671.334,117.334 C669.146,119.522 667.917,122.489 667.917,125.583 L667.917,134.333 C667.917,137.428 669.146,140.395 671.334,142.583 C673.522,144.771 676.489,146 679.583,146 L688.333,146 C691.428,146 694.395,144.771 696.583,142.583 C698.771,140.395 700,137.428 700,134.333 L700,125.583 C700,122.489 698.771,119.522 696.583,117.334 C694.395,115.146 691.427,113.917 688.333,113.917 Z M694.167,134.333 C694.167,135.88 693.552,137.364 692.458,138.458 C691.364,139.552 689.88,140.167 688.333,140.167 L679.583,140.167 C678.036,140.167 676.552,139.552 675.459,138.458 C674.365,137.364 673.75,135.88 673.75,134.333 L673.75,125.583 C673.75,124.036 674.365,122.553 675.459,121.459 C676.552,120.365 678.036,119.75 679.583,119.75 L688.333,119.75 C689.88,119.75 691.364,120.365 692.458,121.459 C693.552,122.553 694.167,124.036 694.167,125.583 Z" />
        </g>
    </g>
</svg>