<?xml version="1.0" encoding="UTF-8"?>
<svg height="600" width="800" xmlns="http://www.w3.org/2000/svg" xmlns:xlink="http://www.w3.org/1999/xlink">
    <g id="Notes" font-family="'LucidaGrande', 'Lucida Grande', sans-serif" font-size="13">
        <rect fill="white" height="600.0" width="800.0" x="0.0" y="0.0" />
        <g font-size="13">
            <text x="18.0" y="176.0">Small</text>
            <text x="18.0" y="376.0">Medium</text>
            <text x="18.0" y="576.0">Large</text>
        </g>
        <g font-size="9">
            <text x="250.0" y="30.0">Ultralight</text>
            <text x="450.0" y="30.0">Regular</text>
            <text x="650.0" y="30.0">Black</text>
            <text id="template-version" fill="#505050" text-anchor="end" x="785.0" y="575.0">Template v.3.0</text>
            <a href="https://wangchujiang.com/#/app">
                <text fill="#505050" text-anchor="end" x="785.0" y="590.0">https://wangchujiang.com/#/app</text>
            </a>
        </g>
    </g>
    <g id="Guides" stroke="rgb(39, 170, 225)" stroke-width="0.5">
        <path id="Capline-S" d="M18,76 l800,0" />
        <path id="H-reference" d="M85,145.755 L87.685,145.755 L113.369,79.287 L114.052,79.287 L114.052,76 L112.148,76 L85,145.755 Z M95.693,121.536 L130.996,121.536 L130.263,119.313 L96.474,119.313 L95.693,121.536 Z M139.15,145.755 L141.787,145.755 L114.638,76 L113.466,76 L113.466,79.287 L139.15,145.755 Z" stroke="none" />
        <path id="Baseline-S" d="M18,146 l800,0" />
        <path id="left-margin-Ultralight-S" d="M220,56 l0,110" />
        <path id="right-margin-Ultralight-S" d="M310,56 l0,110" />
        <path id="left-margin-Regular-S" d="M420,56 l0,110" />
        <path id="right-margin-Regular-S" d="M510,56 l0,110" />
        <path id="left-margin-Black-S" d="M620,56 l0,110" />
        <path id="right-margin-Black-S" d="M710,56 l0,110" />
        <path id="Capline-M" d="M18,276 l800,0" />
        <path id="Baseline-M" d="M18,346 l800,0" />
        <path id="Capline-L" d="M18,476 l800,0" />
        <path id="Baseline-L" d="M18,546 l800,0" />
    </g>
    <g id="Symbols">
        <g id="Ultralight-S">
            <path d="M279.315,144.365 C275.204,145.446 270.47,146 265,146 C259.53,146 254.796,145.446 250.685,144.365 C250.695,133.696 254.312,130.091 265,130.091 C275.688,130.091 279.305,133.699 279.315,144.365 Z M265,98.273 C259.944,98.273 258.636,99.58 258.636,104.636 C258.636,109.692 259.944,111 265,111 C270.056,111 271.364,109.692 271.364,104.636 C271.364,99.58 270.056,98.273 265,98.273 Z M300,111 C300,126.998 295.514,136.98 285.612,142.013 C284.912,129.397 278.475,123.727 265,123.727 C251.525,123.727 245.088,129.397 244.388,142.013 C234.49,136.98 230,126.995 230,111 C230,86.468 240.468,76 265,76 C289.532,76 300,86.468 300,111 Z M277.727,104.636 C277.727,96.074 273.562,91.909 265,91.909 C256.438,91.909 252.273,96.074 252.273,104.636 C252.273,113.199 256.438,117.364 265,117.364 C273.562,117.364 277.727,113.199 277.727,104.636 Z" />
        </g>
        <g id="Regular-S">
            <path d="M479.315,144.365 C475.204,145.446 470.47,146 465,146 C459.53,146 454.796,145.446 450.685,144.365 C450.695,133.696 454.312,130.091 465,130.091 C475.688,130.091 479.305,133.699 479.315,144.365 Z M465,98.273 C459.944,98.273 458.636,99.58 458.636,104.636 C458.636,109.692 459.944,111 465,111 C470.056,111 471.364,109.692 471.364,104.636 C471.364,99.58 470.056,98.273 465,98.273 Z M500,111 C500,126.998 495.514,136.98 485.612,142.013 C484.912,129.397 478.475,123.727 465,123.727 C451.525,123.727 445.088,129.397 444.388,142.013 C434.49,136.98 430,126.995 430,111 C430,86.468 440.468,76 465,76 C489.532,76 500,86.468 500,111 Z M477.727,104.636 C477.727,96.074 473.562,91.909 465,91.909 C456.438,91.909 452.273,96.074 452.273,104.636 C452.273,113.199 456.438,117.364 465,117.364 C473.562,117.364 477.727,113.199 477.727,104.636 Z" />
        </g>
        <g id="Black-S">
            <path d="M679.315,144.365 C675.204,145.446 670.47,146 665,146 C659.53,146 654.796,145.446 650.685,144.365 C650.695,133.696 654.312,130.091 665,130.091 C675.688,130.091 679.305,133.699 679.315,144.365 Z M665,98.273 C659.944,98.273 658.636,99.58 658.636,104.636 C658.636,109.692 659.944,111 665,111 C670.056,111 671.364,109.692 671.364,104.636 C671.364,99.58 670.056,98.273 665,98.273 Z M700,111 C700,126.998 695.514,136.98 685.612,142.013 C684.912,129.397 678.475,123.727 665,123.727 C651.525,123.727 645.088,129.397 644.388,142.013 C634.49,136.98 630,126.995 630,111 C630,86.468 640.468,76 665,76 C689.532,76 700,86.468 700,111 Z M677.727,104.636 C677.727,96.074 673.562,91.909 665,91.909 C656.438,91.909 652.273,96.074 652.273,104.636 C652.273,113.199 656.438,117.364 665,117.364 C673.562,117.364 677.727,113.199 677.727,104.636 Z" />
        </g>
    </g>
</svg>