<?xml version="1.0" encoding="UTF-8"?>
<svg height="600" width="800" xmlns="http://www.w3.org/2000/svg" xmlns:xlink="http://www.w3.org/1999/xlink">
    <g id="Notes" font-family="'LucidaGrande', 'Lucida Grande', sans-serif" font-size="13">
        <rect fill="white" height="600.0" width="800.0" x="0.0" y="0.0" />
        <g font-size="13">
            <text x="18.0" y="176.0">Small</text>
            <text x="18.0" y="376.0">Medium</text>
            <text x="18.0" y="576.0">Large</text>
        </g>
        <g font-size="9">
            <text x="250.0" y="30.0">Ultralight</text>
            <text x="450.0" y="30.0">Regular</text>
            <text x="650.0" y="30.0">Black</text>
            <text id="template-version" fill="#505050" text-anchor="end" x="785.0" y="575.0">Template v.3.0</text>
            <a href="https://wangchujiang.com/#/app">
                <text fill="#505050" text-anchor="end" x="785.0" y="590.0">https://wangchujiang.com/#/app</text>
            </a>
        </g>
    </g>
    <g id="Guides" stroke="rgb(39, 170, 225)" stroke-width="0.5">
        <path id="Capline-S" d="M18,76 l800,0" />
        <path id="H-reference" d="M85,145.755 L87.685,145.755 L113.369,79.287 L114.052,79.287 L114.052,76 L112.148,76 L85,145.755 Z M95.693,121.536 L130.996,121.536 L130.263,119.313 L96.474,119.313 L95.693,121.536 Z M139.15,145.755 L141.787,145.755 L114.638,76 L113.466,76 L113.466,79.287 L139.15,145.755 Z" stroke="none" />
        <path id="Baseline-S" d="M18,146 l800,0" />
        <path id="left-margin-Ultralight-S" d="M221,56 l0,110" />
        <path id="right-margin-Ultralight-S" d="M309,56 l0,110" />
        <path id="left-margin-Regular-S" d="M421,56 l0,110" />
        <path id="right-margin-Regular-S" d="M509,56 l0,110" />
        <path id="left-margin-Black-S" d="M621,56 l0,110" />
        <path id="right-margin-Black-S" d="M709,56 l0,110" />
        <path id="Capline-M" d="M18,276 l800,0" />
        <path id="Baseline-M" d="M18,346 l800,0" />
        <path id="Capline-L" d="M18,476 l800,0" />
        <path id="Baseline-L" d="M18,546 l800,0" />
    </g>
    <g id="Symbols">
        <g id="Ultralight-S">
            <path d="M254.609,138.036 C255.856,142.621 260.043,146 265.001,146 C269.958,146 274.139,142.624 275.389,138.042 C272.561,138.437 269.201,138.656 264.997,138.656 C260.794,138.656 257.441,138.434 254.609,138.036 Z" />
            <path d="M289.402,112.39 C288.788,111.086 288.091,109.737 287.324,108.343 C286.647,107.112 286.293,105.626 286.303,104.048 L286.303,104.048 C286.322,100.643 286.103,97.191 285.651,93.786 C284.349,83.98 275.151,76 264.851,76 C254.848,76 245.649,83.98 244.348,93.786 C243.896,97.188 243.676,100.64 243.695,104.045 C243.705,105.623 243.352,107.109 242.671,108.343 C241.91,109.727 241.213,111.076 240.603,112.371 C239.098,115.563 238.977,119.133 240.265,122.413 C241.548,125.694 244.052,128.226 247.316,129.547 C251.383,131.192 255.945,132.283 264.997,132.283 C274.155,132.283 278.568,131.236 282.72,129.547 C285.972,128.223 288.467,125.687 289.742,122.416 C291.022,119.136 290.901,115.572 289.399,112.384 Z" />
        </g>
        <g id="Regular-S">
            <path d="M454.609,138.036 C455.856,142.621 460.043,146 465.001,146 C469.958,146 474.139,142.624 475.389,138.042 C472.561,138.437 469.201,138.656 464.997,138.656 C460.794,138.656 457.441,138.434 454.609,138.036 Z" />
            <path d="M489.402,112.39 C488.788,111.086 488.091,109.737 487.324,108.343 C486.647,107.112 486.293,105.626 486.303,104.048 L486.303,104.048 C486.322,100.643 486.102,97.191 485.651,93.786 C484.349,83.98 475.151,76 464.851,76 C454.847,76 445.649,83.98 444.347,93.786 C443.896,97.188 443.676,100.64 443.695,104.045 C443.705,105.623 443.352,107.109 442.671,108.343 C441.91,109.727 441.213,111.076 440.602,112.371 C439.097,115.563 438.977,119.133 440.265,122.413 C441.547,125.694 444.052,128.226 447.316,129.547 C451.382,131.192 455.945,132.283 464.997,132.283 C474.155,132.283 478.568,131.236 482.72,129.547 C485.972,128.223 488.467,125.687 489.742,122.416 C491.022,119.136 490.901,115.572 489.399,112.384 Z" />
        </g>
        <g id="Black-S">
            <path d="M654.609,138.036 C655.856,142.621 660.043,146 665.001,146 C669.958,146 674.139,142.624 675.389,138.042 C672.561,138.437 669.201,138.656 664.997,138.656 C660.794,138.656 657.441,138.434 654.609,138.036 Z" />
            <path d="M689.402,112.39 C688.788,111.086 688.091,109.737 687.324,108.343 C686.647,107.112 686.293,105.626 686.303,104.048 L686.303,104.048 C686.322,100.643 686.102,97.191 685.651,93.786 C684.349,83.98 675.151,76 664.851,76 C654.847,76 645.649,83.98 644.347,93.786 C643.896,97.188 643.676,100.64 643.695,104.045 C643.705,105.623 643.352,107.109 642.671,108.343 C641.91,109.727 641.213,111.076 640.602,112.371 C639.097,115.563 638.977,119.133 640.265,122.413 C641.547,125.694 644.052,128.226 647.316,129.547 C651.383,131.192 655.945,132.283 664.997,132.283 C674.155,132.283 678.568,131.236 682.72,129.547 C685.972,128.223 688.467,125.687 689.742,122.416 C691.022,119.136 690.901,115.572 689.399,112.384 Z" />
        </g>
    </g>
</svg>