<?xml version="1.0" encoding="UTF-8"?>
<svg height="600" width="800" xmlns="http://www.w3.org/2000/svg" xmlns:xlink="http://www.w3.org/1999/xlink">
    <g id="Notes" font-family="'LucidaGrande', 'Lucida Grande', sans-serif" font-size="13">
        <rect fill="white" height="600.0" width="800.0" x="0.0" y="0.0" />
        <g font-size="13">
            <text x="18.0" y="176.0">Small</text>
            <text x="18.0" y="376.0">Medium</text>
            <text x="18.0" y="576.0">Large</text>
        </g>
        <g font-size="9">
            <text x="250.0" y="30.0">Ultralight</text>
            <text x="450.0" y="30.0">Regular</text>
            <text x="650.0" y="30.0">Black</text>
            <text id="template-version" fill="#505050" text-anchor="end" x="785.0" y="575.0">Template v.3.0</text>
            <a href="https://wangchujiang.com/#/app">
                <text fill="#505050" text-anchor="end" x="785.0" y="590.0">https://wangchujiang.com/#/app</text>
            </a>
        </g>
    </g>
    <g id="Guides" stroke="rgb(39, 170, 225)" stroke-width="0.5">
        <path id="Capline-S" d="M18,76 l800,0" />
        <path id="H-reference" d="M85,145.755 L87.685,145.755 L113.369,79.287 L114.052,79.287 L114.052,76 L112.148,76 L85,145.755 Z M95.693,121.536 L130.996,121.536 L130.263,119.313 L96.474,119.313 L95.693,121.536 Z M139.15,145.755 L141.787,145.755 L114.638,76 L113.466,76 L113.466,79.287 L139.15,145.755 Z" stroke="none" />
        <path id="Baseline-S" d="M18,146 l800,0" />
        <path id="left-margin-Ultralight-S" d="M216.974,56 l0,110" />
        <path id="right-margin-Ultralight-S" d="M313.026,56 l0,110" />
        <path id="left-margin-Regular-S" d="M416.974,56 l0,110" />
        <path id="right-margin-Regular-S" d="M513.026,56 l0,110" />
        <path id="left-margin-Black-S" d="M616.974,56 l0,110" />
        <path id="right-margin-Black-S" d="M713.026,56 l0,110" />
        <path id="Capline-M" d="M18,276 l800,0" />
        <path id="Baseline-M" d="M18,346 l800,0" />
        <path id="Capline-L" d="M18,476 l800,0" />
        <path id="Baseline-L" d="M18,546 l800,0" />
    </g>
    <g id="Symbols">
        <g id="Ultralight-S">
            <path d="M267.782,76 C255.391,76 239.397,78.42 234.233,97.009 C232.871,96.418 231.267,96.411 229.836,97.127 C227.274,98.409 226.241,101.524 227.527,104.085 C229.604,108.226 230.862,109.927 234.599,112.737 C236.963,114.514 239.331,113.681 240.043,113.342 C244.288,111.316 245.95,110.03 248.951,106.467 C250.793,104.275 250.513,101.005 248.322,99.159 C247.295,98.295 246.03,97.901 244.786,97.95 C247.834,89.664 254.862,86.366 267.786,86.366 C283.538,86.366 292.656,90.397 292.656,110.998 C292.656,131.6 283.14,135.63 267.786,135.63 C253.901,135.63 247.119,131.894 244.367,122.737 C243.545,119.996 240.658,118.43 237.91,119.263 C235.169,120.086 233.614,122.979 234.436,125.72 C239.894,143.895 256.085,146 267.786,146 C282.912,146 303.026,142.371 303.026,110.998 C303.026,79.626 282.912,76 267.782,76 Z" />
        </g>
        <g id="Regular-S">
            <path d="M467.782,76 C455.39,76 439.397,78.42 434.233,97.009 C432.871,96.418 431.267,96.411 429.836,97.127 C427.274,98.409 426.241,101.524 427.527,104.085 C429.604,108.226 430.862,109.927 434.599,112.737 C436.963,114.514 439.331,113.681 440.043,113.342 C444.288,111.316 445.95,110.03 448.951,106.467 C450.793,104.275 450.513,101.005 448.322,99.159 C447.295,98.295 446.03,97.901 444.786,97.95 C447.834,89.664 454.862,86.366 467.786,86.366 C483.538,86.366 492.656,90.397 492.656,110.998 C492.656,131.6 483.14,135.63 467.786,135.63 C453.901,135.63 447.119,131.894 444.367,122.737 C443.545,119.996 440.658,118.43 437.91,119.263 C435.169,120.086 433.614,122.979 434.436,125.72 C439.894,143.895 456.085,146 467.786,146 C482.912,146 503.026,142.371 503.026,110.998 C503.026,79.626 482.912,76 467.782,76 Z" />
        </g>
        <g id="Black-S">
            <path d="M667.782,76 C655.391,76 639.397,78.42 634.232,97.009 C632.871,96.418 631.267,96.411 629.836,97.127 C627.274,98.409 626.241,101.524 627.527,104.085 C629.604,108.226 630.862,109.927 634.599,112.737 C636.963,114.514 639.331,113.681 640.043,113.342 C644.288,111.316 645.95,110.03 648.951,106.467 C650.793,104.275 650.513,101.005 648.322,99.159 C647.295,98.295 646.03,97.901 644.786,97.95 C647.834,89.664 654.862,86.366 667.786,86.366 C683.538,86.366 692.656,90.397 692.656,110.998 C692.656,131.6 683.14,135.63 667.786,135.63 C653.901,135.63 647.119,131.894 644.367,122.737 C643.545,119.996 640.658,118.43 637.91,119.263 C635.169,120.086 633.614,122.979 634.436,125.72 C639.894,143.895 656.085,146 667.786,146 C682.912,146 703.026,142.371 703.026,110.998 C703.026,79.626 682.912,76 667.782,76 Z" />
        </g>
    </g>
</svg>