<?xml version="1.0" encoding="UTF-8"?>
<!--Generator: Apple Native CoreSVG 341-->
<!DOCTYPE svg
PUBLIC "-//W3C//DTD SVG 1.1//EN"
       "http://www.w3.org/Graphics/SVG/1.1/DTD/svg11.dtd">
<svg version="1.1" xmlns="http://www.w3.org/2000/svg" xmlns:xlink="http://www.w3.org/1999/xlink" viewBox="0 0 3300 2200">
 <!--glyph: "", point size: 100.0, font version: "20.0d10e1", template writer version: "138.0.0"-->
 <style>.SFSymbolsPreviewWireframe {fill:none;opacity:1.0;stroke:black;stroke-width:0.5}
</style>
 <g id="Notes">
  <rect height="2200" id="artboard" style="fill:white;opacity:1" width="3300" x="0" y="0"/>
  <line style="fill:none;stroke:black;opacity:1;stroke-width:0.5;" x1="263" x2="3036" y1="292" y2="292"/>
  <text style="stroke:none;fill:black;font-family:sans-serif;font-size:13;font-weight:bold;" transform="matrix(1 0 0 1 263 322)">Weight/Scale Variations</text>
  <text style="stroke:none;fill:black;font-family:sans-serif;font-size:13;text-anchor:middle;" transform="matrix(1 0 0 1 559.711 322)">Ultralight</text>
  <text style="stroke:none;fill:black;font-family:sans-serif;font-size:13;text-anchor:middle;" transform="matrix(1 0 0 1 856.422 322)">Thin</text>
  <text style="stroke:none;fill:black;font-family:sans-serif;font-size:13;text-anchor:middle;" transform="matrix(1 0 0 1 1153.13 322)">Light</text>
  <text style="stroke:none;fill:black;font-family:sans-serif;font-size:13;text-anchor:middle;" transform="matrix(1 0 0 1 1449.84 322)">Regular</text>
  <text style="stroke:none;fill:black;font-family:sans-serif;font-size:13;text-anchor:middle;" transform="matrix(1 0 0 1 1746.56 322)">Medium</text>
  <text style="stroke:none;fill:black;font-family:sans-serif;font-size:13;text-anchor:middle;" transform="matrix(1 0 0 1 2043.27 322)">Semibold</text>
  <text style="stroke:none;fill:black;font-family:sans-serif;font-size:13;text-anchor:middle;" transform="matrix(1 0 0 1 2339.98 322)">Bold</text>
  <text style="stroke:none;fill:black;font-family:sans-serif;font-size:13;text-anchor:middle;" transform="matrix(1 0 0 1 2636.69 322)">Heavy</text>
  <text style="stroke:none;fill:black;font-family:sans-serif;font-size:13;text-anchor:middle;" transform="matrix(1 0 0 1 2933.4 322)">Black</text>
  <line style="fill:none;stroke:black;opacity:1;stroke-width:0.5;" x1="263" x2="3036" y1="1903" y2="1903"/>
  <g transform="matrix(0.2 0 0 0.2 263 1933)">
   <path d="m46.2402 4.15039c21.7773 0 39.4531-17.627 39.4531-39.4043s-17.6758-39.4043-39.4531-39.4043c-21.7285 0-39.4043 17.627-39.4043 39.4043s17.6758 39.4043 39.4043 39.4043Zm0-7.42188c-17.6758 0-31.9336-14.3066-31.9336-31.9824s14.2578-31.9824 31.9336-31.9824 31.9824 14.3066 31.9824 31.9824-14.3066 31.9824-31.9824 31.9824Zm-17.9688-31.9824c0 2.14844 1.51367 3.61328 3.75977 3.61328h10.498v10.5957c0 2.19727 1.46484 3.71094 3.61328 3.71094 2.24609 0 3.71094-1.51367 3.71094-3.71094v-10.5957h10.5957c2.19727 0 3.71094-1.46484 3.71094-3.61328 0-2.19727-1.51367-3.71094-3.71094-3.71094h-10.5957v-10.5469c0-2.24609-1.46484-3.75977-3.71094-3.75977-2.14844 0-3.61328 1.51367-3.61328 3.75977v10.5469h-10.498c-2.24609 0-3.75977 1.51367-3.75977 3.71094Z"/>
  </g>
  <g transform="matrix(0.2 0 0 0.2 281.506 1933)">
   <path d="m58.5449 14.5508c27.4902 0 49.8047-22.3145 49.8047-49.8047s-22.3145-49.8047-49.8047-49.8047-49.8047 22.3145-49.8047 49.8047 22.3145 49.8047 49.8047 49.8047Zm0-8.30078c-22.9492 0-41.5039-18.5547-41.5039-41.5039s18.5547-41.5039 41.5039-41.5039 41.5039 18.5547 41.5039 41.5039-18.5547 41.5039-41.5039 41.5039Zm-22.6562-41.5039c0 2.39258 1.66016 4.00391 4.15039 4.00391h14.3555v14.4043c0 2.44141 1.66016 4.15039 4.05273 4.15039 2.44141 0 4.15039-1.66016 4.15039-4.15039v-14.4043h14.4043c2.44141 0 4.15039-1.61133 4.15039-4.00391 0-2.44141-1.70898-4.15039-4.15039-4.15039h-14.4043v-14.3555c0-2.49023-1.70898-4.19922-4.15039-4.19922-2.39258 0-4.05273 1.70898-4.05273 4.19922v14.3555h-14.3555c-2.49023 0-4.15039 1.70898-4.15039 4.15039Z"/>
  </g>
  <g transform="matrix(0.2 0 0 0.2 304.924 1933)">
   <path d="m74.8535 28.3203c35.1074 0 63.623-28.4668 63.623-63.5742s-28.5156-63.623-63.623-63.623-63.5742 28.5156-63.5742 63.623 28.4668 63.5742 63.5742 63.5742Zm0-9.08203c-30.127 0-54.4922-24.3652-54.4922-54.4922s24.3652-54.4922 54.4922-54.4922 54.4922 24.3652 54.4922 54.4922-24.3652 54.4922-54.4922 54.4922Zm-28.8574-54.4922c0 2.58789 1.85547 4.39453 4.58984 4.39453h19.7266v19.7754c0 2.68555 1.85547 4.58984 4.44336 4.58984 2.68555 0 4.54102-1.85547 4.54102-4.58984v-19.7754h19.7754c2.68555 0 4.58984-1.80664 4.58984-4.39453 0-2.73438-1.85547-4.58984-4.58984-4.58984h-19.7754v-19.7266c0-2.73438-1.85547-4.63867-4.54102-4.63867-2.58789 0-4.44336 1.9043-4.44336 4.63867v19.7266h-19.7266c-2.73438 0-4.58984 1.85547-4.58984 4.58984Z"/>
  </g>
  <text style="stroke:none;fill:black;font-family:sans-serif;font-size:13;font-weight:bold;" transform="matrix(1 0 0 1 263 1953)">Design Variations</text>
  <text style="stroke:none;fill:black;font-family:sans-serif;font-size:13;" transform="matrix(1 0 0 1 263 1971)">Symbols are supported in up to nine weights and three scales.</text>
  <text style="stroke:none;fill:black;font-family:sans-serif;font-size:13;" transform="matrix(1 0 0 1 263 1989)">For optimal layout with text and other symbols, vertically align</text>
  <text style="stroke:none;fill:black;font-family:sans-serif;font-size:13;" transform="matrix(1 0 0 1 263 2007)">symbols with the adjacent text.</text>
  <line style="fill:none;stroke:#00AEEF;stroke-width:0.5;opacity:1.0;" x1="776" x2="776" y1="1919" y2="1933"/>
  <g transform="matrix(0.2 0 0 0.2 776 1933)">
   <path d="m16.5527 0.78125c2.58789 0 3.85742-0.976562 4.78516-3.71094l6.29883-17.2363h28.8086l6.29883 17.2363c0.927734 2.73438 2.19727 3.71094 4.73633 3.71094 2.58789 0 4.24805-1.5625 4.24805-4.00391 0-0.830078-0.146484-1.61133-0.537109-2.63672l-22.9004-60.9863c-1.12305-2.97852-3.125-4.49219-6.25-4.49219-3.02734 0-5.07812 1.46484-6.15234 4.44336l-22.9004 61.084c-0.390625 1.02539-0.537109 1.80664-0.537109 2.63672 0 2.44141 1.5625 3.95508 4.10156 3.95508Zm13.4766-28.3691 11.8652-32.8613h0.244141l11.8652 32.8613Z"/>
  </g>
  <line style="fill:none;stroke:#00AEEF;stroke-width:0.5;opacity:1.0;" x1="792.836" x2="792.836" y1="1919" y2="1933"/>
  <text style="stroke:none;fill:black;font-family:sans-serif;font-size:13;font-weight:bold;" transform="matrix(1 0 0 1 776 1953)">Margins</text>
  <text style="stroke:none;fill:black;font-family:sans-serif;font-size:13;" transform="matrix(1 0 0 1 776 1971)">Leading and trailing margins on the left and right side of each symbol</text>
  <text style="stroke:none;fill:black;font-family:sans-serif;font-size:13;" transform="matrix(1 0 0 1 776 1989)">can be adjusted by modifying the x-location of the margin guidelines.</text>
  <text style="stroke:none;fill:black;font-family:sans-serif;font-size:13;" transform="matrix(1 0 0 1 776 2007)">Modifications are automatically applied proportionally to all</text>
  <text style="stroke:none;fill:black;font-family:sans-serif;font-size:13;" transform="matrix(1 0 0 1 776 2025)">scales and weights.</text>
  <g transform="matrix(0.2 0 0 0.2 1289 1933)">
   <path d="m14.209 9.32617 8.49609 8.54492c4.29688 4.3457 9.22852 4.05273 13.8672-1.07422l53.4668-58.9355-4.83398-4.88281-53.0762 58.3984c-1.75781 2.00195-3.41797 2.49023-5.76172 0.146484l-5.85938-5.81055c-2.34375-2.29492-1.80664-4.00391 0.195312-5.81055l57.373-54.0039-4.88281-4.83398-57.959 54.4434c-4.93164 4.58984-5.32227 9.47266-1.02539 13.8184Zm32.0801-90.9668c-2.09961 2.05078-2.24609 4.93164-1.07422 6.88477 1.17188 1.80664 3.4668 2.97852 6.68945 2.14844 7.32422-1.70898 14.9414-2.00195 22.0703 2.68555l-2.92969 7.27539c-1.70898 4.15039-0.830078 7.08008 1.85547 9.81445l11.4746 11.5723c2.44141 2.44141 4.49219 2.53906 7.32422 2.05078l5.32227-0.976562 3.32031 3.36914-0.195312 2.7832c-0.195312 2.49023 0.439453 4.39453 2.88086 6.78711l3.80859 3.71094c2.39258 2.39258 5.46875 2.53906 7.8125 0.195312l14.5508-14.5996c2.34375-2.34375 2.24609-5.32227-0.146484-7.71484l-3.85742-3.80859c-2.39258-2.39258-4.24805-3.17383-6.64062-2.97852l-2.88086 0.244141-3.22266-3.17383 1.2207-5.61523c0.634766-2.83203-0.146484-5.0293-3.07617-7.95898l-10.9863-10.9375c-16.6992-16.6016-38.8672-16.2109-53.3203-1.75781Zm7.4707 1.85547c12.1582-8.88672 28.6133-7.37305 39.7461 3.75977l12.1582 12.0605c1.17188 1.17188 1.36719 2.09961 1.02539 3.80859l-1.61133 7.42188 7.51953 7.42188 4.93164-0.292969c1.26953-0.0488281 1.66016 0.0488281 2.63672 1.02539l2.88086 2.88086-12.207 12.207-2.88086-2.88086c-0.976562-0.976562-1.12305-1.36719-1.07422-2.68555l0.341797-4.88281-7.4707-7.42188-7.61719 1.26953c-1.61133 0.341797-2.34375 0.195312-3.56445-0.976562l-10.0098-10.0098c-1.26953-1.17188-1.41602-2.00195-0.634766-3.85742l4.39453-10.4492c-7.8125-7.27539-17.9688-10.4004-28.125-7.42188-0.78125 0.195312-1.07422-0.439453-0.439453-0.976562Z"/>
  </g>
  <text style="stroke:none;fill:black;font-family:sans-serif;font-size:13;font-weight:bold;" transform="matrix(1 0 0 1 1289 1953)">Exporting</text>
  <text style="stroke:none;fill:black;font-family:sans-serif;font-size:13;" transform="matrix(1 0 0 1 1289 1971)">Symbols should be outlined when exporting to ensure the</text>
  <text style="stroke:none;fill:black;font-family:sans-serif;font-size:13;" transform="matrix(1 0 0 1 1289 1989)">design is preserved when submitting to Xcode.</text>
  <text id="template-version" style="stroke:none;fill:black;font-family:sans-serif;font-size:13;text-anchor:end;" transform="matrix(1 0 0 1 3036 1933)">Template v.6.0</text>
  <text style="stroke:none;fill:black;font-family:sans-serif;font-size:13;text-anchor:end;" transform="matrix(1 0 0 1 3036 1951)">Requires Xcode 16 or greater</text>
  <text id="descriptive-name" style="stroke:none;fill:black;font-family:sans-serif;font-size:13;text-anchor:end;" transform="matrix(1 0 0 1 3036 1969)">Generated from wechat</text>
  <text style="stroke:none;fill:black;font-family:sans-serif;font-size:13;text-anchor:end;" transform="matrix(1 0 0 1 3036 1987)">Typeset at 100.0 points</text>
  <text style="stroke:none;fill:black;font-family:sans-serif;font-size:13;" transform="matrix(1 0 0 1 263 726)">Small</text>
  <text style="stroke:none;fill:black;font-family:sans-serif;font-size:13;" transform="matrix(1 0 0 1 263 1156)">Medium</text>
  <text style="stroke:none;fill:black;font-family:sans-serif;font-size:13;" transform="matrix(1 0 0 1 263 1586)">Large</text>
 </g>
 <g id="Guides">
  <g id="H-reference" style="fill:#27AAE1;stroke:none;" transform="matrix(1 0 0 1 339 696)">
   <path d="M0.993654 0L3.63775 0L29.3281-67.1323L30.0303-67.1323L30.0303-70.459L28.1226-70.459ZM11.6885-24.4799L46.9815-24.4799L46.2315-26.7285L12.4385-26.7285ZM55.1196 0L57.7637 0L30.6382-70.459L29.4326-70.459L29.4326-67.1323Z"/>
  </g>
  <line id="Baseline-S" style="fill:none;stroke:#27AAE1;opacity:1;stroke-width:0.5;" x1="263" x2="3036" y1="696" y2="696"/>
  <line id="Capline-S" style="fill:none;stroke:#27AAE1;opacity:1;stroke-width:0.5;" x1="263" x2="3036" y1="625.541" y2="625.541"/>
  <g id="H-reference" style="fill:#27AAE1;stroke:none;" transform="matrix(1 0 0 1 339 1126)">
   <path d="M0.993654 0L3.63775 0L29.3281-67.1323L30.0303-67.1323L30.0303-70.459L28.1226-70.459ZM11.6885-24.4799L46.9815-24.4799L46.2315-26.7285L12.4385-26.7285ZM55.1196 0L57.7637 0L30.6382-70.459L29.4326-70.459L29.4326-67.1323Z"/>
  </g>
  <line id="Baseline-M" style="fill:none;stroke:#27AAE1;opacity:1;stroke-width:0.5;" x1="263" x2="3036" y1="1126" y2="1126"/>
  <line id="Capline-M" style="fill:none;stroke:#27AAE1;opacity:1;stroke-width:0.5;" x1="263" x2="3036" y1="1055.54" y2="1055.54"/>
  <g id="H-reference" style="fill:#27AAE1;stroke:none;" transform="matrix(1 0 0 1 339 1556)">
   <path d="M0.993654 0L3.63775 0L29.3281-67.1323L30.0303-67.1323L30.0303-70.459L28.1226-70.459ZM11.6885-24.4799L46.9815-24.4799L46.2315-26.7285L12.4385-26.7285ZM55.1196 0L57.7637 0L30.6382-70.459L29.4326-70.459L29.4326-67.1323Z"/>
  </g>
  <line id="Baseline-L" style="fill:none;stroke:#27AAE1;opacity:1;stroke-width:0.5;" x1="263" x2="3036" y1="1556" y2="1556"/>
  <line id="Capline-L" style="fill:none;stroke:#27AAE1;opacity:1;stroke-width:0.5;" x1="263" x2="3036" y1="1485.54" y2="1485.54"/>
  <line id="right-margin-Black-S" style="fill:none;stroke:#00AEEF;stroke-width:0.5;opacity:1.0;" x1="2994.15" x2="2994.15" y1="600.785" y2="720.121"/>
  <line id="left-margin-Black-S" style="fill:none;stroke:#00AEEF;stroke-width:0.5;opacity:1.0;" x1="2872.65" x2="2872.65" y1="600.785" y2="720.121"/>
  <line id="right-margin-Regular-S" style="fill:none;stroke:#00AEEF;stroke-width:0.5;opacity:1.0;" x1="1506.38" x2="1506.38" y1="600.785" y2="720.121"/>
  <line id="left-margin-Regular-S" style="fill:none;stroke:#00AEEF;stroke-width:0.5;opacity:1.0;" x1="1393.3" x2="1393.3" y1="600.785" y2="720.121"/>
  <line id="right-margin-Ultralight-S" style="fill:none;stroke:#00AEEF;stroke-width:0.5;opacity:1.0;" x1="611.321" x2="611.321" y1="600.785" y2="720.121"/>
  <line id="left-margin-Ultralight-S" style="fill:none;stroke:#00AEEF;stroke-width:0.5;opacity:1.0;" x1="508.101" x2="508.101" y1="600.785" y2="720.121"/>
 </g>
 <g id="Symbols">
  <g id="Black-S" transform="matrix(1 0 0 1 2872.65 696)">
   <path class="SFSymbolsPreviewWireframe" d="M48.5-78.9551C69.729-78.9551 87-64.8244 87-47.4551C87-45.301 86.7334-43.1451 86.2104-41.049L72.6274-44.4465C72.8752-45.4326 73-46.4451 73-47.4551C73-56.9409 61.7805-64.9551 48.5-64.9551C35.2195-64.9551 24-56.9409 24-47.4551C24-37.9694 35.2195-29.9551 48.5-29.9551C50.0022-29.9551 51.5061-30.0551 52.9707-30.2516L54.8335-16.3764C52.7537-16.097 50.6226-15.9551 48.5-15.9551C27.271-15.9551 10-30.0859 10-47.4551C10-64.8244 27.271-78.9551 48.5-78.9551ZM79.125-47.4551C96.9771-47.4551 111.5-35.6794 111.5-21.2051C111.5-6.7309 96.9771 5.04486 79.125 5.04486C61.2729 5.04486 46.75-6.7309 46.75-21.2051C46.75-35.6794 61.2729-47.4551 79.125-47.4551ZM79.125-8.95514C89.085-8.95514 97.5-14.5649 97.5-21.2051C97.5-27.8454 89.085-33.4551 79.125-33.4551C69.165-33.4551 60.75-27.8454 60.75-21.2051C60.75-14.5649 69.165-8.95514 79.125-8.95514ZM19.8796-13.066L26.5085-26.1623L38.0688-20.7459L19.8796-13.066ZM104.5 8.84937L86.3108 1.16949L97.8711-4.24683L104.5 8.84937ZM37.125-57.9551C39.5413-57.9551 41.5-55.9964 41.5-53.5801C41.5-51.1639 39.5413-49.2051 37.125-49.2051C34.7087-49.2051 32.75-51.1639 32.75-53.5801C32.75-55.9964 34.7087-57.9551 37.125-57.9551ZM59.875-57.9551C62.2913-57.9551 64.25-55.9964 64.25-53.5801C64.25-51.1639 62.2913-49.2051 59.875-49.2051C57.4587-49.2051 55.5-51.1639 55.5-53.5801C55.5-55.9964 57.4587-57.9551 59.875-57.9551ZM70.375-28.2051C72.7913-28.2051 74.75-26.2463 74.75-23.8301C74.75-21.4139 72.7913-19.4551 70.375-19.4551C67.9587-19.4551 66-21.4139 66-23.8301C66-26.2463 67.9587-28.2051 70.375-28.2051ZM87.875-28.2051C90.2913-28.2051 92.25-26.2463 92.25-23.8301C92.25-21.4139 90.2913-19.4551 87.875-19.4551C85.4587-19.4551 83.5-21.4139 83.5-23.8301C83.5-26.2463 85.4587-28.2051 87.875-28.2051Z"/>
  </g>
  <g id="Regular-S" transform="matrix(1 0 0 1 1393.3 696)">
   <path class="SFSymbolsPreviewWireframe" d="M44.9049-72.8439C64.151-72.8439 79.8099-59.5945 79.8099-43.3089C79.8099-42.184 79.7347-41.046 79.5845-39.9255L72.4874-40.873C72.5958-41.6806 72.6499-42.5004 72.6499-43.3089C72.6499-55.6466 60.2039-65.6839 44.9049-65.6839C29.6061-65.6839 17.1599-55.6466 17.1599-43.3089C17.1599-30.9712 29.6061-20.9339 44.9049-20.9339C45.765-20.9339 46.618-20.9653 47.4606-21.0274L47.985-13.8867C46.9712-13.8124 45.9434-13.7739 44.9049-13.7739C25.6589-13.7739 10-27.0232 10-43.3089C10-59.5945 25.6589-72.8439 44.9049-72.8439ZM73.5449-44.2039C89.8297-44.2039 103.08-33.7654 103.08-20.9339C103.08-8.10236 89.8297 2.33612 73.5449 2.33612C57.2601 2.33612 44.01-8.10236 44.01-20.9339C44.01-33.7654 57.2601-44.2039 73.5449-44.2039ZM73.5449-4.82391C85.8827-4.82391 95.9199-12.0512 95.9199-20.9339C95.9199-29.8166 85.8827-37.0439 73.5449-37.0439C61.2073-37.0439 51.1699-29.8166 51.1699-20.9339C51.1699-12.0512 61.2073-4.82391 73.5449-4.82391ZM19.0005-11.7567L25.1082-23.8231L35.7594-18.8326L19.0005-11.7567ZM96.9673 8.43567L80.2083 1.35962L90.8595-3.63086L96.9673 8.43567ZM32.375-56.7339C34.8463-56.7339 36.8499-54.7304 36.8499-52.2589C36.8499-49.7875 34.8463-47.7839 32.375-47.7839C29.9034-47.7839 27.8999-49.7875 27.8999-52.2589C27.8999-54.7304 29.9034-56.7339 32.375-56.7339ZM57.4349-56.7339C59.9065-56.7339 61.9099-54.7304 61.9099-52.2589C61.9099-49.7875 59.9065-47.7839 57.4349-47.7839C54.9635-47.7839 52.96-49.7875 52.96-52.2589C52.96-54.7304 54.9635-56.7339 57.4349-56.7339ZM64.595-29.8839C67.0665-29.8839 69.0699-27.8803 69.0699-25.4089C69.0699-22.9374 67.0665-20.9339 64.595-20.9339C62.1235-20.9339 60.12-22.9374 60.12-25.4089C60.12-27.8803 62.1235-29.8839 64.595-29.8839ZM82.495-29.8839C84.9664-29.8839 86.97-27.8803 86.97-25.4089C86.97-22.9374 84.9664-20.9339 82.495-20.9339C80.0236-20.9339 78.02-22.9374 78.02-25.4089C78.02-27.8803 80.0236-29.8839 82.495-29.8839Z"/>
  </g>
  <g id="Ultralight-S" transform="matrix(1 0 0 1 508.101 696)">
   <path class="SFSymbolsPreviewWireframe" d="M41.755-70.2939C59.2643-70.2939 73.51-58.0136 73.51-42.9189C73.51-42.6409 73.5057-42.365 73.495-42.0901L71.3072-42.1714C71.3157-42.4185 71.32-42.6686 71.32-42.9189C71.32-56.8063 58.057-68.1039 41.755-68.1039C25.453-68.1039 12.19-56.8063 12.19-42.9189C12.19-29.0314 25.453-17.7339 41.755-17.7339C42.0662-17.7339 42.3752-17.7382 42.6842-17.7467L42.742-15.5567C42.4137-15.5482 42.0854-15.5439 41.755-15.5439C24.2457-15.5439 10-27.8242 10-42.9189C10-58.0136 24.2457-70.2939 41.755-70.2939ZM66.94-44.0139C81.4306-44.0139 93.22-34.1899 93.22-22.1139C93.22-10.0379 81.4306-0.213867 66.94-0.213867C52.4494-0.213867 40.66-10.0379 40.66-22.1139C40.66-34.1899 52.4494-44.0139 66.94-44.0139ZM66.94-2.40387C80.2233-2.40387 91.03-11.2462 91.03-22.1139C91.03-32.9816 80.2233-41.8239 66.94-41.8239C53.6567-41.8239 42.85-32.9816 42.85-22.1139C42.85-11.2462 53.6567-2.40387 66.94-2.40387ZM14.7979-14.5916L19.5971-24.0728L27.9663-20.1516L14.7979-14.5916ZM88.6403 4.00903L74.109-2.12634L83.3445-6.45343L88.6403 4.00903ZM31.8999-57.1539C34.3189-57.1539 36.28-55.1929 36.28-52.7739C36.28-50.3549 34.3189-48.3939 31.8999-48.3939C29.481-48.3939 27.52-50.3549 27.52-52.7739C27.52-55.1929 29.481-57.1539 31.8999-57.1539ZM51.61-57.1539C54.029-57.1539 55.99-55.1929 55.99-52.7739C55.99-50.3549 54.029-48.3939 51.61-48.3939C49.1909-48.3939 47.23-50.3549 47.23-52.7739C47.23-55.1929 49.1909-57.1539 51.61-57.1539ZM58.1801-33.0639C60.599-33.0639 62.56-31.1029 62.56-28.6838C62.56-26.2648 60.599-24.3039 58.1801-24.3039C55.761-24.3039 53.8-26.2648 53.8-28.6838C53.8-31.1029 55.761-33.0639 58.1801-33.0639ZM75.7-33.0639C78.1189-33.0639 80.08-31.103 80.08-28.6839C80.08-26.265 78.1189-24.304 75.7-24.304C73.281-24.304 71.32-26.265 71.32-28.6839C71.32-31.103 73.281-33.0639 75.7-33.0639Z"/>
  </g>
 </g>
</svg>
