<?xml version="1.0" encoding="UTF-8"?>
<svg height="600" width="800" xmlns="http://www.w3.org/2000/svg" xmlns:xlink="http://www.w3.org/1999/xlink">
    <g id="Notes" font-family="'LucidaGrande', 'Lucida Grande', sans-serif" font-size="13">
        <rect fill="white" height="600.0" width="800.0" x="0.0" y="0.0" />
        <g font-size="13">
            <text x="18.0" y="176.0">Small</text>
            <text x="18.0" y="376.0">Medium</text>
            <text x="18.0" y="576.0">Large</text>
        </g>
        <g font-size="9">
            <text x="250.0" y="30.0">Ultralight</text>
            <text x="450.0" y="30.0">Regular</text>
            <text x="650.0" y="30.0">Black</text>
            <text id="template-version" fill="#505050" text-anchor="end" x="785.0" y="575.0">Template v.3.0</text>
            <a href="https://wangchujiang.com/#/app">
                <text fill="#505050" text-anchor="end" x="785.0" y="590.0">https://wangchujiang.com/#/app</text>
            </a>
        </g>
    </g>
    <g id="Guides" stroke="rgb(39, 170, 225)" stroke-width="0.5">
        <path id="Capline-S" d="M18,76 l800,0" />
        <path id="H-reference" d="M85,145.755 L87.685,145.755 L113.369,79.287 L114.052,79.287 L114.052,76 L112.148,76 L85,145.755 Z M95.693,121.536 L130.996,121.536 L130.263,119.313 L96.474,119.313 L95.693,121.536 Z M139.15,145.755 L141.787,145.755 L114.638,76 L113.466,76 L113.466,79.287 L139.15,145.755 Z" stroke="none" />
        <path id="Baseline-S" d="M18,146 l800,0" />
        <path id="left-margin-Ultralight-S" d="M220,56 l0,110" />
        <path id="right-margin-Ultralight-S" d="M310,56 l0,110" />
        <path id="left-margin-Regular-S" d="M420,56 l0,110" />
        <path id="right-margin-Regular-S" d="M510,56 l0,110" />
        <path id="left-margin-Black-S" d="M620,56 l0,110" />
        <path id="right-margin-Black-S" d="M710,56 l0,110" />
        <path id="Capline-M" d="M18,276 l800,0" />
        <path id="Baseline-M" d="M18,346 l800,0" />
        <path id="Capline-L" d="M18,476 l800,0" />
        <path id="Baseline-L" d="M18,546 l800,0" />
    </g>
    <g id="Symbols">
        <g id="Ultralight-S">
            <path d="M265,76 C240.468,76 230,86.468 230,111 C230,135.532 240.468,146 265,146 C289.532,146 300,135.532 300,111 C300,86.468 289.532,76 265,76 Z M267.036,132.535 C265.694,133.655 263.686,133.483 262.556,132.127 C261.433,130.781 261.615,128.777 262.957,127.65 C263.03,127.587 269.55,122.012 271.055,114.182 L255.455,114.182 C253.698,114.182 252.273,112.756 252.273,111 C252.273,98.518 262.528,89.828 262.964,89.465 C264.313,88.339 266.32,88.52 267.444,89.873 C268.57,91.222 268.385,93.23 267.036,94.353 C266.97,94.413 260.45,99.988 258.945,107.818 L274.545,107.818 C276.302,107.818 277.727,109.244 277.727,111 C277.727,123.482 267.472,132.172 267.036,132.535 Z" />
        </g>
        <g id="Regular-S">
            <path d="M465,76 C440.468,76 430,86.468 430,111 C430,135.532 440.468,146 465,146 C489.532,146 500,135.532 500,111 C500,86.468 489.532,76 465,76 Z M467.036,132.535 C465.694,133.655 463.686,133.483 462.556,132.127 C461.433,130.781 461.615,128.777 462.957,127.65 C463.03,127.587 469.55,122.012 471.055,114.182 L455.455,114.182 C453.698,114.182 452.273,112.756 452.273,111 C452.273,98.518 462.528,89.828 462.964,89.465 C464.313,88.339 466.32,88.52 467.444,89.873 C468.57,91.222 468.385,93.23 467.036,94.353 C466.97,94.413 460.45,99.988 458.945,107.818 L474.545,107.818 C476.302,107.818 477.727,109.244 477.727,111 C477.727,123.482 467.472,132.172 467.036,132.535 Z" />
        </g>
        <g id="Black-S">
            <path d="M665,76 C640.468,76 630,86.468 630,111 C630,135.532 640.468,146 665,146 C689.532,146 700,135.532 700,111 C700,86.468 689.532,76 665,76 Z M667.036,132.535 C665.694,133.655 663.686,133.483 662.556,132.127 C661.433,130.781 661.615,128.777 662.957,127.65 C663.03,127.587 669.55,122.012 671.055,114.182 L655.455,114.182 C653.698,114.182 652.273,112.756 652.273,111 C652.273,98.518 662.528,89.828 662.964,89.465 C664.313,88.339 666.32,88.52 667.444,89.873 C668.57,91.222 668.385,93.23 667.036,94.353 C666.97,94.413 660.45,99.988 658.945,107.818 L674.545,107.818 C676.302,107.818 677.727,109.244 677.727,111 C677.727,123.482 667.472,132.172 667.036,132.535 Z" />
        </g>
    </g>
</svg>