<?xml version="1.0" encoding="UTF-8"?>
<svg height="600" width="800" xmlns="http://www.w3.org/2000/svg" xmlns:xlink="http://www.w3.org/1999/xlink">
    <g id="Notes" font-family="'LucidaGrande', 'Lucida Grande', sans-serif" font-size="13">
        <rect fill="white" height="600.0" width="800.0" x="0.0" y="0.0" />
        <g font-size="13">
            <text x="18.0" y="176.0">Small</text>
            <text x="18.0" y="376.0">Medium</text>
            <text x="18.0" y="576.0">Large</text>
        </g>
        <g font-size="9">
            <text x="250.0" y="30.0">Ultralight</text>
            <text x="450.0" y="30.0">Regular</text>
            <text x="650.0" y="30.0">Black</text>
            <text id="template-version" fill="#505050" text-anchor="end" x="785.0" y="575.0">Template v.3.0</text>
            <a href="https://wangchujiang.com/#/app">
                <text fill="#505050" text-anchor="end" x="785.0" y="590.0">https://wangchujiang.com/#/app</text>
            </a>
        </g>
    </g>
    <g id="Guides" stroke="rgb(39, 170, 225)" stroke-width="0.5">
        <path id="Capline-S" d="M18,76 l800,0" />
        <path id="H-reference" d="M85,145.755 L87.685,145.755 L113.369,79.287 L114.052,79.287 L114.052,76 L112.148,76 L85,145.755 Z M95.693,121.536 L130.996,121.536 L130.263,119.313 L96.474,119.313 L95.693,121.536 Z M139.15,145.755 L141.787,145.755 L114.638,76 L113.466,76 L113.466,79.287 L139.15,145.755 Z" stroke="none" />
        <path id="Baseline-S" d="M18,146 l800,0" />
        <path id="left-margin-Ultralight-S" d="M220,56 l0,110" />
        <path id="right-margin-Ultralight-S" d="M310,56 l0,110" />
        <path id="left-margin-Regular-S" d="M420,56 l0,110" />
        <path id="right-margin-Regular-S" d="M510,56 l0,110" />
        <path id="left-margin-Black-S" d="M620,56 l0,110" />
        <path id="right-margin-Black-S" d="M710,56 l0,110" />
        <path id="Capline-M" d="M18,276 l800,0" />
        <path id="Baseline-M" d="M18,346 l800,0" />
        <path id="Capline-L" d="M18,476 l800,0" />
        <path id="Baseline-L" d="M18,546 l800,0" />
    </g>
    <g id="Symbols">
        <g id="Ultralight-S">
            <path d="M265,76 C240.468,76 230,86.468 230,111 C230,135.532 240.468,146 265,146 C289.532,146 300,135.532 300,111 C300,86.468 289.532,76 265,76 Z M281.88,103.17 C277.705,109.702 271.761,117.889 262.785,123.275 C261.755,123.896 260.46,123.88 259.445,123.234 C254.608,120.17 250.978,116.886 248.009,112.9 C246.959,111.49 247.252,109.498 248.661,108.448 C250.068,107.398 252.063,107.694 253.11,109.1 C255.254,111.98 257.844,114.443 261.179,116.753 C268.051,112.107 272.773,105.594 276.512,99.743 C277.463,98.26 279.43,97.827 280.906,98.775 C282.389,99.724 282.821,101.69 281.876,103.17 Z" />
        </g>
        <g id="Regular-S">
            <path d="M465,76 C440.468,76 430,86.468 430,111 C430,135.532 440.468,146 465,146 C489.532,146 500,135.532 500,111 C500,86.468 489.532,76 465,76 Z M481.88,103.17 C477.705,109.702 471.761,117.889 462.785,123.275 C461.755,123.896 460.46,123.88 459.445,123.234 C454.608,120.17 450.978,116.886 448.009,112.9 C446.959,111.49 447.252,109.498 448.661,108.448 C450.068,107.398 452.063,107.694 453.11,109.1 C455.254,111.98 457.844,114.443 461.179,116.753 C468.051,112.107 472.773,105.594 476.512,99.743 C477.463,98.26 479.43,97.827 480.906,98.775 C482.389,99.724 482.821,101.69 481.876,103.17 Z" />
        </g>
        <g id="Black-S">
            <path d="M665,76 C640.468,76 630,86.468 630,111 C630,135.532 640.468,146 665,146 C689.532,146 700,135.532 700,111 C700,86.468 689.532,76 665,76 Z M681.88,103.17 C677.705,109.702 671.761,117.889 662.785,123.275 C661.755,123.896 660.46,123.88 659.445,123.234 C654.608,120.17 650.978,116.886 648.009,112.9 C646.959,111.49 647.252,109.498 648.661,108.448 C650.068,107.398 652.063,107.694 653.11,109.1 C655.254,111.98 657.844,114.443 661.179,116.753 C668.051,112.107 672.773,105.594 676.512,99.743 C677.463,98.26 679.43,97.827 680.906,98.775 C682.389,99.724 682.821,101.69 681.876,103.17 Z" />
        </g>
    </g>
</svg>