<?xml version="1.0" encoding="UTF-8"?>
<svg height="600" width="800" xmlns="http://www.w3.org/2000/svg" xmlns:xlink="http://www.w3.org/1999/xlink">
    <g id="Notes" font-family="'LucidaGrande', 'Lucida Grande', sans-serif" font-size="13">
        <rect fill="white" height="600.0" width="800.0" x="0.0" y="0.0" />
        <g font-size="13">
            <text x="18.0" y="176.0">Small</text>
            <text x="18.0" y="376.0">Medium</text>
            <text x="18.0" y="576.0">Large</text>
        </g>
        <g font-size="9">
            <text x="250.0" y="30.0">Ultralight</text>
            <text x="450.0" y="30.0">Regular</text>
            <text x="650.0" y="30.0">Black</text>
            <text id="template-version" fill="#505050" text-anchor="end" x="785.0" y="575.0">Template v.3.0</text>
            <a href="https://wangchujiang.com/#/app">
                <text fill="#505050" text-anchor="end" x="785.0" y="590.0">https://wangchujiang.com/#/app</text>
            </a>
        </g>
    </g>
    <g id="Guides" stroke="rgb(39, 170, 225)" stroke-width="0.5">
        <path id="Capline-S" d="M18,76 l800,0" />
        <path id="H-reference" d="M85,145.755 L87.685,145.755 L113.369,79.287 L114.052,79.287 L114.052,76 L112.148,76 L85,145.755 Z M95.693,121.536 L130.996,121.536 L130.263,119.313 L96.474,119.313 L95.693,121.536 Z M139.15,145.755 L141.787,145.755 L114.638,76 L113.466,76 L113.466,79.287 L139.15,145.755 Z" stroke="none" />
        <path id="Baseline-S" d="M18,146 l800,0" />
        <path id="left-margin-Ultralight-S" d="M221,56 l0,110" />
        <path id="right-margin-Ultralight-S" d="M309,56 l0,110" />
        <path id="left-margin-Regular-S" d="M421,56 l0,110" />
        <path id="right-margin-Regular-S" d="M509,56 l0,110" />
        <path id="left-margin-Black-S" d="M621,56 l0,110" />
        <path id="right-margin-Black-S" d="M709,56 l0,110" />
        <path id="Capline-M" d="M18,276 l800,0" />
        <path id="Baseline-M" d="M18,346 l800,0" />
        <path id="Capline-L" d="M18,476 l800,0" />
        <path id="Baseline-L" d="M18,546 l800,0" />
    </g>
    <g id="Symbols">
        <g id="Ultralight-S">
            <path d="M258.636,82.364 C258.636,77.817 260.453,76 265,76 C269.547,76 271.364,77.817 271.364,82.364 C271.364,86.91 269.547,88.727 265,88.727 C260.453,88.727 258.636,86.91 258.636,82.364 Z M279.414,95.4 C279.124,94.143 278.103,93.185 276.83,92.975 C276.566,92.93 270.288,91.912 265,91.912 C259.712,91.912 253.434,92.934 253.17,92.975 C251.897,93.185 250.876,94.143 250.586,95.4 C250.526,95.664 249.091,101.973 249.091,109.409 C249.091,116.845 250.526,123.155 250.586,123.419 C250.876,124.675 251.897,125.633 253.17,125.843 C253.215,125.85 253.495,125.894 253.864,125.951 L253.864,141.227 C253.864,143.865 255.999,146 258.636,146 C261.274,146 263.409,143.865 263.409,141.227 L263.409,126.874 C263.944,126.893 264.478,126.909 265,126.909 C265.522,126.909 266.056,126.893 266.591,126.874 L266.591,141.227 C266.591,143.865 268.729,146 271.364,146 C273.998,146 276.136,143.865 276.136,141.227 L276.136,125.951 C276.505,125.894 276.782,125.853 276.83,125.843 C278.103,125.633 279.127,124.675 279.414,123.419 C279.477,123.155 280.909,116.845 280.909,109.409 C280.909,101.973 279.477,95.664 279.414,95.4 Z" />
        </g>
        <g id="Regular-S">
            <path d="M458.636,82.364 C458.636,77.817 460.453,76 465,76 C469.547,76 471.364,77.817 471.364,82.364 C471.364,86.91 469.547,88.727 465,88.727 C460.453,88.727 458.636,86.91 458.636,82.364 Z M479.414,95.4 C479.124,94.143 478.103,93.185 476.83,92.975 C476.566,92.93 470.288,91.912 465,91.912 C459.712,91.912 453.434,92.934 453.17,92.975 C451.897,93.185 450.876,94.143 450.586,95.4 C450.526,95.664 449.091,101.973 449.091,109.409 C449.091,116.845 450.526,123.155 450.586,123.419 C450.876,124.675 451.897,125.633 453.17,125.843 C453.215,125.85 453.495,125.894 453.864,125.951 L453.864,141.227 C453.864,143.865 455.999,146 458.636,146 C461.274,146 463.409,143.865 463.409,141.227 L463.409,126.874 C463.944,126.893 464.478,126.909 465,126.909 C465.522,126.909 466.056,126.893 466.591,126.874 L466.591,141.227 C466.591,143.865 468.729,146 471.364,146 C473.998,146 476.136,143.865 476.136,141.227 L476.136,125.951 C476.505,125.894 476.782,125.853 476.83,125.843 C478.103,125.633 479.127,124.675 479.414,123.419 C479.477,123.155 480.909,116.845 480.909,109.409 C480.909,101.973 479.477,95.664 479.414,95.4 Z" />
        </g>
        <g id="Black-S">
            <path d="M658.636,82.364 C658.636,77.817 660.453,76 665,76 C669.547,76 671.364,77.817 671.364,82.364 C671.364,86.91 669.547,88.727 665,88.727 C660.453,88.727 658.636,86.91 658.636,82.364 Z M679.414,95.4 C679.124,94.143 678.103,93.185 676.83,92.975 C676.566,92.93 670.288,91.912 665,91.912 C659.712,91.912 653.434,92.934 653.17,92.975 C651.897,93.185 650.876,94.143 650.586,95.4 C650.526,95.664 649.091,101.973 649.091,109.409 C649.091,116.845 650.526,123.155 650.586,123.419 C650.876,124.675 651.897,125.633 653.17,125.843 C653.215,125.85 653.495,125.894 653.864,125.951 L653.864,141.227 C653.864,143.865 655.999,146 658.636,146 C661.274,146 663.409,143.865 663.409,141.227 L663.409,126.874 C663.944,126.893 664.478,126.909 665,126.909 C665.522,126.909 666.056,126.893 666.591,126.874 L666.591,141.227 C666.591,143.865 668.729,146 671.364,146 C673.998,146 676.136,143.865 676.136,141.227 L676.136,125.951 C676.505,125.894 676.782,125.853 676.83,125.843 C678.103,125.633 679.127,124.675 679.414,123.419 C679.477,123.155 680.909,116.845 680.909,109.409 C680.909,101.973 679.477,95.664 679.414,95.4 Z" />
        </g>
    </g>
</svg>