<?xml version="1.0" encoding="UTF-8"?>
<!--Generator: Apple Native CoreSVG 341-->
<!DOCTYPE svg
PUBLIC "-//W3C//DTD SVG 1.1//EN"
       "http://www.w3.org/Graphics/SVG/1.1/DTD/svg11.dtd">
<svg version="1.1" xmlns="http://www.w3.org/2000/svg" xmlns:xlink="http://www.w3.org/1999/xlink" viewBox="0 0 3300 2200">
 <!--glyph: "", point size: 100.0, font version: "20.0d10e1", template writer version: "138.0.0"-->
 <style>.SFSymbolsPreviewWireframe {fill:none;opacity:1.0;stroke:black;stroke-width:0.5}
</style>
 <g id="Notes">
  <rect height="2200" id="artboard" style="fill:white;opacity:1" width="3300" x="0" y="0"/>
  <line style="fill:none;stroke:black;opacity:1;stroke-width:0.5;" x1="263" x2="3036" y1="292" y2="292"/>
  <text style="stroke:none;fill:black;font-family:sans-serif;font-size:13;font-weight:bold;" transform="matrix(1 0 0 1 263 322)">Weight/Scale Variations</text>
  <text style="stroke:none;fill:black;font-family:sans-serif;font-size:13;text-anchor:middle;" transform="matrix(1 0 0 1 559.711 322)">Ultralight</text>
  <text style="stroke:none;fill:black;font-family:sans-serif;font-size:13;text-anchor:middle;" transform="matrix(1 0 0 1 856.422 322)">Thin</text>
  <text style="stroke:none;fill:black;font-family:sans-serif;font-size:13;text-anchor:middle;" transform="matrix(1 0 0 1 1153.13 322)">Light</text>
  <text style="stroke:none;fill:black;font-family:sans-serif;font-size:13;text-anchor:middle;" transform="matrix(1 0 0 1 1449.84 322)">Regular</text>
  <text style="stroke:none;fill:black;font-family:sans-serif;font-size:13;text-anchor:middle;" transform="matrix(1 0 0 1 1746.56 322)">Medium</text>
  <text style="stroke:none;fill:black;font-family:sans-serif;font-size:13;text-anchor:middle;" transform="matrix(1 0 0 1 2043.27 322)">Semibold</text>
  <text style="stroke:none;fill:black;font-family:sans-serif;font-size:13;text-anchor:middle;" transform="matrix(1 0 0 1 2339.98 322)">Bold</text>
  <text style="stroke:none;fill:black;font-family:sans-serif;font-size:13;text-anchor:middle;" transform="matrix(1 0 0 1 2636.69 322)">Heavy</text>
  <text style="stroke:none;fill:black;font-family:sans-serif;font-size:13;text-anchor:middle;" transform="matrix(1 0 0 1 2933.4 322)">Black</text>
  <line style="fill:none;stroke:black;opacity:1;stroke-width:0.5;" x1="263" x2="3036" y1="1903" y2="1903"/>
  <g transform="matrix(0.2 0 0 0.2 263 1933)">
   <path d="m46.2402 4.15039c21.7773 0 39.4531-17.627 39.4531-39.4043s-17.6758-39.4043-39.4531-39.4043c-21.7285 0-39.4043 17.627-39.4043 39.4043s17.6758 39.4043 39.4043 39.4043Zm0-7.42188c-17.6758 0-31.9336-14.3066-31.9336-31.9824s14.2578-31.9824 31.9336-31.9824 31.9824 14.3066 31.9824 31.9824-14.3066 31.9824-31.9824 31.9824Zm-17.9688-31.9824c0 2.14844 1.51367 3.61328 3.75977 3.61328h10.498v10.5957c0 2.19727 1.46484 3.71094 3.61328 3.71094 2.24609 0 3.71094-1.51367 3.71094-3.71094v-10.5957h10.5957c2.19727 0 3.71094-1.46484 3.71094-3.61328 0-2.19727-1.51367-3.71094-3.71094-3.71094h-10.5957v-10.5469c0-2.24609-1.46484-3.75977-3.71094-3.75977-2.14844 0-3.61328 1.51367-3.61328 3.75977v10.5469h-10.498c-2.24609 0-3.75977 1.51367-3.75977 3.71094Z"/>
  </g>
  <g transform="matrix(0.2 0 0 0.2 281.506 1933)">
   <path d="m58.5449 14.5508c27.4902 0 49.8047-22.3145 49.8047-49.8047s-22.3145-49.8047-49.8047-49.8047-49.8047 22.3145-49.8047 49.8047 22.3145 49.8047 49.8047 49.8047Zm0-8.30078c-22.9492 0-41.5039-18.5547-41.5039-41.5039s18.5547-41.5039 41.5039-41.5039 41.5039 18.5547 41.5039 41.5039-18.5547 41.5039-41.5039 41.5039Zm-22.6562-41.5039c0 2.39258 1.66016 4.00391 4.15039 4.00391h14.3555v14.4043c0 2.44141 1.66016 4.15039 4.05273 4.15039 2.44141 0 4.15039-1.66016 4.15039-4.15039v-14.4043h14.4043c2.44141 0 4.15039-1.61133 4.15039-4.00391 0-2.44141-1.70898-4.15039-4.15039-4.15039h-14.4043v-14.3555c0-2.49023-1.70898-4.19922-4.15039-4.19922-2.39258 0-4.05273 1.70898-4.05273 4.19922v14.3555h-14.3555c-2.49023 0-4.15039 1.70898-4.15039 4.15039Z"/>
  </g>
  <g transform="matrix(0.2 0 0 0.2 304.924 1933)">
   <path d="m74.8535 28.3203c35.1074 0 63.623-28.4668 63.623-63.5742s-28.5156-63.623-63.623-63.623-63.5742 28.5156-63.5742 63.623 28.4668 63.5742 63.5742 63.5742Zm0-9.08203c-30.127 0-54.4922-24.3652-54.4922-54.4922s24.3652-54.4922 54.4922-54.4922 54.4922 24.3652 54.4922 54.4922-24.3652 54.4922-54.4922 54.4922Zm-28.8574-54.4922c0 2.58789 1.85547 4.39453 4.58984 4.39453h19.7266v19.7754c0 2.68555 1.85547 4.58984 4.44336 4.58984 2.68555 0 4.54102-1.85547 4.54102-4.58984v-19.7754h19.7754c2.68555 0 4.58984-1.80664 4.58984-4.39453 0-2.73438-1.85547-4.58984-4.58984-4.58984h-19.7754v-19.7266c0-2.73438-1.85547-4.63867-4.54102-4.63867-2.58789 0-4.44336 1.9043-4.44336 4.63867v19.7266h-19.7266c-2.73438 0-4.58984 1.85547-4.58984 4.58984Z"/>
  </g>
  <text style="stroke:none;fill:black;font-family:sans-serif;font-size:13;font-weight:bold;" transform="matrix(1 0 0 1 263 1953)">Design Variations</text>
  <text style="stroke:none;fill:black;font-family:sans-serif;font-size:13;" transform="matrix(1 0 0 1 263 1971)">Symbols are supported in up to nine weights and three scales.</text>
  <text style="stroke:none;fill:black;font-family:sans-serif;font-size:13;" transform="matrix(1 0 0 1 263 1989)">For optimal layout with text and other symbols, vertically align</text>
  <text style="stroke:none;fill:black;font-family:sans-serif;font-size:13;" transform="matrix(1 0 0 1 263 2007)">symbols with the adjacent text.</text>
  <line style="fill:none;stroke:#00AEEF;stroke-width:0.5;opacity:1.0;" x1="776" x2="776" y1="1919" y2="1933"/>
  <g transform="matrix(0.2 0 0 0.2 776 1933)">
   <path d="m16.5527 0.78125c2.58789 0 3.85742-0.976562 4.78516-3.71094l6.29883-17.2363h28.8086l6.29883 17.2363c0.927734 2.73438 2.19727 3.71094 4.73633 3.71094 2.58789 0 4.24805-1.5625 4.24805-4.00391 0-0.830078-0.146484-1.61133-0.537109-2.63672l-22.9004-60.9863c-1.12305-2.97852-3.125-4.49219-6.25-4.49219-3.02734 0-5.07812 1.46484-6.15234 4.44336l-22.9004 61.084c-0.390625 1.02539-0.537109 1.80664-0.537109 2.63672 0 2.44141 1.5625 3.95508 4.10156 3.95508Zm13.4766-28.3691 11.8652-32.8613h0.244141l11.8652 32.8613Z"/>
  </g>
  <line style="fill:none;stroke:#00AEEF;stroke-width:0.5;opacity:1.0;" x1="792.836" x2="792.836" y1="1919" y2="1933"/>
  <text style="stroke:none;fill:black;font-family:sans-serif;font-size:13;font-weight:bold;" transform="matrix(1 0 0 1 776 1953)">Margins</text>
  <text style="stroke:none;fill:black;font-family:sans-serif;font-size:13;" transform="matrix(1 0 0 1 776 1971)">Leading and trailing margins on the left and right side of each symbol</text>
  <text style="stroke:none;fill:black;font-family:sans-serif;font-size:13;" transform="matrix(1 0 0 1 776 1989)">can be adjusted by modifying the x-location of the margin guidelines.</text>
  <text style="stroke:none;fill:black;font-family:sans-serif;font-size:13;" transform="matrix(1 0 0 1 776 2007)">Modifications are automatically applied proportionally to all</text>
  <text style="stroke:none;fill:black;font-family:sans-serif;font-size:13;" transform="matrix(1 0 0 1 776 2025)">scales and weights.</text>
  <g transform="matrix(0.2 0 0 0.2 1289 1933)">
   <path d="m14.209 9.32617 8.49609 8.54492c4.29688 4.3457 9.22852 4.05273 13.8672-1.07422l53.4668-58.9355-4.83398-4.88281-53.0762 58.3984c-1.75781 2.00195-3.41797 2.49023-5.76172 0.146484l-5.85938-5.81055c-2.34375-2.29492-1.80664-4.00391 0.195312-5.81055l57.373-54.0039-4.88281-4.83398-57.959 54.4434c-4.93164 4.58984-5.32227 9.47266-1.02539 13.8184Zm32.0801-90.9668c-2.09961 2.05078-2.24609 4.93164-1.07422 6.88477 1.17188 1.80664 3.4668 2.97852 6.68945 2.14844 7.32422-1.70898 14.9414-2.00195 22.0703 2.68555l-2.92969 7.27539c-1.70898 4.15039-0.830078 7.08008 1.85547 9.81445l11.4746 11.5723c2.44141 2.44141 4.49219 2.53906 7.32422 2.05078l5.32227-0.976562 3.32031 3.36914-0.195312 2.7832c-0.195312 2.49023 0.439453 4.39453 2.88086 6.78711l3.80859 3.71094c2.39258 2.39258 5.46875 2.53906 7.8125 0.195312l14.5508-14.5996c2.34375-2.34375 2.24609-5.32227-0.146484-7.71484l-3.85742-3.80859c-2.39258-2.39258-4.24805-3.17383-6.64062-2.97852l-2.88086 0.244141-3.22266-3.17383 1.2207-5.61523c0.634766-2.83203-0.146484-5.0293-3.07617-7.95898l-10.9863-10.9375c-16.6992-16.6016-38.8672-16.2109-53.3203-1.75781Zm7.4707 1.85547c12.1582-8.88672 28.6133-7.37305 39.7461 3.75977l12.1582 12.0605c1.17188 1.17188 1.36719 2.09961 1.02539 3.80859l-1.61133 7.42188 7.51953 7.42188 4.93164-0.292969c1.26953-0.0488281 1.66016 0.0488281 2.63672 1.02539l2.88086 2.88086-12.207 12.207-2.88086-2.88086c-0.976562-0.976562-1.12305-1.36719-1.07422-2.68555l0.341797-4.88281-7.4707-7.42188-7.61719 1.26953c-1.61133 0.341797-2.34375 0.195312-3.56445-0.976562l-10.0098-10.0098c-1.26953-1.17188-1.41602-2.00195-0.634766-3.85742l4.39453-10.4492c-7.8125-7.27539-17.9688-10.4004-28.125-7.42188-0.78125 0.195312-1.07422-0.439453-0.439453-0.976562Z"/>
  </g>
  <text style="stroke:none;fill:black;font-family:sans-serif;font-size:13;font-weight:bold;" transform="matrix(1 0 0 1 1289 1953)">Exporting</text>
  <text style="stroke:none;fill:black;font-family:sans-serif;font-size:13;" transform="matrix(1 0 0 1 1289 1971)">Symbols should be outlined when exporting to ensure the</text>
  <text style="stroke:none;fill:black;font-family:sans-serif;font-size:13;" transform="matrix(1 0 0 1 1289 1989)">design is preserved when submitting to Xcode.</text>
  <text id="template-version" style="stroke:none;fill:black;font-family:sans-serif;font-size:13;text-anchor:end;" transform="matrix(1 0 0 1 3036 1933)">Template v.6.0</text>
  <text style="stroke:none;fill:black;font-family:sans-serif;font-size:13;text-anchor:end;" transform="matrix(1 0 0 1 3036 1951)">Requires Xcode 16 or greater</text>
  <text id="descriptive-name" style="stroke:none;fill:black;font-family:sans-serif;font-size:13;text-anchor:end;" transform="matrix(1 0 0 1 3036 1969)">Generated from app-store-square</text>
  <text style="stroke:none;fill:black;font-family:sans-serif;font-size:13;text-anchor:end;" transform="matrix(1 0 0 1 3036 1987)">Typeset at 100.0 points</text>
  <text style="stroke:none;fill:black;font-family:sans-serif;font-size:13;" transform="matrix(1 0 0 1 263 726)">Small</text>
  <text style="stroke:none;fill:black;font-family:sans-serif;font-size:13;" transform="matrix(1 0 0 1 263 1156)">Medium</text>
  <text style="stroke:none;fill:black;font-family:sans-serif;font-size:13;" transform="matrix(1 0 0 1 263 1586)">Large</text>
 </g>
 <g id="Guides">
  <g id="H-reference" style="fill:#27AAE1;stroke:none;" transform="matrix(1 0 0 1 339 696)">
   <path d="M0.993654 0L3.63775 0L29.3281-67.1323L30.0303-67.1323L30.0303-70.459L28.1226-70.459ZM11.6885-24.4799L46.9815-24.4799L46.2315-26.7285L12.4385-26.7285ZM55.1196 0L57.7637 0L30.6382-70.459L29.4326-70.459L29.4326-67.1323Z"/>
  </g>
  <line id="Baseline-S" style="fill:none;stroke:#27AAE1;opacity:1;stroke-width:0.5;" x1="263" x2="3036" y1="696" y2="696"/>
  <line id="Capline-S" style="fill:none;stroke:#27AAE1;opacity:1;stroke-width:0.5;" x1="263" x2="3036" y1="625.541" y2="625.541"/>
  <g id="H-reference" style="fill:#27AAE1;stroke:none;" transform="matrix(1 0 0 1 339 1126)">
   <path d="M0.993654 0L3.63775 0L29.3281-67.1323L30.0303-67.1323L30.0303-70.459L28.1226-70.459ZM11.6885-24.4799L46.9815-24.4799L46.2315-26.7285L12.4385-26.7285ZM55.1196 0L57.7637 0L30.6382-70.459L29.4326-70.459L29.4326-67.1323Z"/>
  </g>
  <line id="Baseline-M" style="fill:none;stroke:#27AAE1;opacity:1;stroke-width:0.5;" x1="263" x2="3036" y1="1126" y2="1126"/>
  <line id="Capline-M" style="fill:none;stroke:#27AAE1;opacity:1;stroke-width:0.5;" x1="263" x2="3036" y1="1055.54" y2="1055.54"/>
  <g id="H-reference" style="fill:#27AAE1;stroke:none;" transform="matrix(1 0 0 1 339 1556)">
   <path d="M0.993654 0L3.63775 0L29.3281-67.1323L30.0303-67.1323L30.0303-70.459L28.1226-70.459ZM11.6885-24.4799L46.9815-24.4799L46.2315-26.7285L12.4385-26.7285ZM55.1196 0L57.7637 0L30.6382-70.459L29.4326-70.459L29.4326-67.1323Z"/>
  </g>
  <line id="Baseline-L" style="fill:none;stroke:#27AAE1;opacity:1;stroke-width:0.5;" x1="263" x2="3036" y1="1556" y2="1556"/>
  <line id="Capline-L" style="fill:none;stroke:#27AAE1;opacity:1;stroke-width:0.5;" x1="263" x2="3036" y1="1485.54" y2="1485.54"/>
  <line id="right-margin-Black-S" style="fill:none;stroke:#00AEEF;stroke-width:0.5;opacity:1.0;" x1="2981.9" x2="2981.9" y1="600.785" y2="720.121"/>
  <line id="left-margin-Black-S" style="fill:none;stroke:#00AEEF;stroke-width:0.5;opacity:1.0;" x1="2884.9" x2="2884.9" y1="600.785" y2="720.121"/>
  <line id="right-margin-Regular-S" style="fill:none;stroke:#00AEEF;stroke-width:0.5;opacity:1.0;" x1="1495.64" x2="1495.64" y1="600.785" y2="720.121"/>
  <line id="left-margin-Regular-S" style="fill:none;stroke:#00AEEF;stroke-width:0.5;opacity:1.0;" x1="1404.04" x2="1404.04" y1="600.785" y2="720.121"/>
  <line id="right-margin-Ultralight-S" style="fill:none;stroke:#00AEEF;stroke-width:0.5;opacity:1.0;" x1="602.561" x2="602.561" y1="600.785" y2="720.121"/>
  <line id="left-margin-Ultralight-S" style="fill:none;stroke:#00AEEF;stroke-width:0.5;opacity:1.0;" x1="516.861" x2="516.861" y1="600.785" y2="720.121"/>
 </g>
 <g id="Symbols">
  <g id="Black-S" transform="matrix(1 0 0 1 2884.9 696)">
   <path class="SFSymbolsPreviewWireframe" d="M87-46.5801L87-23.8301C87 1.32611 85.0312 3.29486 59.875 3.29486L37.125 3.29486C11.9688 3.29486 10 1.32611 10-23.8301L10-46.5801C10-71.7364 11.9688-73.7051 37.125-73.7051L59.875-73.7051C85.0312-73.7051 87-71.7364 87-46.5801ZM73-17.7051L73-52.7051C73-59.197 72.4919-59.7051 66-59.7051L31-59.7051C24.5081-59.7051 24-59.197 24-52.7051L24-17.7051C24-11.2132 24.5081-10.7051 31-10.7051L66-10.7051C72.4919-10.7051 73-11.2132 73-17.7051ZM46.4795-44.988C44.7397-48.0201 43.5071-50.1683 43.3923-50.3685C42.7517-51.4849 43.1375-52.9091 44.2537-53.5496C45.3701-54.1901 46.7942-53.8046 47.4348-52.6881C47.5168-52.5453 48.1692-51.4081 49.1665-49.6705C48.4309-48.3886 47.5063-46.7776 46.4795-44.988ZM63.9763-23.8599C64.6169-22.7435 64.2312-21.3193 63.115-20.6788C61.9988-20.0383 60.5742-20.4239 59.9338-21.5403C59.7068-21.9358 55.1348-29.9035 50.854-37.3644C49.8232-40.0439 50.1201-42.5334 51.9597-44.8023C56.7625-36.4323 63.6958-24.3492 63.9763-23.8599ZM42.8262-31.5788C40.8738-31.5788 39.041-31.5788 37.4529-31.5788C42.2583-39.9541 49.2825-52.1955 49.5652-52.6881C50.2058-53.8046 51.6299-54.1901 52.7461-53.5496C53.8625-52.9091 54.2483-51.4849 53.6077-50.3685C53.3503-49.9197 47.4993-39.7231 42.8262-31.5788ZM34.7783-26.918C36.5671-27.3723 38.1223-27.0062 39.3665-25.549C38.0508-23.2562 37.1628-21.7086 37.0662-21.5403C36.4255-20.4239 35.0012-20.0383 33.885-20.6788C32.7688-21.3193 32.3831-22.7435 33.0237-23.8599C33.1062-24.0038 33.7686-25.1581 34.7783-26.918ZM50.8582-32.7114C52.5122-32.4802 54.5112-30.723 53.5327-28.0505C44.145-28.0505 32.3987-28.0505 31.8816-28.0505C30.5942-28.0505 29.5513-29.0939 29.5513-30.381C29.5513-31.668 30.5942-32.7114 31.8816-32.7114C32.3503-32.7114 42.0535-32.7114 50.8582-32.7114ZM65.1184-32.7114C66.4053-32.7114 67.4487-31.668 67.4487-30.381C67.4487-29.0939 66.4053-28.0505 65.1184-28.0505C64.8875-28.0505 62.4067-28.0505 58.9062-28.0505C58.1311-29.4016 57.2207-30.9881 56.2319-32.7114C61.0969-32.7114 64.832-32.7114 65.1184-32.7114Z"/>
  </g>
  <g id="Regular-S" transform="matrix(1 0 0 1 1404.04 696)">
   <path class="SFSymbolsPreviewWireframe" d="M81.6-49.9793L81.6-20.5284C81.6-0.983521 80.0703 0.546082 60.5254 0.546082L31.0746 0.546082C11.5297 0.546082 10-0.983521 10-20.5284L10-49.9793C10-69.5244 11.5297-71.0539 31.0746-71.0539L60.5254-71.0539C80.0703-71.0539 81.6-69.5244 81.6-49.9793ZM74.4399-15.864L74.4399-54.6439C74.4399-63.2225 73.7686-63.8939 65.1898-63.8939L26.41-63.8939C17.8313-63.8939 17.1599-63.2225 17.1599-54.6439L17.1599-15.864C17.1599-7.28528 17.8313-6.61389 26.41-6.61389L65.1898-6.61389C73.7686-6.61389 74.4399-7.28528 74.4399-15.864ZM43.3187-46.7133C41.1821-50.4368 39.6686-53.075 39.5275-53.3207C38.7407-54.6918 39.2146-56.4407 40.5854-57.2272C41.9564-58.0139 43.7052-57.5404 44.4919-56.1694C44.5927-55.9939 45.3938-54.5975 46.6183-52.4635C45.7151-50.8893 44.5798-48.911 43.3187-46.7133ZM64.8057-20.7671C65.5924-19.3961 65.1187-17.6471 63.7477-16.8605C62.377-16.0739 60.6278-16.5474 59.8412-17.9184C59.5625-18.4041 53.9479-28.1888 48.6908-37.3511C47.425-40.6417 47.7896-43.6989 50.0487-46.4852C55.9467-36.2065 64.4609-21.368 64.8057-20.7671ZM38.8323-30.2462C36.4347-30.2462 34.1841-30.2462 32.2335-30.2462C38.1349-40.5314 46.7607-55.5644 47.108-56.1694C47.8948-57.5404 49.6436-58.0139 51.0144-57.2272C52.3854-56.4407 52.8593-54.6918 52.0724-53.3207C51.7563-52.7697 44.571-40.2477 38.8323-30.2462ZM28.9491-24.5225C31.146-25.0803 33.0558-24.6308 34.5835-22.8413C32.9679-20.0257 31.8774-18.1252 31.7588-17.9184C30.972-16.5474 29.223-16.0739 27.8521-16.8605C26.4812-17.6471 26.0076-19.3961 26.7943-20.7671C26.8956-20.9438 27.709-22.3613 28.9491-24.5225ZM48.6959-31.6371C50.7271-31.3531 53.1819-29.1953 51.9803-25.9133C40.4518-25.9133 26.0267-25.9133 25.3918-25.9133C23.811-25.9133 22.53-27.1947 22.53-28.7752C22.53-30.3558 23.811-31.6371 25.3918-31.6371C25.9677-31.6371 37.8834-31.6371 48.6959-31.6371ZM66.2081-31.6371C67.7885-31.6371 69.0699-30.3558 69.0699-28.7752C69.0699-27.1947 67.7885-25.9133 66.2081-25.9133C65.9244-25.9133 62.8781-25.9133 58.5792-25.9133C57.6274-27.5725 56.5094-29.5208 55.295-31.6371C61.2697-31.6371 65.8566-31.6371 66.2081-31.6371Z"/>
  </g>
  <g id="Ultralight-S" transform="matrix(1 0 0 1 516.861 696)">
   <path class="SFSymbolsPreviewWireframe" d="M75.7-51.0865L75.7-19.3162C75.7-3.63141 74.4725-2.40387 58.7877-2.40387L26.9124-2.40387C11.2275-2.40387 10-3.63141 10-19.3162L10-51.1915C10-66.8764 11.2275-68.1039 26.9124-68.1039L58.6827-68.1039C74.4649-68.1039 75.7-66.8688 75.7-51.0865ZM73.51-17.7339L73.51-52.7739C73.51-64.9602 72.5563-65.9139 60.37-65.9139L25.33-65.9139C13.1437-65.9139 12.19-64.9602 12.19-52.7739L12.19-17.7339C12.19-5.54761 13.1437-4.59387 25.33-4.59387L60.37-4.59387C72.5563-4.59387 73.51-5.54761 73.51-17.7339ZM40.5043-46.0876C38.4843-49.6078 37.0533-52.102 36.92-52.3343C36.1761-53.6306 36.6242-55.2839 37.9202-56.0276C39.2162-56.7712 40.8696-56.3237 41.6134-55.0274C41.7086-54.8616 42.466-53.5414 43.6237-51.5239C42.7698-50.0357 41.6965-48.1653 40.5043-46.0876ZM60.818-21.558C61.5618-20.2618 61.114-18.6083 59.8179-17.8647C58.522-17.1211 56.8683-17.5687 56.1246-18.8649C55.8611-19.324 50.5531-28.5745 45.583-37.2366C44.3864-40.3475 44.731-43.2379 46.8668-45.872C52.4427-36.1544 60.4922-22.1261 60.818-21.558ZM36.2627-30.5196C33.9961-30.5196 31.8683-30.5196 30.0242-30.5196C35.6035-40.2433 43.7584-54.4555 44.0867-55.0274C44.8305-56.3237 46.4838-56.7712 47.7797-56.0276C49.0759-55.2839 49.5239-53.6306 48.78-52.3343C48.4813-51.8134 41.6882-39.975 36.2627-30.5196ZM26.9191-25.1083C28.9961-25.6358 30.8016-25.2108 32.2458-23.519C30.7186-20.8571 29.6877-19.0603 29.5754-18.8649C28.8316-17.5687 27.1781-17.1211 25.882-17.8647C24.5861-18.6083 24.1382-20.2618 24.882-21.558C24.9778-21.725 25.7468-23.0652 26.9191-25.1083ZM45.5879-31.8345C47.5081-31.566 49.8289-29.5261 48.693-26.4233C37.7938-26.4233 24.1563-26.4233 23.556-26.4233C22.0616-26.4233 20.8505-27.6346 20.8505-29.129C20.8505-30.6232 22.0616-31.8345 23.556-31.8345C24.1004-31.8345 35.3657-31.8345 45.5879-31.8345ZM62.144-31.8345C63.6381-31.8345 64.8495-30.6232 64.8495-29.129C64.8495-27.6346 63.6381-26.4233 62.144-26.4233C61.8758-26.4233 58.9957-26.4233 54.9316-26.4233C54.0318-27.9919 52.9748-29.8337 51.8267-31.8345C57.4752-31.8345 61.8116-31.8345 62.144-31.8345Z"/>
  </g>
 </g>
</svg>
