<?xml version="1.0" encoding="UTF-8"?>
<svg height="600" width="800" xmlns="http://www.w3.org/2000/svg" xmlns:xlink="http://www.w3.org/1999/xlink">
    <g id="Notes" font-family="'LucidaGrande', 'Lucida Grande', sans-serif" font-size="13">
        <rect fill="white" height="600.0" width="800.0" x="0.0" y="0.0" />
        <g font-size="13">
            <text x="18.0" y="176.0">Small</text>
            <text x="18.0" y="376.0">Medium</text>
            <text x="18.0" y="576.0">Large</text>
        </g>
        <g font-size="9">
            <text x="250.0" y="30.0">Ultralight</text>
            <text x="450.0" y="30.0">Regular</text>
            <text x="650.0" y="30.0">Black</text>
            <text id="template-version" fill="#505050" text-anchor="end" x="785.0" y="575.0">Template v.3.0</text>
            <a href="https://wangchujiang.com/#/app">
                <text fill="#505050" text-anchor="end" x="785.0" y="590.0">https://wangchujiang.com/#/app</text>
            </a>
        </g>
    </g>
    <g id="Guides" stroke="rgb(39, 170, 225)" stroke-width="0.5">
        <path id="Capline-S" d="M18,76 l800,0" />
        <path id="H-reference" d="M85,145.755 L87.685,145.755 L113.369,79.287 L114.052,79.287 L114.052,76 L112.148,76 L85,145.755 Z M95.693,121.536 L130.996,121.536 L130.263,119.313 L96.474,119.313 L95.693,121.536 Z M139.15,145.755 L141.787,145.755 L114.638,76 L113.466,76 L113.466,79.287 L139.15,145.755 Z" stroke="none" />
        <path id="Baseline-S" d="M18,146 l800,0" />
        <path id="left-margin-Ultralight-S" d="M220,56 l0,110" />
        <path id="right-margin-Ultralight-S" d="M310,56 l0,110" />
        <path id="left-margin-Regular-S" d="M420,56 l0,110" />
        <path id="right-margin-Regular-S" d="M510,56 l0,110" />
        <path id="left-margin-Black-S" d="M620,56 l0,110" />
        <path id="right-margin-Black-S" d="M710,56 l0,110" />
        <path id="Capline-M" d="M18,276 l800,0" />
        <path id="Baseline-M" d="M18,346 l800,0" />
        <path id="Capline-L" d="M18,476 l800,0" />
        <path id="Baseline-L" d="M18,546 l800,0" />
    </g>
    <g id="Symbols">
        <g id="Ultralight-S">
            <path d="M264.981,76 C242.501,76.14 230,88.813 230,110.943 C230,133.072 242.514,145.87 265.019,146 C287.807,145.866 299.577,134.11 300,110.946 C299.612,88.555 287.19,76.143 264.981,76 Z M265,93.284 C267.635,93.284 269.773,95.419 269.773,98.056 C269.773,100.694 267.638,102.829 265,102.829 C262.362,102.829 260.227,100.694 260.227,98.056 C260.227,95.419 262.362,93.284 265,93.284 Z M269.983,125.646 C269.983,127.402 268.56,128.828 266.801,128.828 C265.041,128.828 263.619,127.402 263.619,125.646 L263.619,114.726 L263.193,114.726 C261.436,114.726 260.011,113.3 260.011,111.544 C260.011,109.788 261.436,108.362 263.193,108.362 L266.801,108.362 C268.557,108.362 269.983,109.788 269.983,111.544 L269.983,125.646 Z" />
        </g>
        <g id="Regular-S">
            <path d="M464.981,76 C442.501,76.14 430,88.813 430,110.943 C430,133.072 442.514,145.87 465.019,146 C487.807,145.866 499.577,134.11 500,110.946 C499.612,88.555 487.19,76.143 464.981,76 Z M465,93.284 C467.635,93.284 469.773,95.419 469.773,98.056 C469.773,100.694 467.638,102.829 465,102.829 C462.362,102.829 460.227,100.694 460.227,98.056 C460.227,95.419 462.362,93.284 465,93.284 Z M469.983,125.646 C469.983,127.402 468.56,128.828 466.801,128.828 C465.041,128.828 463.619,127.402 463.619,125.646 L463.619,114.726 L463.193,114.726 C461.436,114.726 460.011,113.3 460.011,111.544 C460.011,109.788 461.436,108.362 463.193,108.362 L466.801,108.362 C468.557,108.362 469.983,109.788 469.983,111.544 L469.983,125.646 Z" />
        </g>
        <g id="Black-S">
            <path d="M664.981,76 C642.501,76.14 630,88.813 630,110.943 C630,133.072 642.514,145.87 665.019,146 C687.807,145.866 699.577,134.11 700,110.946 C699.612,88.555 687.19,76.143 664.981,76 Z M665,93.284 C667.635,93.284 669.773,95.419 669.773,98.056 C669.773,100.694 667.638,102.829 665,102.829 C662.362,102.829 660.227,100.694 660.227,98.056 C660.227,95.419 662.362,93.284 665,93.284 Z M669.983,125.646 C669.983,127.402 668.56,128.828 666.801,128.828 C665.041,128.828 663.619,127.402 663.619,125.646 L663.619,114.726 L663.193,114.726 C661.436,114.726 660.011,113.3 660.011,111.544 C660.011,109.788 661.436,108.362 663.193,108.362 L666.801,108.362 C668.557,108.362 669.983,109.788 669.983,111.544 L669.983,125.646 Z" />
        </g>
    </g>
</svg>