<?xml version="1.0" encoding="UTF-8"?>
<!--Generator: Apple Native CoreSVG 341-->
<!DOCTYPE svg
PUBLIC "-//W3C//DTD SVG 1.1//EN"
       "http://www.w3.org/Graphics/SVG/1.1/DTD/svg11.dtd">
<svg version="1.1" xmlns="http://www.w3.org/2000/svg" xmlns:xlink="http://www.w3.org/1999/xlink" viewBox="0 0 3300 2200">
 <!--glyph: "", point size: 100.0, font version: "20.0d10e1", template writer version: "138.0.0"-->
 <style>.SFSymbolsPreviewWireframe {fill:none;opacity:1.0;stroke:black;stroke-width:0.5}
</style>
 <g id="Notes">
  <rect height="2200" id="artboard" style="fill:white;opacity:1" width="3300" x="0" y="0"/>
  <line style="fill:none;stroke:black;opacity:1;stroke-width:0.5;" x1="263" x2="3036" y1="292" y2="292"/>
  <text style="stroke:none;fill:black;font-family:sans-serif;font-size:13;font-weight:bold;" transform="matrix(1 0 0 1 263 322)">Weight/Scale Variations</text>
  <text style="stroke:none;fill:black;font-family:sans-serif;font-size:13;text-anchor:middle;" transform="matrix(1 0 0 1 559.711 322)">Ultralight</text>
  <text style="stroke:none;fill:black;font-family:sans-serif;font-size:13;text-anchor:middle;" transform="matrix(1 0 0 1 856.422 322)">Thin</text>
  <text style="stroke:none;fill:black;font-family:sans-serif;font-size:13;text-anchor:middle;" transform="matrix(1 0 0 1 1153.13 322)">Light</text>
  <text style="stroke:none;fill:black;font-family:sans-serif;font-size:13;text-anchor:middle;" transform="matrix(1 0 0 1 1449.84 322)">Regular</text>
  <text style="stroke:none;fill:black;font-family:sans-serif;font-size:13;text-anchor:middle;" transform="matrix(1 0 0 1 1746.56 322)">Medium</text>
  <text style="stroke:none;fill:black;font-family:sans-serif;font-size:13;text-anchor:middle;" transform="matrix(1 0 0 1 2043.27 322)">Semibold</text>
  <text style="stroke:none;fill:black;font-family:sans-serif;font-size:13;text-anchor:middle;" transform="matrix(1 0 0 1 2339.98 322)">Bold</text>
  <text style="stroke:none;fill:black;font-family:sans-serif;font-size:13;text-anchor:middle;" transform="matrix(1 0 0 1 2636.69 322)">Heavy</text>
  <text style="stroke:none;fill:black;font-family:sans-serif;font-size:13;text-anchor:middle;" transform="matrix(1 0 0 1 2933.4 322)">Black</text>
  <line style="fill:none;stroke:black;opacity:1;stroke-width:0.5;" x1="263" x2="3036" y1="1903" y2="1903"/>
  <g transform="matrix(0.2 0 0 0.2 263 1933)">
   <path d="m46.2402 4.15039c21.7773 0 39.4531-17.627 39.4531-39.4043s-17.6758-39.4043-39.4531-39.4043c-21.7285 0-39.4043 17.627-39.4043 39.4043s17.6758 39.4043 39.4043 39.4043Zm0-7.42188c-17.6758 0-31.9336-14.3066-31.9336-31.9824s14.2578-31.9824 31.9336-31.9824 31.9824 14.3066 31.9824 31.9824-14.3066 31.9824-31.9824 31.9824Zm-17.9688-31.9824c0 2.14844 1.51367 3.61328 3.75977 3.61328h10.498v10.5957c0 2.19727 1.46484 3.71094 3.61328 3.71094 2.24609 0 3.71094-1.51367 3.71094-3.71094v-10.5957h10.5957c2.19727 0 3.71094-1.46484 3.71094-3.61328 0-2.19727-1.51367-3.71094-3.71094-3.71094h-10.5957v-10.5469c0-2.24609-1.46484-3.75977-3.71094-3.75977-2.14844 0-3.61328 1.51367-3.61328 3.75977v10.5469h-10.498c-2.24609 0-3.75977 1.51367-3.75977 3.71094Z"/>
  </g>
  <g transform="matrix(0.2 0 0 0.2 281.506 1933)">
   <path d="m58.5449 14.5508c27.4902 0 49.8047-22.3145 49.8047-49.8047s-22.3145-49.8047-49.8047-49.8047-49.8047 22.3145-49.8047 49.8047 22.3145 49.8047 49.8047 49.8047Zm0-8.30078c-22.9492 0-41.5039-18.5547-41.5039-41.5039s18.5547-41.5039 41.5039-41.5039 41.5039 18.5547 41.5039 41.5039-18.5547 41.5039-41.5039 41.5039Zm-22.6562-41.5039c0 2.39258 1.66016 4.00391 4.15039 4.00391h14.3555v14.4043c0 2.44141 1.66016 4.15039 4.05273 4.15039 2.44141 0 4.15039-1.66016 4.15039-4.15039v-14.4043h14.4043c2.44141 0 4.15039-1.61133 4.15039-4.00391 0-2.44141-1.70898-4.15039-4.15039-4.15039h-14.4043v-14.3555c0-2.49023-1.70898-4.19922-4.15039-4.19922-2.39258 0-4.05273 1.70898-4.05273 4.19922v14.3555h-14.3555c-2.49023 0-4.15039 1.70898-4.15039 4.15039Z"/>
  </g>
  <g transform="matrix(0.2 0 0 0.2 304.924 1933)">
   <path d="m74.8535 28.3203c35.1074 0 63.623-28.4668 63.623-63.5742s-28.5156-63.623-63.623-63.623-63.5742 28.5156-63.5742 63.623 28.4668 63.5742 63.5742 63.5742Zm0-9.08203c-30.127 0-54.4922-24.3652-54.4922-54.4922s24.3652-54.4922 54.4922-54.4922 54.4922 24.3652 54.4922 54.4922-24.3652 54.4922-54.4922 54.4922Zm-28.8574-54.4922c0 2.58789 1.85547 4.39453 4.58984 4.39453h19.7266v19.7754c0 2.68555 1.85547 4.58984 4.44336 4.58984 2.68555 0 4.54102-1.85547 4.54102-4.58984v-19.7754h19.7754c2.68555 0 4.58984-1.80664 4.58984-4.39453 0-2.73438-1.85547-4.58984-4.58984-4.58984h-19.7754v-19.7266c0-2.73438-1.85547-4.63867-4.54102-4.63867-2.58789 0-4.44336 1.9043-4.44336 4.63867v19.7266h-19.7266c-2.73438 0-4.58984 1.85547-4.58984 4.58984Z"/>
  </g>
  <text style="stroke:none;fill:black;font-family:sans-serif;font-size:13;font-weight:bold;" transform="matrix(1 0 0 1 263 1953)">Design Variations</text>
  <text style="stroke:none;fill:black;font-family:sans-serif;font-size:13;" transform="matrix(1 0 0 1 263 1971)">Symbols are supported in up to nine weights and three scales.</text>
  <text style="stroke:none;fill:black;font-family:sans-serif;font-size:13;" transform="matrix(1 0 0 1 263 1989)">For optimal layout with text and other symbols, vertically align</text>
  <text style="stroke:none;fill:black;font-family:sans-serif;font-size:13;" transform="matrix(1 0 0 1 263 2007)">symbols with the adjacent text.</text>
  <line style="fill:none;stroke:#00AEEF;stroke-width:0.5;opacity:1.0;" x1="776" x2="776" y1="1919" y2="1933"/>
  <g transform="matrix(0.2 0 0 0.2 776 1933)">
   <path d="m16.5527 0.78125c2.58789 0 3.85742-0.976562 4.78516-3.71094l6.29883-17.2363h28.8086l6.29883 17.2363c0.927734 2.73438 2.19727 3.71094 4.73633 3.71094 2.58789 0 4.24805-1.5625 4.24805-4.00391 0-0.830078-0.146484-1.61133-0.537109-2.63672l-22.9004-60.9863c-1.12305-2.97852-3.125-4.49219-6.25-4.49219-3.02734 0-5.07812 1.46484-6.15234 4.44336l-22.9004 61.084c-0.390625 1.02539-0.537109 1.80664-0.537109 2.63672 0 2.44141 1.5625 3.95508 4.10156 3.95508Zm13.4766-28.3691 11.8652-32.8613h0.244141l11.8652 32.8613Z"/>
  </g>
  <line style="fill:none;stroke:#00AEEF;stroke-width:0.5;opacity:1.0;" x1="792.836" x2="792.836" y1="1919" y2="1933"/>
  <text style="stroke:none;fill:black;font-family:sans-serif;font-size:13;font-weight:bold;" transform="matrix(1 0 0 1 776 1953)">Margins</text>
  <text style="stroke:none;fill:black;font-family:sans-serif;font-size:13;" transform="matrix(1 0 0 1 776 1971)">Leading and trailing margins on the left and right side of each symbol</text>
  <text style="stroke:none;fill:black;font-family:sans-serif;font-size:13;" transform="matrix(1 0 0 1 776 1989)">can be adjusted by modifying the x-location of the margin guidelines.</text>
  <text style="stroke:none;fill:black;font-family:sans-serif;font-size:13;" transform="matrix(1 0 0 1 776 2007)">Modifications are automatically applied proportionally to all</text>
  <text style="stroke:none;fill:black;font-family:sans-serif;font-size:13;" transform="matrix(1 0 0 1 776 2025)">scales and weights.</text>
  <g transform="matrix(0.2 0 0 0.2 1289 1933)">
   <path d="m14.209 9.32617 8.49609 8.54492c4.29688 4.3457 9.22852 4.05273 13.8672-1.07422l53.4668-58.9355-4.83398-4.88281-53.0762 58.3984c-1.75781 2.00195-3.41797 2.49023-5.76172 0.146484l-5.85938-5.81055c-2.34375-2.29492-1.80664-4.00391 0.195312-5.81055l57.373-54.0039-4.88281-4.83398-57.959 54.4434c-4.93164 4.58984-5.32227 9.47266-1.02539 13.8184Zm32.0801-90.9668c-2.09961 2.05078-2.24609 4.93164-1.07422 6.88477 1.17188 1.80664 3.4668 2.97852 6.68945 2.14844 7.32422-1.70898 14.9414-2.00195 22.0703 2.68555l-2.92969 7.27539c-1.70898 4.15039-0.830078 7.08008 1.85547 9.81445l11.4746 11.5723c2.44141 2.44141 4.49219 2.53906 7.32422 2.05078l5.32227-0.976562 3.32031 3.36914-0.195312 2.7832c-0.195312 2.49023 0.439453 4.39453 2.88086 6.78711l3.80859 3.71094c2.39258 2.39258 5.46875 2.53906 7.8125 0.195312l14.5508-14.5996c2.34375-2.34375 2.24609-5.32227-0.146484-7.71484l-3.85742-3.80859c-2.39258-2.39258-4.24805-3.17383-6.64062-2.97852l-2.88086 0.244141-3.22266-3.17383 1.2207-5.61523c0.634766-2.83203-0.146484-5.0293-3.07617-7.95898l-10.9863-10.9375c-16.6992-16.6016-38.8672-16.2109-53.3203-1.75781Zm7.4707 1.85547c12.1582-8.88672 28.6133-7.37305 39.7461 3.75977l12.1582 12.0605c1.17188 1.17188 1.36719 2.09961 1.02539 3.80859l-1.61133 7.42188 7.51953 7.42188 4.93164-0.292969c1.26953-0.0488281 1.66016 0.0488281 2.63672 1.02539l2.88086 2.88086-12.207 12.207-2.88086-2.88086c-0.976562-0.976562-1.12305-1.36719-1.07422-2.68555l0.341797-4.88281-7.4707-7.42188-7.61719 1.26953c-1.61133 0.341797-2.34375 0.195312-3.56445-0.976562l-10.0098-10.0098c-1.26953-1.17188-1.41602-2.00195-0.634766-3.85742l4.39453-10.4492c-7.8125-7.27539-17.9688-10.4004-28.125-7.42188-0.78125 0.195312-1.07422-0.439453-0.439453-0.976562Z"/>
  </g>
  <text style="stroke:none;fill:black;font-family:sans-serif;font-size:13;font-weight:bold;" transform="matrix(1 0 0 1 1289 1953)">Exporting</text>
  <text style="stroke:none;fill:black;font-family:sans-serif;font-size:13;" transform="matrix(1 0 0 1 1289 1971)">Symbols should be outlined when exporting to ensure the</text>
  <text style="stroke:none;fill:black;font-family:sans-serif;font-size:13;" transform="matrix(1 0 0 1 1289 1989)">design is preserved when submitting to Xcode.</text>
  <text id="template-version" style="stroke:none;fill:black;font-family:sans-serif;font-size:13;text-anchor:end;" transform="matrix(1 0 0 1 3036 1933)">Template v.6.0</text>
  <text style="stroke:none;fill:black;font-family:sans-serif;font-size:13;text-anchor:end;" transform="matrix(1 0 0 1 3036 1951)">Requires Xcode 16 or greater</text>
  <text id="descriptive-name" style="stroke:none;fill:black;font-family:sans-serif;font-size:13;text-anchor:end;" transform="matrix(1 0 0 1 3036 1969)">Generated from mewe</text>
  <text style="stroke:none;fill:black;font-family:sans-serif;font-size:13;text-anchor:end;" transform="matrix(1 0 0 1 3036 1987)">Typeset at 100.0 points</text>
  <text style="stroke:none;fill:black;font-family:sans-serif;font-size:13;" transform="matrix(1 0 0 1 263 726)">Small</text>
  <text style="stroke:none;fill:black;font-family:sans-serif;font-size:13;" transform="matrix(1 0 0 1 263 1156)">Medium</text>
  <text style="stroke:none;fill:black;font-family:sans-serif;font-size:13;" transform="matrix(1 0 0 1 263 1586)">Large</text>
 </g>
 <g id="Guides">
  <g id="H-reference" style="fill:#27AAE1;stroke:none;" transform="matrix(1 0 0 1 339 696)">
   <path d="M0.993654 0L3.63775 0L29.3281-67.1323L30.0303-67.1323L30.0303-70.459L28.1226-70.459ZM11.6885-24.4799L46.9815-24.4799L46.2315-26.7285L12.4385-26.7285ZM55.1196 0L57.7637 0L30.6382-70.459L29.4326-70.459L29.4326-67.1323Z"/>
  </g>
  <line id="Baseline-S" style="fill:none;stroke:#27AAE1;opacity:1;stroke-width:0.5;" x1="263" x2="3036" y1="696" y2="696"/>
  <line id="Capline-S" style="fill:none;stroke:#27AAE1;opacity:1;stroke-width:0.5;" x1="263" x2="3036" y1="625.541" y2="625.541"/>
  <g id="H-reference" style="fill:#27AAE1;stroke:none;" transform="matrix(1 0 0 1 339 1126)">
   <path d="M0.993654 0L3.63775 0L29.3281-67.1323L30.0303-67.1323L30.0303-70.459L28.1226-70.459ZM11.6885-24.4799L46.9815-24.4799L46.2315-26.7285L12.4385-26.7285ZM55.1196 0L57.7637 0L30.6382-70.459L29.4326-70.459L29.4326-67.1323Z"/>
  </g>
  <line id="Baseline-M" style="fill:none;stroke:#27AAE1;opacity:1;stroke-width:0.5;" x1="263" x2="3036" y1="1126" y2="1126"/>
  <line id="Capline-M" style="fill:none;stroke:#27AAE1;opacity:1;stroke-width:0.5;" x1="263" x2="3036" y1="1055.54" y2="1055.54"/>
  <g id="H-reference" style="fill:#27AAE1;stroke:none;" transform="matrix(1 0 0 1 339 1556)">
   <path d="M0.993654 0L3.63775 0L29.3281-67.1323L30.0303-67.1323L30.0303-70.459L28.1226-70.459ZM11.6885-24.4799L46.9815-24.4799L46.2315-26.7285L12.4385-26.7285ZM55.1196 0L57.7637 0L30.6382-70.459L29.4326-70.459L29.4326-67.1323Z"/>
  </g>
  <line id="Baseline-L" style="fill:none;stroke:#27AAE1;opacity:1;stroke-width:0.5;" x1="263" x2="3036" y1="1556" y2="1556"/>
  <line id="Capline-L" style="fill:none;stroke:#27AAE1;opacity:1;stroke-width:0.5;" x1="263" x2="3036" y1="1485.54" y2="1485.54"/>
  <line id="right-margin-Black-S" style="fill:none;stroke:#00AEEF;stroke-width:0.5;opacity:1.0;" x1="3006.4" x2="3006.4" y1="600.785" y2="720.121"/>
  <line id="left-margin-Black-S" style="fill:none;stroke:#00AEEF;stroke-width:0.5;opacity:1.0;" x1="2860.4" x2="2860.4" y1="600.785" y2="720.121"/>
  <line id="right-margin-Regular-S" style="fill:none;stroke:#00AEEF;stroke-width:0.5;opacity:1.0;" x1="1517.12" x2="1517.12" y1="600.785" y2="720.121"/>
  <line id="left-margin-Regular-S" style="fill:none;stroke:#00AEEF;stroke-width:0.5;opacity:1.0;" x1="1382.56" x2="1382.56" y1="600.785" y2="720.121"/>
  <line id="right-margin-Ultralight-S" style="fill:none;stroke:#00AEEF;stroke-width:0.5;opacity:1.0;" x1="624.461" x2="624.461" y1="600.785" y2="720.121"/>
  <line id="left-margin-Ultralight-S" style="fill:none;stroke:#00AEEF;stroke-width:0.5;opacity:1.0;" x1="494.961" x2="494.961" y1="600.785" y2="720.121"/>
 </g>
 <g id="Symbols">
  <g id="Black-S" transform="matrix(1 0 0 1 2860.4 696)">
   <path class="SFSymbolsPreviewWireframe" d="M29.2607-58.8595C29.2607-56.7423 27.5444-55.026 25.4272-55.026C23.3101-55.026 21.5937-56.7423 21.5937-58.8595C21.5937-60.9766 23.3101-62.6929 25.4272-62.6929C27.5444-62.6929 29.2607-60.9766 29.2607-58.8595ZM70.9084-58.8595C70.9084-56.7423 69.1921-55.026 67.075-55.026C64.9578-55.026 63.2415-56.7423 63.2415-58.8595C63.2415-60.9766 64.9578-62.6929 67.075-62.6929C69.1921-62.6929 70.9084-60.9766 70.9084-58.8595ZM94.666-58.8595C94.666-56.7423 92.9497-55.026 90.8325-55.026C88.7153-55.026 86.999-56.7423 86.999-58.8595C86.999-60.9766 88.7153-62.6929 90.8325-62.6929C92.9497-62.6929 94.666-60.9766 94.666-58.8595ZM117.831-58.8595C117.831-56.7423 116.115-55.026 113.997-55.026C111.88-55.026 110.164-56.7423 110.164-58.8595C110.164-60.9766 111.88-62.6929 113.997-62.6929C116.115-62.6929 117.831-60.9766 117.831-58.8595ZM38.2839-50.4955C39.7063-50.4955 40.8594-49.3425 40.8594-47.9201C40.8594-46.84 40.8594-21.4195 40.8594-20.4917C40.8594-19.0693 39.7063-17.9163 38.2839-17.9163C36.8616-17.9163 35.7085-19.0693 35.7085-20.4917C35.7085-21.1065 35.7085-32.4765 35.7085-40.3922L27.4561-27.9992C26.9463-27.2195 26.2937-26.798 25.4111-26.798C24.5281-26.798 23.8872-27.229 23.3655-28.0001C22.8435-28.7711 15.1509-40.3735 15.1509-40.3735C15.1509-32.4587 15.1509-21.1061 15.1509-20.4917C15.1509-19.0693 13.9978-17.9163 12.5754-17.9163C11.1531-17.9163 10-19.0693 10-20.4917C10-21.4195 10-46.84 10-47.9201C10-49.3425 11.1531-50.4955 12.5754-50.4955C13.4802-50.4955 14.2852-49.9163 14.6968-49.2957C15.1086-48.6752 25.4297-33.4324 25.4297-33.4324L36.1626-49.2957C36.6499-50.024 37.3792-50.4955 38.2839-50.4955ZM67.8806-30.1564C67.8806-29.4399 67.4202-28.6467 66.3711-28.6467C65.322-28.6467 50.4148-28.6467 50.4148-28.6467C50.4148-28.6467 50.9521-21.7092 57.554-21.7092C62.7031-21.7092 63.0723-24.1916 64.6924-24.1916C65.6663-24.1916 66.3809-23.4679 66.3809-22.5143C66.3809-21.2019 63.4822-17.7973 57.2981-17.7973C49.8696-17.7973 45.1948-23.7228 45.1948-30.2333C45.1948-38.9307 51.4731-42.7716 56.7253-42.7716C65.1741-42.7716 67.8806-34.3925 67.8806-30.1564ZM50.4148-31.9061L63.2913-31.9061C63.2913-31.9061 62.5671-38.3151 56.9907-38.3151C50.5818-38.3151 50.4148-31.9061 50.4148-31.9061ZM136-30.1564C136-29.4399 135.54-28.6467 134.49-28.6467C133.441-28.6467 118.534-28.6467 118.534-28.6467C118.534-28.6467 119.072-21.7092 125.673-21.7092C130.823-21.7092 131.191-24.1916 132.812-24.1916C133.786-24.1916 134.5-23.4679 134.5-22.5143C134.5-21.2019 131.602-17.7973 125.417-17.7973C117.989-17.7973 113.314-23.7228 113.314-30.2333C113.314-38.9307 119.593-42.7716 124.845-42.7716C133.293-42.7716 136-34.3925 136-30.1564ZM118.534-31.9061L131.411-31.9061C131.411-31.9061 130.687-38.3151 125.11-38.3151C118.701-38.3151 118.534-31.9061 118.534-31.9061ZM111.042-50.228C112.49-50.228 113.414-49.2477 113.414-47.9773C113.414-47.1967 113.182-46.4742 112.93-45.7559C111.088-40.4999 104.249-21.3674 103.818-20.2899C103.372-19.1752 102.661-17.8105 100.848-17.8105C99.0356-17.8105 98.3535-19.0349 97.8638-20.2899C97.4141-21.4426 90.5571-41.1033 90.5571-41.1033C90.5571-41.1033 83.7002-21.4426 83.2502-20.2899C82.7605-19.0349 82.0784-17.8105 80.2656-17.8105C78.4529-17.8105 77.7422-19.1752 77.2964-20.2899C76.8655-21.3674 70.0264-40.4999 68.1838-45.7559C67.9321-46.4742 67.7-47.1967 67.7-47.9773C67.7-49.2477 68.624-50.228 70.0723-50.228C71.5264-50.228 72.062-49.4007 72.4446-48.4364C72.7673-47.6231 80.3098-26.1126 80.3098-26.1126C80.3098-26.1126 87.4163-47.022 87.7234-47.8851C88.2603-49.3939 89.0276-50.5189 90.5571-50.5189C92.0867-50.5189 92.8538-49.3939 93.3909-47.8851C93.698-47.022 100.804-26.1126 100.804-26.1126C100.804-26.1126 108.347-47.6231 108.669-48.4364C109.052-49.4007 109.588-50.228 111.042-50.228Z"/>
  </g>
  <g id="Regular-S" transform="matrix(1 0 0 1 1382.56 696)">
   <path class="SFSymbolsPreviewWireframe" d="M27.5118-56.7606C27.5118-54.8356 25.9514-53.2752 24.0265-53.2752C22.1016-53.2752 20.541-54.8356 20.541-56.7606C20.541-58.6855 22.1016-60.246 24.0265-60.246C25.9514-60.246 27.5118-58.6855 27.5118-56.7606ZM65.3783-56.7606C65.3783-54.8356 63.8179-53.2752 61.8928-53.2752C59.9679-53.2752 58.4075-54.8356 58.4075-56.7606C58.4075-58.6855 59.9679-60.246 61.8928-60.246C63.8179-60.246 65.3783-58.6855 65.3783-56.7606ZM86.9788-56.7606C86.9788-54.8356 85.4182-53.2752 83.4933-53.2752C81.5684-53.2752 80.0079-54.8356 80.0079-56.7606C80.0079-58.6855 81.5684-60.246 83.4933-60.246C85.4182-60.246 86.9788-58.6855 86.9788-56.7606ZM108.04-56.7606C108.04-54.8356 106.48-53.2752 104.555-53.2752C102.63-53.2752 101.07-54.8356 101.07-56.7606C101.07-58.6855 102.63-60.246 104.555-60.246C106.48-60.246 108.04-58.6855 108.04-56.7606ZM35.7159-49.156C37.0092-49.156 38.0575-48.1077 38.0575-46.8145C38.0575-45.8325 38.0575-22.7199 38.0575-21.8763C38.0575-20.5831 37.0092-19.5348 35.7159-19.5348C34.4227-19.5348 33.3744-20.5831 33.3744-21.8763C33.3744-22.4354 33.3744-32.773 33.3744-39.97L25.871-28.7022C25.4077-27.9933 24.8142-27.61 24.0117-27.61C23.2089-27.61 22.6262-28.002 22.1519-28.703C21.6774-29.4041 14.6831-39.953 14.6831-39.953C14.6831-32.7568 14.6831-22.435 14.6831-21.8763C14.6831-20.5831 13.6348-19.5348 12.3416-19.5348C11.0483-19.5348 10-20.5831 10-21.8763C10-22.7199 10-45.8325 10-46.8145C10-48.1077 11.0483-49.156 12.3416-49.156C13.1642-49.156 13.8961-48.6294 14.2704-48.0652C14.6447-47.501 24.0287-33.6421 24.0287-33.6421L33.7871-48.0652C34.2302-48.7273 34.8933-49.156 35.7159-49.156ZM62.6254-30.6636C62.6254-30.0121 62.2067-29.291 61.2528-29.291C60.299-29.291 46.7452-29.291 46.7452-29.291C46.7452-29.291 47.2339-22.9833 53.2362-22.9833C57.918-22.9833 58.2535-25.2403 59.7266-25.2403C60.6121-25.2403 61.2617-24.5823 61.2617-23.7153C61.2617-22.5221 58.6263-19.4266 53.0037-19.4266C46.2496-19.4266 41.9993-24.8141 41.9993-30.7335C41.9993-38.6412 47.7076-42.1334 52.4829-42.1334C60.1647-42.1334 62.6254-34.515 62.6254-30.6636ZM46.7452-32.2544L58.4528-32.2544C58.4528-32.2544 57.7943-38.0815 52.7242-38.0815C46.8971-38.0815 46.7452-32.2544 46.7452-32.2544ZM124.56-30.6636C124.56-30.0121 124.141-29.291 123.187-29.291C122.234-29.291 108.68-29.291 108.68-29.291C108.68-29.291 109.168-22.9833 115.171-22.9833C119.852-22.9833 120.188-25.2403 121.661-25.2403C122.547-25.2403 123.196-24.5823 123.196-23.7153C123.196-22.5221 120.561-19.4266 114.938-19.4266C108.184-19.4266 103.934-24.8141 103.934-30.7335C103.934-38.6412 109.642-42.1334 114.417-42.1334C122.099-42.1334 124.56-34.515 124.56-30.6636ZM108.68-32.2544L120.387-32.2544C120.387-32.2544 119.729-38.0815 114.659-38.0815C108.832-38.0815 108.68-32.2544 108.68-32.2544ZM101.868-48.9128C103.185-48.9128 104.025-48.0215 104.025-46.8664C104.025-46.1567 103.814-45.4999 103.585-44.8467C101.91-40.0679 95.6913-22.6725 95.2996-21.6929C94.8942-20.6794 94.248-19.4385 92.5999-19.4385C90.9517-19.4385 90.3317-20.5518 89.8862-21.6929C89.4773-22.741 83.2429-40.6166 83.2429-40.6166C83.2429-40.6166 77.0087-22.741 76.5995-21.6929C76.1543-20.5518 75.5342-19.4385 73.886-19.4385C72.2378-19.4385 71.5917-20.6794 71.1863-21.6929C70.7944-22.6725 64.5763-40.0679 62.9011-44.8467C62.6721-45.4999 62.4612-46.1567 62.4612-46.8664C62.4612-48.0215 63.3011-48.9128 64.6182-48.9128C65.9401-48.9128 66.4271-48.1606 66.775-47.2839C67.0684-46.5444 73.926-26.9869 73.926-26.9869C73.926-26.9869 80.3872-45.9979 80.6665-46.7826C81.1547-48.1544 81.8523-49.1773 83.2429-49.1773C84.6335-49.1773 85.3312-48.1544 85.8195-46.7826C86.0986-45.9979 92.5597-26.9869 92.5597-26.9869C92.5597-26.9869 99.4174-46.5444 99.7108-47.2839C100.059-48.1606 100.546-48.9128 101.868-48.9128Z"/>
  </g>
  <g id="Ultralight-S" transform="matrix(1 0 0 1 494.961 696)">
   <path class="SFSymbolsPreviewWireframe" d="M26.7384-55.8107C26.7384-53.9708 25.2469-52.4792 23.407-52.4792C21.5671-52.4792 20.0755-53.9708 20.0755-55.8107C20.0755-57.6506 21.5671-59.1421 23.407-59.1421C25.2469-59.1421 26.7384-57.6506 26.7384-55.8107ZM62.9323-55.8107C62.9323-53.9708 61.4408-52.4792 59.6008-52.4792C57.7609-52.4792 56.2694-53.9708 56.2694-55.8107C56.2694-57.6506 57.7609-59.1421 59.6008-59.1421C61.4408-59.1421 62.9323-57.6506 62.9323-55.8107ZM83.5787-55.8107C83.5787-53.9708 82.0872-52.4792 80.2473-52.4792C78.4073-52.4792 76.9158-53.9708 76.9158-55.8107C76.9158-57.6506 78.4073-59.1421 80.2473-59.1421C82.0872-59.1421 83.5787-57.6506 83.5787-55.8107ZM103.71-55.8107C103.71-53.9708 102.219-52.4792 100.379-52.4792C98.5388-52.4792 97.0472-53.9708 97.0472-55.8107C97.0472-57.6506 98.5388-59.1421 100.379-59.1421C102.219-59.1421 103.71-57.6506 103.71-55.8107ZM34.5801-48.542C35.8162-48.542 36.8183-47.5399 36.8183-46.3038C36.8183-45.3652 36.8183-23.2735 36.8183-22.4672C36.8183-21.2311 35.8162-20.2291 34.5801-20.2291C33.344-20.2291 32.342-21.2311 32.342-22.4672C32.342-23.0015 32.342-32.8826 32.342-39.7617L25.17-28.9916C24.7272-28.314 24.16-27.9477 23.3929-27.9477C22.6255-27.9477 22.0686-28.3223 21.6151-28.9924C21.1617-29.6624 14.4763-39.7455 14.4763-39.7455C14.4763-32.8671 14.4763-23.0012 14.4763-22.4672C14.4763-21.2311 13.4742-20.2291 12.2381-20.2291C11.002-20.2291 10-21.2311 10-22.4672C10-23.2735 10-45.3652 10-46.3038C10-47.5399 11.002-48.542 12.2381-48.542C13.0244-48.542 13.7241-48.0386 14.0818-47.4993C14.4396-46.96 23.4091-33.7133 23.4091-33.7133L32.7365-47.4993C33.16-48.1322 33.7938-48.542 34.5801-48.542ZM60.301-30.8663C60.301-30.2437 59.9008-29.5544 58.9891-29.5544C58.0774-29.5544 45.1223-29.5544 45.1223-29.5544C45.1223-29.5544 45.5894-23.5253 51.3265-23.5253C55.8015-23.5253 56.1223-25.6826 57.5302-25.6826C58.3766-25.6826 58.9976-25.0536 58.9976-24.225C58.9976-23.0845 56.4786-20.1257 51.1043-20.1257C44.6486-20.1257 40.5859-25.2751 40.5859-30.9331C40.5859-38.4916 46.0422-41.8295 50.6066-41.8295C57.9489-41.8295 60.301-34.5477 60.301-30.8663ZM45.1223-32.3868L56.3127-32.3868C56.3127-32.3868 55.6833-37.9567 50.8372-37.9567C45.2675-37.9567 45.1223-32.3868 45.1223-32.3868ZM119.5-30.8663C119.5-30.2437 119.1-29.5544 118.188-29.5544C117.276-29.5544 104.321-29.5544 104.321-29.5544C104.321-29.5544 104.788-23.5253 110.526-23.5253C115-23.5253 115.321-25.6826 116.729-25.6826C117.576-25.6826 118.197-25.0536 118.197-24.225C118.197-23.0845 115.678-20.1257 110.303-20.1257C103.848-20.1257 99.7849-25.2751 99.7849-30.9331C99.7849-38.4916 105.241-41.8295 109.805-41.8295C117.148-41.8295 119.5-34.5477 119.5-30.8663ZM104.321-32.3868L115.512-32.3868C115.512-32.3868 114.882-37.9567 110.036-37.9567C104.466-37.9567 104.321-32.3868 104.321-32.3868ZM97.8101-48.3095C99.0688-48.3095 99.8718-47.4575 99.8718-46.3535C99.8718-45.6751 99.6701-45.0473 99.4512-44.423C97.8501-39.8553 91.9064-23.2282 91.532-22.2919C91.1445-21.3232 90.5269-20.1371 88.9515-20.1371C87.3762-20.1371 86.7835-21.2012 86.3578-22.2919C85.9669-23.2936 80.0079-40.3797 80.0079-40.3797C80.0079-40.3797 74.049-23.2936 73.6578-22.2919C73.2323-21.2012 72.6396-20.1371 71.0642-20.1371C69.4889-20.1371 68.8712-21.3232 68.4838-22.2919C68.1092-23.2282 62.1657-39.8553 60.5646-44.423C60.3457-45.0473 60.144-45.6751 60.144-46.3535C60.144-47.4575 60.947-48.3095 62.2057-48.3095C63.4693-48.3095 63.9348-47.5905 64.2674-46.7525C64.5478-46.0457 71.1025-27.3521 71.1025-27.3521C71.1025-27.3521 77.2783-45.5233 77.5452-46.2734C78.0119-47.5846 78.6787-48.5623 80.0079-48.5623C81.3371-48.5623 82.0039-47.5846 82.4706-46.2734C82.7375-45.5233 88.9132-27.3521 88.9132-27.3521C88.9132-27.3521 95.4679-46.0457 95.7484-46.7525C96.081-47.5905 96.5465-48.3095 97.8101-48.3095Z"/>
  </g>
 </g>
</svg>
