<?xml version="1.0" encoding="UTF-8"?>
<!--Generator: Apple Native CoreSVG 341-->
<!DOCTYPE svg
PUBLIC "-//W3C//DTD SVG 1.1//EN"
       "http://www.w3.org/Graphics/SVG/1.1/DTD/svg11.dtd">
<svg version="1.1" xmlns="http://www.w3.org/2000/svg" xmlns:xlink="http://www.w3.org/1999/xlink" viewBox="0 0 3300 2200">
 <!--glyph: "", point size: 100.0, font version: "20.0d10e1", template writer version: "138.0.0"-->
 <style>.SFSymbolsPreviewWireframe {fill:none;opacity:1.0;stroke:black;stroke-width:0.5}
</style>
 <g id="Notes">
  <rect height="2200" id="artboard" style="fill:white;opacity:1" width="3300" x="0" y="0"/>
  <line style="fill:none;stroke:black;opacity:1;stroke-width:0.5;" x1="263" x2="3036" y1="292" y2="292"/>
  <text style="stroke:none;fill:black;font-family:sans-serif;font-size:13;font-weight:bold;" transform="matrix(1 0 0 1 263 322)">Weight/Scale Variations</text>
  <text style="stroke:none;fill:black;font-family:sans-serif;font-size:13;text-anchor:middle;" transform="matrix(1 0 0 1 559.711 322)">Ultralight</text>
  <text style="stroke:none;fill:black;font-family:sans-serif;font-size:13;text-anchor:middle;" transform="matrix(1 0 0 1 856.422 322)">Thin</text>
  <text style="stroke:none;fill:black;font-family:sans-serif;font-size:13;text-anchor:middle;" transform="matrix(1 0 0 1 1153.13 322)">Light</text>
  <text style="stroke:none;fill:black;font-family:sans-serif;font-size:13;text-anchor:middle;" transform="matrix(1 0 0 1 1449.84 322)">Regular</text>
  <text style="stroke:none;fill:black;font-family:sans-serif;font-size:13;text-anchor:middle;" transform="matrix(1 0 0 1 1746.56 322)">Medium</text>
  <text style="stroke:none;fill:black;font-family:sans-serif;font-size:13;text-anchor:middle;" transform="matrix(1 0 0 1 2043.27 322)">Semibold</text>
  <text style="stroke:none;fill:black;font-family:sans-serif;font-size:13;text-anchor:middle;" transform="matrix(1 0 0 1 2339.98 322)">Bold</text>
  <text style="stroke:none;fill:black;font-family:sans-serif;font-size:13;text-anchor:middle;" transform="matrix(1 0 0 1 2636.69 322)">Heavy</text>
  <text style="stroke:none;fill:black;font-family:sans-serif;font-size:13;text-anchor:middle;" transform="matrix(1 0 0 1 2933.4 322)">Black</text>
  <line style="fill:none;stroke:black;opacity:1;stroke-width:0.5;" x1="263" x2="3036" y1="1903" y2="1903"/>
  <g transform="matrix(0.2 0 0 0.2 263 1933)">
   <path d="m46.2402 4.15039c21.7773 0 39.4531-17.627 39.4531-39.4043s-17.6758-39.4043-39.4531-39.4043c-21.7285 0-39.4043 17.627-39.4043 39.4043s17.6758 39.4043 39.4043 39.4043Zm0-7.42188c-17.6758 0-31.9336-14.3066-31.9336-31.9824s14.2578-31.9824 31.9336-31.9824 31.9824 14.3066 31.9824 31.9824-14.3066 31.9824-31.9824 31.9824Zm-17.9688-31.9824c0 2.14844 1.51367 3.61328 3.75977 3.61328h10.498v10.5957c0 2.19727 1.46484 3.71094 3.61328 3.71094 2.24609 0 3.71094-1.51367 3.71094-3.71094v-10.5957h10.5957c2.19727 0 3.71094-1.46484 3.71094-3.61328 0-2.19727-1.51367-3.71094-3.71094-3.71094h-10.5957v-10.5469c0-2.24609-1.46484-3.75977-3.71094-3.75977-2.14844 0-3.61328 1.51367-3.61328 3.75977v10.5469h-10.498c-2.24609 0-3.75977 1.51367-3.75977 3.71094Z"/>
  </g>
  <g transform="matrix(0.2 0 0 0.2 281.506 1933)">
   <path d="m58.5449 14.5508c27.4902 0 49.8047-22.3145 49.8047-49.8047s-22.3145-49.8047-49.8047-49.8047-49.8047 22.3145-49.8047 49.8047 22.3145 49.8047 49.8047 49.8047Zm0-8.30078c-22.9492 0-41.5039-18.5547-41.5039-41.5039s18.5547-41.5039 41.5039-41.5039 41.5039 18.5547 41.5039 41.5039-18.5547 41.5039-41.5039 41.5039Zm-22.6562-41.5039c0 2.39258 1.66016 4.00391 4.15039 4.00391h14.3555v14.4043c0 2.44141 1.66016 4.15039 4.05273 4.15039 2.44141 0 4.15039-1.66016 4.15039-4.15039v-14.4043h14.4043c2.44141 0 4.15039-1.61133 4.15039-4.00391 0-2.44141-1.70898-4.15039-4.15039-4.15039h-14.4043v-14.3555c0-2.49023-1.70898-4.19922-4.15039-4.19922-2.39258 0-4.05273 1.70898-4.05273 4.19922v14.3555h-14.3555c-2.49023 0-4.15039 1.70898-4.15039 4.15039Z"/>
  </g>
  <g transform="matrix(0.2 0 0 0.2 304.924 1933)">
   <path d="m74.8535 28.3203c35.1074 0 63.623-28.4668 63.623-63.5742s-28.5156-63.623-63.623-63.623-63.5742 28.5156-63.5742 63.623 28.4668 63.5742 63.5742 63.5742Zm0-9.08203c-30.127 0-54.4922-24.3652-54.4922-54.4922s24.3652-54.4922 54.4922-54.4922 54.4922 24.3652 54.4922 54.4922-24.3652 54.4922-54.4922 54.4922Zm-28.8574-54.4922c0 2.58789 1.85547 4.39453 4.58984 4.39453h19.7266v19.7754c0 2.68555 1.85547 4.58984 4.44336 4.58984 2.68555 0 4.54102-1.85547 4.54102-4.58984v-19.7754h19.7754c2.68555 0 4.58984-1.80664 4.58984-4.39453 0-2.73438-1.85547-4.58984-4.58984-4.58984h-19.7754v-19.7266c0-2.73438-1.85547-4.63867-4.54102-4.63867-2.58789 0-4.44336 1.9043-4.44336 4.63867v19.7266h-19.7266c-2.73438 0-4.58984 1.85547-4.58984 4.58984Z"/>
  </g>
  <text style="stroke:none;fill:black;font-family:sans-serif;font-size:13;font-weight:bold;" transform="matrix(1 0 0 1 263 1953)">Design Variations</text>
  <text style="stroke:none;fill:black;font-family:sans-serif;font-size:13;" transform="matrix(1 0 0 1 263 1971)">Symbols are supported in up to nine weights and three scales.</text>
  <text style="stroke:none;fill:black;font-family:sans-serif;font-size:13;" transform="matrix(1 0 0 1 263 1989)">For optimal layout with text and other symbols, vertically align</text>
  <text style="stroke:none;fill:black;font-family:sans-serif;font-size:13;" transform="matrix(1 0 0 1 263 2007)">symbols with the adjacent text.</text>
  <line style="fill:none;stroke:#00AEEF;stroke-width:0.5;opacity:1.0;" x1="776" x2="776" y1="1919" y2="1933"/>
  <g transform="matrix(0.2 0 0 0.2 776 1933)">
   <path d="m16.5527 0.78125c2.58789 0 3.85742-0.976562 4.78516-3.71094l6.29883-17.2363h28.8086l6.29883 17.2363c0.927734 2.73438 2.19727 3.71094 4.73633 3.71094 2.58789 0 4.24805-1.5625 4.24805-4.00391 0-0.830078-0.146484-1.61133-0.537109-2.63672l-22.9004-60.9863c-1.12305-2.97852-3.125-4.49219-6.25-4.49219-3.02734 0-5.07812 1.46484-6.15234 4.44336l-22.9004 61.084c-0.390625 1.02539-0.537109 1.80664-0.537109 2.63672 0 2.44141 1.5625 3.95508 4.10156 3.95508Zm13.4766-28.3691 11.8652-32.8613h0.244141l11.8652 32.8613Z"/>
  </g>
  <line style="fill:none;stroke:#00AEEF;stroke-width:0.5;opacity:1.0;" x1="792.836" x2="792.836" y1="1919" y2="1933"/>
  <text style="stroke:none;fill:black;font-family:sans-serif;font-size:13;font-weight:bold;" transform="matrix(1 0 0 1 776 1953)">Margins</text>
  <text style="stroke:none;fill:black;font-family:sans-serif;font-size:13;" transform="matrix(1 0 0 1 776 1971)">Leading and trailing margins on the left and right side of each symbol</text>
  <text style="stroke:none;fill:black;font-family:sans-serif;font-size:13;" transform="matrix(1 0 0 1 776 1989)">can be adjusted by modifying the x-location of the margin guidelines.</text>
  <text style="stroke:none;fill:black;font-family:sans-serif;font-size:13;" transform="matrix(1 0 0 1 776 2007)">Modifications are automatically applied proportionally to all</text>
  <text style="stroke:none;fill:black;font-family:sans-serif;font-size:13;" transform="matrix(1 0 0 1 776 2025)">scales and weights.</text>
  <g transform="matrix(0.2 0 0 0.2 1289 1933)">
   <path d="m14.209 9.32617 8.49609 8.54492c4.29688 4.3457 9.22852 4.05273 13.8672-1.07422l53.4668-58.9355-4.83398-4.88281-53.0762 58.3984c-1.75781 2.00195-3.41797 2.49023-5.76172 0.146484l-5.85938-5.81055c-2.34375-2.29492-1.80664-4.00391 0.195312-5.81055l57.373-54.0039-4.88281-4.83398-57.959 54.4434c-4.93164 4.58984-5.32227 9.47266-1.02539 13.8184Zm32.0801-90.9668c-2.09961 2.05078-2.24609 4.93164-1.07422 6.88477 1.17188 1.80664 3.4668 2.97852 6.68945 2.14844 7.32422-1.70898 14.9414-2.00195 22.0703 2.68555l-2.92969 7.27539c-1.70898 4.15039-0.830078 7.08008 1.85547 9.81445l11.4746 11.5723c2.44141 2.44141 4.49219 2.53906 7.32422 2.05078l5.32227-0.976562 3.32031 3.36914-0.195312 2.7832c-0.195312 2.49023 0.439453 4.39453 2.88086 6.78711l3.80859 3.71094c2.39258 2.39258 5.46875 2.53906 7.8125 0.195312l14.5508-14.5996c2.34375-2.34375 2.24609-5.32227-0.146484-7.71484l-3.85742-3.80859c-2.39258-2.39258-4.24805-3.17383-6.64062-2.97852l-2.88086 0.244141-3.22266-3.17383 1.2207-5.61523c0.634766-2.83203-0.146484-5.0293-3.07617-7.95898l-10.9863-10.9375c-16.6992-16.6016-38.8672-16.2109-53.3203-1.75781Zm7.4707 1.85547c12.1582-8.88672 28.6133-7.37305 39.7461 3.75977l12.1582 12.0605c1.17188 1.17188 1.36719 2.09961 1.02539 3.80859l-1.61133 7.42188 7.51953 7.42188 4.93164-0.292969c1.26953-0.0488281 1.66016 0.0488281 2.63672 1.02539l2.88086 2.88086-12.207 12.207-2.88086-2.88086c-0.976562-0.976562-1.12305-1.36719-1.07422-2.68555l0.341797-4.88281-7.4707-7.42188-7.61719 1.26953c-1.61133 0.341797-2.34375 0.195312-3.56445-0.976562l-10.0098-10.0098c-1.26953-1.17188-1.41602-2.00195-0.634766-3.85742l4.39453-10.4492c-7.8125-7.27539-17.9688-10.4004-28.125-7.42188-0.78125 0.195312-1.07422-0.439453-0.439453-0.976562Z"/>
  </g>
  <text style="stroke:none;fill:black;font-family:sans-serif;font-size:13;font-weight:bold;" transform="matrix(1 0 0 1 1289 1953)">Exporting</text>
  <text style="stroke:none;fill:black;font-family:sans-serif;font-size:13;" transform="matrix(1 0 0 1 1289 1971)">Symbols should be outlined when exporting to ensure the</text>
  <text style="stroke:none;fill:black;font-family:sans-serif;font-size:13;" transform="matrix(1 0 0 1 1289 1989)">design is preserved when submitting to Xcode.</text>
  <text id="template-version" style="stroke:none;fill:black;font-family:sans-serif;font-size:13;text-anchor:end;" transform="matrix(1 0 0 1 3036 1933)">Template v.6.0</text>
  <text style="stroke:none;fill:black;font-family:sans-serif;font-size:13;text-anchor:end;" transform="matrix(1 0 0 1 3036 1951)">Requires Xcode 16 or greater</text>
  <text id="descriptive-name" style="stroke:none;fill:black;font-family:sans-serif;font-size:13;text-anchor:end;" transform="matrix(1 0 0 1 3036 1969)">Generated from app-store-circle</text>
  <text style="stroke:none;fill:black;font-family:sans-serif;font-size:13;text-anchor:end;" transform="matrix(1 0 0 1 3036 1987)">Typeset at 100.0 points</text>
  <text style="stroke:none;fill:black;font-family:sans-serif;font-size:13;" transform="matrix(1 0 0 1 263 726)">Small</text>
  <text style="stroke:none;fill:black;font-family:sans-serif;font-size:13;" transform="matrix(1 0 0 1 263 1156)">Medium</text>
  <text style="stroke:none;fill:black;font-family:sans-serif;font-size:13;" transform="matrix(1 0 0 1 263 1586)">Large</text>
 </g>
 <g id="Guides">
  <g id="H-reference" style="fill:#27AAE1;stroke:none;" transform="matrix(1 0 0 1 339 696)">
   <path d="M0.993654 0L3.63775 0L29.3281-67.1323L30.0303-67.1323L30.0303-70.459L28.1226-70.459ZM11.6885-24.4799L46.9815-24.4799L46.2315-26.7285L12.4385-26.7285ZM55.1196 0L57.7637 0L30.6382-70.459L29.4326-70.459L29.4326-67.1323Z"/>
  </g>
  <line id="Baseline-S" style="fill:none;stroke:#27AAE1;opacity:1;stroke-width:0.5;" x1="263" x2="3036" y1="696" y2="696"/>
  <line id="Capline-S" style="fill:none;stroke:#27AAE1;opacity:1;stroke-width:0.5;" x1="263" x2="3036" y1="625.541" y2="625.541"/>
  <g id="H-reference" style="fill:#27AAE1;stroke:none;" transform="matrix(1 0 0 1 339 1126)">
   <path d="M0.993654 0L3.63775 0L29.3281-67.1323L30.0303-67.1323L30.0303-70.459L28.1226-70.459ZM11.6885-24.4799L46.9815-24.4799L46.2315-26.7285L12.4385-26.7285ZM55.1196 0L57.7637 0L30.6382-70.459L29.4326-70.459L29.4326-67.1323Z"/>
  </g>
  <line id="Baseline-M" style="fill:none;stroke:#27AAE1;opacity:1;stroke-width:0.5;" x1="263" x2="3036" y1="1126" y2="1126"/>
  <line id="Capline-M" style="fill:none;stroke:#27AAE1;opacity:1;stroke-width:0.5;" x1="263" x2="3036" y1="1055.54" y2="1055.54"/>
  <g id="H-reference" style="fill:#27AAE1;stroke:none;" transform="matrix(1 0 0 1 339 1556)">
   <path d="M0.993654 0L3.63775 0L29.3281-67.1323L30.0303-67.1323L30.0303-70.459L28.1226-70.459ZM11.6885-24.4799L46.9815-24.4799L46.2315-26.7285L12.4385-26.7285ZM55.1196 0L57.7637 0L30.6382-70.459L29.4326-70.459L29.4326-67.1323Z"/>
  </g>
  <line id="Baseline-L" style="fill:none;stroke:#27AAE1;opacity:1;stroke-width:0.5;" x1="263" x2="3036" y1="1556" y2="1556"/>
  <line id="Capline-L" style="fill:none;stroke:#27AAE1;opacity:1;stroke-width:0.5;" x1="263" x2="3036" y1="1485.54" y2="1485.54"/>
  <line id="right-margin-Black-S" style="fill:none;stroke:#00AEEF;stroke-width:0.5;opacity:1.0;" x1="2982.4" x2="2982.4" y1="600.785" y2="720.121"/>
  <line id="left-margin-Black-S" style="fill:none;stroke:#00AEEF;stroke-width:0.5;opacity:1.0;" x1="2884.4" x2="2884.4" y1="600.785" y2="720.121"/>
  <line id="right-margin-Regular-S" style="fill:none;stroke:#00AEEF;stroke-width:0.5;opacity:1.0;" x1="1496.22" x2="1496.22" y1="600.785" y2="720.121"/>
  <line id="left-margin-Regular-S" style="fill:none;stroke:#00AEEF;stroke-width:0.5;opacity:1.0;" x1="1403.46" x2="1403.46" y1="600.785" y2="720.121"/>
  <line id="right-margin-Ultralight-S" style="fill:none;stroke:#00AEEF;stroke-width:0.5;opacity:1.0;" x1="603.941" x2="603.941" y1="600.785" y2="720.121"/>
  <line id="left-margin-Ultralight-S" style="fill:none;stroke:#00AEEF;stroke-width:0.5;opacity:1.0;" x1="515.481" x2="515.481" y1="600.785" y2="720.121"/>
 </g>
 <g id="Symbols">
  <g id="Black-S" transform="matrix(1 0 0 1 2884.4 696)">
   <path class="SFSymbolsPreviewWireframe" d="M7-35.2051C7-58.4011 25.804-77.2051 49-77.2051C72.196-77.2051 91-58.4011 91-35.2051C91-12.0091 72.196 6.79486 49 6.79486C25.804 6.79486 7-12.0091 7-35.2051ZM21-35.2051C21-19.7411 33.5361-7.20514 49-7.20514C64.4639-7.20514 77-19.7411 77-35.2051C77-50.6691 64.4639-63.2051 49-63.2051C33.5361-63.2051 21-50.6691 21-35.2051ZM46.9795-44.988C45.2397-48.0201 44.0071-50.1683 43.8923-50.3685C43.2517-51.4849 43.6375-52.9091 44.7537-53.5496C45.8701-54.1901 47.2942-53.8046 47.9348-52.6881C48.0168-52.5453 48.6692-51.4081 49.6665-49.6705C48.9309-48.3886 48.0063-46.7776 46.9795-44.988ZM64.4763-23.8599C65.1169-22.7435 64.7312-21.3193 63.615-20.6788C62.4988-20.0383 61.0742-20.4239 60.4338-21.5403C60.2068-21.9358 55.6348-29.9035 51.354-37.3644C50.3232-40.0439 50.6201-42.5334 52.4597-44.8023C57.2625-36.4323 64.1958-24.3492 64.4763-23.8599ZM43.3262-31.5788C41.3738-31.5788 39.541-31.5788 37.9529-31.5788C42.7583-39.9541 49.7825-52.1955 50.0652-52.6881C50.7058-53.8046 52.1299-54.1901 53.2461-53.5496C54.3625-52.9091 54.7483-51.4849 54.1077-50.3685C53.8503-49.9197 47.9993-39.7231 43.3262-31.5788ZM35.2783-26.918C37.0671-27.3723 38.6223-27.0062 39.8665-25.549C38.5508-23.2562 37.6628-21.7086 37.5662-21.5403C36.9255-20.4239 35.5012-20.0383 34.385-20.6788C33.2688-21.3193 32.8831-22.7435 33.5237-23.8599C33.6062-24.0038 34.2686-25.1581 35.2783-26.918ZM51.3582-32.7114C53.0122-32.4802 55.0112-30.723 54.0327-28.0505C44.645-28.0505 32.8987-28.0505 32.3816-28.0505C31.0942-28.0505 30.0513-29.0939 30.0513-30.381C30.0513-31.668 31.0942-32.7114 32.3816-32.7114C32.8503-32.7114 42.5535-32.7114 51.3582-32.7114ZM65.6184-32.7114C66.9053-32.7114 67.9487-31.668 67.9487-30.381C67.9487-29.0939 66.9053-28.0505 65.6184-28.0505C65.3875-28.0505 62.9067-28.0505 59.4062-28.0505C58.6311-29.4016 57.7207-30.9881 56.7319-32.7114C61.5969-32.7114 65.332-32.7114 65.6184-32.7114Z"/>
  </g>
  <g id="Regular-S" transform="matrix(1 0 0 1 1403.46 696)">
   <path class="SFSymbolsPreviewWireframe" d="M7-35.2539C7-57.0029 24.6311-74.6339 46.38-74.6339C68.129-74.6339 85.76-57.0029 85.76-35.2539C85.76-13.5049 68.129 4.1261 46.38 4.1261C24.6311 4.1261 7-13.5049 7-35.2539ZM14.16-35.2539C14.16-17.4593 28.5854-3.03387 46.38-3.03387C64.1747-3.03387 78.6001-17.4593 78.6001-35.2539C78.6001-53.0485 64.1747-67.4739 46.38-67.4739C28.5854-67.4739 14.16-53.0485 14.16-35.2539ZM43.8988-46.7133C41.7622-50.4368 40.2487-53.075 40.1075-53.3207C39.3208-54.6918 39.7947-56.4407 41.1655-57.2272C42.5365-58.0139 44.2853-57.5404 45.072-56.1694C45.1727-55.9939 45.9739-54.5975 47.1984-52.4635C46.2952-50.8893 45.1599-48.911 43.8988-46.7133ZM65.3857-20.7671C66.1725-19.3961 65.6987-17.6471 64.3278-16.8605C62.957-16.0739 61.2079-16.5474 60.4213-17.9184C60.1426-18.4041 54.528-28.1888 49.2709-37.3511C48.0051-40.6417 48.3696-43.6989 50.6288-46.4852C56.5267-36.2065 65.041-21.368 65.3857-20.7671ZM39.4124-30.2462C37.0148-30.2462 34.7642-30.2462 32.8136-30.2462C38.715-40.5314 47.3408-55.5644 47.6881-56.1694C48.4749-57.5404 50.2236-58.0139 51.5945-57.2272C52.9655-56.4407 53.4393-54.6918 52.6525-53.3207C52.3364-52.7697 45.1511-40.2477 39.4124-30.2462ZM29.5292-24.5225C31.7261-25.0803 33.6359-24.6308 35.1636-22.8413C33.548-20.0257 32.4575-18.1252 32.3389-17.9184C31.5521-16.5474 29.8031-16.0739 28.4321-16.8605C27.0613-17.6471 26.5876-19.3961 27.3744-20.7671C27.4757-20.9438 28.2891-22.3613 29.5292-24.5225ZM49.276-31.6371C51.3071-31.3531 53.762-29.1953 52.5604-25.9133C41.0319-25.9133 26.6068-25.9133 25.9719-25.9133C24.3911-25.9133 23.1101-27.1947 23.1101-28.7752C23.1101-30.3558 24.3911-31.6371 25.9719-31.6371C26.5477-31.6371 38.4635-31.6371 49.276-31.6371ZM66.7882-31.6371C68.3685-31.6371 69.65-30.3558 69.65-28.7752C69.65-27.1947 68.3685-25.9133 66.7882-25.9133C66.5045-25.9133 63.4581-25.9133 59.1593-25.9133C58.2075-27.5725 57.0895-29.5208 55.8751-31.6371C61.8497-31.6371 66.4366-31.6371 66.7882-31.6371Z"/>
  </g>
  <g id="Ultralight-S" transform="matrix(1 0 0 1 515.481 696)">
   <path class="SFSymbolsPreviewWireframe" d="M7-35.2539C7-55.8155 23.6685-72.4839 44.23-72.4839C64.7916-72.4839 81.46-55.8155 81.46-35.2539C81.46-14.6923 64.7916 1.97614 44.23 1.97614C23.6685 1.97614 7-14.6923 7-35.2539ZM9.19-35.2539C9.19-15.9019 24.878-0.213867 44.23-0.213867C63.5821-0.213867 79.27-15.9019 79.27-35.2539C79.27-54.606 63.5821-70.2939 44.23-70.2939C24.878-70.2939 9.19-54.606 9.19-35.2539ZM41.8843-46.0876C39.8643-49.6078 38.4333-52.102 38.3-52.3343C37.5562-53.6306 38.0042-55.2839 39.3002-56.0276C40.5963-56.7712 42.2496-56.3237 42.9934-55.0274C43.0886-54.8616 43.846-53.5414 45.0037-51.5239C44.1498-50.0357 43.0765-48.1653 41.8843-46.0876ZM62.198-21.558C62.9418-20.2618 62.494-18.6083 61.1979-17.8647C59.902-17.1211 58.2483-17.5687 57.5046-18.8649C57.2411-19.324 51.9331-28.5745 46.963-37.2366C45.7664-40.3475 46.111-43.2379 48.2468-45.872C53.8227-36.1544 61.8722-22.1261 62.198-21.558ZM37.6427-30.5196C35.3761-30.5196 33.2483-30.5196 31.4042-30.5196C36.9835-40.2433 45.1384-54.4555 45.4667-55.0274C46.2105-56.3237 47.8638-56.7712 49.1597-56.0276C50.4559-55.2839 50.9039-53.6306 50.16-52.3343C49.8613-51.8134 43.0682-39.975 37.6427-30.5196ZM28.2991-25.1083C30.3761-25.6358 32.1816-25.2108 33.6259-23.519C32.0986-20.8571 31.0677-19.0603 30.9554-18.8649C30.2116-17.5687 28.5581-17.1211 27.262-17.8647C25.9661-18.6083 25.5182-20.2618 26.262-21.558C26.3578-21.725 27.1268-23.0652 28.2991-25.1083ZM46.9679-31.8345C48.8881-31.566 51.2089-29.5261 50.073-26.4233C39.1738-26.4233 25.5363-26.4233 24.936-26.4233C23.4416-26.4233 22.2305-27.6346 22.2305-29.129C22.2305-30.6232 23.4416-31.8345 24.936-31.8345C25.4804-31.8345 36.7457-31.8345 46.9679-31.8345ZM63.524-31.8345C65.0181-31.8345 66.2296-30.6232 66.2296-29.129C66.2296-27.6346 65.0181-26.4233 63.524-26.4233C63.2558-26.4233 60.3757-26.4233 56.3116-26.4233C55.4118-27.9919 54.3548-29.8337 53.2067-31.8345C58.8552-31.8345 63.1916-31.8345 63.524-31.8345Z"/>
  </g>
 </g>
</svg>
