<?xml version="1.0" encoding="UTF-8"?>
<svg height="600" width="800" xmlns="http://www.w3.org/2000/svg" xmlns:xlink="http://www.w3.org/1999/xlink">
    <g id="Notes" font-family="'LucidaGrande', 'Lucida Grande', sans-serif" font-size="13">
        <rect fill="white" height="600.0" width="800.0" x="0.0" y="0.0" />
        <g font-size="13">
            <text x="18.0" y="176.0">Small</text>
            <text x="18.0" y="376.0">Medium</text>
            <text x="18.0" y="576.0">Large</text>
        </g>
        <g font-size="9">
            <text x="250.0" y="30.0">Ultralight</text>
            <text x="450.0" y="30.0">Regular</text>
            <text x="650.0" y="30.0">Black</text>
            <text id="template-version" fill="#505050" text-anchor="end" x="785.0" y="575.0">Template v.3.0</text>
            <a href="https://wangchujiang.com/#/app">
                <text fill="#505050" text-anchor="end" x="785.0" y="590.0">https://wangchujiang.com/#/app</text>
            </a>
        </g>
    </g>
    <g id="Guides" stroke="rgb(39, 170, 225)" stroke-width="0.5">
        <path id="Capline-S" d="M18,76 l800,0" />
        <path id="H-reference" d="M85,145.755 L87.685,145.755 L113.369,79.287 L114.052,79.287 L114.052,76 L112.148,76 L85,145.755 Z M95.693,121.536 L130.996,121.536 L130.263,119.313 L96.474,119.313 L95.693,121.536 Z M139.15,145.755 L141.787,145.755 L114.638,76 L113.466,76 L113.466,79.287 L139.15,145.755 Z" stroke="none" />
        <path id="Baseline-S" d="M18,146 l800,0" />
        <path id="left-margin-Ultralight-S" d="M219.984,56 l0,110" />
        <path id="right-margin-Ultralight-S" d="M310.016,56 l0,110" />
        <path id="left-margin-Regular-S" d="M419.984,56 l0,110" />
        <path id="right-margin-Regular-S" d="M510.016,56 l0,110" />
        <path id="left-margin-Black-S" d="M619.984,56 l0,110" />
        <path id="right-margin-Black-S" d="M710.016,56 l0,110" />
        <path id="Capline-M" d="M18,276 l800,0" />
        <path id="Baseline-M" d="M18,346 l800,0" />
        <path id="Capline-L" d="M18,476 l800,0" />
        <path id="Baseline-L" d="M18,546 l800,0" />
    </g>
    <g id="Symbols">
        <g id="Ultralight-S">
            <path d="M297.603,109.512 C297.093,109.381 285.219,106.412 266.649,106.243 C267.094,90.289 269.634,80.076 269.663,79.965 C270.096,78.262 269.064,76.531 267.362,76.098 C265.665,75.668 263.928,76.693 263.495,78.396 C263.371,78.876 260.72,89.487 260.28,106.297 C243.371,106.737 232.85,109.394 232.372,109.518 C230.67,109.954 229.648,111.689 230.084,113.391 C230.52,115.094 232.258,116.116 233.957,115.683 C234.066,115.654 244.189,113.114 260.226,112.669 C260.395,131.354 263.339,143.132 263.498,143.629 C264.437,146.519 267.104,145.987 267.371,145.917 C269.074,145.481 270.099,143.747 269.663,142.044 C269.634,141.929 266.757,130.469 266.591,112.608 C284.347,112.774 295.916,115.651 296.034,115.683 C296.298,115.75 299.07,116.281 299.9,113.382 C300.384,111.692 299.305,109.948 297.603,109.515 Z" />
        </g>
        <g id="Regular-S">
            <path d="M497.603,109.512 C497.093,109.381 485.219,106.412 466.649,106.243 C467.094,90.289 469.634,80.076 469.663,79.965 C470.096,78.262 469.064,76.531 467.362,76.098 C465.665,75.668 463.928,76.693 463.495,78.396 C463.371,78.876 460.72,89.487 460.28,106.297 C443.371,106.737 432.85,109.394 432.372,109.518 C430.67,109.954 429.648,111.689 430.084,113.391 C430.52,115.094 432.258,116.116 433.957,115.683 C434.066,115.654 444.189,113.114 460.226,112.669 C460.395,131.354 463.339,143.132 463.498,143.629 C464.437,146.519 467.104,145.987 467.371,145.917 C469.074,145.481 470.099,143.747 469.663,142.044 C469.634,141.929 466.757,130.469 466.591,112.608 C484.347,112.774 495.916,115.651 496.034,115.683 C496.298,115.75 499.07,116.281 499.9,113.382 C500.384,111.692 499.305,109.948 497.603,109.515 Z" />
        </g>
        <g id="Black-S">
            <path d="M697.603,109.512 C697.093,109.381 685.219,106.412 666.649,106.243 C667.094,90.289 669.634,80.076 669.663,79.965 C670.096,78.262 669.064,76.531 667.362,76.098 C665.665,75.668 663.928,76.693 663.495,78.396 C663.371,78.876 660.72,89.487 660.28,106.297 C643.371,106.737 632.85,109.394 632.372,109.518 C630.67,109.954 629.648,111.689 630.084,113.391 C630.52,115.094 632.258,116.116 633.957,115.683 C634.066,115.654 644.189,113.114 660.226,112.669 C660.395,131.354 663.339,143.132 663.498,143.629 C664.437,146.519 667.104,145.987 667.371,145.917 C669.074,145.481 670.099,143.747 669.663,142.044 C669.634,141.929 666.757,130.469 666.591,112.608 C684.347,112.774 695.916,115.651 696.034,115.683 C696.298,115.75 699.07,116.281 699.9,113.382 C700.384,111.692 699.305,109.948 697.603,109.515 Z" />
        </g>
    </g>
</svg>