<?xml version="1.0" encoding="UTF-8"?>
<!--Generator: Apple Native CoreSVG 341-->
<!DOCTYPE svg
PUBLIC "-//W3C//DTD SVG 1.1//EN"
       "http://www.w3.org/Graphics/SVG/1.1/DTD/svg11.dtd">
<svg version="1.1" xmlns="http://www.w3.org/2000/svg" xmlns:xlink="http://www.w3.org/1999/xlink" viewBox="0 0 3300 2200">
 <!--glyph: "", point size: 100.0, font version: "20.0d10e1", template writer version: "138.0.0"-->
 <style>.SFSymbolsPreviewWireframe {fill:none;opacity:1.0;stroke:black;stroke-width:0.5}
</style>
 <g id="Notes">
  <rect height="2200" id="artboard" style="fill:white;opacity:1" width="3300" x="0" y="0"/>
  <line style="fill:none;stroke:black;opacity:1;stroke-width:0.5;" x1="263" x2="3036" y1="292" y2="292"/>
  <text style="stroke:none;fill:black;font-family:sans-serif;font-size:13;font-weight:bold;" transform="matrix(1 0 0 1 263 322)">Weight/Scale Variations</text>
  <text style="stroke:none;fill:black;font-family:sans-serif;font-size:13;text-anchor:middle;" transform="matrix(1 0 0 1 559.711 322)">Ultralight</text>
  <text style="stroke:none;fill:black;font-family:sans-serif;font-size:13;text-anchor:middle;" transform="matrix(1 0 0 1 856.422 322)">Thin</text>
  <text style="stroke:none;fill:black;font-family:sans-serif;font-size:13;text-anchor:middle;" transform="matrix(1 0 0 1 1153.13 322)">Light</text>
  <text style="stroke:none;fill:black;font-family:sans-serif;font-size:13;text-anchor:middle;" transform="matrix(1 0 0 1 1449.84 322)">Regular</text>
  <text style="stroke:none;fill:black;font-family:sans-serif;font-size:13;text-anchor:middle;" transform="matrix(1 0 0 1 1746.56 322)">Medium</text>
  <text style="stroke:none;fill:black;font-family:sans-serif;font-size:13;text-anchor:middle;" transform="matrix(1 0 0 1 2043.27 322)">Semibold</text>
  <text style="stroke:none;fill:black;font-family:sans-serif;font-size:13;text-anchor:middle;" transform="matrix(1 0 0 1 2339.98 322)">Bold</text>
  <text style="stroke:none;fill:black;font-family:sans-serif;font-size:13;text-anchor:middle;" transform="matrix(1 0 0 1 2636.69 322)">Heavy</text>
  <text style="stroke:none;fill:black;font-family:sans-serif;font-size:13;text-anchor:middle;" transform="matrix(1 0 0 1 2933.4 322)">Black</text>
  <line style="fill:none;stroke:black;opacity:1;stroke-width:0.5;" x1="263" x2="3036" y1="1903" y2="1903"/>
  <g transform="matrix(0.2 0 0 0.2 263 1933)">
   <path d="m46.2402 4.15039c21.7773 0 39.4531-17.627 39.4531-39.4043s-17.6758-39.4043-39.4531-39.4043c-21.7285 0-39.4043 17.627-39.4043 39.4043s17.6758 39.4043 39.4043 39.4043Zm0-7.42188c-17.6758 0-31.9336-14.3066-31.9336-31.9824s14.2578-31.9824 31.9336-31.9824 31.9824 14.3066 31.9824 31.9824-14.3066 31.9824-31.9824 31.9824Zm-17.9688-31.9824c0 2.14844 1.51367 3.61328 3.75977 3.61328h10.498v10.5957c0 2.19727 1.46484 3.71094 3.61328 3.71094 2.24609 0 3.71094-1.51367 3.71094-3.71094v-10.5957h10.5957c2.19727 0 3.71094-1.46484 3.71094-3.61328 0-2.19727-1.51367-3.71094-3.71094-3.71094h-10.5957v-10.5469c0-2.24609-1.46484-3.75977-3.71094-3.75977-2.14844 0-3.61328 1.51367-3.61328 3.75977v10.5469h-10.498c-2.24609 0-3.75977 1.51367-3.75977 3.71094Z"/>
  </g>
  <g transform="matrix(0.2 0 0 0.2 281.506 1933)">
   <path d="m58.5449 14.5508c27.4902 0 49.8047-22.3145 49.8047-49.8047s-22.3145-49.8047-49.8047-49.8047-49.8047 22.3145-49.8047 49.8047 22.3145 49.8047 49.8047 49.8047Zm0-8.30078c-22.9492 0-41.5039-18.5547-41.5039-41.5039s18.5547-41.5039 41.5039-41.5039 41.5039 18.5547 41.5039 41.5039-18.5547 41.5039-41.5039 41.5039Zm-22.6562-41.5039c0 2.39258 1.66016 4.00391 4.15039 4.00391h14.3555v14.4043c0 2.44141 1.66016 4.15039 4.05273 4.15039 2.44141 0 4.15039-1.66016 4.15039-4.15039v-14.4043h14.4043c2.44141 0 4.15039-1.61133 4.15039-4.00391 0-2.44141-1.70898-4.15039-4.15039-4.15039h-14.4043v-14.3555c0-2.49023-1.70898-4.19922-4.15039-4.19922-2.39258 0-4.05273 1.70898-4.05273 4.19922v14.3555h-14.3555c-2.49023 0-4.15039 1.70898-4.15039 4.15039Z"/>
  </g>
  <g transform="matrix(0.2 0 0 0.2 304.924 1933)">
   <path d="m74.8535 28.3203c35.1074 0 63.623-28.4668 63.623-63.5742s-28.5156-63.623-63.623-63.623-63.5742 28.5156-63.5742 63.623 28.4668 63.5742 63.5742 63.5742Zm0-9.08203c-30.127 0-54.4922-24.3652-54.4922-54.4922s24.3652-54.4922 54.4922-54.4922 54.4922 24.3652 54.4922 54.4922-24.3652 54.4922-54.4922 54.4922Zm-28.8574-54.4922c0 2.58789 1.85547 4.39453 4.58984 4.39453h19.7266v19.7754c0 2.68555 1.85547 4.58984 4.44336 4.58984 2.68555 0 4.54102-1.85547 4.54102-4.58984v-19.7754h19.7754c2.68555 0 4.58984-1.80664 4.58984-4.39453 0-2.73438-1.85547-4.58984-4.58984-4.58984h-19.7754v-19.7266c0-2.73438-1.85547-4.63867-4.54102-4.63867-2.58789 0-4.44336 1.9043-4.44336 4.63867v19.7266h-19.7266c-2.73438 0-4.58984 1.85547-4.58984 4.58984Z"/>
  </g>
  <text style="stroke:none;fill:black;font-family:sans-serif;font-size:13;font-weight:bold;" transform="matrix(1 0 0 1 263 1953)">Design Variations</text>
  <text style="stroke:none;fill:black;font-family:sans-serif;font-size:13;" transform="matrix(1 0 0 1 263 1971)">Symbols are supported in up to nine weights and three scales.</text>
  <text style="stroke:none;fill:black;font-family:sans-serif;font-size:13;" transform="matrix(1 0 0 1 263 1989)">For optimal layout with text and other symbols, vertically align</text>
  <text style="stroke:none;fill:black;font-family:sans-serif;font-size:13;" transform="matrix(1 0 0 1 263 2007)">symbols with the adjacent text.</text>
  <line style="fill:none;stroke:#00AEEF;stroke-width:0.5;opacity:1.0;" x1="776" x2="776" y1="1919" y2="1933"/>
  <g transform="matrix(0.2 0 0 0.2 776 1933)">
   <path d="m16.5527 0.78125c2.58789 0 3.85742-0.976562 4.78516-3.71094l6.29883-17.2363h28.8086l6.29883 17.2363c0.927734 2.73438 2.19727 3.71094 4.73633 3.71094 2.58789 0 4.24805-1.5625 4.24805-4.00391 0-0.830078-0.146484-1.61133-0.537109-2.63672l-22.9004-60.9863c-1.12305-2.97852-3.125-4.49219-6.25-4.49219-3.02734 0-5.07812 1.46484-6.15234 4.44336l-22.9004 61.084c-0.390625 1.02539-0.537109 1.80664-0.537109 2.63672 0 2.44141 1.5625 3.95508 4.10156 3.95508Zm13.4766-28.3691 11.8652-32.8613h0.244141l11.8652 32.8613Z"/>
  </g>
  <line style="fill:none;stroke:#00AEEF;stroke-width:0.5;opacity:1.0;" x1="792.836" x2="792.836" y1="1919" y2="1933"/>
  <text style="stroke:none;fill:black;font-family:sans-serif;font-size:13;font-weight:bold;" transform="matrix(1 0 0 1 776 1953)">Margins</text>
  <text style="stroke:none;fill:black;font-family:sans-serif;font-size:13;" transform="matrix(1 0 0 1 776 1971)">Leading and trailing margins on the left and right side of each symbol</text>
  <text style="stroke:none;fill:black;font-family:sans-serif;font-size:13;" transform="matrix(1 0 0 1 776 1989)">can be adjusted by modifying the x-location of the margin guidelines.</text>
  <text style="stroke:none;fill:black;font-family:sans-serif;font-size:13;" transform="matrix(1 0 0 1 776 2007)">Modifications are automatically applied proportionally to all</text>
  <text style="stroke:none;fill:black;font-family:sans-serif;font-size:13;" transform="matrix(1 0 0 1 776 2025)">scales and weights.</text>
  <g transform="matrix(0.2 0 0 0.2 1289 1933)">
   <path d="m14.209 9.32617 8.49609 8.54492c4.29688 4.3457 9.22852 4.05273 13.8672-1.07422l53.4668-58.9355-4.83398-4.88281-53.0762 58.3984c-1.75781 2.00195-3.41797 2.49023-5.76172 0.146484l-5.85938-5.81055c-2.34375-2.29492-1.80664-4.00391 0.195312-5.81055l57.373-54.0039-4.88281-4.83398-57.959 54.4434c-4.93164 4.58984-5.32227 9.47266-1.02539 13.8184Zm32.0801-90.9668c-2.09961 2.05078-2.24609 4.93164-1.07422 6.88477 1.17188 1.80664 3.4668 2.97852 6.68945 2.14844 7.32422-1.70898 14.9414-2.00195 22.0703 2.68555l-2.92969 7.27539c-1.70898 4.15039-0.830078 7.08008 1.85547 9.81445l11.4746 11.5723c2.44141 2.44141 4.49219 2.53906 7.32422 2.05078l5.32227-0.976562 3.32031 3.36914-0.195312 2.7832c-0.195312 2.49023 0.439453 4.39453 2.88086 6.78711l3.80859 3.71094c2.39258 2.39258 5.46875 2.53906 7.8125 0.195312l14.5508-14.5996c2.34375-2.34375 2.24609-5.32227-0.146484-7.71484l-3.85742-3.80859c-2.39258-2.39258-4.24805-3.17383-6.64062-2.97852l-2.88086 0.244141-3.22266-3.17383 1.2207-5.61523c0.634766-2.83203-0.146484-5.0293-3.07617-7.95898l-10.9863-10.9375c-16.6992-16.6016-38.8672-16.2109-53.3203-1.75781Zm7.4707 1.85547c12.1582-8.88672 28.6133-7.37305 39.7461 3.75977l12.1582 12.0605c1.17188 1.17188 1.36719 2.09961 1.02539 3.80859l-1.61133 7.42188 7.51953 7.42188 4.93164-0.292969c1.26953-0.0488281 1.66016 0.0488281 2.63672 1.02539l2.88086 2.88086-12.207 12.207-2.88086-2.88086c-0.976562-0.976562-1.12305-1.36719-1.07422-2.68555l0.341797-4.88281-7.4707-7.42188-7.61719 1.26953c-1.61133 0.341797-2.34375 0.195312-3.56445-0.976562l-10.0098-10.0098c-1.26953-1.17188-1.41602-2.00195-0.634766-3.85742l4.39453-10.4492c-7.8125-7.27539-17.9688-10.4004-28.125-7.42188-0.78125 0.195312-1.07422-0.439453-0.439453-0.976562Z"/>
  </g>
  <text style="stroke:none;fill:black;font-family:sans-serif;font-size:13;font-weight:bold;" transform="matrix(1 0 0 1 1289 1953)">Exporting</text>
  <text style="stroke:none;fill:black;font-family:sans-serif;font-size:13;" transform="matrix(1 0 0 1 1289 1971)">Symbols should be outlined when exporting to ensure the</text>
  <text style="stroke:none;fill:black;font-family:sans-serif;font-size:13;" transform="matrix(1 0 0 1 1289 1989)">design is preserved when submitting to Xcode.</text>
  <text id="template-version" style="stroke:none;fill:black;font-family:sans-serif;font-size:13;text-anchor:end;" transform="matrix(1 0 0 1 3036 1933)">Template v.6.0</text>
  <text style="stroke:none;fill:black;font-family:sans-serif;font-size:13;text-anchor:end;" transform="matrix(1 0 0 1 3036 1951)">Requires Xcode 16 or greater</text>
  <text id="descriptive-name" style="stroke:none;fill:black;font-family:sans-serif;font-size:13;text-anchor:end;" transform="matrix(1 0 0 1 3036 1969)">Generated from vk-fill</text>
  <text style="stroke:none;fill:black;font-family:sans-serif;font-size:13;text-anchor:end;" transform="matrix(1 0 0 1 3036 1987)">Typeset at 100.0 points</text>
  <text style="stroke:none;fill:black;font-family:sans-serif;font-size:13;" transform="matrix(1 0 0 1 263 726)">Small</text>
  <text style="stroke:none;fill:black;font-family:sans-serif;font-size:13;" transform="matrix(1 0 0 1 263 1156)">Medium</text>
  <text style="stroke:none;fill:black;font-family:sans-serif;font-size:13;" transform="matrix(1 0 0 1 263 1586)">Large</text>
 </g>
 <g id="Guides">
  <g id="H-reference" style="fill:#27AAE1;stroke:none;" transform="matrix(1 0 0 1 339 696)">
   <path d="M0.993654 0L3.63775 0L29.3281-67.1323L30.0303-67.1323L30.0303-70.459L28.1226-70.459ZM11.6885-24.4799L46.9815-24.4799L46.2315-26.7285L12.4385-26.7285ZM55.1196 0L57.7637 0L30.6382-70.459L29.4326-70.459L29.4326-67.1323Z"/>
  </g>
  <line id="Baseline-S" style="fill:none;stroke:#27AAE1;opacity:1;stroke-width:0.5;" x1="263" x2="3036" y1="696" y2="696"/>
  <line id="Capline-S" style="fill:none;stroke:#27AAE1;opacity:1;stroke-width:0.5;" x1="263" x2="3036" y1="625.541" y2="625.541"/>
  <g id="H-reference" style="fill:#27AAE1;stroke:none;" transform="matrix(1 0 0 1 339 1126)">
   <path d="M0.993654 0L3.63775 0L29.3281-67.1323L30.0303-67.1323L30.0303-70.459L28.1226-70.459ZM11.6885-24.4799L46.9815-24.4799L46.2315-26.7285L12.4385-26.7285ZM55.1196 0L57.7637 0L30.6382-70.459L29.4326-70.459L29.4326-67.1323Z"/>
  </g>
  <line id="Baseline-M" style="fill:none;stroke:#27AAE1;opacity:1;stroke-width:0.5;" x1="263" x2="3036" y1="1126" y2="1126"/>
  <line id="Capline-M" style="fill:none;stroke:#27AAE1;opacity:1;stroke-width:0.5;" x1="263" x2="3036" y1="1055.54" y2="1055.54"/>
  <g id="H-reference" style="fill:#27AAE1;stroke:none;" transform="matrix(1 0 0 1 339 1556)">
   <path d="M0.993654 0L3.63775 0L29.3281-67.1323L30.0303-67.1323L30.0303-70.459L28.1226-70.459ZM11.6885-24.4799L46.9815-24.4799L46.2315-26.7285L12.4385-26.7285ZM55.1196 0L57.7637 0L30.6382-70.459L29.4326-70.459L29.4326-67.1323Z"/>
  </g>
  <line id="Baseline-L" style="fill:none;stroke:#27AAE1;opacity:1;stroke-width:0.5;" x1="263" x2="3036" y1="1556" y2="1556"/>
  <line id="Capline-L" style="fill:none;stroke:#27AAE1;opacity:1;stroke-width:0.5;" x1="263" x2="3036" y1="1485.54" y2="1485.54"/>
  <line id="right-margin-Black-S" style="fill:none;stroke:#00AEEF;stroke-width:0.5;opacity:1.0;" x1="2981.9" x2="2981.9" y1="600.785" y2="720.121"/>
  <line id="left-margin-Black-S" style="fill:none;stroke:#00AEEF;stroke-width:0.5;opacity:1.0;" x1="2884.9" x2="2884.9" y1="600.785" y2="720.121"/>
  <line id="right-margin-Regular-S" style="fill:none;stroke:#00AEEF;stroke-width:0.5;opacity:1.0;" x1="1495.64" x2="1495.64" y1="600.785" y2="720.121"/>
  <line id="left-margin-Regular-S" style="fill:none;stroke:#00AEEF;stroke-width:0.5;opacity:1.0;" x1="1404.04" x2="1404.04" y1="600.785" y2="720.121"/>
  <line id="right-margin-Ultralight-S" style="fill:none;stroke:#00AEEF;stroke-width:0.5;opacity:1.0;" x1="602.561" x2="602.561" y1="600.785" y2="720.121"/>
  <line id="left-margin-Ultralight-S" style="fill:none;stroke:#00AEEF;stroke-width:0.5;opacity:1.0;" x1="516.861" x2="516.861" y1="600.785" y2="720.121"/>
 </g>
 <g id="Symbols">
  <g id="Black-S" transform="matrix(1 0 0 1 2884.9 696)">
   <path class="SFSymbolsPreviewWireframe" d="M67.0557-73.7051C85.5525-73.7051 87-72.2576 87-53.761L87-16.5263C87 1.85614 85.5615 3.29486 67.1787 3.29486L29.8213 3.29486C11.4385 3.29486 10 1.85614 10-16.5263L10-53.884C10-72.2665 11.4385-73.7051 29.8213-73.7051L67.0557-73.7051ZM66.4336-23.2736C67.5413-23.2736 69.364-23.4562 67.9766-25.7662C67.8599-25.9581 67.1677-27.4741 63.812-30.5931C60.9534-33.2575 61.0999-33.5499 64.8701-39.0807C67.8916-43.5135 68.3452-44.3217 68.1165-45.0615C67.9058-45.743 67.647-46.0081 66.0801-46.0081C64.7205-46.0081 61.3252-46.0951 60.228-46.0951C58.5703-46.0951 58.3323-44.878 56.0005-40.1376C54.1147-36.3039 53.1406-35.1592 52.3188-35.1592C51.3799-35.1592 50.8838-36.138 50.8838-39.7852C50.8838-44.9662 51.1306-47.1377 46.5752-47.1377C40.2058-47.1377 39.9124-45.6437 40.6714-45.2794C41.6106-44.8286 42.896-44.2819 42.896-41.6188C42.896-37.7156 42.9194-35.4072 41.7937-35.4072C40.6677-35.4072 40.0771-35.9341 37.6672-40.3256C34.8284-45.4985 34.8442-46.0951 32.8413-46.0951C31.2246-46.0951 29.032-46.0951 27.6052-46.0951C26.5645-46.0951 26.2646-45.2462 26.5251-44.6209C26.8557-43.8274 31.5637-33.1759 36.5264-28.1482C41.489-23.1205 46.5579-23.2736 47.3003-23.2736C47.5347-23.2736 48.3806-23.2736 48.6853-23.2736C50.2393-23.2736 50.7954-24.1606 50.9287-24.8794C51.3792-27.3099 51.5242-28.7444 52.4775-28.7444C53.3894-28.7444 53.949-28.1804 58.0505-24.0495C58.5549-23.5413 58.9976-23.2736 60.3315-23.2736C61.6658-23.2736 65.3259-23.2736 66.4336-23.2736Z"/>
  </g>
  <g id="Regular-S" transform="matrix(1 0 0 1 1404.04 696)">
   <path class="SFSymbolsPreviewWireframe" d="M60.5255-71.0539C80.0704-71.0539 81.6-69.5244 81.6-49.9793L81.6-20.5284C81.6-0.98352 80.0704 0.546082 60.5255 0.546082L31.0745 0.546082C11.5295 0.546082 10-0.983521 10-20.5284L10-49.9793C10-69.5244 11.5295-71.0539 31.0745-71.0539L60.5255-71.0539ZM67.0138-21.3056C68.3087-21.3056 70.4393-21.5192 68.8179-24.2197C68.681-24.4437 67.8721-26.2161 63.9493-29.8622C60.6074-32.9769 60.7789-33.3186 65.1863-39.7843C68.7181-44.9661 69.2483-45.9109 68.9812-46.7758C68.7347-47.5725 68.4324-47.8824 66.6006-47.8824C65.0112-47.8824 61.0421-47.9841 59.7594-47.9841C57.8215-47.9841 57.5433-46.5612 54.8177-41.0198C52.613-36.538 51.4746-35.2 50.5135-35.2C49.4163-35.2 48.8359-36.3442 48.8359-40.6077C48.8359-46.6644 49.1245-49.2029 43.7993-49.2029C36.3535-49.2029 36.0105-47.4564 36.8976-47.0305C37.9958-46.5035 39.4983-45.8643 39.4983-42.7513C39.4983-38.1884 39.5258-35.4899 38.2095-35.4899C36.8937-35.4899 36.2032-36.106 33.386-41.2394C30.0675-47.2867 30.0859-47.9841 27.7444-47.9841C25.8545-47.9841 23.2913-47.9841 21.6237-47.9841C20.4067-47.9841 20.0565-46.9917 20.3608-46.2608C20.7474-45.3331 26.2507-32.8815 32.052-27.0041C37.8534-21.1267 43.7792-21.3056 44.6471-21.3056C44.9211-21.3056 45.9097-21.3056 46.2659-21.3056C48.0829-21.3056 48.7328-22.3426 48.8885-23.1829C49.4154-26.0242 49.585-27.7011 50.6993-27.7011C51.7651-27.7011 52.4192-27.0417 57.2139-22.2127C57.8038-21.6187 58.321-21.3056 59.8807-21.3056C61.4402-21.3056 65.719-21.3056 67.0138-21.3056Z"/>
  </g>
  <g id="Ultralight-S" transform="matrix(1 0 0 1 516.861 696)">
   <path class="SFSymbolsPreviewWireframe" d="M58.6826-68.1039C74.465-68.1039 75.7-66.8688 75.7-51.0866L75.7-19.3162C75.7-3.63147 74.4725-2.40387 58.7877-2.40387L26.9124-2.40387C11.2275-2.40387 10-3.63147 10-19.3162L10-51.1915C10-66.8764 11.2275-68.1039 26.9124-68.1039L58.6826-68.1039ZM62.3159-22.455C63.5041-22.455 65.4591-22.6509 63.971-25.1289C63.8458-25.3346 63.1034-26.9608 59.5037-30.3065C56.4374-33.1646 56.5946-33.4781 60.6387-39.4109C63.8797-44.1659 64.3663-45.0328 64.121-45.8264C63.8951-46.5574 63.6175-46.8417 61.9367-46.8417C60.4783-46.8417 56.8362-46.9351 55.6593-46.9351C53.881-46.9351 53.6257-45.6295 51.1246-40.5447C49.1016-36.4323 48.0569-35.2044 47.1754-35.2044C46.1682-35.2044 45.6359-36.2544 45.6359-40.1666C45.6359-45.7242 45.9007-48.0535 41.0144-48.0535C34.1821-48.0535 33.8673-46.4509 34.6814-46.0601C35.6888-45.5765 37.0677-44.9901 37.0677-42.1335C37.0677-37.9466 37.0927-35.4705 35.8852-35.4705C34.6775-35.4705 34.0441-36.0357 31.459-40.7463C28.4139-46.2952 28.4308-46.9351 26.2823-46.9351C24.5482-46.9351 22.196-46.9351 20.6657-46.9351C19.5492-46.9351 19.2277-46.0245 19.5071-45.3538C19.8617-44.5026 24.9118-33.077 30.235-27.6839C35.5583-22.2909 40.9958-22.455 41.7921-22.455C42.0435-22.455 42.9508-22.455 43.2776-22.455C44.9447-22.455 45.5413-23.4066 45.6841-24.1776C46.1674-26.7847 46.3229-28.3235 47.3455-28.3235C48.3237-28.3235 48.9238-27.7184 53.3235-23.2874C53.8647-22.7422 54.3394-22.455 55.7704-22.455C57.2016-22.455 61.1278-22.455 62.3159-22.455Z"/>
  </g>
 </g>
</svg>
