<?xml version="1.0" encoding="UTF-8"?>
<svg height="600" width="800" xmlns="http://www.w3.org/2000/svg" xmlns:xlink="http://www.w3.org/1999/xlink">
    <g id="Notes" font-family="'LucidaGrande', 'Lucida Grande', sans-serif" font-size="13">
        <rect fill="white" height="600.0" width="800.0" x="0.0" y="0.0" />
        <g font-size="13">
            <text x="18.0" y="176.0">Small</text>
            <text x="18.0" y="376.0">Medium</text>
            <text x="18.0" y="576.0">Large</text>
        </g>
        <g font-size="9">
            <text x="250.0" y="30.0">Ultralight</text>
            <text x="450.0" y="30.0">Regular</text>
            <text x="650.0" y="30.0">Black</text>
            <text id="template-version" fill="#505050" text-anchor="end" x="785.0" y="575.0">Template v.3.0</text>
            <a href="https://wangchujiang.com/#/app">
                <text fill="#505050" text-anchor="end" x="785.0" y="590.0">https://wangchujiang.com/#/app</text>
            </a>
        </g>
    </g>
    <g id="Guides" stroke="rgb(39, 170, 225)" stroke-width="0.5">
        <path id="Capline-S" d="M18,76 l800,0" />
        <path id="H-reference" d="M85,145.755 L87.685,145.755 L113.369,79.287 L114.052,79.287 L114.052,76 L112.148,76 L85,145.755 Z M95.693,121.536 L130.996,121.536 L130.263,119.313 L96.474,119.313 L95.693,121.536 Z M139.15,145.755 L141.787,145.755 L114.638,76 L113.466,76 L113.466,79.287 L139.15,145.755 Z" stroke="none" />
        <path id="Baseline-S" d="M18,146 l800,0" />
        <path id="left-margin-Ultralight-S" d="M220.229,56 l0,110" />
        <path id="right-margin-Ultralight-S" d="M309.771,56 l0,110" />
        <path id="left-margin-Regular-S" d="M420.229,56 l0,110" />
        <path id="right-margin-Regular-S" d="M509.771,56 l0,110" />
        <path id="left-margin-Black-S" d="M620.229,56 l0,110" />
        <path id="right-margin-Black-S" d="M709.771,56 l0,110" />
        <path id="Capline-M" d="M18,276 l800,0" />
        <path id="Baseline-M" d="M18,346 l800,0" />
        <path id="Capline-L" d="M18,476 l800,0" />
        <path id="Baseline-L" d="M18,546 l800,0" />
    </g>
    <g id="Symbols">
        <g id="Ultralight-S">
            <path d="M257.256,111 C245.318,111 239.756,105.438 239.756,93.5 C239.756,81.562 245.315,76 257.256,76 C269.198,76 274.756,81.562 274.756,93.5 C274.756,105.438 269.198,111 257.256,111 Z M265.809,146 L233.412,146 C232.553,146 231.732,145.653 231.13,145.036 C230.532,144.422 230.208,143.588 230.23,142.729 C230.704,125.185 239.034,117.36 257.231,117.36 C258.157,117.36 259.041,117.395 259.919,117.437 C259.175,120.189 258.783,123.326 258.783,126.906 C258.783,135.825 261.074,142.115 265.809,145.997 Z M299.113,136.572 C297.78,138.844 294.853,139.608 292.581,138.271 L291.088,137.396 C290.061,138.138 288.829,138.682 287.42,139.051 L287.42,141.227 C287.42,143.862 285.282,146 282.647,146 C280.013,146 277.874,143.862 277.874,141.227 L277.874,139.051 C276.465,138.682 275.233,138.141 274.206,137.396 L272.713,138.271 C270.442,139.605 267.514,138.844 266.181,136.572 C264.848,134.3 265.608,131.373 267.88,130.04 L270.009,128.79 C269.952,128.191 269.917,127.568 269.917,126.906 C269.917,126.244 269.952,125.624 270.009,125.022 L267.88,123.772 C265.608,122.439 264.845,119.511 266.181,117.24 C267.514,114.968 270.442,114.204 272.713,115.54 L274.206,116.415 C275.233,115.674 276.465,115.13 277.874,114.761 L277.874,112.585 C277.874,109.95 280.013,107.812 282.647,107.812 C285.282,107.812 287.42,109.95 287.42,112.585 L287.42,114.761 C288.829,115.13 290.061,115.671 291.088,116.415 L292.581,115.54 C294.853,114.207 297.78,114.968 299.113,117.24 C300.446,119.511 299.686,122.439 297.414,123.772 L295.285,125.022 C295.343,125.62 295.378,126.244 295.378,126.906 C295.378,127.568 295.343,128.188 295.285,128.79 L297.414,130.04 C299.686,131.373 300.449,134.3 299.113,136.572 Z M287.42,126.909 C287.42,123.116 286.44,122.136 282.647,122.136 C278.854,122.136 277.874,123.116 277.874,126.909 C277.874,130.702 278.854,131.682 282.647,131.682 C286.44,131.682 287.42,130.702 287.42,126.909 Z" />
        </g>
        <g id="Regular-S">
            <path d="M457.256,111 C445.318,111 439.756,105.438 439.756,93.5 C439.756,81.562 445.315,76 457.256,76 C469.198,76 474.756,81.562 474.756,93.5 C474.756,105.438 469.198,111 457.256,111 Z M465.809,146 L433.412,146 C432.553,146 431.732,145.653 431.13,145.036 C430.532,144.422 430.208,143.588 430.23,142.729 C430.704,125.185 439.034,117.36 457.231,117.36 C458.157,117.36 459.041,117.395 459.919,117.437 C459.175,120.189 458.783,123.326 458.783,126.906 C458.783,135.825 461.074,142.115 465.809,145.997 Z M499.113,136.572 C497.78,138.844 494.853,139.608 492.581,138.271 L491.088,137.396 C490.061,138.138 488.829,138.682 487.42,139.051 L487.42,141.227 C487.42,143.862 485.282,146 482.647,146 C480.013,146 477.874,143.862 477.874,141.227 L477.874,139.051 C476.465,138.682 475.233,138.141 474.206,137.396 L472.713,138.271 C470.442,139.605 467.514,138.844 466.181,136.572 C464.848,134.3 465.608,131.373 467.88,130.04 L470.009,128.79 C469.952,128.191 469.917,127.568 469.917,126.906 C469.917,126.244 469.952,125.624 470.009,125.022 L467.88,123.772 C465.608,122.439 464.845,119.511 466.181,117.24 C467.514,114.968 470.442,114.204 472.713,115.54 L474.206,116.415 C475.233,115.674 476.465,115.13 477.874,114.761 L477.874,112.585 C477.874,109.95 480.013,107.812 482.647,107.812 C485.282,107.812 487.42,109.95 487.42,112.585 L487.42,114.761 C488.829,115.13 490.061,115.671 491.088,116.415 L492.581,115.54 C494.853,114.207 497.78,114.968 499.113,117.24 C500.446,119.511 499.686,122.439 497.414,123.772 L495.285,125.022 C495.343,125.62 495.378,126.244 495.378,126.906 C495.378,127.568 495.343,128.188 495.285,128.79 L497.414,130.04 C499.686,131.373 500.449,134.3 499.113,136.572 Z M487.42,126.909 C487.42,123.116 486.44,122.136 482.647,122.136 C478.854,122.136 477.874,123.116 477.874,126.909 C477.874,130.702 478.854,131.682 482.647,131.682 C486.44,131.682 487.42,130.702 487.42,126.909 Z" />
        </g>
        <g id="Black-S">
            <path d="M657.256,111 C645.318,111 639.756,105.438 639.756,93.5 C639.756,81.562 645.315,76 657.256,76 C669.198,76 674.756,81.562 674.756,93.5 C674.756,105.438 669.198,111 657.256,111 Z M665.809,146 L633.412,146 C632.552,146 631.732,145.653 631.13,145.036 C630.532,144.422 630.208,143.588 630.23,142.729 C630.704,125.185 639.034,117.36 657.231,117.36 C658.157,117.36 659.041,117.395 659.919,117.437 C659.175,120.189 658.783,123.326 658.783,126.906 C658.783,135.825 661.074,142.115 665.809,145.997 Z M699.113,136.572 C697.78,138.844 694.853,139.608 692.581,138.271 L691.088,137.396 C690.061,138.138 688.829,138.682 687.42,139.051 L687.42,141.227 C687.42,143.862 685.282,146 682.647,146 C680.013,146 677.874,143.862 677.874,141.227 L677.874,139.051 C676.465,138.682 675.233,138.141 674.206,137.396 L672.713,138.271 C670.442,139.605 667.514,138.844 666.181,136.572 C664.848,134.3 665.608,131.373 667.88,130.04 L670.009,128.79 C669.952,128.191 669.917,127.568 669.917,126.906 C669.917,126.244 669.952,125.624 670.009,125.022 L667.88,123.772 C665.608,122.439 664.845,119.511 666.181,117.24 C667.514,114.968 670.442,114.204 672.713,115.54 L674.206,116.415 C675.233,115.674 676.465,115.13 677.874,114.761 L677.874,112.585 C677.874,109.95 680.013,107.812 682.647,107.812 C685.282,107.812 687.42,109.95 687.42,112.585 L687.42,114.761 C688.829,115.13 690.061,115.671 691.088,116.415 L692.581,115.54 C694.853,114.207 697.78,114.968 699.113,117.24 C700.446,119.511 699.686,122.439 697.414,123.772 L695.285,125.022 C695.343,125.62 695.378,126.244 695.378,126.906 C695.378,127.568 695.343,128.188 695.285,128.79 L697.414,130.04 C699.686,131.373 700.449,134.3 699.113,136.572 Z M687.42,126.909 C687.42,123.116 686.44,122.136 682.647,122.136 C678.854,122.136 677.874,123.116 677.874,126.909 C677.874,130.702 678.854,131.682 682.647,131.682 C686.44,131.682 687.42,130.702 687.42,126.909 Z" />
        </g>
    </g>
</svg>