<?xml version="1.0" encoding="UTF-8"?>
<svg height="600" width="800" xmlns="http://www.w3.org/2000/svg" xmlns:xlink="http://www.w3.org/1999/xlink">
    <g id="Notes" font-family="'LucidaGrande', 'Lucida Grande', sans-serif" font-size="13">
        <rect fill="white" height="600.0" width="800.0" x="0.0" y="0.0" />
        <g font-size="13">
            <text x="18.0" y="176.0">Small</text>
            <text x="18.0" y="376.0">Medium</text>
            <text x="18.0" y="576.0">Large</text>
        </g>
        <g font-size="9">
            <text x="250.0" y="30.0">Ultralight</text>
            <text x="450.0" y="30.0">Regular</text>
            <text x="650.0" y="30.0">Black</text>
            <text id="template-version" fill="#505050" text-anchor="end" x="785.0" y="575.0">Template v.3.0</text>
            <a href="https://wangchujiang.com/#/app">
                <text fill="#505050" text-anchor="end" x="785.0" y="590.0">https://wangchujiang.com/#/app</text>
            </a>
        </g>
    </g>
    <g id="Guides" stroke="rgb(39, 170, 225)" stroke-width="0.5">
        <path id="Capline-S" d="M18,76 l800,0" />
        <path id="H-reference" d="M85,145.755 L87.685,145.755 L113.369,79.287 L114.052,79.287 L114.052,76 L112.148,76 L85,145.755 Z M95.693,121.536 L130.996,121.536 L130.263,119.313 L96.474,119.313 L95.693,121.536 Z M139.15,145.755 L141.787,145.755 L114.638,76 L113.466,76 L113.466,79.287 L139.15,145.755 Z" stroke="none" />
        <path id="Baseline-S" d="M18,146 l800,0" />
        <path id="left-margin-Ultralight-S" d="M214.472,56 l0,110" />
        <path id="right-margin-Ultralight-S" d="M315.528,56 l0,110" />
        <path id="left-margin-Regular-S" d="M414.472,56 l0,110" />
        <path id="right-margin-Regular-S" d="M515.528,56 l0,110" />
        <path id="left-margin-Black-S" d="M614.472,56 l0,110" />
        <path id="right-margin-Black-S" d="M715.528,56 l0,110" />
        <path id="Capline-M" d="M18,276 l800,0" />
        <path id="Baseline-M" d="M18,346 l800,0" />
        <path id="Capline-L" d="M18,476 l800,0" />
        <path id="Baseline-L" d="M18,546 l800,0" />
    </g>
    <g id="Symbols">
        <g id="Ultralight-S">
            <path d="M293.949,104.641 C292.099,88.408 278.383,76 261.789,76 C243.939,76 229.42,90.523 229.42,108.377 C229.42,111.759 229.936,115.064 230.949,118.239 C226.929,121.054 224.472,125.634 224.472,130.677 C224.472,139.125 231.387,146 239.887,146 L283.386,146 C295.592,146 305.528,136.126 305.528,123.991 C305.528,115.834 301.056,108.469 293.952,104.645 Z M275.66,119.415 C273.855,120.358 271.626,119.662 270.683,117.864 C270.034,116.626 269.353,115.579 268.679,114.695 L268.679,125.976 C268.679,128.01 267.032,129.661 264.994,129.661 C262.957,129.661 261.31,128.01 261.31,125.976 L261.31,114.695 C260.636,115.579 259.954,116.626 259.306,117.864 C258.363,119.662 256.141,120.358 254.329,119.415 C252.527,118.468 251.831,116.243 252.778,114.437 C257.169,106.067 263.06,103.702 263.72,103.458 C264.129,103.307 265.212,103.042 266.266,103.458 C266.918,103.716 272.812,106.067 277.208,114.437 C278.154,116.239 277.458,118.468 275.657,119.415 Z" />
        </g>
        <g id="Regular-S">
            <path d="M493.949,104.641 C492.099,88.408 478.383,76 461.789,76 C443.939,76 429.42,90.523 429.42,108.377 C429.42,111.759 429.936,115.064 430.949,118.239 C426.929,121.054 424.472,125.634 424.472,130.677 C424.472,139.125 431.387,146 439.887,146 L483.386,146 C495.592,146 505.528,136.126 505.528,123.991 C505.528,115.834 501.056,108.469 493.952,104.645 Z M475.66,119.415 C473.855,120.358 471.626,119.662 470.683,117.864 C470.034,116.626 469.353,115.579 468.679,114.695 L468.679,125.976 C468.679,128.01 467.032,129.661 464.994,129.661 C462.957,129.661 461.31,128.01 461.31,125.976 L461.31,114.695 C460.636,115.579 459.954,116.626 459.306,117.864 C458.363,119.662 456.141,120.358 454.329,119.415 C452.527,118.468 451.831,116.243 452.778,114.437 C457.169,106.067 463.06,103.702 463.72,103.458 C464.129,103.307 465.212,103.042 466.266,103.458 C466.918,103.716 472.812,106.067 477.208,114.437 C478.154,116.239 477.458,118.468 475.657,119.415 Z" />
        </g>
        <g id="Black-S">
            <path d="M693.949,104.641 C692.099,88.408 678.383,76 661.789,76 C643.939,76 629.42,90.523 629.42,108.377 C629.42,111.759 629.935,115.064 630.949,118.239 C626.929,121.054 624.472,125.634 624.472,130.677 C624.472,139.125 631.387,146 639.887,146 L683.386,146 C695.592,146 705.528,136.126 705.528,123.991 C705.528,115.834 701.055,108.469 693.952,104.645 Z M675.66,119.415 C673.855,120.358 671.626,119.662 670.683,117.864 C670.034,116.626 669.353,115.579 668.679,114.695 L668.679,125.976 C668.679,128.01 667.032,129.661 664.994,129.661 C662.957,129.661 661.31,128.01 661.31,125.976 L661.31,114.695 C660.636,115.579 659.954,116.626 659.306,117.864 C658.363,119.662 656.141,120.358 654.329,119.415 C652.527,118.468 651.831,116.243 652.778,114.437 C657.169,106.067 663.06,103.702 663.72,103.458 C664.129,103.307 665.212,103.042 666.266,103.458 C666.918,103.716 672.812,106.067 677.208,114.437 C678.154,116.239 677.458,118.468 675.657,119.415 Z" />
        </g>
    </g>
</svg>