<?xml version="1.0" encoding="UTF-8"?>
<svg height="600" width="800" xmlns="http://www.w3.org/2000/svg" xmlns:xlink="http://www.w3.org/1999/xlink">
    <g id="Notes" font-family="'LucidaGrande', 'Lucida Grande', sans-serif" font-size="13">
        <rect fill="white" height="600.0" width="800.0" x="0.0" y="0.0" />
        <g font-size="13">
            <text x="18.0" y="176.0">Small</text>
            <text x="18.0" y="376.0">Medium</text>
            <text x="18.0" y="576.0">Large</text>
        </g>
        <g font-size="9">
            <text x="250.0" y="30.0">Ultralight</text>
            <text x="450.0" y="30.0">Regular</text>
            <text x="650.0" y="30.0">Black</text>
            <text id="template-version" fill="#505050" text-anchor="end" x="785.0" y="575.0">Template v.3.0</text>
            <a href="https://wangchujiang.com/#/app">
                <text fill="#505050" text-anchor="end" x="785.0" y="590.0">https://wangchujiang.com/#/app</text>
            </a>
        </g>
    </g>
    <g id="Guides" stroke="rgb(39, 170, 225)" stroke-width="0.5">
        <path id="Capline-S" d="M18,76 l800,0" />
        <path id="H-reference" d="M85,145.755 L87.685,145.755 L113.369,79.287 L114.052,79.287 L114.052,76 L112.148,76 L85,145.755 Z M95.693,121.536 L130.996,121.536 L130.263,119.313 L96.474,119.313 L95.693,121.536 Z M139.15,145.755 L141.787,145.755 L114.638,76 L113.466,76 L113.466,79.287 L139.15,145.755 Z" stroke="none" />
        <path id="Baseline-S" d="M18,146 l800,0" />
        <path id="left-margin-Ultralight-S" d="M220.427,56 l0,110" />
        <path id="right-margin-Ultralight-S" d="M309.573,56 l0,110" />
        <path id="left-margin-Regular-S" d="M420.427,56 l0,110" />
        <path id="right-margin-Regular-S" d="M509.573,56 l0,110" />
        <path id="left-margin-Black-S" d="M620.427,56 l0,110" />
        <path id="right-margin-Black-S" d="M709.573,56 l0,110" />
        <path id="Capline-M" d="M18,276 l800,0" />
        <path id="Baseline-M" d="M18,346 l800,0" />
        <path id="Capline-L" d="M18,476 l800,0" />
        <path id="Baseline-L" d="M18,546 l800,0" />
    </g>
    <g id="Symbols">
        <g id="Ultralight-S">
            <path d="M276.338,138.475 C274.224,143.045 269.607,146 264.572,146 C257.864,146 252.328,140.875 251.681,134.333 L247.221,134.333 C242.727,134.333 238.541,132.324 235.732,128.818 C232.927,125.321 231.871,120.797 232.842,116.41 L236.701,101.518 C237.106,99.96 238.693,99.024 240.256,99.427 C241.817,99.829 242.75,101.422 242.347,102.982 L238.515,117.773 C237.952,120.325 238.588,123.057 240.285,125.169 C241.983,127.287 244.512,128.5 247.224,128.5 L267.492,128.5 C269.102,128.5 270.409,129.807 270.409,131.417 C270.409,133.027 269.102,134.333 267.492,134.333 L257.572,134.333 C258.182,137.647 261.09,140.167 264.575,140.167 C267.343,140.167 269.884,138.542 271.047,136.025 C271.724,134.564 273.465,133.931 274.918,134.602 C276.379,135.278 277.018,137.011 276.341,138.475 Z M298.718,145.145 C298.149,145.714 297.402,146 296.656,146 C295.909,146 295.162,145.714 294.594,145.145 L230.427,80.979 C229.287,79.838 229.287,77.995 230.427,76.855 C231.567,75.714 233.411,75.714 234.551,76.855 L243.491,85.794 C248.656,79.614 256.342,76 264.572,76 C276.875,76 287.769,84.277 291.062,96.131 L296.128,115.713 C297.353,120.132 296.454,124.816 293.652,128.512 C292.558,129.95 291.248,131.145 289.775,132.076 L298.718,141.018 C299.858,142.159 299.858,144.002 298.718,145.143 Z M247.638,89.942 L285.47,127.774 C286.853,127.176 288.06,126.231 289.002,124.991 C290.697,122.757 291.242,119.928 290.493,117.227 L285.429,97.645 C282.848,88.358 274.267,81.836 264.575,81.836 C257.908,81.836 251.704,84.837 247.641,89.945 Z" />
        </g>
        <g id="Regular-S">
            <path d="M476.338,138.475 C474.224,143.045 469.607,146 464.572,146 C457.864,146 452.328,140.875 451.681,134.333 L447.221,134.333 C442.727,134.333 438.541,132.324 435.732,128.818 C432.926,125.321 431.871,120.797 432.842,116.41 L436.701,101.518 C437.106,99.96 438.693,99.024 440.256,99.427 C441.816,99.829 442.75,101.422 442.347,102.982 L438.515,117.773 C437.952,120.325 438.588,123.057 440.285,125.169 C441.983,127.287 444.512,128.5 447.224,128.5 L467.492,128.5 C469.102,128.5 470.409,129.807 470.409,131.417 C470.409,133.027 469.102,134.333 467.492,134.333 L457.572,134.333 C458.182,137.647 461.09,140.167 464.575,140.167 C467.343,140.167 469.884,138.542 471.047,136.025 C471.724,134.564 473.465,133.931 474.918,134.602 C476.379,135.278 477.018,137.011 476.341,138.475 Z M498.718,145.145 C498.149,145.714 497.402,146 496.656,146 C495.909,146 495.162,145.714 494.594,145.145 L430.427,80.979 C429.286,79.838 429.286,77.995 430.427,76.855 C431.567,75.714 433.411,75.714 434.551,76.855 L443.491,85.794 C448.656,79.614 456.341,76 464.572,76 C476.875,76 487.769,84.277 491.061,96.131 L496.128,115.713 C497.353,120.132 496.454,124.816 493.651,128.512 C492.558,129.95 491.248,131.145 489.775,132.076 L498.718,141.018 C499.858,142.159 499.858,144.002 498.718,145.143 Z M447.638,89.942 L485.47,127.774 C486.853,127.176 488.06,126.231 489.002,124.991 C490.697,122.757 491.242,119.928 490.493,117.227 L485.429,97.645 C482.848,88.358 474.267,81.836 464.575,81.836 C457.908,81.836 451.704,84.837 447.641,89.945 Z" />
        </g>
        <g id="Black-S">
            <path d="M676.338,138.475 C674.224,143.045 669.607,146 664.572,146 C657.864,146 652.328,140.875 651.681,134.333 L647.221,134.333 C642.727,134.333 638.541,132.324 635.732,128.818 C632.927,125.321 631.871,120.797 632.842,116.41 L636.701,101.518 C637.106,99.96 638.693,99.024 640.256,99.427 C641.816,99.829 642.75,101.422 642.347,102.982 L638.515,117.773 C637.952,120.325 638.588,123.057 640.285,125.169 C641.983,127.287 644.511,128.5 647.224,128.5 L667.492,128.5 C669.102,128.5 670.409,129.807 670.409,131.417 C670.409,133.027 669.102,134.333 667.492,134.333 L657.572,134.333 C658.182,137.647 661.09,140.167 664.575,140.167 C667.343,140.167 669.884,138.542 671.047,136.025 C671.724,134.564 673.465,133.931 674.918,134.602 C676.379,135.278 677.018,137.011 676.341,138.475 Z M698.718,145.145 C698.149,145.714 697.402,146 696.656,146 C695.909,146 695.162,145.714 694.594,145.145 L630.427,80.979 C629.286,79.838 629.286,77.995 630.427,76.855 C631.567,75.714 633.411,75.714 634.551,76.855 L643.491,85.794 C648.656,79.614 656.341,76 664.572,76 C676.875,76 687.769,84.277 691.062,96.131 L696.128,115.713 C697.353,120.132 696.454,124.816 693.651,128.512 C692.558,129.95 691.248,131.145 689.775,132.076 L698.718,141.018 C699.858,142.159 699.858,144.002 698.718,145.143 Z M647.638,89.942 L685.47,127.774 C686.853,127.176 688.06,126.231 689.002,124.991 C690.697,122.757 691.242,119.928 690.493,117.227 L685.429,97.645 C682.848,88.358 674.267,81.836 664.575,81.836 C657.908,81.836 651.704,84.837 647.641,89.945 Z" />
        </g>
    </g>
</svg>